M48
; DRILL file {KiCad 9.0.4} date 2025-10-22T00:41:17-0400
; FORMAT={-:-/ absolute / metric / decimal}
; #@! TF.CreationDate,2025-10-22T00:41:17-04:00
; #@! TF.GenerationSoftware,Kicad,Pcbnew,9.0.4
; #@! TF.FileFunction,Plated,1,2,PTH
FMAT,2
METRIC
; #@! TA.AperFunction,Plated,PTH,ViaDrill
T1C0.300
; #@! TA.AperFunction,Plated,PTH,ComponentDrill
T2C0.500
; #@! TA.AperFunction,Plated,PTH,ComponentDrill
T3C0.800
; #@! TA.AperFunction,Plated,PTH,ComponentDrill
T4C1.000
; #@! TA.AperFunction,Plated,PTH,ComponentDrill
T5C1.397
; #@! TA.AperFunction,Plated,PTH,ComponentDrill
T6C1.400
; #@! TA.AperFunction,Plated,PTH,ComponentDrill
T7C1.500
; #@! TA.AperFunction,Plated,PTH,ComponentDrill
T8C2.000
; #@! TA.AperFunction,Plated,PTH,ComponentDrill
T9C2.800
; #@! TA.AperFunction,Plated,PTH,ComponentDrill
T10C3.200
%
G90
G05
T1
X61.891Y-130.852
X64.891Y-112.426
X94.75Y-167.275
X101.25Y-167.275
X105.75Y-118.25
X108.0Y-131.25
X108.0Y-167.025
X108.475Y-128.373
X108.5Y-74.75
X108.5Y-123.75
X108.5Y-126.0
X108.5Y-131.75
X109.0Y-131.25
X109.25Y-82.0
X109.5Y-131.75
X110.0Y-131.25
X110.5Y-131.75
X110.75Y-116.0
X111.0Y-90.25
X111.5Y-121.5
X113.0Y-121.75
X114.0Y-62.75
X114.75Y-167.025
X115.049Y-80.767
X115.5Y-117.75
X115.725Y-118.688
X115.75Y-124.5
X115.75Y-125.25
X118.0Y-80.75
X118.25Y-116.0
X118.625Y-123.125
X119.0Y-96.25
X119.15Y-120.725
X119.25Y-77.25
X120.5Y-79.75
X121.312Y-120.812
X121.75Y-167.025
X122.75Y-96.0
X123.25Y-124.25
X123.35Y-127.025
X123.35Y-129.275
X125.95Y-116.225
X127.0Y-78.25
X129.25Y-97.75
T2
X50.1Y-33.5
X50.1Y-168.5
X50.803Y-31.803
X50.803Y-35.197
X50.803Y-166.803
X50.803Y-170.197
X52.5Y-31.1
X52.5Y-35.9
X52.5Y-166.1
X52.5Y-170.9
X54.197Y-31.803
X54.197Y-35.197
X54.197Y-166.803
X54.197Y-170.197
X54.9Y-33.5
X54.9Y-168.5
X147.1Y-33.5
X147.1Y-168.5
X147.803Y-31.803
X147.803Y-35.197
X147.803Y-166.803
X147.803Y-170.197
X149.5Y-31.1
X149.5Y-35.9
X149.5Y-166.1
X149.5Y-170.9
X151.197Y-31.803
X151.197Y-35.197
X151.197Y-166.803
X151.197Y-170.197
X151.9Y-33.5
X151.9Y-168.5
T3
X55.141Y-126.131
X55.141Y-128.131
X133.65Y-83.25
X136.19Y-80.71
X136.19Y-85.79
T4
X71.141Y-131.926
X76.141Y-131.926
X132.25Y-49.17
X132.25Y-51.71
X132.25Y-54.25
T5
X63.0Y-50.46
X63.0Y-55.54
X68.75Y-50.71
X68.75Y-55.79
X83.0Y-62.5
X83.0Y-67.58
X136.5Y-122.71
X136.5Y-127.79
T6
X58.26Y-65.414
X63.34Y-65.414
X68.42Y-65.414
X73.5Y-65.414
T7
X99.25Y-130.25
X112.32Y-135.725
X114.86Y-135.725
X117.4Y-135.725
X122.25Y-70.0
X122.48Y-135.725
X142.25Y-125.25
X143.0Y-116.5
X143.25Y-108.25
T8
X61.159Y-86.926
X71.159Y-86.926
T9
X89.682Y-139.825
X143.618Y-139.825
T10
X52.5Y-33.5
X52.5Y-168.5
X149.5Y-33.5
X149.5Y-168.5
M30
