%TF.GenerationSoftware,KiCad,Pcbnew,9.0.4*%
%TF.CreationDate,2025-10-22T00:41:21-04:00*%
%TF.ProjectId,ClassECoil,436c6173-7345-4436-9f69-6c2e6b696361,rev?*%
%TF.SameCoordinates,Original*%
%TF.FileFunction,Soldermask,Bot*%
%TF.FilePolarity,Negative*%
%FSLAX46Y46*%
G04 Gerber Fmt 4.6, Leading zero omitted, Abs format (unit mm)*
G04 Created by KiCad (PCBNEW 9.0.4) date 2025-10-22 00:41:21*
%MOMM*%
%LPD*%
G01*
G04 APERTURE LIST*
G04 Aperture macros list*
%AMRoundRect*
0 Rectangle with rounded corners*
0 $1 Rounding radius*
0 $2 $3 $4 $5 $6 $7 $8 $9 X,Y pos of 4 corners*
0 Add a 4 corners polygon primitive as box body*
4,1,4,$2,$3,$4,$5,$6,$7,$8,$9,$2,$3,0*
0 Add four circle primitives for the rounded corners*
1,1,$1+$1,$2,$3*
1,1,$1+$1,$4,$5*
1,1,$1+$1,$6,$7*
1,1,$1+$1,$8,$9*
0 Add four rect primitives between the rounded corners*
20,1,$1+$1,$2,$3,$4,$5,0*
20,1,$1+$1,$4,$5,$6,$7,0*
20,1,$1+$1,$6,$7,$8,$9,0*
20,1,$1+$1,$8,$9,$2,$3,0*%
G04 Aperture macros list end*
%ADD10C,1.905000*%
%ADD11C,3.000000*%
%ADD12RoundRect,0.250000X0.550000X-0.550000X0.550000X0.550000X-0.550000X0.550000X-0.550000X-0.550000X0*%
%ADD13C,1.600000*%
%ADD14C,0.800000*%
%ADD15C,6.400000*%
%ADD16C,1.440000*%
%ADD17RoundRect,0.250000X1.750000X1.750000X-1.750000X1.750000X-1.750000X-1.750000X1.750000X-1.750000X0*%
%ADD18C,4.000000*%
%ADD19R,1.905000X4.500000*%
%ADD20O,1.905000X4.500000*%
%ADD21R,2.800000X2.800000*%
%ADD22C,2.800000*%
%ADD23R,1.700000X1.700000*%
%ADD24C,1.700000*%
%ADD25RoundRect,0.250000X-0.750000X-0.750000X0.750000X-0.750000X0.750000X0.750000X-0.750000X0.750000X0*%
%ADD26C,2.000000*%
G04 APERTURE END LIST*
D10*
%TO.C,J5*%
X68750000Y-50710000D03*
X68750000Y-55790000D03*
%TD*%
D11*
%TO.C,TP1*%
X122250000Y-70000000D03*
%TD*%
%TO.C,TP5*%
X143000000Y-116500000D03*
%TD*%
D10*
%TO.C,J2*%
X83000000Y-67580000D03*
X83000000Y-62500000D03*
%TD*%
%TO.C,J4*%
X63000000Y-50460000D03*
X63000000Y-55540000D03*
%TD*%
D12*
%TO.C,C30*%
X55141366Y-128131412D03*
D13*
X55141366Y-126131412D03*
%TD*%
D11*
%TO.C,TP2*%
X143250000Y-108250000D03*
%TD*%
D14*
%TO.C,H7*%
X147100000Y-33500000D03*
X147802944Y-31802944D03*
X147802944Y-35197056D03*
X149500000Y-31100000D03*
D15*
X149500000Y-33500000D03*
D14*
X149500000Y-35900000D03*
X151197056Y-31802944D03*
X151197056Y-35197056D03*
X151900000Y-33500000D03*
%TD*%
D16*
%TO.C,RV2*%
X136190000Y-80710000D03*
X133650000Y-83250000D03*
X136190000Y-85790000D03*
%TD*%
D14*
%TO.C,H6*%
X50100000Y-168500000D03*
X50802944Y-166802944D03*
X50802944Y-170197056D03*
X52500000Y-166100000D03*
D15*
X52500000Y-168500000D03*
D14*
X52500000Y-170900000D03*
X54197056Y-166802944D03*
X54197056Y-170197056D03*
X54900000Y-168500000D03*
%TD*%
%TO.C,H8*%
X50100000Y-33500000D03*
X50802944Y-31802944D03*
X50802944Y-35197056D03*
X52500000Y-31100000D03*
D15*
X52500000Y-33500000D03*
D14*
X52500000Y-35900000D03*
X54197056Y-31802944D03*
X54197056Y-35197056D03*
X54900000Y-33500000D03*
%TD*%
D17*
%TO.C,C33*%
X71159300Y-86926300D03*
D18*
X61159300Y-86926300D03*
%TD*%
D19*
%TO.C,Q1*%
X122480000Y-135725000D03*
D20*
X117400000Y-135725000D03*
X114860000Y-135725000D03*
X112320000Y-135725000D03*
%TD*%
D11*
%TO.C,TP3*%
X99250000Y-130250000D03*
%TD*%
D21*
%TO.C,D7*%
X73500000Y-65414400D03*
D22*
X68420000Y-65414400D03*
X63340000Y-65414400D03*
X58260000Y-65414400D03*
%TD*%
D11*
%TO.C,TP4*%
X142250000Y-125250000D03*
%TD*%
D14*
%TO.C,H5*%
X147100000Y-168500000D03*
X147802944Y-166802944D03*
X147802944Y-170197056D03*
X149500000Y-166100000D03*
D15*
X149500000Y-168500000D03*
D14*
X149500000Y-170900000D03*
X151197056Y-166802944D03*
X151197056Y-170197056D03*
X151900000Y-168500000D03*
%TD*%
D18*
%TO.C,HS1*%
X89682000Y-139825000D03*
X143618000Y-139825000D03*
%TD*%
D10*
%TO.C,J3*%
X136500000Y-127790000D03*
X136500000Y-122710000D03*
%TD*%
D23*
%TO.C,J1*%
X132250000Y-49170000D03*
D24*
X132250000Y-51710000D03*
X132250000Y-54250000D03*
%TD*%
D25*
%TO.C,C31*%
X71141366Y-131926300D03*
D26*
X76141366Y-131926300D03*
%TD*%
M02*
