%TF.GenerationSoftware,KiCad,Pcbnew,9.0.4*%
%TF.CreationDate,2025-10-22T00:41:21-04:00*%
%TF.ProjectId,ClassECoil,436c6173-7345-4436-9f69-6c2e6b696361,rev?*%
%TF.SameCoordinates,Original*%
%TF.FileFunction,Copper,L2,Bot*%
%TF.FilePolarity,Positive*%
%FSLAX46Y46*%
G04 Gerber Fmt 4.6, Leading zero omitted, Abs format (unit mm)*
G04 Created by KiCad (PCBNEW 9.0.4) date 2025-10-22 00:41:21*
%MOMM*%
%LPD*%
G01*
G04 APERTURE LIST*
G04 Aperture macros list*
%AMRoundRect*
0 Rectangle with rounded corners*
0 $1 Rounding radius*
0 $2 $3 $4 $5 $6 $7 $8 $9 X,Y pos of 4 corners*
0 Add a 4 corners polygon primitive as box body*
4,1,4,$2,$3,$4,$5,$6,$7,$8,$9,$2,$3,0*
0 Add four circle primitives for the rounded corners*
1,1,$1+$1,$2,$3*
1,1,$1+$1,$4,$5*
1,1,$1+$1,$6,$7*
1,1,$1+$1,$8,$9*
0 Add four rect primitives between the rounded corners*
20,1,$1+$1,$2,$3,$4,$5,0*
20,1,$1+$1,$4,$5,$6,$7,0*
20,1,$1+$1,$6,$7,$8,$9,0*
20,1,$1+$1,$8,$9,$2,$3,0*%
G04 Aperture macros list end*
%TA.AperFunction,ComponentPad*%
%ADD10C,1.905000*%
%TD*%
%TA.AperFunction,ComponentPad*%
%ADD11C,3.000000*%
%TD*%
%TA.AperFunction,ComponentPad*%
%ADD12RoundRect,0.250000X0.550000X-0.550000X0.550000X0.550000X-0.550000X0.550000X-0.550000X-0.550000X0*%
%TD*%
%TA.AperFunction,ComponentPad*%
%ADD13C,1.600000*%
%TD*%
%TA.AperFunction,ComponentPad*%
%ADD14C,0.800000*%
%TD*%
%TA.AperFunction,ComponentPad*%
%ADD15C,6.400000*%
%TD*%
%TA.AperFunction,ComponentPad*%
%ADD16C,1.440000*%
%TD*%
%TA.AperFunction,ComponentPad*%
%ADD17RoundRect,0.250000X1.750000X1.750000X-1.750000X1.750000X-1.750000X-1.750000X1.750000X-1.750000X0*%
%TD*%
%TA.AperFunction,ComponentPad*%
%ADD18C,4.000000*%
%TD*%
%TA.AperFunction,ComponentPad*%
%ADD19R,1.905000X4.500000*%
%TD*%
%TA.AperFunction,ComponentPad*%
%ADD20O,1.905000X4.500000*%
%TD*%
%TA.AperFunction,ComponentPad*%
%ADD21R,2.800000X2.800000*%
%TD*%
%TA.AperFunction,ComponentPad*%
%ADD22C,2.800000*%
%TD*%
%TA.AperFunction,ComponentPad*%
%ADD23R,1.700000X1.700000*%
%TD*%
%TA.AperFunction,ComponentPad*%
%ADD24C,1.700000*%
%TD*%
%TA.AperFunction,ComponentPad*%
%ADD25RoundRect,0.250000X-0.750000X-0.750000X0.750000X-0.750000X0.750000X0.750000X-0.750000X0.750000X0*%
%TD*%
%TA.AperFunction,ComponentPad*%
%ADD26C,2.000000*%
%TD*%
%TA.AperFunction,ViaPad*%
%ADD27C,0.600000*%
%TD*%
%TA.AperFunction,Conductor*%
%ADD28C,0.250000*%
%TD*%
%TA.AperFunction,Conductor*%
%ADD29C,1.000000*%
%TD*%
G04 APERTURE END LIST*
D10*
%TO.P,J5,1,Pin_1*%
%TO.N,Net-(J5-Pin_1)*%
X68750000Y-50710000D03*
X68750000Y-55790000D03*
%TD*%
D11*
%TO.P,TP1,1,1*%
%TO.N,Net-(U4-SigIn)*%
X122250000Y-70000000D03*
%TD*%
%TO.P,TP5,1,1*%
%TO.N,GND*%
X143000000Y-116500000D03*
%TD*%
D10*
%TO.P,J2,1,Pin_1*%
%TO.N,VBUS*%
X83000000Y-67580000D03*
X83000000Y-62500000D03*
%TD*%
%TO.P,J4,1,Pin_1*%
%TO.N,Net-(J4-Pin_1)*%
X63000000Y-50460000D03*
X63000000Y-55540000D03*
%TD*%
D12*
%TO.P,C30,1*%
%TO.N,Net-(D6-K)*%
X55141366Y-128131412D03*
D13*
%TO.P,C30,2*%
%TO.N,Net-(D5-K)*%
X55141366Y-126131412D03*
%TD*%
D11*
%TO.P,TP2,1,1*%
%TO.N,FEEDBACK*%
X143250000Y-108250000D03*
%TD*%
D14*
%TO.P,H7,1,1*%
%TO.N,Earth*%
X147100000Y-33500000D03*
X147802944Y-31802944D03*
X147802944Y-35197056D03*
X149500000Y-31100000D03*
D15*
X149500000Y-33500000D03*
D14*
X149500000Y-35900000D03*
X151197056Y-31802944D03*
X151197056Y-35197056D03*
X151900000Y-33500000D03*
%TD*%
D16*
%TO.P,RV2,1,1*%
%TO.N,GND*%
X136190000Y-80710000D03*
%TO.P,RV2,2,2*%
%TO.N,Net-(R8-Pad2)*%
X133650000Y-83250000D03*
%TO.P,RV2,3,3*%
%TO.N,+5V*%
X136190000Y-85790000D03*
%TD*%
D14*
%TO.P,H6,1,1*%
%TO.N,Earth*%
X50100000Y-168500000D03*
X50802944Y-166802944D03*
X50802944Y-170197056D03*
X52500000Y-166100000D03*
D15*
X52500000Y-168500000D03*
D14*
X52500000Y-170900000D03*
X54197056Y-166802944D03*
X54197056Y-170197056D03*
X54900000Y-168500000D03*
%TD*%
%TO.P,H8,1,1*%
%TO.N,Earth*%
X50100000Y-33500000D03*
X50802944Y-31802944D03*
X50802944Y-35197056D03*
X52500000Y-31100000D03*
D15*
X52500000Y-33500000D03*
D14*
X52500000Y-35900000D03*
X54197056Y-31802944D03*
X54197056Y-35197056D03*
X54900000Y-33500000D03*
%TD*%
D17*
%TO.P,C33,1*%
%TO.N,VBUS*%
X71159300Y-86926300D03*
D18*
%TO.P,C33,2*%
%TO.N,GND*%
X61159300Y-86926300D03*
%TD*%
D19*
%TO.P,Q1,1,D*%
%TO.N,Net-(D3-K)*%
X122480000Y-135725000D03*
D20*
%TO.P,Q1,2,S*%
%TO.N,GND*%
X117400000Y-135725000D03*
%TO.P,Q1,3,DS*%
%TO.N,PGND*%
X114860000Y-135725000D03*
%TO.P,Q1,4,G*%
%TO.N,Net-(Q1-G)*%
X112320000Y-135725000D03*
%TD*%
D11*
%TO.P,TP3,1,1*%
%TO.N,Net-(Q1-G)*%
X99250000Y-130250000D03*
%TD*%
D21*
%TO.P,D7,1,+*%
%TO.N,VBUS*%
X73500000Y-65414400D03*
D22*
%TO.P,D7,2*%
%TO.N,Net-(J5-Pin_1)*%
X68420000Y-65414400D03*
%TO.P,D7,3*%
%TO.N,Net-(J4-Pin_1)*%
X63340000Y-65414400D03*
%TO.P,D7,4,-*%
%TO.N,GND*%
X58260000Y-65414400D03*
%TD*%
D11*
%TO.P,TP4,1,1*%
%TO.N,Net-(D3-K)*%
X142250000Y-125250000D03*
%TD*%
D14*
%TO.P,H5,1,1*%
%TO.N,Earth*%
X147100000Y-168500000D03*
X147802944Y-166802944D03*
X147802944Y-170197056D03*
X149500000Y-166100000D03*
D15*
X149500000Y-168500000D03*
D14*
X149500000Y-170900000D03*
X151197056Y-166802944D03*
X151197056Y-170197056D03*
X151900000Y-168500000D03*
%TD*%
D18*
%TO.P,HS1,1*%
%TO.N,unconnected-(HS1-Pad1)*%
X89682000Y-139825000D03*
%TO.N,unconnected-(HS1-Pad1)_1*%
X143618000Y-139825000D03*
%TD*%
D10*
%TO.P,J3,1,Pin_1*%
%TO.N,Net-(D3-K)*%
X136500000Y-127790000D03*
X136500000Y-122710000D03*
%TD*%
D23*
%TO.P,J1,1,Pin_1*%
%TO.N,Earth*%
X132250000Y-49170000D03*
D24*
%TO.P,J1,2,Pin_2*%
%TO.N,Net-(J1-Pin_2)*%
X132250000Y-51710000D03*
%TO.P,J1,3,Pin_3*%
%TO.N,Net-(J1-Pin_3)*%
X132250000Y-54250000D03*
%TD*%
D25*
%TO.P,C31,1*%
%TO.N,VDD*%
X71141366Y-131926300D03*
D26*
%TO.P,C31,2*%
%TO.N,GND*%
X76141366Y-131926300D03*
%TD*%
D27*
%TO.N,GND*%
X109500000Y-131750000D03*
X114750000Y-167025000D03*
X108000000Y-131250000D03*
X108000000Y-167025000D03*
X108500000Y-74750000D03*
X121750000Y-167025000D03*
X122750000Y-96000000D03*
X109250000Y-82000000D03*
X61891366Y-130852300D03*
X129250000Y-97750000D03*
X127000000Y-78250000D03*
X115725000Y-118687500D03*
X101250000Y-167275000D03*
X119000000Y-96250000D03*
X110750000Y-116000000D03*
X109000000Y-131250000D03*
X114000000Y-62750000D03*
X108500000Y-131750000D03*
X111000000Y-90250000D03*
X118250000Y-116000000D03*
X110500000Y-131750000D03*
X110000000Y-131250000D03*
X125950000Y-116225000D03*
X94750000Y-167275000D03*
X120500000Y-79750000D03*
X64891366Y-112426300D03*
%TO.N,V5V*%
X115500000Y-117750000D03*
X119150000Y-120725000D03*
%TO.N,+5V*%
X118000000Y-80750000D03*
X115049084Y-80766826D03*
X119250000Y-77250000D03*
%TO.N,VDD*%
X105750000Y-118250000D03*
X118625000Y-123125000D03*
%TO.N,PGND*%
X121311752Y-120811752D03*
X123350000Y-127025000D03*
X108500000Y-126000000D03*
X108474533Y-128372846D03*
X108500000Y-123750000D03*
X115750000Y-125250000D03*
X113000000Y-121750000D03*
X115750000Y-124500000D03*
X123350000Y-129275000D03*
X123250000Y-124250000D03*
X111500000Y-121500000D03*
%TD*%
D28*
%TO.N,V5V*%
X115525000Y-117725000D02*
X116150000Y-117725000D01*
X116119034Y-117750000D02*
X116144034Y-117725000D01*
X115500000Y-117750000D02*
X115525000Y-117725000D01*
X115500000Y-117750000D02*
X116119034Y-117750000D01*
X116150000Y-117725000D02*
X119150000Y-120725000D01*
%TO.N,+5V*%
X118000000Y-78500000D02*
X119250000Y-77250000D01*
X117983174Y-80766826D02*
X118000000Y-80750000D01*
X118000000Y-80750000D02*
X118000000Y-78500000D01*
X115049084Y-80766826D02*
X117983174Y-80766826D01*
D29*
%TO.N,VDD*%
X105750000Y-118250000D02*
X113750000Y-118250000D01*
X113750000Y-118250000D02*
X118625000Y-123125000D01*
%TD*%
%TA.AperFunction,Conductor*%
%TO.N,GND*%
G36*
X153442539Y-29520185D02*
G01*
X153488294Y-29572989D01*
X153499500Y-29624500D01*
X153499500Y-172375500D01*
X153479815Y-172442539D01*
X153427011Y-172488294D01*
X153375500Y-172499500D01*
X48624500Y-172499500D01*
X48557461Y-172479815D01*
X48511706Y-172427011D01*
X48500500Y-172375500D01*
X48500500Y-168330491D01*
X49049500Y-168330491D01*
X49049500Y-168669508D01*
X49082729Y-169006901D01*
X49148870Y-169339410D01*
X49247284Y-169663841D01*
X49377024Y-169977060D01*
X49377026Y-169977065D01*
X49536831Y-170276039D01*
X49536842Y-170276057D01*
X49725184Y-170557930D01*
X49725194Y-170557944D01*
X49940269Y-170820014D01*
X50179985Y-171059730D01*
X50179990Y-171059734D01*
X50179991Y-171059735D01*
X50442061Y-171274810D01*
X50723949Y-171463162D01*
X50723958Y-171463167D01*
X50723960Y-171463168D01*
X51022934Y-171622973D01*
X51022936Y-171622973D01*
X51022942Y-171622977D01*
X51336160Y-171752716D01*
X51660586Y-171851129D01*
X51993096Y-171917270D01*
X52330488Y-171950500D01*
X52330491Y-171950500D01*
X52669509Y-171950500D01*
X52669512Y-171950500D01*
X53006904Y-171917270D01*
X53339414Y-171851129D01*
X53663840Y-171752716D01*
X53977058Y-171622977D01*
X54276051Y-171463162D01*
X54557939Y-171274810D01*
X54820009Y-171059735D01*
X55059735Y-170820009D01*
X55274810Y-170557939D01*
X55463162Y-170276051D01*
X55622977Y-169977058D01*
X55752716Y-169663840D01*
X55851129Y-169339414D01*
X55917270Y-169006904D01*
X55950500Y-168669512D01*
X55950500Y-168330491D01*
X146049500Y-168330491D01*
X146049500Y-168669508D01*
X146082729Y-169006901D01*
X146148870Y-169339410D01*
X146247284Y-169663841D01*
X146377024Y-169977060D01*
X146377026Y-169977065D01*
X146536831Y-170276039D01*
X146536842Y-170276057D01*
X146725184Y-170557930D01*
X146725194Y-170557944D01*
X146940269Y-170820014D01*
X147179985Y-171059730D01*
X147179990Y-171059734D01*
X147179991Y-171059735D01*
X147442061Y-171274810D01*
X147723949Y-171463162D01*
X147723958Y-171463167D01*
X147723960Y-171463168D01*
X148022934Y-171622973D01*
X148022936Y-171622973D01*
X148022942Y-171622977D01*
X148336160Y-171752716D01*
X148660586Y-171851129D01*
X148993096Y-171917270D01*
X149330488Y-171950500D01*
X149330491Y-171950500D01*
X149669509Y-171950500D01*
X149669512Y-171950500D01*
X150006904Y-171917270D01*
X150339414Y-171851129D01*
X150663840Y-171752716D01*
X150977058Y-171622977D01*
X151276051Y-171463162D01*
X151557939Y-171274810D01*
X151820009Y-171059735D01*
X152059735Y-170820009D01*
X152274810Y-170557939D01*
X152463162Y-170276051D01*
X152622977Y-169977058D01*
X152752716Y-169663840D01*
X152851129Y-169339414D01*
X152917270Y-169006904D01*
X152950500Y-168669512D01*
X152950500Y-168330488D01*
X152917270Y-167993096D01*
X152851129Y-167660586D01*
X152752716Y-167336160D01*
X152622977Y-167022942D01*
X152463162Y-166723949D01*
X152274810Y-166442061D01*
X152059735Y-166179991D01*
X152059734Y-166179990D01*
X152059730Y-166179985D01*
X151820014Y-165940269D01*
X151557944Y-165725194D01*
X151557943Y-165725193D01*
X151557939Y-165725190D01*
X151276051Y-165536838D01*
X151276046Y-165536835D01*
X151276039Y-165536831D01*
X150977065Y-165377026D01*
X150977060Y-165377024D01*
X150663841Y-165247284D01*
X150473382Y-165189509D01*
X150339414Y-165148871D01*
X150339411Y-165148870D01*
X150339410Y-165148870D01*
X150006901Y-165082729D01*
X149769199Y-165059318D01*
X149669512Y-165049500D01*
X149330488Y-165049500D01*
X149239738Y-165058437D01*
X148993098Y-165082729D01*
X148660589Y-165148870D01*
X148336158Y-165247284D01*
X148022939Y-165377024D01*
X148022934Y-165377026D01*
X147723960Y-165536831D01*
X147723942Y-165536842D01*
X147442069Y-165725184D01*
X147442055Y-165725194D01*
X147179985Y-165940269D01*
X146940269Y-166179985D01*
X146725194Y-166442055D01*
X146725184Y-166442069D01*
X146536842Y-166723942D01*
X146536831Y-166723960D01*
X146377026Y-167022934D01*
X146377024Y-167022939D01*
X146247284Y-167336158D01*
X146148870Y-167660589D01*
X146082729Y-167993098D01*
X146049500Y-168330491D01*
X55950500Y-168330491D01*
X55950500Y-168330488D01*
X55917270Y-167993096D01*
X55851129Y-167660586D01*
X55752716Y-167336160D01*
X55622977Y-167022942D01*
X55463162Y-166723949D01*
X55274810Y-166442061D01*
X55059735Y-166179991D01*
X55059734Y-166179990D01*
X55059730Y-166179985D01*
X54820014Y-165940269D01*
X54557944Y-165725194D01*
X54557943Y-165725193D01*
X54557939Y-165725190D01*
X54276051Y-165536838D01*
X54276046Y-165536835D01*
X54276039Y-165536831D01*
X53977065Y-165377026D01*
X53977060Y-165377024D01*
X53663841Y-165247284D01*
X53473382Y-165189509D01*
X53339414Y-165148871D01*
X53339411Y-165148870D01*
X53339410Y-165148870D01*
X53006901Y-165082729D01*
X52769199Y-165059318D01*
X52669512Y-165049500D01*
X52330488Y-165049500D01*
X52239738Y-165058437D01*
X51993098Y-165082729D01*
X51660589Y-165148870D01*
X51336158Y-165247284D01*
X51022939Y-165377024D01*
X51022934Y-165377026D01*
X50723960Y-165536831D01*
X50723942Y-165536842D01*
X50442069Y-165725184D01*
X50442055Y-165725194D01*
X50179985Y-165940269D01*
X49940269Y-166179985D01*
X49725194Y-166442055D01*
X49725184Y-166442069D01*
X49536842Y-166723942D01*
X49536831Y-166723960D01*
X49377026Y-167022934D01*
X49377024Y-167022939D01*
X49247284Y-167336158D01*
X49148870Y-167660589D01*
X49082729Y-167993098D01*
X49049500Y-168330491D01*
X48500500Y-168330491D01*
X48500500Y-139677486D01*
X87431500Y-139677486D01*
X87431500Y-139972513D01*
X87463571Y-140216113D01*
X87470007Y-140264993D01*
X87470008Y-140264995D01*
X87546361Y-140549951D01*
X87546364Y-140549961D01*
X87659254Y-140822500D01*
X87659258Y-140822510D01*
X87806761Y-141077993D01*
X87986352Y-141312040D01*
X87986358Y-141312047D01*
X88194952Y-141520641D01*
X88194959Y-141520647D01*
X88429006Y-141700238D01*
X88684489Y-141847741D01*
X88684490Y-141847741D01*
X88684493Y-141847743D01*
X88957048Y-141960639D01*
X89242007Y-142036993D01*
X89534494Y-142075500D01*
X89534501Y-142075500D01*
X89829499Y-142075500D01*
X89829506Y-142075500D01*
X90121993Y-142036993D01*
X90406952Y-141960639D01*
X90679507Y-141847743D01*
X90934994Y-141700238D01*
X91169042Y-141520646D01*
X91377646Y-141312042D01*
X91557238Y-141077994D01*
X91704743Y-140822507D01*
X91817639Y-140549952D01*
X91893993Y-140264993D01*
X91932500Y-139972506D01*
X91932500Y-139677494D01*
X91932499Y-139677486D01*
X141367500Y-139677486D01*
X141367500Y-139972513D01*
X141399571Y-140216113D01*
X141406007Y-140264993D01*
X141406008Y-140264995D01*
X141482361Y-140549951D01*
X141482364Y-140549961D01*
X141595254Y-140822500D01*
X141595258Y-140822510D01*
X141742761Y-141077993D01*
X141922352Y-141312040D01*
X141922358Y-141312047D01*
X142130952Y-141520641D01*
X142130959Y-141520647D01*
X142365006Y-141700238D01*
X142620489Y-141847741D01*
X142620490Y-141847741D01*
X142620493Y-141847743D01*
X142893048Y-141960639D01*
X143178007Y-142036993D01*
X143470494Y-142075500D01*
X143470501Y-142075500D01*
X143765499Y-142075500D01*
X143765506Y-142075500D01*
X144057993Y-142036993D01*
X144342952Y-141960639D01*
X144615507Y-141847743D01*
X144870994Y-141700238D01*
X145105042Y-141520646D01*
X145313646Y-141312042D01*
X145493238Y-141077994D01*
X145640743Y-140822507D01*
X145753639Y-140549952D01*
X145829993Y-140264993D01*
X145868500Y-139972506D01*
X145868500Y-139677494D01*
X145829993Y-139385007D01*
X145753639Y-139100048D01*
X145640743Y-138827493D01*
X145493238Y-138572006D01*
X145372381Y-138414503D01*
X145313647Y-138337959D01*
X145313641Y-138337952D01*
X145105047Y-138129358D01*
X145105040Y-138129352D01*
X144870993Y-137949761D01*
X144615510Y-137802258D01*
X144615500Y-137802254D01*
X144342961Y-137689364D01*
X144342954Y-137689362D01*
X144342952Y-137689361D01*
X144057993Y-137613007D01*
X144009113Y-137606571D01*
X143765513Y-137574500D01*
X143765506Y-137574500D01*
X143470494Y-137574500D01*
X143470486Y-137574500D01*
X143192085Y-137611153D01*
X143178007Y-137613007D01*
X142893048Y-137689361D01*
X142893038Y-137689364D01*
X142620499Y-137802254D01*
X142620489Y-137802258D01*
X142365006Y-137949761D01*
X142130959Y-138129352D01*
X142130952Y-138129358D01*
X141922358Y-138337952D01*
X141922352Y-138337959D01*
X141742761Y-138572006D01*
X141595258Y-138827489D01*
X141595254Y-138827499D01*
X141482364Y-139100038D01*
X141482361Y-139100048D01*
X141406008Y-139385004D01*
X141406006Y-139385015D01*
X141367500Y-139677486D01*
X91932499Y-139677486D01*
X91893993Y-139385007D01*
X91817639Y-139100048D01*
X91704743Y-138827493D01*
X91557238Y-138572006D01*
X91436381Y-138414503D01*
X91377647Y-138337959D01*
X91377641Y-138337952D01*
X91169047Y-138129358D01*
X91169040Y-138129352D01*
X90934993Y-137949761D01*
X90679510Y-137802258D01*
X90679500Y-137802254D01*
X90406961Y-137689364D01*
X90406954Y-137689362D01*
X90406952Y-137689361D01*
X90121993Y-137613007D01*
X90073113Y-137606571D01*
X89829513Y-137574500D01*
X89829506Y-137574500D01*
X89534494Y-137574500D01*
X89534486Y-137574500D01*
X89256085Y-137611153D01*
X89242007Y-137613007D01*
X88957048Y-137689361D01*
X88957038Y-137689364D01*
X88684499Y-137802254D01*
X88684489Y-137802258D01*
X88429006Y-137949761D01*
X88194959Y-138129352D01*
X88194952Y-138129358D01*
X87986358Y-138337952D01*
X87986352Y-138337959D01*
X87806761Y-138572006D01*
X87659258Y-138827489D01*
X87659254Y-138827499D01*
X87546364Y-139100038D01*
X87546361Y-139100048D01*
X87470008Y-139385004D01*
X87470006Y-139385015D01*
X87431500Y-139677486D01*
X48500500Y-139677486D01*
X48500500Y-131128435D01*
X69890866Y-131128435D01*
X69890866Y-132724170D01*
X69890867Y-132724176D01*
X69897274Y-132783783D01*
X69947568Y-132918628D01*
X69947572Y-132918635D01*
X70033818Y-133033844D01*
X70033821Y-133033847D01*
X70149030Y-133120093D01*
X70149037Y-133120097D01*
X70283883Y-133170391D01*
X70283882Y-133170391D01*
X70290810Y-133171135D01*
X70343493Y-133176800D01*
X71939238Y-133176799D01*
X71998849Y-133170391D01*
X72133697Y-133120096D01*
X72248912Y-133033846D01*
X72335162Y-132918631D01*
X72385457Y-132783783D01*
X72391866Y-132724173D01*
X72391865Y-131128428D01*
X72385457Y-131068817D01*
X72369446Y-131025890D01*
X72335163Y-130933971D01*
X72335159Y-130933964D01*
X72248913Y-130818755D01*
X72248910Y-130818752D01*
X72133701Y-130732506D01*
X72133694Y-130732502D01*
X71998848Y-130682208D01*
X71998849Y-130682208D01*
X71939249Y-130675801D01*
X71939247Y-130675800D01*
X71939239Y-130675800D01*
X71939230Y-130675800D01*
X70343495Y-130675800D01*
X70343489Y-130675801D01*
X70283882Y-130682208D01*
X70149037Y-130732502D01*
X70149030Y-130732506D01*
X70033821Y-130818752D01*
X70033818Y-130818755D01*
X69947572Y-130933964D01*
X69947568Y-130933971D01*
X69897274Y-131068817D01*
X69890867Y-131128416D01*
X69890867Y-131128423D01*
X69890866Y-131128435D01*
X48500500Y-131128435D01*
X48500500Y-130135258D01*
X97499500Y-130135258D01*
X97499500Y-130364741D01*
X97524446Y-130554215D01*
X97529452Y-130592238D01*
X97567035Y-130732502D01*
X97588842Y-130813887D01*
X97676650Y-131025876D01*
X97676657Y-131025890D01*
X97791392Y-131224617D01*
X97931081Y-131406661D01*
X97931089Y-131406670D01*
X98093330Y-131568911D01*
X98093338Y-131568918D01*
X98275382Y-131708607D01*
X98275385Y-131708608D01*
X98275388Y-131708611D01*
X98474112Y-131823344D01*
X98474117Y-131823346D01*
X98474123Y-131823349D01*
X98565480Y-131861190D01*
X98686113Y-131911158D01*
X98907762Y-131970548D01*
X99135266Y-132000500D01*
X99135273Y-132000500D01*
X99364727Y-132000500D01*
X99364734Y-132000500D01*
X99592238Y-131970548D01*
X99813887Y-131911158D01*
X100025888Y-131823344D01*
X100224612Y-131708611D01*
X100406661Y-131568919D01*
X100406665Y-131568914D01*
X100406670Y-131568911D01*
X100568911Y-131406670D01*
X100568914Y-131406665D01*
X100568919Y-131406661D01*
X100708611Y-131224612D01*
X100823344Y-131025888D01*
X100911158Y-130813887D01*
X100970548Y-130592238D01*
X101000500Y-130364734D01*
X101000500Y-130135266D01*
X100970548Y-129907762D01*
X100911158Y-129686113D01*
X100823344Y-129474112D01*
X100708611Y-129275388D01*
X100708608Y-129275385D01*
X100708607Y-129275382D01*
X100568918Y-129093338D01*
X100568911Y-129093330D01*
X100406670Y-128931089D01*
X100406661Y-128931081D01*
X100224617Y-128791392D01*
X100220290Y-128788894D01*
X100025888Y-128676656D01*
X100025876Y-128676650D01*
X99813887Y-128588842D01*
X99592238Y-128529452D01*
X99554215Y-128524446D01*
X99364741Y-128499500D01*
X99364734Y-128499500D01*
X99135266Y-128499500D01*
X99135258Y-128499500D01*
X98918715Y-128528009D01*
X98907762Y-128529452D01*
X98814076Y-128554554D01*
X98686112Y-128588842D01*
X98474123Y-128676650D01*
X98474109Y-128676657D01*
X98275382Y-128791392D01*
X98093338Y-128931081D01*
X97931081Y-129093338D01*
X97791392Y-129275382D01*
X97676657Y-129474109D01*
X97676650Y-129474123D01*
X97588842Y-129686112D01*
X97529453Y-129907759D01*
X97529451Y-129907770D01*
X97499500Y-130135258D01*
X48500500Y-130135258D01*
X48500500Y-126027942D01*
X54090866Y-126027942D01*
X54090866Y-126234881D01*
X54131234Y-126437824D01*
X54131236Y-126437832D01*
X54210424Y-126629008D01*
X54325390Y-126801069D01*
X54440500Y-126916179D01*
X54473985Y-126977502D01*
X54469001Y-127047194D01*
X54427129Y-127103127D01*
X54396152Y-127120042D01*
X54349037Y-127137614D01*
X54349030Y-127137618D01*
X54233821Y-127223864D01*
X54233818Y-127223867D01*
X54147572Y-127339076D01*
X54147568Y-127339083D01*
X54097274Y-127473929D01*
X54090867Y-127533528D01*
X54090867Y-127533535D01*
X54090866Y-127533547D01*
X54090866Y-128729282D01*
X54090867Y-128729288D01*
X54097274Y-128788895D01*
X54147568Y-128923740D01*
X54147572Y-128923747D01*
X54233818Y-129038956D01*
X54233821Y-129038959D01*
X54349030Y-129125205D01*
X54349037Y-129125209D01*
X54483883Y-129175503D01*
X54483882Y-129175503D01*
X54490810Y-129176247D01*
X54543493Y-129181912D01*
X55739238Y-129181911D01*
X55798849Y-129175503D01*
X55933697Y-129125208D01*
X56048912Y-129038958D01*
X56135162Y-128923743D01*
X56185457Y-128788895D01*
X56191866Y-128729285D01*
X56191865Y-127533540D01*
X56185457Y-127473929D01*
X56135162Y-127339081D01*
X56135161Y-127339080D01*
X56135159Y-127339076D01*
X56048913Y-127223867D01*
X56048910Y-127223864D01*
X55933701Y-127137618D01*
X55933692Y-127137613D01*
X55886580Y-127120042D01*
X55830646Y-127078171D01*
X55806228Y-127012707D01*
X55821079Y-126944434D01*
X55842228Y-126916181D01*
X55957343Y-126801067D01*
X56072307Y-126629010D01*
X56151496Y-126437832D01*
X56191866Y-126234877D01*
X56191866Y-126027947D01*
X56151496Y-125824992D01*
X56072307Y-125633814D01*
X55957343Y-125461757D01*
X55957341Y-125461754D01*
X55811023Y-125315436D01*
X55724992Y-125257953D01*
X55638964Y-125200471D01*
X55447786Y-125121282D01*
X55447778Y-125121280D01*
X55244835Y-125080912D01*
X55244831Y-125080912D01*
X55037901Y-125080912D01*
X55037896Y-125080912D01*
X54834953Y-125121280D01*
X54834945Y-125121282D01*
X54643769Y-125200470D01*
X54471708Y-125315436D01*
X54325390Y-125461754D01*
X54210424Y-125633815D01*
X54131236Y-125824991D01*
X54131234Y-125824999D01*
X54090866Y-126027942D01*
X48500500Y-126027942D01*
X48500500Y-118323920D01*
X104999499Y-118323920D01*
X105028340Y-118468907D01*
X105028343Y-118468917D01*
X105084912Y-118605488D01*
X105084919Y-118605501D01*
X105167048Y-118728415D01*
X105167051Y-118728419D01*
X105271580Y-118832948D01*
X105271584Y-118832951D01*
X105394498Y-118915080D01*
X105394511Y-118915087D01*
X105531082Y-118971656D01*
X105531087Y-118971658D01*
X105531091Y-118971658D01*
X105531092Y-118971659D01*
X105676079Y-119000500D01*
X105676082Y-119000500D01*
X113387770Y-119000500D01*
X113454809Y-119020185D01*
X113475451Y-119036819D01*
X114696451Y-120257819D01*
X114729936Y-120319142D01*
X114724952Y-120388834D01*
X114683080Y-120444767D01*
X114617616Y-120469184D01*
X114608770Y-120469500D01*
X107523997Y-120469500D01*
X107469687Y-120475338D01*
X107418181Y-120486543D01*
X107418172Y-120486546D01*
X107391807Y-120493779D01*
X107391796Y-120493783D01*
X107305181Y-120543105D01*
X107305173Y-120543111D01*
X107252371Y-120588863D01*
X107220743Y-120621640D01*
X107174534Y-120709977D01*
X107174533Y-120709977D01*
X107154851Y-120777009D01*
X107154848Y-120777021D01*
X107144500Y-120848998D01*
X107144500Y-127939193D01*
X107146996Y-127974829D01*
X107151821Y-128009091D01*
X107153121Y-128017340D01*
X107153123Y-128017347D01*
X107174146Y-128071703D01*
X107189082Y-128110322D01*
X107226514Y-128169319D01*
X107273817Y-128224556D01*
X112797836Y-133067668D01*
X112835268Y-133126664D01*
X112834862Y-133196532D01*
X112796746Y-133255090D01*
X112733023Y-133283744D01*
X112677773Y-133278837D01*
X112601706Y-133254122D01*
X112461434Y-133231905D01*
X112414678Y-133224500D01*
X112225322Y-133224500D01*
X112162980Y-133234374D01*
X112038295Y-133254122D01*
X111858210Y-133312634D01*
X111858207Y-133312635D01*
X111689490Y-133398602D01*
X111536295Y-133509905D01*
X111402405Y-133643795D01*
X111291102Y-133796990D01*
X111205135Y-133965707D01*
X111205134Y-133965710D01*
X111146622Y-134145795D01*
X111117000Y-134332822D01*
X111117000Y-137117177D01*
X111146622Y-137304204D01*
X111205134Y-137484289D01*
X111205135Y-137484292D01*
X111251099Y-137574500D01*
X111291102Y-137653009D01*
X111402403Y-137806202D01*
X111536298Y-137940097D01*
X111689491Y-138051398D01*
X111731375Y-138072739D01*
X111858207Y-138137364D01*
X111858210Y-138137365D01*
X111914333Y-138155600D01*
X112038297Y-138195878D01*
X112225322Y-138225500D01*
X112225323Y-138225500D01*
X112414677Y-138225500D01*
X112414678Y-138225500D01*
X112601703Y-138195878D01*
X112781792Y-138137364D01*
X112950509Y-138051398D01*
X113103702Y-137940097D01*
X113182819Y-137860980D01*
X113244142Y-137827495D01*
X113313834Y-137832479D01*
X113369767Y-137874351D01*
X113394184Y-137939815D01*
X113394500Y-137948661D01*
X113394500Y-138101002D01*
X113400338Y-138155312D01*
X113411543Y-138206818D01*
X113411546Y-138206827D01*
X113418779Y-138233192D01*
X113418783Y-138233203D01*
X113468105Y-138319818D01*
X113468110Y-138319825D01*
X113468112Y-138319828D01*
X113483817Y-138337952D01*
X113513863Y-138372628D01*
X113513866Y-138372631D01*
X113513867Y-138372632D01*
X113546641Y-138404257D01*
X113634976Y-138450465D01*
X113634977Y-138450465D01*
X113634977Y-138450466D01*
X113685105Y-138465184D01*
X113702015Y-138470150D01*
X113702019Y-138470150D01*
X113702021Y-138470151D01*
X113713652Y-138471823D01*
X113774000Y-138480500D01*
X113774001Y-138480500D01*
X116030347Y-138480500D01*
X116030349Y-138480500D01*
X116080195Y-138475591D01*
X116127648Y-138466152D01*
X116149785Y-138460711D01*
X116169371Y-138450466D01*
X116238115Y-138414506D01*
X116238114Y-138414506D01*
X116238121Y-138414503D01*
X116292524Y-138370662D01*
X116325298Y-138339038D01*
X116374630Y-138252408D01*
X116396695Y-138186114D01*
X116409607Y-138114545D01*
X116452258Y-136920331D01*
X116452380Y-136915772D01*
X116452459Y-136911346D01*
X116452500Y-136906786D01*
X116452500Y-134362683D01*
X116454027Y-134343285D01*
X116474303Y-134215265D01*
X116478845Y-134196346D01*
X116495270Y-134145795D01*
X116526094Y-134050926D01*
X116528052Y-134045358D01*
X116538283Y-134018369D01*
X116551715Y-133966508D01*
X116559713Y-133911566D01*
X116576186Y-133450323D01*
X116576186Y-133450321D01*
X121277000Y-133450321D01*
X121277000Y-137999678D01*
X121291532Y-138072735D01*
X121291533Y-138072739D01*
X121291534Y-138072740D01*
X121346899Y-138155601D01*
X121429760Y-138210966D01*
X121429764Y-138210967D01*
X121502821Y-138225499D01*
X121502824Y-138225500D01*
X121502826Y-138225500D01*
X123457176Y-138225500D01*
X123457177Y-138225499D01*
X123530240Y-138210966D01*
X123613101Y-138155601D01*
X123668466Y-138072740D01*
X123683000Y-137999674D01*
X123683000Y-133450326D01*
X123683000Y-133450323D01*
X123682999Y-133450321D01*
X123668467Y-133377264D01*
X123668466Y-133377260D01*
X123625286Y-133312636D01*
X123613101Y-133294399D01*
X123530240Y-133239034D01*
X123530239Y-133239033D01*
X123530235Y-133239032D01*
X123457177Y-133224500D01*
X123457174Y-133224500D01*
X121502826Y-133224500D01*
X121502823Y-133224500D01*
X121429764Y-133239032D01*
X121429760Y-133239033D01*
X121346899Y-133294399D01*
X121291533Y-133377260D01*
X121291532Y-133377264D01*
X121277000Y-133450321D01*
X116576186Y-133450321D01*
X116576562Y-133439808D01*
X116642267Y-131600074D01*
X116664332Y-131533780D01*
X116718735Y-131489939D01*
X116766188Y-131480500D01*
X124026000Y-131480500D01*
X124080313Y-131474661D01*
X124131824Y-131463455D01*
X124158198Y-131456219D01*
X124187074Y-131439775D01*
X124244818Y-131406894D01*
X124244819Y-131406892D01*
X124244828Y-131406888D01*
X124297632Y-131361133D01*
X124329257Y-131328359D01*
X124375465Y-131240024D01*
X124395150Y-131172985D01*
X124405500Y-131101000D01*
X124405500Y-127695322D01*
X135297000Y-127695322D01*
X135297000Y-127884677D01*
X135326622Y-128071704D01*
X135385134Y-128251789D01*
X135385135Y-128251792D01*
X135471102Y-128420509D01*
X135582403Y-128573702D01*
X135716298Y-128707597D01*
X135869491Y-128818898D01*
X135952241Y-128861061D01*
X136038207Y-128904864D01*
X136038210Y-128904865D01*
X136096312Y-128923743D01*
X136218297Y-128963378D01*
X136405322Y-128993000D01*
X136405323Y-128993000D01*
X136594677Y-128993000D01*
X136594678Y-128993000D01*
X136781703Y-128963378D01*
X136961792Y-128904864D01*
X137130509Y-128818898D01*
X137283702Y-128707597D01*
X137417597Y-128573702D01*
X137528898Y-128420509D01*
X137614864Y-128251792D01*
X137673378Y-128071703D01*
X137703000Y-127884678D01*
X137703000Y-127695322D01*
X137673378Y-127508297D01*
X137644121Y-127418252D01*
X137614865Y-127328210D01*
X137614864Y-127328207D01*
X137528897Y-127159490D01*
X137513003Y-127137614D01*
X137417597Y-127006298D01*
X137283702Y-126872403D01*
X137130509Y-126761102D01*
X136961792Y-126675135D01*
X136961789Y-126675134D01*
X136781704Y-126616622D01*
X136688190Y-126601811D01*
X136594678Y-126587000D01*
X136405322Y-126587000D01*
X136342980Y-126596874D01*
X136218295Y-126616622D01*
X136038210Y-126675134D01*
X136038207Y-126675135D01*
X135869490Y-126761102D01*
X135716295Y-126872405D01*
X135582405Y-127006295D01*
X135471102Y-127159490D01*
X135385135Y-127328207D01*
X135385134Y-127328210D01*
X135326622Y-127508295D01*
X135297000Y-127695322D01*
X124405500Y-127695322D01*
X124405500Y-125135258D01*
X140499500Y-125135258D01*
X140499500Y-125364741D01*
X140524446Y-125554215D01*
X140529452Y-125592238D01*
X140588842Y-125813887D01*
X140676650Y-126025876D01*
X140676657Y-126025890D01*
X140791392Y-126224617D01*
X140931081Y-126406661D01*
X140931089Y-126406670D01*
X141093330Y-126568911D01*
X141093338Y-126568918D01*
X141093339Y-126568919D01*
X141143962Y-126607764D01*
X141275382Y-126708607D01*
X141275385Y-126708608D01*
X141275388Y-126708611D01*
X141474112Y-126823344D01*
X141474117Y-126823346D01*
X141474123Y-126823349D01*
X141565480Y-126861190D01*
X141686113Y-126911158D01*
X141907762Y-126970548D01*
X142135266Y-127000500D01*
X142135273Y-127000500D01*
X142364727Y-127000500D01*
X142364734Y-127000500D01*
X142592238Y-126970548D01*
X142813887Y-126911158D01*
X143025888Y-126823344D01*
X143224612Y-126708611D01*
X143406661Y-126568919D01*
X143406665Y-126568914D01*
X143406670Y-126568911D01*
X143568911Y-126406670D01*
X143568914Y-126406665D01*
X143568919Y-126406661D01*
X143708611Y-126224612D01*
X143823344Y-126025888D01*
X143911158Y-125813887D01*
X143970548Y-125592238D01*
X144000500Y-125364734D01*
X144000500Y-125135266D01*
X143970548Y-124907762D01*
X143911158Y-124686113D01*
X143823344Y-124474112D01*
X143708611Y-124275388D01*
X143708608Y-124275385D01*
X143708607Y-124275382D01*
X143568918Y-124093338D01*
X143568911Y-124093330D01*
X143406670Y-123931089D01*
X143406661Y-123931081D01*
X143224617Y-123791392D01*
X143025890Y-123676657D01*
X143025876Y-123676650D01*
X142813887Y-123588842D01*
X142592238Y-123529452D01*
X142554215Y-123524446D01*
X142364741Y-123499500D01*
X142364734Y-123499500D01*
X142135266Y-123499500D01*
X142135258Y-123499500D01*
X141918715Y-123528009D01*
X141907762Y-123529452D01*
X141814076Y-123554554D01*
X141686112Y-123588842D01*
X141474123Y-123676650D01*
X141474109Y-123676657D01*
X141275382Y-123791392D01*
X141093338Y-123931081D01*
X140931081Y-124093338D01*
X140791392Y-124275382D01*
X140676657Y-124474109D01*
X140676650Y-124474123D01*
X140588842Y-124686112D01*
X140529453Y-124907759D01*
X140529451Y-124907770D01*
X140499500Y-125135258D01*
X124405500Y-125135258D01*
X124405500Y-122615322D01*
X135297000Y-122615322D01*
X135297000Y-122804677D01*
X135326622Y-122991704D01*
X135385134Y-123171789D01*
X135385135Y-123171792D01*
X135471102Y-123340509D01*
X135582403Y-123493702D01*
X135716298Y-123627597D01*
X135869491Y-123738898D01*
X135952241Y-123781061D01*
X136038207Y-123824864D01*
X136038210Y-123824865D01*
X136128252Y-123854121D01*
X136218297Y-123883378D01*
X136405322Y-123913000D01*
X136405323Y-123913000D01*
X136594677Y-123913000D01*
X136594678Y-123913000D01*
X136781703Y-123883378D01*
X136961792Y-123824864D01*
X137130509Y-123738898D01*
X137283702Y-123627597D01*
X137417597Y-123493702D01*
X137528898Y-123340509D01*
X137614864Y-123171792D01*
X137673378Y-122991703D01*
X137703000Y-122804678D01*
X137703000Y-122615322D01*
X137673378Y-122428297D01*
X137614864Y-122248208D01*
X137614864Y-122248207D01*
X137528897Y-122079490D01*
X137417597Y-121926298D01*
X137283702Y-121792403D01*
X137130509Y-121681102D01*
X136961792Y-121595135D01*
X136961789Y-121595134D01*
X136781704Y-121536622D01*
X136688190Y-121521811D01*
X136594678Y-121507000D01*
X136405322Y-121507000D01*
X136342980Y-121516874D01*
X136218295Y-121536622D01*
X136038210Y-121595134D01*
X136038207Y-121595135D01*
X135869490Y-121681102D01*
X135716295Y-121792405D01*
X135582405Y-121926295D01*
X135471102Y-122079490D01*
X135385135Y-122248207D01*
X135385134Y-122248210D01*
X135326622Y-122428295D01*
X135297000Y-122615322D01*
X124405500Y-122615322D01*
X124405500Y-120849000D01*
X124399661Y-120794687D01*
X124388455Y-120743176D01*
X124381219Y-120716802D01*
X124377332Y-120709976D01*
X124331894Y-120630181D01*
X124331890Y-120630176D01*
X124331888Y-120630172D01*
X124296097Y-120588867D01*
X124286136Y-120577371D01*
X124253359Y-120545743D01*
X124165022Y-120499534D01*
X124165022Y-120499533D01*
X124097990Y-120479851D01*
X124097978Y-120479848D01*
X124026001Y-120469500D01*
X124026000Y-120469500D01*
X121799386Y-120469500D01*
X121732347Y-120449815D01*
X121711705Y-120433181D01*
X121649769Y-120371245D01*
X121649763Y-120371240D01*
X121524240Y-120298769D01*
X121524241Y-120298769D01*
X121512758Y-120295692D01*
X121384227Y-120261252D01*
X121239277Y-120261252D01*
X121110745Y-120295692D01*
X121099263Y-120298769D01*
X120973740Y-120371240D01*
X120973734Y-120371245D01*
X120911799Y-120433181D01*
X120850476Y-120466666D01*
X120824118Y-120469500D01*
X119815056Y-120469500D01*
X119793818Y-120470384D01*
X119773247Y-120472102D01*
X119750238Y-120478414D01*
X119680380Y-120477164D01*
X119622287Y-120438345D01*
X119610050Y-120420831D01*
X119590509Y-120386985D01*
X119488015Y-120284491D01*
X119488013Y-120284490D01*
X119488011Y-120284488D01*
X119362488Y-120212017D01*
X119362489Y-120212017D01*
X119351006Y-120208940D01*
X119222475Y-120174500D01*
X119222472Y-120174500D01*
X119181900Y-120174500D01*
X119114861Y-120154815D01*
X119094219Y-120138181D01*
X116394822Y-117438785D01*
X116380563Y-117424526D01*
X116380562Y-117424525D01*
X116294938Y-117375090D01*
X116247186Y-117362295D01*
X116235099Y-117359056D01*
X116235095Y-117359054D01*
X116199436Y-117349500D01*
X116199435Y-117349500D01*
X115929386Y-117349500D01*
X115862347Y-117329815D01*
X115841705Y-117313181D01*
X115838017Y-117309493D01*
X115838011Y-117309488D01*
X115712488Y-117237017D01*
X115712489Y-117237017D01*
X115701006Y-117233940D01*
X115572475Y-117199500D01*
X115427525Y-117199500D01*
X115298993Y-117233940D01*
X115287511Y-117237017D01*
X115161988Y-117309488D01*
X115161982Y-117309493D01*
X115059493Y-117411982D01*
X115059488Y-117411988D01*
X114987017Y-117537511D01*
X114987016Y-117537515D01*
X114949500Y-117677525D01*
X114949500Y-117822475D01*
X114987016Y-117962485D01*
X114987017Y-117962488D01*
X115059488Y-118088011D01*
X115059490Y-118088013D01*
X115059491Y-118088015D01*
X115161985Y-118190509D01*
X115161986Y-118190510D01*
X115161988Y-118190511D01*
X115287511Y-118262982D01*
X115287512Y-118262982D01*
X115287515Y-118262984D01*
X115427525Y-118300500D01*
X115427528Y-118300500D01*
X115572472Y-118300500D01*
X115572475Y-118300500D01*
X115712485Y-118262984D01*
X115838015Y-118190509D01*
X115866705Y-118161819D01*
X115893632Y-118147115D01*
X115919451Y-118130523D01*
X115925651Y-118129631D01*
X115928028Y-118128334D01*
X115954386Y-118125500D01*
X115968101Y-118125500D01*
X116035140Y-118145185D01*
X116055782Y-118161819D01*
X118151781Y-120257819D01*
X118185266Y-120319142D01*
X118180282Y-120388834D01*
X118138410Y-120444767D01*
X118072946Y-120469184D01*
X118064100Y-120469500D01*
X117585725Y-120469500D01*
X117581168Y-120469581D01*
X117576608Y-120469663D01*
X117567762Y-120469979D01*
X117567759Y-120469979D01*
X117487597Y-120485925D01*
X117487594Y-120485925D01*
X117487594Y-120485926D01*
X117485932Y-120486546D01*
X117422134Y-120510341D01*
X117381046Y-120529998D01*
X117315877Y-120588536D01*
X117252849Y-120618690D01*
X117183525Y-120609981D01*
X117145335Y-120583967D01*
X114228421Y-117667052D01*
X114228420Y-117667051D01*
X114135647Y-117605063D01*
X114105495Y-117584916D01*
X114105488Y-117584912D01*
X113968917Y-117528343D01*
X113968907Y-117528340D01*
X113823920Y-117499500D01*
X113823918Y-117499500D01*
X105676082Y-117499500D01*
X105676080Y-117499500D01*
X105531092Y-117528340D01*
X105531082Y-117528343D01*
X105394511Y-117584912D01*
X105394498Y-117584919D01*
X105271584Y-117667048D01*
X105271580Y-117667051D01*
X105167051Y-117771580D01*
X105167048Y-117771584D01*
X105084919Y-117894498D01*
X105084912Y-117894511D01*
X105028343Y-118031082D01*
X105028340Y-118031092D01*
X104999500Y-118176079D01*
X104999500Y-118176082D01*
X104999500Y-118323918D01*
X104999500Y-118323920D01*
X104999499Y-118323920D01*
X48500500Y-118323920D01*
X48500500Y-108135258D01*
X141499500Y-108135258D01*
X141499500Y-108364741D01*
X141524446Y-108554215D01*
X141529452Y-108592238D01*
X141529453Y-108592240D01*
X141588842Y-108813887D01*
X141676650Y-109025876D01*
X141676657Y-109025890D01*
X141791392Y-109224617D01*
X141931081Y-109406661D01*
X141931089Y-109406670D01*
X142093330Y-109568911D01*
X142093338Y-109568918D01*
X142275382Y-109708607D01*
X142275385Y-109708608D01*
X142275388Y-109708611D01*
X142474112Y-109823344D01*
X142474117Y-109823346D01*
X142474123Y-109823349D01*
X142565480Y-109861190D01*
X142686113Y-109911158D01*
X142907762Y-109970548D01*
X143135266Y-110000500D01*
X143135273Y-110000500D01*
X143364727Y-110000500D01*
X143364734Y-110000500D01*
X143592238Y-109970548D01*
X143813887Y-109911158D01*
X144025888Y-109823344D01*
X144224612Y-109708611D01*
X144406661Y-109568919D01*
X144406665Y-109568914D01*
X144406670Y-109568911D01*
X144568911Y-109406670D01*
X144568914Y-109406665D01*
X144568919Y-109406661D01*
X144708611Y-109224612D01*
X144823344Y-109025888D01*
X144911158Y-108813887D01*
X144970548Y-108592238D01*
X145000500Y-108364734D01*
X145000500Y-108135266D01*
X144970548Y-107907762D01*
X144911158Y-107686113D01*
X144823344Y-107474112D01*
X144708611Y-107275388D01*
X144708608Y-107275385D01*
X144708607Y-107275382D01*
X144568918Y-107093338D01*
X144568911Y-107093330D01*
X144406670Y-106931089D01*
X144406661Y-106931081D01*
X144224617Y-106791392D01*
X144025890Y-106676657D01*
X144025876Y-106676650D01*
X143813887Y-106588842D01*
X143592238Y-106529452D01*
X143554215Y-106524446D01*
X143364741Y-106499500D01*
X143364734Y-106499500D01*
X143135266Y-106499500D01*
X143135258Y-106499500D01*
X142918715Y-106528009D01*
X142907762Y-106529452D01*
X142814076Y-106554554D01*
X142686112Y-106588842D01*
X142474123Y-106676650D01*
X142474109Y-106676657D01*
X142275382Y-106791392D01*
X142093338Y-106931081D01*
X141931081Y-107093338D01*
X141791392Y-107275382D01*
X141676657Y-107474109D01*
X141676650Y-107474123D01*
X141588842Y-107686112D01*
X141529453Y-107907759D01*
X141529451Y-107907770D01*
X141499500Y-108135258D01*
X48500500Y-108135258D01*
X48500500Y-85128435D01*
X68908800Y-85128435D01*
X68908800Y-88724170D01*
X68908801Y-88724176D01*
X68915208Y-88783783D01*
X68965502Y-88918628D01*
X68965506Y-88918635D01*
X69051752Y-89033844D01*
X69051755Y-89033847D01*
X69166964Y-89120093D01*
X69166971Y-89120097D01*
X69301817Y-89170391D01*
X69301816Y-89170391D01*
X69308744Y-89171135D01*
X69361427Y-89176800D01*
X72957172Y-89176799D01*
X73016783Y-89170391D01*
X73151631Y-89120096D01*
X73266846Y-89033846D01*
X73353096Y-88918631D01*
X73403391Y-88783783D01*
X73409800Y-88724173D01*
X73409799Y-85885588D01*
X135219499Y-85885588D01*
X135256794Y-86073078D01*
X135256797Y-86073088D01*
X135329951Y-86249700D01*
X135436164Y-86408660D01*
X135571339Y-86543835D01*
X135730299Y-86650048D01*
X135906911Y-86723202D01*
X135906916Y-86723204D01*
X135906920Y-86723204D01*
X135906921Y-86723205D01*
X136094411Y-86760500D01*
X136094414Y-86760500D01*
X136285588Y-86760500D01*
X136411729Y-86735408D01*
X136473084Y-86723204D01*
X136561394Y-86686625D01*
X136649700Y-86650048D01*
X136649701Y-86650047D01*
X136649704Y-86650046D01*
X136808658Y-86543837D01*
X136943837Y-86408658D01*
X137050046Y-86249704D01*
X137123204Y-86073084D01*
X137160500Y-85885586D01*
X137160500Y-85694414D01*
X137160500Y-85694411D01*
X137123205Y-85506921D01*
X137123204Y-85506920D01*
X137123204Y-85506916D01*
X137123202Y-85506911D01*
X137050048Y-85330299D01*
X136943835Y-85171339D01*
X136808660Y-85036164D01*
X136649700Y-84929951D01*
X136473088Y-84856797D01*
X136473078Y-84856794D01*
X136285588Y-84819500D01*
X136285586Y-84819500D01*
X136094414Y-84819500D01*
X136094412Y-84819500D01*
X135906921Y-84856794D01*
X135906911Y-84856797D01*
X135730299Y-84929951D01*
X135571339Y-85036164D01*
X135436164Y-85171339D01*
X135329951Y-85330299D01*
X135256797Y-85506911D01*
X135256794Y-85506921D01*
X135219500Y-85694411D01*
X135219500Y-85694414D01*
X135219500Y-85885586D01*
X135219500Y-85885588D01*
X135219499Y-85885588D01*
X73409799Y-85885588D01*
X73409799Y-85128428D01*
X73403391Y-85068817D01*
X73391212Y-85036164D01*
X73353097Y-84933971D01*
X73353093Y-84933964D01*
X73266847Y-84818755D01*
X73266844Y-84818752D01*
X73151635Y-84732506D01*
X73151628Y-84732502D01*
X73016782Y-84682208D01*
X73016783Y-84682208D01*
X72957183Y-84675801D01*
X72957181Y-84675800D01*
X72957173Y-84675800D01*
X72957164Y-84675800D01*
X69361429Y-84675800D01*
X69361423Y-84675801D01*
X69301816Y-84682208D01*
X69166971Y-84732502D01*
X69166964Y-84732506D01*
X69051755Y-84818752D01*
X69051752Y-84818755D01*
X68965506Y-84933964D01*
X68965502Y-84933971D01*
X68915208Y-85068817D01*
X68908801Y-85128416D01*
X68908801Y-85128423D01*
X68908800Y-85128435D01*
X48500500Y-85128435D01*
X48500500Y-83345588D01*
X132679499Y-83345588D01*
X132716794Y-83533078D01*
X132716797Y-83533088D01*
X132789951Y-83709700D01*
X132896164Y-83868660D01*
X133031339Y-84003835D01*
X133190299Y-84110048D01*
X133366911Y-84183202D01*
X133366916Y-84183204D01*
X133366920Y-84183204D01*
X133366921Y-84183205D01*
X133554411Y-84220500D01*
X133554414Y-84220500D01*
X133745588Y-84220500D01*
X133871729Y-84195408D01*
X133933084Y-84183204D01*
X134021394Y-84146625D01*
X134109700Y-84110048D01*
X134109701Y-84110047D01*
X134109704Y-84110046D01*
X134268658Y-84003837D01*
X134403837Y-83868658D01*
X134510046Y-83709704D01*
X134583204Y-83533084D01*
X134620500Y-83345586D01*
X134620500Y-83154414D01*
X134620500Y-83154411D01*
X134583205Y-82966921D01*
X134583204Y-82966920D01*
X134583204Y-82966916D01*
X134583202Y-82966911D01*
X134510048Y-82790299D01*
X134403835Y-82631339D01*
X134268660Y-82496164D01*
X134109700Y-82389951D01*
X133933088Y-82316797D01*
X133933078Y-82316794D01*
X133745588Y-82279500D01*
X133745586Y-82279500D01*
X133554414Y-82279500D01*
X133554412Y-82279500D01*
X133366921Y-82316794D01*
X133366911Y-82316797D01*
X133190299Y-82389951D01*
X133031339Y-82496164D01*
X132896164Y-82631339D01*
X132789951Y-82790299D01*
X132716797Y-82966911D01*
X132716794Y-82966921D01*
X132679500Y-83154411D01*
X132679500Y-83154414D01*
X132679500Y-83345586D01*
X132679500Y-83345588D01*
X132679499Y-83345588D01*
X48500500Y-83345588D01*
X48500500Y-80694351D01*
X114498584Y-80694351D01*
X114498584Y-80839301D01*
X114536100Y-80979311D01*
X114536101Y-80979314D01*
X114608572Y-81104837D01*
X114608574Y-81104839D01*
X114608575Y-81104841D01*
X114711069Y-81207335D01*
X114711070Y-81207336D01*
X114711072Y-81207337D01*
X114836595Y-81279808D01*
X114836596Y-81279808D01*
X114836599Y-81279810D01*
X114976609Y-81317326D01*
X114976612Y-81317326D01*
X115121556Y-81317326D01*
X115121559Y-81317326D01*
X115261569Y-81279810D01*
X115387099Y-81207335D01*
X115415789Y-81178645D01*
X115477112Y-81145160D01*
X115503470Y-81142326D01*
X117562440Y-81142326D01*
X117629479Y-81162011D01*
X117650121Y-81178645D01*
X117661985Y-81190509D01*
X117661986Y-81190510D01*
X117661988Y-81190511D01*
X117787511Y-81262982D01*
X117787512Y-81262982D01*
X117787515Y-81262984D01*
X117927525Y-81300500D01*
X117927528Y-81300500D01*
X118072472Y-81300500D01*
X118072475Y-81300500D01*
X118212485Y-81262984D01*
X118338015Y-81190509D01*
X118440509Y-81088015D01*
X118512984Y-80962485D01*
X118550500Y-80822475D01*
X118550500Y-80677525D01*
X118512984Y-80537515D01*
X118450225Y-80428814D01*
X118440511Y-80411988D01*
X118440506Y-80411982D01*
X118411819Y-80383295D01*
X118378334Y-80321972D01*
X118375500Y-80295614D01*
X118375500Y-78706899D01*
X118395185Y-78639860D01*
X118411819Y-78619218D01*
X119194218Y-77836819D01*
X119255541Y-77803334D01*
X119281899Y-77800500D01*
X119322472Y-77800500D01*
X119322475Y-77800500D01*
X119462485Y-77762984D01*
X119588015Y-77690509D01*
X119690509Y-77588015D01*
X119762984Y-77462485D01*
X119800500Y-77322475D01*
X119800500Y-77177525D01*
X119762984Y-77037515D01*
X119690509Y-76911985D01*
X119588015Y-76809491D01*
X119588013Y-76809490D01*
X119588011Y-76809488D01*
X119462488Y-76737017D01*
X119462489Y-76737017D01*
X119451006Y-76733940D01*
X119322475Y-76699500D01*
X119177525Y-76699500D01*
X119048993Y-76733940D01*
X119037511Y-76737017D01*
X118911988Y-76809488D01*
X118911982Y-76809493D01*
X118809493Y-76911982D01*
X118809488Y-76911988D01*
X118737017Y-77037511D01*
X118737016Y-77037515D01*
X118699500Y-77177525D01*
X118699500Y-77177527D01*
X118699500Y-77218101D01*
X118679815Y-77285140D01*
X118663181Y-77305782D01*
X117699526Y-78269436D01*
X117650091Y-78355059D01*
X117650091Y-78355060D01*
X117650090Y-78355062D01*
X117624500Y-78450565D01*
X117624500Y-78450567D01*
X117624500Y-80267326D01*
X117604815Y-80334365D01*
X117552011Y-80380120D01*
X117500500Y-80391326D01*
X115503470Y-80391326D01*
X115436431Y-80371641D01*
X115415789Y-80355007D01*
X115387101Y-80326319D01*
X115387095Y-80326314D01*
X115261572Y-80253843D01*
X115261573Y-80253843D01*
X115250090Y-80250766D01*
X115121559Y-80216326D01*
X114976609Y-80216326D01*
X114848077Y-80250766D01*
X114836595Y-80253843D01*
X114711072Y-80326314D01*
X114711066Y-80326319D01*
X114608577Y-80428808D01*
X114608572Y-80428814D01*
X114536101Y-80554337D01*
X114536100Y-80554341D01*
X114498584Y-80694351D01*
X48500500Y-80694351D01*
X48500500Y-69885258D01*
X120499500Y-69885258D01*
X120499500Y-70114741D01*
X120524446Y-70304215D01*
X120529452Y-70342238D01*
X120529453Y-70342240D01*
X120588842Y-70563887D01*
X120676650Y-70775876D01*
X120676657Y-70775890D01*
X120791392Y-70974617D01*
X120931081Y-71156661D01*
X120931089Y-71156670D01*
X121093330Y-71318911D01*
X121093338Y-71318918D01*
X121275382Y-71458607D01*
X121275385Y-71458608D01*
X121275388Y-71458611D01*
X121474112Y-71573344D01*
X121474117Y-71573346D01*
X121474123Y-71573349D01*
X121565480Y-71611190D01*
X121686113Y-71661158D01*
X121907762Y-71720548D01*
X122135266Y-71750500D01*
X122135273Y-71750500D01*
X122364727Y-71750500D01*
X122364734Y-71750500D01*
X122592238Y-71720548D01*
X122813887Y-71661158D01*
X123025888Y-71573344D01*
X123224612Y-71458611D01*
X123406661Y-71318919D01*
X123406665Y-71318914D01*
X123406670Y-71318911D01*
X123568911Y-71156670D01*
X123568914Y-71156665D01*
X123568919Y-71156661D01*
X123708611Y-70974612D01*
X123823344Y-70775888D01*
X123911158Y-70563887D01*
X123970548Y-70342238D01*
X124000500Y-70114734D01*
X124000500Y-69885266D01*
X123970548Y-69657762D01*
X123911158Y-69436113D01*
X123823344Y-69224112D01*
X123708611Y-69025388D01*
X123708608Y-69025385D01*
X123708607Y-69025382D01*
X123568918Y-68843338D01*
X123568911Y-68843330D01*
X123406670Y-68681089D01*
X123406661Y-68681081D01*
X123224617Y-68541392D01*
X123025890Y-68426657D01*
X123025876Y-68426650D01*
X122813887Y-68338842D01*
X122592238Y-68279452D01*
X122554215Y-68274446D01*
X122364741Y-68249500D01*
X122364734Y-68249500D01*
X122135266Y-68249500D01*
X122135258Y-68249500D01*
X121918715Y-68278009D01*
X121907762Y-68279452D01*
X121814076Y-68304554D01*
X121686112Y-68338842D01*
X121474123Y-68426650D01*
X121474109Y-68426657D01*
X121275382Y-68541392D01*
X121093338Y-68681081D01*
X120931081Y-68843338D01*
X120791392Y-69025382D01*
X120676657Y-69224109D01*
X120676650Y-69224123D01*
X120588842Y-69436112D01*
X120529453Y-69657759D01*
X120529451Y-69657770D01*
X120499500Y-69885258D01*
X48500500Y-69885258D01*
X48500500Y-67485322D01*
X81797000Y-67485322D01*
X81797000Y-67674677D01*
X81826622Y-67861704D01*
X81885134Y-68041789D01*
X81885135Y-68041792D01*
X81971102Y-68210509D01*
X82082403Y-68363702D01*
X82216298Y-68497597D01*
X82369491Y-68608898D01*
X82452241Y-68651061D01*
X82538207Y-68694864D01*
X82538210Y-68694865D01*
X82628252Y-68724121D01*
X82718297Y-68753378D01*
X82905322Y-68783000D01*
X82905323Y-68783000D01*
X83094677Y-68783000D01*
X83094678Y-68783000D01*
X83281703Y-68753378D01*
X83461792Y-68694864D01*
X83630509Y-68608898D01*
X83783702Y-68497597D01*
X83917597Y-68363702D01*
X84028898Y-68210509D01*
X84114864Y-68041792D01*
X84173378Y-67861703D01*
X84203000Y-67674678D01*
X84203000Y-67485322D01*
X84173378Y-67298297D01*
X84114864Y-67118208D01*
X84114864Y-67118207D01*
X84066994Y-67024259D01*
X84028898Y-66949491D01*
X83917597Y-66796298D01*
X83783702Y-66662403D01*
X83630509Y-66551102D01*
X83461792Y-66465135D01*
X83461789Y-66465134D01*
X83281704Y-66406622D01*
X83188190Y-66391811D01*
X83094678Y-66377000D01*
X82905322Y-66377000D01*
X82842980Y-66386874D01*
X82718295Y-66406622D01*
X82538210Y-66465134D01*
X82538207Y-66465135D01*
X82369490Y-66551102D01*
X82216295Y-66662405D01*
X82082405Y-66796295D01*
X81971102Y-66949490D01*
X81885135Y-67118207D01*
X81885134Y-67118210D01*
X81826622Y-67298295D01*
X81797000Y-67485322D01*
X48500500Y-67485322D01*
X48500500Y-65284497D01*
X61689500Y-65284497D01*
X61689500Y-65544302D01*
X61730140Y-65800893D01*
X61810422Y-66047976D01*
X61891534Y-66207164D01*
X61928366Y-66279451D01*
X62081069Y-66489629D01*
X62264771Y-66673331D01*
X62474949Y-66826034D01*
X62622445Y-66901187D01*
X62706423Y-66943977D01*
X62706425Y-66943977D01*
X62706428Y-66943979D01*
X62953507Y-67024260D01*
X63085706Y-67045197D01*
X63210098Y-67064900D01*
X63210103Y-67064900D01*
X63469902Y-67064900D01*
X63583298Y-67046939D01*
X63726493Y-67024260D01*
X63973572Y-66943979D01*
X64205051Y-66826034D01*
X64415229Y-66673331D01*
X64598931Y-66489629D01*
X64751634Y-66279451D01*
X64869579Y-66047972D01*
X64949860Y-65800893D01*
X64972539Y-65657698D01*
X64990500Y-65544302D01*
X64990500Y-65284497D01*
X66769500Y-65284497D01*
X66769500Y-65544302D01*
X66810140Y-65800893D01*
X66890422Y-66047976D01*
X66971534Y-66207164D01*
X67008366Y-66279451D01*
X67161069Y-66489629D01*
X67344771Y-66673331D01*
X67554949Y-66826034D01*
X67702445Y-66901187D01*
X67786423Y-66943977D01*
X67786425Y-66943977D01*
X67786428Y-66943979D01*
X68033507Y-67024260D01*
X68165706Y-67045197D01*
X68290098Y-67064900D01*
X68290103Y-67064900D01*
X68549902Y-67064900D01*
X68663298Y-67046939D01*
X68806493Y-67024260D01*
X69053572Y-66943979D01*
X69285051Y-66826034D01*
X69495229Y-66673331D01*
X69678931Y-66489629D01*
X69831634Y-66279451D01*
X69949579Y-66047972D01*
X70029860Y-65800893D01*
X70052539Y-65657698D01*
X70070500Y-65544302D01*
X70070500Y-65284497D01*
X70048947Y-65148421D01*
X70029860Y-65027907D01*
X69949579Y-64780828D01*
X69949577Y-64780825D01*
X69949577Y-64780823D01*
X69906787Y-64696845D01*
X69831634Y-64549349D01*
X69678931Y-64339171D01*
X69495229Y-64155469D01*
X69396793Y-64083951D01*
X69396792Y-64083950D01*
X69285054Y-64002768D01*
X69285053Y-64002767D01*
X69285051Y-64002766D01*
X69259449Y-63989721D01*
X71849500Y-63989721D01*
X71849500Y-66839078D01*
X71864032Y-66912135D01*
X71864033Y-66912139D01*
X71864034Y-66912140D01*
X71919399Y-66995001D01*
X72002260Y-67050366D01*
X72002264Y-67050367D01*
X72075321Y-67064899D01*
X72075324Y-67064900D01*
X72075326Y-67064900D01*
X74924676Y-67064900D01*
X74924677Y-67064899D01*
X74997740Y-67050366D01*
X75080601Y-66995001D01*
X75135966Y-66912140D01*
X75150500Y-66839074D01*
X75150500Y-63989726D01*
X75150500Y-63989723D01*
X75150499Y-63989721D01*
X75135967Y-63916664D01*
X75135966Y-63916660D01*
X75114692Y-63884821D01*
X75080601Y-63833799D01*
X74997740Y-63778434D01*
X74997739Y-63778433D01*
X74997735Y-63778432D01*
X74924677Y-63763900D01*
X74924674Y-63763900D01*
X72075326Y-63763900D01*
X72075323Y-63763900D01*
X72002264Y-63778432D01*
X72002260Y-63778433D01*
X71919399Y-63833799D01*
X71864033Y-63916660D01*
X71864032Y-63916664D01*
X71849500Y-63989721D01*
X69259449Y-63989721D01*
X69212764Y-63965934D01*
X69053576Y-63884822D01*
X68806493Y-63804540D01*
X68549902Y-63763900D01*
X68549897Y-63763900D01*
X68290103Y-63763900D01*
X68290098Y-63763900D01*
X68033506Y-63804540D01*
X67786423Y-63884822D01*
X67554945Y-64002768D01*
X67344774Y-64155466D01*
X67344768Y-64155471D01*
X67161071Y-64339168D01*
X67161066Y-64339174D01*
X67008368Y-64549345D01*
X66890422Y-64780823D01*
X66810140Y-65027906D01*
X66769500Y-65284497D01*
X64990500Y-65284497D01*
X64968947Y-65148421D01*
X64949860Y-65027907D01*
X64869579Y-64780828D01*
X64869577Y-64780825D01*
X64869577Y-64780823D01*
X64826787Y-64696845D01*
X64751634Y-64549349D01*
X64598931Y-64339171D01*
X64415229Y-64155469D01*
X64316794Y-64083952D01*
X64205054Y-64002768D01*
X64205053Y-64002767D01*
X64205051Y-64002766D01*
X64132764Y-63965934D01*
X63973576Y-63884822D01*
X63726493Y-63804540D01*
X63469902Y-63763900D01*
X63469897Y-63763900D01*
X63210103Y-63763900D01*
X63210098Y-63763900D01*
X62953506Y-63804540D01*
X62706423Y-63884822D01*
X62474945Y-64002768D01*
X62264774Y-64155466D01*
X62264768Y-64155471D01*
X62081071Y-64339168D01*
X62081066Y-64339174D01*
X61928368Y-64549345D01*
X61810422Y-64780823D01*
X61730140Y-65027906D01*
X61689500Y-65284497D01*
X48500500Y-65284497D01*
X48500500Y-62405322D01*
X81797000Y-62405322D01*
X81797000Y-62594677D01*
X81826622Y-62781704D01*
X81885134Y-62961789D01*
X81885135Y-62961792D01*
X81971102Y-63130509D01*
X82082403Y-63283702D01*
X82216298Y-63417597D01*
X82369491Y-63528898D01*
X82452241Y-63571061D01*
X82538207Y-63614864D01*
X82538210Y-63614865D01*
X82628252Y-63644121D01*
X82718297Y-63673378D01*
X82905322Y-63703000D01*
X82905323Y-63703000D01*
X83094677Y-63703000D01*
X83094678Y-63703000D01*
X83281703Y-63673378D01*
X83461792Y-63614864D01*
X83630509Y-63528898D01*
X83783702Y-63417597D01*
X83917597Y-63283702D01*
X84028898Y-63130509D01*
X84114864Y-62961792D01*
X84173378Y-62781703D01*
X84203000Y-62594678D01*
X84203000Y-62405322D01*
X84173378Y-62218297D01*
X84114864Y-62038208D01*
X84114864Y-62038207D01*
X84028897Y-61869490D01*
X83917597Y-61716298D01*
X83783702Y-61582403D01*
X83630509Y-61471102D01*
X83461792Y-61385135D01*
X83461789Y-61385134D01*
X83281704Y-61326622D01*
X83188190Y-61311811D01*
X83094678Y-61297000D01*
X82905322Y-61297000D01*
X82842980Y-61306874D01*
X82718295Y-61326622D01*
X82538210Y-61385134D01*
X82538207Y-61385135D01*
X82369490Y-61471102D01*
X82216295Y-61582405D01*
X82082405Y-61716295D01*
X81971102Y-61869490D01*
X81885135Y-62038207D01*
X81885134Y-62038210D01*
X81826622Y-62218295D01*
X81797000Y-62405322D01*
X48500500Y-62405322D01*
X48500500Y-55445322D01*
X61797000Y-55445322D01*
X61797000Y-55634677D01*
X61826622Y-55821704D01*
X61885134Y-56001789D01*
X61885135Y-56001792D01*
X61920758Y-56071704D01*
X61971102Y-56170509D01*
X62082403Y-56323702D01*
X62216298Y-56457597D01*
X62369491Y-56568898D01*
X62452241Y-56611061D01*
X62538207Y-56654864D01*
X62538210Y-56654865D01*
X62628252Y-56684121D01*
X62718297Y-56713378D01*
X62905322Y-56743000D01*
X62905323Y-56743000D01*
X63094677Y-56743000D01*
X63094678Y-56743000D01*
X63281703Y-56713378D01*
X63461792Y-56654864D01*
X63630509Y-56568898D01*
X63783702Y-56457597D01*
X63917597Y-56323702D01*
X64028898Y-56170509D01*
X64114864Y-56001792D01*
X64173378Y-55821703D01*
X64193395Y-55695322D01*
X67547000Y-55695322D01*
X67547000Y-55884677D01*
X67576622Y-56071704D01*
X67635134Y-56251789D01*
X67635135Y-56251792D01*
X67671776Y-56323702D01*
X67721102Y-56420509D01*
X67832403Y-56573702D01*
X67966298Y-56707597D01*
X68119491Y-56818898D01*
X68202241Y-56861061D01*
X68288207Y-56904864D01*
X68288210Y-56904865D01*
X68378252Y-56934121D01*
X68468297Y-56963378D01*
X68655322Y-56993000D01*
X68655323Y-56993000D01*
X68844677Y-56993000D01*
X68844678Y-56993000D01*
X69031703Y-56963378D01*
X69211792Y-56904864D01*
X69380509Y-56818898D01*
X69533702Y-56707597D01*
X69667597Y-56573702D01*
X69778898Y-56420509D01*
X69864864Y-56251792D01*
X69923378Y-56071703D01*
X69953000Y-55884678D01*
X69953000Y-55695322D01*
X69923378Y-55508297D01*
X69864864Y-55328208D01*
X69864864Y-55328207D01*
X69778897Y-55159490D01*
X69727984Y-55089414D01*
X69667597Y-55006298D01*
X69533702Y-54872403D01*
X69380509Y-54761102D01*
X69371075Y-54756295D01*
X69211792Y-54675135D01*
X69211789Y-54675134D01*
X69031704Y-54616622D01*
X68938190Y-54601811D01*
X68844678Y-54587000D01*
X68655322Y-54587000D01*
X68592980Y-54596874D01*
X68468295Y-54616622D01*
X68288210Y-54675134D01*
X68288207Y-54675135D01*
X68119490Y-54761102D01*
X67966295Y-54872405D01*
X67832405Y-55006295D01*
X67721102Y-55159490D01*
X67635135Y-55328207D01*
X67635134Y-55328210D01*
X67576622Y-55508295D01*
X67547000Y-55695322D01*
X64193395Y-55695322D01*
X64203000Y-55634678D01*
X64203000Y-55445322D01*
X64173378Y-55258297D01*
X64114864Y-55078208D01*
X64114864Y-55078207D01*
X64028897Y-54909490D01*
X64001952Y-54872403D01*
X63917597Y-54756298D01*
X63783702Y-54622403D01*
X63630509Y-54511102D01*
X63623826Y-54507697D01*
X63461792Y-54425135D01*
X63461789Y-54425134D01*
X63281704Y-54366622D01*
X63188190Y-54351811D01*
X63094678Y-54337000D01*
X62905322Y-54337000D01*
X62842980Y-54346874D01*
X62718295Y-54366622D01*
X62538210Y-54425134D01*
X62538207Y-54425135D01*
X62369490Y-54511102D01*
X62216295Y-54622405D01*
X62082405Y-54756295D01*
X61971102Y-54909490D01*
X61885135Y-55078207D01*
X61885134Y-55078210D01*
X61826622Y-55258295D01*
X61797000Y-55445322D01*
X48500500Y-55445322D01*
X48500500Y-54163389D01*
X131149500Y-54163389D01*
X131149500Y-54336611D01*
X131176598Y-54507701D01*
X131230127Y-54672445D01*
X131308768Y-54826788D01*
X131410586Y-54966928D01*
X131533072Y-55089414D01*
X131673212Y-55191232D01*
X131827555Y-55269873D01*
X131992299Y-55323402D01*
X132163389Y-55350500D01*
X132163390Y-55350500D01*
X132336610Y-55350500D01*
X132336611Y-55350500D01*
X132507701Y-55323402D01*
X132672445Y-55269873D01*
X132826788Y-55191232D01*
X132966928Y-55089414D01*
X133089414Y-54966928D01*
X133191232Y-54826788D01*
X133269873Y-54672445D01*
X133323402Y-54507701D01*
X133350500Y-54336611D01*
X133350500Y-54163389D01*
X133323402Y-53992299D01*
X133269873Y-53827555D01*
X133191232Y-53673212D01*
X133089414Y-53533072D01*
X132966928Y-53410586D01*
X132826788Y-53308768D01*
X132672445Y-53230127D01*
X132507701Y-53176598D01*
X132507699Y-53176597D01*
X132507698Y-53176597D01*
X132376271Y-53155781D01*
X132336611Y-53149500D01*
X132163389Y-53149500D01*
X132123728Y-53155781D01*
X131992302Y-53176597D01*
X131827552Y-53230128D01*
X131673211Y-53308768D01*
X131593256Y-53366859D01*
X131533072Y-53410586D01*
X131533070Y-53410588D01*
X131533069Y-53410588D01*
X131410588Y-53533069D01*
X131410588Y-53533070D01*
X131410586Y-53533072D01*
X131366859Y-53593256D01*
X131308768Y-53673211D01*
X131230128Y-53827552D01*
X131176597Y-53992302D01*
X131149500Y-54163389D01*
X48500500Y-54163389D01*
X48500500Y-50365322D01*
X61797000Y-50365322D01*
X61797000Y-50554677D01*
X61826622Y-50741704D01*
X61885134Y-50921789D01*
X61885135Y-50921792D01*
X61921454Y-50993070D01*
X61971102Y-51090509D01*
X62082403Y-51243702D01*
X62216298Y-51377597D01*
X62369491Y-51488898D01*
X62451799Y-51530836D01*
X62538207Y-51574864D01*
X62538210Y-51574865D01*
X62628252Y-51604121D01*
X62718297Y-51633378D01*
X62905322Y-51663000D01*
X62905323Y-51663000D01*
X63094677Y-51663000D01*
X63094678Y-51663000D01*
X63281703Y-51633378D01*
X63461792Y-51574864D01*
X63630509Y-51488898D01*
X63783702Y-51377597D01*
X63917597Y-51243702D01*
X64028898Y-51090509D01*
X64114864Y-50921792D01*
X64173378Y-50741703D01*
X64193395Y-50615322D01*
X67547000Y-50615322D01*
X67547000Y-50804677D01*
X67576622Y-50991704D01*
X67635134Y-51171789D01*
X67635135Y-51171792D01*
X67671776Y-51243702D01*
X67721102Y-51340509D01*
X67832403Y-51493702D01*
X67966298Y-51627597D01*
X68119491Y-51738898D01*
X68202241Y-51781061D01*
X68288207Y-51824864D01*
X68288210Y-51824865D01*
X68378252Y-51854121D01*
X68468297Y-51883378D01*
X68655322Y-51913000D01*
X68655323Y-51913000D01*
X68844677Y-51913000D01*
X68844678Y-51913000D01*
X69031703Y-51883378D01*
X69211792Y-51824864D01*
X69380509Y-51738898D01*
X69533702Y-51627597D01*
X69537910Y-51623389D01*
X131149500Y-51623389D01*
X131149500Y-51796610D01*
X131163242Y-51883378D01*
X131176598Y-51967701D01*
X131230127Y-52132445D01*
X131308768Y-52286788D01*
X131410586Y-52426928D01*
X131533072Y-52549414D01*
X131673212Y-52651232D01*
X131827555Y-52729873D01*
X131992299Y-52783402D01*
X132163389Y-52810500D01*
X132163390Y-52810500D01*
X132336610Y-52810500D01*
X132336611Y-52810500D01*
X132507701Y-52783402D01*
X132672445Y-52729873D01*
X132826788Y-52651232D01*
X132966928Y-52549414D01*
X133089414Y-52426928D01*
X133191232Y-52286788D01*
X133269873Y-52132445D01*
X133323402Y-51967701D01*
X133350500Y-51796611D01*
X133350500Y-51623389D01*
X133323402Y-51452299D01*
X133269873Y-51287555D01*
X133191232Y-51133212D01*
X133089414Y-50993072D01*
X132966928Y-50870586D01*
X132826788Y-50768768D01*
X132672445Y-50690127D01*
X132507701Y-50636598D01*
X132507699Y-50636597D01*
X132507698Y-50636597D01*
X132373370Y-50615322D01*
X132336611Y-50609500D01*
X132163389Y-50609500D01*
X132126630Y-50615322D01*
X131992302Y-50636597D01*
X131827552Y-50690128D01*
X131673211Y-50768768D01*
X131623786Y-50804678D01*
X131533072Y-50870586D01*
X131533070Y-50870588D01*
X131533069Y-50870588D01*
X131410588Y-50993069D01*
X131410588Y-50993070D01*
X131410586Y-50993072D01*
X131366859Y-51053256D01*
X131308768Y-51133211D01*
X131230128Y-51287552D01*
X131176597Y-51452302D01*
X131149500Y-51623389D01*
X69537910Y-51623389D01*
X69667597Y-51493702D01*
X69778898Y-51340509D01*
X69864864Y-51171792D01*
X69923378Y-50991703D01*
X69953000Y-50804678D01*
X69953000Y-50615322D01*
X69923378Y-50428297D01*
X69864864Y-50248208D01*
X69864864Y-50248207D01*
X69778897Y-50079490D01*
X69753602Y-50044674D01*
X69667597Y-49926298D01*
X69533702Y-49792403D01*
X69380509Y-49681102D01*
X69371075Y-49676295D01*
X69211792Y-49595135D01*
X69211789Y-49595134D01*
X69031704Y-49536622D01*
X68938190Y-49521811D01*
X68844678Y-49507000D01*
X68655322Y-49507000D01*
X68592980Y-49516874D01*
X68468295Y-49536622D01*
X68288210Y-49595134D01*
X68288207Y-49595135D01*
X68119490Y-49681102D01*
X67966295Y-49792405D01*
X67832405Y-49926295D01*
X67721102Y-50079490D01*
X67635135Y-50248207D01*
X67635134Y-50248210D01*
X67576622Y-50428295D01*
X67547000Y-50615322D01*
X64193395Y-50615322D01*
X64203000Y-50554678D01*
X64203000Y-50365322D01*
X64173378Y-50178297D01*
X64114864Y-49998208D01*
X64114864Y-49998207D01*
X64028897Y-49829490D01*
X64001952Y-49792403D01*
X63917597Y-49676298D01*
X63783702Y-49542403D01*
X63630509Y-49431102D01*
X63461792Y-49345135D01*
X63461789Y-49345134D01*
X63281704Y-49286622D01*
X63188190Y-49271811D01*
X63094678Y-49257000D01*
X62905322Y-49257000D01*
X62842980Y-49266874D01*
X62718295Y-49286622D01*
X62538210Y-49345134D01*
X62538207Y-49345135D01*
X62369490Y-49431102D01*
X62216295Y-49542405D01*
X62082405Y-49676295D01*
X61971102Y-49829490D01*
X61885135Y-49998207D01*
X61885134Y-49998210D01*
X61826622Y-50178295D01*
X61797000Y-50365322D01*
X48500500Y-50365322D01*
X48500500Y-48295321D01*
X131149500Y-48295321D01*
X131149500Y-50044678D01*
X131164032Y-50117735D01*
X131164033Y-50117739D01*
X131164034Y-50117740D01*
X131219399Y-50200601D01*
X131290648Y-50248207D01*
X131302260Y-50255966D01*
X131302264Y-50255967D01*
X131375321Y-50270499D01*
X131375324Y-50270500D01*
X131375326Y-50270500D01*
X133124676Y-50270500D01*
X133124677Y-50270499D01*
X133197740Y-50255966D01*
X133280601Y-50200601D01*
X133335966Y-50117740D01*
X133350500Y-50044674D01*
X133350500Y-48295326D01*
X133350500Y-48295323D01*
X133350499Y-48295321D01*
X133335967Y-48222264D01*
X133335966Y-48222260D01*
X133280601Y-48139399D01*
X133197740Y-48084034D01*
X133197739Y-48084033D01*
X133197735Y-48084032D01*
X133124677Y-48069500D01*
X133124674Y-48069500D01*
X131375326Y-48069500D01*
X131375323Y-48069500D01*
X131302264Y-48084032D01*
X131302260Y-48084033D01*
X131219399Y-48139399D01*
X131164033Y-48222260D01*
X131164032Y-48222264D01*
X131149500Y-48295321D01*
X48500500Y-48295321D01*
X48500500Y-33330491D01*
X49049500Y-33330491D01*
X49049500Y-33669508D01*
X49082729Y-34006901D01*
X49148870Y-34339410D01*
X49247284Y-34663841D01*
X49377024Y-34977060D01*
X49377026Y-34977065D01*
X49536831Y-35276039D01*
X49536842Y-35276057D01*
X49725184Y-35557930D01*
X49725194Y-35557944D01*
X49940269Y-35820014D01*
X50179985Y-36059730D01*
X50179990Y-36059734D01*
X50179991Y-36059735D01*
X50442061Y-36274810D01*
X50723949Y-36463162D01*
X50723958Y-36463167D01*
X50723960Y-36463168D01*
X51022934Y-36622973D01*
X51022936Y-36622973D01*
X51022942Y-36622977D01*
X51336160Y-36752716D01*
X51660586Y-36851129D01*
X51993096Y-36917270D01*
X52330488Y-36950500D01*
X52330491Y-36950500D01*
X52669509Y-36950500D01*
X52669512Y-36950500D01*
X53006904Y-36917270D01*
X53339414Y-36851129D01*
X53663840Y-36752716D01*
X53977058Y-36622977D01*
X54276051Y-36463162D01*
X54557939Y-36274810D01*
X54820009Y-36059735D01*
X55059735Y-35820009D01*
X55274810Y-35557939D01*
X55463162Y-35276051D01*
X55622977Y-34977058D01*
X55752716Y-34663840D01*
X55851129Y-34339414D01*
X55917270Y-34006904D01*
X55950500Y-33669512D01*
X55950500Y-33330491D01*
X146049500Y-33330491D01*
X146049500Y-33669508D01*
X146082729Y-34006901D01*
X146148870Y-34339410D01*
X146247284Y-34663841D01*
X146377024Y-34977060D01*
X146377026Y-34977065D01*
X146536831Y-35276039D01*
X146536842Y-35276057D01*
X146725184Y-35557930D01*
X146725194Y-35557944D01*
X146940269Y-35820014D01*
X147179985Y-36059730D01*
X147179990Y-36059734D01*
X147179991Y-36059735D01*
X147442061Y-36274810D01*
X147723949Y-36463162D01*
X147723958Y-36463167D01*
X147723960Y-36463168D01*
X148022934Y-36622973D01*
X148022936Y-36622973D01*
X148022942Y-36622977D01*
X148336160Y-36752716D01*
X148660586Y-36851129D01*
X148993096Y-36917270D01*
X149330488Y-36950500D01*
X149330491Y-36950500D01*
X149669509Y-36950500D01*
X149669512Y-36950500D01*
X150006904Y-36917270D01*
X150339414Y-36851129D01*
X150663840Y-36752716D01*
X150977058Y-36622977D01*
X151276051Y-36463162D01*
X151557939Y-36274810D01*
X151820009Y-36059735D01*
X152059735Y-35820009D01*
X152274810Y-35557939D01*
X152463162Y-35276051D01*
X152622977Y-34977058D01*
X152752716Y-34663840D01*
X152851129Y-34339414D01*
X152917270Y-34006904D01*
X152950500Y-33669512D01*
X152950500Y-33330488D01*
X152917270Y-32993096D01*
X152851129Y-32660586D01*
X152752716Y-32336160D01*
X152622977Y-32022942D01*
X152463162Y-31723949D01*
X152274810Y-31442061D01*
X152059735Y-31179991D01*
X152059734Y-31179990D01*
X152059730Y-31179985D01*
X151820014Y-30940269D01*
X151557944Y-30725194D01*
X151557943Y-30725193D01*
X151557939Y-30725190D01*
X151276051Y-30536838D01*
X151276046Y-30536835D01*
X151276039Y-30536831D01*
X150977065Y-30377026D01*
X150977060Y-30377024D01*
X150663841Y-30247284D01*
X150473382Y-30189509D01*
X150339414Y-30148871D01*
X150339411Y-30148870D01*
X150339410Y-30148870D01*
X150006901Y-30082729D01*
X149769199Y-30059318D01*
X149669512Y-30049500D01*
X149330488Y-30049500D01*
X149239738Y-30058437D01*
X148993098Y-30082729D01*
X148660589Y-30148870D01*
X148336158Y-30247284D01*
X148022939Y-30377024D01*
X148022934Y-30377026D01*
X147723960Y-30536831D01*
X147723942Y-30536842D01*
X147442069Y-30725184D01*
X147442055Y-30725194D01*
X147179985Y-30940269D01*
X146940269Y-31179985D01*
X146725194Y-31442055D01*
X146725184Y-31442069D01*
X146536842Y-31723942D01*
X146536831Y-31723960D01*
X146377026Y-32022934D01*
X146377024Y-32022939D01*
X146247284Y-32336158D01*
X146148870Y-32660589D01*
X146082729Y-32993098D01*
X146049500Y-33330491D01*
X55950500Y-33330491D01*
X55950500Y-33330488D01*
X55917270Y-32993096D01*
X55851129Y-32660586D01*
X55752716Y-32336160D01*
X55622977Y-32022942D01*
X55463162Y-31723949D01*
X55274810Y-31442061D01*
X55059735Y-31179991D01*
X55059734Y-31179990D01*
X55059730Y-31179985D01*
X54820014Y-30940269D01*
X54557944Y-30725194D01*
X54557943Y-30725193D01*
X54557939Y-30725190D01*
X54276051Y-30536838D01*
X54276046Y-30536835D01*
X54276039Y-30536831D01*
X53977065Y-30377026D01*
X53977060Y-30377024D01*
X53663841Y-30247284D01*
X53473382Y-30189509D01*
X53339414Y-30148871D01*
X53339411Y-30148870D01*
X53339410Y-30148870D01*
X53006901Y-30082729D01*
X52769199Y-30059318D01*
X52669512Y-30049500D01*
X52330488Y-30049500D01*
X52239738Y-30058437D01*
X51993098Y-30082729D01*
X51660589Y-30148870D01*
X51336158Y-30247284D01*
X51022939Y-30377024D01*
X51022934Y-30377026D01*
X50723960Y-30536831D01*
X50723942Y-30536842D01*
X50442069Y-30725184D01*
X50442055Y-30725194D01*
X50179985Y-30940269D01*
X49940269Y-31179985D01*
X49725194Y-31442055D01*
X49725184Y-31442069D01*
X49536842Y-31723942D01*
X49536831Y-31723960D01*
X49377026Y-32022934D01*
X49377024Y-32022939D01*
X49247284Y-32336158D01*
X49148870Y-32660589D01*
X49082729Y-32993098D01*
X49049500Y-33330491D01*
X48500500Y-33330491D01*
X48500500Y-29624500D01*
X48520185Y-29557461D01*
X48572989Y-29511706D01*
X48624500Y-29500500D01*
X153375500Y-29500500D01*
X153442539Y-29520185D01*
G37*
%TD.AperFunction*%
%TD*%
%TA.AperFunction,Conductor*%
%TO.N,PGND*%
G36*
X115179309Y-120744685D02*
G01*
X115199951Y-120761319D01*
X118146578Y-123707946D01*
X118146585Y-123707952D01*
X118269504Y-123790083D01*
X118269505Y-123790083D01*
X118269506Y-123790084D01*
X118406087Y-123846658D01*
X118406091Y-123846658D01*
X118406092Y-123846659D01*
X118551080Y-123875500D01*
X118551083Y-123875500D01*
X118698919Y-123875500D01*
X118796461Y-123856096D01*
X118843912Y-123846658D01*
X118980494Y-123790084D01*
X119103416Y-123707951D01*
X119207951Y-123603416D01*
X119290084Y-123480494D01*
X119346658Y-123343912D01*
X119375500Y-123198917D01*
X119375500Y-123051083D01*
X119375500Y-123051080D01*
X119346659Y-122906092D01*
X119346658Y-122906091D01*
X119346658Y-122906087D01*
X119290084Y-122769506D01*
X119207951Y-122646584D01*
X119207946Y-122646578D01*
X117498048Y-120936681D01*
X117464563Y-120875358D01*
X117469547Y-120805666D01*
X117511419Y-120749733D01*
X117576883Y-120725316D01*
X117585729Y-120725000D01*
X118484932Y-120725000D01*
X118551971Y-120744685D01*
X118597726Y-120797489D01*
X118604705Y-120816901D01*
X118620369Y-120875358D01*
X118637017Y-120937488D01*
X118709488Y-121063011D01*
X118709490Y-121063013D01*
X118709491Y-121063015D01*
X118811985Y-121165509D01*
X118811986Y-121165510D01*
X118811988Y-121165511D01*
X118937511Y-121237982D01*
X118937512Y-121237982D01*
X118937515Y-121237984D01*
X119077525Y-121275500D01*
X119077528Y-121275500D01*
X119222472Y-121275500D01*
X119222475Y-121275500D01*
X119362485Y-121237984D01*
X119488015Y-121165509D01*
X119590509Y-121063015D01*
X119662984Y-120937485D01*
X119695293Y-120816904D01*
X119731658Y-120757246D01*
X119794506Y-120726717D01*
X119815068Y-120725000D01*
X124026000Y-120725000D01*
X124093039Y-120744685D01*
X124138794Y-120797489D01*
X124150000Y-120849000D01*
X124150000Y-131101000D01*
X124130315Y-131168039D01*
X124077511Y-131213794D01*
X124026000Y-131225000D01*
X116400000Y-131225000D01*
X116304376Y-133902447D01*
X116290944Y-133954308D01*
X116285134Y-133965712D01*
X116226622Y-134145795D01*
X116197000Y-134332822D01*
X116197000Y-136906786D01*
X116196921Y-136911212D01*
X116154270Y-138105426D01*
X116132205Y-138171720D01*
X116077802Y-138215561D01*
X116030349Y-138225000D01*
X113774000Y-138225000D01*
X113706961Y-138205315D01*
X113661206Y-138152511D01*
X113650000Y-138101000D01*
X113650000Y-133474999D01*
X107442254Y-128032438D01*
X107404822Y-127973441D01*
X107400000Y-127939199D01*
X107400000Y-120849000D01*
X107419685Y-120781961D01*
X107472489Y-120736206D01*
X107524000Y-120725000D01*
X115112270Y-120725000D01*
X115179309Y-120744685D01*
G37*
%TD.AperFunction*%
%TD*%
M02*
