%TF.GenerationSoftware,KiCad,Pcbnew,9.0.4*%
%TF.CreationDate,2025-10-22T00:41:21-04:00*%
%TF.ProjectId,ClassECoil,436c6173-7345-4436-9f69-6c2e6b696361,rev?*%
%TF.SameCoordinates,Original*%
%TF.FileFunction,Paste,Top*%
%TF.FilePolarity,Positive*%
%FSLAX46Y46*%
G04 Gerber Fmt 4.6, Leading zero omitted, Abs format (unit mm)*
G04 Created by KiCad (PCBNEW 9.0.4) date 2025-10-22 00:41:21*
%MOMM*%
%LPD*%
G01*
G04 APERTURE LIST*
G04 Aperture macros list*
%AMRoundRect*
0 Rectangle with rounded corners*
0 $1 Rounding radius*
0 $2 $3 $4 $5 $6 $7 $8 $9 X,Y pos of 4 corners*
0 Add a 4 corners polygon primitive as box body*
4,1,4,$2,$3,$4,$5,$6,$7,$8,$9,$2,$3,0*
0 Add four circle primitives for the rounded corners*
1,1,$1+$1,$2,$3*
1,1,$1+$1,$4,$5*
1,1,$1+$1,$6,$7*
1,1,$1+$1,$8,$9*
0 Add four rect primitives between the rounded corners*
20,1,$1+$1,$2,$3,$4,$5,0*
20,1,$1+$1,$4,$5,$6,$7,0*
20,1,$1+$1,$6,$7,$8,$9,0*
20,1,$1+$1,$8,$9,$2,$3,0*%
G04 Aperture macros list end*
%ADD10RoundRect,0.250000X0.262500X0.450000X-0.262500X0.450000X-0.262500X-0.450000X0.262500X-0.450000X0*%
%ADD11RoundRect,0.150000X0.150000X-0.725000X0.150000X0.725000X-0.150000X0.725000X-0.150000X-0.725000X0*%
%ADD12RoundRect,0.250000X0.650000X-0.325000X0.650000X0.325000X-0.650000X0.325000X-0.650000X-0.325000X0*%
%ADD13R,2.800000X5.300000*%
%ADD14RoundRect,0.250000X0.475000X-0.250000X0.475000X0.250000X-0.475000X0.250000X-0.475000X-0.250000X0*%
%ADD15RoundRect,0.250000X-0.475000X0.250000X-0.475000X-0.250000X0.475000X-0.250000X0.475000X0.250000X0*%
%ADD16RoundRect,0.250000X-1.000000X-0.650000X1.000000X-0.650000X1.000000X0.650000X-1.000000X0.650000X0*%
%ADD17RoundRect,0.250000X0.250000X0.475000X-0.250000X0.475000X-0.250000X-0.475000X0.250000X-0.475000X0*%
%ADD18RoundRect,0.250000X-0.250000X-0.475000X0.250000X-0.475000X0.250000X0.475000X-0.250000X0.475000X0*%
%ADD19RoundRect,0.250000X0.450000X-0.262500X0.450000X0.262500X-0.450000X0.262500X-0.450000X-0.262500X0*%
%ADD20RoundRect,0.150000X0.587500X0.150000X-0.587500X0.150000X-0.587500X-0.150000X0.587500X-0.150000X0*%
%ADD21RoundRect,0.250000X-0.262500X-0.450000X0.262500X-0.450000X0.262500X0.450000X-0.262500X0.450000X0*%
%ADD22RoundRect,0.250000X-1.075000X0.312500X-1.075000X-0.312500X1.075000X-0.312500X1.075000X0.312500X0*%
%ADD23RoundRect,0.137500X0.137500X-0.662500X0.137500X0.662500X-0.137500X0.662500X-0.137500X-0.662500X0*%
%ADD24RoundRect,0.225000X0.225000X0.375000X-0.225000X0.375000X-0.225000X-0.375000X0.225000X-0.375000X0*%
%ADD25RoundRect,0.250000X-0.450000X0.262500X-0.450000X-0.262500X0.450000X-0.262500X0.450000X0.262500X0*%
%ADD26RoundRect,0.250000X-0.255000X0.255000X-0.255000X-0.255000X0.255000X-0.255000X0.255000X0.255000X0*%
%ADD27RoundRect,0.062500X-0.062500X0.337500X-0.062500X-0.337500X0.062500X-0.337500X0.062500X0.337500X0*%
%ADD28RoundRect,0.062500X-0.337500X0.062500X-0.337500X-0.062500X0.337500X-0.062500X0.337500X0.062500X0*%
%ADD29RoundRect,0.250000X0.650000X-1.000000X0.650000X1.000000X-0.650000X1.000000X-0.650000X-1.000000X0*%
%ADD30RoundRect,0.250000X1.000000X0.650000X-1.000000X0.650000X-1.000000X-0.650000X1.000000X-0.650000X0*%
%ADD31RoundRect,0.375000X-0.625000X-0.375000X0.625000X-0.375000X0.625000X0.375000X-0.625000X0.375000X0*%
%ADD32RoundRect,0.500000X-0.500000X-1.400000X0.500000X-1.400000X0.500000X1.400000X-0.500000X1.400000X0*%
%ADD33R,1.190000X2.340000*%
%ADD34R,4.270000X7.240000*%
G04 APERTURE END LIST*
D10*
%TO.C,R9*%
X123175000Y-122500000D03*
X121350000Y-122500000D03*
%TD*%
%TO.C,R4*%
X110250000Y-129500000D03*
X108425000Y-129500000D03*
%TD*%
D11*
%TO.C,U3*%
X57986366Y-119001300D03*
X59256366Y-119001300D03*
X60526366Y-119001300D03*
X61796366Y-119001300D03*
X61796366Y-113851300D03*
X60526366Y-113851300D03*
X59256366Y-113851300D03*
X57986366Y-113851300D03*
%TD*%
D12*
%TO.C,C20*%
X96400000Y-167000000D03*
X96400000Y-164050000D03*
%TD*%
D13*
%TO.C,L1*%
X68841366Y-119426300D03*
X78941366Y-119426300D03*
%TD*%
D14*
%TO.C,C19*%
X136500000Y-118200000D03*
X136500000Y-116300000D03*
%TD*%
D10*
%TO.C,R13*%
X60803866Y-122426300D03*
X58978866Y-122426300D03*
%TD*%
D15*
%TO.C,C7*%
X111000000Y-87300000D03*
X111000000Y-89200000D03*
%TD*%
D16*
%TO.C,D6*%
X59891366Y-126676300D03*
X63891366Y-126676300D03*
%TD*%
D17*
%TO.C,C32*%
X60841366Y-129676300D03*
X58941366Y-129676300D03*
%TD*%
D18*
%TO.C,C4*%
X120050000Y-98500000D03*
X121950000Y-98500000D03*
%TD*%
D12*
%TO.C,C26*%
X116500000Y-167000000D03*
X116500000Y-164050000D03*
%TD*%
D19*
%TO.C,R11*%
X136500000Y-113912500D03*
X136500000Y-112087500D03*
%TD*%
D18*
%TO.C,C10*%
X121350000Y-128000000D03*
X123250000Y-128000000D03*
%TD*%
D20*
%TO.C,D4*%
X127937500Y-97700000D03*
X127937500Y-95800000D03*
X126062500Y-96750000D03*
%TD*%
D21*
%TO.C,R12*%
X62728866Y-122426300D03*
X64553866Y-122426300D03*
%TD*%
D18*
%TO.C,C8*%
X121350000Y-125750000D03*
X123250000Y-125750000D03*
%TD*%
%TO.C,C12*%
X121350000Y-130250000D03*
X123250000Y-130250000D03*
%TD*%
D12*
%TO.C,C25*%
X113150000Y-167000000D03*
X113150000Y-164050000D03*
%TD*%
D15*
%TO.C,C1*%
X116750000Y-76850000D03*
X116750000Y-78750000D03*
%TD*%
D18*
%TO.C,C13*%
X108400000Y-127225000D03*
X110300000Y-127225000D03*
%TD*%
D10*
%TO.C,R10*%
X125912500Y-117475000D03*
X124087500Y-117475000D03*
%TD*%
D17*
%TO.C,C18*%
X112200000Y-82000000D03*
X110300000Y-82000000D03*
%TD*%
%TO.C,C3*%
X113600000Y-116000000D03*
X111700000Y-116000000D03*
%TD*%
D18*
%TO.C,C14*%
X128050000Y-80500000D03*
X129950000Y-80500000D03*
%TD*%
D17*
%TO.C,C16*%
X125950000Y-115225000D03*
X124050000Y-115225000D03*
%TD*%
D22*
%TO.C,R7*%
X112900000Y-127512500D03*
X112900000Y-130437500D03*
%TD*%
D12*
%TO.C,C17*%
X93050000Y-167000000D03*
X93050000Y-164050000D03*
%TD*%
D23*
%TO.C,U4*%
X113805000Y-94000000D03*
X115075000Y-94000000D03*
X116345000Y-94000000D03*
X117615000Y-94000000D03*
X118885000Y-94000000D03*
X120155000Y-94000000D03*
X121425000Y-94000000D03*
X122695000Y-94000000D03*
X122695000Y-87500000D03*
X121425000Y-87500000D03*
X120155000Y-87500000D03*
X118885000Y-87500000D03*
X117615000Y-87500000D03*
X116345000Y-87500000D03*
X115075000Y-87500000D03*
X113805000Y-87500000D03*
%TD*%
D24*
%TO.C,D2*%
X124650000Y-119875000D03*
X121350000Y-119875000D03*
%TD*%
D18*
%TO.C,C15*%
X106050000Y-82000000D03*
X107950000Y-82000000D03*
%TD*%
D25*
%TO.C,R2*%
X119000000Y-82587500D03*
X119000000Y-84412500D03*
%TD*%
D18*
%TO.C,C6*%
X115450000Y-116000000D03*
X117350000Y-116000000D03*
%TD*%
D26*
%TO.C,U1*%
X116475000Y-121100000D03*
X115225000Y-121100000D03*
X116475000Y-122350000D03*
X115225000Y-122350000D03*
D27*
X117100000Y-119775000D03*
X116600000Y-119775000D03*
X116100000Y-119775000D03*
X115600000Y-119775000D03*
X115100000Y-119775000D03*
X114600000Y-119775000D03*
D28*
X113900000Y-120475000D03*
X113900000Y-120975000D03*
X113900000Y-121475000D03*
X113900000Y-121975000D03*
X113900000Y-122475000D03*
X113900000Y-122975000D03*
D27*
X114600000Y-123675000D03*
X115100000Y-123675000D03*
X115600000Y-123675000D03*
X116100000Y-123675000D03*
X116600000Y-123675000D03*
X117100000Y-123675000D03*
D28*
X117800000Y-122975000D03*
X117800000Y-122475000D03*
X117800000Y-121975000D03*
X117800000Y-121475000D03*
X117800000Y-120975000D03*
X117800000Y-120475000D03*
%TD*%
D21*
%TO.C,R14*%
X62728866Y-129676300D03*
X64553866Y-129676300D03*
%TD*%
D12*
%TO.C,C28*%
X123200000Y-167000000D03*
X123200000Y-164050000D03*
%TD*%
%TO.C,C22*%
X103100000Y-167000000D03*
X103100000Y-164050000D03*
%TD*%
D29*
%TO.C,D5*%
X64891366Y-118176300D03*
X64891366Y-114176300D03*
%TD*%
D21*
%TO.C,R5*%
X128175000Y-85250000D03*
X130000000Y-85250000D03*
%TD*%
D12*
%TO.C,C24*%
X109800000Y-167000000D03*
X109800000Y-164050000D03*
%TD*%
D30*
%TO.C,D3*%
X131500000Y-123000000D03*
X127500000Y-123000000D03*
%TD*%
D31*
%TO.C,U2*%
X106500000Y-74500000D03*
X106500000Y-76800000D03*
D32*
X112800000Y-76800000D03*
D31*
X106500000Y-79100000D03*
%TD*%
D33*
%TO.C,T1*%
X111420000Y-60790000D03*
X113960000Y-60790000D03*
X116500000Y-60790000D03*
X119040000Y-60790000D03*
X121580000Y-60790000D03*
X121580000Y-42710000D03*
X119040000Y-42710000D03*
X116500000Y-42710000D03*
X113960000Y-42710000D03*
X111420000Y-42710000D03*
D34*
X110880000Y-51750000D03*
X122120000Y-51750000D03*
%TD*%
D10*
%TO.C,R3*%
X129912500Y-78250000D03*
X128087500Y-78250000D03*
%TD*%
D18*
%TO.C,C9*%
X108400000Y-122725000D03*
X110300000Y-122725000D03*
%TD*%
%TO.C,C2*%
X108300000Y-119750000D03*
X110200000Y-119750000D03*
%TD*%
%TO.C,C11*%
X108400000Y-124975000D03*
X110300000Y-124975000D03*
%TD*%
D25*
%TO.C,R1*%
X121500000Y-82587500D03*
X121500000Y-84412500D03*
%TD*%
D12*
%TO.C,C23*%
X106450000Y-167000000D03*
X106450000Y-164050000D03*
%TD*%
D17*
%TO.C,C29*%
X57091366Y-122426300D03*
X55191366Y-122426300D03*
%TD*%
D22*
%TO.C,R6*%
X116900000Y-127512500D03*
X116900000Y-130437500D03*
%TD*%
D20*
%TO.C,D1*%
X121937500Y-79700000D03*
X121937500Y-77800000D03*
X120062500Y-78750000D03*
%TD*%
D12*
%TO.C,C27*%
X119850000Y-167000000D03*
X119850000Y-164050000D03*
%TD*%
%TO.C,C21*%
X99750000Y-167000000D03*
X99750000Y-164050000D03*
%TD*%
D21*
%TO.C,R8*%
X128087500Y-83000000D03*
X129912500Y-83000000D03*
%TD*%
M02*
