%TF.GenerationSoftware,KiCad,Pcbnew,9.0.4*%
%TF.CreationDate,2025-10-22T00:41:21-04:00*%
%TF.ProjectId,ClassECoil,436c6173-7345-4436-9f69-6c2e6b696361,rev?*%
%TF.SameCoordinates,Original*%
%TF.FileFunction,Copper,L1,Top*%
%TF.FilePolarity,Positive*%
%FSLAX46Y46*%
G04 Gerber Fmt 4.6, Leading zero omitted, Abs format (unit mm)*
G04 Created by KiCad (PCBNEW 9.0.4) date 2025-10-22 00:41:21*
%MOMM*%
%LPD*%
G01*
G04 APERTURE LIST*
G04 Aperture macros list*
%AMRoundRect*
0 Rectangle with rounded corners*
0 $1 Rounding radius*
0 $2 $3 $4 $5 $6 $7 $8 $9 X,Y pos of 4 corners*
0 Add a 4 corners polygon primitive as box body*
4,1,4,$2,$3,$4,$5,$6,$7,$8,$9,$2,$3,0*
0 Add four circle primitives for the rounded corners*
1,1,$1+$1,$2,$3*
1,1,$1+$1,$4,$5*
1,1,$1+$1,$6,$7*
1,1,$1+$1,$8,$9*
0 Add four rect primitives between the rounded corners*
20,1,$1+$1,$2,$3,$4,$5,0*
20,1,$1+$1,$4,$5,$6,$7,0*
20,1,$1+$1,$6,$7,$8,$9,0*
20,1,$1+$1,$8,$9,$2,$3,0*%
G04 Aperture macros list end*
%TA.AperFunction,SMDPad,CuDef*%
%ADD10RoundRect,0.250000X0.262500X0.450000X-0.262500X0.450000X-0.262500X-0.450000X0.262500X-0.450000X0*%
%TD*%
%TA.AperFunction,SMDPad,CuDef*%
%ADD11RoundRect,0.150000X0.150000X-0.725000X0.150000X0.725000X-0.150000X0.725000X-0.150000X-0.725000X0*%
%TD*%
%TA.AperFunction,SMDPad,CuDef*%
%ADD12RoundRect,0.250000X0.650000X-0.325000X0.650000X0.325000X-0.650000X0.325000X-0.650000X-0.325000X0*%
%TD*%
%TA.AperFunction,SMDPad,CuDef*%
%ADD13R,2.800000X5.300000*%
%TD*%
%TA.AperFunction,SMDPad,CuDef*%
%ADD14RoundRect,0.250000X0.475000X-0.250000X0.475000X0.250000X-0.475000X0.250000X-0.475000X-0.250000X0*%
%TD*%
%TA.AperFunction,SMDPad,CuDef*%
%ADD15RoundRect,0.250000X-0.475000X0.250000X-0.475000X-0.250000X0.475000X-0.250000X0.475000X0.250000X0*%
%TD*%
%TA.AperFunction,SMDPad,CuDef*%
%ADD16RoundRect,0.250000X-1.000000X-0.650000X1.000000X-0.650000X1.000000X0.650000X-1.000000X0.650000X0*%
%TD*%
%TA.AperFunction,ComponentPad*%
%ADD17C,1.905000*%
%TD*%
%TA.AperFunction,ComponentPad*%
%ADD18C,3.000000*%
%TD*%
%TA.AperFunction,SMDPad,CuDef*%
%ADD19RoundRect,0.250000X0.250000X0.475000X-0.250000X0.475000X-0.250000X-0.475000X0.250000X-0.475000X0*%
%TD*%
%TA.AperFunction,SMDPad,CuDef*%
%ADD20RoundRect,0.250000X-0.250000X-0.475000X0.250000X-0.475000X0.250000X0.475000X-0.250000X0.475000X0*%
%TD*%
%TA.AperFunction,SMDPad,CuDef*%
%ADD21RoundRect,0.250000X0.450000X-0.262500X0.450000X0.262500X-0.450000X0.262500X-0.450000X-0.262500X0*%
%TD*%
%TA.AperFunction,SMDPad,CuDef*%
%ADD22RoundRect,0.150000X0.587500X0.150000X-0.587500X0.150000X-0.587500X-0.150000X0.587500X-0.150000X0*%
%TD*%
%TA.AperFunction,SMDPad,CuDef*%
%ADD23R,1.500000X1.000000*%
%TD*%
%TA.AperFunction,SMDPad,CuDef*%
%ADD24RoundRect,0.250000X-0.262500X-0.450000X0.262500X-0.450000X0.262500X0.450000X-0.262500X0.450000X0*%
%TD*%
%TA.AperFunction,ComponentPad*%
%ADD25RoundRect,0.250000X0.550000X-0.550000X0.550000X0.550000X-0.550000X0.550000X-0.550000X-0.550000X0*%
%TD*%
%TA.AperFunction,ComponentPad*%
%ADD26C,1.600000*%
%TD*%
%TA.AperFunction,ComponentPad*%
%ADD27C,0.800000*%
%TD*%
%TA.AperFunction,ComponentPad*%
%ADD28C,6.400000*%
%TD*%
%TA.AperFunction,ComponentPad*%
%ADD29C,1.440000*%
%TD*%
%TA.AperFunction,ComponentPad*%
%ADD30RoundRect,0.250000X1.750000X1.750000X-1.750000X1.750000X-1.750000X-1.750000X1.750000X-1.750000X0*%
%TD*%
%TA.AperFunction,ComponentPad*%
%ADD31C,4.000000*%
%TD*%
%TA.AperFunction,SMDPad,CuDef*%
%ADD32RoundRect,0.250000X-1.075000X0.312500X-1.075000X-0.312500X1.075000X-0.312500X1.075000X0.312500X0*%
%TD*%
%TA.AperFunction,ComponentPad*%
%ADD33R,1.905000X4.500000*%
%TD*%
%TA.AperFunction,ComponentPad*%
%ADD34O,1.905000X4.500000*%
%TD*%
%TA.AperFunction,SMDPad,CuDef*%
%ADD35RoundRect,0.137500X0.137500X-0.662500X0.137500X0.662500X-0.137500X0.662500X-0.137500X-0.662500X0*%
%TD*%
%TA.AperFunction,SMDPad,CuDef*%
%ADD36RoundRect,0.225000X0.225000X0.375000X-0.225000X0.375000X-0.225000X-0.375000X0.225000X-0.375000X0*%
%TD*%
%TA.AperFunction,SMDPad,CuDef*%
%ADD37RoundRect,0.250000X-0.450000X0.262500X-0.450000X-0.262500X0.450000X-0.262500X0.450000X0.262500X0*%
%TD*%
%TA.AperFunction,ComponentPad*%
%ADD38R,2.800000X2.800000*%
%TD*%
%TA.AperFunction,ComponentPad*%
%ADD39C,2.800000*%
%TD*%
%TA.AperFunction,SMDPad,CuDef*%
%ADD40RoundRect,0.062500X-0.062500X0.337500X-0.062500X-0.337500X0.062500X-0.337500X0.062500X0.337500X0*%
%TD*%
%TA.AperFunction,SMDPad,CuDef*%
%ADD41RoundRect,0.062500X-0.337500X0.062500X-0.337500X-0.062500X0.337500X-0.062500X0.337500X0.062500X0*%
%TD*%
%TA.AperFunction,HeatsinkPad*%
%ADD42R,2.500000X2.500000*%
%TD*%
%TA.AperFunction,SMDPad,CuDef*%
%ADD43RoundRect,0.250000X0.650000X-1.000000X0.650000X1.000000X-0.650000X1.000000X-0.650000X-1.000000X0*%
%TD*%
%TA.AperFunction,SMDPad,CuDef*%
%ADD44RoundRect,0.250000X1.000000X0.650000X-1.000000X0.650000X-1.000000X-0.650000X1.000000X-0.650000X0*%
%TD*%
%TA.AperFunction,SMDPad,CuDef*%
%ADD45RoundRect,0.375000X-0.625000X-0.375000X0.625000X-0.375000X0.625000X0.375000X-0.625000X0.375000X0*%
%TD*%
%TA.AperFunction,SMDPad,CuDef*%
%ADD46RoundRect,0.500000X-0.500000X-1.400000X0.500000X-1.400000X0.500000X1.400000X-0.500000X1.400000X0*%
%TD*%
%TA.AperFunction,SMDPad,CuDef*%
%ADD47R,1.190000X2.340000*%
%TD*%
%TA.AperFunction,SMDPad,CuDef*%
%ADD48R,4.270000X7.240000*%
%TD*%
%TA.AperFunction,ComponentPad*%
%ADD49R,1.700000X1.700000*%
%TD*%
%TA.AperFunction,ComponentPad*%
%ADD50C,1.700000*%
%TD*%
%TA.AperFunction,ComponentPad*%
%ADD51RoundRect,0.250000X-0.750000X-0.750000X0.750000X-0.750000X0.750000X0.750000X-0.750000X0.750000X0*%
%TD*%
%TA.AperFunction,ComponentPad*%
%ADD52C,2.000000*%
%TD*%
%TA.AperFunction,ViaPad*%
%ADD53C,0.600000*%
%TD*%
%TA.AperFunction,Conductor*%
%ADD54C,0.250000*%
%TD*%
%TA.AperFunction,Conductor*%
%ADD55C,0.500000*%
%TD*%
%TA.AperFunction,Conductor*%
%ADD56C,2.000000*%
%TD*%
%TA.AperFunction,Conductor*%
%ADD57C,1.000000*%
%TD*%
%TA.AperFunction,Conductor*%
%ADD58C,0.200000*%
%TD*%
G04 APERTURE END LIST*
D10*
%TO.P,R9,1*%
%TO.N,Net-(D3-A)*%
X123175000Y-122500000D03*
%TO.P,R9,2*%
%TO.N,Net-(D2-K)*%
X121350000Y-122500000D03*
%TD*%
%TO.P,R4,1*%
%TO.N,GND*%
X110250000Y-129500000D03*
%TO.P,R4,2*%
%TO.N,PGND*%
X108425000Y-129500000D03*
%TD*%
D11*
%TO.P,U3,1,VCC*%
%TO.N,Net-(U3-VCC)*%
X57986366Y-119001300D03*
%TO.P,U3,2,FB*%
%TO.N,BUCK_FB*%
X59256366Y-119001300D03*
%TO.P,U3,3,GNDA*%
%TO.N,Net-(D5-K)*%
X60526366Y-119001300D03*
%TO.P,U3,4,GNDP*%
X61796366Y-119001300D03*
%TO.P,U3,5,DRAIN*%
%TO.N,VBUS*%
X61796366Y-113851300D03*
%TO.P,U3,6,DRAIN*%
X60526366Y-113851300D03*
%TO.P,U3,7,DRAIN*%
X59256366Y-113851300D03*
%TO.P,U3,8,DRAIN*%
X57986366Y-113851300D03*
%TD*%
D12*
%TO.P,C20,1*%
%TO.N,GND*%
X96400000Y-167000000D03*
%TO.P,C20,2*%
%TO.N,Net-(D3-K)*%
X96400000Y-164050000D03*
%TD*%
D13*
%TO.P,L1,1,1*%
%TO.N,Net-(D5-K)*%
X68841366Y-119426300D03*
%TO.P,L1,2,2*%
%TO.N,VDD*%
X78941366Y-119426300D03*
%TD*%
D14*
%TO.P,C19,1*%
%TO.N,Net-(D3-K)*%
X136500000Y-118200000D03*
%TO.P,C19,2*%
%TO.N,Net-(C19-Pad2)*%
X136500000Y-116300000D03*
%TD*%
D10*
%TO.P,R13,1*%
%TO.N,BUCK_FB*%
X60803866Y-122426300D03*
%TO.P,R13,2*%
%TO.N,Net-(D6-K)*%
X58978866Y-122426300D03*
%TD*%
D15*
%TO.P,C7,1*%
%TO.N,+5V*%
X111000000Y-87300000D03*
%TO.P,C7,2*%
%TO.N,GND*%
X111000000Y-89200000D03*
%TD*%
D16*
%TO.P,D6,1,K*%
%TO.N,Net-(D6-K)*%
X59891366Y-126676300D03*
%TO.P,D6,2,A*%
%TO.N,VDD*%
X63891366Y-126676300D03*
%TD*%
D17*
%TO.P,J5,1,Pin_1*%
%TO.N,Net-(J5-Pin_1)*%
X68750000Y-50710000D03*
X68750000Y-55790000D03*
%TD*%
D18*
%TO.P,TP1,1,1*%
%TO.N,Net-(U4-SigIn)*%
X122250000Y-70000000D03*
%TD*%
D19*
%TO.P,C32,1*%
%TO.N,VDD*%
X60841366Y-129676300D03*
%TO.P,C32,2*%
%TO.N,GND*%
X58941366Y-129676300D03*
%TD*%
D18*
%TO.P,TP5,1,1*%
%TO.N,GND*%
X143000000Y-116500000D03*
%TD*%
D20*
%TO.P,C4,1*%
%TO.N,Net-(U4-C1)*%
X120050000Y-98500000D03*
%TO.P,C4,2*%
%TO.N,Net-(U4-C2)*%
X121950000Y-98500000D03*
%TD*%
D12*
%TO.P,C26,1*%
%TO.N,GND*%
X116500000Y-167000000D03*
%TO.P,C26,2*%
%TO.N,Net-(D3-K)*%
X116500000Y-164050000D03*
%TD*%
D21*
%TO.P,R11,1*%
%TO.N,Net-(C19-Pad2)*%
X136500000Y-113912500D03*
%TO.P,R11,2*%
%TO.N,FEEDBACK*%
X136500000Y-112087500D03*
%TD*%
D20*
%TO.P,C10,1*%
%TO.N,VDD*%
X121350000Y-128000000D03*
%TO.P,C10,2*%
%TO.N,PGND*%
X123250000Y-128000000D03*
%TD*%
D22*
%TO.P,D4,1,K*%
%TO.N,GND*%
X127937500Y-97700000D03*
%TO.P,D4,2,A*%
%TO.N,+5V*%
X127937500Y-95800000D03*
%TO.P,D4,3,K*%
%TO.N,FEEDBACK*%
X126062500Y-96750000D03*
%TD*%
D23*
%TO.P,JP2,1,A*%
%TO.N,Net-(JP2-A)*%
X128500000Y-89450000D03*
%TO.P,JP2,2,C*%
%TO.N,Net-(JP2-C)*%
X128500000Y-90750000D03*
%TO.P,JP2,3,B*%
%TO.N,Net-(JP2-B)*%
X128500000Y-92050000D03*
%TD*%
D24*
%TO.P,R12,1*%
%TO.N,BUCK_FB*%
X62728866Y-122426300D03*
%TO.P,R12,2*%
%TO.N,Net-(D5-K)*%
X64553866Y-122426300D03*
%TD*%
D20*
%TO.P,C8,1*%
%TO.N,VDD*%
X121350000Y-125750000D03*
%TO.P,C8,2*%
%TO.N,PGND*%
X123250000Y-125750000D03*
%TD*%
D17*
%TO.P,J2,1,Pin_1*%
%TO.N,VBUS*%
X83000000Y-67580000D03*
X83000000Y-62500000D03*
%TD*%
D20*
%TO.P,C12,1*%
%TO.N,VDD*%
X121350000Y-130250000D03*
%TO.P,C12,2*%
%TO.N,PGND*%
X123250000Y-130250000D03*
%TD*%
D17*
%TO.P,J4,1,Pin_1*%
%TO.N,Net-(J4-Pin_1)*%
X63000000Y-50460000D03*
X63000000Y-55540000D03*
%TD*%
D12*
%TO.P,C25,1*%
%TO.N,GND*%
X113150000Y-167000000D03*
%TO.P,C25,2*%
%TO.N,Net-(D3-K)*%
X113150000Y-164050000D03*
%TD*%
D15*
%TO.P,C1,1*%
%TO.N,Net-(C1-Pad1)*%
X116750000Y-76850000D03*
%TO.P,C1,2*%
%TO.N,Net-(U4-SigIn)*%
X116750000Y-78750000D03*
%TD*%
D20*
%TO.P,C13,1*%
%TO.N,PGND*%
X108400000Y-127225000D03*
%TO.P,C13,2*%
%TO.N,VEE*%
X110300000Y-127225000D03*
%TD*%
D10*
%TO.P,R10,1*%
%TO.N,GND*%
X125912500Y-117475000D03*
%TO.P,R10,2*%
%TO.N,Net-(U1-UVSET)*%
X124087500Y-117475000D03*
%TD*%
D19*
%TO.P,C18,1*%
%TO.N,+5V*%
X112200000Y-82000000D03*
%TO.P,C18,2*%
%TO.N,GND*%
X110300000Y-82000000D03*
%TD*%
%TO.P,C3,1*%
%TO.N,VCH*%
X113600000Y-116000000D03*
%TO.P,C3,2*%
%TO.N,GND*%
X111700000Y-116000000D03*
%TD*%
D25*
%TO.P,C30,1*%
%TO.N,Net-(D6-K)*%
X55141366Y-128131412D03*
D26*
%TO.P,C30,2*%
%TO.N,Net-(D5-K)*%
X55141366Y-126131412D03*
%TD*%
D18*
%TO.P,TP2,1,1*%
%TO.N,FEEDBACK*%
X143250000Y-108250000D03*
%TD*%
D27*
%TO.P,H7,1,1*%
%TO.N,Earth*%
X147100000Y-33500000D03*
X147802944Y-31802944D03*
X147802944Y-35197056D03*
X149500000Y-31100000D03*
D28*
X149500000Y-33500000D03*
D27*
X149500000Y-35900000D03*
X151197056Y-31802944D03*
X151197056Y-35197056D03*
X151900000Y-33500000D03*
%TD*%
D29*
%TO.P,RV2,1,1*%
%TO.N,GND*%
X136190000Y-80710000D03*
%TO.P,RV2,2,2*%
%TO.N,Net-(R8-Pad2)*%
X133650000Y-83250000D03*
%TO.P,RV2,3,3*%
%TO.N,+5V*%
X136190000Y-85790000D03*
%TD*%
D27*
%TO.P,H6,1,1*%
%TO.N,Earth*%
X50100000Y-168500000D03*
X50802944Y-166802944D03*
X50802944Y-170197056D03*
X52500000Y-166100000D03*
D28*
X52500000Y-168500000D03*
D27*
X52500000Y-170900000D03*
X54197056Y-166802944D03*
X54197056Y-170197056D03*
X54900000Y-168500000D03*
%TD*%
%TO.P,H8,1,1*%
%TO.N,Earth*%
X50100000Y-33500000D03*
X50802944Y-31802944D03*
X50802944Y-35197056D03*
X52500000Y-31100000D03*
D28*
X52500000Y-33500000D03*
D27*
X52500000Y-35900000D03*
X54197056Y-31802944D03*
X54197056Y-35197056D03*
X54900000Y-33500000D03*
%TD*%
D30*
%TO.P,C33,1*%
%TO.N,VBUS*%
X71159300Y-86926300D03*
D31*
%TO.P,C33,2*%
%TO.N,GND*%
X61159300Y-86926300D03*
%TD*%
D20*
%TO.P,C14,1*%
%TO.N,Net-(U4-VCOin)*%
X128050000Y-80500000D03*
%TO.P,C14,2*%
%TO.N,Net-(C14-Pad2)*%
X129950000Y-80500000D03*
%TD*%
D19*
%TO.P,C16,1*%
%TO.N,GND*%
X125950000Y-115225000D03*
%TO.P,C16,2*%
%TO.N,Net-(U1-UVSET)*%
X124050000Y-115225000D03*
%TD*%
D32*
%TO.P,R7,1*%
%TO.N,Net-(R7-Pad1)*%
X112900000Y-127512500D03*
%TO.P,R7,2*%
%TO.N,Net-(Q1-G)*%
X112900000Y-130437500D03*
%TD*%
D33*
%TO.P,Q1,1,D*%
%TO.N,Net-(D3-K)*%
X122480000Y-135725000D03*
D34*
%TO.P,Q1,2,S*%
%TO.N,GND*%
X117400000Y-135725000D03*
%TO.P,Q1,3,DS*%
%TO.N,PGND*%
X114860000Y-135725000D03*
%TO.P,Q1,4,G*%
%TO.N,Net-(Q1-G)*%
X112320000Y-135725000D03*
%TD*%
D12*
%TO.P,C17,1*%
%TO.N,GND*%
X93050000Y-167000000D03*
%TO.P,C17,2*%
%TO.N,Net-(D3-K)*%
X93050000Y-164050000D03*
%TD*%
D35*
%TO.P,U4,1,PCP*%
%TO.N,unconnected-(U4-PCP-Pad1)*%
X113805000Y-94000000D03*
%TO.P,U4,2,PC1*%
%TO.N,Net-(JP2-B)*%
X115075000Y-94000000D03*
%TO.P,U4,3,RefIn*%
%TO.N,FEEDBACK*%
X116345000Y-94000000D03*
%TO.P,U4,4,FOUT*%
%TO.N,Net-(JP1-C)*%
X117615000Y-94000000D03*
%TO.P,U4,5,Inh*%
%TO.N,GND*%
X118885000Y-94000000D03*
%TO.P,U4,6,C1*%
%TO.N,Net-(U4-C1)*%
X120155000Y-94000000D03*
%TO.P,U4,7,C2*%
%TO.N,Net-(U4-C2)*%
X121425000Y-94000000D03*
%TO.P,U4,8,VSS*%
%TO.N,GND*%
X122695000Y-94000000D03*
%TO.P,U4,9,VCOin*%
%TO.N,Net-(U4-VCOin)*%
X122695000Y-87500000D03*
%TO.P,U4,10,SFout*%
%TO.N,unconnected-(U4-SFout-Pad10)*%
X121425000Y-87500000D03*
%TO.P,U4,11,R1*%
%TO.N,Net-(U4-R1)*%
X120155000Y-87500000D03*
%TO.P,U4,12,R2*%
%TO.N,Net-(U4-R2)*%
X118885000Y-87500000D03*
%TO.P,U4,13,PC2*%
%TO.N,Net-(JP2-A)*%
X117615000Y-87500000D03*
%TO.P,U4,14,SigIn*%
%TO.N,Net-(U4-SigIn)*%
X116345000Y-87500000D03*
%TO.P,U4,15,ZOUT*%
%TO.N,unconnected-(U4-ZOUT-Pad15)*%
X115075000Y-87500000D03*
%TO.P,U4,16,VDD*%
%TO.N,+5V*%
X113805000Y-87500000D03*
%TD*%
D36*
%TO.P,D2,1,K*%
%TO.N,Net-(D2-K)*%
X124650000Y-119875000D03*
%TO.P,D2,2,A*%
%TO.N,PGND*%
X121350000Y-119875000D03*
%TD*%
D20*
%TO.P,C15,1*%
%TO.N,VDD*%
X106050000Y-82000000D03*
%TO.P,C15,2*%
%TO.N,GND*%
X107950000Y-82000000D03*
%TD*%
D37*
%TO.P,R2,1*%
%TO.N,GND*%
X119000000Y-82587500D03*
%TO.P,R2,2*%
%TO.N,Net-(U4-R2)*%
X119000000Y-84412500D03*
%TD*%
D23*
%TO.P,JP1,1,A*%
%TO.N,Net-(JP1-A)*%
X121750000Y-117525000D03*
%TO.P,JP1,2,C*%
%TO.N,Net-(JP1-C)*%
X121750000Y-116225000D03*
%TO.P,JP1,3,B*%
%TO.N,Net-(JP1-B)*%
X121750000Y-114925000D03*
%TD*%
D20*
%TO.P,C6,1*%
%TO.N,V5V*%
X115450000Y-116000000D03*
%TO.P,C6,2*%
%TO.N,GND*%
X117350000Y-116000000D03*
%TD*%
D18*
%TO.P,TP3,1,1*%
%TO.N,Net-(Q1-G)*%
X99250000Y-130250000D03*
%TD*%
D38*
%TO.P,D7,1,+*%
%TO.N,VBUS*%
X73500000Y-65414400D03*
D39*
%TO.P,D7,2*%
%TO.N,Net-(J5-Pin_1)*%
X68420000Y-65414400D03*
%TO.P,D7,3*%
%TO.N,Net-(J4-Pin_1)*%
X63340000Y-65414400D03*
%TO.P,D7,4,-*%
%TO.N,GND*%
X58260000Y-65414400D03*
%TD*%
D40*
%TO.P,U1,1,IN+*%
%TO.N,Net-(JP1-A)*%
X117100000Y-119775000D03*
%TO.P,U1,2,IN-*%
%TO.N,Net-(JP1-B)*%
X116600000Y-119775000D03*
%TO.P,U1,3,XEN*%
%TO.N,unconnected-(U1-XEN-Pad3)*%
X116100000Y-119775000D03*
%TO.P,U1,4,SGND*%
%TO.N,GND*%
X115600000Y-119775000D03*
%TO.P,U1,5,VEESET*%
%TO.N,V5V*%
X115100000Y-119775000D03*
%TO.P,U1,6,VCH*%
%TO.N,VCH*%
X114600000Y-119775000D03*
D41*
%TO.P,U1,7,C+*%
%TO.N,Net-(U1-C+)*%
X113900000Y-120475000D03*
%TO.P,U1,8,C-*%
%TO.N,Net-(U1-C-)*%
X113900000Y-120975000D03*
%TO.P,U1,9,PGND*%
%TO.N,PGND*%
X113900000Y-121475000D03*
%TO.P,U1,10,PGND*%
X113900000Y-121975000D03*
%TO.P,U1,11,VEE*%
%TO.N,VEE*%
X113900000Y-122475000D03*
%TO.P,U1,12,VEE*%
X113900000Y-122975000D03*
D40*
%TO.P,U1,13,OUTSNK*%
%TO.N,Net-(R7-Pad1)*%
X114600000Y-123675000D03*
%TO.P,U1,14,OUTSNK*%
X115100000Y-123675000D03*
%TO.P,U1,15,PGND*%
%TO.N,PGND*%
X115600000Y-123675000D03*
%TO.P,U1,16,PGND*%
X116100000Y-123675000D03*
%TO.P,U1,17,OUTSRC*%
%TO.N,Net-(R6-Pad1)*%
X116600000Y-123675000D03*
%TO.P,U1,18,OUTSRC*%
X117100000Y-123675000D03*
D41*
%TO.P,U1,19,VDD*%
%TO.N,VDD*%
X117800000Y-122975000D03*
%TO.P,U1,20,VDD*%
X117800000Y-122475000D03*
%TO.P,U1,21,SVDD*%
X117800000Y-121975000D03*
%TO.P,U1,22,DESAT*%
%TO.N,Net-(D2-K)*%
X117800000Y-121475000D03*
%TO.P,U1,23,V5V*%
%TO.N,V5V*%
X117800000Y-120975000D03*
%TO.P,U1,24,UVSET*%
%TO.N,Net-(U1-UVSET)*%
X117800000Y-120475000D03*
D42*
%TO.P,U1,25,EPAD*%
%TO.N,unconnected-(U1-EPAD-Pad25)*%
X115850000Y-121725000D03*
%TD*%
D24*
%TO.P,R14,1*%
%TO.N,VDD*%
X62728866Y-129676300D03*
%TO.P,R14,2*%
%TO.N,GND*%
X64553866Y-129676300D03*
%TD*%
D12*
%TO.P,C28,1*%
%TO.N,GND*%
X123200000Y-167000000D03*
%TO.P,C28,2*%
%TO.N,Net-(D3-K)*%
X123200000Y-164050000D03*
%TD*%
%TO.P,C22,1*%
%TO.N,GND*%
X103100000Y-167000000D03*
%TO.P,C22,2*%
%TO.N,Net-(D3-K)*%
X103100000Y-164050000D03*
%TD*%
D43*
%TO.P,D5,1,K*%
%TO.N,Net-(D5-K)*%
X64891366Y-118176300D03*
%TO.P,D5,2,A*%
%TO.N,GND*%
X64891366Y-114176300D03*
%TD*%
D24*
%TO.P,R5,1*%
%TO.N,Net-(U4-VCOin)*%
X128175000Y-85250000D03*
%TO.P,R5,2*%
%TO.N,Net-(JP2-C)*%
X130000000Y-85250000D03*
%TD*%
D12*
%TO.P,C24,1*%
%TO.N,GND*%
X109800000Y-167000000D03*
%TO.P,C24,2*%
%TO.N,Net-(D3-K)*%
X109800000Y-164050000D03*
%TD*%
D18*
%TO.P,TP4,1,1*%
%TO.N,Net-(D3-K)*%
X142250000Y-125250000D03*
%TD*%
D27*
%TO.P,H5,1,1*%
%TO.N,Earth*%
X147100000Y-168500000D03*
X147802944Y-166802944D03*
X147802944Y-170197056D03*
X149500000Y-166100000D03*
D28*
X149500000Y-168500000D03*
D27*
X149500000Y-170900000D03*
X151197056Y-166802944D03*
X151197056Y-170197056D03*
X151900000Y-168500000D03*
%TD*%
D44*
%TO.P,D3,1,K*%
%TO.N,Net-(D3-K)*%
X131500000Y-123000000D03*
%TO.P,D3,2,A*%
%TO.N,Net-(D3-A)*%
X127500000Y-123000000D03*
%TD*%
D45*
%TO.P,U2,1,GND*%
%TO.N,GND*%
X106500000Y-74500000D03*
%TO.P,U2,2,VO*%
%TO.N,+5V*%
X106500000Y-76800000D03*
D46*
X112800000Y-76800000D03*
D45*
%TO.P,U2,3,VI*%
%TO.N,VDD*%
X106500000Y-79100000D03*
%TD*%
D47*
%TO.P,T1,1,1*%
%TO.N,unconnected-(T1-Pad1)*%
X111420000Y-60790000D03*
%TO.P,T1,2,2*%
%TO.N,GND*%
X113960000Y-60790000D03*
%TO.P,T1,3,3*%
%TO.N,unconnected-(T1-Pad3)*%
X116500000Y-60790000D03*
%TO.P,T1,4,4*%
%TO.N,Net-(C1-Pad1)*%
X119040000Y-60790000D03*
%TO.P,T1,5,5*%
%TO.N,unconnected-(T1-Pad5)*%
X121580000Y-60790000D03*
%TO.P,T1,6,6*%
%TO.N,unconnected-(T1-Pad6)*%
X121580000Y-42710000D03*
%TO.P,T1,7,7*%
%TO.N,unconnected-(T1-Pad7)*%
X119040000Y-42710000D03*
%TO.P,T1,8,8*%
%TO.N,unconnected-(T1-Pad8)*%
X116500000Y-42710000D03*
%TO.P,T1,9,9*%
%TO.N,unconnected-(T1-Pad9)*%
X113960000Y-42710000D03*
%TO.P,T1,10,10*%
%TO.N,unconnected-(T1-Pad10)*%
X111420000Y-42710000D03*
D48*
%TO.P,T1,11,11*%
%TO.N,Net-(J1-Pin_3)*%
X110880000Y-51750000D03*
%TO.P,T1,12,12*%
%TO.N,Net-(J1-Pin_2)*%
X122120000Y-51750000D03*
%TD*%
D31*
%TO.P,HS1,1*%
%TO.N,unconnected-(HS1-Pad1)*%
X89682000Y-139825000D03*
%TO.N,unconnected-(HS1-Pad1)_1*%
X143618000Y-139825000D03*
%TD*%
D17*
%TO.P,J3,1,Pin_1*%
%TO.N,Net-(D3-K)*%
X136500000Y-127790000D03*
X136500000Y-122710000D03*
%TD*%
D10*
%TO.P,R3,1*%
%TO.N,Net-(C14-Pad2)*%
X129912500Y-78250000D03*
%TO.P,R3,2*%
%TO.N,GND*%
X128087500Y-78250000D03*
%TD*%
D20*
%TO.P,C9,1*%
%TO.N,PGND*%
X108400000Y-122725000D03*
%TO.P,C9,2*%
%TO.N,VEE*%
X110300000Y-122725000D03*
%TD*%
%TO.P,C2,1*%
%TO.N,Net-(U1-C+)*%
X108300000Y-119750000D03*
%TO.P,C2,2*%
%TO.N,Net-(U1-C-)*%
X110200000Y-119750000D03*
%TD*%
%TO.P,C11,1*%
%TO.N,PGND*%
X108400000Y-124975000D03*
%TO.P,C11,2*%
%TO.N,VEE*%
X110300000Y-124975000D03*
%TD*%
D37*
%TO.P,R1,1*%
%TO.N,GND*%
X121500000Y-82587500D03*
%TO.P,R1,2*%
%TO.N,Net-(U4-R1)*%
X121500000Y-84412500D03*
%TD*%
D12*
%TO.P,C23,1*%
%TO.N,GND*%
X106450000Y-167000000D03*
%TO.P,C23,2*%
%TO.N,Net-(D3-K)*%
X106450000Y-164050000D03*
%TD*%
D19*
%TO.P,C29,1*%
%TO.N,Net-(D5-K)*%
X57091366Y-122426300D03*
%TO.P,C29,2*%
%TO.N,Net-(U3-VCC)*%
X55191366Y-122426300D03*
%TD*%
D32*
%TO.P,R6,1*%
%TO.N,Net-(R6-Pad1)*%
X116900000Y-127512500D03*
%TO.P,R6,2*%
%TO.N,Net-(Q1-G)*%
X116900000Y-130437500D03*
%TD*%
D22*
%TO.P,D1,1,K*%
%TO.N,GND*%
X121937500Y-79700000D03*
%TO.P,D1,2,A*%
%TO.N,+5V*%
X121937500Y-77800000D03*
%TO.P,D1,3,K*%
%TO.N,Net-(U4-SigIn)*%
X120062500Y-78750000D03*
%TD*%
D12*
%TO.P,C27,1*%
%TO.N,GND*%
X119850000Y-167000000D03*
%TO.P,C27,2*%
%TO.N,Net-(D3-K)*%
X119850000Y-164050000D03*
%TD*%
D49*
%TO.P,J1,1,Pin_1*%
%TO.N,Earth*%
X132250000Y-49170000D03*
D50*
%TO.P,J1,2,Pin_2*%
%TO.N,Net-(J1-Pin_2)*%
X132250000Y-51710000D03*
%TO.P,J1,3,Pin_3*%
%TO.N,Net-(J1-Pin_3)*%
X132250000Y-54250000D03*
%TD*%
D12*
%TO.P,C21,1*%
%TO.N,GND*%
X99750000Y-167000000D03*
%TO.P,C21,2*%
%TO.N,Net-(D3-K)*%
X99750000Y-164050000D03*
%TD*%
D51*
%TO.P,C31,1*%
%TO.N,VDD*%
X71141366Y-131926300D03*
D52*
%TO.P,C31,2*%
%TO.N,GND*%
X76141366Y-131926300D03*
%TD*%
D24*
%TO.P,R8,1*%
%TO.N,Net-(JP2-C)*%
X128087500Y-83000000D03*
%TO.P,R8,2*%
%TO.N,Net-(R8-Pad2)*%
X129912500Y-83000000D03*
%TD*%
D53*
%TO.N,GND*%
X109500000Y-131750000D03*
X114750000Y-167025000D03*
X108000000Y-131250000D03*
X108000000Y-167025000D03*
X108500000Y-74750000D03*
X121750000Y-167025000D03*
X122750000Y-96000000D03*
X109250000Y-82000000D03*
X61891366Y-130852300D03*
X129250000Y-97750000D03*
X127000000Y-78250000D03*
X115725000Y-118687500D03*
X101250000Y-167275000D03*
X119000000Y-96250000D03*
X110750000Y-116000000D03*
X109000000Y-131250000D03*
X114000000Y-62750000D03*
X108500000Y-131750000D03*
X111000000Y-90250000D03*
X118250000Y-116000000D03*
X110500000Y-131750000D03*
X110000000Y-131250000D03*
X125950000Y-116225000D03*
X94750000Y-167275000D03*
X120500000Y-79750000D03*
X64891366Y-112426300D03*
%TO.N,V5V*%
X115500000Y-117750000D03*
X119150000Y-120725000D03*
%TO.N,+5V*%
X118000000Y-80750000D03*
X115049084Y-80766826D03*
X119250000Y-77250000D03*
%TO.N,VDD*%
X105750000Y-118250000D03*
X118625000Y-123125000D03*
%TO.N,PGND*%
X121311752Y-120811752D03*
X123350000Y-127025000D03*
X108500000Y-126000000D03*
X108474533Y-128372846D03*
X108500000Y-123750000D03*
X115750000Y-125250000D03*
X113000000Y-121750000D03*
X115750000Y-124500000D03*
X123350000Y-129275000D03*
X123250000Y-124250000D03*
X111500000Y-121500000D03*
%TD*%
D54*
%TO.N,Net-(C1-Pad1)*%
X119040000Y-60790000D02*
X119040000Y-74560000D01*
X119040000Y-74560000D02*
X116750000Y-76850000D01*
%TO.N,Net-(U1-C+)*%
X109351000Y-118699000D02*
X108300000Y-119750000D01*
X111449000Y-118699000D02*
X109351000Y-118699000D01*
X113900000Y-120475000D02*
X113225000Y-120475000D01*
X113225000Y-120475000D02*
X111449000Y-118699000D01*
%TO.N,Net-(U1-C-)*%
X113900000Y-120975000D02*
X112975000Y-120975000D01*
X112975000Y-120975000D02*
X111750000Y-119750000D01*
X111750000Y-119750000D02*
X110200000Y-119750000D01*
D55*
%TO.N,GND*%
X61891366Y-130852300D02*
X63377866Y-130852300D01*
D54*
X115725000Y-118687500D02*
X115687500Y-118687500D01*
X113960000Y-60790000D02*
X113960000Y-62710000D01*
X122695000Y-95945000D02*
X122750000Y-96000000D01*
X121500000Y-82587500D02*
X121500000Y-80137500D01*
X108250000Y-74500000D02*
X108500000Y-74750000D01*
D55*
X63377866Y-130852300D02*
X64553866Y-129676300D01*
D54*
X118885000Y-96135000D02*
X119000000Y-96250000D01*
X117350000Y-116000000D02*
X118250000Y-116000000D01*
X122695000Y-94000000D02*
X122695000Y-95945000D01*
X120500000Y-79750000D02*
X121887500Y-79750000D01*
X115600000Y-118775000D02*
X115600000Y-119775000D01*
D56*
X64891366Y-114176300D02*
X64891366Y-112426300D01*
D54*
X119000000Y-82587500D02*
X121500000Y-82587500D01*
X106500000Y-74500000D02*
X108250000Y-74500000D01*
X115687500Y-118687500D02*
X115600000Y-118775000D01*
X121500000Y-80137500D02*
X121937500Y-79700000D01*
X111700000Y-116000000D02*
X110750000Y-116000000D01*
D55*
X58941366Y-129676300D02*
X60117366Y-130852300D01*
D54*
X109250000Y-82000000D02*
X107950000Y-82000000D01*
X111000000Y-89200000D02*
X111000000Y-90250000D01*
X127000000Y-78250000D02*
X128087500Y-78250000D01*
X121887500Y-79750000D02*
X121937500Y-79700000D01*
X118885000Y-94000000D02*
X118885000Y-96135000D01*
X127937500Y-97700000D02*
X129200000Y-97700000D01*
X113960000Y-62710000D02*
X114000000Y-62750000D01*
X125950000Y-117437500D02*
X125912500Y-117475000D01*
X125950000Y-115225000D02*
X125950000Y-116225000D01*
X110300000Y-82000000D02*
X109250000Y-82000000D01*
X129200000Y-97700000D02*
X129250000Y-97750000D01*
X125950000Y-116225000D02*
X125950000Y-117437500D01*
D55*
X60117366Y-130852300D02*
X61891366Y-130852300D01*
D54*
%TO.N,VCH*%
X114600000Y-119775000D02*
X114600000Y-119350000D01*
X113600000Y-118350000D02*
X113600000Y-116000000D01*
X114600000Y-119350000D02*
X113600000Y-118350000D01*
%TO.N,V5V*%
X118900000Y-120975000D02*
X119150000Y-120725000D01*
X115500000Y-117750000D02*
X115500000Y-116050000D01*
X115500000Y-116050000D02*
X115450000Y-116000000D01*
X115450000Y-116000000D02*
X115100000Y-116350000D01*
X115100000Y-119775000D02*
X115100000Y-118150000D01*
X117800000Y-120975000D02*
X118900000Y-120975000D01*
X115100000Y-118150000D02*
X115500000Y-117750000D01*
D57*
%TO.N,VDD*%
X105750000Y-118250000D02*
X80117666Y-118250000D01*
D55*
X62728866Y-127838800D02*
X63891366Y-126676300D01*
D54*
X106050000Y-82000000D02*
X106050000Y-82200000D01*
X106050000Y-82200000D02*
X78941366Y-109308634D01*
D57*
X80117666Y-118250000D02*
X78941366Y-119426300D01*
D54*
X106050000Y-79550000D02*
X106500000Y-79100000D01*
D55*
X62728866Y-129676300D02*
X62728866Y-127838800D01*
D54*
X106050000Y-82000000D02*
X106050000Y-79550000D01*
D55*
X60841366Y-129676300D02*
X62728866Y-129676300D01*
D54*
X78941366Y-109308634D02*
X78941366Y-119426300D01*
D58*
%TO.N,PGND*%
X121350000Y-120773504D02*
X121350000Y-120125000D01*
X121311752Y-120811752D02*
X121350000Y-120773504D01*
D54*
%TO.N,Net-(C14-Pad2)*%
X129950000Y-80500000D02*
X129950000Y-78287500D01*
X129950000Y-78287500D02*
X129912500Y-78250000D01*
%TO.N,Net-(U1-UVSET)*%
X124087500Y-115262500D02*
X124050000Y-115225000D01*
X118514702Y-120475000D02*
X120190702Y-118799000D01*
X122663500Y-118799000D02*
X123987500Y-117475000D01*
X124087500Y-117475000D02*
X124087500Y-115262500D01*
X120190702Y-118799000D02*
X122663500Y-118799000D01*
X117800000Y-120475000D02*
X118514702Y-120475000D01*
D56*
%TO.N,Net-(D3-K)*%
X136500000Y-129000000D02*
X129775000Y-135725000D01*
D54*
X136750000Y-125250000D02*
X136500000Y-125000000D01*
D56*
X129775000Y-135725000D02*
X122480000Y-135725000D01*
X122150000Y-136055000D02*
X122480000Y-135725000D01*
D54*
X136460000Y-127750000D02*
X136500000Y-127790000D01*
X136500000Y-118200000D02*
X136500000Y-122710000D01*
D56*
X136500000Y-127790000D02*
X136500000Y-129000000D01*
X136500000Y-122710000D02*
X136500000Y-125000000D01*
D54*
X142250000Y-125250000D02*
X136750000Y-125250000D01*
D56*
X122150000Y-159025000D02*
X122150000Y-136055000D01*
D54*
X136210000Y-123000000D02*
X136500000Y-122710000D01*
D56*
X122150000Y-159025000D02*
X122150000Y-163350000D01*
D54*
X131500000Y-123000000D02*
X136210000Y-123000000D01*
D56*
X136500000Y-125000000D02*
X136500000Y-127790000D01*
D54*
%TO.N,Net-(C19-Pad2)*%
X136500000Y-116300000D02*
X136500000Y-113912500D01*
D58*
%TO.N,Net-(D5-K)*%
X57091366Y-122426300D02*
X57348334Y-122426300D01*
D55*
X54240366Y-121018200D02*
X57832266Y-117426300D01*
D58*
X57091366Y-124181412D02*
X55141366Y-126131412D01*
D55*
X55141366Y-126131412D02*
X54240366Y-125230412D01*
D58*
X57091366Y-122426300D02*
X57091366Y-124181412D01*
D55*
X57832266Y-117426300D02*
X60641366Y-117426300D01*
X54240366Y-125230412D02*
X54240366Y-121018200D01*
D54*
%TO.N,Net-(U3-VCC)*%
X55191366Y-121796300D02*
X55191366Y-122426300D01*
X57986366Y-119001300D02*
X55191366Y-121796300D01*
D55*
%TO.N,Net-(D6-K)*%
X58978866Y-122426300D02*
X58978866Y-125763800D01*
X56596478Y-126676300D02*
X59891366Y-126676300D01*
X55141366Y-128131412D02*
X56596478Y-126676300D01*
X58978866Y-125763800D02*
X59891366Y-126676300D01*
D54*
%TO.N,FEEDBACK*%
X116345000Y-93200001D02*
X116345000Y-94000000D01*
X139412500Y-112087500D02*
X143250000Y-108250000D01*
X136500000Y-112087500D02*
X139412500Y-112087500D01*
X117545001Y-92000000D02*
X116345000Y-93200001D01*
X126000000Y-101587500D02*
X126000000Y-95000000D01*
X126000000Y-95000000D02*
X123000000Y-92000000D01*
X123000000Y-92000000D02*
X117545001Y-92000000D01*
X136500000Y-112087500D02*
X126000000Y-101587500D01*
%TO.N,Net-(D2-K)*%
X121337500Y-122625000D02*
X124087500Y-119875000D01*
X121337500Y-122625000D02*
X120300000Y-122625000D01*
X119150000Y-121475000D02*
X117800000Y-121475000D01*
X124087500Y-119875000D02*
X124400000Y-119875000D01*
X120300000Y-122625000D02*
X119150000Y-121475000D01*
%TO.N,Net-(D3-A)*%
X127125000Y-122625000D02*
X127500000Y-123000000D01*
X123162500Y-122625000D02*
X127125000Y-122625000D01*
D56*
%TO.N,Earth*%
X149525000Y-168500000D02*
X149525000Y-33500000D01*
D55*
X52525000Y-168500000D02*
X54250000Y-168500000D01*
D56*
X133855000Y-49170000D02*
X149525000Y-33500000D01*
X52525000Y-33500000D02*
X149525000Y-33500000D01*
D55*
X54250000Y-168500000D02*
X54500000Y-168750000D01*
D56*
X146526000Y-171499000D02*
X55524000Y-171499000D01*
X149525000Y-168500000D02*
X146526000Y-171499000D01*
X132250000Y-49170000D02*
X133855000Y-49170000D01*
X55524000Y-171499000D02*
X52525000Y-168500000D01*
%TO.N,Net-(J1-Pin_2)*%
X122120000Y-51750000D02*
X132210000Y-51750000D01*
X132210000Y-51750000D02*
X132250000Y-51710000D01*
%TO.N,Net-(J1-Pin_3)*%
X116380000Y-57250000D02*
X129250000Y-57250000D01*
X129250000Y-57250000D02*
X132250000Y-54250000D01*
X110880000Y-51750000D02*
X116380000Y-57250000D01*
%TO.N,VBUS*%
X60526366Y-97559234D02*
X71159300Y-86926300D01*
X61796366Y-113851300D02*
X57986366Y-113851300D01*
X60526366Y-113851300D02*
X60526366Y-97559234D01*
D54*
%TO.N,Net-(JP1-A)*%
X118975000Y-117525000D02*
X121750000Y-117525000D01*
X117100000Y-119775000D02*
X117100000Y-119400000D01*
X117100000Y-119400000D02*
X118975000Y-117525000D01*
%TO.N,Net-(JP1-B)*%
X120825000Y-114925000D02*
X121750000Y-114925000D01*
X116600000Y-119775000D02*
X116600000Y-119150000D01*
X116600000Y-119150000D02*
X120825000Y-114925000D01*
%TO.N,Net-(JP2-C)*%
X130000000Y-90250000D02*
X130000000Y-85250000D01*
X130000000Y-84912500D02*
X128087500Y-83000000D01*
X128500000Y-90750000D02*
X129500000Y-90750000D01*
X129500000Y-90750000D02*
X130000000Y-90250000D01*
X130000000Y-85250000D02*
X130000000Y-84912500D01*
%TO.N,Net-(Q1-G)*%
X99250000Y-130250000D02*
X104725000Y-135725000D01*
X104725000Y-135725000D02*
X112320000Y-135725000D01*
D55*
%TO.N,Net-(R6-Pad1)*%
X117100000Y-127312500D02*
X116900000Y-127512500D01*
D54*
%TO.N,Net-(R8-Pad2)*%
X133400000Y-83000000D02*
X133650000Y-83250000D01*
X129912500Y-83000000D02*
X133400000Y-83000000D01*
%TO.N,BUCK_FB*%
X59256366Y-120878800D02*
X59256366Y-119001300D01*
X60803866Y-122426300D02*
X59256366Y-120878800D01*
X62728866Y-122426300D02*
X60803866Y-122426300D01*
%TO.N,Net-(U4-SigIn)*%
X116345000Y-87500000D02*
X116345000Y-79155000D01*
X120062500Y-72187500D02*
X122250000Y-70000000D01*
X120062500Y-78750000D02*
X120062500Y-72187500D01*
X116750000Y-78750000D02*
X120062500Y-78750000D01*
X116345000Y-79155000D02*
X116750000Y-78750000D01*
%TO.N,Net-(U4-C1)*%
X120155000Y-94000000D02*
X120155000Y-98395000D01*
X120155000Y-98395000D02*
X120050000Y-98500000D01*
%TO.N,Net-(U4-C2)*%
X121425000Y-97975000D02*
X121950000Y-98500000D01*
X121425000Y-94000000D02*
X121425000Y-97975000D01*
%TO.N,Net-(U4-VCOin)*%
X122695000Y-86055000D02*
X123500000Y-85250000D01*
X123500000Y-85250000D02*
X127000000Y-85250000D01*
X127000000Y-81550000D02*
X128050000Y-80500000D01*
X127000000Y-85250000D02*
X127000000Y-81550000D01*
X127000000Y-85250000D02*
X128175000Y-85250000D01*
X122695000Y-87500000D02*
X122695000Y-86055000D01*
%TO.N,Net-(JP1-C)*%
X121750000Y-116225000D02*
X122775000Y-116225000D01*
X122775000Y-116225000D02*
X123000000Y-116000000D01*
X123000000Y-116000000D02*
X123000000Y-111250000D01*
X117615000Y-105865000D02*
X117615000Y-94000000D01*
X123000000Y-111250000D02*
X117615000Y-105865000D01*
%TO.N,Net-(JP2-B)*%
X127500000Y-92050000D02*
X128500000Y-92050000D01*
X126999000Y-91549000D02*
X127500000Y-92050000D01*
X115075000Y-93200001D02*
X116726001Y-91549000D01*
X116726001Y-91549000D02*
X126999000Y-91549000D01*
X115075000Y-94000000D02*
X115075000Y-93200001D01*
%TO.N,Net-(JP2-A)*%
X118765001Y-89450000D02*
X117615000Y-88299999D01*
X128500000Y-89450000D02*
X118765001Y-89450000D01*
X117615000Y-88299999D02*
X117615000Y-87500000D01*
%TO.N,Net-(U4-R1)*%
X121500000Y-84412500D02*
X120155000Y-85757500D01*
X120155000Y-85757500D02*
X120155000Y-87500000D01*
%TO.N,Net-(U4-R2)*%
X118885000Y-87500000D02*
X118885000Y-84527500D01*
X118885000Y-84527500D02*
X119000000Y-84412500D01*
%TD*%
%TA.AperFunction,Conductor*%
%TO.N,VDD*%
G36*
X77013993Y-116455144D02*
G01*
X77063398Y-116504549D01*
X77078250Y-116572822D01*
X77070748Y-116607308D01*
X77047770Y-116668916D01*
X77047767Y-116668927D01*
X77041366Y-116728455D01*
X77041366Y-118426300D01*
X78817366Y-118426300D01*
X78884405Y-118445985D01*
X78930160Y-118498789D01*
X78941366Y-118550300D01*
X78941366Y-119426300D01*
X79817366Y-119426300D01*
X79884405Y-119445985D01*
X79930160Y-119498789D01*
X79941366Y-119550300D01*
X79941366Y-122576300D01*
X80389194Y-122576300D01*
X80389210Y-122576299D01*
X80448738Y-122569898D01*
X80448745Y-122569896D01*
X80583452Y-122519654D01*
X80583455Y-122519652D01*
X80693054Y-122437606D01*
X80758518Y-122413188D01*
X80826791Y-122428039D01*
X80876197Y-122477444D01*
X80891366Y-122536872D01*
X80891366Y-126171872D01*
X80891050Y-126180718D01*
X80871641Y-126452085D01*
X80869123Y-126469597D01*
X80812238Y-126731094D01*
X80807254Y-126748070D01*
X80713727Y-126998824D01*
X80706377Y-127014917D01*
X80578124Y-127249796D01*
X80568559Y-127264680D01*
X80408177Y-127478924D01*
X80396591Y-127492294D01*
X80207360Y-127681525D01*
X80193990Y-127693111D01*
X79979746Y-127853493D01*
X79964862Y-127863058D01*
X79729983Y-127991311D01*
X79713890Y-127998661D01*
X79463136Y-128092188D01*
X79446160Y-128097172D01*
X79184663Y-128154057D01*
X79167151Y-128156575D01*
X78895784Y-128175984D01*
X78886938Y-128176300D01*
X73391366Y-128176300D01*
X73391366Y-131421872D01*
X73391050Y-131430718D01*
X73371641Y-131702085D01*
X73369123Y-131719597D01*
X73312238Y-131981094D01*
X73307254Y-131998070D01*
X73213727Y-132248824D01*
X73206377Y-132264917D01*
X73078124Y-132499796D01*
X73068559Y-132514680D01*
X72908177Y-132728924D01*
X72897782Y-132741087D01*
X72897169Y-132741716D01*
X72743043Y-132895842D01*
X72741705Y-132896597D01*
X72739281Y-132899604D01*
X72732230Y-132906655D01*
X72711837Y-132913440D01*
X72691402Y-132924965D01*
X72679303Y-132924266D01*
X72667805Y-132928092D01*
X72660786Y-132926300D01*
X69684103Y-132926300D01*
X69707007Y-132995420D01*
X69799050Y-133144645D01*
X69869024Y-133214619D01*
X69902509Y-133275942D01*
X69897525Y-133345634D01*
X69855653Y-133401567D01*
X69790189Y-133425984D01*
X69781343Y-133426300D01*
X67645794Y-133426300D01*
X67636948Y-133425984D01*
X67365580Y-133406575D01*
X67348068Y-133404057D01*
X67086571Y-133347172D01*
X67069595Y-133342188D01*
X66818841Y-133248661D01*
X66802748Y-133241311D01*
X66567869Y-133113058D01*
X66552985Y-133103493D01*
X66338741Y-132943111D01*
X66325371Y-132931525D01*
X66136140Y-132742294D01*
X66124554Y-132728924D01*
X65964168Y-132514675D01*
X65954610Y-132499801D01*
X65826353Y-132264916D01*
X65819004Y-132248824D01*
X65725474Y-131998062D01*
X65720495Y-131981103D01*
X65694254Y-131860474D01*
X70641366Y-131860474D01*
X70641366Y-131992126D01*
X70675441Y-132119293D01*
X70741267Y-132233307D01*
X70834359Y-132326399D01*
X70948373Y-132392225D01*
X71075540Y-132426300D01*
X71207192Y-132426300D01*
X71334359Y-132392225D01*
X71448373Y-132326399D01*
X71541465Y-132233307D01*
X71607291Y-132119293D01*
X71641366Y-131992126D01*
X71641366Y-131860474D01*
X71607291Y-131733307D01*
X71541465Y-131619293D01*
X71448373Y-131526201D01*
X71334359Y-131460375D01*
X71207192Y-131426300D01*
X71075540Y-131426300D01*
X70948373Y-131460375D01*
X70834359Y-131526201D01*
X70741267Y-131619293D01*
X70675441Y-131733307D01*
X70641366Y-131860474D01*
X65694254Y-131860474D01*
X65663607Y-131719591D01*
X65661090Y-131702085D01*
X65641682Y-131430718D01*
X65641366Y-131421872D01*
X65641366Y-130926300D01*
X69684103Y-130926300D01*
X70141366Y-130926300D01*
X72141366Y-130926300D01*
X72598628Y-130926300D01*
X72575724Y-130857179D01*
X72483681Y-130707954D01*
X72359711Y-130583984D01*
X72210486Y-130491941D01*
X72141366Y-130469037D01*
X72141366Y-130926300D01*
X70141366Y-130926300D01*
X70141366Y-130469037D01*
X70072245Y-130491941D01*
X69923020Y-130583984D01*
X69799050Y-130707954D01*
X69707007Y-130857179D01*
X69684103Y-130926300D01*
X65641366Y-130926300D01*
X65641366Y-128426300D01*
X63891366Y-128426300D01*
X63771241Y-128426300D01*
X63761512Y-128425918D01*
X63521887Y-128407059D01*
X63502669Y-128404015D01*
X63273702Y-128349045D01*
X63255196Y-128343032D01*
X63051483Y-128258651D01*
X62997080Y-128214810D01*
X62975015Y-128148516D01*
X62991366Y-128084451D01*
X62991366Y-128076299D01*
X64791366Y-128076299D01*
X64941338Y-128076299D01*
X64941352Y-128076298D01*
X65044063Y-128065805D01*
X65210485Y-128010658D01*
X65210490Y-128010656D01*
X65359711Y-127918615D01*
X65483681Y-127794645D01*
X65575724Y-127645420D01*
X65598629Y-127576300D01*
X64791366Y-127576300D01*
X64791366Y-128076299D01*
X62991366Y-128076299D01*
X62991366Y-126800300D01*
X63011051Y-126733261D01*
X63063855Y-126687506D01*
X63115366Y-126676300D01*
X63891366Y-126676300D01*
X63891366Y-125900300D01*
X63911051Y-125833261D01*
X63963855Y-125787506D01*
X64015366Y-125776300D01*
X65598628Y-125776300D01*
X65575724Y-125707179D01*
X65483681Y-125557954D01*
X65359710Y-125433983D01*
X65359706Y-125433980D01*
X65314081Y-125405838D01*
X65267356Y-125353890D01*
X65256135Y-125284928D01*
X65283978Y-125220846D01*
X65342047Y-125181990D01*
X65379178Y-125176300D01*
X75141366Y-125176300D01*
X75141366Y-122124144D01*
X77041366Y-122124144D01*
X77047767Y-122183672D01*
X77047769Y-122183679D01*
X77098011Y-122318386D01*
X77098015Y-122318393D01*
X77184175Y-122433487D01*
X77184178Y-122433490D01*
X77299272Y-122519650D01*
X77299279Y-122519654D01*
X77433986Y-122569896D01*
X77433993Y-122569898D01*
X77493521Y-122576299D01*
X77493538Y-122576300D01*
X77941366Y-122576300D01*
X77941366Y-120426300D01*
X77041366Y-120426300D01*
X77041366Y-122124144D01*
X75141366Y-122124144D01*
X75141366Y-118430727D01*
X75141682Y-118421881D01*
X75161090Y-118150514D01*
X75163606Y-118133010D01*
X75220496Y-117871492D01*
X75225473Y-117854541D01*
X75319006Y-117603770D01*
X75326351Y-117587688D01*
X75454614Y-117352791D01*
X75464164Y-117337930D01*
X75624561Y-117123666D01*
X75636133Y-117110312D01*
X75825378Y-116921067D01*
X75838732Y-116909495D01*
X76052996Y-116749098D01*
X76067857Y-116739548D01*
X76302754Y-116611285D01*
X76318836Y-116603940D01*
X76569607Y-116510407D01*
X76586558Y-116505430D01*
X76848076Y-116448540D01*
X76865573Y-116446024D01*
X76945722Y-116440292D01*
X77013993Y-116455144D01*
G37*
%TD.AperFunction*%
%TD*%
%TA.AperFunction,Conductor*%
%TO.N,PGND*%
G36*
X112555351Y-121019685D02*
G01*
X112575993Y-121036319D01*
X112710194Y-121170520D01*
X112710204Y-121170531D01*
X112714534Y-121174861D01*
X112714535Y-121174862D01*
X112775138Y-121235465D01*
X112775140Y-121235466D01*
X112775141Y-121235467D01*
X112849358Y-121278316D01*
X112849359Y-121278317D01*
X112849361Y-121278317D01*
X112849362Y-121278318D01*
X112932147Y-121300501D01*
X112932149Y-121300501D01*
X113025449Y-121300501D01*
X113025465Y-121300500D01*
X113957287Y-121300500D01*
X113957295Y-121300499D01*
X114269491Y-121300499D01*
X114269491Y-121301669D01*
X114331989Y-121313521D01*
X114382701Y-121361585D01*
X114399500Y-121423907D01*
X114399500Y-121970999D01*
X114379815Y-122038038D01*
X114327011Y-122083793D01*
X114275500Y-122094999D01*
X113570404Y-122094999D01*
X113518403Y-122083568D01*
X113503673Y-122076764D01*
X113494471Y-122072513D01*
X113494467Y-122072511D01*
X113427430Y-122052826D01*
X113427426Y-122052825D01*
X113427425Y-122052825D01*
X113369527Y-122044500D01*
X113067758Y-122044500D01*
X113067752Y-122044500D01*
X113064182Y-122044734D01*
X113056071Y-122045000D01*
X112943929Y-122045000D01*
X112935818Y-122044734D01*
X112932248Y-122044500D01*
X112932242Y-122044500D01*
X111599764Y-122044500D01*
X111532725Y-122024815D01*
X111530981Y-122023674D01*
X110895270Y-121599866D01*
X110893830Y-121598915D01*
X110893747Y-121598860D01*
X110892003Y-121597719D01*
X110892001Y-121597718D01*
X110891998Y-121597716D01*
X110891996Y-121597715D01*
X110837397Y-121572511D01*
X110837394Y-121572510D01*
X110770361Y-121552826D01*
X110769712Y-121552732D01*
X110712456Y-121544500D01*
X109624000Y-121544500D01*
X109623992Y-121544500D01*
X109580313Y-121549197D01*
X109528825Y-121560397D01*
X109518627Y-121562890D01*
X109518624Y-121562891D01*
X109437916Y-121605899D01*
X109437913Y-121605901D01*
X109385104Y-121651660D01*
X109367160Y-121669242D01*
X109367154Y-121669249D01*
X109322511Y-121749059D01*
X109322509Y-121749064D01*
X109302826Y-121816096D01*
X109294500Y-121874003D01*
X109294500Y-122154138D01*
X109292079Y-122178524D01*
X109277743Y-122250000D01*
X109250000Y-122250000D01*
X109250000Y-121750000D01*
X107500000Y-121750000D01*
X107500000Y-122231013D01*
X107489353Y-122211515D01*
X107486519Y-122185157D01*
X107486519Y-121124000D01*
X107506204Y-121056961D01*
X107559008Y-121011206D01*
X107610519Y-121000000D01*
X112488312Y-121000000D01*
X112555351Y-121019685D01*
G37*
%TD.AperFunction*%
%TD*%
%TA.AperFunction,Conductor*%
%TO.N,GND*%
G36*
X110943039Y-128769685D02*
G01*
X110988794Y-128822489D01*
X111000000Y-128874000D01*
X111000000Y-132376000D01*
X110980315Y-132443039D01*
X110927511Y-132488794D01*
X110876000Y-132500000D01*
X107624000Y-132500000D01*
X107556961Y-132480315D01*
X107511206Y-132427511D01*
X107500000Y-132376000D01*
X107500000Y-130874000D01*
X107519685Y-130806961D01*
X107572489Y-130761206D01*
X107624000Y-130750000D01*
X109500000Y-130750000D01*
X109500000Y-128874000D01*
X109519685Y-128806961D01*
X109572489Y-128761206D01*
X109624000Y-128750000D01*
X110876000Y-128750000D01*
X110943039Y-128769685D01*
G37*
%TD.AperFunction*%
%TD*%
%TA.AperFunction,Conductor*%
%TO.N,VBUS*%
G36*
X85443039Y-60269685D02*
G01*
X85488794Y-60322489D01*
X85500000Y-60374000D01*
X85500000Y-95376000D01*
X85480315Y-95443039D01*
X85427511Y-95488794D01*
X85376000Y-95500000D01*
X66765365Y-95500000D01*
X66698326Y-95480315D01*
X66652571Y-95427511D01*
X66641365Y-95376000D01*
X66641365Y-83777900D01*
X66653316Y-83724787D01*
X71500000Y-73500000D01*
X71667200Y-64638370D01*
X71747705Y-60371661D01*
X71768651Y-60305005D01*
X71822309Y-60260254D01*
X71871683Y-60250000D01*
X85376000Y-60250000D01*
X85443039Y-60269685D01*
G37*
%TD.AperFunction*%
%TD*%
%TA.AperFunction,Conductor*%
%TO.N,+5V*%
G36*
X118657539Y-73019685D02*
G01*
X118703294Y-73072489D01*
X118714500Y-73124000D01*
X118714500Y-74373811D01*
X118694815Y-74440850D01*
X118678181Y-74461492D01*
X117026492Y-76113181D01*
X116965169Y-76146666D01*
X116938811Y-76149500D01*
X116220730Y-76149500D01*
X116190300Y-76152353D01*
X116190298Y-76152353D01*
X116062119Y-76197206D01*
X116062117Y-76197207D01*
X115952850Y-76277850D01*
X115872207Y-76387117D01*
X115872206Y-76387119D01*
X115827353Y-76515298D01*
X115827353Y-76515300D01*
X115824500Y-76545730D01*
X115824500Y-77154269D01*
X115827353Y-77184699D01*
X115827353Y-77184701D01*
X115865538Y-77293824D01*
X115872207Y-77312882D01*
X115952850Y-77422150D01*
X116062118Y-77502793D01*
X116104845Y-77517744D01*
X116190299Y-77547646D01*
X116220730Y-77550500D01*
X116220734Y-77550500D01*
X117279270Y-77550500D01*
X117309699Y-77547646D01*
X117309701Y-77547646D01*
X117373790Y-77525219D01*
X117437882Y-77502793D01*
X117547150Y-77422150D01*
X117627793Y-77312882D01*
X117650343Y-77248438D01*
X117672646Y-77184701D01*
X117672646Y-77184699D01*
X117675500Y-77154269D01*
X117675500Y-76545730D01*
X117672646Y-76515300D01*
X117672645Y-76515298D01*
X117665299Y-76494302D01*
X117661737Y-76424523D01*
X117694657Y-76365668D01*
X119300465Y-74759862D01*
X119343318Y-74685639D01*
X119365500Y-74602853D01*
X119365500Y-74517147D01*
X119365500Y-73124000D01*
X119368050Y-73115314D01*
X119366762Y-73106353D01*
X119377740Y-73082312D01*
X119385185Y-73056961D01*
X119392025Y-73051033D01*
X119395787Y-73042797D01*
X119418021Y-73028507D01*
X119437989Y-73011206D01*
X119448503Y-73008918D01*
X119454565Y-73005023D01*
X119489500Y-73000000D01*
X119613000Y-73000000D01*
X119680039Y-73019685D01*
X119725794Y-73072489D01*
X119737000Y-73124000D01*
X119737000Y-78125500D01*
X119717315Y-78192539D01*
X119664511Y-78238294D01*
X119613000Y-78249500D01*
X119441739Y-78249500D01*
X119373608Y-78259426D01*
X119268514Y-78310803D01*
X119191137Y-78388181D01*
X119129814Y-78421666D01*
X119103456Y-78424500D01*
X117763847Y-78424500D01*
X117696808Y-78404815D01*
X117651053Y-78352011D01*
X117646812Y-78341471D01*
X117627793Y-78287118D01*
X117547150Y-78177850D01*
X117437882Y-78097207D01*
X117437880Y-78097206D01*
X117309700Y-78052353D01*
X117279270Y-78049500D01*
X117279266Y-78049500D01*
X116220734Y-78049500D01*
X116220730Y-78049500D01*
X116190300Y-78052353D01*
X116190298Y-78052353D01*
X116062119Y-78097206D01*
X116062117Y-78097207D01*
X115952850Y-78177850D01*
X115872207Y-78287117D01*
X115872206Y-78287119D01*
X115827353Y-78415298D01*
X115827353Y-78415300D01*
X115824500Y-78445730D01*
X115824500Y-79054269D01*
X115827353Y-79084699D01*
X115827353Y-79084701D01*
X115870998Y-79209427D01*
X115872207Y-79212882D01*
X115952850Y-79322150D01*
X115952851Y-79322151D01*
X115952854Y-79322154D01*
X115969132Y-79334167D01*
X116011384Y-79389813D01*
X116019500Y-79433938D01*
X116019500Y-86496135D01*
X115999815Y-86563174D01*
X115983181Y-86583816D01*
X115926356Y-86640640D01*
X115875980Y-86748671D01*
X115869501Y-86797886D01*
X115869500Y-86797903D01*
X115869500Y-88202104D01*
X115875980Y-88251325D01*
X115875982Y-88251333D01*
X115898771Y-88300203D01*
X115926356Y-88359359D01*
X116010641Y-88443644D01*
X116118670Y-88494019D01*
X116167897Y-88500500D01*
X116522102Y-88500499D01*
X116522104Y-88500499D01*
X116536167Y-88498647D01*
X116571330Y-88494019D01*
X116679359Y-88443644D01*
X116763644Y-88359359D01*
X116814019Y-88251330D01*
X116820500Y-88202103D01*
X116820499Y-86797898D01*
X116820497Y-86797886D01*
X116817236Y-86773109D01*
X116814019Y-86748670D01*
X116763644Y-86640641D01*
X116706819Y-86583816D01*
X116673334Y-86522493D01*
X116670500Y-86496135D01*
X116670500Y-84095730D01*
X118099500Y-84095730D01*
X118099500Y-84729269D01*
X118102353Y-84759699D01*
X118102353Y-84759701D01*
X118144992Y-84881552D01*
X118147207Y-84887882D01*
X118227850Y-84997150D01*
X118337118Y-85077793D01*
X118374579Y-85090901D01*
X118472423Y-85125139D01*
X118471686Y-85127242D01*
X118523241Y-85155439D01*
X118556684Y-85216785D01*
X118559500Y-85243060D01*
X118559500Y-86496135D01*
X118539815Y-86563174D01*
X118523181Y-86583816D01*
X118466356Y-86640640D01*
X118415980Y-86748671D01*
X118409501Y-86797886D01*
X118409500Y-86797903D01*
X118409500Y-88202104D01*
X118415980Y-88251325D01*
X118415982Y-88251333D01*
X118434222Y-88290449D01*
X118466356Y-88359359D01*
X118550641Y-88443644D01*
X118658670Y-88494019D01*
X118707897Y-88500500D01*
X119062102Y-88500499D01*
X119062104Y-88500499D01*
X119076167Y-88498647D01*
X119111330Y-88494019D01*
X119219359Y-88443644D01*
X119303644Y-88359359D01*
X119354019Y-88251330D01*
X119360500Y-88202103D01*
X119360499Y-86797903D01*
X119679500Y-86797903D01*
X119679500Y-88202104D01*
X119685980Y-88251325D01*
X119685982Y-88251333D01*
X119708771Y-88300203D01*
X119736356Y-88359359D01*
X119820641Y-88443644D01*
X119928670Y-88494019D01*
X119977897Y-88500500D01*
X120332102Y-88500499D01*
X120332104Y-88500499D01*
X120346167Y-88498647D01*
X120381330Y-88494019D01*
X120489359Y-88443644D01*
X120573644Y-88359359D01*
X120624019Y-88251330D01*
X120630500Y-88202103D01*
X120630499Y-86797903D01*
X120949500Y-86797903D01*
X120949500Y-88202104D01*
X120955980Y-88251325D01*
X120955982Y-88251333D01*
X120978771Y-88300203D01*
X121006356Y-88359359D01*
X121090641Y-88443644D01*
X121198670Y-88494019D01*
X121247897Y-88500500D01*
X121602102Y-88500499D01*
X121602104Y-88500499D01*
X121616167Y-88498647D01*
X121651330Y-88494019D01*
X121759359Y-88443644D01*
X121843644Y-88359359D01*
X121894019Y-88251330D01*
X121900500Y-88202103D01*
X121900499Y-86797898D01*
X121900497Y-86797886D01*
X121897236Y-86773109D01*
X121894019Y-86748670D01*
X121843644Y-86640641D01*
X121759359Y-86556356D01*
X121651330Y-86505981D01*
X121651328Y-86505980D01*
X121602113Y-86499501D01*
X121602108Y-86499500D01*
X121602103Y-86499500D01*
X121602096Y-86499500D01*
X121247895Y-86499500D01*
X121198674Y-86505980D01*
X121198666Y-86505982D01*
X121090640Y-86556356D01*
X121006356Y-86640640D01*
X120955980Y-86748671D01*
X120949501Y-86797886D01*
X120949500Y-86797903D01*
X120630499Y-86797903D01*
X120630499Y-86797898D01*
X120630497Y-86797886D01*
X120627236Y-86773109D01*
X120624019Y-86748670D01*
X120573644Y-86640641D01*
X120516819Y-86583816D01*
X120483334Y-86522493D01*
X120480500Y-86496135D01*
X120480500Y-85943689D01*
X120500185Y-85876650D01*
X120516819Y-85856008D01*
X121211008Y-85161819D01*
X121272331Y-85128334D01*
X121298689Y-85125500D01*
X122004270Y-85125500D01*
X122034699Y-85122646D01*
X122034701Y-85122646D01*
X122098790Y-85100219D01*
X122162882Y-85077793D01*
X122272150Y-84997150D01*
X122352793Y-84887882D01*
X122383369Y-84800500D01*
X122397646Y-84759701D01*
X122397646Y-84759699D01*
X122400500Y-84729269D01*
X122400500Y-84095730D01*
X122397646Y-84065300D01*
X122397646Y-84065298D01*
X122352793Y-83937119D01*
X122352792Y-83937117D01*
X122347081Y-83929379D01*
X122272150Y-83827850D01*
X122162882Y-83747207D01*
X122162880Y-83747206D01*
X122034700Y-83702353D01*
X122004270Y-83699500D01*
X122004266Y-83699500D01*
X120995734Y-83699500D01*
X120995730Y-83699500D01*
X120965300Y-83702353D01*
X120965298Y-83702353D01*
X120837119Y-83747206D01*
X120837117Y-83747207D01*
X120727850Y-83827850D01*
X120647207Y-83937117D01*
X120647206Y-83937119D01*
X120602353Y-84065298D01*
X120602353Y-84065300D01*
X120599500Y-84095730D01*
X120599500Y-84729269D01*
X120602353Y-84759699D01*
X120603964Y-84767073D01*
X120600770Y-84767770D01*
X120603494Y-84822892D01*
X120570619Y-84881552D01*
X119894537Y-85557635D01*
X119894533Y-85557641D01*
X119851681Y-85631861D01*
X119851682Y-85631862D01*
X119829500Y-85714647D01*
X119829500Y-86496135D01*
X119809815Y-86563174D01*
X119793181Y-86583816D01*
X119736356Y-86640640D01*
X119685980Y-86748671D01*
X119679501Y-86797886D01*
X119679500Y-86797903D01*
X119360499Y-86797903D01*
X119360499Y-86797898D01*
X119360497Y-86797886D01*
X119357236Y-86773109D01*
X119354019Y-86748670D01*
X119303644Y-86640641D01*
X119246819Y-86583816D01*
X119213334Y-86522493D01*
X119210500Y-86496135D01*
X119210500Y-85249500D01*
X119230185Y-85182461D01*
X119282989Y-85136706D01*
X119334500Y-85125500D01*
X119504270Y-85125500D01*
X119534699Y-85122646D01*
X119534701Y-85122646D01*
X119598790Y-85100219D01*
X119662882Y-85077793D01*
X119772150Y-84997150D01*
X119852793Y-84887882D01*
X119883369Y-84800500D01*
X119897646Y-84759701D01*
X119897646Y-84759699D01*
X119900500Y-84729269D01*
X119900500Y-84095730D01*
X119897646Y-84065300D01*
X119897646Y-84065298D01*
X119852793Y-83937119D01*
X119852792Y-83937117D01*
X119847081Y-83929379D01*
X119772150Y-83827850D01*
X119662882Y-83747207D01*
X119662880Y-83747206D01*
X119534700Y-83702353D01*
X119504270Y-83699500D01*
X119504266Y-83699500D01*
X118495734Y-83699500D01*
X118495730Y-83699500D01*
X118465300Y-83702353D01*
X118465298Y-83702353D01*
X118337119Y-83747206D01*
X118337117Y-83747207D01*
X118227850Y-83827850D01*
X118147207Y-83937117D01*
X118147206Y-83937119D01*
X118102353Y-84065298D01*
X118102353Y-84065300D01*
X118099500Y-84095730D01*
X116670500Y-84095730D01*
X116670500Y-79574500D01*
X116690185Y-79507461D01*
X116742989Y-79461706D01*
X116794500Y-79450500D01*
X117279270Y-79450500D01*
X117309699Y-79447646D01*
X117309701Y-79447646D01*
X117375847Y-79424500D01*
X117437882Y-79402793D01*
X117547150Y-79322150D01*
X117627793Y-79212882D01*
X117646806Y-79158543D01*
X117687527Y-79101769D01*
X117752480Y-79076022D01*
X117763847Y-79075500D01*
X119103456Y-79075500D01*
X119170495Y-79095185D01*
X119191137Y-79111819D01*
X119268514Y-79189196D01*
X119268515Y-79189196D01*
X119268517Y-79189198D01*
X119373607Y-79240573D01*
X119403827Y-79244976D01*
X119441739Y-79250500D01*
X119441740Y-79250500D01*
X119995685Y-79250500D01*
X120062724Y-79270185D01*
X120108479Y-79322989D01*
X120118423Y-79392147D01*
X120103072Y-79436501D01*
X120099502Y-79442683D01*
X120099500Y-79442686D01*
X120094989Y-79450500D01*
X120033608Y-79556812D01*
X119999500Y-79684108D01*
X119999500Y-79815891D01*
X120033608Y-79943187D01*
X120053534Y-79977699D01*
X120099500Y-80057314D01*
X120192686Y-80150500D01*
X120306814Y-80216392D01*
X120434108Y-80250500D01*
X120434110Y-80250500D01*
X120565890Y-80250500D01*
X120565892Y-80250500D01*
X120693186Y-80216392D01*
X120807314Y-80150500D01*
X120845995Y-80111819D01*
X120872922Y-80097115D01*
X120898741Y-80080523D01*
X120904941Y-80079631D01*
X120907318Y-80078334D01*
X120933676Y-80075500D01*
X121028457Y-80075500D01*
X121095496Y-80095185D01*
X121116138Y-80111819D01*
X121138181Y-80133862D01*
X121171666Y-80195185D01*
X121174500Y-80221543D01*
X121174500Y-81750500D01*
X121154815Y-81817539D01*
X121102011Y-81863294D01*
X121050500Y-81874500D01*
X120995730Y-81874500D01*
X120965300Y-81877353D01*
X120965298Y-81877353D01*
X120837119Y-81922206D01*
X120837117Y-81922207D01*
X120727850Y-82002850D01*
X120647207Y-82112117D01*
X120623819Y-82178956D01*
X120583097Y-82235732D01*
X120518144Y-82261478D01*
X120506778Y-82262000D01*
X119993222Y-82262000D01*
X119926183Y-82242315D01*
X119880428Y-82189511D01*
X119876181Y-82178956D01*
X119865071Y-82147206D01*
X119852793Y-82112118D01*
X119772150Y-82002850D01*
X119662882Y-81922207D01*
X119662880Y-81922206D01*
X119534700Y-81877353D01*
X119504270Y-81874500D01*
X119504266Y-81874500D01*
X118495734Y-81874500D01*
X118495730Y-81874500D01*
X118465300Y-81877353D01*
X118465298Y-81877353D01*
X118337119Y-81922206D01*
X118337117Y-81922207D01*
X118227850Y-82002850D01*
X118147207Y-82112117D01*
X118147206Y-82112119D01*
X118102353Y-82240298D01*
X118102353Y-82240300D01*
X118099500Y-82270730D01*
X118099500Y-82904269D01*
X118102353Y-82934699D01*
X118102353Y-82934701D01*
X118147206Y-83062880D01*
X118147207Y-83062882D01*
X118227850Y-83172150D01*
X118337118Y-83252793D01*
X118379845Y-83267744D01*
X118465299Y-83297646D01*
X118495730Y-83300500D01*
X118495734Y-83300500D01*
X119504270Y-83300500D01*
X119534699Y-83297646D01*
X119534701Y-83297646D01*
X119598790Y-83275219D01*
X119662882Y-83252793D01*
X119772150Y-83172150D01*
X119852793Y-83062882D01*
X119876181Y-82996044D01*
X119916903Y-82939268D01*
X119981856Y-82913522D01*
X119993222Y-82913000D01*
X120506778Y-82913000D01*
X120573817Y-82932685D01*
X120619572Y-82985489D01*
X120623819Y-82996044D01*
X120647207Y-83062882D01*
X120727850Y-83172150D01*
X120837118Y-83252793D01*
X120879845Y-83267744D01*
X120965299Y-83297646D01*
X120995730Y-83300500D01*
X120995734Y-83300500D01*
X122004270Y-83300500D01*
X122034699Y-83297646D01*
X122034701Y-83297646D01*
X122098790Y-83275219D01*
X122162882Y-83252793D01*
X122272150Y-83172150D01*
X122352793Y-83062882D01*
X122381270Y-82981499D01*
X122397646Y-82934701D01*
X122397646Y-82934699D01*
X122400500Y-82904269D01*
X122400500Y-82270730D01*
X122397646Y-82240300D01*
X122397646Y-82240298D01*
X122352793Y-82112119D01*
X122352792Y-82112117D01*
X122345586Y-82102353D01*
X122272150Y-82002850D01*
X122162882Y-81922207D01*
X122162880Y-81922206D01*
X122034700Y-81877353D01*
X122004270Y-81874500D01*
X122004266Y-81874500D01*
X121949500Y-81874500D01*
X121882461Y-81854815D01*
X121836706Y-81802011D01*
X121825500Y-81750500D01*
X121825500Y-80324500D01*
X121845185Y-80257461D01*
X121897989Y-80211706D01*
X121949500Y-80200500D01*
X122558261Y-80200500D01*
X122580971Y-80197191D01*
X122626393Y-80190573D01*
X122731483Y-80139198D01*
X122814198Y-80056483D01*
X122865573Y-79951393D01*
X122875500Y-79883260D01*
X122875500Y-79516740D01*
X122865573Y-79448607D01*
X122814198Y-79343517D01*
X122814196Y-79343515D01*
X122814196Y-79343514D01*
X122731485Y-79260803D01*
X122626391Y-79209426D01*
X122558261Y-79199500D01*
X122558260Y-79199500D01*
X121316740Y-79199500D01*
X121316739Y-79199500D01*
X121248608Y-79209426D01*
X121143514Y-79260803D01*
X121060802Y-79343515D01*
X121055207Y-79354961D01*
X121044261Y-79366940D01*
X121037520Y-79381703D01*
X121021179Y-79392204D01*
X121008079Y-79406543D01*
X120991783Y-79411095D01*
X120978742Y-79419477D01*
X120943807Y-79424500D01*
X120933676Y-79424500D01*
X120866637Y-79404815D01*
X120845995Y-79388181D01*
X120837795Y-79379981D01*
X120825316Y-79357129D01*
X120820882Y-79352011D01*
X120820295Y-79347933D01*
X120804310Y-79318658D01*
X120809294Y-79248966D01*
X120851166Y-79193033D01*
X120853428Y-79191379D01*
X120856479Y-79189199D01*
X120856483Y-79189198D01*
X120939198Y-79106483D01*
X120990573Y-79001393D01*
X121000500Y-78933260D01*
X121000500Y-78690489D01*
X121020185Y-78623450D01*
X121072989Y-78577695D01*
X121142147Y-78567751D01*
X121159096Y-78571413D01*
X121247507Y-78597099D01*
X121247510Y-78597100D01*
X121284350Y-78599999D01*
X121284366Y-78600000D01*
X121687500Y-78600000D01*
X122187500Y-78600000D01*
X122590634Y-78600000D01*
X122590649Y-78599999D01*
X122627489Y-78597100D01*
X122627495Y-78597099D01*
X122785193Y-78551283D01*
X122785196Y-78551282D01*
X122926552Y-78467685D01*
X122926561Y-78467678D01*
X123042678Y-78351561D01*
X123042685Y-78351552D01*
X123126281Y-78210197D01*
X123133861Y-78184108D01*
X126499500Y-78184108D01*
X126499500Y-78315892D01*
X126509178Y-78352011D01*
X126533608Y-78443187D01*
X126565605Y-78498607D01*
X126599500Y-78557314D01*
X126692686Y-78650500D01*
X126806814Y-78716392D01*
X126934108Y-78750500D01*
X126934110Y-78750500D01*
X127065890Y-78750500D01*
X127065892Y-78750500D01*
X127193186Y-78716392D01*
X127196899Y-78714248D01*
X127200432Y-78713390D01*
X127200700Y-78713280D01*
X127200717Y-78713321D01*
X127264795Y-78697772D01*
X127330824Y-78720619D01*
X127374018Y-78775538D01*
X127375945Y-78780676D01*
X127421462Y-78910753D01*
X127422207Y-78912882D01*
X127502850Y-79022150D01*
X127612118Y-79102793D01*
X127637913Y-79111819D01*
X127740299Y-79147646D01*
X127770730Y-79150500D01*
X127770734Y-79150500D01*
X128404270Y-79150500D01*
X128434699Y-79147646D01*
X128434701Y-79147646D01*
X128498790Y-79125219D01*
X128562882Y-79102793D01*
X128672150Y-79022150D01*
X128752793Y-78912882D01*
X128775219Y-78848790D01*
X128797646Y-78784701D01*
X128797646Y-78784699D01*
X128800500Y-78754269D01*
X128800500Y-77745730D01*
X129199500Y-77745730D01*
X129199500Y-78754269D01*
X129202353Y-78784699D01*
X129202353Y-78784701D01*
X129246462Y-78910753D01*
X129247207Y-78912882D01*
X129327850Y-79022150D01*
X129437118Y-79102793D01*
X129524708Y-79133442D01*
X129541455Y-79139302D01*
X129560444Y-79152921D01*
X129581703Y-79162630D01*
X129588306Y-79172904D01*
X129598231Y-79180023D01*
X129606843Y-79201749D01*
X129619477Y-79221408D01*
X129622232Y-79240572D01*
X129623978Y-79244976D01*
X129624500Y-79256343D01*
X129624500Y-79486152D01*
X129604815Y-79553191D01*
X129552011Y-79598946D01*
X129541456Y-79603193D01*
X129487117Y-79622207D01*
X129377850Y-79702850D01*
X129297207Y-79812117D01*
X129297206Y-79812119D01*
X129252353Y-79940298D01*
X129252353Y-79940300D01*
X129249500Y-79970730D01*
X129249500Y-81029269D01*
X129252353Y-81059699D01*
X129252353Y-81059701D01*
X129297206Y-81187880D01*
X129297207Y-81187882D01*
X129377850Y-81297150D01*
X129487118Y-81377793D01*
X129520761Y-81389565D01*
X129615299Y-81422646D01*
X129645730Y-81425500D01*
X129645734Y-81425500D01*
X130254270Y-81425500D01*
X130284699Y-81422646D01*
X130284701Y-81422646D01*
X130353727Y-81398492D01*
X130412882Y-81377793D01*
X130522150Y-81297150D01*
X130602793Y-81187882D01*
X130633913Y-81098946D01*
X130647646Y-81059701D01*
X130647646Y-81059699D01*
X130650500Y-81029269D01*
X130650500Y-80619334D01*
X135269500Y-80619334D01*
X135269500Y-80800665D01*
X135304872Y-80978492D01*
X135304874Y-80978500D01*
X135374261Y-81146017D01*
X135374266Y-81146026D01*
X135475000Y-81296784D01*
X135475003Y-81296788D01*
X135603211Y-81424996D01*
X135603215Y-81424999D01*
X135753973Y-81525733D01*
X135753979Y-81525736D01*
X135753980Y-81525737D01*
X135921500Y-81595126D01*
X136099334Y-81630499D01*
X136099338Y-81630500D01*
X136099339Y-81630500D01*
X136280662Y-81630500D01*
X136280663Y-81630499D01*
X136458500Y-81595126D01*
X136626020Y-81525737D01*
X136776785Y-81424999D01*
X136904999Y-81296785D01*
X137005737Y-81146020D01*
X137075126Y-80978500D01*
X137110500Y-80800661D01*
X137110500Y-80619339D01*
X137075126Y-80441500D01*
X137005737Y-80273980D01*
X137005736Y-80273979D01*
X137005733Y-80273973D01*
X136904999Y-80123215D01*
X136904996Y-80123211D01*
X136776788Y-79995003D01*
X136776784Y-79995000D01*
X136626026Y-79894266D01*
X136626017Y-79894261D01*
X136458500Y-79824874D01*
X136458492Y-79824872D01*
X136280665Y-79789500D01*
X136280661Y-79789500D01*
X136099339Y-79789500D01*
X136099334Y-79789500D01*
X135921507Y-79824872D01*
X135921499Y-79824874D01*
X135753982Y-79894261D01*
X135753973Y-79894266D01*
X135603215Y-79995000D01*
X135603211Y-79995003D01*
X135475003Y-80123211D01*
X135475000Y-80123215D01*
X135374266Y-80273973D01*
X135374261Y-80273982D01*
X135304874Y-80441499D01*
X135304872Y-80441507D01*
X135269500Y-80619334D01*
X130650500Y-80619334D01*
X130650500Y-79970730D01*
X130647646Y-79940300D01*
X130647646Y-79940298D01*
X130614006Y-79844163D01*
X130602793Y-79812118D01*
X130522150Y-79702850D01*
X130412882Y-79622207D01*
X130412879Y-79622206D01*
X130358544Y-79603193D01*
X130301768Y-79562471D01*
X130276022Y-79497518D01*
X130275500Y-79486152D01*
X130275500Y-79230099D01*
X130295185Y-79163060D01*
X130347989Y-79117305D01*
X130358525Y-79113065D01*
X130387882Y-79102793D01*
X130497150Y-79022150D01*
X130577793Y-78912882D01*
X130600219Y-78848790D01*
X130622646Y-78784701D01*
X130622646Y-78784699D01*
X130625500Y-78754269D01*
X130625500Y-77745730D01*
X130622646Y-77715300D01*
X130622646Y-77715298D01*
X130577793Y-77587119D01*
X130577792Y-77587117D01*
X130497150Y-77477850D01*
X130387882Y-77397207D01*
X130387880Y-77397206D01*
X130259700Y-77352353D01*
X130229270Y-77349500D01*
X130229266Y-77349500D01*
X129595734Y-77349500D01*
X129595730Y-77349500D01*
X129565300Y-77352353D01*
X129565298Y-77352353D01*
X129437119Y-77397206D01*
X129437117Y-77397207D01*
X129327850Y-77477850D01*
X129247207Y-77587117D01*
X129247206Y-77587119D01*
X129202353Y-77715298D01*
X129202353Y-77715300D01*
X129199500Y-77745730D01*
X128800500Y-77745730D01*
X128797646Y-77715300D01*
X128797646Y-77715298D01*
X128752793Y-77587119D01*
X128752792Y-77587117D01*
X128672150Y-77477850D01*
X128562882Y-77397207D01*
X128562880Y-77397206D01*
X128434700Y-77352353D01*
X128404270Y-77349500D01*
X128404266Y-77349500D01*
X127770734Y-77349500D01*
X127770730Y-77349500D01*
X127740300Y-77352353D01*
X127740298Y-77352353D01*
X127612119Y-77397206D01*
X127612117Y-77397207D01*
X127502850Y-77477850D01*
X127422207Y-77587117D01*
X127375945Y-77719323D01*
X127335223Y-77776099D01*
X127270270Y-77801845D01*
X127201708Y-77788388D01*
X127196904Y-77785754D01*
X127193189Y-77783609D01*
X127193186Y-77783608D01*
X127065892Y-77749500D01*
X126934108Y-77749500D01*
X126806812Y-77783608D01*
X126692686Y-77849500D01*
X126692683Y-77849502D01*
X126599502Y-77942683D01*
X126599500Y-77942686D01*
X126533608Y-78056812D01*
X126515204Y-78125500D01*
X126499500Y-78184108D01*
X123133861Y-78184108D01*
X123146273Y-78141387D01*
X123146274Y-78141384D01*
X123172099Y-78052494D01*
X123172100Y-78052488D01*
X123172295Y-78050001D01*
X123172295Y-78050000D01*
X122187500Y-78050000D01*
X122187500Y-78600000D01*
X121687500Y-78600000D01*
X121687500Y-78050000D01*
X120702705Y-78050000D01*
X120702704Y-78050001D01*
X120702899Y-78052486D01*
X120714061Y-78090905D01*
X120713861Y-78160775D01*
X120675918Y-78219445D01*
X120612280Y-78248288D01*
X120594984Y-78249500D01*
X120512000Y-78249500D01*
X120444961Y-78229815D01*
X120399206Y-78177011D01*
X120388000Y-78125500D01*
X120388000Y-77549998D01*
X120702704Y-77549998D01*
X120702705Y-77550000D01*
X121687500Y-77550000D01*
X122187500Y-77550000D01*
X123172295Y-77550000D01*
X123172295Y-77549998D01*
X123172100Y-77547513D01*
X123126281Y-77389801D01*
X123042685Y-77248447D01*
X123042678Y-77248438D01*
X122926561Y-77132321D01*
X122926552Y-77132314D01*
X122785196Y-77048717D01*
X122785193Y-77048716D01*
X122627495Y-77002900D01*
X122627489Y-77002899D01*
X122590649Y-77000000D01*
X122187500Y-77000000D01*
X122187500Y-77550000D01*
X121687500Y-77550000D01*
X121687500Y-77000000D01*
X121284350Y-77000000D01*
X121247510Y-77002899D01*
X121247504Y-77002900D01*
X121089806Y-77048716D01*
X121089803Y-77048717D01*
X120948447Y-77132314D01*
X120948438Y-77132321D01*
X120832321Y-77248438D01*
X120832314Y-77248447D01*
X120748718Y-77389801D01*
X120702899Y-77547513D01*
X120702704Y-77549998D01*
X120388000Y-77549998D01*
X120388000Y-73124000D01*
X120407685Y-73056961D01*
X120460489Y-73011206D01*
X120512000Y-73000000D01*
X145634122Y-73000000D01*
X145701161Y-73019685D01*
X145746916Y-73072489D01*
X145757838Y-73115612D01*
X147741127Y-102369136D01*
X147726022Y-102437354D01*
X147676434Y-102486576D01*
X147618844Y-102501516D01*
X127657907Y-102732277D01*
X127590645Y-102713368D01*
X127568793Y-102695966D01*
X126361819Y-101488992D01*
X126328334Y-101427669D01*
X126325500Y-101401311D01*
X126325500Y-97516739D01*
X126999500Y-97516739D01*
X126999500Y-97883260D01*
X127009426Y-97951391D01*
X127060803Y-98056485D01*
X127143514Y-98139196D01*
X127143515Y-98139196D01*
X127143517Y-98139198D01*
X127248607Y-98190573D01*
X127282673Y-98195536D01*
X127316739Y-98200500D01*
X127316740Y-98200500D01*
X128558261Y-98200500D01*
X128580971Y-98197191D01*
X128626393Y-98190573D01*
X128731483Y-98139198D01*
X128731485Y-98139196D01*
X128743753Y-98126929D01*
X128805076Y-98093444D01*
X128874768Y-98098428D01*
X128919115Y-98126929D01*
X128942686Y-98150500D01*
X129056814Y-98216392D01*
X129184108Y-98250500D01*
X129184110Y-98250500D01*
X129315890Y-98250500D01*
X129315892Y-98250500D01*
X129443186Y-98216392D01*
X129557314Y-98150500D01*
X129650500Y-98057314D01*
X129716392Y-97943186D01*
X129750500Y-97815892D01*
X129750500Y-97684108D01*
X129716392Y-97556814D01*
X129650500Y-97442686D01*
X129557314Y-97349500D01*
X129484501Y-97307461D01*
X129443187Y-97283608D01*
X129361446Y-97261706D01*
X129315892Y-97249500D01*
X129184108Y-97249500D01*
X129056814Y-97283608D01*
X129056813Y-97283608D01*
X129056811Y-97283609D01*
X129056810Y-97283609D01*
X128947422Y-97346765D01*
X128879522Y-97363238D01*
X128813495Y-97340385D01*
X128797741Y-97327059D01*
X128731485Y-97260803D01*
X128626391Y-97209426D01*
X128558261Y-97199500D01*
X128558260Y-97199500D01*
X127316740Y-97199500D01*
X127316739Y-97199500D01*
X127248608Y-97209426D01*
X127143514Y-97260803D01*
X127060803Y-97343514D01*
X127009426Y-97448608D01*
X126999500Y-97516739D01*
X126325500Y-97516739D01*
X126325500Y-97374500D01*
X126345185Y-97307461D01*
X126397989Y-97261706D01*
X126449500Y-97250500D01*
X126683261Y-97250500D01*
X126705971Y-97247191D01*
X126751393Y-97240573D01*
X126856483Y-97189198D01*
X126939198Y-97106483D01*
X126990573Y-97001393D01*
X127000500Y-96933260D01*
X127000500Y-96690489D01*
X127020185Y-96623450D01*
X127072989Y-96577695D01*
X127142147Y-96567751D01*
X127159096Y-96571413D01*
X127247507Y-96597099D01*
X127247510Y-96597100D01*
X127284350Y-96599999D01*
X127284366Y-96600000D01*
X127687500Y-96600000D01*
X128187500Y-96600000D01*
X128590634Y-96600000D01*
X128590649Y-96599999D01*
X128627489Y-96597100D01*
X128627495Y-96597099D01*
X128785193Y-96551283D01*
X128785196Y-96551282D01*
X128926552Y-96467685D01*
X128926561Y-96467678D01*
X129042678Y-96351561D01*
X129042685Y-96351552D01*
X129126281Y-96210198D01*
X129172100Y-96052486D01*
X129172295Y-96050001D01*
X129172295Y-96050000D01*
X128187500Y-96050000D01*
X128187500Y-96600000D01*
X127687500Y-96600000D01*
X127687500Y-96050000D01*
X126702705Y-96050000D01*
X126702704Y-96050001D01*
X126702899Y-96052486D01*
X126714061Y-96090905D01*
X126713861Y-96160775D01*
X126675918Y-96219445D01*
X126612280Y-96248288D01*
X126594984Y-96249500D01*
X126449500Y-96249500D01*
X126382461Y-96229815D01*
X126336706Y-96177011D01*
X126325500Y-96125500D01*
X126325500Y-95549998D01*
X126702704Y-95549998D01*
X126702705Y-95550000D01*
X127687500Y-95550000D01*
X128187500Y-95550000D01*
X129172295Y-95550000D01*
X129172295Y-95549998D01*
X129172100Y-95547513D01*
X129126281Y-95389801D01*
X129042685Y-95248447D01*
X129042678Y-95248438D01*
X128926561Y-95132321D01*
X128926552Y-95132314D01*
X128785196Y-95048717D01*
X128785193Y-95048716D01*
X128627495Y-95002900D01*
X128627489Y-95002899D01*
X128590649Y-95000000D01*
X128187500Y-95000000D01*
X128187500Y-95550000D01*
X127687500Y-95550000D01*
X127687500Y-95000000D01*
X127284350Y-95000000D01*
X127247510Y-95002899D01*
X127247504Y-95002900D01*
X127089806Y-95048716D01*
X127089803Y-95048717D01*
X126948447Y-95132314D01*
X126948438Y-95132321D01*
X126832321Y-95248438D01*
X126832314Y-95248447D01*
X126748718Y-95389801D01*
X126702899Y-95547513D01*
X126702704Y-95549998D01*
X126325500Y-95549998D01*
X126325500Y-95052855D01*
X126325501Y-95052842D01*
X126325501Y-94957148D01*
X126325501Y-94957147D01*
X126303318Y-94874361D01*
X126281891Y-94837250D01*
X126260465Y-94800138D01*
X126199862Y-94739535D01*
X126199859Y-94739533D01*
X123546508Y-92086181D01*
X123513023Y-92024858D01*
X123518007Y-91955166D01*
X123559879Y-91899233D01*
X123625343Y-91874816D01*
X123634189Y-91874500D01*
X126812811Y-91874500D01*
X126879850Y-91894185D01*
X126900492Y-91910819D01*
X127300138Y-92310465D01*
X127374361Y-92353318D01*
X127457147Y-92375500D01*
X127457149Y-92375500D01*
X127457593Y-92375619D01*
X127517253Y-92411984D01*
X127547783Y-92474830D01*
X127549500Y-92495394D01*
X127549500Y-92569752D01*
X127561131Y-92628229D01*
X127561132Y-92628230D01*
X127605447Y-92694552D01*
X127671769Y-92738867D01*
X127671770Y-92738868D01*
X127730247Y-92750499D01*
X127730250Y-92750500D01*
X127730252Y-92750500D01*
X129269750Y-92750500D01*
X129269751Y-92750499D01*
X129284568Y-92747552D01*
X129328229Y-92738868D01*
X129328229Y-92738867D01*
X129328231Y-92738867D01*
X129394552Y-92694552D01*
X129438867Y-92628231D01*
X129438867Y-92628229D01*
X129438868Y-92628229D01*
X129450499Y-92569752D01*
X129450500Y-92569750D01*
X129450500Y-91530249D01*
X129450499Y-91530247D01*
X129438868Y-91471770D01*
X129438867Y-91471768D01*
X129436945Y-91468892D01*
X129434681Y-91461664D01*
X129434194Y-91460487D01*
X129434299Y-91460443D01*
X129416066Y-91402215D01*
X129417768Y-91379409D01*
X129422180Y-91353203D01*
X129438867Y-91328231D01*
X129450500Y-91269748D01*
X129450500Y-91185029D01*
X129452222Y-91174803D01*
X129463145Y-91152328D01*
X129470185Y-91128355D01*
X129478153Y-91121449D01*
X129482765Y-91111963D01*
X129504107Y-91098960D01*
X129522989Y-91082600D01*
X129542407Y-91075619D01*
X129542851Y-91075500D01*
X129542853Y-91075500D01*
X129625639Y-91053318D01*
X129699862Y-91010465D01*
X130199859Y-90510466D01*
X130199862Y-90510465D01*
X130260465Y-90449862D01*
X130281891Y-90412750D01*
X130303318Y-90375639D01*
X130325500Y-90292853D01*
X130325500Y-90207147D01*
X130325500Y-86243221D01*
X130345185Y-86176182D01*
X130397989Y-86130427D01*
X130408522Y-86126188D01*
X130475382Y-86102793D01*
X130584650Y-86022150D01*
X130665293Y-85912882D01*
X130689864Y-85842661D01*
X130710146Y-85784701D01*
X130710146Y-85784699D01*
X130713000Y-85754269D01*
X130713000Y-85693984D01*
X134970000Y-85693984D01*
X134970000Y-85886015D01*
X135000040Y-86075684D01*
X135059383Y-86258321D01*
X135146561Y-86429415D01*
X135167798Y-86458646D01*
X135790000Y-85836445D01*
X135790000Y-85842661D01*
X135817259Y-85944394D01*
X135869920Y-86035606D01*
X135944394Y-86110080D01*
X136035606Y-86162741D01*
X136137339Y-86190000D01*
X136143554Y-86190000D01*
X135521351Y-86812200D01*
X135521352Y-86812201D01*
X135550577Y-86833434D01*
X135721678Y-86920616D01*
X135904315Y-86979959D01*
X136093985Y-87010000D01*
X136286015Y-87010000D01*
X136475684Y-86979959D01*
X136658321Y-86920616D01*
X136829419Y-86833436D01*
X136858646Y-86812201D01*
X136858646Y-86812200D01*
X136236447Y-86190000D01*
X136242661Y-86190000D01*
X136344394Y-86162741D01*
X136435606Y-86110080D01*
X136510080Y-86035606D01*
X136562741Y-85944394D01*
X136590000Y-85842661D01*
X136590000Y-85836446D01*
X137212200Y-86458646D01*
X137212201Y-86458646D01*
X137233436Y-86429419D01*
X137320616Y-86258321D01*
X137379959Y-86075684D01*
X137410000Y-85886015D01*
X137410000Y-85693984D01*
X137379959Y-85504315D01*
X137320616Y-85321678D01*
X137233434Y-85150577D01*
X137212201Y-85121352D01*
X137212200Y-85121351D01*
X136590000Y-85743552D01*
X136590000Y-85737339D01*
X136562741Y-85635606D01*
X136510080Y-85544394D01*
X136435606Y-85469920D01*
X136344394Y-85417259D01*
X136242661Y-85390000D01*
X136236447Y-85390000D01*
X136858646Y-84767798D01*
X136829415Y-84746561D01*
X136658321Y-84659383D01*
X136475684Y-84600040D01*
X136286015Y-84570000D01*
X136093985Y-84570000D01*
X135904315Y-84600040D01*
X135721678Y-84659383D01*
X135550578Y-84746564D01*
X135521352Y-84767798D01*
X135521351Y-84767798D01*
X136143554Y-85390000D01*
X136137339Y-85390000D01*
X136035606Y-85417259D01*
X135944394Y-85469920D01*
X135869920Y-85544394D01*
X135817259Y-85635606D01*
X135790000Y-85737339D01*
X135790000Y-85743553D01*
X135167798Y-85121351D01*
X135167798Y-85121352D01*
X135146564Y-85150578D01*
X135059383Y-85321678D01*
X135000040Y-85504315D01*
X134970000Y-85693984D01*
X130713000Y-85693984D01*
X130713000Y-84745730D01*
X130710146Y-84715300D01*
X130710146Y-84715298D01*
X130676506Y-84619163D01*
X130665293Y-84587118D01*
X130584650Y-84477850D01*
X130475382Y-84397207D01*
X130475380Y-84397206D01*
X130347200Y-84352353D01*
X130316770Y-84349500D01*
X130316766Y-84349500D01*
X129948689Y-84349500D01*
X129881650Y-84329815D01*
X129861008Y-84313181D01*
X129660008Y-84112181D01*
X129626523Y-84050858D01*
X129631507Y-83981166D01*
X129673379Y-83925233D01*
X129738843Y-83900816D01*
X129747689Y-83900500D01*
X130229270Y-83900500D01*
X130259699Y-83897646D01*
X130259701Y-83897646D01*
X130326461Y-83874285D01*
X130387882Y-83852793D01*
X130497150Y-83772150D01*
X130577793Y-83662882D01*
X130600219Y-83598790D01*
X130622646Y-83534701D01*
X130622646Y-83534699D01*
X130625500Y-83504269D01*
X130625500Y-83449500D01*
X130645185Y-83382461D01*
X130697989Y-83336706D01*
X130749500Y-83325500D01*
X132624720Y-83325500D01*
X132691759Y-83345185D01*
X132737514Y-83397989D01*
X132746337Y-83425309D01*
X132764872Y-83518492D01*
X132764874Y-83518500D01*
X132834261Y-83686017D01*
X132834266Y-83686026D01*
X132935000Y-83836784D01*
X132935003Y-83836788D01*
X133063211Y-83964996D01*
X133063215Y-83964999D01*
X133213973Y-84065733D01*
X133213979Y-84065736D01*
X133213980Y-84065737D01*
X133381500Y-84135126D01*
X133559334Y-84170499D01*
X133559338Y-84170500D01*
X133559339Y-84170500D01*
X133740662Y-84170500D01*
X133740663Y-84170499D01*
X133918500Y-84135126D01*
X134086020Y-84065737D01*
X134236785Y-83964999D01*
X134364999Y-83836785D01*
X134465737Y-83686020D01*
X134535126Y-83518500D01*
X134570500Y-83340661D01*
X134570500Y-83159339D01*
X134535126Y-82981500D01*
X134465737Y-82813980D01*
X134465736Y-82813979D01*
X134465733Y-82813973D01*
X134364999Y-82663215D01*
X134364996Y-82663211D01*
X134236788Y-82535003D01*
X134236784Y-82535000D01*
X134086026Y-82434266D01*
X134086017Y-82434261D01*
X133918500Y-82364874D01*
X133918492Y-82364872D01*
X133740665Y-82329500D01*
X133740661Y-82329500D01*
X133559339Y-82329500D01*
X133559334Y-82329500D01*
X133381507Y-82364872D01*
X133381499Y-82364874D01*
X133213982Y-82434261D01*
X133213973Y-82434266D01*
X133063216Y-82534999D01*
X133031024Y-82567192D01*
X132960033Y-82638182D01*
X132898713Y-82671666D01*
X132872354Y-82674500D01*
X130749500Y-82674500D01*
X130682461Y-82654815D01*
X130636706Y-82602011D01*
X130625500Y-82550500D01*
X130625500Y-82495730D01*
X130622646Y-82465300D01*
X130622646Y-82465298D01*
X130587505Y-82364874D01*
X130577793Y-82337118D01*
X130497150Y-82227850D01*
X130387882Y-82147207D01*
X130387880Y-82147206D01*
X130259700Y-82102353D01*
X130229270Y-82099500D01*
X130229266Y-82099500D01*
X129595734Y-82099500D01*
X129595730Y-82099500D01*
X129565300Y-82102353D01*
X129565298Y-82102353D01*
X129437119Y-82147206D01*
X129437117Y-82147207D01*
X129327850Y-82227850D01*
X129247207Y-82337117D01*
X129247206Y-82337119D01*
X129202353Y-82465298D01*
X129202353Y-82465300D01*
X129199500Y-82495730D01*
X129199500Y-83352311D01*
X129193261Y-83373556D01*
X129191682Y-83395645D01*
X129183609Y-83406428D01*
X129179815Y-83419350D01*
X129163081Y-83433849D01*
X129149810Y-83451578D01*
X129137189Y-83456285D01*
X129127011Y-83465105D01*
X129105093Y-83468256D01*
X129084346Y-83475995D01*
X129071185Y-83473132D01*
X129057853Y-83475049D01*
X129037709Y-83465849D01*
X129016073Y-83461143D01*
X128998347Y-83447874D01*
X128994297Y-83446024D01*
X128987819Y-83439992D01*
X128836819Y-83288992D01*
X128803334Y-83227669D01*
X128800500Y-83201311D01*
X128800500Y-82495730D01*
X128797646Y-82465300D01*
X128797646Y-82465298D01*
X128762505Y-82364874D01*
X128752793Y-82337118D01*
X128672150Y-82227850D01*
X128562882Y-82147207D01*
X128562880Y-82147206D01*
X128434700Y-82102353D01*
X128404270Y-82099500D01*
X128404266Y-82099500D01*
X127770734Y-82099500D01*
X127770730Y-82099500D01*
X127740300Y-82102353D01*
X127740298Y-82102353D01*
X127612119Y-82147206D01*
X127612113Y-82147209D01*
X127523133Y-82212880D01*
X127457504Y-82236851D01*
X127389334Y-82221535D01*
X127340266Y-82171795D01*
X127325500Y-82113110D01*
X127325500Y-81736188D01*
X127345185Y-81669149D01*
X127361815Y-81648511D01*
X127565668Y-81444657D01*
X127626989Y-81411174D01*
X127694302Y-81415299D01*
X127715298Y-81422645D01*
X127715300Y-81422646D01*
X127745730Y-81425500D01*
X127745734Y-81425500D01*
X128354270Y-81425500D01*
X128384699Y-81422646D01*
X128384701Y-81422646D01*
X128453727Y-81398492D01*
X128512882Y-81377793D01*
X128622150Y-81297150D01*
X128702793Y-81187882D01*
X128733913Y-81098946D01*
X128747646Y-81059701D01*
X128747646Y-81059699D01*
X128750500Y-81029269D01*
X128750500Y-79970730D01*
X128747646Y-79940300D01*
X128747646Y-79940298D01*
X128714006Y-79844163D01*
X128702793Y-79812118D01*
X128622150Y-79702850D01*
X128512882Y-79622207D01*
X128512880Y-79622206D01*
X128384700Y-79577353D01*
X128354270Y-79574500D01*
X128354266Y-79574500D01*
X127745734Y-79574500D01*
X127745730Y-79574500D01*
X127715300Y-79577353D01*
X127715298Y-79577353D01*
X127587119Y-79622206D01*
X127587117Y-79622207D01*
X127477850Y-79702850D01*
X127397207Y-79812117D01*
X127397206Y-79812119D01*
X127352353Y-79940298D01*
X127352353Y-79940300D01*
X127349500Y-79970730D01*
X127349500Y-80688811D01*
X127329815Y-80755850D01*
X127313181Y-80776492D01*
X126739537Y-81350135D01*
X126739533Y-81350141D01*
X126696681Y-81424361D01*
X126696682Y-81424362D01*
X126674500Y-81507147D01*
X126674500Y-84800500D01*
X126654815Y-84867539D01*
X126602011Y-84913294D01*
X126550500Y-84924500D01*
X123457147Y-84924500D01*
X123374359Y-84946682D01*
X123300138Y-84989535D01*
X123300135Y-84989537D01*
X122434537Y-85855135D01*
X122434533Y-85855141D01*
X122391681Y-85929361D01*
X122391682Y-85929362D01*
X122369500Y-86012147D01*
X122369500Y-86496135D01*
X122349815Y-86563174D01*
X122333181Y-86583816D01*
X122276356Y-86640640D01*
X122225980Y-86748671D01*
X122219501Y-86797886D01*
X122219500Y-86797903D01*
X122219500Y-88202104D01*
X122225980Y-88251325D01*
X122225982Y-88251333D01*
X122248771Y-88300203D01*
X122276356Y-88359359D01*
X122360641Y-88443644D01*
X122468670Y-88494019D01*
X122517897Y-88500500D01*
X122872102Y-88500499D01*
X122872104Y-88500499D01*
X122886167Y-88498647D01*
X122921330Y-88494019D01*
X123029359Y-88443644D01*
X123113644Y-88359359D01*
X123164019Y-88251330D01*
X123170500Y-88202103D01*
X123170499Y-86797898D01*
X123170497Y-86797886D01*
X123167236Y-86773109D01*
X123164019Y-86748670D01*
X123113644Y-86640641D01*
X123056819Y-86583816D01*
X123023334Y-86522493D01*
X123020500Y-86496135D01*
X123020500Y-86241189D01*
X123040185Y-86174150D01*
X123056819Y-86153508D01*
X123598508Y-85611819D01*
X123659831Y-85578334D01*
X123686189Y-85575500D01*
X126957147Y-85575500D01*
X127338000Y-85575500D01*
X127405039Y-85595185D01*
X127450794Y-85647989D01*
X127462000Y-85699500D01*
X127462000Y-85754269D01*
X127464853Y-85784699D01*
X127464853Y-85784701D01*
X127509706Y-85912880D01*
X127509707Y-85912882D01*
X127590350Y-86022150D01*
X127699618Y-86102793D01*
X127742345Y-86117744D01*
X127827799Y-86147646D01*
X127858230Y-86150500D01*
X127858234Y-86150500D01*
X128491770Y-86150500D01*
X128522199Y-86147646D01*
X128522201Y-86147646D01*
X128586290Y-86125219D01*
X128650382Y-86102793D01*
X128759650Y-86022150D01*
X128840293Y-85912882D01*
X128864864Y-85842661D01*
X128885146Y-85784701D01*
X128885146Y-85784699D01*
X128888000Y-85754269D01*
X128888000Y-84745730D01*
X128885146Y-84715300D01*
X128885146Y-84715298D01*
X128851506Y-84619163D01*
X128840293Y-84587118D01*
X128759650Y-84477850D01*
X128739224Y-84462775D01*
X128739222Y-84462773D01*
X128650386Y-84397209D01*
X128650380Y-84397206D01*
X128522200Y-84352353D01*
X128491770Y-84349500D01*
X128491766Y-84349500D01*
X127858234Y-84349500D01*
X127858230Y-84349500D01*
X127827800Y-84352353D01*
X127827798Y-84352353D01*
X127699619Y-84397206D01*
X127699617Y-84397207D01*
X127614701Y-84459878D01*
X127590350Y-84477850D01*
X127575277Y-84498274D01*
X127549270Y-84533512D01*
X127493623Y-84575762D01*
X127423966Y-84581221D01*
X127362417Y-84548153D01*
X127328516Y-84487059D01*
X127325500Y-84459878D01*
X127325500Y-83886889D01*
X127329176Y-83874367D01*
X127328157Y-83861355D01*
X127338831Y-83841485D01*
X127345185Y-83819850D01*
X127355047Y-83811304D01*
X127361225Y-83799806D01*
X127380946Y-83788862D01*
X127397989Y-83774095D01*
X127410906Y-83772237D01*
X127422319Y-83765905D01*
X127444824Y-83767360D01*
X127467147Y-83764151D01*
X127480614Y-83769675D01*
X127492043Y-83770415D01*
X127523128Y-83787115D01*
X127612118Y-83852793D01*
X127636587Y-83861355D01*
X127740299Y-83897646D01*
X127770730Y-83900500D01*
X127770734Y-83900500D01*
X128404270Y-83900500D01*
X128434690Y-83897647D01*
X128434691Y-83897646D01*
X128434699Y-83897646D01*
X128434706Y-83897643D01*
X128442066Y-83896036D01*
X128442778Y-83899298D01*
X128497464Y-83896402D01*
X128556552Y-83929379D01*
X129253145Y-84625972D01*
X129286630Y-84687295D01*
X129288923Y-84725228D01*
X129287001Y-84745730D01*
X129287000Y-84745738D01*
X129287000Y-85754269D01*
X129289853Y-85784699D01*
X129289853Y-85784701D01*
X129334706Y-85912880D01*
X129334707Y-85912882D01*
X129415350Y-86022150D01*
X129524618Y-86102793D01*
X129591458Y-86126181D01*
X129648231Y-86166901D01*
X129673978Y-86231854D01*
X129674500Y-86243221D01*
X129674500Y-88817247D01*
X129654815Y-88884286D01*
X129602011Y-88930041D01*
X129532853Y-88939985D01*
X129469297Y-88910960D01*
X129447478Y-88880702D01*
X129445652Y-88881923D01*
X129394552Y-88805447D01*
X129328230Y-88761132D01*
X129328229Y-88761131D01*
X129269752Y-88749500D01*
X129269748Y-88749500D01*
X127730252Y-88749500D01*
X127730247Y-88749500D01*
X127671770Y-88761131D01*
X127671769Y-88761132D01*
X127605447Y-88805447D01*
X127561132Y-88871769D01*
X127561131Y-88871770D01*
X127549500Y-88930247D01*
X127549500Y-89000500D01*
X127529815Y-89067539D01*
X127477011Y-89113294D01*
X127425500Y-89124500D01*
X118951190Y-89124500D01*
X118884151Y-89104815D01*
X118863509Y-89088181D01*
X118120585Y-88345257D01*
X118087100Y-88283934D01*
X118085327Y-88241393D01*
X118090500Y-88202103D01*
X118090499Y-86797898D01*
X118090497Y-86797886D01*
X118087236Y-86773109D01*
X118084019Y-86748670D01*
X118033644Y-86640641D01*
X117949359Y-86556356D01*
X117841330Y-86505981D01*
X117841328Y-86505980D01*
X117792113Y-86499501D01*
X117792108Y-86499500D01*
X117792103Y-86499500D01*
X117792096Y-86499500D01*
X117437895Y-86499500D01*
X117388674Y-86505980D01*
X117388666Y-86505982D01*
X117280640Y-86556356D01*
X117196356Y-86640640D01*
X117145980Y-86748671D01*
X117139501Y-86797886D01*
X117139500Y-86797903D01*
X117139500Y-88202104D01*
X117145980Y-88251325D01*
X117145982Y-88251333D01*
X117168771Y-88300203D01*
X117196356Y-88359359D01*
X117280641Y-88443644D01*
X117301912Y-88453563D01*
X117348300Y-88494408D01*
X117349591Y-88493418D01*
X117354536Y-88499863D01*
X117967968Y-89113294D01*
X118565139Y-89710465D01*
X118639362Y-89753318D01*
X118722148Y-89775500D01*
X127425500Y-89775500D01*
X127492539Y-89795185D01*
X127538294Y-89847989D01*
X127547709Y-89878500D01*
X127549500Y-89888922D01*
X127549500Y-89969748D01*
X127561133Y-90028231D01*
X127577698Y-90053021D01*
X127582162Y-90079000D01*
X127581050Y-90088584D01*
X127583933Y-90097791D01*
X127577092Y-90122721D01*
X127574115Y-90148405D01*
X127567998Y-90155866D01*
X127565446Y-90165171D01*
X127563058Y-90168887D01*
X127561132Y-90171768D01*
X127561131Y-90171770D01*
X127549500Y-90230247D01*
X127549500Y-91269747D01*
X127561481Y-91329984D01*
X127555252Y-91399576D01*
X127512389Y-91454752D01*
X127446499Y-91477996D01*
X127378502Y-91461927D01*
X127352182Y-91441855D01*
X127198864Y-91288537D01*
X127198862Y-91288535D01*
X127161750Y-91267108D01*
X127124640Y-91245682D01*
X127083246Y-91234591D01*
X127041853Y-91223500D01*
X116768854Y-91223500D01*
X116683148Y-91223500D01*
X116600360Y-91245682D01*
X116526139Y-91288535D01*
X116526136Y-91288537D01*
X114814537Y-93000136D01*
X114809585Y-93006590D01*
X114807515Y-93005001D01*
X114766303Y-93044282D01*
X114761915Y-93046435D01*
X114740640Y-93056356D01*
X114656355Y-93140642D01*
X114605980Y-93248671D01*
X114599501Y-93297886D01*
X114599500Y-93297903D01*
X114599500Y-94702104D01*
X114605980Y-94751325D01*
X114605982Y-94751333D01*
X114646046Y-94837250D01*
X114656356Y-94859359D01*
X114740641Y-94943644D01*
X114848670Y-94994019D01*
X114897897Y-95000500D01*
X115252102Y-95000499D01*
X115252104Y-95000499D01*
X115266167Y-94998647D01*
X115301330Y-94994019D01*
X115409359Y-94943644D01*
X115493644Y-94859359D01*
X115544019Y-94751330D01*
X115550500Y-94702103D01*
X115550499Y-93297898D01*
X115550497Y-93297886D01*
X115545327Y-93258605D01*
X115545914Y-93254839D01*
X115544582Y-93251268D01*
X115551256Y-93220584D01*
X115556094Y-93189570D01*
X115558859Y-93185637D01*
X115559434Y-93182995D01*
X115580581Y-93154745D01*
X115718886Y-93016440D01*
X115780207Y-92982957D01*
X115849899Y-92987941D01*
X115905832Y-93029813D01*
X115930249Y-93095277D01*
X115918948Y-93156527D01*
X115875980Y-93248673D01*
X115869501Y-93297886D01*
X115869500Y-93297903D01*
X115869500Y-94702104D01*
X115875980Y-94751325D01*
X115875982Y-94751333D01*
X115916046Y-94837250D01*
X115926356Y-94859359D01*
X116010641Y-94943644D01*
X116118670Y-94994019D01*
X116167897Y-95000500D01*
X116522102Y-95000499D01*
X116522104Y-95000499D01*
X116536167Y-94998647D01*
X116571330Y-94994019D01*
X116679359Y-94943644D01*
X116763644Y-94859359D01*
X116814019Y-94751330D01*
X116820500Y-94702103D01*
X116820499Y-93297898D01*
X116820497Y-93297886D01*
X116815327Y-93258605D01*
X116815914Y-93254839D01*
X116814582Y-93251268D01*
X116821256Y-93220584D01*
X116826094Y-93189570D01*
X116828859Y-93185637D01*
X116829434Y-93182995D01*
X116850582Y-93154744D01*
X116988886Y-93016440D01*
X117050207Y-92982957D01*
X117119899Y-92987941D01*
X117150582Y-93010910D01*
X117125427Y-92972442D01*
X117124873Y-92902575D01*
X117156440Y-92848886D01*
X117643508Y-92361819D01*
X117704831Y-92328334D01*
X117731189Y-92325500D01*
X122813811Y-92325500D01*
X122880850Y-92345185D01*
X122901492Y-92361819D01*
X125638181Y-95098507D01*
X125671666Y-95159830D01*
X125674500Y-95186188D01*
X125674500Y-96125500D01*
X125654815Y-96192539D01*
X125602011Y-96238294D01*
X125550500Y-96249500D01*
X125441739Y-96249500D01*
X125373608Y-96259426D01*
X125268514Y-96310803D01*
X125185803Y-96393514D01*
X125134426Y-96498608D01*
X125124500Y-96566739D01*
X125124500Y-96933260D01*
X125134426Y-97001391D01*
X125185803Y-97106485D01*
X125268514Y-97189196D01*
X125268515Y-97189196D01*
X125268517Y-97189198D01*
X125373607Y-97240573D01*
X125407673Y-97245536D01*
X125441739Y-97250500D01*
X125441740Y-97250500D01*
X125550500Y-97250500D01*
X125617539Y-97270185D01*
X125663294Y-97322989D01*
X125674500Y-97374500D01*
X125674500Y-101630352D01*
X125696682Y-101713140D01*
X125718108Y-101750250D01*
X125739535Y-101787362D01*
X125739537Y-101787364D01*
X126487307Y-102535134D01*
X126520792Y-102596457D01*
X126515808Y-102666149D01*
X126473936Y-102722082D01*
X126408472Y-102746499D01*
X126401059Y-102746807D01*
X118065933Y-102843167D01*
X117998671Y-102824258D01*
X117952309Y-102771987D01*
X117940500Y-102719175D01*
X117940500Y-97970730D01*
X119349500Y-97970730D01*
X119349500Y-99029269D01*
X119352353Y-99059699D01*
X119352353Y-99059701D01*
X119397206Y-99187880D01*
X119397207Y-99187882D01*
X119477850Y-99297150D01*
X119587118Y-99377793D01*
X119629845Y-99392744D01*
X119715299Y-99422646D01*
X119745730Y-99425500D01*
X119745734Y-99425500D01*
X120354270Y-99425500D01*
X120384699Y-99422646D01*
X120384701Y-99422646D01*
X120448790Y-99400219D01*
X120512882Y-99377793D01*
X120622150Y-99297150D01*
X120702793Y-99187882D01*
X120725219Y-99123790D01*
X120747646Y-99059701D01*
X120747646Y-99059699D01*
X120750500Y-99029269D01*
X120750500Y-97970730D01*
X120747646Y-97940300D01*
X120747646Y-97940298D01*
X120714006Y-97844163D01*
X120702793Y-97812118D01*
X120622150Y-97702850D01*
X120530865Y-97635479D01*
X120488616Y-97579833D01*
X120480500Y-97535710D01*
X120480500Y-95003865D01*
X120500185Y-94936826D01*
X120516819Y-94916184D01*
X120573644Y-94859359D01*
X120624019Y-94751330D01*
X120630500Y-94702103D01*
X120630499Y-93297903D01*
X120949500Y-93297903D01*
X120949500Y-94702104D01*
X120955980Y-94751325D01*
X120955982Y-94751333D01*
X121006356Y-94859359D01*
X121063181Y-94916184D01*
X121096666Y-94977507D01*
X121099500Y-95003865D01*
X121099500Y-98017852D01*
X121121682Y-98100640D01*
X121143108Y-98137750D01*
X121164535Y-98174862D01*
X121164537Y-98174864D01*
X121213181Y-98223508D01*
X121246666Y-98284831D01*
X121249500Y-98311189D01*
X121249500Y-99029269D01*
X121252353Y-99059699D01*
X121252353Y-99059701D01*
X121297206Y-99187880D01*
X121297207Y-99187882D01*
X121377850Y-99297150D01*
X121487118Y-99377793D01*
X121529845Y-99392744D01*
X121615299Y-99422646D01*
X121645730Y-99425500D01*
X121645734Y-99425500D01*
X122254270Y-99425500D01*
X122284699Y-99422646D01*
X122284701Y-99422646D01*
X122348790Y-99400219D01*
X122412882Y-99377793D01*
X122522150Y-99297150D01*
X122602793Y-99187882D01*
X122625219Y-99123790D01*
X122647646Y-99059701D01*
X122647646Y-99059699D01*
X122650500Y-99029269D01*
X122650500Y-97970730D01*
X122647646Y-97940300D01*
X122647646Y-97940298D01*
X122614006Y-97844163D01*
X122602793Y-97812118D01*
X122522150Y-97702850D01*
X122412882Y-97622207D01*
X122412880Y-97622206D01*
X122284700Y-97577353D01*
X122254270Y-97574500D01*
X122254266Y-97574500D01*
X121874500Y-97574500D01*
X121807461Y-97554815D01*
X121761706Y-97502011D01*
X121750500Y-97450500D01*
X121750500Y-95003865D01*
X121770185Y-94936826D01*
X121786819Y-94916184D01*
X121843644Y-94859359D01*
X121894019Y-94751330D01*
X121900500Y-94702103D01*
X121900499Y-93297903D01*
X122219500Y-93297903D01*
X122219500Y-94702104D01*
X122225980Y-94751325D01*
X122225982Y-94751333D01*
X122276356Y-94859359D01*
X122333181Y-94916184D01*
X122366666Y-94977507D01*
X122369500Y-95003865D01*
X122369500Y-95624819D01*
X122352887Y-95686819D01*
X122283609Y-95806810D01*
X122283609Y-95806811D01*
X122283609Y-95806812D01*
X122283608Y-95806814D01*
X122272170Y-95849502D01*
X122249500Y-95934108D01*
X122249500Y-96065891D01*
X122283608Y-96193187D01*
X122304756Y-96229815D01*
X122349500Y-96307314D01*
X122442686Y-96400500D01*
X122556814Y-96466392D01*
X122684108Y-96500500D01*
X122684110Y-96500500D01*
X122815890Y-96500500D01*
X122815892Y-96500500D01*
X122943186Y-96466392D01*
X123057314Y-96400500D01*
X123150500Y-96307314D01*
X123216392Y-96193186D01*
X123250500Y-96065892D01*
X123250500Y-95934108D01*
X123216392Y-95806814D01*
X123150500Y-95692686D01*
X123057314Y-95599500D01*
X123057313Y-95599499D01*
X123056818Y-95599004D01*
X123023334Y-95537680D01*
X123020500Y-95511323D01*
X123020500Y-95003865D01*
X123040185Y-94936826D01*
X123056819Y-94916184D01*
X123113644Y-94859359D01*
X123164019Y-94751330D01*
X123170500Y-94702103D01*
X123170499Y-93297898D01*
X123170497Y-93297886D01*
X123167721Y-93276800D01*
X123164019Y-93248670D01*
X123113644Y-93140641D01*
X123029359Y-93056356D01*
X122921330Y-93005981D01*
X122921328Y-93005980D01*
X122872113Y-92999501D01*
X122872108Y-92999500D01*
X122872103Y-92999500D01*
X122872096Y-92999500D01*
X122517895Y-92999500D01*
X122468674Y-93005980D01*
X122468666Y-93005982D01*
X122360640Y-93056356D01*
X122276356Y-93140640D01*
X122225980Y-93248671D01*
X122219501Y-93297886D01*
X122219500Y-93297903D01*
X121900499Y-93297903D01*
X121900499Y-93297898D01*
X121900497Y-93297886D01*
X121897721Y-93276800D01*
X121894019Y-93248670D01*
X121843644Y-93140641D01*
X121759359Y-93056356D01*
X121651330Y-93005981D01*
X121651328Y-93005980D01*
X121602113Y-92999501D01*
X121602108Y-92999500D01*
X121602103Y-92999500D01*
X121602096Y-92999500D01*
X121247895Y-92999500D01*
X121198674Y-93005980D01*
X121198666Y-93005982D01*
X121090640Y-93056356D01*
X121006356Y-93140640D01*
X120955980Y-93248671D01*
X120949501Y-93297886D01*
X120949500Y-93297903D01*
X120630499Y-93297903D01*
X120630499Y-93297898D01*
X120630497Y-93297886D01*
X120627721Y-93276800D01*
X120624019Y-93248670D01*
X120573644Y-93140641D01*
X120489359Y-93056356D01*
X120381330Y-93005981D01*
X120381328Y-93005980D01*
X120332113Y-92999501D01*
X120332108Y-92999500D01*
X120332103Y-92999500D01*
X120332096Y-92999500D01*
X119977895Y-92999500D01*
X119928674Y-93005980D01*
X119928666Y-93005982D01*
X119820640Y-93056356D01*
X119736356Y-93140640D01*
X119685980Y-93248671D01*
X119679501Y-93297886D01*
X119679500Y-93297903D01*
X119679500Y-94702104D01*
X119685980Y-94751325D01*
X119685982Y-94751333D01*
X119736356Y-94859359D01*
X119793181Y-94916184D01*
X119826666Y-94977507D01*
X119829500Y-95003865D01*
X119829500Y-97453728D01*
X119809815Y-97520767D01*
X119757011Y-97566522D01*
X119722659Y-97575697D01*
X119722670Y-97575744D01*
X119721649Y-97575966D01*
X119717089Y-97577185D01*
X119715305Y-97577352D01*
X119715298Y-97577353D01*
X119587119Y-97622206D01*
X119587117Y-97622207D01*
X119477850Y-97702850D01*
X119397207Y-97812117D01*
X119397206Y-97812119D01*
X119352353Y-97940298D01*
X119352353Y-97940300D01*
X119349500Y-97970730D01*
X117940500Y-97970730D01*
X117940500Y-95003865D01*
X117960185Y-94936826D01*
X117976819Y-94916184D01*
X118033644Y-94859359D01*
X118084019Y-94751330D01*
X118090500Y-94702103D01*
X118090499Y-93297903D01*
X118409500Y-93297903D01*
X118409500Y-94702104D01*
X118415980Y-94751325D01*
X118415982Y-94751333D01*
X118466356Y-94859359D01*
X118523181Y-94916184D01*
X118556666Y-94977507D01*
X118559500Y-95003865D01*
X118559500Y-95978741D01*
X118542889Y-96040738D01*
X118533609Y-96056811D01*
X118533609Y-96056812D01*
X118533608Y-96056814D01*
X118499500Y-96184108D01*
X118499500Y-96315892D01*
X118516554Y-96379539D01*
X118533608Y-96443187D01*
X118565605Y-96498607D01*
X118599500Y-96557314D01*
X118692686Y-96650500D01*
X118806814Y-96716392D01*
X118934108Y-96750500D01*
X118934110Y-96750500D01*
X119065890Y-96750500D01*
X119065892Y-96750500D01*
X119193186Y-96716392D01*
X119307314Y-96650500D01*
X119400500Y-96557314D01*
X119466392Y-96443186D01*
X119500500Y-96315892D01*
X119500500Y-96184108D01*
X119466392Y-96056814D01*
X119400500Y-95942686D01*
X119307314Y-95849500D01*
X119307312Y-95849499D01*
X119307310Y-95849497D01*
X119272498Y-95829398D01*
X119224283Y-95778830D01*
X119210500Y-95722012D01*
X119210500Y-95003865D01*
X119230185Y-94936826D01*
X119246819Y-94916184D01*
X119303644Y-94859359D01*
X119354019Y-94751330D01*
X119360500Y-94702103D01*
X119360499Y-93297898D01*
X119360497Y-93297886D01*
X119357721Y-93276800D01*
X119354019Y-93248670D01*
X119303644Y-93140641D01*
X119219359Y-93056356D01*
X119111330Y-93005981D01*
X119111328Y-93005980D01*
X119062113Y-92999501D01*
X119062108Y-92999500D01*
X119062103Y-92999500D01*
X119062096Y-92999500D01*
X118707895Y-92999500D01*
X118658674Y-93005980D01*
X118658666Y-93005982D01*
X118550640Y-93056356D01*
X118466356Y-93140640D01*
X118415980Y-93248671D01*
X118409501Y-93297886D01*
X118409500Y-93297903D01*
X118090499Y-93297903D01*
X118090499Y-93297898D01*
X118090497Y-93297886D01*
X118087721Y-93276800D01*
X118084019Y-93248670D01*
X118033644Y-93140641D01*
X117949359Y-93056356D01*
X117841330Y-93005981D01*
X117841328Y-93005980D01*
X117792113Y-92999501D01*
X117792108Y-92999500D01*
X117792103Y-92999500D01*
X117792096Y-92999500D01*
X117437895Y-92999500D01*
X117388674Y-93005980D01*
X117388663Y-93005983D01*
X117296527Y-93048947D01*
X117227450Y-93059439D01*
X117178762Y-93037669D01*
X117200249Y-93095277D01*
X117188948Y-93156527D01*
X117145980Y-93248673D01*
X117139501Y-93297886D01*
X117139500Y-93297903D01*
X117139500Y-94702104D01*
X117145980Y-94751325D01*
X117145982Y-94751333D01*
X117196356Y-94859359D01*
X117253181Y-94916184D01*
X117286666Y-94977507D01*
X117289500Y-95003865D01*
X117289500Y-102729568D01*
X117269815Y-102796607D01*
X117217011Y-102842362D01*
X117166933Y-102853560D01*
X98701400Y-103067035D01*
X98634138Y-103048126D01*
X98587776Y-102995855D01*
X98575984Y-102940979D01*
X98736702Y-93297903D01*
X113329500Y-93297903D01*
X113329500Y-94702104D01*
X113335980Y-94751325D01*
X113335982Y-94751333D01*
X113376046Y-94837250D01*
X113386356Y-94859359D01*
X113470641Y-94943644D01*
X113578670Y-94994019D01*
X113627897Y-95000500D01*
X113982102Y-95000499D01*
X113982104Y-95000499D01*
X113996167Y-94998647D01*
X114031330Y-94994019D01*
X114139359Y-94943644D01*
X114223644Y-94859359D01*
X114274019Y-94751330D01*
X114280500Y-94702103D01*
X114280499Y-93297898D01*
X114280497Y-93297886D01*
X114277721Y-93276800D01*
X114274019Y-93248670D01*
X114223644Y-93140641D01*
X114139359Y-93056356D01*
X114031330Y-93005981D01*
X114031328Y-93005980D01*
X113982113Y-92999501D01*
X113982108Y-92999500D01*
X113982103Y-92999500D01*
X113982096Y-92999500D01*
X113627895Y-92999500D01*
X113578674Y-93005980D01*
X113578666Y-93005982D01*
X113470640Y-93056356D01*
X113386356Y-93140640D01*
X113335980Y-93248671D01*
X113329501Y-93297886D01*
X113329500Y-93297903D01*
X98736702Y-93297903D01*
X98792210Y-89967426D01*
X98813009Y-89900725D01*
X98828502Y-89881824D01*
X101110340Y-87599986D01*
X109775001Y-87599986D01*
X109785494Y-87702697D01*
X109840641Y-87869119D01*
X109840643Y-87869124D01*
X109932684Y-88018345D01*
X110056654Y-88142315D01*
X110205875Y-88234356D01*
X110205882Y-88234359D01*
X110374081Y-88290094D01*
X110431526Y-88329866D01*
X110458350Y-88394382D01*
X110446035Y-88463158D01*
X110398493Y-88514358D01*
X110376035Y-88524841D01*
X110334422Y-88539402D01*
X110312118Y-88547207D01*
X110312117Y-88547207D01*
X110312116Y-88547208D01*
X110202850Y-88627850D01*
X110122207Y-88737117D01*
X110122206Y-88737119D01*
X110077353Y-88865298D01*
X110077353Y-88865300D01*
X110074500Y-88895730D01*
X110074500Y-89504269D01*
X110077353Y-89534699D01*
X110077353Y-89534701D01*
X110122206Y-89662880D01*
X110122207Y-89662882D01*
X110202850Y-89772150D01*
X110312118Y-89852793D01*
X110385585Y-89878500D01*
X110440289Y-89897642D01*
X110440301Y-89897646D01*
X110440309Y-89897646D01*
X110441786Y-89897970D01*
X110442782Y-89898515D01*
X110447423Y-89900139D01*
X110447154Y-89900906D01*
X110503083Y-89931502D01*
X110536521Y-89992851D01*
X110535110Y-90051209D01*
X110533608Y-90056813D01*
X110533608Y-90056814D01*
X110507067Y-90155866D01*
X110499500Y-90184108D01*
X110499500Y-90315891D01*
X110533608Y-90443187D01*
X110537462Y-90449862D01*
X110599500Y-90557314D01*
X110692686Y-90650500D01*
X110806814Y-90716392D01*
X110934108Y-90750500D01*
X110934110Y-90750500D01*
X111065890Y-90750500D01*
X111065892Y-90750500D01*
X111193186Y-90716392D01*
X111307314Y-90650500D01*
X111400500Y-90557314D01*
X111466392Y-90443186D01*
X111500500Y-90315892D01*
X111500500Y-90184108D01*
X111466392Y-90056814D01*
X111466389Y-90056809D01*
X111464889Y-90051210D01*
X111466552Y-89981360D01*
X111505714Y-89923497D01*
X111552748Y-89900627D01*
X111552577Y-89900139D01*
X111556772Y-89898670D01*
X111558216Y-89897969D01*
X111559687Y-89897647D01*
X111559699Y-89897646D01*
X111559709Y-89897642D01*
X111559711Y-89897642D01*
X111614415Y-89878500D01*
X111687882Y-89852793D01*
X111797150Y-89772150D01*
X111877793Y-89662882D01*
X111900219Y-89598790D01*
X111922646Y-89534701D01*
X111922646Y-89534699D01*
X111925500Y-89504269D01*
X111925500Y-88895730D01*
X111922646Y-88865300D01*
X111922646Y-88865298D01*
X111889006Y-88769163D01*
X111877793Y-88737118D01*
X111797150Y-88627850D01*
X111687882Y-88547207D01*
X111687880Y-88547206D01*
X111623967Y-88524842D01*
X111567191Y-88484120D01*
X111541444Y-88419168D01*
X111554901Y-88350606D01*
X111603288Y-88300203D01*
X111625918Y-88290095D01*
X111794119Y-88234358D01*
X111794124Y-88234356D01*
X111806223Y-88226893D01*
X113030001Y-88226893D01*
X113032844Y-88263021D01*
X113077779Y-88417689D01*
X113077780Y-88417692D01*
X113159770Y-88556331D01*
X113159776Y-88556339D01*
X113273660Y-88670223D01*
X113273668Y-88670229D01*
X113412305Y-88752218D01*
X113555000Y-88793674D01*
X113555000Y-87750000D01*
X113030001Y-87750000D01*
X113030001Y-88226893D01*
X111806223Y-88226893D01*
X111943345Y-88142315D01*
X112067315Y-88018345D01*
X112159356Y-87869124D01*
X112159358Y-87869119D01*
X112214505Y-87702697D01*
X112214506Y-87702689D01*
X112216208Y-87686036D01*
X112216208Y-87686035D01*
X112224999Y-87599986D01*
X112225000Y-87599973D01*
X112225000Y-87550000D01*
X109775001Y-87550000D01*
X109775001Y-87599986D01*
X101110340Y-87599986D01*
X101710313Y-87000013D01*
X109775000Y-87000013D01*
X109775000Y-87050000D01*
X110750000Y-87050000D01*
X111250000Y-87050000D01*
X112224999Y-87050000D01*
X112224999Y-87000028D01*
X112224998Y-87000013D01*
X112214506Y-86897304D01*
X112185472Y-86809687D01*
X112185471Y-86809685D01*
X112173351Y-86773109D01*
X113030000Y-86773109D01*
X113030000Y-87250000D01*
X113555000Y-87250000D01*
X113555000Y-86206324D01*
X114055000Y-86206324D01*
X114055000Y-88793673D01*
X114197694Y-88752218D01*
X114197695Y-88752218D01*
X114336331Y-88670229D01*
X114336339Y-88670223D01*
X114450223Y-88556339D01*
X114450228Y-88556333D01*
X114518653Y-88440631D01*
X114569722Y-88392947D01*
X114638464Y-88380443D01*
X114703053Y-88407088D01*
X114713067Y-88416070D01*
X114740641Y-88443644D01*
X114848670Y-88494019D01*
X114897897Y-88500500D01*
X115252102Y-88500499D01*
X115252104Y-88500499D01*
X115266167Y-88498647D01*
X115301330Y-88494019D01*
X115409359Y-88443644D01*
X115493644Y-88359359D01*
X115544019Y-88251330D01*
X115550500Y-88202103D01*
X115550499Y-86797898D01*
X115550497Y-86797886D01*
X115547236Y-86773109D01*
X115544019Y-86748670D01*
X115493644Y-86640641D01*
X115409359Y-86556356D01*
X115301330Y-86505981D01*
X115301328Y-86505980D01*
X115252113Y-86499501D01*
X115252108Y-86499500D01*
X115252103Y-86499500D01*
X115252096Y-86499500D01*
X114897895Y-86499500D01*
X114848674Y-86505980D01*
X114848666Y-86505982D01*
X114740640Y-86556356D01*
X114713066Y-86583930D01*
X114651742Y-86617415D01*
X114582051Y-86612429D01*
X114526118Y-86570557D01*
X114518654Y-86559369D01*
X114450229Y-86443668D01*
X114450223Y-86443660D01*
X114336339Y-86329776D01*
X114336331Y-86329770D01*
X114197692Y-86247780D01*
X114197689Y-86247778D01*
X114055001Y-86206323D01*
X114055000Y-86206324D01*
X113555000Y-86206324D01*
X113554998Y-86206323D01*
X113412310Y-86247778D01*
X113412307Y-86247780D01*
X113273668Y-86329770D01*
X113273660Y-86329776D01*
X113159776Y-86443660D01*
X113159770Y-86443668D01*
X113077780Y-86582307D01*
X113077779Y-86582310D01*
X113032844Y-86736975D01*
X113032843Y-86736981D01*
X113030000Y-86773109D01*
X112173351Y-86773109D01*
X112159358Y-86730880D01*
X112159356Y-86730875D01*
X112067315Y-86581654D01*
X111943345Y-86457684D01*
X111794124Y-86365643D01*
X111794119Y-86365641D01*
X111627697Y-86310494D01*
X111627690Y-86310493D01*
X111524986Y-86300000D01*
X111250000Y-86300000D01*
X111250000Y-87050000D01*
X110750000Y-87050000D01*
X110750000Y-86300000D01*
X110475029Y-86300000D01*
X110475012Y-86300001D01*
X110372302Y-86310494D01*
X110205880Y-86365641D01*
X110205875Y-86365643D01*
X110056654Y-86457684D01*
X109932684Y-86581654D01*
X109840643Y-86730875D01*
X109840641Y-86730880D01*
X109785494Y-86897302D01*
X109785493Y-86897309D01*
X109775000Y-87000013D01*
X101710313Y-87000013D01*
X105748508Y-82961819D01*
X105809831Y-82928334D01*
X105836189Y-82925500D01*
X106354270Y-82925500D01*
X106384699Y-82922646D01*
X106384701Y-82922646D01*
X106448790Y-82900219D01*
X106512882Y-82877793D01*
X106622150Y-82797150D01*
X106702793Y-82687882D01*
X106732394Y-82603287D01*
X106747646Y-82559701D01*
X106747646Y-82559699D01*
X106750500Y-82529269D01*
X106750500Y-81470730D01*
X107249500Y-81470730D01*
X107249500Y-82529269D01*
X107252353Y-82559699D01*
X107252353Y-82559701D01*
X107292524Y-82674500D01*
X107297207Y-82687882D01*
X107377850Y-82797150D01*
X107487118Y-82877793D01*
X107529845Y-82892744D01*
X107615299Y-82922646D01*
X107645730Y-82925500D01*
X107645734Y-82925500D01*
X108254270Y-82925500D01*
X108284699Y-82922646D01*
X108284701Y-82922646D01*
X108348790Y-82900219D01*
X108412882Y-82877793D01*
X108522150Y-82797150D01*
X108602793Y-82687882D01*
X108632394Y-82603287D01*
X108647646Y-82559701D01*
X108647646Y-82559699D01*
X108650500Y-82529269D01*
X108650500Y-82449500D01*
X108653050Y-82440814D01*
X108651762Y-82431853D01*
X108662740Y-82407812D01*
X108670185Y-82382461D01*
X108677025Y-82376533D01*
X108680787Y-82368297D01*
X108703021Y-82354007D01*
X108722989Y-82336706D01*
X108733503Y-82334418D01*
X108739565Y-82330523D01*
X108774500Y-82325500D01*
X108816324Y-82325500D01*
X108883363Y-82345185D01*
X108904005Y-82361819D01*
X108942686Y-82400500D01*
X109038553Y-82455849D01*
X109054922Y-82465300D01*
X109056814Y-82466392D01*
X109184108Y-82500500D01*
X109184110Y-82500500D01*
X109315889Y-82500500D01*
X109315892Y-82500500D01*
X109443186Y-82466392D01*
X109443191Y-82466388D01*
X109448789Y-82464889D01*
X109518639Y-82466552D01*
X109576501Y-82505714D01*
X109599373Y-82552747D01*
X109599861Y-82552577D01*
X109601323Y-82556756D01*
X109602027Y-82558203D01*
X109602354Y-82559703D01*
X109642524Y-82674500D01*
X109647207Y-82687882D01*
X109727850Y-82797150D01*
X109837118Y-82877793D01*
X109879845Y-82892744D01*
X109965299Y-82922646D01*
X109995730Y-82925500D01*
X109995734Y-82925500D01*
X110604270Y-82925500D01*
X110634699Y-82922646D01*
X110634701Y-82922646D01*
X110698790Y-82900219D01*
X110762882Y-82877793D01*
X110872150Y-82797150D01*
X110952793Y-82687882D01*
X110975158Y-82623964D01*
X111015877Y-82567192D01*
X111080830Y-82541444D01*
X111149392Y-82554900D01*
X111199795Y-82603287D01*
X111209904Y-82625917D01*
X111265642Y-82794121D01*
X111265643Y-82794124D01*
X111357684Y-82943345D01*
X111481654Y-83067315D01*
X111630875Y-83159356D01*
X111630880Y-83159358D01*
X111797302Y-83214505D01*
X111797309Y-83214506D01*
X111900019Y-83224999D01*
X112450000Y-83224999D01*
X112499972Y-83224999D01*
X112499986Y-83224998D01*
X112602697Y-83214505D01*
X112769119Y-83159358D01*
X112769124Y-83159356D01*
X112918345Y-83067315D01*
X113042315Y-82943345D01*
X113134356Y-82794124D01*
X113134358Y-82794119D01*
X113189505Y-82627697D01*
X113189506Y-82627690D01*
X113199999Y-82524986D01*
X113200000Y-82524973D01*
X113200000Y-82250000D01*
X112450000Y-82250000D01*
X112450000Y-83224999D01*
X111900019Y-83224999D01*
X111949999Y-83224998D01*
X111950000Y-83224998D01*
X111950000Y-81750000D01*
X112450000Y-81750000D01*
X113199999Y-81750000D01*
X113199999Y-81475028D01*
X113199998Y-81475013D01*
X113189505Y-81372302D01*
X113134358Y-81205880D01*
X113134356Y-81205875D01*
X113042315Y-81056654D01*
X112918345Y-80932684D01*
X112769124Y-80840643D01*
X112769119Y-80840641D01*
X112602697Y-80785494D01*
X112602690Y-80785493D01*
X112499986Y-80775000D01*
X112450000Y-80775000D01*
X112450000Y-81750000D01*
X111950000Y-81750000D01*
X111950000Y-80775000D01*
X111949999Y-80774999D01*
X111900029Y-80775000D01*
X111900011Y-80775001D01*
X111797302Y-80785494D01*
X111630880Y-80840641D01*
X111630875Y-80840643D01*
X111481654Y-80932684D01*
X111357684Y-81056654D01*
X111265643Y-81205875D01*
X111265641Y-81205880D01*
X111209905Y-81374082D01*
X111170132Y-81431527D01*
X111105617Y-81458350D01*
X111036841Y-81446035D01*
X110985641Y-81398492D01*
X110975158Y-81376033D01*
X110952793Y-81312119D01*
X110952792Y-81312117D01*
X110941479Y-81296788D01*
X110872150Y-81202850D01*
X110762882Y-81122207D01*
X110762880Y-81122206D01*
X110634700Y-81077353D01*
X110604270Y-81074500D01*
X110604266Y-81074500D01*
X109995734Y-81074500D01*
X109995730Y-81074500D01*
X109965300Y-81077353D01*
X109965298Y-81077353D01*
X109837119Y-81122206D01*
X109837117Y-81122207D01*
X109727850Y-81202850D01*
X109647207Y-81312117D01*
X109647206Y-81312119D01*
X109602353Y-81440300D01*
X109602026Y-81441799D01*
X109601479Y-81442797D01*
X109599861Y-81447423D01*
X109599095Y-81447155D01*
X109568488Y-81503093D01*
X109507135Y-81536524D01*
X109448790Y-81535110D01*
X109443187Y-81533608D01*
X109443186Y-81533608D01*
X109315892Y-81499500D01*
X109184108Y-81499500D01*
X109056812Y-81533608D01*
X108942686Y-81599500D01*
X108942683Y-81599502D01*
X108904005Y-81638181D01*
X108877077Y-81652884D01*
X108851259Y-81669477D01*
X108845058Y-81670368D01*
X108842682Y-81671666D01*
X108816324Y-81674500D01*
X108774500Y-81674500D01*
X108707461Y-81654815D01*
X108661706Y-81602011D01*
X108650500Y-81550500D01*
X108650500Y-81470730D01*
X108647646Y-81440300D01*
X108647646Y-81440298D01*
X108602793Y-81312119D01*
X108602792Y-81312117D01*
X108591479Y-81296788D01*
X108522150Y-81202850D01*
X108412882Y-81122207D01*
X108412880Y-81122206D01*
X108284700Y-81077353D01*
X108254270Y-81074500D01*
X108254266Y-81074500D01*
X107645734Y-81074500D01*
X107645730Y-81074500D01*
X107615300Y-81077353D01*
X107615298Y-81077353D01*
X107487119Y-81122206D01*
X107487117Y-81122207D01*
X107377850Y-81202850D01*
X107297207Y-81312117D01*
X107297206Y-81312119D01*
X107252353Y-81440298D01*
X107252353Y-81440300D01*
X107249500Y-81470730D01*
X106750500Y-81470730D01*
X106747646Y-81440300D01*
X106747646Y-81440298D01*
X106702793Y-81312119D01*
X106702792Y-81312117D01*
X106691479Y-81296788D01*
X106622150Y-81202850D01*
X106512882Y-81122207D01*
X106512879Y-81122206D01*
X106458544Y-81103193D01*
X106401768Y-81062471D01*
X106376022Y-80997518D01*
X106375500Y-80986152D01*
X106375500Y-80174500D01*
X106395185Y-80107461D01*
X106447989Y-80061706D01*
X106499500Y-80050500D01*
X107162713Y-80050500D01*
X107162720Y-80050500D01*
X107275236Y-80035687D01*
X107415233Y-79977698D01*
X107535451Y-79885451D01*
X107627698Y-79765233D01*
X107685687Y-79625236D01*
X107700500Y-79512720D01*
X107700500Y-78687280D01*
X107685687Y-78574764D01*
X107627698Y-78434767D01*
X107535451Y-78314549D01*
X107461755Y-78258000D01*
X111300000Y-78258000D01*
X111310608Y-78377325D01*
X111310609Y-78377328D01*
X111366557Y-78572861D01*
X111460721Y-78753129D01*
X111589246Y-78910753D01*
X111746870Y-79039278D01*
X111927138Y-79133442D01*
X112122671Y-79189390D01*
X112122674Y-79189391D01*
X112241999Y-79199999D01*
X112242002Y-79200000D01*
X112550000Y-79200000D01*
X113050000Y-79200000D01*
X113357998Y-79200000D01*
X113358000Y-79199999D01*
X113477325Y-79189391D01*
X113477328Y-79189390D01*
X113672861Y-79133442D01*
X113853129Y-79039278D01*
X114010753Y-78910753D01*
X114139278Y-78753129D01*
X114233442Y-78572861D01*
X114289390Y-78377328D01*
X114289391Y-78377325D01*
X114299999Y-78258000D01*
X114300000Y-78257998D01*
X114300000Y-77050000D01*
X113050000Y-77050000D01*
X113050000Y-79200000D01*
X112550000Y-79200000D01*
X112550000Y-77050000D01*
X111300000Y-77050000D01*
X111300000Y-78258000D01*
X107461755Y-78258000D01*
X107415233Y-78222302D01*
X107415230Y-78222301D01*
X107408785Y-78217355D01*
X107409651Y-78216225D01*
X107367490Y-78172007D01*
X107354268Y-78103399D01*
X107380236Y-78038535D01*
X107422612Y-78004100D01*
X107599022Y-77916609D01*
X107599025Y-77916607D01*
X107747366Y-77797367D01*
X107747367Y-77797366D01*
X107866607Y-77649025D01*
X107866609Y-77649022D01*
X107951168Y-77478523D01*
X107997102Y-77293824D01*
X108000000Y-77251096D01*
X108000000Y-77050000D01*
X105000000Y-77050000D01*
X105000000Y-77251096D01*
X105002897Y-77293824D01*
X105048831Y-77478523D01*
X105133390Y-77649022D01*
X105133392Y-77649025D01*
X105252632Y-77797366D01*
X105252633Y-77797367D01*
X105400974Y-77916607D01*
X105400977Y-77916609D01*
X105577387Y-78004100D01*
X105628700Y-78051521D01*
X105646229Y-78119156D01*
X105624410Y-78185531D01*
X105590689Y-78216670D01*
X105591215Y-78217355D01*
X105584769Y-78222301D01*
X105584767Y-78222302D01*
X105464549Y-78314549D01*
X105403955Y-78393517D01*
X105372300Y-78434770D01*
X105314313Y-78574763D01*
X105314313Y-78574764D01*
X105299500Y-78687272D01*
X105299500Y-79512727D01*
X105308009Y-79577353D01*
X105314313Y-79625236D01*
X105372302Y-79765233D01*
X105464549Y-79885451D01*
X105584767Y-79977698D01*
X105584768Y-79977698D01*
X105584769Y-79977699D01*
X105647952Y-80003870D01*
X105702356Y-80047710D01*
X105724421Y-80114005D01*
X105724500Y-80118431D01*
X105724500Y-80986152D01*
X105704815Y-81053191D01*
X105652011Y-81098946D01*
X105641456Y-81103193D01*
X105587117Y-81122207D01*
X105477850Y-81202850D01*
X105397207Y-81312117D01*
X105397206Y-81312119D01*
X105352353Y-81440298D01*
X105352353Y-81440300D01*
X105349500Y-81470730D01*
X105349500Y-82388810D01*
X105329815Y-82455849D01*
X105313181Y-82476491D01*
X99025422Y-88764249D01*
X98964099Y-88797734D01*
X98894407Y-88792750D01*
X98838474Y-88750878D01*
X98814057Y-88685414D01*
X98813758Y-88674529D01*
X99019186Y-76348903D01*
X105000000Y-76348903D01*
X105000000Y-76550000D01*
X108000000Y-76550000D01*
X108000000Y-76348903D01*
X107997102Y-76306175D01*
X107951168Y-76121476D01*
X107866609Y-75950977D01*
X107866607Y-75950974D01*
X107747367Y-75802633D01*
X107747366Y-75802632D01*
X107599025Y-75683392D01*
X107422611Y-75595899D01*
X107371299Y-75548478D01*
X107353770Y-75480843D01*
X107375589Y-75414468D01*
X107409311Y-75383331D01*
X107408785Y-75382645D01*
X107415230Y-75377698D01*
X107415233Y-75377698D01*
X107461757Y-75341999D01*
X111300000Y-75341999D01*
X111300000Y-76550000D01*
X112550000Y-76550000D01*
X113050000Y-76550000D01*
X114300000Y-76550000D01*
X114300000Y-75342002D01*
X114299999Y-75341999D01*
X114289391Y-75222674D01*
X114289390Y-75222671D01*
X114233442Y-75027138D01*
X114139278Y-74846870D01*
X114010753Y-74689246D01*
X113853129Y-74560721D01*
X113672861Y-74466557D01*
X113477328Y-74410609D01*
X113477325Y-74410608D01*
X113358000Y-74400000D01*
X113050000Y-74400000D01*
X113050000Y-76550000D01*
X112550000Y-76550000D01*
X112550000Y-74400000D01*
X112241999Y-74400000D01*
X112122674Y-74410608D01*
X112122671Y-74410609D01*
X111927138Y-74466557D01*
X111746870Y-74560721D01*
X111589246Y-74689246D01*
X111460721Y-74846870D01*
X111366557Y-75027138D01*
X111310609Y-75222671D01*
X111310608Y-75222674D01*
X111300000Y-75341999D01*
X107461757Y-75341999D01*
X107535451Y-75285451D01*
X107627698Y-75165233D01*
X107685687Y-75025236D01*
X107697789Y-74933314D01*
X107698099Y-74932612D01*
X107697990Y-74931853D01*
X107712218Y-74900695D01*
X107726056Y-74869418D01*
X107726695Y-74868995D01*
X107727015Y-74868297D01*
X107755826Y-74849781D01*
X107784380Y-74830947D01*
X107785362Y-74830799D01*
X107785793Y-74830523D01*
X107820728Y-74825500D01*
X107906926Y-74825500D01*
X107973965Y-74845185D01*
X108019720Y-74897989D01*
X108026701Y-74917407D01*
X108033608Y-74943187D01*
X108066554Y-75000250D01*
X108099500Y-75057314D01*
X108192686Y-75150500D01*
X108306814Y-75216392D01*
X108434108Y-75250500D01*
X108434110Y-75250500D01*
X108565890Y-75250500D01*
X108565892Y-75250500D01*
X108693186Y-75216392D01*
X108807314Y-75150500D01*
X108900500Y-75057314D01*
X108966392Y-74943186D01*
X109000500Y-74815892D01*
X109000500Y-74684108D01*
X108966392Y-74556814D01*
X108900500Y-74442686D01*
X108807314Y-74349500D01*
X108750250Y-74316554D01*
X108693187Y-74283608D01*
X108629539Y-74266554D01*
X108565892Y-74249500D01*
X108565891Y-74249500D01*
X108500348Y-74249500D01*
X108438347Y-74232887D01*
X108375640Y-74196682D01*
X108334246Y-74185591D01*
X108292853Y-74174500D01*
X108292852Y-74174500D01*
X107820728Y-74174500D01*
X107753689Y-74154815D01*
X107707934Y-74102011D01*
X107697789Y-74066686D01*
X107695374Y-74048345D01*
X107685687Y-73974764D01*
X107627698Y-73834767D01*
X107535451Y-73714549D01*
X107415233Y-73622302D01*
X107415229Y-73622300D01*
X107351801Y-73596027D01*
X107275236Y-73564313D01*
X107261171Y-73562461D01*
X107162727Y-73549500D01*
X107162720Y-73549500D01*
X105837280Y-73549500D01*
X105837272Y-73549500D01*
X105724764Y-73564313D01*
X105724763Y-73564313D01*
X105584770Y-73622300D01*
X105464549Y-73714549D01*
X105372300Y-73834770D01*
X105314313Y-73974763D01*
X105314313Y-73974764D01*
X105299500Y-74087272D01*
X105299500Y-74912727D01*
X105312461Y-75011171D01*
X105314313Y-75025236D01*
X105372302Y-75165233D01*
X105464549Y-75285451D01*
X105584767Y-75377698D01*
X105584769Y-75377698D01*
X105591215Y-75382645D01*
X105590347Y-75383775D01*
X105632507Y-75427987D01*
X105645732Y-75496594D01*
X105619766Y-75561459D01*
X105577388Y-75595899D01*
X105400974Y-75683392D01*
X105252633Y-75802632D01*
X105252632Y-75802633D01*
X105133392Y-75950974D01*
X105133390Y-75950977D01*
X105048831Y-76121476D01*
X105002897Y-76306175D01*
X105000000Y-76348903D01*
X99019186Y-76348903D01*
X99065843Y-73549500D01*
X99072969Y-73121934D01*
X99093768Y-73055231D01*
X99147327Y-73010363D01*
X99196952Y-73000000D01*
X118590500Y-73000000D01*
X118657539Y-73019685D01*
G37*
%TD.AperFunction*%
%TD*%
%TA.AperFunction,Conductor*%
%TO.N,PGND*%
G36*
X116193039Y-123269685D02*
G01*
X116238794Y-123322489D01*
X116250000Y-123374000D01*
X116250000Y-125626000D01*
X116230315Y-125693039D01*
X116177511Y-125738794D01*
X116126000Y-125750000D01*
X115374000Y-125750000D01*
X115365314Y-125747449D01*
X115356353Y-125748738D01*
X115332312Y-125737759D01*
X115306961Y-125730315D01*
X115301033Y-125723474D01*
X115292797Y-125719713D01*
X115278507Y-125697478D01*
X115261206Y-125677511D01*
X115258918Y-125666996D01*
X115255023Y-125660935D01*
X115250000Y-125626000D01*
X115250000Y-125520123D01*
X115256363Y-125480911D01*
X115500000Y-124750000D01*
X115500000Y-123374000D01*
X115519685Y-123306961D01*
X115572489Y-123261206D01*
X115624000Y-123250000D01*
X116126000Y-123250000D01*
X116193039Y-123269685D01*
G37*
%TD.AperFunction*%
%TD*%
%TA.AperFunction,Conductor*%
%TO.N,Net-(D3-K)*%
G36*
X125193039Y-162794685D02*
G01*
X125238794Y-162847489D01*
X125250000Y-162899000D01*
X125250000Y-164901000D01*
X125230315Y-164968039D01*
X125177511Y-165013794D01*
X125126000Y-165025000D01*
X91874000Y-165025000D01*
X91806961Y-165005315D01*
X91761206Y-164952511D01*
X91750000Y-164901000D01*
X91750000Y-162899000D01*
X91769685Y-162831961D01*
X91822489Y-162786206D01*
X91874000Y-162775000D01*
X125126000Y-162775000D01*
X125193039Y-162794685D01*
G37*
%TD.AperFunction*%
%TD*%
%TA.AperFunction,Conductor*%
%TO.N,Net-(Q1-G)*%
G36*
X118443039Y-129019685D02*
G01*
X118488794Y-129072489D01*
X118500000Y-129124000D01*
X118500000Y-132376000D01*
X118480315Y-132443039D01*
X118427511Y-132488794D01*
X118376000Y-132500000D01*
X113500000Y-132500000D01*
X113500000Y-138126000D01*
X113480315Y-138193039D01*
X113427511Y-138238794D01*
X113376000Y-138250000D01*
X111374000Y-138250000D01*
X111306961Y-138230315D01*
X111261206Y-138177511D01*
X111250000Y-138126000D01*
X111250000Y-129124000D01*
X111269685Y-129056961D01*
X111322489Y-129011206D01*
X111374000Y-129000000D01*
X118376000Y-129000000D01*
X118443039Y-129019685D01*
G37*
%TD.AperFunction*%
%TD*%
%TA.AperFunction,Conductor*%
%TO.N,VDD*%
G36*
X117742714Y-121800500D02*
G01*
X117757147Y-121800500D01*
X118499138Y-121800500D01*
X118566177Y-121820185D01*
X118586819Y-121836819D01*
X120000000Y-123250000D01*
X120694534Y-123250000D01*
X120761573Y-123269685D01*
X120768166Y-123274228D01*
X120874618Y-123352793D01*
X120917345Y-123367744D01*
X121002799Y-123397646D01*
X121033230Y-123400500D01*
X121033234Y-123400500D01*
X121666770Y-123400500D01*
X121697199Y-123397646D01*
X121697201Y-123397646D01*
X121766990Y-123373225D01*
X121825382Y-123352793D01*
X121931833Y-123274228D01*
X121952247Y-123266772D01*
X121970531Y-123255023D01*
X121993434Y-123251729D01*
X121997462Y-123250259D01*
X122005466Y-123250000D01*
X122076772Y-123250000D01*
X122143811Y-123269685D01*
X122189566Y-123322489D01*
X122200770Y-123373225D01*
X122249219Y-131125225D01*
X122229953Y-131192386D01*
X122177436Y-131238470D01*
X122125221Y-131250000D01*
X118874000Y-131250000D01*
X118806961Y-131230315D01*
X118761206Y-131177511D01*
X118750000Y-131126000D01*
X118750000Y-124500000D01*
X117336819Y-123086819D01*
X117303334Y-123025496D01*
X117300500Y-122999138D01*
X117300500Y-121923908D01*
X117320185Y-121856869D01*
X117372989Y-121811114D01*
X117430507Y-121801531D01*
X117430507Y-121800500D01*
X117436598Y-121800499D01*
X117436599Y-121800500D01*
X117742704Y-121800499D01*
X117742714Y-121800500D01*
G37*
%TD.AperFunction*%
%TD*%
%TA.AperFunction,Conductor*%
%TO.N,Net-(J5-Pin_1)*%
G36*
X70443039Y-47951011D02*
G01*
X70488794Y-48003815D01*
X70500000Y-48055326D01*
X70500000Y-69057326D01*
X70480315Y-69124365D01*
X70427511Y-69170120D01*
X70376000Y-69181326D01*
X66874000Y-69181326D01*
X66806961Y-69161641D01*
X66761206Y-69108837D01*
X66750000Y-69057326D01*
X66750000Y-48055326D01*
X66769685Y-47988287D01*
X66822489Y-47942532D01*
X66874000Y-47931326D01*
X70376000Y-47931326D01*
X70443039Y-47951011D01*
G37*
%TD.AperFunction*%
%TD*%
%TA.AperFunction,Conductor*%
%TO.N,VEE*%
G36*
X110779495Y-121769685D02*
G01*
X110781239Y-121770826D01*
X111500000Y-122250000D01*
X112932242Y-122250000D01*
X112934108Y-122250500D01*
X113065892Y-122250500D01*
X113067758Y-122250000D01*
X113369527Y-122250000D01*
X113436566Y-122269685D01*
X113438418Y-122270898D01*
X113459883Y-122285240D01*
X113536599Y-122300500D01*
X114263400Y-122300499D01*
X114269491Y-122300499D01*
X114269491Y-122301669D01*
X114331989Y-122313521D01*
X114382701Y-122361585D01*
X114399500Y-122423907D01*
X114399500Y-122994750D01*
X114400097Y-123000813D01*
X114398313Y-123000988D01*
X114392828Y-123062169D01*
X114351758Y-123116015D01*
X114318378Y-123141003D01*
X114318363Y-123141016D01*
X111141013Y-126318365D01*
X111141012Y-126318366D01*
X111126325Y-126334716D01*
X111126313Y-126334730D01*
X111109672Y-126355380D01*
X111080128Y-126411858D01*
X111057937Y-126442060D01*
X111000000Y-126499998D01*
X111000000Y-128376000D01*
X110980315Y-128443039D01*
X110927511Y-128488794D01*
X110876000Y-128500000D01*
X109624000Y-128500000D01*
X109556961Y-128480315D01*
X109511206Y-128427511D01*
X109500000Y-128376000D01*
X109500000Y-121874000D01*
X109519685Y-121806961D01*
X109572489Y-121761206D01*
X109624000Y-121750000D01*
X110712456Y-121750000D01*
X110779495Y-121769685D01*
G37*
%TD.AperFunction*%
%TD*%
%TA.AperFunction,Conductor*%
%TO.N,Net-(J4-Pin_1)*%
G36*
X64943039Y-48019685D02*
G01*
X64988794Y-48072489D01*
X65000000Y-48124000D01*
X65000000Y-69126000D01*
X64980315Y-69193039D01*
X64927511Y-69238794D01*
X64876000Y-69250000D01*
X61374000Y-69250000D01*
X61306961Y-69230315D01*
X61261206Y-69177511D01*
X61250000Y-69126000D01*
X61250000Y-48124000D01*
X61269685Y-48056961D01*
X61322489Y-48011206D01*
X61374000Y-48000000D01*
X64876000Y-48000000D01*
X64943039Y-48019685D01*
G37*
%TD.AperFunction*%
%TD*%
%TA.AperFunction,Conductor*%
%TO.N,Net-(R7-Pad1)*%
G36*
X115193039Y-123269685D02*
G01*
X115238794Y-123322489D01*
X115250000Y-123374000D01*
X115250000Y-124422185D01*
X115249500Y-124429815D01*
X115249500Y-124570186D01*
X115250000Y-124577816D01*
X115250000Y-124729877D01*
X115243637Y-124769089D01*
X115000000Y-125500000D01*
X115000000Y-128626000D01*
X114980315Y-128693039D01*
X114927511Y-128738794D01*
X114876000Y-128750000D01*
X111374000Y-128750000D01*
X111306961Y-128730315D01*
X111261206Y-128677511D01*
X111250000Y-128626000D01*
X111250000Y-126551362D01*
X111269685Y-126484323D01*
X111286319Y-126463681D01*
X114463681Y-123286319D01*
X114525004Y-123252834D01*
X114551362Y-123250000D01*
X115126000Y-123250000D01*
X115193039Y-123269685D01*
G37*
%TD.AperFunction*%
%TD*%
%TA.AperFunction,Conductor*%
%TO.N,Net-(D5-K)*%
G36*
X63513751Y-116695985D02*
G01*
X63559506Y-116748789D01*
X63569450Y-116817947D01*
X63559095Y-116852703D01*
X63557008Y-116857177D01*
X63501860Y-117023602D01*
X63501859Y-117023609D01*
X63491366Y-117126313D01*
X63491366Y-117276300D01*
X66291365Y-117276300D01*
X66291365Y-117126328D01*
X66291364Y-117126313D01*
X66280871Y-117023602D01*
X66225723Y-116857177D01*
X66223637Y-116852703D01*
X66213146Y-116783625D01*
X66241667Y-116719842D01*
X66300145Y-116681603D01*
X66336020Y-116676300D01*
X66817366Y-116676300D01*
X66884405Y-116695985D01*
X66930160Y-116748789D01*
X66941366Y-116800300D01*
X66941366Y-118426300D01*
X70741366Y-118426300D01*
X70741366Y-116800300D01*
X70761051Y-116733261D01*
X70813855Y-116687506D01*
X70865366Y-116676300D01*
X71136938Y-116676300D01*
X71145784Y-116676616D01*
X71417156Y-116696024D01*
X71434657Y-116698541D01*
X71696169Y-116755429D01*
X71713128Y-116760408D01*
X71960579Y-116852703D01*
X71963890Y-116853938D01*
X71979982Y-116861287D01*
X72214867Y-116989544D01*
X72229741Y-116999102D01*
X72443990Y-117159488D01*
X72457360Y-117171074D01*
X72646591Y-117360305D01*
X72658177Y-117373675D01*
X72818559Y-117587919D01*
X72828124Y-117602803D01*
X72956377Y-117837682D01*
X72963727Y-117853775D01*
X73057254Y-118104529D01*
X73062238Y-118121505D01*
X73119123Y-118383002D01*
X73121641Y-118400514D01*
X73141050Y-118671881D01*
X73141366Y-118680727D01*
X73141366Y-121171872D01*
X73141050Y-121180718D01*
X73121641Y-121452085D01*
X73119123Y-121469597D01*
X73062238Y-121731094D01*
X73057254Y-121748070D01*
X72963727Y-121998824D01*
X72956377Y-122014917D01*
X72828124Y-122249796D01*
X72818559Y-122264680D01*
X72658177Y-122478924D01*
X72646591Y-122492294D01*
X72457360Y-122681525D01*
X72443990Y-122693111D01*
X72229746Y-122853493D01*
X72214862Y-122863058D01*
X71979983Y-122991311D01*
X71963890Y-122998661D01*
X71713136Y-123092188D01*
X71696160Y-123097172D01*
X71434663Y-123154057D01*
X71417151Y-123156575D01*
X71145784Y-123175984D01*
X71136938Y-123176300D01*
X65677693Y-123176300D01*
X65610654Y-123156615D01*
X65564899Y-123103811D01*
X65554955Y-123034653D01*
X65555746Y-123030221D01*
X65565087Y-122938800D01*
X64677866Y-122938800D01*
X64610827Y-122919115D01*
X64565072Y-122866311D01*
X64553866Y-122814800D01*
X64553866Y-122426300D01*
X64165366Y-122426300D01*
X64098327Y-122406615D01*
X64052572Y-122353811D01*
X64041366Y-122302300D01*
X64041366Y-122124144D01*
X66941366Y-122124144D01*
X66947767Y-122183672D01*
X66947769Y-122183679D01*
X66998011Y-122318386D01*
X66998015Y-122318393D01*
X67084175Y-122433487D01*
X67084178Y-122433490D01*
X67199272Y-122519650D01*
X67199279Y-122519654D01*
X67333986Y-122569896D01*
X67333993Y-122569898D01*
X67393521Y-122576299D01*
X67393538Y-122576300D01*
X67841366Y-122576300D01*
X69841366Y-122576300D01*
X70289194Y-122576300D01*
X70289210Y-122576299D01*
X70348738Y-122569898D01*
X70348745Y-122569896D01*
X70483452Y-122519654D01*
X70483459Y-122519650D01*
X70598553Y-122433490D01*
X70598556Y-122433487D01*
X70684716Y-122318393D01*
X70684720Y-122318386D01*
X70734962Y-122183679D01*
X70734964Y-122183672D01*
X70741365Y-122124144D01*
X70741366Y-122124127D01*
X70741366Y-120426300D01*
X69841366Y-120426300D01*
X69841366Y-122576300D01*
X67841366Y-122576300D01*
X67841366Y-120426300D01*
X66941366Y-120426300D01*
X66941366Y-122124144D01*
X64041366Y-122124144D01*
X64041366Y-121913800D01*
X65066366Y-121913800D01*
X65565086Y-121913800D01*
X65565086Y-121913799D01*
X65555871Y-121823602D01*
X65500724Y-121657180D01*
X65500722Y-121657175D01*
X65408681Y-121507954D01*
X65284711Y-121383984D01*
X65135486Y-121291941D01*
X65066366Y-121269037D01*
X65066366Y-121913800D01*
X64041366Y-121913800D01*
X64041366Y-121290309D01*
X63970240Y-121262520D01*
X63948310Y-121245568D01*
X63924500Y-121231398D01*
X63921059Y-121224502D01*
X63914961Y-121219788D01*
X63905679Y-121193675D01*
X63902629Y-121187563D01*
X63891366Y-121176300D01*
X62891366Y-121176300D01*
X61895794Y-121176300D01*
X61886948Y-121175984D01*
X61615580Y-121156575D01*
X61598068Y-121154057D01*
X61336571Y-121097172D01*
X61319595Y-121092188D01*
X61068841Y-120998661D01*
X61052748Y-120991311D01*
X60817869Y-120863058D01*
X60802985Y-120853493D01*
X60588741Y-120693111D01*
X60575371Y-120681525D01*
X60400146Y-120506300D01*
X60379867Y-120486021D01*
X60285226Y-120359595D01*
X60826366Y-120359595D01*
X60936564Y-120327581D01*
X61077918Y-120243985D01*
X61084088Y-120239200D01*
X61085912Y-120241552D01*
X61134961Y-120214745D01*
X61204654Y-120219702D01*
X61237429Y-120240765D01*
X61238644Y-120239200D01*
X61244813Y-120243985D01*
X61386167Y-120327581D01*
X61496366Y-120359596D01*
X61496366Y-120359595D01*
X62096366Y-120359595D01*
X62206564Y-120327581D01*
X62306963Y-120268206D01*
X62347919Y-120243984D01*
X62347927Y-120243978D01*
X62464044Y-120127861D01*
X62464051Y-120127852D01*
X62547648Y-119986496D01*
X62547649Y-119986493D01*
X62593465Y-119828795D01*
X62593466Y-119828789D01*
X62596365Y-119791949D01*
X62596366Y-119791934D01*
X62596366Y-119301300D01*
X62096366Y-119301300D01*
X62096366Y-120359595D01*
X61496366Y-120359595D01*
X61496366Y-119301300D01*
X60826366Y-119301300D01*
X60826366Y-120359595D01*
X60285226Y-120359595D01*
X60226366Y-120280968D01*
X60226366Y-119226286D01*
X63491367Y-119226286D01*
X63501860Y-119328997D01*
X63557007Y-119495419D01*
X63557009Y-119495424D01*
X63649050Y-119644645D01*
X63773020Y-119768615D01*
X63922247Y-119860659D01*
X63991365Y-119883562D01*
X63991366Y-119883562D01*
X65791366Y-119883562D01*
X65860484Y-119860659D01*
X66009711Y-119768615D01*
X66133681Y-119644645D01*
X66225722Y-119495424D01*
X66225724Y-119495419D01*
X66280871Y-119328997D01*
X66280872Y-119328990D01*
X66291365Y-119226286D01*
X66291366Y-119226273D01*
X66291366Y-119076300D01*
X65791366Y-119076300D01*
X65791366Y-119883562D01*
X63991366Y-119883562D01*
X63991366Y-119076300D01*
X63491367Y-119076300D01*
X63491367Y-119226286D01*
X60226366Y-119226286D01*
X60226366Y-117643002D01*
X60826366Y-117643002D01*
X60826366Y-118701300D01*
X61496366Y-118701300D01*
X61496366Y-117643002D01*
X62096366Y-117643002D01*
X62096366Y-118701300D01*
X62596366Y-118701300D01*
X62596366Y-118210665D01*
X62596365Y-118210650D01*
X62593466Y-118173810D01*
X62593465Y-118173804D01*
X62547649Y-118016106D01*
X62547648Y-118016103D01*
X62464051Y-117874747D01*
X62464044Y-117874738D01*
X62347927Y-117758621D01*
X62347918Y-117758614D01*
X62206562Y-117675017D01*
X62206559Y-117675015D01*
X62096367Y-117643001D01*
X62096366Y-117643002D01*
X61496366Y-117643002D01*
X61496364Y-117643001D01*
X61386172Y-117675015D01*
X61386169Y-117675017D01*
X61244813Y-117758614D01*
X61238644Y-117763400D01*
X61236823Y-117761053D01*
X61187724Y-117787864D01*
X61118032Y-117782880D01*
X61085296Y-117761841D01*
X61084088Y-117763400D01*
X61077918Y-117758614D01*
X60936562Y-117675017D01*
X60936559Y-117675015D01*
X60826367Y-117643001D01*
X60826366Y-117643002D01*
X60226366Y-117643002D01*
X60226366Y-117601125D01*
X60240615Y-117552596D01*
X60374557Y-117373671D01*
X60386131Y-117360314D01*
X60575378Y-117171067D01*
X60588732Y-117159495D01*
X60802996Y-116999098D01*
X60817857Y-116989548D01*
X61052754Y-116861285D01*
X61068836Y-116853940D01*
X61319607Y-116760407D01*
X61336558Y-116755430D01*
X61598076Y-116698540D01*
X61615573Y-116696024D01*
X61886948Y-116676616D01*
X61895794Y-116676300D01*
X63446712Y-116676300D01*
X63513751Y-116695985D01*
G37*
%TD.AperFunction*%
%TD*%
%TA.AperFunction,Conductor*%
%TO.N,PGND*%
G36*
X124193039Y-123269685D02*
G01*
X124238794Y-123322489D01*
X124250000Y-123374000D01*
X124250000Y-131126000D01*
X124230315Y-131193039D01*
X124177511Y-131238794D01*
X124126000Y-131250000D01*
X122624000Y-131250000D01*
X122556961Y-131230315D01*
X122511206Y-131177511D01*
X122500000Y-131126000D01*
X122500000Y-123451098D01*
X122519685Y-123384059D01*
X122572489Y-123338304D01*
X122641647Y-123328360D01*
X122691259Y-123348713D01*
X122691399Y-123348449D01*
X122694121Y-123349887D01*
X122697634Y-123351328D01*
X122699618Y-123352793D01*
X122742345Y-123367744D01*
X122827799Y-123397646D01*
X122858230Y-123400500D01*
X122858234Y-123400500D01*
X123491770Y-123400500D01*
X123522199Y-123397646D01*
X123522201Y-123397646D01*
X123589776Y-123374000D01*
X123650382Y-123352793D01*
X123756833Y-123274228D01*
X123822462Y-123250259D01*
X123830466Y-123250000D01*
X124126000Y-123250000D01*
X124193039Y-123269685D01*
G37*
%TD.AperFunction*%
%TD*%
%TA.AperFunction,Conductor*%
%TO.N,PGND*%
G36*
X109250000Y-122250000D02*
G01*
X109250000Y-130376000D01*
X109230315Y-130443039D01*
X109177511Y-130488794D01*
X109126000Y-130500000D01*
X107624000Y-130500000D01*
X107556961Y-130480315D01*
X107511206Y-130427511D01*
X107500000Y-130376000D01*
X107500000Y-122231013D01*
X107500000Y-121750000D01*
X109250000Y-121750000D01*
X109250000Y-122250000D01*
G37*
%TD.AperFunction*%
%TD*%
%TA.AperFunction,Conductor*%
%TO.N,Net-(R6-Pad1)*%
G36*
X117225057Y-123269685D02*
G01*
X117245699Y-123286319D01*
X118463681Y-124504301D01*
X118497166Y-124565624D01*
X118500000Y-124591982D01*
X118500000Y-128626000D01*
X118480315Y-128693039D01*
X118427511Y-128738794D01*
X118376000Y-128750000D01*
X115374000Y-128750000D01*
X115306961Y-128730315D01*
X115261206Y-128677511D01*
X115250000Y-128626000D01*
X115250000Y-126124000D01*
X115269685Y-126056961D01*
X115322489Y-126011206D01*
X115374000Y-126000000D01*
X116500000Y-126000000D01*
X116500000Y-123374000D01*
X116519685Y-123306961D01*
X116572489Y-123261206D01*
X116624000Y-123250000D01*
X117158018Y-123250000D01*
X117225057Y-123269685D01*
G37*
%TD.AperFunction*%
%TD*%
%TA.AperFunction,Conductor*%
%TO.N,GND*%
G36*
X125193039Y-166044685D02*
G01*
X125238794Y-166097489D01*
X125250000Y-166149000D01*
X125250000Y-168151000D01*
X125230315Y-168218039D01*
X125177511Y-168263794D01*
X125126000Y-168275000D01*
X91874000Y-168275000D01*
X91806961Y-168255315D01*
X91761206Y-168202511D01*
X91750000Y-168151000D01*
X91750000Y-166149000D01*
X91769685Y-166081961D01*
X91822489Y-166036206D01*
X91874000Y-166025000D01*
X125126000Y-166025000D01*
X125193039Y-166044685D01*
G37*
%TD.AperFunction*%
%TD*%
M02*
