%TF.GenerationSoftware,KiCad,Pcbnew,9.0.3+dfsg-1*%
%TF.CreationDate,2026-02-25T02:28:09-05:00*%
%TF.ProjectId,ClassECoil,436c6173-7345-4436-9f69-6c2e6b696361,rev?*%
%TF.SameCoordinates,Original*%
%TF.FileFunction,Paste,Bot*%
%TF.FilePolarity,Positive*%
%FSLAX46Y46*%
G04 Gerber Fmt 4.6, Leading zero omitted, Abs format (unit mm)*
G04 Created by KiCad (PCBNEW 9.0.3+dfsg-1) date 2026-02-25 02:28:09*
%MOMM*%
%LPD*%
G01*
G04 APERTURE LIST*
G04 Aperture macros list*
%AMRoundRect*
0 Rectangle with rounded corners*
0 $1 Rounding radius*
0 $2 $3 $4 $5 $6 $7 $8 $9 X,Y pos of 4 corners*
0 Add a 4 corners polygon primitive as box body*
4,1,4,$2,$3,$4,$5,$6,$7,$8,$9,$2,$3,0*
0 Add four circle primitives for the rounded corners*
1,1,$1+$1,$2,$3*
1,1,$1+$1,$4,$5*
1,1,$1+$1,$6,$7*
1,1,$1+$1,$8,$9*
0 Add four rect primitives between the rounded corners*
20,1,$1+$1,$2,$3,$4,$5,0*
20,1,$1+$1,$4,$5,$6,$7,0*
20,1,$1+$1,$6,$7,$8,$9,0*
20,1,$1+$1,$8,$9,$2,$3,0*%
G04 Aperture macros list end*
%ADD10RoundRect,0.250000X0.262500X0.450000X-0.262500X0.450000X-0.262500X-0.450000X0.262500X-0.450000X0*%
%ADD11RoundRect,0.150000X-0.150000X0.512500X-0.150000X-0.512500X0.150000X-0.512500X0.150000X0.512500X0*%
%ADD12RoundRect,0.250000X-0.450000X0.262500X-0.450000X-0.262500X0.450000X-0.262500X0.450000X0.262500X0*%
%ADD13R,2.900000X5.400000*%
%ADD14RoundRect,0.250000X-0.262500X-0.450000X0.262500X-0.450000X0.262500X0.450000X-0.262500X0.450000X0*%
%ADD15RoundRect,0.250000X1.100000X-0.325000X1.100000X0.325000X-1.100000X0.325000X-1.100000X-0.325000X0*%
%ADD16RoundRect,0.250000X0.475000X-0.250000X0.475000X0.250000X-0.475000X0.250000X-0.475000X-0.250000X0*%
%ADD17RoundRect,0.250000X-0.250000X-0.475000X0.250000X-0.475000X0.250000X0.475000X-0.250000X0.475000X0*%
%ADD18RoundRect,0.250000X-1.000000X-0.650000X1.000000X-0.650000X1.000000X0.650000X-1.000000X0.650000X0*%
%ADD19RoundRect,0.075000X-0.650000X-0.075000X0.650000X-0.075000X0.650000X0.075000X-0.650000X0.075000X0*%
%ADD20RoundRect,0.150000X-0.587500X-0.150000X0.587500X-0.150000X0.587500X0.150000X-0.587500X0.150000X0*%
%ADD21RoundRect,0.150000X-0.825000X-0.150000X0.825000X-0.150000X0.825000X0.150000X-0.825000X0.150000X0*%
%ADD22RoundRect,0.250000X0.250000X0.475000X-0.250000X0.475000X-0.250000X-0.475000X0.250000X-0.475000X0*%
%ADD23RoundRect,0.250000X-0.475000X0.250000X-0.475000X-0.250000X0.475000X-0.250000X0.475000X0.250000X0*%
%ADD24RoundRect,0.150000X0.512500X0.150000X-0.512500X0.150000X-0.512500X-0.150000X0.512500X-0.150000X0*%
%ADD25RoundRect,0.218750X0.218750X0.381250X-0.218750X0.381250X-0.218750X-0.381250X0.218750X-0.381250X0*%
%ADD26RoundRect,0.150000X0.150000X-0.587500X0.150000X0.587500X-0.150000X0.587500X-0.150000X-0.587500X0*%
%ADD27RoundRect,0.250000X0.450000X-0.400000X0.450000X0.400000X-0.450000X0.400000X-0.450000X-0.400000X0*%
%ADD28RoundRect,0.150000X0.825000X0.150000X-0.825000X0.150000X-0.825000X-0.150000X0.825000X-0.150000X0*%
%ADD29RoundRect,0.250000X-0.650000X1.000000X-0.650000X-1.000000X0.650000X-1.000000X0.650000X1.000000X0*%
%ADD30RoundRect,0.137500X-0.662500X-0.137500X0.662500X-0.137500X0.662500X0.137500X-0.662500X0.137500X0*%
%ADD31RoundRect,0.250000X-0.400000X-0.600000X0.400000X-0.600000X0.400000X0.600000X-0.400000X0.600000X0*%
%ADD32RoundRect,0.218750X-0.218750X-0.381250X0.218750X-0.381250X0.218750X0.381250X-0.218750X0.381250X0*%
%ADD33RoundRect,0.150000X-0.512500X-0.150000X0.512500X-0.150000X0.512500X0.150000X-0.512500X0.150000X0*%
%ADD34RoundRect,0.150000X0.150000X-0.725000X0.150000X0.725000X-0.150000X0.725000X-0.150000X-0.725000X0*%
G04 APERTURE END LIST*
D10*
%TO.C,R18*%
X110912500Y-80030000D03*
X109087500Y-80030000D03*
%TD*%
D11*
%TO.C,U13*%
X115550000Y-80112500D03*
X116500000Y-80112500D03*
X117450000Y-80112500D03*
X117450000Y-82387500D03*
X115550000Y-82387500D03*
%TD*%
D12*
%TO.C,R9*%
X76750000Y-79462500D03*
X76750000Y-81287500D03*
%TD*%
D10*
%TO.C,R3*%
X86825000Y-126440625D03*
X85000000Y-126440625D03*
%TD*%
D13*
%TO.C,L1*%
X50650000Y-83500000D03*
X60350000Y-83500000D03*
%TD*%
D14*
%TO.C,R13*%
X56087500Y-71250000D03*
X57912500Y-71250000D03*
%TD*%
D15*
%TO.C,C22*%
X127000000Y-61500000D03*
X127000000Y-58550000D03*
%TD*%
D16*
%TO.C,C4*%
X86518750Y-112340625D03*
X86518750Y-110440625D03*
%TD*%
D17*
%TO.C,C5*%
X74875000Y-148705000D03*
X76775000Y-148705000D03*
%TD*%
D18*
%TO.C,D5*%
X56500000Y-74500000D03*
X60500000Y-74500000D03*
%TD*%
D19*
%TO.C,U9*%
X90925000Y-95405000D03*
X90925000Y-94905000D03*
X90925000Y-94405000D03*
X90925000Y-93905000D03*
X90925000Y-93405000D03*
X95325000Y-93405000D03*
X95325000Y-93905000D03*
X95325000Y-94405000D03*
X95325000Y-94905000D03*
X95325000Y-95405000D03*
%TD*%
D10*
%TO.C,R17*%
X105662500Y-89780000D03*
X103837500Y-89780000D03*
%TD*%
D20*
%TO.C,D4*%
X82143750Y-112140625D03*
X82143750Y-110240625D03*
X84018750Y-111190625D03*
%TD*%
%TO.C,Q4*%
X96286204Y-151655000D03*
X96286204Y-149755000D03*
X98161204Y-150705000D03*
%TD*%
D21*
%TO.C,U16*%
X79748704Y-151610000D03*
X79748704Y-150340000D03*
X79748704Y-149070000D03*
X79748704Y-147800000D03*
X84698704Y-147800000D03*
X84698704Y-149070000D03*
X84698704Y-150340000D03*
X84698704Y-151610000D03*
%TD*%
D22*
%TO.C,C18*%
X58450000Y-102250000D03*
X56550000Y-102250000D03*
%TD*%
%TO.C,C3*%
X76775000Y-146205000D03*
X74875000Y-146205000D03*
%TD*%
D21*
%TO.C,U17*%
X87850000Y-151610000D03*
X87850000Y-150340000D03*
X87850000Y-149070000D03*
X87850000Y-147800000D03*
X92800000Y-147800000D03*
X92800000Y-149070000D03*
X92800000Y-150340000D03*
X92800000Y-151610000D03*
%TD*%
D17*
%TO.C,C7*%
X92568750Y-126440625D03*
X94468750Y-126440625D03*
%TD*%
D10*
%TO.C,R5*%
X90575000Y-123940625D03*
X88750000Y-123940625D03*
%TD*%
D18*
%TO.C,D8*%
X88250000Y-89030000D03*
X92250000Y-89030000D03*
%TD*%
D12*
%TO.C,R6*%
X76750000Y-83050000D03*
X76750000Y-84875000D03*
%TD*%
D10*
%TO.C,R8*%
X86825000Y-123940625D03*
X85000000Y-123940625D03*
%TD*%
D15*
%TO.C,C20*%
X134000000Y-61500000D03*
X134000000Y-58550000D03*
%TD*%
D17*
%TO.C,C26*%
X92568750Y-123940625D03*
X94468750Y-123940625D03*
%TD*%
D23*
%TO.C,C27*%
X109000000Y-162000000D03*
X109000000Y-163900000D03*
%TD*%
D14*
%TO.C,R14*%
X63587500Y-87500000D03*
X65412500Y-87500000D03*
%TD*%
D24*
%TO.C,U11*%
X78906250Y-110490625D03*
X78906250Y-111440625D03*
X78906250Y-112390625D03*
X76631250Y-112390625D03*
X76631250Y-110490625D03*
%TD*%
D22*
%TO.C,C8*%
X126200000Y-88030000D03*
X124300000Y-88030000D03*
%TD*%
D15*
%TO.C,C58*%
X123500000Y-61500000D03*
X123500000Y-58550000D03*
%TD*%
D17*
%TO.C,C1*%
X96368750Y-126503125D03*
X98268750Y-126503125D03*
%TD*%
D22*
%TO.C,C15*%
X65000000Y-101750000D03*
X63100000Y-101750000D03*
%TD*%
D25*
%TO.C,FB3*%
X109562500Y-89780000D03*
X107437500Y-89780000D03*
%TD*%
D10*
%TO.C,R22*%
X117412500Y-84750000D03*
X115587500Y-84750000D03*
%TD*%
D17*
%TO.C,C6*%
X90875000Y-153955000D03*
X92775000Y-153955000D03*
%TD*%
D15*
%TO.C,C17*%
X137500000Y-61500000D03*
X137500000Y-58550000D03*
%TD*%
D10*
%TO.C,R20*%
X97886204Y-147705000D03*
X96061204Y-147705000D03*
%TD*%
D11*
%TO.C,U18*%
X82825000Y-153930000D03*
X83775000Y-153930000D03*
X84725000Y-153930000D03*
X84725000Y-156205000D03*
X82825000Y-156205000D03*
%TD*%
%TO.C,U6*%
X96800000Y-80250000D03*
X97750000Y-80250000D03*
X98700000Y-80250000D03*
X98700000Y-82525000D03*
X96800000Y-82525000D03*
%TD*%
D17*
%TO.C,C32*%
X63550000Y-85250000D03*
X65450000Y-85250000D03*
%TD*%
D26*
%TO.C,D1*%
X98268750Y-124190625D03*
X96368750Y-124190625D03*
X97318750Y-122315625D03*
%TD*%
D27*
%TO.C,D16*%
X85250000Y-85280000D03*
X85250000Y-82380000D03*
%TD*%
D22*
%TO.C,C24*%
X150950000Y-89200000D03*
X149050000Y-89200000D03*
%TD*%
D28*
%TO.C,U7*%
X92975000Y-82125000D03*
X92975000Y-83395000D03*
X92975000Y-84665000D03*
X92975000Y-85935000D03*
X88025000Y-85935000D03*
X88025000Y-84665000D03*
X88025000Y-83395000D03*
X88025000Y-82125000D03*
%TD*%
D10*
%TO.C,R15*%
X76737500Y-143705000D03*
X74912500Y-143705000D03*
%TD*%
D15*
%TO.C,C16*%
X113000000Y-61475000D03*
X113000000Y-58525000D03*
%TD*%
D10*
%TO.C,R1*%
X97662500Y-91530000D03*
X95837500Y-91530000D03*
%TD*%
%TO.C,R2*%
X76737500Y-141205000D03*
X74912500Y-141205000D03*
%TD*%
D27*
%TO.C,D12*%
X105250000Y-85230000D03*
X105250000Y-82330000D03*
%TD*%
D10*
%TO.C,R12*%
X57912500Y-69000000D03*
X56087500Y-69000000D03*
%TD*%
D16*
%TO.C,C23*%
X109000000Y-167650000D03*
X109000000Y-165750000D03*
%TD*%
D10*
%TO.C,R4*%
X130912500Y-80030000D03*
X129087500Y-80030000D03*
%TD*%
D29*
%TO.C,D6*%
X64500000Y-78250000D03*
X64500000Y-82250000D03*
%TD*%
D14*
%TO.C,R25*%
X74912500Y-151205000D03*
X76737500Y-151205000D03*
%TD*%
D30*
%TO.C,U4*%
X89018750Y-119135625D03*
X89018750Y-117865625D03*
X89018750Y-116595625D03*
X89018750Y-115325625D03*
X89018750Y-114055625D03*
X89018750Y-112785625D03*
X89018750Y-111515625D03*
X89018750Y-110245625D03*
X95518750Y-110245625D03*
X95518750Y-111515625D03*
X95518750Y-112785625D03*
X95518750Y-114055625D03*
X95518750Y-115325625D03*
X95518750Y-116595625D03*
X95518750Y-117865625D03*
X95518750Y-119135625D03*
%TD*%
D10*
%TO.C,R16*%
X90912500Y-80030000D03*
X89087500Y-80030000D03*
%TD*%
D14*
%TO.C,R19*%
X74912500Y-153705000D03*
X76737500Y-153705000D03*
%TD*%
D31*
%TO.C,D3*%
X77018750Y-107440625D03*
X80518750Y-107440625D03*
%TD*%
D23*
%TO.C,C13*%
X85250000Y-88030000D03*
X85250000Y-89930000D03*
%TD*%
D32*
%TO.C,FB4*%
X107437500Y-87780000D03*
X109562500Y-87780000D03*
%TD*%
D22*
%TO.C,C14*%
X90612500Y-126440625D03*
X88712500Y-126440625D03*
%TD*%
D10*
%TO.C,R10*%
X88737500Y-153955000D03*
X86912500Y-153955000D03*
%TD*%
D12*
%TO.C,R7*%
X76750000Y-86712500D03*
X76750000Y-88537500D03*
%TD*%
D28*
%TO.C,U1*%
X133000000Y-82240000D03*
X133000000Y-83510000D03*
X133000000Y-84780000D03*
X133000000Y-86050000D03*
X128050000Y-86050000D03*
X128050000Y-84780000D03*
X128050000Y-83510000D03*
X128050000Y-82240000D03*
%TD*%
D17*
%TO.C,C29*%
X51435000Y-75180000D03*
X53335000Y-75180000D03*
%TD*%
%TO.C,C11*%
X103800000Y-87780000D03*
X105700000Y-87780000D03*
%TD*%
D15*
%TO.C,C21*%
X130500000Y-61500000D03*
X130500000Y-58550000D03*
%TD*%
D28*
%TO.C,U5*%
X112975000Y-82125000D03*
X112975000Y-83395000D03*
X112975000Y-84665000D03*
X112975000Y-85935000D03*
X108025000Y-85935000D03*
X108025000Y-84665000D03*
X108025000Y-83395000D03*
X108025000Y-82125000D03*
%TD*%
D22*
%TO.C,C35*%
X52950000Y-102250000D03*
X51050000Y-102250000D03*
%TD*%
D23*
%TO.C,C19*%
X120500000Y-81330000D03*
X120500000Y-83230000D03*
%TD*%
D25*
%TO.C,FB5*%
X129875000Y-88030000D03*
X127750000Y-88030000D03*
%TD*%
D27*
%TO.C,D11*%
X125250000Y-85480000D03*
X125250000Y-82580000D03*
%TD*%
D15*
%TO.C,C10*%
X120000000Y-61475000D03*
X120000000Y-58525000D03*
%TD*%
D11*
%TO.C,U14*%
X79175000Y-153930000D03*
X80125000Y-153930000D03*
X81075000Y-153930000D03*
X81075000Y-156205000D03*
X79175000Y-156205000D03*
%TD*%
D12*
%TO.C,R11*%
X120500000Y-85117500D03*
X120500000Y-86942500D03*
%TD*%
D33*
%TO.C,U12*%
X74825000Y-157955000D03*
X74825000Y-157005000D03*
X74825000Y-156055000D03*
X77100000Y-156055000D03*
X77100000Y-157005000D03*
X77100000Y-157955000D03*
%TD*%
D15*
%TO.C,C12*%
X116476750Y-61475000D03*
X116476750Y-58525000D03*
%TD*%
D34*
%TO.C,U3*%
X53540000Y-72755000D03*
X52270000Y-72755000D03*
X51000000Y-72755000D03*
X49730000Y-72755000D03*
X49730000Y-67605000D03*
X51000000Y-67605000D03*
X52270000Y-67605000D03*
X53540000Y-67605000D03*
%TD*%
M02*
