%TF.GenerationSoftware,KiCad,Pcbnew,9.0.3+dfsg-1*%
%TF.CreationDate,2026-02-25T02:28:09-05:00*%
%TF.ProjectId,ClassECoil,436c6173-7345-4436-9f69-6c2e6b696361,rev?*%
%TF.SameCoordinates,Original*%
%TF.FileFunction,Soldermask,Top*%
%TF.FilePolarity,Negative*%
%FSLAX46Y46*%
G04 Gerber Fmt 4.6, Leading zero omitted, Abs format (unit mm)*
G04 Created by KiCad (PCBNEW 9.0.3+dfsg-1) date 2026-02-25 02:28:09*
%MOMM*%
%LPD*%
G01*
G04 APERTURE LIST*
G04 Aperture macros list*
%AMRoundRect*
0 Rectangle with rounded corners*
0 $1 Rounding radius*
0 $2 $3 $4 $5 $6 $7 $8 $9 X,Y pos of 4 corners*
0 Add a 4 corners polygon primitive as box body*
4,1,4,$2,$3,$4,$5,$6,$7,$8,$9,$2,$3,0*
0 Add four circle primitives for the rounded corners*
1,1,$1+$1,$2,$3*
1,1,$1+$1,$4,$5*
1,1,$1+$1,$6,$7*
1,1,$1+$1,$8,$9*
0 Add four rect primitives between the rounded corners*
20,1,$1+$1,$2,$3,$4,$5,0*
20,1,$1+$1,$4,$5,$6,$7,0*
20,1,$1+$1,$6,$7,$8,$9,0*
20,1,$1+$1,$8,$9,$2,$3,0*%
G04 Aperture macros list end*
%ADD10C,0.100000*%
%ADD11C,1.905000*%
%ADD12R,2.000000X1.905000*%
%ADD13O,2.000000X1.905000*%
%ADD14C,1.000000*%
%ADD15RoundRect,0.250000X-1.750000X1.750000X-1.750000X-1.750000X1.750000X-1.750000X1.750000X1.750000X0*%
%ADD16C,4.000000*%
%ADD17C,3.500000*%
%ADD18R,1.700000X1.700000*%
%ADD19C,1.700000*%
%ADD20C,2.400000*%
%ADD21C,0.800000*%
%ADD22C,6.400000*%
%ADD23RoundRect,0.250000X0.750000X0.750000X-0.750000X0.750000X-0.750000X-0.750000X0.750000X-0.750000X0*%
%ADD24C,2.000000*%
%ADD25RoundRect,0.250000X0.845000X-0.620000X0.845000X0.620000X-0.845000X0.620000X-0.845000X-0.620000X0*%
%ADD26O,2.190000X1.740000*%
%ADD27RoundRect,0.750000X-0.750000X0.750000X-0.750000X-0.750000X0.750000X-0.750000X0.750000X0.750000X0*%
%ADD28C,3.000000*%
%ADD29C,6.000000*%
%ADD30R,1.905000X4.500000*%
%ADD31O,1.905000X4.500000*%
%ADD32R,9.360000X3.010000*%
%ADD33RoundRect,0.752500X0.752500X-3.927500X0.752500X3.927500X-0.752500X3.927500X-0.752500X-3.927500X0*%
%ADD34R,1.500000X2.000000*%
%ADD35O,1.500000X2.000000*%
%ADD36C,1.600000*%
%ADD37RoundRect,0.250000X0.550000X-0.550000X0.550000X0.550000X-0.550000X0.550000X-0.550000X-0.550000X0*%
%ADD38C,1.100000*%
%ADD39R,2.030000X1.730000*%
%ADD40O,2.030000X1.730000*%
%ADD41RoundRect,0.250000X-0.550000X0.550000X-0.550000X-0.550000X0.550000X-0.550000X0.550000X0.550000X0*%
%ADD42R,1.190000X2.340000*%
%ADD43R,4.270000X7.240000*%
%ADD44C,1.440000*%
G04 APERTURE END LIST*
D10*
X126750000Y-71250000D02*
X123000000Y-71250000D01*
X124750000Y-69500000D01*
X124750000Y-68000000D01*
X126750000Y-68000000D01*
X126750000Y-71250000D01*
G36*
X126750000Y-71250000D02*
G01*
X123000000Y-71250000D01*
X124750000Y-69500000D01*
X124750000Y-68000000D01*
X126750000Y-68000000D01*
X126750000Y-71250000D01*
G37*
X123000000Y-71250000D02*
X126750000Y-71250000D01*
X126750000Y-78750000D01*
X123000000Y-78750000D01*
X123000000Y-71250000D01*
G36*
X123000000Y-71250000D02*
G01*
X126750000Y-71250000D01*
X126750000Y-78750000D01*
X123000000Y-78750000D01*
X123000000Y-71250000D01*
G37*
X106750000Y-71000000D02*
X110250000Y-71000000D01*
X110250000Y-73000000D01*
X106750000Y-73000000D01*
X106750000Y-71000000D01*
G36*
X106750000Y-71000000D02*
G01*
X110250000Y-71000000D01*
X110250000Y-73000000D01*
X106750000Y-73000000D01*
X106750000Y-71000000D01*
G37*
X78500000Y-70750000D02*
X90500000Y-70750000D01*
X90500000Y-73000000D01*
X78500000Y-73000000D01*
X78500000Y-70750000D01*
G36*
X78500000Y-70750000D02*
G01*
X90500000Y-70750000D01*
X90500000Y-73000000D01*
X78500000Y-73000000D01*
X78500000Y-70750000D01*
G37*
X78500000Y-73000000D02*
X83500000Y-73000000D01*
X83500000Y-78750000D01*
X78500000Y-78750000D01*
X78500000Y-73000000D01*
G36*
X78500000Y-73000000D02*
G01*
X83500000Y-73000000D01*
X83500000Y-78750000D01*
X78500000Y-78750000D01*
X78500000Y-73000000D01*
G37*
X102750000Y-71000000D02*
X106750000Y-71000000D01*
X106750000Y-78500000D01*
X102750000Y-78500000D01*
X102750000Y-71000000D01*
G36*
X102750000Y-71000000D02*
G01*
X106750000Y-71000000D01*
X106750000Y-78500000D01*
X102750000Y-78500000D01*
X102750000Y-71000000D01*
G37*
X85250000Y-66000000D02*
X90500000Y-66000000D01*
X90500000Y-70750000D01*
X85250000Y-70750000D01*
X85250000Y-66000000D01*
G36*
X85250000Y-66000000D02*
G01*
X90500000Y-66000000D01*
X90500000Y-70750000D01*
X85250000Y-70750000D01*
X85250000Y-66000000D01*
G37*
D11*
%TO.C,J11*%
X54460000Y-134500000D03*
X59540000Y-134500000D03*
%TD*%
D12*
%TO.C,U8*%
X65200000Y-97040000D03*
D13*
X65200000Y-94500000D03*
X65200000Y-91960000D03*
%TD*%
D14*
%TO.C,NE1*%
X149250000Y-71250000D03*
X149250000Y-74250000D03*
%TD*%
D15*
%TO.C,C9*%
X125750000Y-42750000D03*
D16*
X125750000Y-52750000D03*
%TD*%
D11*
%TO.C,J4*%
X149000000Y-99500000D03*
X149000000Y-104580000D03*
%TD*%
%TO.C,J2*%
X63000000Y-67540000D03*
X63000000Y-62460000D03*
%TD*%
D17*
%TO.C,U19*%
X128680000Y-164750000D03*
D12*
X112020000Y-162210000D03*
D13*
X112020000Y-164750000D03*
X112020000Y-167290000D03*
%TD*%
D18*
%TO.C,J12*%
X59460000Y-166750000D03*
D19*
X59460000Y-169290000D03*
X62000000Y-166750000D03*
X62000000Y-169290000D03*
X64540000Y-166750000D03*
X64540000Y-169290000D03*
%TD*%
D20*
%TO.C,C37*%
X53250000Y-63500000D03*
X53250000Y-41000000D03*
%TD*%
D21*
%TO.C,H4*%
X137100000Y-169000000D03*
X137802944Y-167302944D03*
X137802944Y-170697056D03*
X139500000Y-166600000D03*
D22*
X139500000Y-169000000D03*
D21*
X139500000Y-171400000D03*
X141197056Y-167302944D03*
X141197056Y-170697056D03*
X141900000Y-169000000D03*
%TD*%
D23*
%TO.C,C31*%
X57367677Y-91750000D03*
D24*
X52367677Y-91750000D03*
%TD*%
D25*
%TO.C,J1*%
X57000000Y-113775000D03*
D26*
X57000000Y-111235000D03*
%TD*%
D18*
%TO.C,J6*%
X54460000Y-124500000D03*
D19*
X57000000Y-124500000D03*
X59540000Y-124500000D03*
%TD*%
D27*
%TO.C,F1*%
X149000000Y-125400000D03*
X149000000Y-133000000D03*
D28*
X149000000Y-152500000D03*
X149000000Y-160100000D03*
%TD*%
D29*
%TO.C,Q1*%
X85500000Y-96000000D03*
D30*
X80420000Y-76140000D03*
D31*
X85500000Y-76140000D03*
X88040000Y-76140000D03*
X90580000Y-76140000D03*
%TD*%
D11*
%TO.C,J3*%
X114460000Y-68750000D03*
X119540000Y-68750000D03*
%TD*%
D21*
%TO.C,H7*%
X147100000Y-33500000D03*
X147802944Y-31802944D03*
X147802944Y-35197056D03*
X149500000Y-31100000D03*
D22*
X149500000Y-33500000D03*
D21*
X149500000Y-35900000D03*
X151197056Y-31802944D03*
X151197056Y-35197056D03*
X151900000Y-33500000D03*
%TD*%
D28*
%TO.C,L2*%
X72750000Y-68250000D03*
X77750000Y-68250000D03*
X82750000Y-68250000D03*
X92750000Y-68250000D03*
X97750000Y-68250000D03*
X102750000Y-68250000D03*
X102750000Y-33250000D03*
X97750000Y-33250000D03*
X82750000Y-33250000D03*
X77750000Y-33250000D03*
X72750000Y-33250000D03*
%TD*%
D32*
%TO.C,D2*%
X117900000Y-150300000D03*
D33*
X116400000Y-133700000D03*
X134500000Y-133700000D03*
X134500000Y-148000000D03*
%TD*%
D11*
%TO.C,J5*%
X148960000Y-111710000D03*
X148960000Y-116790000D03*
%TD*%
D21*
%TO.C,H6*%
X50100000Y-168500000D03*
X50802944Y-166802944D03*
X50802944Y-170197056D03*
X52500000Y-166100000D03*
D22*
X52500000Y-168500000D03*
D21*
X52500000Y-170900000D03*
X54197056Y-166802944D03*
X54197056Y-170197056D03*
X54900000Y-168500000D03*
%TD*%
%TO.C,H8*%
X50100000Y-33500000D03*
X50802944Y-31802944D03*
X50802944Y-35197056D03*
X52500000Y-31100000D03*
D22*
X52500000Y-33500000D03*
D21*
X52500000Y-35900000D03*
X54197056Y-31802944D03*
X54197056Y-35197056D03*
X54900000Y-33500000D03*
%TD*%
D34*
%TO.C,U2*%
X58762500Y-99132500D03*
D35*
X56222500Y-99132500D03*
X53682500Y-99132500D03*
X51142500Y-99132500D03*
%TD*%
D20*
%TO.C,C2*%
X63000000Y-54500000D03*
X63000000Y-32000000D03*
%TD*%
D36*
%TO.C,R51*%
X149155000Y-67800000D03*
X151695000Y-67800000D03*
%TD*%
D21*
%TO.C,H3*%
X68850000Y-169000000D03*
X69552944Y-167302944D03*
X69552944Y-170697056D03*
X71250000Y-166600000D03*
D22*
X71250000Y-169000000D03*
D21*
X71250000Y-171400000D03*
X72947056Y-167302944D03*
X72947056Y-170697056D03*
X73650000Y-169000000D03*
%TD*%
%TO.C,H1*%
X137100000Y-77000000D03*
X137802944Y-75302944D03*
X137802944Y-78697056D03*
X139500000Y-74600000D03*
D22*
X139500000Y-77000000D03*
D21*
X139500000Y-79400000D03*
X141197056Y-75302944D03*
X141197056Y-78697056D03*
X141900000Y-77000000D03*
%TD*%
D20*
%TO.C,C25*%
X148750000Y-63250000D03*
X148750000Y-40750000D03*
%TD*%
D29*
%TO.C,Q2*%
X105500000Y-96000000D03*
D30*
X100420000Y-76140000D03*
D31*
X105500000Y-76140000D03*
X108040000Y-76140000D03*
X110580000Y-76140000D03*
%TD*%
D37*
%TO.C,U10*%
X100035000Y-146416000D03*
D36*
X102575000Y-146416000D03*
X105115000Y-146416000D03*
X105115000Y-138796000D03*
X102575000Y-138796000D03*
X100035000Y-138796000D03*
%TD*%
D21*
%TO.C,H5*%
X147100000Y-168500000D03*
X147802944Y-166802944D03*
X147802944Y-170197056D03*
X149500000Y-166100000D03*
D22*
X149500000Y-168500000D03*
D21*
X149500000Y-170900000D03*
X151197056Y-166802944D03*
X151197056Y-170197056D03*
X151900000Y-168500000D03*
%TD*%
D38*
%TO.C,M1*%
X152160000Y-82940000D03*
D39*
X150000000Y-77860000D03*
D40*
X150000000Y-80400000D03*
X150000000Y-82940000D03*
X150000000Y-85480000D03*
%TD*%
D29*
%TO.C,Q6*%
X125500000Y-96000000D03*
D30*
X120420000Y-76140000D03*
D31*
X125500000Y-76140000D03*
X128040000Y-76140000D03*
X130580000Y-76140000D03*
%TD*%
D21*
%TO.C,H2*%
X68850000Y-77000000D03*
X69552944Y-75302944D03*
X69552944Y-78697056D03*
X71250000Y-74600000D03*
D22*
X71250000Y-77000000D03*
D21*
X71250000Y-79400000D03*
X72947056Y-75302944D03*
X72947056Y-78697056D03*
X73650000Y-77000000D03*
%TD*%
D41*
%TO.C,C30*%
X64250000Y-72250000D03*
D36*
X64250000Y-74250000D03*
%TD*%
D42*
%TO.C,T1*%
X52170000Y-161290000D03*
X54710000Y-161290000D03*
X57250000Y-161290000D03*
X59790000Y-161290000D03*
X62330000Y-161290000D03*
X62330000Y-143210000D03*
X59790000Y-143210000D03*
X57250000Y-143210000D03*
X54710000Y-143210000D03*
X52170000Y-143210000D03*
D43*
X51630000Y-152250000D03*
X62870000Y-152250000D03*
%TD*%
D44*
%TO.C,RV1*%
X102518750Y-112940625D03*
X99978750Y-110400625D03*
X102518750Y-107860625D03*
%TD*%
%TO.C,RV5*%
X84513704Y-142515000D03*
X81973704Y-145055000D03*
X79433704Y-142515000D03*
%TD*%
%TO.C,RV4*%
X74578750Y-115400625D03*
X77118750Y-117940625D03*
X74578750Y-120480625D03*
%TD*%
%TO.C,RV6*%
X92013704Y-142515000D03*
X89473704Y-145055000D03*
X86933704Y-142515000D03*
%TD*%
%TO.C,RV3*%
X102518750Y-120440625D03*
X99978750Y-117900625D03*
X102518750Y-115360625D03*
%TD*%
%TO.C,RV2*%
X82578750Y-115400625D03*
X85118750Y-117940625D03*
X82578750Y-120480625D03*
%TD*%
M02*
