%TF.GenerationSoftware,KiCad,Pcbnew,9.0.3+dfsg-1*%
%TF.CreationDate,2026-02-25T02:28:09-05:00*%
%TF.ProjectId,ClassECoil,436c6173-7345-4436-9f69-6c2e6b696361,rev?*%
%TF.SameCoordinates,Original*%
%TF.FileFunction,Legend,Top*%
%TF.FilePolarity,Positive*%
%FSLAX46Y46*%
G04 Gerber Fmt 4.6, Leading zero omitted, Abs format (unit mm)*
G04 Created by KiCad (PCBNEW 9.0.3+dfsg-1) date 2026-02-25 02:28:09*
%MOMM*%
%LPD*%
G01*
G04 APERTURE LIST*
%ADD10C,0.100000*%
%ADD11C,0.150000*%
%ADD12C,0.152400*%
%ADD13C,0.120000*%
G04 APERTURE END LIST*
D10*
X145000000Y-164000000D02*
X154000000Y-164000000D01*
X154000000Y-173000000D01*
X145000000Y-173000000D01*
X145000000Y-164000000D01*
X48000000Y-29000000D02*
X57000000Y-29000000D01*
X57000000Y-38000000D01*
X48000000Y-38000000D01*
X48000000Y-29000000D01*
X48000000Y-164000000D02*
X57000000Y-164000000D01*
X57000000Y-173000000D01*
X48000000Y-173000000D01*
X48000000Y-164000000D01*
X67300000Y-73000000D02*
X143500000Y-73000000D01*
X143500000Y-173000000D01*
X67300000Y-173000000D01*
X67300000Y-73000000D01*
X145000000Y-29000000D02*
X154000000Y-29000000D01*
X154000000Y-38000000D01*
X145000000Y-38000000D01*
X145000000Y-29000000D01*
X54872419Y-131446115D02*
X53872419Y-131446115D01*
X53872419Y-131446115D02*
X53872419Y-131065163D01*
X53872419Y-131065163D02*
X53920038Y-130969925D01*
X53920038Y-130969925D02*
X53967657Y-130922306D01*
X53967657Y-130922306D02*
X54062895Y-130874687D01*
X54062895Y-130874687D02*
X54205752Y-130874687D01*
X54205752Y-130874687D02*
X54300990Y-130922306D01*
X54300990Y-130922306D02*
X54348609Y-130969925D01*
X54348609Y-130969925D02*
X54396228Y-131065163D01*
X54396228Y-131065163D02*
X54396228Y-131446115D01*
X53872419Y-130541353D02*
X54872419Y-130303258D01*
X54872419Y-130303258D02*
X54158133Y-130112782D01*
X54158133Y-130112782D02*
X54872419Y-129922306D01*
X54872419Y-129922306D02*
X53872419Y-129684211D01*
X54872419Y-129303258D02*
X53872419Y-129303258D01*
X53872419Y-129303258D02*
X54586704Y-128969925D01*
X54586704Y-128969925D02*
X53872419Y-128636592D01*
X53872419Y-128636592D02*
X54872419Y-128636592D01*
X54872419Y-127398496D02*
X53872419Y-127398496D01*
X54872419Y-126922306D02*
X53872419Y-126922306D01*
X53872419Y-126922306D02*
X54872419Y-126350878D01*
X54872419Y-126350878D02*
X53872419Y-126350878D01*
X59836704Y-132493734D02*
X59836704Y-132017544D01*
X60122419Y-132588972D02*
X59122419Y-132255639D01*
X59122419Y-132255639D02*
X60122419Y-131922306D01*
X59122419Y-131588972D02*
X59931942Y-131588972D01*
X59931942Y-131588972D02*
X60027180Y-131541353D01*
X60027180Y-131541353D02*
X60074800Y-131493734D01*
X60074800Y-131493734D02*
X60122419Y-131398496D01*
X60122419Y-131398496D02*
X60122419Y-131208020D01*
X60122419Y-131208020D02*
X60074800Y-131112782D01*
X60074800Y-131112782D02*
X60027180Y-131065163D01*
X60027180Y-131065163D02*
X59931942Y-131017544D01*
X59931942Y-131017544D02*
X59122419Y-131017544D01*
X60122419Y-130541353D02*
X59122419Y-130541353D01*
X59122419Y-130541353D02*
X59122419Y-130303258D01*
X59122419Y-130303258D02*
X59170038Y-130160401D01*
X59170038Y-130160401D02*
X59265276Y-130065163D01*
X59265276Y-130065163D02*
X59360514Y-130017544D01*
X59360514Y-130017544D02*
X59550990Y-129969925D01*
X59550990Y-129969925D02*
X59693847Y-129969925D01*
X59693847Y-129969925D02*
X59884323Y-130017544D01*
X59884323Y-130017544D02*
X59979561Y-130065163D01*
X59979561Y-130065163D02*
X60074800Y-130160401D01*
X60074800Y-130160401D02*
X60122419Y-130303258D01*
X60122419Y-130303258D02*
X60122419Y-130541353D01*
X60122419Y-129541353D02*
X59122419Y-129541353D01*
X59122419Y-128874687D02*
X59122419Y-128684211D01*
X59122419Y-128684211D02*
X59170038Y-128588973D01*
X59170038Y-128588973D02*
X59265276Y-128493735D01*
X59265276Y-128493735D02*
X59455752Y-128446116D01*
X59455752Y-128446116D02*
X59789085Y-128446116D01*
X59789085Y-128446116D02*
X59979561Y-128493735D01*
X59979561Y-128493735D02*
X60074800Y-128588973D01*
X60074800Y-128588973D02*
X60122419Y-128684211D01*
X60122419Y-128684211D02*
X60122419Y-128874687D01*
X60122419Y-128874687D02*
X60074800Y-128969925D01*
X60074800Y-128969925D02*
X59979561Y-129065163D01*
X59979561Y-129065163D02*
X59789085Y-129112782D01*
X59789085Y-129112782D02*
X59455752Y-129112782D01*
X59455752Y-129112782D02*
X59265276Y-129065163D01*
X59265276Y-129065163D02*
X59170038Y-128969925D01*
X59170038Y-128969925D02*
X59122419Y-128874687D01*
X60122419Y-127255639D02*
X59122419Y-127255639D01*
X60122419Y-126779449D02*
X59122419Y-126779449D01*
X59122419Y-126779449D02*
X60122419Y-126208021D01*
X60122419Y-126208021D02*
X59122419Y-126208021D01*
D11*
X60554819Y-95261904D02*
X61364342Y-95261904D01*
X61364342Y-95261904D02*
X61459580Y-95214285D01*
X61459580Y-95214285D02*
X61507200Y-95166666D01*
X61507200Y-95166666D02*
X61554819Y-95071428D01*
X61554819Y-95071428D02*
X61554819Y-94880952D01*
X61554819Y-94880952D02*
X61507200Y-94785714D01*
X61507200Y-94785714D02*
X61459580Y-94738095D01*
X61459580Y-94738095D02*
X61364342Y-94690476D01*
X61364342Y-94690476D02*
X60554819Y-94690476D01*
X60983390Y-94071428D02*
X60935771Y-94166666D01*
X60935771Y-94166666D02*
X60888152Y-94214285D01*
X60888152Y-94214285D02*
X60792914Y-94261904D01*
X60792914Y-94261904D02*
X60745295Y-94261904D01*
X60745295Y-94261904D02*
X60650057Y-94214285D01*
X60650057Y-94214285D02*
X60602438Y-94166666D01*
X60602438Y-94166666D02*
X60554819Y-94071428D01*
X60554819Y-94071428D02*
X60554819Y-93880952D01*
X60554819Y-93880952D02*
X60602438Y-93785714D01*
X60602438Y-93785714D02*
X60650057Y-93738095D01*
X60650057Y-93738095D02*
X60745295Y-93690476D01*
X60745295Y-93690476D02*
X60792914Y-93690476D01*
X60792914Y-93690476D02*
X60888152Y-93738095D01*
X60888152Y-93738095D02*
X60935771Y-93785714D01*
X60935771Y-93785714D02*
X60983390Y-93880952D01*
X60983390Y-93880952D02*
X60983390Y-94071428D01*
X60983390Y-94071428D02*
X61031009Y-94166666D01*
X61031009Y-94166666D02*
X61078628Y-94214285D01*
X61078628Y-94214285D02*
X61173866Y-94261904D01*
X61173866Y-94261904D02*
X61364342Y-94261904D01*
X61364342Y-94261904D02*
X61459580Y-94214285D01*
X61459580Y-94214285D02*
X61507200Y-94166666D01*
X61507200Y-94166666D02*
X61554819Y-94071428D01*
X61554819Y-94071428D02*
X61554819Y-93880952D01*
X61554819Y-93880952D02*
X61507200Y-93785714D01*
X61507200Y-93785714D02*
X61459580Y-93738095D01*
X61459580Y-93738095D02*
X61364342Y-93690476D01*
X61364342Y-93690476D02*
X61173866Y-93690476D01*
X61173866Y-93690476D02*
X61078628Y-93738095D01*
X61078628Y-93738095D02*
X61031009Y-93785714D01*
X61031009Y-93785714D02*
X60983390Y-93880952D01*
D10*
X144792580Y-70535714D02*
X145792580Y-70535714D01*
X145792580Y-70535714D02*
X144792580Y-71107142D01*
X144792580Y-71107142D02*
X145792580Y-71107142D01*
X145316390Y-71583333D02*
X145316390Y-71916666D01*
X144792580Y-72059523D02*
X144792580Y-71583333D01*
X144792580Y-71583333D02*
X145792580Y-71583333D01*
X145792580Y-71583333D02*
X145792580Y-72059523D01*
X144792580Y-73011904D02*
X144792580Y-72440476D01*
X144792580Y-72726190D02*
X145792580Y-72726190D01*
X145792580Y-72726190D02*
X145649723Y-72630952D01*
X145649723Y-72630952D02*
X145554485Y-72535714D01*
X145554485Y-72535714D02*
X145506866Y-72440476D01*
D11*
X144859580Y-47916666D02*
X144907200Y-47964285D01*
X144907200Y-47964285D02*
X144954819Y-48107142D01*
X144954819Y-48107142D02*
X144954819Y-48202380D01*
X144954819Y-48202380D02*
X144907200Y-48345237D01*
X144907200Y-48345237D02*
X144811961Y-48440475D01*
X144811961Y-48440475D02*
X144716723Y-48488094D01*
X144716723Y-48488094D02*
X144526247Y-48535713D01*
X144526247Y-48535713D02*
X144383390Y-48535713D01*
X144383390Y-48535713D02*
X144192914Y-48488094D01*
X144192914Y-48488094D02*
X144097676Y-48440475D01*
X144097676Y-48440475D02*
X144002438Y-48345237D01*
X144002438Y-48345237D02*
X143954819Y-48202380D01*
X143954819Y-48202380D02*
X143954819Y-48107142D01*
X143954819Y-48107142D02*
X144002438Y-47964285D01*
X144002438Y-47964285D02*
X144050057Y-47916666D01*
X144954819Y-47440475D02*
X144954819Y-47249999D01*
X144954819Y-47249999D02*
X144907200Y-47154761D01*
X144907200Y-47154761D02*
X144859580Y-47107142D01*
X144859580Y-47107142D02*
X144716723Y-47011904D01*
X144716723Y-47011904D02*
X144526247Y-46964285D01*
X144526247Y-46964285D02*
X144145295Y-46964285D01*
X144145295Y-46964285D02*
X144050057Y-47011904D01*
X144050057Y-47011904D02*
X144002438Y-47059523D01*
X144002438Y-47059523D02*
X143954819Y-47154761D01*
X143954819Y-47154761D02*
X143954819Y-47345237D01*
X143954819Y-47345237D02*
X144002438Y-47440475D01*
X144002438Y-47440475D02*
X144050057Y-47488094D01*
X144050057Y-47488094D02*
X144145295Y-47535713D01*
X144145295Y-47535713D02*
X144383390Y-47535713D01*
X144383390Y-47535713D02*
X144478628Y-47488094D01*
X144478628Y-47488094D02*
X144526247Y-47440475D01*
X144526247Y-47440475D02*
X144573866Y-47345237D01*
X144573866Y-47345237D02*
X144573866Y-47154761D01*
X144573866Y-47154761D02*
X144526247Y-47059523D01*
X144526247Y-47059523D02*
X144478628Y-47011904D01*
X144478628Y-47011904D02*
X144383390Y-46964285D01*
X131884819Y-165988094D02*
X132694342Y-165988094D01*
X132694342Y-165988094D02*
X132789580Y-165940475D01*
X132789580Y-165940475D02*
X132837200Y-165892856D01*
X132837200Y-165892856D02*
X132884819Y-165797618D01*
X132884819Y-165797618D02*
X132884819Y-165607142D01*
X132884819Y-165607142D02*
X132837200Y-165511904D01*
X132837200Y-165511904D02*
X132789580Y-165464285D01*
X132789580Y-165464285D02*
X132694342Y-165416666D01*
X132694342Y-165416666D02*
X131884819Y-165416666D01*
X132884819Y-164416666D02*
X132884819Y-164988094D01*
X132884819Y-164702380D02*
X131884819Y-164702380D01*
X131884819Y-164702380D02*
X132027676Y-164797618D01*
X132027676Y-164797618D02*
X132122914Y-164892856D01*
X132122914Y-164892856D02*
X132170533Y-164988094D01*
X132884819Y-163940475D02*
X132884819Y-163749999D01*
X132884819Y-163749999D02*
X132837200Y-163654761D01*
X132837200Y-163654761D02*
X132789580Y-163607142D01*
X132789580Y-163607142D02*
X132646723Y-163511904D01*
X132646723Y-163511904D02*
X132456247Y-163464285D01*
X132456247Y-163464285D02*
X132075295Y-163464285D01*
X132075295Y-163464285D02*
X131980057Y-163511904D01*
X131980057Y-163511904D02*
X131932438Y-163559523D01*
X131932438Y-163559523D02*
X131884819Y-163654761D01*
X131884819Y-163654761D02*
X131884819Y-163845237D01*
X131884819Y-163845237D02*
X131932438Y-163940475D01*
X131932438Y-163940475D02*
X131980057Y-163988094D01*
X131980057Y-163988094D02*
X132075295Y-164035713D01*
X132075295Y-164035713D02*
X132313390Y-164035713D01*
X132313390Y-164035713D02*
X132408628Y-163988094D01*
X132408628Y-163988094D02*
X132456247Y-163940475D01*
X132456247Y-163940475D02*
X132503866Y-163845237D01*
X132503866Y-163845237D02*
X132503866Y-163654761D01*
X132503866Y-163654761D02*
X132456247Y-163559523D01*
X132456247Y-163559523D02*
X132408628Y-163511904D01*
X132408628Y-163511904D02*
X132313390Y-163464285D01*
X60690476Y-163454819D02*
X60690476Y-164169104D01*
X60690476Y-164169104D02*
X60642857Y-164311961D01*
X60642857Y-164311961D02*
X60547619Y-164407200D01*
X60547619Y-164407200D02*
X60404762Y-164454819D01*
X60404762Y-164454819D02*
X60309524Y-164454819D01*
X61690476Y-164454819D02*
X61119048Y-164454819D01*
X61404762Y-164454819D02*
X61404762Y-163454819D01*
X61404762Y-163454819D02*
X61309524Y-163597676D01*
X61309524Y-163597676D02*
X61214286Y-163692914D01*
X61214286Y-163692914D02*
X61119048Y-163740533D01*
X62071429Y-163550057D02*
X62119048Y-163502438D01*
X62119048Y-163502438D02*
X62214286Y-163454819D01*
X62214286Y-163454819D02*
X62452381Y-163454819D01*
X62452381Y-163454819D02*
X62547619Y-163502438D01*
X62547619Y-163502438D02*
X62595238Y-163550057D01*
X62595238Y-163550057D02*
X62642857Y-163645295D01*
X62642857Y-163645295D02*
X62642857Y-163740533D01*
X62642857Y-163740533D02*
X62595238Y-163883390D01*
X62595238Y-163883390D02*
X62023810Y-164454819D01*
X62023810Y-164454819D02*
X62642857Y-164454819D01*
X48109580Y-52892857D02*
X48157200Y-52940476D01*
X48157200Y-52940476D02*
X48204819Y-53083333D01*
X48204819Y-53083333D02*
X48204819Y-53178571D01*
X48204819Y-53178571D02*
X48157200Y-53321428D01*
X48157200Y-53321428D02*
X48061961Y-53416666D01*
X48061961Y-53416666D02*
X47966723Y-53464285D01*
X47966723Y-53464285D02*
X47776247Y-53511904D01*
X47776247Y-53511904D02*
X47633390Y-53511904D01*
X47633390Y-53511904D02*
X47442914Y-53464285D01*
X47442914Y-53464285D02*
X47347676Y-53416666D01*
X47347676Y-53416666D02*
X47252438Y-53321428D01*
X47252438Y-53321428D02*
X47204819Y-53178571D01*
X47204819Y-53178571D02*
X47204819Y-53083333D01*
X47204819Y-53083333D02*
X47252438Y-52940476D01*
X47252438Y-52940476D02*
X47300057Y-52892857D01*
X47204819Y-52559523D02*
X47204819Y-51940476D01*
X47204819Y-51940476D02*
X47585771Y-52273809D01*
X47585771Y-52273809D02*
X47585771Y-52130952D01*
X47585771Y-52130952D02*
X47633390Y-52035714D01*
X47633390Y-52035714D02*
X47681009Y-51988095D01*
X47681009Y-51988095D02*
X47776247Y-51940476D01*
X47776247Y-51940476D02*
X48014342Y-51940476D01*
X48014342Y-51940476D02*
X48109580Y-51988095D01*
X48109580Y-51988095D02*
X48157200Y-52035714D01*
X48157200Y-52035714D02*
X48204819Y-52130952D01*
X48204819Y-52130952D02*
X48204819Y-52416666D01*
X48204819Y-52416666D02*
X48157200Y-52511904D01*
X48157200Y-52511904D02*
X48109580Y-52559523D01*
X47204819Y-51607142D02*
X47204819Y-50940476D01*
X47204819Y-50940476D02*
X48204819Y-51369047D01*
X138738095Y-165304819D02*
X138738095Y-164304819D01*
X138738095Y-164781009D02*
X139309523Y-164781009D01*
X139309523Y-165304819D02*
X139309523Y-164304819D01*
X140214285Y-164638152D02*
X140214285Y-165304819D01*
X139976190Y-164257200D02*
X139738095Y-164971485D01*
X139738095Y-164971485D02*
X140357142Y-164971485D01*
X54224819Y-98359580D02*
X54177200Y-98407200D01*
X54177200Y-98407200D02*
X54034343Y-98454819D01*
X54034343Y-98454819D02*
X53939105Y-98454819D01*
X53939105Y-98454819D02*
X53796248Y-98407200D01*
X53796248Y-98407200D02*
X53701010Y-98311961D01*
X53701010Y-98311961D02*
X53653391Y-98216723D01*
X53653391Y-98216723D02*
X53605772Y-98026247D01*
X53605772Y-98026247D02*
X53605772Y-97883390D01*
X53605772Y-97883390D02*
X53653391Y-97692914D01*
X53653391Y-97692914D02*
X53701010Y-97597676D01*
X53701010Y-97597676D02*
X53796248Y-97502438D01*
X53796248Y-97502438D02*
X53939105Y-97454819D01*
X53939105Y-97454819D02*
X54034343Y-97454819D01*
X54034343Y-97454819D02*
X54177200Y-97502438D01*
X54177200Y-97502438D02*
X54224819Y-97550057D01*
X54558153Y-97454819D02*
X55177200Y-97454819D01*
X55177200Y-97454819D02*
X54843867Y-97835771D01*
X54843867Y-97835771D02*
X54986724Y-97835771D01*
X54986724Y-97835771D02*
X55081962Y-97883390D01*
X55081962Y-97883390D02*
X55129581Y-97931009D01*
X55129581Y-97931009D02*
X55177200Y-98026247D01*
X55177200Y-98026247D02*
X55177200Y-98264342D01*
X55177200Y-98264342D02*
X55129581Y-98359580D01*
X55129581Y-98359580D02*
X55081962Y-98407200D01*
X55081962Y-98407200D02*
X54986724Y-98454819D01*
X54986724Y-98454819D02*
X54701010Y-98454819D01*
X54701010Y-98454819D02*
X54605772Y-98407200D01*
X54605772Y-98407200D02*
X54558153Y-98359580D01*
X56129581Y-98454819D02*
X55558153Y-98454819D01*
X55843867Y-98454819D02*
X55843867Y-97454819D01*
X55843867Y-97454819D02*
X55748629Y-97597676D01*
X55748629Y-97597676D02*
X55653391Y-97692914D01*
X55653391Y-97692914D02*
X55558153Y-97740533D01*
X52334819Y-112838333D02*
X53049104Y-112838333D01*
X53049104Y-112838333D02*
X53191961Y-112885952D01*
X53191961Y-112885952D02*
X53287200Y-112981190D01*
X53287200Y-112981190D02*
X53334819Y-113124047D01*
X53334819Y-113124047D02*
X53334819Y-113219285D01*
X53334819Y-111838333D02*
X53334819Y-112409761D01*
X53334819Y-112124047D02*
X52334819Y-112124047D01*
X52334819Y-112124047D02*
X52477676Y-112219285D01*
X52477676Y-112219285D02*
X52572914Y-112314523D01*
X52572914Y-112314523D02*
X52620533Y-112409761D01*
X51534819Y-124833333D02*
X52249104Y-124833333D01*
X52249104Y-124833333D02*
X52391961Y-124880952D01*
X52391961Y-124880952D02*
X52487200Y-124976190D01*
X52487200Y-124976190D02*
X52534819Y-125119047D01*
X52534819Y-125119047D02*
X52534819Y-125214285D01*
X51534819Y-123928571D02*
X51534819Y-124119047D01*
X51534819Y-124119047D02*
X51582438Y-124214285D01*
X51582438Y-124214285D02*
X51630057Y-124261904D01*
X51630057Y-124261904D02*
X51772914Y-124357142D01*
X51772914Y-124357142D02*
X51963390Y-124404761D01*
X51963390Y-124404761D02*
X52344342Y-124404761D01*
X52344342Y-124404761D02*
X52439580Y-124357142D01*
X52439580Y-124357142D02*
X52487200Y-124309523D01*
X52487200Y-124309523D02*
X52534819Y-124214285D01*
X52534819Y-124214285D02*
X52534819Y-124023809D01*
X52534819Y-124023809D02*
X52487200Y-123928571D01*
X52487200Y-123928571D02*
X52439580Y-123880952D01*
X52439580Y-123880952D02*
X52344342Y-123833333D01*
X52344342Y-123833333D02*
X52106247Y-123833333D01*
X52106247Y-123833333D02*
X52011009Y-123880952D01*
X52011009Y-123880952D02*
X51963390Y-123928571D01*
X51963390Y-123928571D02*
X51915771Y-124023809D01*
X51915771Y-124023809D02*
X51915771Y-124214285D01*
X51915771Y-124214285D02*
X51963390Y-124309523D01*
X51963390Y-124309523D02*
X52011009Y-124357142D01*
X52011009Y-124357142D02*
X52106247Y-124404761D01*
X149181009Y-142333333D02*
X149181009Y-142666666D01*
X149704819Y-142666666D02*
X148704819Y-142666666D01*
X148704819Y-142666666D02*
X148704819Y-142190476D01*
X149704819Y-141285714D02*
X149704819Y-141857142D01*
X149704819Y-141571428D02*
X148704819Y-141571428D01*
X148704819Y-141571428D02*
X148847676Y-141666666D01*
X148847676Y-141666666D02*
X148942914Y-141761904D01*
X148942914Y-141761904D02*
X148990533Y-141857142D01*
X85404761Y-73490057D02*
X85309523Y-73442438D01*
X85309523Y-73442438D02*
X85214285Y-73347200D01*
X85214285Y-73347200D02*
X85071428Y-73204342D01*
X85071428Y-73204342D02*
X84976190Y-73156723D01*
X84976190Y-73156723D02*
X84880952Y-73156723D01*
X84928571Y-73394819D02*
X84833333Y-73347200D01*
X84833333Y-73347200D02*
X84738095Y-73251961D01*
X84738095Y-73251961D02*
X84690476Y-73061485D01*
X84690476Y-73061485D02*
X84690476Y-72728152D01*
X84690476Y-72728152D02*
X84738095Y-72537676D01*
X84738095Y-72537676D02*
X84833333Y-72442438D01*
X84833333Y-72442438D02*
X84928571Y-72394819D01*
X84928571Y-72394819D02*
X85119047Y-72394819D01*
X85119047Y-72394819D02*
X85214285Y-72442438D01*
X85214285Y-72442438D02*
X85309523Y-72537676D01*
X85309523Y-72537676D02*
X85357142Y-72728152D01*
X85357142Y-72728152D02*
X85357142Y-73061485D01*
X85357142Y-73061485D02*
X85309523Y-73251961D01*
X85309523Y-73251961D02*
X85214285Y-73347200D01*
X85214285Y-73347200D02*
X85119047Y-73394819D01*
X85119047Y-73394819D02*
X84928571Y-73394819D01*
X86309523Y-73394819D02*
X85738095Y-73394819D01*
X86023809Y-73394819D02*
X86023809Y-72394819D01*
X86023809Y-72394819D02*
X85928571Y-72537676D01*
X85928571Y-72537676D02*
X85833333Y-72632914D01*
X85833333Y-72632914D02*
X85738095Y-72680533D01*
D10*
X67207419Y-50416666D02*
X67207419Y-50892856D01*
X67207419Y-50892856D02*
X66207419Y-50892856D01*
X66302657Y-50130951D02*
X66255038Y-50083332D01*
X66255038Y-50083332D02*
X66207419Y-49988094D01*
X66207419Y-49988094D02*
X66207419Y-49749999D01*
X66207419Y-49749999D02*
X66255038Y-49654761D01*
X66255038Y-49654761D02*
X66302657Y-49607142D01*
X66302657Y-49607142D02*
X66397895Y-49559523D01*
X66397895Y-49559523D02*
X66493133Y-49559523D01*
X66493133Y-49559523D02*
X66635990Y-49607142D01*
X66635990Y-49607142D02*
X67207419Y-50178570D01*
X67207419Y-50178570D02*
X67207419Y-49559523D01*
D11*
X114554819Y-158738094D02*
X113554819Y-158738094D01*
X113554819Y-158738094D02*
X113554819Y-158499999D01*
X113554819Y-158499999D02*
X113602438Y-158357142D01*
X113602438Y-158357142D02*
X113697676Y-158261904D01*
X113697676Y-158261904D02*
X113792914Y-158214285D01*
X113792914Y-158214285D02*
X113983390Y-158166666D01*
X113983390Y-158166666D02*
X114126247Y-158166666D01*
X114126247Y-158166666D02*
X114316723Y-158214285D01*
X114316723Y-158214285D02*
X114411961Y-158261904D01*
X114411961Y-158261904D02*
X114507200Y-158357142D01*
X114507200Y-158357142D02*
X114554819Y-158499999D01*
X114554819Y-158499999D02*
X114554819Y-158738094D01*
X113650057Y-157785713D02*
X113602438Y-157738094D01*
X113602438Y-157738094D02*
X113554819Y-157642856D01*
X113554819Y-157642856D02*
X113554819Y-157404761D01*
X113554819Y-157404761D02*
X113602438Y-157309523D01*
X113602438Y-157309523D02*
X113650057Y-157261904D01*
X113650057Y-157261904D02*
X113745295Y-157214285D01*
X113745295Y-157214285D02*
X113840533Y-157214285D01*
X113840533Y-157214285D02*
X113983390Y-157261904D01*
X113983390Y-157261904D02*
X114554819Y-157833332D01*
X114554819Y-157833332D02*
X114554819Y-157214285D01*
X61204819Y-104261904D02*
X62014342Y-104261904D01*
X62014342Y-104261904D02*
X62109580Y-104214285D01*
X62109580Y-104214285D02*
X62157200Y-104166666D01*
X62157200Y-104166666D02*
X62204819Y-104071428D01*
X62204819Y-104071428D02*
X62204819Y-103880952D01*
X62204819Y-103880952D02*
X62157200Y-103785714D01*
X62157200Y-103785714D02*
X62109580Y-103738095D01*
X62109580Y-103738095D02*
X62014342Y-103690476D01*
X62014342Y-103690476D02*
X61204819Y-103690476D01*
X61300057Y-103261904D02*
X61252438Y-103214285D01*
X61252438Y-103214285D02*
X61204819Y-103119047D01*
X61204819Y-103119047D02*
X61204819Y-102880952D01*
X61204819Y-102880952D02*
X61252438Y-102785714D01*
X61252438Y-102785714D02*
X61300057Y-102738095D01*
X61300057Y-102738095D02*
X61395295Y-102690476D01*
X61395295Y-102690476D02*
X61490533Y-102690476D01*
X61490533Y-102690476D02*
X61633390Y-102738095D01*
X61633390Y-102738095D02*
X62204819Y-103309523D01*
X62204819Y-103309523D02*
X62204819Y-102690476D01*
X57859580Y-43416666D02*
X57907200Y-43464285D01*
X57907200Y-43464285D02*
X57954819Y-43607142D01*
X57954819Y-43607142D02*
X57954819Y-43702380D01*
X57954819Y-43702380D02*
X57907200Y-43845237D01*
X57907200Y-43845237D02*
X57811961Y-43940475D01*
X57811961Y-43940475D02*
X57716723Y-43988094D01*
X57716723Y-43988094D02*
X57526247Y-44035713D01*
X57526247Y-44035713D02*
X57383390Y-44035713D01*
X57383390Y-44035713D02*
X57192914Y-43988094D01*
X57192914Y-43988094D02*
X57097676Y-43940475D01*
X57097676Y-43940475D02*
X57002438Y-43845237D01*
X57002438Y-43845237D02*
X56954819Y-43702380D01*
X56954819Y-43702380D02*
X56954819Y-43607142D01*
X56954819Y-43607142D02*
X57002438Y-43464285D01*
X57002438Y-43464285D02*
X57050057Y-43416666D01*
X57050057Y-43035713D02*
X57002438Y-42988094D01*
X57002438Y-42988094D02*
X56954819Y-42892856D01*
X56954819Y-42892856D02*
X56954819Y-42654761D01*
X56954819Y-42654761D02*
X57002438Y-42559523D01*
X57002438Y-42559523D02*
X57050057Y-42511904D01*
X57050057Y-42511904D02*
X57145295Y-42464285D01*
X57145295Y-42464285D02*
X57240533Y-42464285D01*
X57240533Y-42464285D02*
X57383390Y-42511904D01*
X57383390Y-42511904D02*
X57954819Y-43083332D01*
X57954819Y-43083332D02*
X57954819Y-42464285D01*
X147204819Y-68392857D02*
X146728628Y-68726190D01*
X147204819Y-68964285D02*
X146204819Y-68964285D01*
X146204819Y-68964285D02*
X146204819Y-68583333D01*
X146204819Y-68583333D02*
X146252438Y-68488095D01*
X146252438Y-68488095D02*
X146300057Y-68440476D01*
X146300057Y-68440476D02*
X146395295Y-68392857D01*
X146395295Y-68392857D02*
X146538152Y-68392857D01*
X146538152Y-68392857D02*
X146633390Y-68440476D01*
X146633390Y-68440476D02*
X146681009Y-68488095D01*
X146681009Y-68488095D02*
X146728628Y-68583333D01*
X146728628Y-68583333D02*
X146728628Y-68964285D01*
X146204819Y-67488095D02*
X146204819Y-67964285D01*
X146204819Y-67964285D02*
X146681009Y-68011904D01*
X146681009Y-68011904D02*
X146633390Y-67964285D01*
X146633390Y-67964285D02*
X146585771Y-67869047D01*
X146585771Y-67869047D02*
X146585771Y-67630952D01*
X146585771Y-67630952D02*
X146633390Y-67535714D01*
X146633390Y-67535714D02*
X146681009Y-67488095D01*
X146681009Y-67488095D02*
X146776247Y-67440476D01*
X146776247Y-67440476D02*
X147014342Y-67440476D01*
X147014342Y-67440476D02*
X147109580Y-67488095D01*
X147109580Y-67488095D02*
X147157200Y-67535714D01*
X147157200Y-67535714D02*
X147204819Y-67630952D01*
X147204819Y-67630952D02*
X147204819Y-67869047D01*
X147204819Y-67869047D02*
X147157200Y-67964285D01*
X147157200Y-67964285D02*
X147109580Y-68011904D01*
X147204819Y-66488095D02*
X147204819Y-67059523D01*
X147204819Y-66773809D02*
X146204819Y-66773809D01*
X146204819Y-66773809D02*
X146347676Y-66869047D01*
X146347676Y-66869047D02*
X146442914Y-66964285D01*
X146442914Y-66964285D02*
X146490533Y-67059523D01*
X70488095Y-165304819D02*
X70488095Y-164304819D01*
X70488095Y-164781009D02*
X71059523Y-164781009D01*
X71059523Y-165304819D02*
X71059523Y-164304819D01*
X71440476Y-164304819D02*
X72059523Y-164304819D01*
X72059523Y-164304819D02*
X71726190Y-164685771D01*
X71726190Y-164685771D02*
X71869047Y-164685771D01*
X71869047Y-164685771D02*
X71964285Y-164733390D01*
X71964285Y-164733390D02*
X72011904Y-164781009D01*
X72011904Y-164781009D02*
X72059523Y-164876247D01*
X72059523Y-164876247D02*
X72059523Y-165114342D01*
X72059523Y-165114342D02*
X72011904Y-165209580D01*
X72011904Y-165209580D02*
X71964285Y-165257200D01*
X71964285Y-165257200D02*
X71869047Y-165304819D01*
X71869047Y-165304819D02*
X71583333Y-165304819D01*
X71583333Y-165304819D02*
X71488095Y-165257200D01*
X71488095Y-165257200D02*
X71440476Y-165209580D01*
X138738095Y-73304819D02*
X138738095Y-72304819D01*
X138738095Y-72781009D02*
X139309523Y-72781009D01*
X139309523Y-73304819D02*
X139309523Y-72304819D01*
X140309523Y-73304819D02*
X139738095Y-73304819D01*
X140023809Y-73304819D02*
X140023809Y-72304819D01*
X140023809Y-72304819D02*
X139928571Y-72447676D01*
X139928571Y-72447676D02*
X139833333Y-72542914D01*
X139833333Y-72542914D02*
X139738095Y-72590533D01*
X143609580Y-52642857D02*
X143657200Y-52690476D01*
X143657200Y-52690476D02*
X143704819Y-52833333D01*
X143704819Y-52833333D02*
X143704819Y-52928571D01*
X143704819Y-52928571D02*
X143657200Y-53071428D01*
X143657200Y-53071428D02*
X143561961Y-53166666D01*
X143561961Y-53166666D02*
X143466723Y-53214285D01*
X143466723Y-53214285D02*
X143276247Y-53261904D01*
X143276247Y-53261904D02*
X143133390Y-53261904D01*
X143133390Y-53261904D02*
X142942914Y-53214285D01*
X142942914Y-53214285D02*
X142847676Y-53166666D01*
X142847676Y-53166666D02*
X142752438Y-53071428D01*
X142752438Y-53071428D02*
X142704819Y-52928571D01*
X142704819Y-52928571D02*
X142704819Y-52833333D01*
X142704819Y-52833333D02*
X142752438Y-52690476D01*
X142752438Y-52690476D02*
X142800057Y-52642857D01*
X142800057Y-52261904D02*
X142752438Y-52214285D01*
X142752438Y-52214285D02*
X142704819Y-52119047D01*
X142704819Y-52119047D02*
X142704819Y-51880952D01*
X142704819Y-51880952D02*
X142752438Y-51785714D01*
X142752438Y-51785714D02*
X142800057Y-51738095D01*
X142800057Y-51738095D02*
X142895295Y-51690476D01*
X142895295Y-51690476D02*
X142990533Y-51690476D01*
X142990533Y-51690476D02*
X143133390Y-51738095D01*
X143133390Y-51738095D02*
X143704819Y-52309523D01*
X143704819Y-52309523D02*
X143704819Y-51690476D01*
X142704819Y-50785714D02*
X142704819Y-51261904D01*
X142704819Y-51261904D02*
X143181009Y-51309523D01*
X143181009Y-51309523D02*
X143133390Y-51261904D01*
X143133390Y-51261904D02*
X143085771Y-51166666D01*
X143085771Y-51166666D02*
X143085771Y-50928571D01*
X143085771Y-50928571D02*
X143133390Y-50833333D01*
X143133390Y-50833333D02*
X143181009Y-50785714D01*
X143181009Y-50785714D02*
X143276247Y-50738095D01*
X143276247Y-50738095D02*
X143514342Y-50738095D01*
X143514342Y-50738095D02*
X143609580Y-50785714D01*
X143609580Y-50785714D02*
X143657200Y-50833333D01*
X143657200Y-50833333D02*
X143704819Y-50928571D01*
X143704819Y-50928571D02*
X143704819Y-51166666D01*
X143704819Y-51166666D02*
X143657200Y-51261904D01*
X143657200Y-51261904D02*
X143609580Y-51309523D01*
X105404761Y-73490057D02*
X105309523Y-73442438D01*
X105309523Y-73442438D02*
X105214285Y-73347200D01*
X105214285Y-73347200D02*
X105071428Y-73204342D01*
X105071428Y-73204342D02*
X104976190Y-73156723D01*
X104976190Y-73156723D02*
X104880952Y-73156723D01*
X104928571Y-73394819D02*
X104833333Y-73347200D01*
X104833333Y-73347200D02*
X104738095Y-73251961D01*
X104738095Y-73251961D02*
X104690476Y-73061485D01*
X104690476Y-73061485D02*
X104690476Y-72728152D01*
X104690476Y-72728152D02*
X104738095Y-72537676D01*
X104738095Y-72537676D02*
X104833333Y-72442438D01*
X104833333Y-72442438D02*
X104928571Y-72394819D01*
X104928571Y-72394819D02*
X105119047Y-72394819D01*
X105119047Y-72394819D02*
X105214285Y-72442438D01*
X105214285Y-72442438D02*
X105309523Y-72537676D01*
X105309523Y-72537676D02*
X105357142Y-72728152D01*
X105357142Y-72728152D02*
X105357142Y-73061485D01*
X105357142Y-73061485D02*
X105309523Y-73251961D01*
X105309523Y-73251961D02*
X105214285Y-73347200D01*
X105214285Y-73347200D02*
X105119047Y-73394819D01*
X105119047Y-73394819D02*
X104928571Y-73394819D01*
X105738095Y-72490057D02*
X105785714Y-72442438D01*
X105785714Y-72442438D02*
X105880952Y-72394819D01*
X105880952Y-72394819D02*
X106119047Y-72394819D01*
X106119047Y-72394819D02*
X106214285Y-72442438D01*
X106214285Y-72442438D02*
X106261904Y-72490057D01*
X106261904Y-72490057D02*
X106309523Y-72585295D01*
X106309523Y-72585295D02*
X106309523Y-72680533D01*
X106309523Y-72680533D02*
X106261904Y-72823390D01*
X106261904Y-72823390D02*
X105690476Y-73394819D01*
X105690476Y-73394819D02*
X106309523Y-73394819D01*
X106954819Y-144238094D02*
X107764342Y-144238094D01*
X107764342Y-144238094D02*
X107859580Y-144190475D01*
X107859580Y-144190475D02*
X107907200Y-144142856D01*
X107907200Y-144142856D02*
X107954819Y-144047618D01*
X107954819Y-144047618D02*
X107954819Y-143857142D01*
X107954819Y-143857142D02*
X107907200Y-143761904D01*
X107907200Y-143761904D02*
X107859580Y-143714285D01*
X107859580Y-143714285D02*
X107764342Y-143666666D01*
X107764342Y-143666666D02*
X106954819Y-143666666D01*
X107954819Y-142666666D02*
X107954819Y-143238094D01*
X107954819Y-142952380D02*
X106954819Y-142952380D01*
X106954819Y-142952380D02*
X107097676Y-143047618D01*
X107097676Y-143047618D02*
X107192914Y-143142856D01*
X107192914Y-143142856D02*
X107240533Y-143238094D01*
X106954819Y-142047618D02*
X106954819Y-141952380D01*
X106954819Y-141952380D02*
X107002438Y-141857142D01*
X107002438Y-141857142D02*
X107050057Y-141809523D01*
X107050057Y-141809523D02*
X107145295Y-141761904D01*
X107145295Y-141761904D02*
X107335771Y-141714285D01*
X107335771Y-141714285D02*
X107573866Y-141714285D01*
X107573866Y-141714285D02*
X107764342Y-141761904D01*
X107764342Y-141761904D02*
X107859580Y-141809523D01*
X107859580Y-141809523D02*
X107907200Y-141857142D01*
X107907200Y-141857142D02*
X107954819Y-141952380D01*
X107954819Y-141952380D02*
X107954819Y-142047618D01*
X107954819Y-142047618D02*
X107907200Y-142142856D01*
X107907200Y-142142856D02*
X107859580Y-142190475D01*
X107859580Y-142190475D02*
X107764342Y-142238094D01*
X107764342Y-142238094D02*
X107573866Y-142285713D01*
X107573866Y-142285713D02*
X107335771Y-142285713D01*
X107335771Y-142285713D02*
X107145295Y-142238094D01*
X107145295Y-142238094D02*
X107050057Y-142190475D01*
X107050057Y-142190475D02*
X107002438Y-142142856D01*
X107002438Y-142142856D02*
X106954819Y-142047618D01*
X145704819Y-86559523D02*
X144704819Y-86559523D01*
X144704819Y-86559523D02*
X145419104Y-86226190D01*
X145419104Y-86226190D02*
X144704819Y-85892857D01*
X144704819Y-85892857D02*
X145704819Y-85892857D01*
X145704819Y-84892857D02*
X145704819Y-85464285D01*
X145704819Y-85178571D02*
X144704819Y-85178571D01*
X144704819Y-85178571D02*
X144847676Y-85273809D01*
X144847676Y-85273809D02*
X144942914Y-85369047D01*
X144942914Y-85369047D02*
X144990533Y-85464285D01*
X125404761Y-73490057D02*
X125309523Y-73442438D01*
X125309523Y-73442438D02*
X125214285Y-73347200D01*
X125214285Y-73347200D02*
X125071428Y-73204342D01*
X125071428Y-73204342D02*
X124976190Y-73156723D01*
X124976190Y-73156723D02*
X124880952Y-73156723D01*
X124928571Y-73394819D02*
X124833333Y-73347200D01*
X124833333Y-73347200D02*
X124738095Y-73251961D01*
X124738095Y-73251961D02*
X124690476Y-73061485D01*
X124690476Y-73061485D02*
X124690476Y-72728152D01*
X124690476Y-72728152D02*
X124738095Y-72537676D01*
X124738095Y-72537676D02*
X124833333Y-72442438D01*
X124833333Y-72442438D02*
X124928571Y-72394819D01*
X124928571Y-72394819D02*
X125119047Y-72394819D01*
X125119047Y-72394819D02*
X125214285Y-72442438D01*
X125214285Y-72442438D02*
X125309523Y-72537676D01*
X125309523Y-72537676D02*
X125357142Y-72728152D01*
X125357142Y-72728152D02*
X125357142Y-73061485D01*
X125357142Y-73061485D02*
X125309523Y-73251961D01*
X125309523Y-73251961D02*
X125214285Y-73347200D01*
X125214285Y-73347200D02*
X125119047Y-73394819D01*
X125119047Y-73394819D02*
X124928571Y-73394819D01*
X126214285Y-72394819D02*
X126023809Y-72394819D01*
X126023809Y-72394819D02*
X125928571Y-72442438D01*
X125928571Y-72442438D02*
X125880952Y-72490057D01*
X125880952Y-72490057D02*
X125785714Y-72632914D01*
X125785714Y-72632914D02*
X125738095Y-72823390D01*
X125738095Y-72823390D02*
X125738095Y-73204342D01*
X125738095Y-73204342D02*
X125785714Y-73299580D01*
X125785714Y-73299580D02*
X125833333Y-73347200D01*
X125833333Y-73347200D02*
X125928571Y-73394819D01*
X125928571Y-73394819D02*
X126119047Y-73394819D01*
X126119047Y-73394819D02*
X126214285Y-73347200D01*
X126214285Y-73347200D02*
X126261904Y-73299580D01*
X126261904Y-73299580D02*
X126309523Y-73204342D01*
X126309523Y-73204342D02*
X126309523Y-72966247D01*
X126309523Y-72966247D02*
X126261904Y-72871009D01*
X126261904Y-72871009D02*
X126214285Y-72823390D01*
X126214285Y-72823390D02*
X126119047Y-72775771D01*
X126119047Y-72775771D02*
X125928571Y-72775771D01*
X125928571Y-72775771D02*
X125833333Y-72823390D01*
X125833333Y-72823390D02*
X125785714Y-72871009D01*
X125785714Y-72871009D02*
X125738095Y-72966247D01*
X70488095Y-73304819D02*
X70488095Y-72304819D01*
X70488095Y-72781009D02*
X71059523Y-72781009D01*
X71059523Y-73304819D02*
X71059523Y-72304819D01*
X71488095Y-72400057D02*
X71535714Y-72352438D01*
X71535714Y-72352438D02*
X71630952Y-72304819D01*
X71630952Y-72304819D02*
X71869047Y-72304819D01*
X71869047Y-72304819D02*
X71964285Y-72352438D01*
X71964285Y-72352438D02*
X72011904Y-72400057D01*
X72011904Y-72400057D02*
X72059523Y-72495295D01*
X72059523Y-72495295D02*
X72059523Y-72590533D01*
X72059523Y-72590533D02*
X72011904Y-72733390D01*
X72011904Y-72733390D02*
X71440476Y-73304819D01*
X71440476Y-73304819D02*
X72059523Y-73304819D01*
X68359580Y-73892857D02*
X68407200Y-73940476D01*
X68407200Y-73940476D02*
X68454819Y-74083333D01*
X68454819Y-74083333D02*
X68454819Y-74178571D01*
X68454819Y-74178571D02*
X68407200Y-74321428D01*
X68407200Y-74321428D02*
X68311961Y-74416666D01*
X68311961Y-74416666D02*
X68216723Y-74464285D01*
X68216723Y-74464285D02*
X68026247Y-74511904D01*
X68026247Y-74511904D02*
X67883390Y-74511904D01*
X67883390Y-74511904D02*
X67692914Y-74464285D01*
X67692914Y-74464285D02*
X67597676Y-74416666D01*
X67597676Y-74416666D02*
X67502438Y-74321428D01*
X67502438Y-74321428D02*
X67454819Y-74178571D01*
X67454819Y-74178571D02*
X67454819Y-74083333D01*
X67454819Y-74083333D02*
X67502438Y-73940476D01*
X67502438Y-73940476D02*
X67550057Y-73892857D01*
X67454819Y-73559523D02*
X67454819Y-72940476D01*
X67454819Y-72940476D02*
X67835771Y-73273809D01*
X67835771Y-73273809D02*
X67835771Y-73130952D01*
X67835771Y-73130952D02*
X67883390Y-73035714D01*
X67883390Y-73035714D02*
X67931009Y-72988095D01*
X67931009Y-72988095D02*
X68026247Y-72940476D01*
X68026247Y-72940476D02*
X68264342Y-72940476D01*
X68264342Y-72940476D02*
X68359580Y-72988095D01*
X68359580Y-72988095D02*
X68407200Y-73035714D01*
X68407200Y-73035714D02*
X68454819Y-73130952D01*
X68454819Y-73130952D02*
X68454819Y-73416666D01*
X68454819Y-73416666D02*
X68407200Y-73511904D01*
X68407200Y-73511904D02*
X68359580Y-73559523D01*
X67454819Y-72321428D02*
X67454819Y-72226190D01*
X67454819Y-72226190D02*
X67502438Y-72130952D01*
X67502438Y-72130952D02*
X67550057Y-72083333D01*
X67550057Y-72083333D02*
X67645295Y-72035714D01*
X67645295Y-72035714D02*
X67835771Y-71988095D01*
X67835771Y-71988095D02*
X68073866Y-71988095D01*
X68073866Y-71988095D02*
X68264342Y-72035714D01*
X68264342Y-72035714D02*
X68359580Y-72083333D01*
X68359580Y-72083333D02*
X68407200Y-72130952D01*
X68407200Y-72130952D02*
X68454819Y-72226190D01*
X68454819Y-72226190D02*
X68454819Y-72321428D01*
X68454819Y-72321428D02*
X68407200Y-72416666D01*
X68407200Y-72416666D02*
X68359580Y-72464285D01*
X68359580Y-72464285D02*
X68264342Y-72511904D01*
X68264342Y-72511904D02*
X68073866Y-72559523D01*
X68073866Y-72559523D02*
X67835771Y-72559523D01*
X67835771Y-72559523D02*
X67645295Y-72511904D01*
X67645295Y-72511904D02*
X67550057Y-72464285D01*
X67550057Y-72464285D02*
X67502438Y-72416666D01*
X67502438Y-72416666D02*
X67454819Y-72321428D01*
X65704819Y-153011904D02*
X65704819Y-152440476D01*
X66704819Y-152726190D02*
X65704819Y-152726190D01*
X66704819Y-151583333D02*
X66704819Y-152154761D01*
X66704819Y-151869047D02*
X65704819Y-151869047D01*
X65704819Y-151869047D02*
X65847676Y-151964285D01*
X65847676Y-151964285D02*
X65942914Y-152059523D01*
X65942914Y-152059523D02*
X65990533Y-152154761D01*
D12*
%TO.C,J11*%
X52872500Y-133953900D02*
X52872500Y-135046100D01*
X52872500Y-135046100D02*
X53296550Y-135046100D01*
X53296550Y-133953900D02*
X52872500Y-133953900D01*
X55623450Y-135046100D02*
X58376550Y-135046100D01*
X58376550Y-133953900D02*
X55623450Y-133953900D01*
X60703450Y-135046100D02*
X61127500Y-135046100D01*
X61127500Y-133953900D02*
X60703450Y-133953900D01*
X61127500Y-135046100D02*
X61127500Y-133953900D01*
D13*
%TO.C,U8*%
X61940000Y-89390000D02*
X66560000Y-89390000D01*
X61940000Y-92650000D02*
X63320000Y-92650000D01*
X61940000Y-96350000D02*
X63320000Y-96350000D01*
X61940000Y-99610000D02*
X61940000Y-89390000D01*
X63320000Y-99610000D02*
X63320000Y-89390000D01*
X66560000Y-89390000D02*
X66560000Y-99610000D01*
X66560000Y-99610000D02*
X61940000Y-99610000D01*
D10*
%TO.C,NE1*%
X152350000Y-72750000D02*
G75*
G02*
X146150000Y-72750000I-3100000J0D01*
G01*
X146150000Y-72750000D02*
G75*
G02*
X152350000Y-72750000I3100000J0D01*
G01*
D13*
%TO.C,C9*%
X123510000Y-50550000D02*
X108394000Y-50550000D01*
X123510000Y-50590000D02*
X108400000Y-50590000D01*
X123510000Y-50630000D02*
X108407000Y-50630000D01*
X123510000Y-50670000D02*
X108414000Y-50670000D01*
X123510000Y-50710000D02*
X108420000Y-50710000D01*
X123510000Y-50750000D02*
X108427000Y-50750000D01*
X123510000Y-50790000D02*
X108434000Y-50790000D01*
X123510000Y-50830000D02*
X108441000Y-50830000D01*
X123510000Y-50870000D02*
X108448000Y-50870000D01*
X123510000Y-50910000D02*
X108456000Y-50910000D01*
X123510000Y-50950000D02*
X108463000Y-50950000D01*
X123510000Y-50990000D02*
X108470000Y-50990000D01*
X123510000Y-51030000D02*
X108478000Y-51030000D01*
X123510000Y-51070000D02*
X108486000Y-51070000D01*
X123510000Y-51110000D02*
X108493000Y-51110000D01*
X123510000Y-51150000D02*
X108501000Y-51150000D01*
X123510000Y-51190000D02*
X108509000Y-51190000D01*
X123510000Y-51230000D02*
X108517000Y-51230000D01*
X123510000Y-51270000D02*
X108525000Y-51270000D01*
X123510000Y-51310000D02*
X108533000Y-51310000D01*
X123510000Y-51350000D02*
X108542000Y-51350000D01*
X123510000Y-51390000D02*
X108550000Y-51390000D01*
X123510000Y-51430000D02*
X108559000Y-51430000D01*
X123510000Y-51470000D02*
X108567000Y-51470000D01*
X123510000Y-51510000D02*
X108576000Y-51510000D01*
X123510000Y-51550000D02*
X108585000Y-51550000D01*
X123510000Y-51590000D02*
X108594000Y-51590000D01*
X123510000Y-51630000D02*
X108603000Y-51630000D01*
X123510000Y-51670000D02*
X108612000Y-51670000D01*
X123510000Y-51710000D02*
X108621000Y-51710000D01*
X123510000Y-51750000D02*
X108630000Y-51750000D01*
X123510000Y-51790000D02*
X108639000Y-51790000D01*
X123510000Y-51830000D02*
X108649000Y-51830000D01*
X123510000Y-51870000D02*
X108658000Y-51870000D01*
X123510000Y-51910000D02*
X108668000Y-51910000D01*
X123510000Y-51950000D02*
X108678000Y-51950000D01*
X123510000Y-51990000D02*
X108688000Y-51990000D01*
X123510000Y-52030000D02*
X108698000Y-52030000D01*
X123510000Y-52070000D02*
X108708000Y-52070000D01*
X123510000Y-52110000D02*
X108718000Y-52110000D01*
X123510000Y-52150000D02*
X108728000Y-52150000D01*
X123510000Y-52190000D02*
X108739000Y-52190000D01*
X123510000Y-52230000D02*
X108749000Y-52230000D01*
X123510000Y-52270000D02*
X108760000Y-52270000D01*
X123510000Y-52310000D02*
X108770000Y-52310000D01*
X123510000Y-52350000D02*
X108781000Y-52350000D01*
X123510000Y-52390000D02*
X108792000Y-52390000D01*
X123510000Y-52430000D02*
X108803000Y-52430000D01*
X123510000Y-52470000D02*
X108814000Y-52470000D01*
X123510000Y-52510000D02*
X108825000Y-52510000D01*
X123510000Y-52550000D02*
X108836000Y-52550000D01*
X123510000Y-52590000D02*
X108848000Y-52590000D01*
X123510000Y-52630000D02*
X108859000Y-52630000D01*
X123510000Y-52670000D02*
X108871000Y-52670000D01*
X123510000Y-52710000D02*
X108883000Y-52710000D01*
X123510000Y-52750000D02*
X108894000Y-52750000D01*
X123510000Y-52790000D02*
X108906000Y-52790000D01*
X123510000Y-52830000D02*
X108918000Y-52830000D01*
X123510000Y-52870000D02*
X108930000Y-52870000D01*
X123510000Y-52910000D02*
X108942000Y-52910000D01*
X123510000Y-52950000D02*
X108955000Y-52950000D01*
X123510000Y-52990000D02*
X108967000Y-52990000D01*
X123510000Y-53030000D02*
X108980000Y-53030000D01*
X123510000Y-53070000D02*
X108992000Y-53070000D01*
X123510000Y-53110000D02*
X109005000Y-53110000D01*
X123510000Y-53150000D02*
X109018000Y-53150000D01*
X123510000Y-53190000D02*
X109031000Y-53190000D01*
X123510000Y-53230000D02*
X109044000Y-53230000D01*
X123510000Y-53270000D02*
X109057000Y-53270000D01*
X123510000Y-53310000D02*
X109070000Y-53310000D01*
X123510000Y-53350000D02*
X109084000Y-53350000D01*
X123510000Y-53390000D02*
X109097000Y-53390000D01*
X123510000Y-53430000D02*
X109111000Y-53430000D01*
X123510000Y-53470000D02*
X109124000Y-53470000D01*
X123510000Y-53510000D02*
X109138000Y-53510000D01*
X123510000Y-53550000D02*
X109152000Y-53550000D01*
X123510000Y-53590000D02*
X109166000Y-53590000D01*
X123510000Y-53630000D02*
X109180000Y-53630000D01*
X123510000Y-53670000D02*
X109194000Y-53670000D01*
X123510000Y-53710000D02*
X109209000Y-53710000D01*
X123510000Y-53750000D02*
X109223000Y-53750000D01*
X123510000Y-53790000D02*
X109238000Y-53790000D01*
X123510000Y-53830000D02*
X109252000Y-53830000D01*
X123510000Y-53870000D02*
X109267000Y-53870000D01*
X123510000Y-53910000D02*
X109282000Y-53910000D01*
X123510000Y-53950000D02*
X109297000Y-53950000D01*
X123510000Y-53990000D02*
X109312000Y-53990000D01*
X123510000Y-54030000D02*
X109327000Y-54030000D01*
X123510000Y-54070000D02*
X109342000Y-54070000D01*
X123510000Y-54110000D02*
X109358000Y-54110000D01*
X123510000Y-54150000D02*
X109373000Y-54150000D01*
X123510000Y-54190000D02*
X109389000Y-54190000D01*
X123510000Y-54230000D02*
X109405000Y-54230000D01*
X123510000Y-54270000D02*
X109421000Y-54270000D01*
X123510000Y-54310000D02*
X109437000Y-54310000D01*
X123510000Y-54350000D02*
X109453000Y-54350000D01*
X123510000Y-54390000D02*
X109469000Y-54390000D01*
X123510000Y-54430000D02*
X109485000Y-54430000D01*
X123510000Y-54470000D02*
X109502000Y-54470000D01*
X123510000Y-54510000D02*
X109518000Y-54510000D01*
X123510000Y-54550000D02*
X109535000Y-54550000D01*
X123510000Y-54590000D02*
X109552000Y-54590000D01*
X123510000Y-54630000D02*
X109569000Y-54630000D01*
X123510000Y-54670000D02*
X109586000Y-54670000D01*
X123510000Y-54710000D02*
X109603000Y-54710000D01*
X123510000Y-54750000D02*
X109620000Y-54750000D01*
X123510000Y-54790000D02*
X109638000Y-54790000D01*
X123510000Y-54830000D02*
X109655000Y-54830000D01*
X123510000Y-54870000D02*
X109673000Y-54870000D01*
X123510000Y-54910000D02*
X109690000Y-54910000D01*
X123510000Y-54950000D02*
X109708000Y-54950000D01*
X126549000Y-65350000D02*
X124951000Y-65350000D01*
X127163000Y-65310000D02*
X124337000Y-65310000D01*
X127585000Y-65270000D02*
X123915000Y-65270000D01*
X127927000Y-65230000D02*
X123573000Y-65230000D01*
X128222000Y-65190000D02*
X123278000Y-65190000D01*
X128486000Y-65150000D02*
X123014000Y-65150000D01*
X128726000Y-65110000D02*
X122774000Y-65110000D01*
X128948000Y-65070000D02*
X122552000Y-65070000D01*
X129155000Y-65030000D02*
X122345000Y-65030000D01*
X129350000Y-64990000D02*
X122150000Y-64990000D01*
X129534000Y-64950000D02*
X121966000Y-64950000D01*
X129710000Y-64910000D02*
X121790000Y-64910000D01*
X129878000Y-64870000D02*
X121622000Y-64870000D01*
X130039000Y-64830000D02*
X121461000Y-64830000D01*
X130194000Y-64790000D02*
X121306000Y-64790000D01*
X130343000Y-64750000D02*
X121157000Y-64750000D01*
X130487000Y-64710000D02*
X121013000Y-64710000D01*
X130627000Y-64670000D02*
X120873000Y-64670000D01*
X130763000Y-64630000D02*
X120737000Y-64630000D01*
X130894000Y-64590000D02*
X120606000Y-64590000D01*
X131023000Y-64550000D02*
X120477000Y-64550000D01*
X131148000Y-64510000D02*
X120352000Y-64510000D01*
X131269000Y-64470000D02*
X120231000Y-64470000D01*
X131388000Y-64430000D02*
X120112000Y-64430000D01*
X131504000Y-64390000D02*
X119996000Y-64390000D01*
X131618000Y-64350000D02*
X119882000Y-64350000D01*
X131729000Y-64310000D02*
X119771000Y-64310000D01*
X131838000Y-64270000D02*
X119662000Y-64270000D01*
X131945000Y-64230000D02*
X119555000Y-64230000D01*
X132050000Y-64190000D02*
X119450000Y-64190000D01*
X132152000Y-64150000D02*
X119348000Y-64150000D01*
X132253000Y-64110000D02*
X119247000Y-64110000D01*
X132352000Y-64070000D02*
X119148000Y-64070000D01*
X132450000Y-64030000D02*
X119050000Y-64030000D01*
X132546000Y-63990000D02*
X118954000Y-63990000D01*
X132640000Y-63950000D02*
X118860000Y-63950000D01*
X132733000Y-63910000D02*
X118767000Y-63910000D01*
X132824000Y-63870000D02*
X118676000Y-63870000D01*
X132914000Y-63830000D02*
X118586000Y-63830000D01*
X133003000Y-63790000D02*
X118497000Y-63790000D01*
X133090000Y-63750000D02*
X118410000Y-63750000D01*
X133176000Y-63710000D02*
X118324000Y-63710000D01*
X133261000Y-63670000D02*
X118239000Y-63670000D01*
X133345000Y-63630000D02*
X118155000Y-63630000D01*
X133427000Y-63590000D02*
X118073000Y-63590000D01*
X133509000Y-63550000D02*
X117991000Y-63550000D01*
X133590000Y-63510000D02*
X117910000Y-63510000D01*
X133669000Y-63470000D02*
X117831000Y-63470000D01*
X133748000Y-63430000D02*
X117752000Y-63430000D01*
X133825000Y-63390000D02*
X117675000Y-63390000D01*
X133902000Y-63350000D02*
X117598000Y-63350000D01*
X133977000Y-63310000D02*
X117523000Y-63310000D01*
X134052000Y-63270000D02*
X117448000Y-63270000D01*
X134126000Y-63230000D02*
X117374000Y-63230000D01*
X134199000Y-63190000D02*
X117301000Y-63190000D01*
X134272000Y-63150000D02*
X117228000Y-63150000D01*
X134343000Y-63110000D02*
X117157000Y-63110000D01*
X134414000Y-63070000D02*
X117086000Y-63070000D01*
X134484000Y-63030000D02*
X117016000Y-63030000D01*
X134553000Y-62990000D02*
X116947000Y-62990000D01*
X134622000Y-62950000D02*
X116878000Y-62950000D01*
X134690000Y-62910000D02*
X116810000Y-62910000D01*
X134757000Y-62870000D02*
X116743000Y-62870000D01*
X134824000Y-62830000D02*
X116676000Y-62830000D01*
X134889000Y-62790000D02*
X116611000Y-62790000D01*
X134955000Y-62750000D02*
X116545000Y-62750000D01*
X135019000Y-62710000D02*
X116481000Y-62710000D01*
X135083000Y-62670000D02*
X116417000Y-62670000D01*
X135147000Y-62630000D02*
X116353000Y-62630000D01*
X135209000Y-62590000D02*
X116291000Y-62590000D01*
X135272000Y-62550000D02*
X116228000Y-62550000D01*
X135333000Y-62510000D02*
X116167000Y-62510000D01*
X135394000Y-62470000D02*
X116106000Y-62470000D01*
X135455000Y-62430000D02*
X116045000Y-62430000D01*
X135515000Y-62390000D02*
X115985000Y-62390000D01*
X135574000Y-62350000D02*
X115926000Y-62350000D01*
X135625000Y-28895998D02*
X135625000Y-32395998D01*
X135633000Y-62310000D02*
X115867000Y-62310000D01*
X135692000Y-62270000D02*
X115808000Y-62270000D01*
X135750000Y-62230000D02*
X115750000Y-62230000D01*
X135807000Y-62190000D02*
X115693000Y-62190000D01*
X135864000Y-62150000D02*
X115636000Y-62150000D01*
X135921000Y-62110000D02*
X115579000Y-62110000D01*
X135977000Y-62070000D02*
X115523000Y-62070000D01*
X136032000Y-62030000D02*
X115468000Y-62030000D01*
X136087000Y-61990000D02*
X115413000Y-61990000D01*
X136142000Y-61950000D02*
X115358000Y-61950000D01*
X136196000Y-61910000D02*
X115304000Y-61910000D01*
X136250000Y-61870000D02*
X115250000Y-61870000D01*
X136303000Y-61830000D02*
X115197000Y-61830000D01*
X136356000Y-61790000D02*
X115144000Y-61790000D01*
X136409000Y-61750000D02*
X115091000Y-61750000D01*
X136461000Y-61710000D02*
X115039000Y-61710000D01*
X136513000Y-61670000D02*
X114987000Y-61670000D01*
X136564000Y-61630000D02*
X114936000Y-61630000D01*
X136615000Y-61590000D02*
X114885000Y-61590000D01*
X136666000Y-61550000D02*
X114834000Y-61550000D01*
X136716000Y-61510000D02*
X114784000Y-61510000D01*
X136766000Y-61470000D02*
X114734000Y-61470000D01*
X136815000Y-61430000D02*
X114685000Y-61430000D01*
X136864000Y-61390000D02*
X114636000Y-61390000D01*
X136913000Y-61350000D02*
X114587000Y-61350000D01*
X136961000Y-61310000D02*
X114539000Y-61310000D01*
X137009000Y-61270000D02*
X114491000Y-61270000D01*
X137057000Y-61230000D02*
X114443000Y-61230000D01*
X137104000Y-61190000D02*
X114396000Y-61190000D01*
X137151000Y-61150000D02*
X114349000Y-61150000D01*
X137198000Y-61110000D02*
X114302000Y-61110000D01*
X137244000Y-61070000D02*
X114256000Y-61070000D01*
X137290000Y-61030000D02*
X114210000Y-61030000D01*
X137336000Y-60990000D02*
X114164000Y-60990000D01*
X137375000Y-30645998D02*
X133875000Y-30645998D01*
X137382000Y-60950000D02*
X114118000Y-60950000D01*
X137427000Y-60910000D02*
X114073000Y-60910000D01*
X137471000Y-60870000D02*
X114029000Y-60870000D01*
X137516000Y-60830000D02*
X113984000Y-60830000D01*
X137560000Y-60790000D02*
X113940000Y-60790000D01*
X137604000Y-60750000D02*
X113896000Y-60750000D01*
X137647000Y-60710000D02*
X113853000Y-60710000D01*
X137691000Y-60670000D02*
X113809000Y-60670000D01*
X137734000Y-60630000D02*
X113766000Y-60630000D01*
X137776000Y-60590000D02*
X113724000Y-60590000D01*
X137819000Y-60550000D02*
X113681000Y-60550000D01*
X137861000Y-60510000D02*
X113639000Y-60510000D01*
X137903000Y-60470000D02*
X113597000Y-60470000D01*
X137944000Y-60430000D02*
X113556000Y-60430000D01*
X137986000Y-60390000D02*
X113514000Y-60390000D01*
X138027000Y-60350000D02*
X113473000Y-60350000D01*
X138068000Y-60310000D02*
X113432000Y-60310000D01*
X138108000Y-60270000D02*
X113392000Y-60270000D01*
X138148000Y-60230000D02*
X113352000Y-60230000D01*
X138188000Y-60190000D02*
X113312000Y-60190000D01*
X138228000Y-60150000D02*
X113272000Y-60150000D01*
X138268000Y-60110000D02*
X113232000Y-60110000D01*
X138307000Y-60070000D02*
X113193000Y-60070000D01*
X138346000Y-60030000D02*
X113154000Y-60030000D01*
X138385000Y-59990000D02*
X113115000Y-59990000D01*
X138423000Y-59950000D02*
X113077000Y-59950000D01*
X138461000Y-59910000D02*
X113039000Y-59910000D01*
X138499000Y-59870000D02*
X113001000Y-59870000D01*
X138537000Y-59830000D02*
X112963000Y-59830000D01*
X138575000Y-59790000D02*
X112925000Y-59790000D01*
X138612000Y-59750000D02*
X112888000Y-59750000D01*
X138649000Y-59710000D02*
X112851000Y-59710000D01*
X138686000Y-59670000D02*
X112814000Y-59670000D01*
X138723000Y-59630000D02*
X112777000Y-59630000D01*
X138759000Y-59590000D02*
X112741000Y-59590000D01*
X138795000Y-59550000D02*
X112705000Y-59550000D01*
X138831000Y-59510000D02*
X112669000Y-59510000D01*
X138867000Y-59470000D02*
X112633000Y-59470000D01*
X138902000Y-59430000D02*
X112598000Y-59430000D01*
X138938000Y-59390000D02*
X112562000Y-59390000D01*
X138973000Y-59350000D02*
X112527000Y-59350000D01*
X139008000Y-59310000D02*
X112492000Y-59310000D01*
X139042000Y-59270000D02*
X112458000Y-59270000D01*
X139077000Y-59230000D02*
X112423000Y-59230000D01*
X139111000Y-59190000D02*
X112389000Y-59190000D01*
X139145000Y-59150000D02*
X112355000Y-59150000D01*
X139179000Y-59110000D02*
X112321000Y-59110000D01*
X139213000Y-59070000D02*
X112287000Y-59070000D01*
X139246000Y-59030000D02*
X112254000Y-59030000D01*
X139279000Y-58990000D02*
X112221000Y-58990000D01*
X139312000Y-58950000D02*
X112188000Y-58950000D01*
X139345000Y-58910000D02*
X112155000Y-58910000D01*
X139378000Y-58870000D02*
X112122000Y-58870000D01*
X139410000Y-58830000D02*
X112090000Y-58830000D01*
X139443000Y-58790000D02*
X112057000Y-58790000D01*
X139475000Y-58750000D02*
X112025000Y-58750000D01*
X139506000Y-58710000D02*
X111994000Y-58710000D01*
X139538000Y-58670000D02*
X111962000Y-58670000D01*
X139570000Y-58630000D02*
X111930000Y-58630000D01*
X139601000Y-58590000D02*
X111899000Y-58590000D01*
X139632000Y-58550000D02*
X111868000Y-58550000D01*
X139663000Y-58510000D02*
X111837000Y-58510000D01*
X139694000Y-58470000D02*
X111806000Y-58470000D01*
X139724000Y-58430000D02*
X111776000Y-58430000D01*
X139755000Y-58390000D02*
X111745000Y-58390000D01*
X139785000Y-58350000D02*
X111715000Y-58350000D01*
X139815000Y-58310000D02*
X111685000Y-58310000D01*
X139845000Y-58270000D02*
X111655000Y-58270000D01*
X139875000Y-58230000D02*
X111625000Y-58230000D01*
X139904000Y-58190000D02*
X111596000Y-58190000D01*
X139933000Y-58150000D02*
X111567000Y-58150000D01*
X139963000Y-58110000D02*
X111537000Y-58110000D01*
X139992000Y-58070000D02*
X111508000Y-58070000D01*
X140020000Y-58030000D02*
X111480000Y-58030000D01*
X140049000Y-57990000D02*
X111451000Y-57990000D01*
X140077000Y-57950000D02*
X111423000Y-57950000D01*
X140106000Y-57910000D02*
X111394000Y-57910000D01*
X140134000Y-57870000D02*
X111366000Y-57870000D01*
X140162000Y-57830000D02*
X111338000Y-57830000D01*
X140190000Y-57790000D02*
X111310000Y-57790000D01*
X140217000Y-57750000D02*
X111283000Y-57750000D01*
X140245000Y-57710000D02*
X111255000Y-57710000D01*
X140272000Y-57670000D02*
X111228000Y-57670000D01*
X140299000Y-57630000D02*
X111201000Y-57630000D01*
X140326000Y-57590000D02*
X111174000Y-57590000D01*
X140353000Y-57550000D02*
X111147000Y-57550000D01*
X140380000Y-57510000D02*
X111120000Y-57510000D01*
X140406000Y-57470000D02*
X111094000Y-57470000D01*
X140433000Y-57430000D02*
X111067000Y-57430000D01*
X140459000Y-57390000D02*
X111041000Y-57390000D01*
X140485000Y-57350000D02*
X111015000Y-57350000D01*
X140511000Y-57310000D02*
X110989000Y-57310000D01*
X140537000Y-57270000D02*
X110963000Y-57270000D01*
X140562000Y-57230000D02*
X110938000Y-57230000D01*
X140588000Y-57190000D02*
X110912000Y-57190000D01*
X140613000Y-57150000D02*
X110887000Y-57150000D01*
X140638000Y-57110000D02*
X110862000Y-57110000D01*
X140663000Y-57070000D02*
X110837000Y-57070000D01*
X140688000Y-57030000D02*
X110812000Y-57030000D01*
X140713000Y-56990000D02*
X110787000Y-56990000D01*
X140737000Y-56950000D02*
X110763000Y-56950000D01*
X140762000Y-56910000D02*
X110738000Y-56910000D01*
X140786000Y-56870000D02*
X110714000Y-56870000D01*
X140810000Y-56830000D02*
X110690000Y-56830000D01*
X140834000Y-56790000D02*
X110666000Y-56790000D01*
X140858000Y-56750000D02*
X110642000Y-56750000D01*
X140882000Y-56710000D02*
X110618000Y-56710000D01*
X140905000Y-56670000D02*
X110595000Y-56670000D01*
X140929000Y-56630000D02*
X110571000Y-56630000D01*
X140952000Y-56590000D02*
X110548000Y-56590000D01*
X140975000Y-56550000D02*
X110525000Y-56550000D01*
X140998000Y-56510000D02*
X110502000Y-56510000D01*
X141021000Y-56470000D02*
X110479000Y-56470000D01*
X141044000Y-56430000D02*
X110456000Y-56430000D01*
X141066000Y-56390000D02*
X110434000Y-56390000D01*
X141089000Y-56350000D02*
X110411000Y-56350000D01*
X141111000Y-56310000D02*
X110389000Y-56310000D01*
X141133000Y-56270000D02*
X110367000Y-56270000D01*
X141155000Y-56230000D02*
X110345000Y-56230000D01*
X141177000Y-56190000D02*
X110323000Y-56190000D01*
X141199000Y-56150000D02*
X110301000Y-56150000D01*
X141220000Y-56110000D02*
X110280000Y-56110000D01*
X141242000Y-56070000D02*
X110258000Y-56070000D01*
X141263000Y-56030000D02*
X110237000Y-56030000D01*
X141285000Y-55990000D02*
X110215000Y-55990000D01*
X141306000Y-55950000D02*
X110194000Y-55950000D01*
X141327000Y-55910000D02*
X110173000Y-55910000D01*
X141347000Y-55870000D02*
X110153000Y-55870000D01*
X141368000Y-55830000D02*
X110132000Y-55830000D01*
X141389000Y-55790000D02*
X110111000Y-55790000D01*
X141409000Y-55750000D02*
X110091000Y-55750000D01*
X141430000Y-55710000D02*
X110070000Y-55710000D01*
X141450000Y-55670000D02*
X110050000Y-55670000D01*
X141470000Y-55630000D02*
X110030000Y-55630000D01*
X141490000Y-55590000D02*
X110010000Y-55590000D01*
X141510000Y-55550000D02*
X109990000Y-55550000D01*
X141529000Y-55510000D02*
X109971000Y-55510000D01*
X141549000Y-55470000D02*
X109951000Y-55470000D01*
X141568000Y-55430000D02*
X109932000Y-55430000D01*
X141587000Y-55390000D02*
X109913000Y-55390000D01*
X141607000Y-55350000D02*
X109893000Y-55350000D01*
X141626000Y-55310000D02*
X109874000Y-55310000D01*
X141645000Y-55270000D02*
X109855000Y-55270000D01*
X141663000Y-55230000D02*
X109837000Y-55230000D01*
X141682000Y-55190000D02*
X109818000Y-55190000D01*
X141701000Y-55150000D02*
X109799000Y-55150000D01*
X141719000Y-55110000D02*
X109781000Y-55110000D01*
X141738000Y-55070000D02*
X109762000Y-55070000D01*
X141756000Y-55030000D02*
X109744000Y-55030000D01*
X141774000Y-54990000D02*
X109726000Y-54990000D01*
X141792000Y-54950000D02*
X127990000Y-54950000D01*
X141810000Y-54910000D02*
X127990000Y-54910000D01*
X141827000Y-54870000D02*
X127990000Y-54870000D01*
X141845000Y-54830000D02*
X127990000Y-54830000D01*
X141862000Y-54790000D02*
X127990000Y-54790000D01*
X141880000Y-54750000D02*
X127990000Y-54750000D01*
X141897000Y-54710000D02*
X127990000Y-54710000D01*
X141914000Y-54670000D02*
X127990000Y-54670000D01*
X141931000Y-54630000D02*
X127990000Y-54630000D01*
X141948000Y-54590000D02*
X127990000Y-54590000D01*
X141965000Y-54550000D02*
X127990000Y-54550000D01*
X141982000Y-54510000D02*
X127990000Y-54510000D01*
X141998000Y-54470000D02*
X127990000Y-54470000D01*
X142015000Y-54430000D02*
X127990000Y-54430000D01*
X142031000Y-54390000D02*
X127990000Y-54390000D01*
X142047000Y-54350000D02*
X127990000Y-54350000D01*
X142063000Y-54310000D02*
X127990000Y-54310000D01*
X142079000Y-54270000D02*
X127990000Y-54270000D01*
X142095000Y-54230000D02*
X127990000Y-54230000D01*
X142111000Y-54190000D02*
X127990000Y-54190000D01*
X142127000Y-54150000D02*
X127990000Y-54150000D01*
X142142000Y-54110000D02*
X127990000Y-54110000D01*
X142158000Y-54070000D02*
X127990000Y-54070000D01*
X142173000Y-54030000D02*
X127990000Y-54030000D01*
X142188000Y-53990000D02*
X127990000Y-53990000D01*
X142203000Y-53950000D02*
X127990000Y-53950000D01*
X142218000Y-53910000D02*
X127990000Y-53910000D01*
X142233000Y-53870000D02*
X127990000Y-53870000D01*
X142248000Y-53830000D02*
X127990000Y-53830000D01*
X142262000Y-53790000D02*
X127990000Y-53790000D01*
X142277000Y-53750000D02*
X127990000Y-53750000D01*
X142291000Y-53710000D02*
X127990000Y-53710000D01*
X142306000Y-53670000D02*
X127990000Y-53670000D01*
X142320000Y-53630000D02*
X127990000Y-53630000D01*
X142334000Y-53590000D02*
X127990000Y-53590000D01*
X142348000Y-53550000D02*
X127990000Y-53550000D01*
X142362000Y-53510000D02*
X127990000Y-53510000D01*
X142376000Y-53470000D02*
X127990000Y-53470000D01*
X142389000Y-53430000D02*
X127990000Y-53430000D01*
X142403000Y-53390000D02*
X127990000Y-53390000D01*
X142416000Y-53350000D02*
X127990000Y-53350000D01*
X142430000Y-53310000D02*
X127990000Y-53310000D01*
X142443000Y-53270000D02*
X127990000Y-53270000D01*
X142456000Y-53230000D02*
X127990000Y-53230000D01*
X142469000Y-53190000D02*
X127990000Y-53190000D01*
X142482000Y-53150000D02*
X127990000Y-53150000D01*
X142495000Y-53110000D02*
X127990000Y-53110000D01*
X142508000Y-53070000D02*
X127990000Y-53070000D01*
X142520000Y-53030000D02*
X127990000Y-53030000D01*
X142533000Y-52990000D02*
X127990000Y-52990000D01*
X142545000Y-52950000D02*
X127990000Y-52950000D01*
X142558000Y-52910000D02*
X127990000Y-52910000D01*
X142570000Y-52870000D02*
X127990000Y-52870000D01*
X142582000Y-52830000D02*
X127990000Y-52830000D01*
X142594000Y-52790000D02*
X127990000Y-52790000D01*
X142606000Y-52750000D02*
X127990000Y-52750000D01*
X142617000Y-52710000D02*
X127990000Y-52710000D01*
X142629000Y-52670000D02*
X127990000Y-52670000D01*
X142641000Y-52630000D02*
X127990000Y-52630000D01*
X142652000Y-52590000D02*
X127990000Y-52590000D01*
X142664000Y-52550000D02*
X127990000Y-52550000D01*
X142675000Y-52510000D02*
X127990000Y-52510000D01*
X142686000Y-52470000D02*
X127990000Y-52470000D01*
X142697000Y-52430000D02*
X127990000Y-52430000D01*
X142708000Y-52390000D02*
X127990000Y-52390000D01*
X142719000Y-52350000D02*
X127990000Y-52350000D01*
X142730000Y-52310000D02*
X127990000Y-52310000D01*
X142740000Y-52270000D02*
X127990000Y-52270000D01*
X142751000Y-52230000D02*
X127990000Y-52230000D01*
X142761000Y-52190000D02*
X127990000Y-52190000D01*
X142772000Y-52150000D02*
X127990000Y-52150000D01*
X142782000Y-52110000D02*
X127990000Y-52110000D01*
X142792000Y-52070000D02*
X127990000Y-52070000D01*
X142802000Y-52030000D02*
X127990000Y-52030000D01*
X142812000Y-51990000D02*
X127990000Y-51990000D01*
X142822000Y-51950000D02*
X127990000Y-51950000D01*
X142832000Y-51910000D02*
X127990000Y-51910000D01*
X142842000Y-51870000D02*
X127990000Y-51870000D01*
X142851000Y-51830000D02*
X127990000Y-51830000D01*
X142861000Y-51790000D02*
X127990000Y-51790000D01*
X142870000Y-51750000D02*
X127990000Y-51750000D01*
X142879000Y-51710000D02*
X127990000Y-51710000D01*
X142888000Y-51670000D02*
X127990000Y-51670000D01*
X142897000Y-51630000D02*
X127990000Y-51630000D01*
X142906000Y-51590000D02*
X127990000Y-51590000D01*
X142915000Y-51550000D02*
X127990000Y-51550000D01*
X142924000Y-51510000D02*
X127990000Y-51510000D01*
X142933000Y-51470000D02*
X127990000Y-51470000D01*
X142941000Y-51430000D02*
X127990000Y-51430000D01*
X142950000Y-51390000D02*
X127990000Y-51390000D01*
X142958000Y-51350000D02*
X127990000Y-51350000D01*
X142967000Y-51310000D02*
X127990000Y-51310000D01*
X142975000Y-51270000D02*
X127990000Y-51270000D01*
X142983000Y-51230000D02*
X127990000Y-51230000D01*
X142991000Y-51190000D02*
X127990000Y-51190000D01*
X142999000Y-51150000D02*
X127990000Y-51150000D01*
X143007000Y-51110000D02*
X127990000Y-51110000D01*
X143014000Y-51070000D02*
X127990000Y-51070000D01*
X143022000Y-51030000D02*
X127990000Y-51030000D01*
X143030000Y-50990000D02*
X127990000Y-50990000D01*
X143037000Y-50950000D02*
X127990000Y-50950000D01*
X143044000Y-50910000D02*
X127990000Y-50910000D01*
X143052000Y-50870000D02*
X127990000Y-50870000D01*
X143059000Y-50830000D02*
X127990000Y-50830000D01*
X143066000Y-50790000D02*
X127990000Y-50790000D01*
X143073000Y-50750000D02*
X127990000Y-50750000D01*
X143080000Y-50710000D02*
X127990000Y-50710000D01*
X143086000Y-50670000D02*
X127990000Y-50670000D01*
X143093000Y-50630000D02*
X127990000Y-50630000D01*
X143100000Y-50590000D02*
X127990000Y-50590000D01*
X143106000Y-50550000D02*
X127990000Y-50550000D01*
X143112000Y-50510000D02*
X108388000Y-50510000D01*
X143119000Y-50470000D02*
X108381000Y-50470000D01*
X143125000Y-50430000D02*
X108375000Y-50430000D01*
X143131000Y-50390000D02*
X108369000Y-50390000D01*
X143137000Y-50350000D02*
X108363000Y-50350000D01*
X143143000Y-50310000D02*
X108357000Y-50310000D01*
X143149000Y-50270000D02*
X108351000Y-50270000D01*
X143155000Y-50230000D02*
X108345000Y-50230000D01*
X143160000Y-50190000D02*
X108340000Y-50190000D01*
X143166000Y-50150000D02*
X108334000Y-50150000D01*
X143171000Y-50110000D02*
X108329000Y-50110000D01*
X143177000Y-50070000D02*
X108323000Y-50070000D01*
X143182000Y-50030000D02*
X108318000Y-50030000D01*
X143187000Y-49990000D02*
X108313000Y-49990000D01*
X143192000Y-49950000D02*
X108308000Y-49950000D01*
X143197000Y-49910000D02*
X108303000Y-49910000D01*
X143202000Y-49870000D02*
X108298000Y-49870000D01*
X143207000Y-49830000D02*
X108293000Y-49830000D01*
X143212000Y-49790000D02*
X108288000Y-49790000D01*
X143216000Y-49750000D02*
X108284000Y-49750000D01*
X143221000Y-49710000D02*
X108279000Y-49710000D01*
X143225000Y-49670000D02*
X108275000Y-49670000D01*
X143229000Y-49630000D02*
X108271000Y-49630000D01*
X143234000Y-49590000D02*
X108266000Y-49590000D01*
X143238000Y-49550000D02*
X108262000Y-49550000D01*
X143242000Y-49510000D02*
X108258000Y-49510000D01*
X143246000Y-49470000D02*
X108254000Y-49470000D01*
X143250000Y-49430000D02*
X108250000Y-49430000D01*
X143254000Y-49390000D02*
X108246000Y-49390000D01*
X143257000Y-49350000D02*
X108243000Y-49350000D01*
X143261000Y-49310000D02*
X108239000Y-49310000D01*
X143264000Y-49270000D02*
X108236000Y-49270000D01*
X143268000Y-49230000D02*
X108232000Y-49230000D01*
X143271000Y-49190000D02*
X108229000Y-49190000D01*
X143274000Y-49150000D02*
X108226000Y-49150000D01*
X143277000Y-49110000D02*
X108223000Y-49110000D01*
X143280000Y-49070000D02*
X108220000Y-49070000D01*
X143283000Y-49030000D02*
X108217000Y-49030000D01*
X143286000Y-48990000D02*
X108214000Y-48990000D01*
X143289000Y-48950000D02*
X108211000Y-48950000D01*
X143292000Y-48910000D02*
X108208000Y-48910000D01*
X143294000Y-48870000D02*
X108206000Y-48870000D01*
X143297000Y-48830000D02*
X108203000Y-48830000D01*
X143299000Y-48790000D02*
X108201000Y-48790000D01*
X143302000Y-48750000D02*
X108198000Y-48750000D01*
X143304000Y-48710000D02*
X108196000Y-48710000D01*
X143306000Y-48670000D02*
X108194000Y-48670000D01*
X143308000Y-48630000D02*
X108192000Y-48630000D01*
X143310000Y-48590000D02*
X108190000Y-48590000D01*
X143312000Y-48550000D02*
X108188000Y-48550000D01*
X143314000Y-48510000D02*
X108186000Y-48510000D01*
X143315000Y-48470000D02*
X108185000Y-48470000D01*
X143317000Y-48430000D02*
X108183000Y-48430000D01*
X143318000Y-48390000D02*
X108182000Y-48390000D01*
X143320000Y-48350000D02*
X108180000Y-48350000D01*
X143321000Y-48310000D02*
X108179000Y-48310000D01*
X143322000Y-48270000D02*
X108178000Y-48270000D01*
X143323000Y-48230000D02*
X108177000Y-48230000D01*
X143325000Y-48150000D02*
X108175000Y-48150000D01*
X143325000Y-48190000D02*
X108175000Y-48190000D01*
X143326000Y-48110000D02*
X108174000Y-48110000D01*
X143327000Y-48070000D02*
X108173000Y-48070000D01*
X143328000Y-47990000D02*
X108172000Y-47990000D01*
X143328000Y-48030000D02*
X108172000Y-48030000D01*
X143329000Y-47910000D02*
X108171000Y-47910000D01*
X143329000Y-47950000D02*
X108171000Y-47950000D01*
X143330000Y-47750000D02*
X108170000Y-47750000D01*
X143330000Y-47790000D02*
X108170000Y-47790000D01*
X143330000Y-47830000D02*
X108170000Y-47830000D01*
X143330000Y-47870000D02*
X108170000Y-47870000D01*
X143370000Y-47750000D02*
G75*
G02*
X108130000Y-47750000I-17620000J0D01*
G01*
X108130000Y-47750000D02*
G75*
G02*
X143370000Y-47750000I17620000J0D01*
G01*
D12*
%TO.C,J4*%
X148453900Y-97912500D02*
X148453900Y-98336550D01*
X148453900Y-100663450D02*
X148453900Y-103416550D01*
X148453900Y-105743450D02*
X148453900Y-106167500D01*
X148453900Y-106167500D02*
X149546100Y-106167500D01*
X149546100Y-97912500D02*
X148453900Y-97912500D01*
X149546100Y-98336550D02*
X149546100Y-97912500D01*
X149546100Y-103416550D02*
X149546100Y-100663450D01*
X149546100Y-106167500D02*
X149546100Y-105743450D01*
%TO.C,J2*%
X62453900Y-60872500D02*
X62453900Y-61296550D01*
X62453900Y-63623450D02*
X62453900Y-66376550D01*
X62453900Y-68703450D02*
X62453900Y-69127500D01*
X62453900Y-69127500D02*
X63546100Y-69127500D01*
X63546100Y-60872500D02*
X62453900Y-60872500D01*
X63546100Y-61296550D02*
X63546100Y-60872500D01*
X63546100Y-66376550D02*
X63546100Y-63623450D01*
X63546100Y-69127500D02*
X63546100Y-68703450D01*
D13*
%TO.C,U19*%
X115720000Y-159640000D02*
X115720000Y-169860000D01*
X115720000Y-159640000D02*
X131590000Y-159640000D01*
X115720000Y-161725000D02*
X113280000Y-161725000D01*
X115720000Y-162695000D02*
X113280000Y-162695000D01*
X115720000Y-164265000D02*
X113280000Y-164265000D01*
X115720000Y-165235000D02*
X113280000Y-165235000D01*
X115720000Y-166805000D02*
X113280000Y-166805000D01*
X115720000Y-167775000D02*
X113280000Y-167775000D01*
X115720000Y-169860000D02*
X131590000Y-169860000D01*
X131590000Y-159640000D02*
X131590000Y-169860000D01*
%TO.C,J12*%
X58130000Y-165420000D02*
X59460000Y-165420000D01*
X58130000Y-166750000D02*
X58130000Y-165420000D01*
X58130000Y-168020000D02*
X60730000Y-168020000D01*
X58130000Y-170620000D02*
X58130000Y-168020000D01*
X58130000Y-170620000D02*
X65870000Y-170620000D01*
X60730000Y-165420000D02*
X65870000Y-165420000D01*
X60730000Y-168020000D02*
X60730000Y-165420000D01*
X65870000Y-170620000D02*
X65870000Y-165420000D01*
%TO.C,C37*%
X48880000Y-38880000D02*
X57620000Y-38880000D01*
X48880000Y-65620000D02*
X48880000Y-38880000D01*
X57620000Y-38880000D02*
X57620000Y-65620000D01*
X57620000Y-65620000D02*
X48880000Y-65620000D01*
%TO.C,C31*%
X49787677Y-92349000D02*
X49787677Y-91151000D01*
X49827677Y-92612000D02*
X49827677Y-90888000D01*
X49867677Y-92812000D02*
X49867677Y-90688000D01*
X49907677Y-92980000D02*
X49907677Y-90520000D01*
X49947677Y-93127000D02*
X49947677Y-90373000D01*
X49987677Y-93259000D02*
X49987677Y-90241000D01*
X50027677Y-93380000D02*
X50027677Y-90120000D01*
X50067677Y-93492000D02*
X50067677Y-90008000D01*
X50107677Y-93596000D02*
X50107677Y-89904000D01*
X50147677Y-93694000D02*
X50147677Y-89806000D01*
X50187677Y-93787000D02*
X50187677Y-89713000D01*
X50227677Y-93874000D02*
X50227677Y-89626000D01*
X50267677Y-93958000D02*
X50267677Y-89542000D01*
X50307677Y-94038000D02*
X50307677Y-89462000D01*
X50347677Y-94115000D02*
X50347677Y-89385000D01*
X50387677Y-94189000D02*
X50387677Y-89311000D01*
X50427677Y-94260000D02*
X50427677Y-89240000D01*
X50467677Y-94328000D02*
X50467677Y-89172000D01*
X50507677Y-94394000D02*
X50507677Y-89106000D01*
X50547677Y-94458000D02*
X50547677Y-89042000D01*
X50587677Y-94520000D02*
X50587677Y-88980000D01*
X50627677Y-94580000D02*
X50627677Y-88920000D01*
X50667677Y-94638000D02*
X50667677Y-88862000D01*
X50707677Y-94695000D02*
X50707677Y-88805000D01*
X50747677Y-94750000D02*
X50747677Y-88750000D01*
X50787677Y-94803000D02*
X50787677Y-88697000D01*
X50827677Y-94855000D02*
X50827677Y-88645000D01*
X50867677Y-94906000D02*
X50867677Y-88594000D01*
X50907677Y-94955000D02*
X50907677Y-88545000D01*
X50947677Y-95004000D02*
X50947677Y-88496000D01*
X50987677Y-95051000D02*
X50987677Y-88449000D01*
X51027677Y-95097000D02*
X51027677Y-88403000D01*
X51067677Y-95141000D02*
X51067677Y-88359000D01*
X51107677Y-95185000D02*
X51107677Y-88315000D01*
X51147677Y-90510000D02*
X51147677Y-88272000D01*
X51147677Y-95228000D02*
X51147677Y-92990000D01*
X51187677Y-90510000D02*
X51187677Y-88230000D01*
X51187677Y-95270000D02*
X51187677Y-92990000D01*
X51227677Y-90510000D02*
X51227677Y-88189000D01*
X51227677Y-95311000D02*
X51227677Y-92990000D01*
X51267677Y-90510000D02*
X51267677Y-88149000D01*
X51267677Y-95351000D02*
X51267677Y-92990000D01*
X51307677Y-90510000D02*
X51307677Y-88110000D01*
X51307677Y-95390000D02*
X51307677Y-92990000D01*
X51347677Y-90510000D02*
X51347677Y-88072000D01*
X51347677Y-95428000D02*
X51347677Y-92990000D01*
X51387677Y-90510000D02*
X51387677Y-88034000D01*
X51387677Y-95466000D02*
X51387677Y-92990000D01*
X51427677Y-90510000D02*
X51427677Y-87998000D01*
X51427677Y-95502000D02*
X51427677Y-92990000D01*
X51467677Y-90510000D02*
X51467677Y-87962000D01*
X51467677Y-95538000D02*
X51467677Y-92990000D01*
X51507677Y-90510000D02*
X51507677Y-87927000D01*
X51507677Y-95573000D02*
X51507677Y-92990000D01*
X51547677Y-90510000D02*
X51547677Y-87892000D01*
X51547677Y-95608000D02*
X51547677Y-92990000D01*
X51587677Y-90510000D02*
X51587677Y-87859000D01*
X51587677Y-95641000D02*
X51587677Y-92990000D01*
X51627677Y-90510000D02*
X51627677Y-87826000D01*
X51627677Y-95674000D02*
X51627677Y-92990000D01*
X51667677Y-90510000D02*
X51667677Y-87793000D01*
X51667677Y-95707000D02*
X51667677Y-92990000D01*
X51707677Y-90510000D02*
X51707677Y-87762000D01*
X51707677Y-95738000D02*
X51707677Y-92990000D01*
X51747677Y-90510000D02*
X51747677Y-87730000D01*
X51747677Y-95770000D02*
X51747677Y-92990000D01*
X51787677Y-90510000D02*
X51787677Y-87700000D01*
X51787677Y-95800000D02*
X51787677Y-92990000D01*
X51827677Y-90510000D02*
X51827677Y-87670000D01*
X51827677Y-95830000D02*
X51827677Y-92990000D01*
X51867677Y-90510000D02*
X51867677Y-87641000D01*
X51867677Y-95859000D02*
X51867677Y-92990000D01*
X51907677Y-90510000D02*
X51907677Y-87612000D01*
X51907677Y-95888000D02*
X51907677Y-92990000D01*
X51947677Y-90510000D02*
X51947677Y-87584000D01*
X51947677Y-95916000D02*
X51947677Y-92990000D01*
X51987677Y-90510000D02*
X51987677Y-87557000D01*
X51987677Y-95943000D02*
X51987677Y-92990000D01*
X52027677Y-90510000D02*
X52027677Y-87530000D01*
X52027677Y-95970000D02*
X52027677Y-92990000D01*
X52067677Y-90510000D02*
X52067677Y-87503000D01*
X52067677Y-95997000D02*
X52067677Y-92990000D01*
X52107677Y-90510000D02*
X52107677Y-87478000D01*
X52107677Y-96022000D02*
X52107677Y-92990000D01*
X52147677Y-90510000D02*
X52147677Y-87452000D01*
X52147677Y-96048000D02*
X52147677Y-92990000D01*
X52187677Y-90510000D02*
X52187677Y-87427000D01*
X52187677Y-96073000D02*
X52187677Y-92990000D01*
X52227677Y-90510000D02*
X52227677Y-87403000D01*
X52227677Y-96097000D02*
X52227677Y-92990000D01*
X52267677Y-90510000D02*
X52267677Y-87379000D01*
X52267677Y-96121000D02*
X52267677Y-92990000D01*
X52307677Y-90510000D02*
X52307677Y-87356000D01*
X52307677Y-96144000D02*
X52307677Y-92990000D01*
X52347677Y-90510000D02*
X52347677Y-87333000D01*
X52347677Y-96167000D02*
X52347677Y-92990000D01*
X52387677Y-90510000D02*
X52387677Y-87311000D01*
X52387677Y-96189000D02*
X52387677Y-92990000D01*
X52427677Y-90510000D02*
X52427677Y-87289000D01*
X52427677Y-96211000D02*
X52427677Y-92990000D01*
X52467677Y-90510000D02*
X52467677Y-87267000D01*
X52467677Y-96233000D02*
X52467677Y-92990000D01*
X52507677Y-90510000D02*
X52507677Y-87246000D01*
X52507677Y-96254000D02*
X52507677Y-92990000D01*
X52547677Y-90510000D02*
X52547677Y-87226000D01*
X52547677Y-96274000D02*
X52547677Y-92990000D01*
X52587677Y-90510000D02*
X52587677Y-87206000D01*
X52587677Y-96294000D02*
X52587677Y-92990000D01*
X52627677Y-90510000D02*
X52627677Y-87186000D01*
X52627677Y-96314000D02*
X52627677Y-92990000D01*
X52667677Y-90510000D02*
X52667677Y-87167000D01*
X52667677Y-96333000D02*
X52667677Y-92990000D01*
X52707677Y-90510000D02*
X52707677Y-87148000D01*
X52707677Y-96352000D02*
X52707677Y-92990000D01*
X52747677Y-90510000D02*
X52747677Y-87130000D01*
X52747677Y-96370000D02*
X52747677Y-92990000D01*
X52787677Y-90510000D02*
X52787677Y-87112000D01*
X52787677Y-96388000D02*
X52787677Y-92990000D01*
X52827677Y-90510000D02*
X52827677Y-87094000D01*
X52827677Y-96406000D02*
X52827677Y-92990000D01*
X52867677Y-90510000D02*
X52867677Y-87077000D01*
X52867677Y-96423000D02*
X52867677Y-92990000D01*
X52907677Y-90510000D02*
X52907677Y-87060000D01*
X52907677Y-96440000D02*
X52907677Y-92990000D01*
X52947677Y-90510000D02*
X52947677Y-87044000D01*
X52947677Y-96456000D02*
X52947677Y-92990000D01*
X52987677Y-90510000D02*
X52987677Y-87028000D01*
X52987677Y-96472000D02*
X52987677Y-92990000D01*
X53027677Y-90510000D02*
X53027677Y-87012000D01*
X53027677Y-96488000D02*
X53027677Y-92990000D01*
X53067677Y-90510000D02*
X53067677Y-86997000D01*
X53067677Y-96503000D02*
X53067677Y-92990000D01*
X53107677Y-90510000D02*
X53107677Y-86982000D01*
X53107677Y-96518000D02*
X53107677Y-92990000D01*
X53147677Y-90510000D02*
X53147677Y-86968000D01*
X53147677Y-96532000D02*
X53147677Y-92990000D01*
X53187677Y-90510000D02*
X53187677Y-86953000D01*
X53187677Y-96547000D02*
X53187677Y-92990000D01*
X53227677Y-90510000D02*
X53227677Y-86940000D01*
X53227677Y-96560000D02*
X53227677Y-92990000D01*
X53267677Y-90510000D02*
X53267677Y-86926000D01*
X53267677Y-96574000D02*
X53267677Y-92990000D01*
X53307677Y-90510000D02*
X53307677Y-86913000D01*
X53307677Y-96587000D02*
X53307677Y-92990000D01*
X53347677Y-90510000D02*
X53347677Y-86901000D01*
X53347677Y-96599000D02*
X53347677Y-92990000D01*
X53387677Y-90510000D02*
X53387677Y-86889000D01*
X53387677Y-96611000D02*
X53387677Y-92990000D01*
X53427677Y-90510000D02*
X53427677Y-86877000D01*
X53427677Y-96623000D02*
X53427677Y-92990000D01*
X53467677Y-90510000D02*
X53467677Y-86865000D01*
X53467677Y-96635000D02*
X53467677Y-92990000D01*
X53507677Y-90510000D02*
X53507677Y-86854000D01*
X53507677Y-96646000D02*
X53507677Y-92990000D01*
X53547677Y-90510000D02*
X53547677Y-86843000D01*
X53547677Y-96657000D02*
X53547677Y-92990000D01*
X53587677Y-90510000D02*
X53587677Y-86833000D01*
X53587677Y-96667000D02*
X53587677Y-92990000D01*
X53627677Y-96678000D02*
X53627677Y-86822000D01*
X53667677Y-96687000D02*
X53667677Y-86813000D01*
X53707677Y-96697000D02*
X53707677Y-86803000D01*
X53747677Y-96706000D02*
X53747677Y-86794000D01*
X53787677Y-96715000D02*
X53787677Y-86785000D01*
X53827677Y-96723000D02*
X53827677Y-86777000D01*
X53867677Y-96731000D02*
X53867677Y-86769000D01*
X53907677Y-96739000D02*
X53907677Y-86761000D01*
X53947677Y-96747000D02*
X53947677Y-86753000D01*
X53987677Y-96754000D02*
X53987677Y-86746000D01*
X54027677Y-96761000D02*
X54027677Y-86739000D01*
X54067677Y-96767000D02*
X54067677Y-86733000D01*
X54107677Y-96773000D02*
X54107677Y-86727000D01*
X54147677Y-96779000D02*
X54147677Y-86721000D01*
X54187677Y-96785000D02*
X54187677Y-86715000D01*
X54227677Y-96790000D02*
X54227677Y-86710000D01*
X54267677Y-96795000D02*
X54267677Y-86705000D01*
X54307677Y-96799000D02*
X54307677Y-86701000D01*
X54347677Y-96804000D02*
X54347677Y-86696000D01*
X54387677Y-96807000D02*
X54387677Y-86693000D01*
X54427677Y-96811000D02*
X54427677Y-86689000D01*
X54467677Y-96814000D02*
X54467677Y-86686000D01*
X54507677Y-96817000D02*
X54507677Y-86683000D01*
X54547677Y-96820000D02*
X54547677Y-86680000D01*
X54587677Y-96822000D02*
X54587677Y-86678000D01*
X54627677Y-96824000D02*
X54627677Y-86676000D01*
X54667677Y-96826000D02*
X54667677Y-86674000D01*
X54707677Y-96827000D02*
X54707677Y-86673000D01*
X54747677Y-96829000D02*
X54747677Y-86671000D01*
X54787677Y-96829000D02*
X54787677Y-86671000D01*
X54827677Y-96830000D02*
X54827677Y-86670000D01*
X54867677Y-96830000D02*
X54867677Y-86670000D01*
X59847323Y-95125000D02*
X59847323Y-94125000D01*
X60347323Y-94625000D02*
X59347323Y-94625000D01*
X59987677Y-91750000D02*
G75*
G02*
X49747677Y-91750000I-5120000J0D01*
G01*
X49747677Y-91750000D02*
G75*
G02*
X59987677Y-91750000I5120000J0D01*
G01*
%TO.C,J1*%
X53970000Y-109855000D02*
X53970000Y-115155000D01*
X53970000Y-112035000D02*
X54570000Y-112035000D01*
X53970000Y-114575000D02*
X54570000Y-114575000D01*
X53970000Y-115155000D02*
X59990000Y-115155000D01*
X54570000Y-110435000D02*
X53970000Y-110435000D01*
X54570000Y-112035000D02*
X54570000Y-110435000D01*
X54570000Y-112975000D02*
X53970000Y-112975000D01*
X54570000Y-114575000D02*
X54570000Y-112975000D01*
X55000000Y-115445000D02*
X59000000Y-115445000D01*
X58460000Y-111485000D02*
X58990000Y-111235000D01*
X58460000Y-113525000D02*
X58460000Y-111485000D01*
X58990000Y-111235000D02*
X59990000Y-111235000D01*
X58990000Y-113775000D02*
X58460000Y-113525000D01*
X58990000Y-113775000D02*
X58990000Y-111235000D01*
X59990000Y-109855000D02*
X53970000Y-109855000D01*
X59990000Y-111485000D02*
X58990000Y-111485000D01*
X59990000Y-113525000D02*
X58990000Y-113525000D01*
X59990000Y-113775000D02*
X58990000Y-113775000D01*
X59990000Y-115155000D02*
X59990000Y-109855000D01*
%TO.C,J6*%
X53080000Y-125880000D02*
X53080000Y-124500000D01*
X54460000Y-125880000D02*
X53080000Y-125880000D01*
X55730000Y-123120000D02*
X60920000Y-123120000D01*
X55730000Y-125880000D02*
X55730000Y-123120000D01*
X55730000Y-125880000D02*
X60920000Y-125880000D01*
X60920000Y-125880000D02*
X60920000Y-123120000D01*
%TO.C,F1*%
X145050000Y-125700000D02*
X147235000Y-125700000D01*
X145050000Y-132700000D02*
X145050000Y-125700000D01*
X145050000Y-132700000D02*
X147235000Y-132700000D01*
X145050000Y-152800000D02*
X145050000Y-159800000D01*
X145050000Y-152800000D02*
X147235000Y-152800000D01*
X145825000Y-152800000D02*
X145825000Y-132700000D01*
X147235000Y-159800000D02*
X145050000Y-159800000D01*
X150765000Y-159800000D02*
X152950000Y-159800000D01*
X152175000Y-152800000D02*
X152175000Y-132700000D01*
X152950000Y-125700000D02*
X150765000Y-125700000D01*
X152950000Y-132700000D02*
X150765000Y-132700000D01*
X152950000Y-132700000D02*
X152950000Y-125700000D01*
X152950000Y-152800000D02*
X150765000Y-152800000D01*
X152950000Y-159800000D02*
X152950000Y-152800000D01*
%TO.C,Q1*%
X77440000Y-81110000D02*
X77440000Y-102280000D01*
X77440000Y-81110000D02*
X93560000Y-81110000D01*
X77440000Y-102280000D02*
X93560000Y-102280000D01*
X79710000Y-81110000D02*
X79710000Y-78650000D01*
X81130000Y-81110000D02*
X81130000Y-78650000D01*
X84790000Y-81110000D02*
X84790000Y-78650000D01*
X86210000Y-81110000D02*
X86210000Y-78650000D01*
X87330000Y-81110000D02*
X87330000Y-78650000D01*
X88750000Y-81110000D02*
X88750000Y-78650000D01*
X89870000Y-81110000D02*
X89870000Y-78650000D01*
X91290000Y-81110000D02*
X91290000Y-78650000D01*
X93560000Y-81110000D02*
X93560000Y-102280000D01*
D12*
%TO.C,J3*%
X112872500Y-68203900D02*
X112872500Y-69296100D01*
X112872500Y-69296100D02*
X113296550Y-69296100D01*
X113296550Y-68203900D02*
X112872500Y-68203900D01*
X115623450Y-69296100D02*
X118376550Y-69296100D01*
X118376550Y-68203900D02*
X115623450Y-68203900D01*
X120703450Y-69296100D02*
X121127500Y-69296100D01*
X121127500Y-68203900D02*
X120703450Y-68203900D01*
X121127500Y-69296100D02*
X121127500Y-68203900D01*
%TO.C,L2*%
D10*
X68750000Y-71250000D02*
X106750000Y-71250000D01*
X106750000Y-30250000D01*
X68750000Y-30250000D01*
X68750000Y-71250000D01*
D13*
%TO.C,D2*%
X110800000Y-151300000D02*
X110800000Y-149300000D01*
X111025000Y-126425000D02*
X139875000Y-126425000D01*
X111025000Y-155275000D02*
X111025000Y-126425000D01*
X139875000Y-126425000D02*
X139875000Y-155275000D01*
X139875000Y-155275000D02*
X111025000Y-155275000D01*
D12*
%TO.C,J5*%
X148413900Y-110122500D02*
X148413900Y-110546550D01*
X148413900Y-112873450D02*
X148413900Y-115626550D01*
X148413900Y-117953450D02*
X148413900Y-118377500D01*
X148413900Y-118377500D02*
X149506100Y-118377500D01*
X149506100Y-110122500D02*
X148413900Y-110122500D01*
X149506100Y-110546550D02*
X149506100Y-110122500D01*
X149506100Y-115626550D02*
X149506100Y-112873450D01*
X149506100Y-118377500D02*
X149506100Y-117953450D01*
D13*
%TO.C,U2*%
X49062500Y-104222500D02*
X49062500Y-97882500D01*
X60832500Y-97882500D02*
X49062500Y-97882500D01*
X60832500Y-104222500D02*
X49062500Y-104222500D01*
X60832500Y-104222500D02*
X60832500Y-97882500D01*
X61032500Y-97682500D02*
X59832500Y-97682500D01*
X61032500Y-98882500D02*
X61032500Y-97682500D01*
%TO.C,C2*%
X58630000Y-29880000D02*
X67370000Y-29880000D01*
X58630000Y-56620000D02*
X58630000Y-29880000D01*
X67370000Y-29880000D02*
X67370000Y-56620000D01*
X67370000Y-56620000D02*
X58630000Y-56620000D01*
%TO.C,R51*%
X150525000Y-67800000D02*
X150595000Y-67800000D01*
X150525000Y-67800000D02*
G75*
G02*
X147785000Y-67800000I-1370000J0D01*
G01*
X147785000Y-67800000D02*
G75*
G02*
X150525000Y-67800000I1370000J0D01*
G01*
%TO.C,C25*%
X144380000Y-38630000D02*
X153120000Y-38630000D01*
X144380000Y-65370000D02*
X144380000Y-38630000D01*
X153120000Y-38630000D02*
X153120000Y-65370000D01*
X153120000Y-65370000D02*
X144380000Y-65370000D01*
%TO.C,Q2*%
X97440000Y-81110000D02*
X97440000Y-102280000D01*
X97440000Y-81110000D02*
X113560000Y-81110000D01*
X97440000Y-102280000D02*
X113560000Y-102280000D01*
X99710000Y-81110000D02*
X99710000Y-78650000D01*
X101130000Y-81110000D02*
X101130000Y-78650000D01*
X104790000Y-81110000D02*
X104790000Y-78650000D01*
X106210000Y-81110000D02*
X106210000Y-78650000D01*
X107330000Y-81110000D02*
X107330000Y-78650000D01*
X108750000Y-81110000D02*
X108750000Y-78650000D01*
X109870000Y-81110000D02*
X109870000Y-78650000D01*
X111290000Y-81110000D02*
X111290000Y-78650000D01*
X113560000Y-81110000D02*
X113560000Y-102280000D01*
%TO.C,U10*%
X98705000Y-139956000D02*
X98705000Y-141606000D01*
X98705000Y-143606000D02*
X98705000Y-145256000D01*
X98705000Y-145256000D02*
X106445000Y-145256000D01*
X106445000Y-139956000D02*
X98705000Y-139956000D01*
X106445000Y-145256000D02*
X106445000Y-139956000D01*
X98705000Y-141606000D02*
G75*
G02*
X98705000Y-143606000I0J-1000000D01*
G01*
%TO.C,M1*%
X146600000Y-76510000D02*
X152600000Y-76510000D01*
X146600000Y-86810000D02*
X146600000Y-76510000D01*
X146700000Y-77860000D02*
X147710000Y-77860000D01*
X147710000Y-77860000D02*
X147710000Y-82940000D01*
X147710000Y-82940000D02*
X146700000Y-82940000D01*
X152550000Y-83610000D02*
X152550000Y-86810000D01*
X152550000Y-86810000D02*
X146600000Y-86810000D01*
X152600000Y-76510000D02*
X152600000Y-82260000D01*
%TO.C,Q6*%
X117440000Y-81110000D02*
X117440000Y-102280000D01*
X117440000Y-81110000D02*
X133560000Y-81110000D01*
X117440000Y-102280000D02*
X133560000Y-102280000D01*
X119710000Y-81110000D02*
X119710000Y-78650000D01*
X121130000Y-81110000D02*
X121130000Y-78650000D01*
X124790000Y-81110000D02*
X124790000Y-78650000D01*
X126210000Y-81110000D02*
X126210000Y-78650000D01*
X127330000Y-81110000D02*
X127330000Y-78650000D01*
X128750000Y-81110000D02*
X128750000Y-78650000D01*
X129870000Y-81110000D02*
X129870000Y-78650000D01*
X131290000Y-81110000D02*
X131290000Y-78650000D01*
X133560000Y-81110000D02*
X133560000Y-102280000D01*
%TO.C,C30*%
X63210000Y-73250000D02*
X61670000Y-73250000D01*
X63210000Y-73290000D02*
X61670000Y-73290000D01*
X63210000Y-73330000D02*
X61671000Y-73330000D01*
X63210000Y-73370000D02*
X61673000Y-73370000D01*
X63210000Y-73410000D02*
X61675000Y-73410000D01*
X63210000Y-73450000D02*
X61678000Y-73450000D01*
X63210000Y-73490000D02*
X61681000Y-73490000D01*
X63210000Y-73530000D02*
X61685000Y-73530000D01*
X63210000Y-73570000D02*
X61690000Y-73570000D01*
X63210000Y-73610000D02*
X61695000Y-73610000D01*
X63210000Y-73650000D02*
X61701000Y-73650000D01*
X63210000Y-73690000D02*
X61707000Y-73690000D01*
X63210000Y-73730000D02*
X61714000Y-73730000D01*
X63210000Y-73770000D02*
X61722000Y-73770000D01*
X63210000Y-73810000D02*
X61731000Y-73810000D01*
X63210000Y-73850000D02*
X61740000Y-73850000D01*
X63210000Y-73890000D02*
X61749000Y-73890000D01*
X63210000Y-73930000D02*
X61760000Y-73930000D01*
X63210000Y-73970000D02*
X61771000Y-73970000D01*
X63210000Y-74010000D02*
X61783000Y-74010000D01*
X63210000Y-74050000D02*
X61795000Y-74050000D01*
X63210000Y-74090000D02*
X61808000Y-74090000D01*
X63210000Y-74130000D02*
X61822000Y-74130000D01*
X63210000Y-74170000D02*
X61837000Y-74170000D01*
X63210000Y-74210000D02*
X61852000Y-74210000D01*
X63210000Y-74250000D02*
X61868000Y-74250000D01*
X63210000Y-74290000D02*
X61885000Y-74290000D01*
X63210000Y-74330000D02*
X61903000Y-74330000D01*
X63210000Y-74370000D02*
X61921000Y-74370000D01*
X63210000Y-74410000D02*
X61941000Y-74410000D01*
X63210000Y-74450000D02*
X61961000Y-74450000D01*
X63210000Y-74490000D02*
X61982000Y-74490000D01*
X63210000Y-74530000D02*
X62004000Y-74530000D01*
X63210000Y-74570000D02*
X62027000Y-74570000D01*
X63210000Y-74610000D02*
X62051000Y-74610000D01*
X63210000Y-74650000D02*
X62075000Y-74650000D01*
X63210000Y-74690000D02*
X62101000Y-74690000D01*
X63210000Y-74730000D02*
X62128000Y-74730000D01*
X63210000Y-74770000D02*
X62156000Y-74770000D01*
X63210000Y-74810000D02*
X62185000Y-74810000D01*
X63210000Y-74850000D02*
X62215000Y-74850000D01*
X63210000Y-74890000D02*
X62247000Y-74890000D01*
X63210000Y-74930000D02*
X62280000Y-74930000D01*
X63210000Y-74970000D02*
X62314000Y-74970000D01*
X63210000Y-75010000D02*
X62349000Y-75010000D01*
X63210000Y-75050000D02*
X62386000Y-75050000D01*
X63210000Y-75090000D02*
X62425000Y-75090000D01*
X63210000Y-75130000D02*
X62465000Y-75130000D01*
X63210000Y-75170000D02*
X62507000Y-75170000D01*
X63210000Y-75210000D02*
X62551000Y-75210000D01*
X63210000Y-75250000D02*
X62598000Y-75250000D01*
X64533000Y-75850000D02*
X63967000Y-75850000D01*
X64767000Y-75810000D02*
X63733000Y-75810000D01*
X64927000Y-75770000D02*
X63573000Y-75770000D01*
X65055000Y-75730000D02*
X63445000Y-75730000D01*
X65164000Y-75690000D02*
X63336000Y-75690000D01*
X65261000Y-75650000D02*
X63239000Y-75650000D01*
X65348000Y-75610000D02*
X63152000Y-75610000D01*
X65427000Y-75570000D02*
X63073000Y-75570000D01*
X65501000Y-75530000D02*
X62999000Y-75530000D01*
X65569000Y-75490000D02*
X62931000Y-75490000D01*
X65633000Y-75450000D02*
X62867000Y-75450000D01*
X65693000Y-75410000D02*
X62807000Y-75410000D01*
X65725000Y-70445225D02*
X65725000Y-70945225D01*
X65749000Y-75370000D02*
X62751000Y-75370000D01*
X65803000Y-75330000D02*
X62697000Y-75330000D01*
X65854000Y-75290000D02*
X62646000Y-75290000D01*
X65902000Y-75250000D02*
X65290000Y-75250000D01*
X65949000Y-75210000D02*
X65290000Y-75210000D01*
X65975000Y-70695225D02*
X65475000Y-70695225D01*
X65993000Y-75170000D02*
X65290000Y-75170000D01*
X66035000Y-75130000D02*
X65290000Y-75130000D01*
X66075000Y-75090000D02*
X65290000Y-75090000D01*
X66114000Y-75050000D02*
X65290000Y-75050000D01*
X66151000Y-75010000D02*
X65290000Y-75010000D01*
X66186000Y-74970000D02*
X65290000Y-74970000D01*
X66220000Y-74930000D02*
X65290000Y-74930000D01*
X66253000Y-74890000D02*
X65290000Y-74890000D01*
X66285000Y-74850000D02*
X65290000Y-74850000D01*
X66315000Y-74810000D02*
X65290000Y-74810000D01*
X66344000Y-74770000D02*
X65290000Y-74770000D01*
X66372000Y-74730000D02*
X65290000Y-74730000D01*
X66399000Y-74690000D02*
X65290000Y-74690000D01*
X66425000Y-74650000D02*
X65290000Y-74650000D01*
X66449000Y-74610000D02*
X65290000Y-74610000D01*
X66473000Y-74570000D02*
X65290000Y-74570000D01*
X66496000Y-74530000D02*
X65290000Y-74530000D01*
X66518000Y-74490000D02*
X65290000Y-74490000D01*
X66539000Y-74450000D02*
X65290000Y-74450000D01*
X66559000Y-74410000D02*
X65290000Y-74410000D01*
X66579000Y-74370000D02*
X65290000Y-74370000D01*
X66597000Y-74330000D02*
X65290000Y-74330000D01*
X66615000Y-74290000D02*
X65290000Y-74290000D01*
X66632000Y-74250000D02*
X65290000Y-74250000D01*
X66648000Y-74210000D02*
X65290000Y-74210000D01*
X66663000Y-74170000D02*
X65290000Y-74170000D01*
X66678000Y-74130000D02*
X65290000Y-74130000D01*
X66692000Y-74090000D02*
X65290000Y-74090000D01*
X66705000Y-74050000D02*
X65290000Y-74050000D01*
X66717000Y-74010000D02*
X65290000Y-74010000D01*
X66729000Y-73970000D02*
X65290000Y-73970000D01*
X66740000Y-73930000D02*
X65290000Y-73930000D01*
X66751000Y-73890000D02*
X65290000Y-73890000D01*
X66760000Y-73850000D02*
X65290000Y-73850000D01*
X66769000Y-73810000D02*
X65290000Y-73810000D01*
X66778000Y-73770000D02*
X65290000Y-73770000D01*
X66786000Y-73730000D02*
X65290000Y-73730000D01*
X66793000Y-73690000D02*
X65290000Y-73690000D01*
X66799000Y-73650000D02*
X65290000Y-73650000D01*
X66805000Y-73610000D02*
X65290000Y-73610000D01*
X66810000Y-73570000D02*
X65290000Y-73570000D01*
X66815000Y-73530000D02*
X65290000Y-73530000D01*
X66819000Y-73490000D02*
X65290000Y-73490000D01*
X66822000Y-73450000D02*
X65290000Y-73450000D01*
X66825000Y-73410000D02*
X65290000Y-73410000D01*
X66827000Y-73370000D02*
X65290000Y-73370000D01*
X66829000Y-73330000D02*
X65290000Y-73330000D01*
X66830000Y-73250000D02*
X65290000Y-73250000D01*
X66830000Y-73290000D02*
X65290000Y-73290000D01*
X66870000Y-73250000D02*
G75*
G02*
X61630000Y-73250000I-2620000J0D01*
G01*
X61630000Y-73250000D02*
G75*
G02*
X66870000Y-73250000I2620000J0D01*
G01*
%TO.C,T1*%
X49865000Y-145640000D02*
X49865000Y-148350000D01*
X49865000Y-156150000D02*
X49865000Y-158860000D01*
X64635000Y-145640000D02*
X49865000Y-145640000D01*
X64635000Y-145640000D02*
X64635000Y-148350000D01*
X64635000Y-156150000D02*
X64635000Y-158860000D01*
X64635000Y-158860000D02*
X49865000Y-158860000D01*
X51300000Y-161250000D02*
X50970000Y-161490000D01*
X50970000Y-161010000D01*
X51300000Y-161250000D01*
G36*
X51300000Y-161250000D02*
G01*
X50970000Y-161490000D01*
X50970000Y-161010000D01*
X51300000Y-161250000D01*
G37*
%TD*%
M02*
