%TF.GenerationSoftware,KiCad,Pcbnew,9.0.3+dfsg-1*%
%TF.CreationDate,2026-02-25T02:28:08-05:00*%
%TF.ProjectId,ClassECoil,436c6173-7345-4436-9f69-6c2e6b696361,rev?*%
%TF.SameCoordinates,Original*%
%TF.FileFunction,Copper,L1,Top*%
%TF.FilePolarity,Positive*%
%FSLAX46Y46*%
G04 Gerber Fmt 4.6, Leading zero omitted, Abs format (unit mm)*
G04 Created by KiCad (PCBNEW 9.0.3+dfsg-1) date 2026-02-25 02:28:08*
%MOMM*%
%LPD*%
G01*
G04 APERTURE LIST*
G04 Aperture macros list*
%AMRoundRect*
0 Rectangle with rounded corners*
0 $1 Rounding radius*
0 $2 $3 $4 $5 $6 $7 $8 $9 X,Y pos of 4 corners*
0 Add a 4 corners polygon primitive as box body*
4,1,4,$2,$3,$4,$5,$6,$7,$8,$9,$2,$3,0*
0 Add four circle primitives for the rounded corners*
1,1,$1+$1,$2,$3*
1,1,$1+$1,$4,$5*
1,1,$1+$1,$6,$7*
1,1,$1+$1,$8,$9*
0 Add four rect primitives between the rounded corners*
20,1,$1+$1,$2,$3,$4,$5,0*
20,1,$1+$1,$4,$5,$6,$7,0*
20,1,$1+$1,$6,$7,$8,$9,0*
20,1,$1+$1,$8,$9,$2,$3,0*%
G04 Aperture macros list end*
%TA.AperFunction,ComponentPad*%
%ADD10C,1.905000*%
%TD*%
%TA.AperFunction,ComponentPad*%
%ADD11R,2.000000X1.905000*%
%TD*%
%TA.AperFunction,ComponentPad*%
%ADD12O,2.000000X1.905000*%
%TD*%
%TA.AperFunction,ComponentPad*%
%ADD13C,1.000000*%
%TD*%
%TA.AperFunction,ComponentPad*%
%ADD14RoundRect,0.250000X-1.750000X1.750000X-1.750000X-1.750000X1.750000X-1.750000X1.750000X1.750000X0*%
%TD*%
%TA.AperFunction,ComponentPad*%
%ADD15C,4.000000*%
%TD*%
%TA.AperFunction,ComponentPad*%
%ADD16R,1.700000X1.700000*%
%TD*%
%TA.AperFunction,ComponentPad*%
%ADD17C,1.700000*%
%TD*%
%TA.AperFunction,ComponentPad*%
%ADD18C,2.400000*%
%TD*%
%TA.AperFunction,ComponentPad*%
%ADD19C,0.800000*%
%TD*%
%TA.AperFunction,ComponentPad*%
%ADD20C,6.400000*%
%TD*%
%TA.AperFunction,ComponentPad*%
%ADD21RoundRect,0.250000X0.750000X0.750000X-0.750000X0.750000X-0.750000X-0.750000X0.750000X-0.750000X0*%
%TD*%
%TA.AperFunction,ComponentPad*%
%ADD22C,2.000000*%
%TD*%
%TA.AperFunction,ComponentPad*%
%ADD23RoundRect,0.250000X0.845000X-0.620000X0.845000X0.620000X-0.845000X0.620000X-0.845000X-0.620000X0*%
%TD*%
%TA.AperFunction,ComponentPad*%
%ADD24O,2.190000X1.740000*%
%TD*%
%TA.AperFunction,ComponentPad*%
%ADD25RoundRect,0.750000X-0.750000X0.750000X-0.750000X-0.750000X0.750000X-0.750000X0.750000X0.750000X0*%
%TD*%
%TA.AperFunction,ComponentPad*%
%ADD26C,3.000000*%
%TD*%
%TA.AperFunction,ComponentPad*%
%ADD27R,1.905000X4.500000*%
%TD*%
%TA.AperFunction,ComponentPad*%
%ADD28O,1.905000X4.500000*%
%TD*%
%TA.AperFunction,ComponentPad*%
%ADD29R,9.360000X3.010000*%
%TD*%
%TA.AperFunction,ComponentPad*%
%ADD30RoundRect,0.752500X0.752500X-3.927500X0.752500X3.927500X-0.752500X3.927500X-0.752500X-3.927500X0*%
%TD*%
%TA.AperFunction,ComponentPad*%
%ADD31R,1.500000X2.000000*%
%TD*%
%TA.AperFunction,ComponentPad*%
%ADD32O,1.500000X2.000000*%
%TD*%
%TA.AperFunction,ComponentPad*%
%ADD33C,1.600000*%
%TD*%
%TA.AperFunction,ComponentPad*%
%ADD34RoundRect,0.250000X0.550000X-0.550000X0.550000X0.550000X-0.550000X0.550000X-0.550000X-0.550000X0*%
%TD*%
%TA.AperFunction,ComponentPad*%
%ADD35R,2.030000X1.730000*%
%TD*%
%TA.AperFunction,ComponentPad*%
%ADD36O,2.030000X1.730000*%
%TD*%
%TA.AperFunction,ComponentPad*%
%ADD37RoundRect,0.250000X-0.550000X0.550000X-0.550000X-0.550000X0.550000X-0.550000X0.550000X0.550000X0*%
%TD*%
%TA.AperFunction,SMDPad,CuDef*%
%ADD38R,1.190000X2.340000*%
%TD*%
%TA.AperFunction,SMDPad,CuDef*%
%ADD39R,4.270000X7.240000*%
%TD*%
%TA.AperFunction,ComponentPad*%
%ADD40C,1.440000*%
%TD*%
%TA.AperFunction,ViaPad*%
%ADD41C,0.600000*%
%TD*%
%TA.AperFunction,Conductor*%
%ADD42C,1.000000*%
%TD*%
%TA.AperFunction,Conductor*%
%ADD43C,0.500000*%
%TD*%
%TA.AperFunction,Conductor*%
%ADD44C,2.000000*%
%TD*%
%TA.AperFunction,Conductor*%
%ADD45C,4.000000*%
%TD*%
G04 APERTURE END LIST*
D10*
%TO.P,J11,1,Pin_1*%
%TO.N,Net-(J11-Pin_1)*%
X54460000Y-134500000D03*
X59540000Y-134500000D03*
%TD*%
D11*
%TO.P,U8,1,IN*%
%TO.N,+15V*%
X65200000Y-97040000D03*
D12*
%TO.P,U8,2,GND*%
%TO.N,GND*%
X65200000Y-94500000D03*
%TO.P,U8,3,OUT*%
%TO.N,+5V*%
X65200000Y-91960000D03*
%TD*%
D13*
%TO.P,NE1,1*%
%TO.N,Net-(NE1-Pad1)*%
X149250000Y-71250000D03*
%TO.P,NE1,2*%
%TO.N,GND*%
X149250000Y-74250000D03*
%TD*%
D14*
%TO.P,C9,1*%
%TO.N,VBUS*%
X125750000Y-42750000D03*
D15*
%TO.P,C9,2*%
%TO.N,GND*%
X125750000Y-52750000D03*
%TD*%
D10*
%TO.P,J4,1,Pin_1*%
%TO.N,Net-(D2--)*%
X149000000Y-99500000D03*
X149000000Y-104580000D03*
%TD*%
%TO.P,J2,1,Pin_1*%
%TO.N,VBUCK_OUT*%
X63000000Y-67540000D03*
X63000000Y-62460000D03*
%TD*%
D11*
%TO.P,U19,1,IN*%
%TO.N,+15V*%
X112020000Y-162210000D03*
D12*
%TO.P,U19,2,GND*%
%TO.N,GND*%
X112020000Y-164750000D03*
%TO.P,U19,3,OUT*%
%TO.N,+12V*%
X112020000Y-167290000D03*
%TD*%
D16*
%TO.P,J12,1,Pin_1*%
%TO.N,GND*%
X59460000Y-166750000D03*
D17*
%TO.P,J12,2,Pin_2*%
%TO.N,Net-(J12-Pin_2)*%
X59460000Y-169290000D03*
%TO.P,J12,3,Pin_3*%
%TO.N,Net-(J12-Pin_3)*%
X62000000Y-166750000D03*
%TO.P,J12,4,Pin_4*%
%TO.N,Net-(J12-Pin_4)*%
X62000000Y-169290000D03*
%TO.P,J12,5,Pin_5*%
%TO.N,Net-(J12-Pin_2)*%
X64540000Y-166750000D03*
%TO.P,J12,6,Pin_6*%
%TO.N,GND*%
X64540000Y-169290000D03*
%TD*%
D18*
%TO.P,C37,1*%
%TO.N,VBUCK_OUT*%
X53250000Y-63500000D03*
%TO.P,C37,2*%
%TO.N,GND*%
X53250000Y-41000000D03*
%TD*%
D19*
%TO.P,H4,1,1*%
%TO.N,unconnected-(H4-Pad1)*%
X137100000Y-169000000D03*
X137802944Y-167302944D03*
X137802944Y-170697056D03*
X139500000Y-166600000D03*
D20*
X139500000Y-169000000D03*
D19*
X139500000Y-171400000D03*
X141197056Y-167302944D03*
X141197056Y-170697056D03*
X141900000Y-169000000D03*
%TD*%
D21*
%TO.P,C31,1*%
%TO.N,+15V*%
X57367677Y-91750000D03*
D22*
%TO.P,C31,2*%
%TO.N,GND*%
X52367677Y-91750000D03*
%TD*%
D23*
%TO.P,J1,1,Pin_1*%
%TO.N,Net-(J1-Pin_1)*%
X57000000Y-113775000D03*
D24*
%TO.P,J1,2,Pin_2*%
%TO.N,GND_ISO*%
X57000000Y-111235000D03*
%TD*%
D16*
%TO.P,J6,1,Pin_1*%
%TO.N,Net-(J6-Pin_1)*%
X54460000Y-124500000D03*
D17*
%TO.P,J6,2,Pin_2*%
%TO.N,Net-(J1-Pin_1)*%
X57000000Y-124500000D03*
%TO.P,J6,3,Pin_3*%
%TO.N,Net-(J6-Pin_3)*%
X59540000Y-124500000D03*
%TD*%
D25*
%TO.P,F1,1*%
%TO.N,Net-(J5-Pin_1)*%
X149000000Y-125400000D03*
X149000000Y-133000000D03*
D26*
%TO.P,F1,2*%
%TO.N,Net-(D2-+)*%
X149000000Y-152500000D03*
X149000000Y-160100000D03*
%TD*%
D27*
%TO.P,Q1,1,D*%
%TO.N,VBUS*%
X80420000Y-76140000D03*
D28*
%TO.P,Q1,2,S*%
%TO.N,/Buck Stage/BUCK_SW*%
X85500000Y-76140000D03*
%TO.P,Q1,3,DS*%
%TO.N,Net-(D16-A2)*%
X88040000Y-76140000D03*
%TO.P,Q1,4,G*%
%TO.N,Net-(D16-A1)*%
X90580000Y-76140000D03*
%TD*%
D10*
%TO.P,J3,1,Pin_1*%
%TO.N,Net-(J3-Pin_1)*%
X114460000Y-68750000D03*
X119540000Y-68750000D03*
%TD*%
D19*
%TO.P,H7,1,1*%
%TO.N,unconnected-(H7-Pad1)*%
X147100000Y-33500000D03*
X147802944Y-31802944D03*
X147802944Y-35197056D03*
X149500000Y-31100000D03*
D20*
X149500000Y-33500000D03*
D19*
X149500000Y-35900000D03*
X151197056Y-31802944D03*
X151197056Y-35197056D03*
X151900000Y-33500000D03*
%TD*%
D26*
%TO.P,L2,1,1*%
%TO.N,unconnected-(L2-Pad1)*%
X72750000Y-68250000D03*
%TO.P,L2,2,2*%
%TO.N,VBUCK_OUT*%
X77750000Y-68250000D03*
%TO.P,L2,3,3*%
X82750000Y-68250000D03*
%TO.P,L2,4,4*%
%TO.N,/Buck Stage/BUCK_SW*%
X92750000Y-68250000D03*
%TO.P,L2,5,5*%
X97750000Y-68250000D03*
%TO.P,L2,6,6*%
%TO.N,unconnected-(L2-Pad6)*%
X102750000Y-68250000D03*
%TO.P,L2,7,7*%
%TO.N,unconnected-(L2-Pad7)*%
X102750000Y-33250000D03*
%TO.P,L2,8,8*%
%TO.N,unconnected-(L2-Pad8)*%
X97750000Y-33250000D03*
%TO.P,L2,10,10*%
%TO.N,GND*%
X82750000Y-33250000D03*
%TO.P,L2,11,11*%
%TO.N,unconnected-(L2-Pad11)*%
X77750000Y-33250000D03*
%TO.P,L2,12,12*%
%TO.N,unconnected-(L2-Pad12)*%
X72750000Y-33250000D03*
%TD*%
D29*
%TO.P,D2,1,+*%
%TO.N,Net-(D2-+)*%
X117900000Y-150300000D03*
D30*
%TO.P,D2,2*%
%TO.N,GND*%
X116400000Y-133700000D03*
%TO.P,D2,3,-*%
%TO.N,Net-(D2--)*%
X134500000Y-133700000D03*
%TO.P,D2,4*%
%TO.N,VBUS*%
X134500000Y-148000000D03*
%TD*%
D10*
%TO.P,J5,1,Pin_1*%
%TO.N,Net-(J5-Pin_1)*%
X148960000Y-111710000D03*
X148960000Y-116790000D03*
%TD*%
D19*
%TO.P,H6,1,1*%
%TO.N,Earth*%
X50100000Y-168500000D03*
X50802944Y-166802944D03*
X50802944Y-170197056D03*
X52500000Y-166100000D03*
D20*
X52500000Y-168500000D03*
D19*
X52500000Y-170900000D03*
X54197056Y-166802944D03*
X54197056Y-170197056D03*
X54900000Y-168500000D03*
%TD*%
%TO.P,H8,1,1*%
%TO.N,unconnected-(H8-Pad1)*%
X50100000Y-33500000D03*
X50802944Y-31802944D03*
X50802944Y-35197056D03*
X52500000Y-31100000D03*
D20*
X52500000Y-33500000D03*
D19*
X52500000Y-35900000D03*
X54197056Y-31802944D03*
X54197056Y-35197056D03*
X54900000Y-33500000D03*
%TD*%
D31*
%TO.P,U2,1,-VIN*%
%TO.N,GND*%
X58762500Y-99132500D03*
D32*
%TO.P,U2,2,+VIN*%
%TO.N,+5V*%
X56222500Y-99132500D03*
%TO.P,U2,3,-VOUT*%
%TO.N,GND_ISO*%
X53682500Y-99132500D03*
%TO.P,U2,4,+VOUT*%
%TO.N,5V_ISO*%
X51142500Y-99132500D03*
%TD*%
D18*
%TO.P,C2,1*%
%TO.N,VBUCK_OUT*%
X63000000Y-54500000D03*
%TO.P,C2,2*%
%TO.N,GND*%
X63000000Y-32000000D03*
%TD*%
D33*
%TO.P,R51,1*%
%TO.N,VBUS*%
X149155000Y-67800000D03*
%TO.P,R51,2*%
%TO.N,Net-(NE1-Pad1)*%
X151695000Y-67800000D03*
%TD*%
D19*
%TO.P,H3,1,1*%
%TO.N,unconnected-(H3-Pad1)*%
X68850000Y-169000000D03*
X69552944Y-167302944D03*
X69552944Y-170697056D03*
X71250000Y-166600000D03*
D20*
X71250000Y-169000000D03*
D19*
X71250000Y-171400000D03*
X72947056Y-167302944D03*
X72947056Y-170697056D03*
X73650000Y-169000000D03*
%TD*%
%TO.P,H1,1,1*%
%TO.N,GND*%
X137100000Y-77000000D03*
X137802944Y-75302944D03*
X137802944Y-78697056D03*
X139500000Y-74600000D03*
D20*
X139500000Y-77000000D03*
D19*
X139500000Y-79400000D03*
X141197056Y-75302944D03*
X141197056Y-78697056D03*
X141900000Y-77000000D03*
%TD*%
D18*
%TO.P,C25,1*%
%TO.N,GND*%
X148750000Y-63250000D03*
%TO.P,C25,2*%
%TO.N,VBUS*%
X148750000Y-40750000D03*
%TD*%
D27*
%TO.P,Q2,1,D*%
%TO.N,/Buck Stage/BUCK_SW*%
X100420000Y-76140000D03*
D28*
%TO.P,Q2,2,S*%
%TO.N,GND*%
X105500000Y-76140000D03*
%TO.P,Q2,3,DS*%
%TO.N,Net-(D12-A2)*%
X108040000Y-76140000D03*
%TO.P,Q2,4,G*%
%TO.N,Net-(D12-A1)*%
X110580000Y-76140000D03*
%TD*%
D34*
%TO.P,U10,1*%
%TO.N,Net-(R20-Pad1)*%
X100035000Y-146416000D03*
D33*
%TO.P,U10,2*%
%TO.N,Net-(Q4-D)*%
X102575000Y-146416000D03*
%TO.P,U10,3*%
%TO.N,unconnected-(U10-Pad3)*%
X105115000Y-146416000D03*
%TO.P,U10,4*%
%TO.N,BUCK*%
X105115000Y-138796000D03*
%TO.P,U10,5*%
%TO.N,GND*%
X102575000Y-138796000D03*
%TO.P,U10,6*%
%TO.N,+5V*%
X100035000Y-138796000D03*
%TD*%
D19*
%TO.P,H5,1,1*%
%TO.N,unconnected-(H5-Pad1)*%
X147100000Y-168500000D03*
X147802944Y-166802944D03*
X147802944Y-170197056D03*
X149500000Y-166100000D03*
D20*
X149500000Y-168500000D03*
D19*
X149500000Y-170900000D03*
X151197056Y-166802944D03*
X151197056Y-170197056D03*
X151900000Y-168500000D03*
%TD*%
D35*
%TO.P,M1,1,-*%
%TO.N,GND*%
X150000000Y-77860000D03*
D36*
%TO.P,M1,2,+*%
%TO.N,+12V*%
X150000000Y-80400000D03*
%TO.P,M1,3,Tacho*%
%TO.N,unconnected-(M1-Tacho-Pad3)*%
X150000000Y-82940000D03*
%TO.P,M1,4,PWM*%
%TO.N,unconnected-(M1-PWM-Pad4)*%
X150000000Y-85480000D03*
%TD*%
D27*
%TO.P,Q6,1,D*%
%TO.N,Net-(J3-Pin_1)*%
X120420000Y-76140000D03*
D28*
%TO.P,Q6,2,S*%
%TO.N,GND*%
X125500000Y-76140000D03*
%TO.P,Q6,3,DS*%
%TO.N,S_K*%
X128040000Y-76140000D03*
%TO.P,Q6,4,G*%
%TO.N,Net-(D11-A1)*%
X130580000Y-76140000D03*
%TD*%
D19*
%TO.P,H2,1,1*%
%TO.N,GND*%
X68850000Y-77000000D03*
X69552944Y-75302944D03*
X69552944Y-78697056D03*
X71250000Y-74600000D03*
D20*
X71250000Y-77000000D03*
D19*
X71250000Y-79400000D03*
X72947056Y-75302944D03*
X72947056Y-78697056D03*
X73650000Y-77000000D03*
%TD*%
D37*
%TO.P,C30,1*%
%TO.N,Net-(D6-K)*%
X64250000Y-72250000D03*
D33*
%TO.P,C30,2*%
%TO.N,Net-(D5-K)*%
X64250000Y-74250000D03*
%TD*%
D38*
%TO.P,T1,1,1*%
%TO.N,unconnected-(T1-Pad1)*%
X52170000Y-161290000D03*
%TO.P,T1,2,2*%
%TO.N,Net-(J12-Pin_4)*%
X54710000Y-161290000D03*
%TO.P,T1,3,3*%
%TO.N,unconnected-(T1-Pad3)*%
X57250000Y-161290000D03*
%TO.P,T1,4,4*%
%TO.N,Net-(J12-Pin_3)*%
X59790000Y-161290000D03*
%TO.P,T1,5,5*%
%TO.N,unconnected-(T1-Pad5)*%
X62330000Y-161290000D03*
%TO.P,T1,6,6*%
%TO.N,unconnected-(T1-Pad6)*%
X62330000Y-143210000D03*
%TO.P,T1,7,7*%
%TO.N,unconnected-(T1-Pad7)*%
X59790000Y-143210000D03*
%TO.P,T1,8,8*%
%TO.N,unconnected-(T1-Pad8)*%
X57250000Y-143210000D03*
%TO.P,T1,9,9*%
%TO.N,unconnected-(T1-Pad9)*%
X54710000Y-143210000D03*
%TO.P,T1,10,10*%
%TO.N,unconnected-(T1-Pad10)*%
X52170000Y-143210000D03*
D39*
%TO.P,T1,11,11*%
%TO.N,Net-(J11-Pin_1)*%
X51630000Y-152250000D03*
%TO.P,T1,12,12*%
%TO.N,Earth*%
X62870000Y-152250000D03*
%TD*%
D40*
%TO.P,RV1,1,1*%
%TO.N,unconnected-(RV1-Pad1)*%
X102518750Y-112940625D03*
%TO.P,RV1,2,2*%
%TO.N,Net-(U4-R1)*%
X99978750Y-110400625D03*
%TO.P,RV1,3,3*%
%TO.N,GND*%
X102518750Y-107860625D03*
%TD*%
%TO.P,RV5,1,1*%
%TO.N,5V_ISO*%
X84513704Y-142515000D03*
%TO.P,RV5,2,2*%
%TO.N,Net-(U16B-+)*%
X81973704Y-145055000D03*
%TO.P,RV5,3,3*%
%TO.N,GND_ISO*%
X79433704Y-142515000D03*
%TD*%
%TO.P,RV4,1,1*%
%TO.N,+5V*%
X74578750Y-115400625D03*
%TO.P,RV4,2,2*%
%TO.N,Net-(U11-+)*%
X77118750Y-117940625D03*
%TO.P,RV4,3,3*%
%TO.N,GND*%
X74578750Y-120480625D03*
%TD*%
%TO.P,RV6,1,1*%
%TO.N,BIAS*%
X92013704Y-142515000D03*
%TO.P,RV6,2,2*%
%TO.N,Net-(U16A--)*%
X89473704Y-145055000D03*
%TO.P,RV6,3,3*%
X86933704Y-142515000D03*
%TD*%
%TO.P,RV3,1,1*%
%TO.N,unconnected-(RV3-Pad1)*%
X102518750Y-120440625D03*
%TO.P,RV3,2,2*%
%TO.N,Net-(U4-R2)*%
X99978750Y-117900625D03*
%TO.P,RV3,3,3*%
%TO.N,GND*%
X102518750Y-115360625D03*
%TD*%
%TO.P,RV2,1,1*%
%TO.N,GND*%
X82578750Y-115400625D03*
%TO.P,RV2,2,2*%
%TO.N,Net-(R8-Pad2)*%
X85118750Y-117940625D03*
%TO.P,RV2,3,3*%
%TO.N,+5V*%
X82578750Y-120480625D03*
%TD*%
D41*
%TO.N,GND*%
X112975000Y-84665000D03*
X100250000Y-90750000D03*
X133000000Y-86050000D03*
X149050000Y-89200000D03*
X89500000Y-93750000D03*
X113750000Y-88500000D03*
X97662500Y-91530000D03*
X92975000Y-84665000D03*
X97750000Y-81250000D03*
X66539669Y-163689669D03*
X94468750Y-123940625D03*
X76750000Y-88537500D03*
X80518750Y-107440625D03*
X92975000Y-85935000D03*
X60500000Y-74500000D03*
X113750000Y-91000000D03*
X94468750Y-126440625D03*
X112975000Y-85935000D03*
X82143750Y-112140625D03*
X98500000Y-88500000D03*
X98268750Y-124190625D03*
X133000000Y-84780000D03*
X85000000Y-126440625D03*
X89018750Y-110245625D03*
X78906250Y-111440625D03*
X65450000Y-86500000D03*
X67500000Y-166330000D03*
X96665380Y-95415380D03*
X116500000Y-83500000D03*
%TO.N,VBUS*%
X52250000Y-67605000D03*
X51000000Y-67605000D03*
X53484000Y-67605000D03*
X49750000Y-67605000D03*
%TO.N,GND_ISO*%
X92775000Y-153955000D03*
X74600000Y-139800000D03*
X96286204Y-149755000D03*
X81075000Y-153930000D03*
X76737500Y-153705000D03*
X74875000Y-146205000D03*
X79748704Y-147800000D03*
X87850000Y-151610000D03*
X74825000Y-157005000D03*
X83775000Y-153930000D03*
X53000000Y-102250000D03*
%TO.N,Net-(D3-K)*%
X76750000Y-86625000D03*
%TO.N,+5V*%
X118750000Y-92000000D03*
X87268750Y-117190625D03*
X98750000Y-81500000D03*
X92568750Y-130368750D03*
X90500000Y-117000000D03*
X117500000Y-81500000D03*
X120500000Y-94500000D03*
X92568750Y-126440625D03*
%TO.N,+15V*%
X97000000Y-93250000D03*
X122000000Y-89750000D03*
X92000000Y-81000000D03*
X64500000Y-82250000D03*
X90750000Y-95500000D03*
X122000000Y-95000000D03*
X100500000Y-89000000D03*
X109500000Y-89750000D03*
X111791826Y-89750000D03*
%TO.N,~{OT}*%
X96800000Y-82525000D03*
X115550000Y-82387500D03*
%TO.N,5V_ISO*%
X82723704Y-151205000D03*
X82473704Y-140205000D03*
X82473704Y-142455000D03*
X87392831Y-156360331D03*
X82473704Y-147205000D03*
X86223704Y-155205000D03*
X81973704Y-154205000D03*
%TO.N,BUCK*%
X100200000Y-103000000D03*
X97401000Y-99399000D03*
%TO.N,Net-(D8-A)*%
X103837500Y-89780000D03*
X92250000Y-89030000D03*
%TO.N,Net-(U4-Inh)*%
X89018750Y-114055625D03*
X78906250Y-110490625D03*
%TO.N,Net-(J12-Pin_2)*%
X75018750Y-129440625D03*
%TD*%
D42*
%TO.N,GND*%
X112020000Y-164750000D02*
X110115000Y-164750000D01*
D43*
X66799000Y-134601000D02*
X72000000Y-129400000D01*
X66799000Y-163430338D02*
X66799000Y-161600000D01*
X102575000Y-138796000D02*
X94468750Y-130689750D01*
X66799000Y-161600000D02*
X66799000Y-134601000D01*
D42*
X110115000Y-164750000D02*
X109000000Y-163635000D01*
D43*
X67500000Y-166330000D02*
X64540000Y-169290000D01*
X94468750Y-130689750D02*
X94468750Y-126440625D01*
X66539669Y-163689669D02*
X66799000Y-163430338D01*
D42*
X109000000Y-141100000D02*
X116400000Y-133700000D01*
X109000000Y-163635000D02*
X109000000Y-141100000D01*
D43*
%TO.N,Earth*%
X52525000Y-168500000D02*
X54250000Y-168500000D01*
D44*
X56201000Y-158919000D02*
X50750000Y-158919000D01*
D43*
X54250000Y-168500000D02*
X54500000Y-168750000D01*
D44*
X50374000Y-159295000D02*
X50374000Y-166374000D01*
X50374000Y-166374000D02*
X52500000Y-168500000D01*
X50750000Y-158919000D02*
X50374000Y-159295000D01*
X62870000Y-152250000D02*
X56201000Y-158919000D01*
%TO.N,VBUS*%
X49750000Y-67605000D02*
X54895000Y-67605000D01*
X58500000Y-64000000D02*
X58500000Y-60000000D01*
X58500000Y-60000000D02*
X61000000Y-57500000D01*
X54895000Y-67605000D02*
X58500000Y-64000000D01*
X61000000Y-57500000D02*
X87250000Y-57500000D01*
D45*
%TO.N,Net-(D2-+)*%
X133100000Y-160100000D02*
X149000000Y-160100000D01*
X117900000Y-150300000D02*
X123300000Y-150300000D01*
X149000000Y-152500000D02*
X149000000Y-160100000D01*
X123300000Y-150300000D02*
X133100000Y-160100000D01*
D43*
%TO.N,GND_ISO*%
X57000000Y-111235000D02*
X54985000Y-111235000D01*
X54985000Y-111235000D02*
X53000000Y-109250000D01*
X53000000Y-109250000D02*
X53000000Y-102250000D01*
%TO.N,+5V*%
X118750000Y-92000000D02*
X118750000Y-92750000D01*
X118750000Y-92750000D02*
X120500000Y-94500000D01*
X92568750Y-126440625D02*
X92568750Y-130368750D01*
X87268750Y-117190625D02*
X90309375Y-117190625D01*
X90309375Y-117190625D02*
X90500000Y-117000000D01*
X98750000Y-81500000D02*
X117500000Y-81500000D01*
%TO.N,+15V*%
X76500000Y-81000000D02*
X75250000Y-82250000D01*
X122000000Y-89750000D02*
X122000000Y-95000000D01*
X97000000Y-93250000D02*
X93000000Y-93250000D01*
X75250000Y-82250000D02*
X64500000Y-82250000D01*
D44*
X65200000Y-97040000D02*
X62657677Y-97040000D01*
D43*
X92000000Y-81000000D02*
X76500000Y-81000000D01*
X100500000Y-89000000D02*
X108750000Y-89000000D01*
D44*
X62657677Y-97040000D02*
X57367677Y-91750000D01*
D43*
X93000000Y-93250000D02*
X90750000Y-95500000D01*
X108750000Y-89000000D02*
X109500000Y-89750000D01*
X109500000Y-89750000D02*
X122000000Y-89750000D01*
%TO.N,~{OT}*%
X115550000Y-82387500D02*
X115362500Y-82387500D01*
X115362500Y-82387500D02*
X115225000Y-82525000D01*
X115225000Y-82525000D02*
X96800000Y-82525000D01*
%TO.N,5V_ISO*%
X82473704Y-140205000D02*
X82473704Y-142455000D01*
X87237500Y-156205000D02*
X87223704Y-156205000D01*
X87392831Y-156360331D02*
X87237500Y-156205000D01*
X82473704Y-142455000D02*
X83144704Y-143126000D01*
X83144704Y-143126000D02*
X83144704Y-146534000D01*
X81973704Y-154205000D02*
X81973704Y-151955000D01*
X87223704Y-156205000D02*
X86223704Y-155205000D01*
X81973704Y-151955000D02*
X82723704Y-151205000D01*
X83144704Y-146534000D02*
X82473704Y-147205000D01*
%TO.N,BUCK*%
X100200000Y-103000000D02*
X97401000Y-100201000D01*
X97401000Y-100201000D02*
X97401000Y-99399000D01*
%TO.N,Net-(D8-A)*%
X100250000Y-89780000D02*
X93000000Y-89780000D01*
X93000000Y-89780000D02*
X92250000Y-89030000D01*
X103837500Y-89780000D02*
X100250000Y-89780000D01*
%TO.N,Net-(U4-Inh)*%
X83268750Y-113440625D02*
X83883750Y-114055625D01*
X79068750Y-110490625D02*
X82018750Y-113440625D01*
X82018750Y-113440625D02*
X83268750Y-113440625D01*
X83883750Y-114055625D02*
X89018750Y-114055625D01*
X78906250Y-110490625D02*
X79068750Y-110490625D01*
D45*
%TO.N,Net-(J5-Pin_1)*%
X148960000Y-111710000D02*
X148960000Y-132960000D01*
X148960000Y-132960000D02*
X149000000Y-133000000D01*
%TO.N,Net-(D2--)*%
X142750000Y-125450000D02*
X142750000Y-108750000D01*
X134500000Y-133700000D02*
X142750000Y-125450000D01*
X146920000Y-104580000D02*
X149000000Y-104580000D01*
X149000000Y-99500000D02*
X149000000Y-104580000D01*
X142750000Y-108750000D02*
X146920000Y-104580000D01*
D44*
%TO.N,Net-(J11-Pin_1)*%
X50374000Y-150994000D02*
X50374000Y-138586000D01*
X51630000Y-152250000D02*
X50374000Y-150994000D01*
X54460000Y-134500000D02*
X59540000Y-134500000D01*
X50374000Y-138586000D02*
X54460000Y-134500000D01*
D43*
%TO.N,Net-(J12-Pin_2)*%
X75018750Y-129440625D02*
X73059375Y-129440625D01*
X67500000Y-163790000D02*
X64540000Y-166750000D01*
X73059375Y-129440625D02*
X67500000Y-135000000D01*
X67500000Y-135000000D02*
X67500000Y-163790000D01*
X64540000Y-166710000D02*
X64540000Y-166750000D01*
%TO.N,Net-(J12-Pin_3)*%
X59790000Y-164540000D02*
X62000000Y-166750000D01*
X59790000Y-161290000D02*
X59790000Y-164540000D01*
%TO.N,Net-(J12-Pin_4)*%
X57250000Y-165250000D02*
X57250000Y-170750000D01*
X57250000Y-170750000D02*
X58000000Y-171500000D01*
X58000000Y-171500000D02*
X59790000Y-171500000D01*
X54710000Y-162710000D02*
X57250000Y-165250000D01*
X59790000Y-171500000D02*
X62000000Y-169290000D01*
X54710000Y-161290000D02*
X54710000Y-162710000D01*
%TD*%
%TA.AperFunction,Conductor*%
%TO.N,GND*%
G36*
X135783085Y-126669733D02*
G01*
X135520229Y-126976399D01*
X135461657Y-127014488D01*
X135422773Y-127018991D01*
X135422773Y-127019500D01*
X133580972Y-127019500D01*
X133424858Y-127038455D01*
X133250351Y-127059645D01*
X133250348Y-127059645D01*
X133250345Y-127059646D01*
X132926971Y-127139350D01*
X132681896Y-127232295D01*
X132615568Y-127257451D01*
X132615565Y-127257452D01*
X132615561Y-127257454D01*
X132615560Y-127257454D01*
X132320669Y-127412226D01*
X132046572Y-127601420D01*
X132046566Y-127601425D01*
X131797277Y-127822275D01*
X131797275Y-127822277D01*
X131576425Y-128071566D01*
X131576420Y-128071572D01*
X131387226Y-128345669D01*
X131232454Y-128640560D01*
X131232454Y-128640561D01*
X131114350Y-128951971D01*
X131034646Y-129275345D01*
X130994500Y-129605971D01*
X130994500Y-131740786D01*
X130979858Y-131799239D01*
X130879232Y-131987495D01*
X130879230Y-131987500D01*
X130728810Y-132350645D01*
X130614706Y-132726795D01*
X130614703Y-132726806D01*
X130538028Y-133112291D01*
X130538025Y-133112308D01*
X130499500Y-133503471D01*
X130499500Y-133896528D01*
X130538025Y-134287691D01*
X130538028Y-134287708D01*
X130614703Y-134673193D01*
X130614706Y-134673204D01*
X130728810Y-135049354D01*
X130851672Y-135345969D01*
X130879229Y-135412497D01*
X130979858Y-135600761D01*
X130994500Y-135659212D01*
X130994500Y-137794028D01*
X131024909Y-138044469D01*
X131013449Y-138113393D01*
X130966545Y-138165179D01*
X130899089Y-138183386D01*
X130832498Y-138162234D01*
X130791330Y-138115713D01*
X130689452Y-137915766D01*
X130689446Y-137915757D01*
X130689444Y-137915752D01*
X130689441Y-137915747D01*
X130443089Y-137513738D01*
X130443085Y-137513733D01*
X130443083Y-137513729D01*
X130165930Y-137132260D01*
X129859702Y-136773713D01*
X129526287Y-136440298D01*
X129497122Y-136415389D01*
X129167746Y-136134075D01*
X129167732Y-136134064D01*
X128786272Y-135856918D01*
X128786261Y-135856910D01*
X128384252Y-135610558D01*
X128384246Y-135610555D01*
X128384242Y-135610553D01*
X128384234Y-135610548D01*
X127964106Y-135396482D01*
X127824536Y-135338670D01*
X127528472Y-135216036D01*
X127209402Y-135112364D01*
X127080035Y-135070331D01*
X127033479Y-135059154D01*
X126866796Y-135019137D01*
X126621543Y-134960257D01*
X126155827Y-134886495D01*
X125685765Y-134849500D01*
X125685760Y-134849500D01*
X125214240Y-134849500D01*
X125214234Y-134849500D01*
X124744172Y-134886495D01*
X124744171Y-134886495D01*
X124278462Y-134960256D01*
X124278459Y-134960256D01*
X124278457Y-134960257D01*
X124114258Y-134999677D01*
X123819976Y-135070328D01*
X123819970Y-135070329D01*
X123819965Y-135070331D01*
X123819953Y-135070335D01*
X123371527Y-135216036D01*
X122961272Y-135385970D01*
X122935894Y-135396482D01*
X122515766Y-135610548D01*
X122515762Y-135610550D01*
X122515753Y-135610555D01*
X122515747Y-135610558D01*
X122113738Y-135856910D01*
X122113727Y-135856918D01*
X121732267Y-136134064D01*
X121732253Y-136134075D01*
X121373719Y-136440292D01*
X121373705Y-136440305D01*
X121040305Y-136773705D01*
X121040292Y-136773719D01*
X120734075Y-137132253D01*
X120734064Y-137132267D01*
X120456918Y-137513727D01*
X120456910Y-137513738D01*
X120210558Y-137915747D01*
X120210555Y-137915753D01*
X119996481Y-138335896D01*
X119816036Y-138771527D01*
X119670335Y-139219953D01*
X119670328Y-139219976D01*
X119560256Y-139678462D01*
X119486495Y-140144171D01*
X119486495Y-140144172D01*
X119449500Y-140614234D01*
X119449500Y-141085765D01*
X119486495Y-141555827D01*
X119486495Y-141555828D01*
X119508907Y-141697334D01*
X119552110Y-141970107D01*
X119557007Y-142001022D01*
X119548052Y-142070316D01*
X119503056Y-142123767D01*
X119436305Y-142144407D01*
X119435959Y-142144412D01*
X109375425Y-142260052D01*
X109308164Y-142241139D01*
X109261805Y-142188864D01*
X109250000Y-142136060D01*
X109250000Y-130000000D01*
X109250000Y-125757813D01*
X136748873Y-125542977D01*
X135783085Y-126669733D01*
G37*
%TD.AperFunction*%
%TA.AperFunction,Conductor*%
G36*
X144500000Y-72750000D02*
G01*
X147247950Y-72750000D01*
X147382584Y-72918825D01*
X147581175Y-73117416D01*
X147800752Y-73292523D01*
X148038555Y-73441945D01*
X148291592Y-73563801D01*
X148490680Y-73633465D01*
X148556670Y-73656556D01*
X148556682Y-73656560D01*
X148830491Y-73719055D01*
X148830497Y-73719055D01*
X148830505Y-73719057D01*
X149016547Y-73740018D01*
X149109569Y-73750499D01*
X149109572Y-73750500D01*
X149109575Y-73750500D01*
X149390428Y-73750500D01*
X149390429Y-73750499D01*
X149533055Y-73734429D01*
X149669494Y-73719057D01*
X149669499Y-73719056D01*
X149669509Y-73719055D01*
X149943318Y-73656560D01*
X150208408Y-73563801D01*
X150461445Y-73441945D01*
X150699248Y-73292523D01*
X150918825Y-73117416D01*
X151117416Y-72918825D01*
X151252050Y-72750000D01*
X153499500Y-72750000D01*
X153499500Y-95376000D01*
X153479815Y-95443039D01*
X153427011Y-95488794D01*
X153375500Y-95500000D01*
X149207698Y-95500000D01*
X149199567Y-95499601D01*
X149199565Y-95499649D01*
X149196535Y-95499500D01*
X149196532Y-95499500D01*
X148803468Y-95499500D01*
X148714251Y-95508287D01*
X148412297Y-95538026D01*
X148026805Y-95614704D01*
X148026794Y-95614707D01*
X147650645Y-95728810D01*
X147287500Y-95879230D01*
X147287495Y-95879232D01*
X146940862Y-96064511D01*
X146940844Y-96064522D01*
X146614039Y-96282887D01*
X146614025Y-96282897D01*
X146310182Y-96532254D01*
X146032254Y-96810182D01*
X145782897Y-97114025D01*
X145782887Y-97114039D01*
X145564522Y-97440844D01*
X145564511Y-97440862D01*
X145379232Y-97787495D01*
X145379230Y-97787500D01*
X145228810Y-98150645D01*
X145114707Y-98526794D01*
X145114704Y-98526805D01*
X145038026Y-98912297D01*
X144999500Y-99303471D01*
X144999500Y-100695225D01*
X144979815Y-100762264D01*
X144958457Y-100787387D01*
X144119217Y-101542703D01*
X142504897Y-102995588D01*
X142536408Y-99750000D01*
X132500000Y-99750000D01*
X132500000Y-81000000D01*
X133750000Y-81000000D01*
X133750000Y-80239070D01*
X146984500Y-80239070D01*
X146984500Y-80560929D01*
X147020532Y-80880730D01*
X147020535Y-80880744D01*
X147092152Y-81194521D01*
X147092156Y-81194533D01*
X147198453Y-81498310D01*
X147255225Y-81616198D01*
X147266577Y-81685140D01*
X147255225Y-81723802D01*
X147198453Y-81841689D01*
X147092156Y-82145466D01*
X147092152Y-82145478D01*
X147020535Y-82459255D01*
X147020532Y-82459269D01*
X146984500Y-82779070D01*
X146984500Y-83100929D01*
X147020532Y-83420730D01*
X147020535Y-83420744D01*
X147092152Y-83734521D01*
X147092156Y-83734533D01*
X147198453Y-84038310D01*
X147255225Y-84156198D01*
X147266577Y-84225140D01*
X147255225Y-84263802D01*
X147198453Y-84381689D01*
X147092156Y-84685466D01*
X147092152Y-84685478D01*
X147020535Y-84999255D01*
X147020532Y-84999269D01*
X146984500Y-85319070D01*
X146984500Y-85640929D01*
X147020532Y-85960730D01*
X147020535Y-85960744D01*
X147092152Y-86274521D01*
X147092156Y-86274533D01*
X147198449Y-86578300D01*
X147198455Y-86578314D01*
X147338094Y-86868277D01*
X147338096Y-86868280D01*
X147509328Y-87140795D01*
X147709996Y-87392425D01*
X147937575Y-87620004D01*
X148189205Y-87820672D01*
X148461720Y-87991904D01*
X148751693Y-88131548D01*
X148751699Y-88131550D01*
X149055466Y-88237843D01*
X149055478Y-88237847D01*
X149369255Y-88309465D01*
X149369264Y-88309466D01*
X149369269Y-88309467D01*
X149582469Y-88333488D01*
X149689071Y-88345499D01*
X149689074Y-88345500D01*
X149689077Y-88345500D01*
X150310926Y-88345500D01*
X150310927Y-88345499D01*
X150474373Y-88327083D01*
X150630730Y-88309467D01*
X150630733Y-88309466D01*
X150630745Y-88309465D01*
X150944522Y-88237847D01*
X151248307Y-88131548D01*
X151538280Y-87991904D01*
X151810795Y-87820672D01*
X152062425Y-87620004D01*
X152290004Y-87392425D01*
X152490672Y-87140795D01*
X152661904Y-86868280D01*
X152801548Y-86578307D01*
X152907847Y-86274522D01*
X152979465Y-85960745D01*
X153015500Y-85640923D01*
X153015500Y-85319077D01*
X152979465Y-84999255D01*
X152907847Y-84685478D01*
X152904801Y-84676774D01*
X152801550Y-84381699D01*
X152801548Y-84381693D01*
X152744772Y-84263798D01*
X152733421Y-84194861D01*
X152744771Y-84156203D01*
X152801548Y-84038307D01*
X152907847Y-83734522D01*
X152979465Y-83420745D01*
X152979899Y-83416900D01*
X153015499Y-83100929D01*
X153015500Y-83100925D01*
X153015500Y-82779074D01*
X153015499Y-82779070D01*
X152979467Y-82459269D01*
X152979466Y-82459264D01*
X152979465Y-82459255D01*
X152907847Y-82145478D01*
X152801548Y-81841693D01*
X152744772Y-81723798D01*
X152733421Y-81654861D01*
X152744771Y-81616203D01*
X152801548Y-81498307D01*
X152907847Y-81194522D01*
X152979465Y-80880745D01*
X152985256Y-80829354D01*
X153015499Y-80560929D01*
X153015500Y-80560925D01*
X153015500Y-80239074D01*
X153015499Y-80239070D01*
X152979467Y-79919269D01*
X152979466Y-79919264D01*
X152979465Y-79919255D01*
X152907847Y-79605478D01*
X152801548Y-79301693D01*
X152661904Y-79011720D01*
X152490672Y-78739205D01*
X152290004Y-78487575D01*
X152062425Y-78259996D01*
X151810795Y-78059328D01*
X151538280Y-77888096D01*
X151538277Y-77888094D01*
X151248314Y-77748455D01*
X151248300Y-77748449D01*
X150944533Y-77642156D01*
X150944521Y-77642152D01*
X150702362Y-77586881D01*
X150630745Y-77570535D01*
X150630742Y-77570534D01*
X150630730Y-77570532D01*
X150310929Y-77534500D01*
X150310923Y-77534500D01*
X149689077Y-77534500D01*
X149689070Y-77534500D01*
X149369269Y-77570532D01*
X149369255Y-77570535D01*
X149055478Y-77642152D01*
X149055466Y-77642156D01*
X148751699Y-77748449D01*
X148751685Y-77748455D01*
X148461722Y-77888094D01*
X148189206Y-78059327D01*
X147937575Y-78259995D01*
X147709995Y-78487575D01*
X147509327Y-78739206D01*
X147338094Y-79011722D01*
X147198455Y-79301685D01*
X147198449Y-79301699D01*
X147092156Y-79605466D01*
X147092152Y-79605478D01*
X147020535Y-79919255D01*
X147020532Y-79919269D01*
X146984500Y-80239070D01*
X133750000Y-80239070D01*
X133750000Y-72000000D01*
X132500000Y-72000000D01*
X144500000Y-71860464D01*
X144500000Y-72750000D01*
G37*
%TD.AperFunction*%
%TD*%
%TA.AperFunction,Conductor*%
%TO.N,VBUS*%
G36*
X139129775Y-38249448D02*
G01*
X139196722Y-38269440D01*
X139242234Y-38322453D01*
X139253162Y-38370185D01*
X139496651Y-47622738D01*
X139478737Y-47690272D01*
X139427155Y-47737400D01*
X139372694Y-47750000D01*
X101250000Y-47750000D01*
X101250000Y-65876000D01*
X101230315Y-65943039D01*
X101177511Y-65988794D01*
X101126000Y-66000000D01*
X90500000Y-66000000D01*
X90500000Y-72876000D01*
X90480315Y-72943039D01*
X90427511Y-72988794D01*
X90376000Y-73000000D01*
X83500000Y-73000000D01*
X83500000Y-78626000D01*
X83480315Y-78693039D01*
X83427511Y-78738794D01*
X83376000Y-78750000D01*
X78624000Y-78750000D01*
X78556961Y-78730315D01*
X78511206Y-78677511D01*
X78500000Y-78626000D01*
X78500000Y-70874000D01*
X78519685Y-70806961D01*
X78572489Y-70761206D01*
X78624000Y-70750000D01*
X85250000Y-70750000D01*
X85250000Y-38126864D01*
X85269685Y-38059825D01*
X85322489Y-38014070D01*
X85374567Y-38002865D01*
X139129775Y-38249448D01*
G37*
%TD.AperFunction*%
%TD*%
%TA.AperFunction,Conductor*%
%TO.N,GND*%
G36*
X78355750Y-110563100D02*
G01*
X78388069Y-110683713D01*
X78393267Y-110703113D01*
X78465738Y-110828636D01*
X78465740Y-110828638D01*
X78465741Y-110828640D01*
X78568235Y-110931134D01*
X78568236Y-110931135D01*
X78568238Y-110931136D01*
X78693761Y-111003607D01*
X78693762Y-111003607D01*
X78693765Y-111003609D01*
X78833775Y-111041125D01*
X78860074Y-111041125D01*
X78927113Y-111060810D01*
X78947755Y-111077444D01*
X81618250Y-113747939D01*
X81711436Y-113841125D01*
X81825564Y-113907017D01*
X81952858Y-113941125D01*
X82419312Y-113941125D01*
X82486351Y-113960810D01*
X82532106Y-114013614D01*
X82542050Y-114082772D01*
X82513025Y-114146328D01*
X82454247Y-114184102D01*
X82438710Y-114187598D01*
X82293065Y-114210665D01*
X82110428Y-114270008D01*
X81939328Y-114357189D01*
X81910102Y-114378423D01*
X81910101Y-114378423D01*
X82532304Y-115000625D01*
X82526089Y-115000625D01*
X82424356Y-115027884D01*
X82333144Y-115080545D01*
X82258670Y-115155019D01*
X82206009Y-115246231D01*
X82178750Y-115347964D01*
X82178750Y-115354178D01*
X81556548Y-114731976D01*
X81556548Y-114731977D01*
X81535314Y-114761203D01*
X81448133Y-114932303D01*
X81388790Y-115114940D01*
X81358750Y-115304609D01*
X81358750Y-115496640D01*
X81388790Y-115686309D01*
X81448133Y-115868946D01*
X81535311Y-116040040D01*
X81556548Y-116069271D01*
X82178750Y-115447070D01*
X82178750Y-115453286D01*
X82206009Y-115555019D01*
X82258670Y-115646231D01*
X82333144Y-115720705D01*
X82424356Y-115773366D01*
X82526089Y-115800625D01*
X82532304Y-115800625D01*
X81910101Y-116422825D01*
X81910102Y-116422826D01*
X81939327Y-116444059D01*
X82110428Y-116531241D01*
X82293065Y-116590584D01*
X82482735Y-116620625D01*
X82674765Y-116620625D01*
X82864434Y-116590584D01*
X83047071Y-116531241D01*
X83218169Y-116444061D01*
X83247396Y-116422826D01*
X83247396Y-116422825D01*
X82625197Y-115800625D01*
X82631411Y-115800625D01*
X82733144Y-115773366D01*
X82824356Y-115720705D01*
X82898830Y-115646231D01*
X82951491Y-115555019D01*
X82978750Y-115453286D01*
X82978750Y-115447071D01*
X83600950Y-116069271D01*
X83600951Y-116069271D01*
X83622186Y-116040044D01*
X83709366Y-115868946D01*
X83768709Y-115686309D01*
X83798750Y-115496640D01*
X83798750Y-115304611D01*
X83794715Y-115279136D01*
X83794715Y-115279135D01*
X83792414Y-115264609D01*
X101298750Y-115264609D01*
X101298750Y-115456640D01*
X101328790Y-115646309D01*
X101388133Y-115828946D01*
X101475311Y-116000040D01*
X101496548Y-116029271D01*
X102118750Y-115407070D01*
X102118750Y-115413286D01*
X102146009Y-115515019D01*
X102198670Y-115606231D01*
X102273144Y-115680705D01*
X102364356Y-115733366D01*
X102466089Y-115760625D01*
X102472304Y-115760625D01*
X101850101Y-116382825D01*
X101850102Y-116382826D01*
X101879327Y-116404059D01*
X102050428Y-116491241D01*
X102233065Y-116550584D01*
X102422735Y-116580625D01*
X102614765Y-116580625D01*
X102804434Y-116550584D01*
X102987071Y-116491241D01*
X103158169Y-116404061D01*
X103187396Y-116382826D01*
X103187396Y-116382825D01*
X102565197Y-115760625D01*
X102571411Y-115760625D01*
X102673144Y-115733366D01*
X102764356Y-115680705D01*
X102838830Y-115606231D01*
X102891491Y-115515019D01*
X102918750Y-115413286D01*
X102918750Y-115407071D01*
X103540950Y-116029271D01*
X103540951Y-116029271D01*
X103562186Y-116000044D01*
X103649366Y-115828946D01*
X103708709Y-115646309D01*
X103738750Y-115456640D01*
X103738750Y-115264609D01*
X103708709Y-115074940D01*
X103649366Y-114892303D01*
X103562184Y-114721202D01*
X103540951Y-114691977D01*
X103540950Y-114691976D01*
X102918750Y-115314177D01*
X102918750Y-115307964D01*
X102891491Y-115206231D01*
X102838830Y-115115019D01*
X102764356Y-115040545D01*
X102673144Y-114987884D01*
X102571411Y-114960625D01*
X102565197Y-114960625D01*
X103187396Y-114338423D01*
X103158165Y-114317186D01*
X102987071Y-114230008D01*
X102804434Y-114170665D01*
X102658030Y-114147477D01*
X102594895Y-114117547D01*
X102557964Y-114058236D01*
X102558962Y-113988373D01*
X102597572Y-113930141D01*
X102653237Y-113903387D01*
X102801834Y-113873829D01*
X102890144Y-113837250D01*
X102978450Y-113800673D01*
X102978451Y-113800672D01*
X102978454Y-113800671D01*
X103137408Y-113694462D01*
X103272587Y-113559283D01*
X103378796Y-113400329D01*
X103451954Y-113223709D01*
X103488471Y-113040127D01*
X103489250Y-113036213D01*
X103489250Y-112845036D01*
X103451955Y-112657546D01*
X103451954Y-112657545D01*
X103451954Y-112657541D01*
X103451952Y-112657536D01*
X103378798Y-112480924D01*
X103272585Y-112321964D01*
X103137410Y-112186789D01*
X102978450Y-112080576D01*
X102801838Y-112007422D01*
X102801828Y-112007419D01*
X102614338Y-111970125D01*
X102614336Y-111970125D01*
X102423164Y-111970125D01*
X102423162Y-111970125D01*
X102235671Y-112007419D01*
X102235661Y-112007422D01*
X102059049Y-112080576D01*
X101900089Y-112186789D01*
X101764914Y-112321964D01*
X101658701Y-112480924D01*
X101585547Y-112657536D01*
X101585544Y-112657546D01*
X101548250Y-112845036D01*
X101548250Y-112845039D01*
X101548250Y-113036211D01*
X101548250Y-113036213D01*
X101548249Y-113036213D01*
X101585544Y-113223703D01*
X101585547Y-113223713D01*
X101658701Y-113400325D01*
X101764914Y-113559285D01*
X101900089Y-113694460D01*
X102059049Y-113800673D01*
X102235661Y-113873827D01*
X102235666Y-113873829D01*
X102341768Y-113894934D01*
X102384262Y-113903387D01*
X102446173Y-113935772D01*
X102480747Y-113996487D01*
X102477008Y-114066257D01*
X102436141Y-114122929D01*
X102379470Y-114147477D01*
X102233064Y-114170666D01*
X102050428Y-114230008D01*
X101879328Y-114317189D01*
X101850102Y-114338423D01*
X101850101Y-114338423D01*
X102472304Y-114960625D01*
X102466089Y-114960625D01*
X102364356Y-114987884D01*
X102273144Y-115040545D01*
X102198670Y-115115019D01*
X102146009Y-115206231D01*
X102118750Y-115307964D01*
X102118750Y-115314178D01*
X101496548Y-114691976D01*
X101496548Y-114691977D01*
X101475314Y-114721203D01*
X101388133Y-114892303D01*
X101328790Y-115074940D01*
X101298750Y-115264609D01*
X83792414Y-115264609D01*
X83768709Y-115114940D01*
X83709366Y-114932303D01*
X83622186Y-114761205D01*
X83595689Y-114724735D01*
X83572209Y-114658928D01*
X83588034Y-114590875D01*
X83638140Y-114542180D01*
X83706618Y-114528304D01*
X83728090Y-114532072D01*
X83817857Y-114556125D01*
X83817858Y-114556125D01*
X88751461Y-114556125D01*
X88798912Y-114565563D01*
X88806263Y-114568608D01*
X88806265Y-114568609D01*
X88946275Y-114606125D01*
X88946278Y-114606125D01*
X89091222Y-114606125D01*
X89091225Y-114606125D01*
X89231235Y-114568609D01*
X89356765Y-114496134D01*
X89459259Y-114393640D01*
X89531734Y-114268110D01*
X89569250Y-114128100D01*
X89569250Y-113983150D01*
X89531734Y-113843140D01*
X89507214Y-113800671D01*
X89459261Y-113717613D01*
X89459256Y-113717607D01*
X89356767Y-113615118D01*
X89356761Y-113615113D01*
X89231238Y-113542642D01*
X89231239Y-113542642D01*
X89219756Y-113539565D01*
X89091225Y-113505125D01*
X88946275Y-113505125D01*
X88862269Y-113527634D01*
X88806263Y-113542641D01*
X88798912Y-113545687D01*
X88751461Y-113555125D01*
X84142426Y-113555125D01*
X84075387Y-113535440D01*
X84054745Y-113518806D01*
X83576066Y-113040127D01*
X83576064Y-113040125D01*
X83519000Y-113007179D01*
X83461937Y-112974233D01*
X83439749Y-112968288D01*
X83334642Y-112940125D01*
X83334641Y-112940125D01*
X82277426Y-112940125D01*
X82210387Y-112920440D01*
X82189745Y-112903806D01*
X79785939Y-110500000D01*
X99009002Y-110500000D01*
X99045544Y-110683703D01*
X99045547Y-110683713D01*
X99118701Y-110860325D01*
X99224914Y-111019285D01*
X99360089Y-111154460D01*
X99519049Y-111260673D01*
X99695661Y-111333827D01*
X99695666Y-111333829D01*
X99695670Y-111333829D01*
X99695671Y-111333830D01*
X99883161Y-111371125D01*
X99883164Y-111371125D01*
X100074338Y-111371125D01*
X100200479Y-111346033D01*
X100261834Y-111333829D01*
X100350144Y-111297250D01*
X100438450Y-111260673D01*
X100438451Y-111260672D01*
X100438454Y-111260671D01*
X100597408Y-111154462D01*
X100732587Y-111019283D01*
X100838796Y-110860329D01*
X100911954Y-110683709D01*
X100935945Y-110563100D01*
X100948497Y-110500000D01*
X109250000Y-110500000D01*
X109250000Y-130000000D01*
X109249999Y-130000000D01*
X93193979Y-130094446D01*
X93126825Y-130075156D01*
X93080761Y-130022622D01*
X93069250Y-129970448D01*
X93069250Y-126707913D01*
X93078691Y-126660456D01*
X93081732Y-126653113D01*
X93081731Y-126653113D01*
X93081734Y-126653110D01*
X93119250Y-126513100D01*
X93119250Y-126368150D01*
X93081734Y-126228140D01*
X93009259Y-126102610D01*
X92906765Y-126000116D01*
X92906763Y-126000115D01*
X92906761Y-126000113D01*
X92781238Y-125927642D01*
X92781239Y-125927642D01*
X92769756Y-125924565D01*
X92641225Y-125890125D01*
X92496275Y-125890125D01*
X92367743Y-125924565D01*
X92356261Y-125927642D01*
X92230738Y-126000113D01*
X92230732Y-126000118D01*
X92128243Y-126102607D01*
X92128238Y-126102613D01*
X92055767Y-126228136D01*
X92055766Y-126228140D01*
X92018250Y-126368150D01*
X92018250Y-126513100D01*
X92055766Y-126653110D01*
X92055767Y-126653113D01*
X92058809Y-126660456D01*
X92068250Y-126707913D01*
X92068250Y-129977796D01*
X92048565Y-130044835D01*
X91995761Y-130090590D01*
X91944979Y-130101794D01*
X75254382Y-130199973D01*
X75187228Y-130180683D01*
X75141164Y-130128149D01*
X75130813Y-130059050D01*
X75159464Y-129995325D01*
X75218019Y-129957205D01*
X75221451Y-129956230D01*
X75231235Y-129953609D01*
X75356765Y-129881134D01*
X75459259Y-129778640D01*
X75531734Y-129653110D01*
X75569250Y-129513100D01*
X75569250Y-129368150D01*
X75531734Y-129228140D01*
X75459259Y-129102610D01*
X75356765Y-129000116D01*
X75356763Y-129000115D01*
X75356761Y-129000113D01*
X75231238Y-128927642D01*
X75231239Y-128927642D01*
X75219756Y-128924565D01*
X75091225Y-128890125D01*
X74946275Y-128890125D01*
X74862269Y-128912634D01*
X74806263Y-128927641D01*
X74798912Y-128930687D01*
X74751461Y-128940125D01*
X72993483Y-128940125D01*
X72866187Y-128974233D01*
X72752061Y-129040125D01*
X72752058Y-129040127D01*
X71606559Y-130185625D01*
X71545236Y-130219110D01*
X71519607Y-130221942D01*
X66874729Y-130249266D01*
X66807575Y-130229976D01*
X66761511Y-130177442D01*
X66750000Y-130125268D01*
X66750000Y-120384609D01*
X73358750Y-120384609D01*
X73358750Y-120576640D01*
X73388790Y-120766309D01*
X73448133Y-120948946D01*
X73535311Y-121120040D01*
X73556548Y-121149271D01*
X74178750Y-120527070D01*
X74178750Y-120533286D01*
X74206009Y-120635019D01*
X74258670Y-120726231D01*
X74333144Y-120800705D01*
X74424356Y-120853366D01*
X74526089Y-120880625D01*
X74532304Y-120880625D01*
X73910101Y-121502825D01*
X73910102Y-121502826D01*
X73939327Y-121524059D01*
X74110428Y-121611241D01*
X74293065Y-121670584D01*
X74482735Y-121700625D01*
X74674765Y-121700625D01*
X74864434Y-121670584D01*
X75047071Y-121611241D01*
X75218169Y-121524061D01*
X75247396Y-121502826D01*
X75247396Y-121502825D01*
X74625197Y-120880625D01*
X74631411Y-120880625D01*
X74733144Y-120853366D01*
X74824356Y-120800705D01*
X74898830Y-120726231D01*
X74951491Y-120635019D01*
X74978750Y-120533286D01*
X74978750Y-120527071D01*
X75600950Y-121149271D01*
X75600951Y-121149271D01*
X75622186Y-121120044D01*
X75709366Y-120948946D01*
X75768709Y-120766309D01*
X75798750Y-120576640D01*
X75798750Y-120576213D01*
X81608249Y-120576213D01*
X81645544Y-120763703D01*
X81645547Y-120763713D01*
X81718701Y-120940325D01*
X81824914Y-121099285D01*
X81960089Y-121234460D01*
X82119049Y-121340673D01*
X82289138Y-121411125D01*
X82295666Y-121413829D01*
X82295670Y-121413829D01*
X82295671Y-121413830D01*
X82483161Y-121451125D01*
X82483164Y-121451125D01*
X82674338Y-121451125D01*
X82800479Y-121426033D01*
X82861834Y-121413829D01*
X82958408Y-121373827D01*
X83038450Y-121340673D01*
X83038451Y-121340672D01*
X83038454Y-121340671D01*
X83197408Y-121234462D01*
X83332587Y-121099283D01*
X83438796Y-120940329D01*
X83455365Y-120900329D01*
X83475375Y-120852019D01*
X83511954Y-120763709D01*
X83549250Y-120576211D01*
X83549250Y-120536213D01*
X101548249Y-120536213D01*
X101585544Y-120723703D01*
X101585547Y-120723713D01*
X101658701Y-120900325D01*
X101764914Y-121059285D01*
X101900089Y-121194460D01*
X102059049Y-121300673D01*
X102235661Y-121373827D01*
X102235666Y-121373829D01*
X102235670Y-121373829D01*
X102235671Y-121373830D01*
X102423161Y-121411125D01*
X102423164Y-121411125D01*
X102614338Y-121411125D01*
X102740479Y-121386033D01*
X102801834Y-121373829D01*
X102890144Y-121337250D01*
X102978450Y-121300673D01*
X102978451Y-121300672D01*
X102978454Y-121300671D01*
X103137408Y-121194462D01*
X103272587Y-121059283D01*
X103378796Y-120900329D01*
X103451954Y-120723709D01*
X103481293Y-120576213D01*
X103489250Y-120536213D01*
X103489250Y-120345036D01*
X103451955Y-120157546D01*
X103451954Y-120157545D01*
X103451954Y-120157541D01*
X103395366Y-120020924D01*
X103378798Y-119980924D01*
X103272585Y-119821964D01*
X103137410Y-119686789D01*
X102978450Y-119580576D01*
X102801838Y-119507422D01*
X102801828Y-119507419D01*
X102614338Y-119470125D01*
X102614336Y-119470125D01*
X102423164Y-119470125D01*
X102423162Y-119470125D01*
X102235671Y-119507419D01*
X102235661Y-119507422D01*
X102059049Y-119580576D01*
X101900089Y-119686789D01*
X101764914Y-119821964D01*
X101658701Y-119980924D01*
X101585547Y-120157536D01*
X101585544Y-120157546D01*
X101548250Y-120345036D01*
X101548250Y-120345039D01*
X101548250Y-120536211D01*
X101548250Y-120536213D01*
X101548249Y-120536213D01*
X83549250Y-120536213D01*
X83549250Y-120385039D01*
X83549249Y-120385036D01*
X83544894Y-120363140D01*
X83544894Y-120363138D01*
X83511955Y-120197548D01*
X83511955Y-120197546D01*
X83511954Y-120197541D01*
X83495386Y-120157541D01*
X83438798Y-120020924D01*
X83332585Y-119861964D01*
X83197410Y-119726789D01*
X83038450Y-119620576D01*
X82861838Y-119547422D01*
X82861828Y-119547419D01*
X82674338Y-119510125D01*
X82674336Y-119510125D01*
X82483164Y-119510125D01*
X82483162Y-119510125D01*
X82295671Y-119547419D01*
X82295661Y-119547422D01*
X82119049Y-119620576D01*
X81960089Y-119726789D01*
X81824914Y-119861964D01*
X81718701Y-120020924D01*
X81645547Y-120197536D01*
X81645544Y-120197546D01*
X81608250Y-120385036D01*
X81608250Y-120385037D01*
X81608250Y-120385039D01*
X81608250Y-120576211D01*
X81608250Y-120576213D01*
X81608249Y-120576213D01*
X75798750Y-120576213D01*
X75798750Y-120384610D01*
X75798749Y-120384609D01*
X75768709Y-120194940D01*
X75709366Y-120012303D01*
X75622184Y-119841202D01*
X75600951Y-119811977D01*
X75600950Y-119811976D01*
X74978750Y-120434177D01*
X74978750Y-120427964D01*
X74951491Y-120326231D01*
X74898830Y-120235019D01*
X74824356Y-120160545D01*
X74733144Y-120107884D01*
X74631411Y-120080625D01*
X74625197Y-120080625D01*
X75247396Y-119458423D01*
X75218165Y-119437186D01*
X75047071Y-119350008D01*
X74864434Y-119290665D01*
X74674765Y-119260625D01*
X74482735Y-119260625D01*
X74293065Y-119290665D01*
X74110428Y-119350008D01*
X73939328Y-119437189D01*
X73910102Y-119458423D01*
X73910101Y-119458423D01*
X74532304Y-120080625D01*
X74526089Y-120080625D01*
X74424356Y-120107884D01*
X74333144Y-120160545D01*
X74258670Y-120235019D01*
X74206009Y-120326231D01*
X74178750Y-120427964D01*
X74178750Y-120434178D01*
X73556548Y-119811976D01*
X73556548Y-119811977D01*
X73535314Y-119841203D01*
X73448133Y-120012303D01*
X73388790Y-120194940D01*
X73358750Y-120384609D01*
X66750000Y-120384609D01*
X66750000Y-118036213D01*
X76148249Y-118036213D01*
X76185544Y-118223703D01*
X76185547Y-118223713D01*
X76258701Y-118400325D01*
X76364914Y-118559285D01*
X76500089Y-118694460D01*
X76659049Y-118800673D01*
X76829138Y-118871125D01*
X76835666Y-118873829D01*
X76835670Y-118873829D01*
X76835671Y-118873830D01*
X77023161Y-118911125D01*
X77023164Y-118911125D01*
X77214338Y-118911125D01*
X77340479Y-118886033D01*
X77401834Y-118873829D01*
X77498408Y-118833827D01*
X77578450Y-118800673D01*
X77578451Y-118800672D01*
X77578454Y-118800671D01*
X77737408Y-118694462D01*
X77872587Y-118559283D01*
X77978796Y-118400329D01*
X77995365Y-118360329D01*
X78051952Y-118223713D01*
X78051954Y-118223709D01*
X78089250Y-118036213D01*
X84148249Y-118036213D01*
X84185544Y-118223703D01*
X84185547Y-118223713D01*
X84258701Y-118400325D01*
X84364914Y-118559285D01*
X84500089Y-118694460D01*
X84659049Y-118800673D01*
X84829138Y-118871125D01*
X84835666Y-118873829D01*
X84835670Y-118873829D01*
X84835671Y-118873830D01*
X85023161Y-118911125D01*
X85023164Y-118911125D01*
X85214338Y-118911125D01*
X85340479Y-118886033D01*
X85401834Y-118873829D01*
X85498408Y-118833827D01*
X85578450Y-118800673D01*
X85578451Y-118800672D01*
X85578454Y-118800671D01*
X85737408Y-118694462D01*
X85872587Y-118559283D01*
X85978796Y-118400329D01*
X85995365Y-118360329D01*
X86051952Y-118223713D01*
X86051954Y-118223709D01*
X86089250Y-118036211D01*
X86089250Y-117996213D01*
X99008249Y-117996213D01*
X99045544Y-118183703D01*
X99045547Y-118183713D01*
X99118701Y-118360325D01*
X99224914Y-118519285D01*
X99360089Y-118654460D01*
X99519049Y-118760673D01*
X99695661Y-118833827D01*
X99695666Y-118833829D01*
X99695670Y-118833829D01*
X99695671Y-118833830D01*
X99883161Y-118871125D01*
X99883164Y-118871125D01*
X100074338Y-118871125D01*
X100200479Y-118846033D01*
X100261834Y-118833829D01*
X100350144Y-118797250D01*
X100438450Y-118760673D01*
X100438451Y-118760672D01*
X100438454Y-118760671D01*
X100597408Y-118654462D01*
X100732587Y-118519283D01*
X100838796Y-118360329D01*
X100911954Y-118183709D01*
X100941293Y-118036213D01*
X100949250Y-117996213D01*
X100949250Y-117805036D01*
X100911955Y-117617546D01*
X100911954Y-117617545D01*
X100911954Y-117617541D01*
X100901012Y-117591125D01*
X100838798Y-117440924D01*
X100732585Y-117281964D01*
X100597410Y-117146789D01*
X100438450Y-117040576D01*
X100261838Y-116967422D01*
X100261828Y-116967419D01*
X100074338Y-116930125D01*
X100074336Y-116930125D01*
X99883164Y-116930125D01*
X99883162Y-116930125D01*
X99695671Y-116967419D01*
X99695661Y-116967422D01*
X99519049Y-117040576D01*
X99360089Y-117146789D01*
X99224914Y-117281964D01*
X99118701Y-117440924D01*
X99045547Y-117617536D01*
X99045544Y-117617546D01*
X99008250Y-117805036D01*
X99008250Y-117805039D01*
X99008250Y-117996211D01*
X99008250Y-117996213D01*
X99008249Y-117996213D01*
X86089250Y-117996213D01*
X86089250Y-117845039D01*
X86089250Y-117845036D01*
X86051955Y-117657546D01*
X86051954Y-117657545D01*
X86051954Y-117657541D01*
X86035386Y-117617541D01*
X85978798Y-117480924D01*
X85872585Y-117321964D01*
X85737410Y-117186789D01*
X85634684Y-117118150D01*
X86718250Y-117118150D01*
X86718250Y-117263100D01*
X86755766Y-117403110D01*
X86755767Y-117403113D01*
X86828238Y-117528636D01*
X86828240Y-117528638D01*
X86828241Y-117528640D01*
X86930735Y-117631134D01*
X86930736Y-117631135D01*
X86930738Y-117631136D01*
X87056261Y-117703607D01*
X87056262Y-117703607D01*
X87056265Y-117703609D01*
X87196275Y-117741125D01*
X87196278Y-117741125D01*
X87341222Y-117741125D01*
X87341225Y-117741125D01*
X87481235Y-117703609D01*
X87481238Y-117703606D01*
X87488588Y-117700563D01*
X87536039Y-117691125D01*
X90375265Y-117691125D01*
X90375267Y-117691125D01*
X90502561Y-117657017D01*
X90616689Y-117591125D01*
X90664905Y-117542907D01*
X90705136Y-117516027D01*
X90712475Y-117512986D01*
X90712485Y-117512984D01*
X90838015Y-117440509D01*
X90940509Y-117338015D01*
X91012984Y-117212485D01*
X91050500Y-117072475D01*
X91050500Y-116927525D01*
X91012984Y-116787515D01*
X90955119Y-116687291D01*
X90940511Y-116661988D01*
X90940506Y-116661982D01*
X90838017Y-116559493D01*
X90838011Y-116559488D01*
X90712488Y-116487017D01*
X90712489Y-116487017D01*
X90701657Y-116484114D01*
X90572475Y-116449500D01*
X90427525Y-116449500D01*
X90298993Y-116483940D01*
X90287511Y-116487017D01*
X90161988Y-116559488D01*
X90067669Y-116653807D01*
X90006345Y-116687291D01*
X89979988Y-116690125D01*
X87536039Y-116690125D01*
X87488588Y-116680687D01*
X87481236Y-116677641D01*
X87446232Y-116668262D01*
X87341225Y-116640125D01*
X87196275Y-116640125D01*
X87067743Y-116674565D01*
X87056261Y-116677642D01*
X86930738Y-116750113D01*
X86930732Y-116750118D01*
X86828243Y-116852607D01*
X86828238Y-116852613D01*
X86755767Y-116978136D01*
X86755766Y-116978140D01*
X86718250Y-117118150D01*
X85634684Y-117118150D01*
X85578450Y-117080576D01*
X85401838Y-117007422D01*
X85401828Y-117007419D01*
X85214338Y-116970125D01*
X85214336Y-116970125D01*
X85023164Y-116970125D01*
X85023162Y-116970125D01*
X84835671Y-117007419D01*
X84835661Y-117007422D01*
X84659049Y-117080576D01*
X84500089Y-117186789D01*
X84364914Y-117321964D01*
X84258701Y-117480924D01*
X84185547Y-117657536D01*
X84185544Y-117657546D01*
X84148250Y-117845036D01*
X84148250Y-117845039D01*
X84148250Y-118036211D01*
X84148250Y-118036213D01*
X84148249Y-118036213D01*
X78089250Y-118036213D01*
X78089250Y-118036211D01*
X78089250Y-117845039D01*
X78089250Y-117845036D01*
X78051955Y-117657546D01*
X78051954Y-117657545D01*
X78051954Y-117657541D01*
X78035386Y-117617541D01*
X77978798Y-117480924D01*
X77872585Y-117321964D01*
X77737410Y-117186789D01*
X77578450Y-117080576D01*
X77401838Y-117007422D01*
X77401828Y-117007419D01*
X77214338Y-116970125D01*
X77214336Y-116970125D01*
X77023164Y-116970125D01*
X77023162Y-116970125D01*
X76835671Y-117007419D01*
X76835661Y-117007422D01*
X76659049Y-117080576D01*
X76500089Y-117186789D01*
X76364914Y-117321964D01*
X76258701Y-117480924D01*
X76185547Y-117657536D01*
X76185544Y-117657546D01*
X76148250Y-117845036D01*
X76148250Y-117845039D01*
X76148250Y-118036211D01*
X76148250Y-118036213D01*
X76148249Y-118036213D01*
X66750000Y-118036213D01*
X66750000Y-115496213D01*
X73608249Y-115496213D01*
X73645544Y-115683703D01*
X73645547Y-115683713D01*
X73718701Y-115860325D01*
X73824914Y-116019285D01*
X73960089Y-116154460D01*
X74119049Y-116260673D01*
X74295661Y-116333827D01*
X74295666Y-116333829D01*
X74295670Y-116333829D01*
X74295671Y-116333830D01*
X74483161Y-116371125D01*
X74483164Y-116371125D01*
X74674338Y-116371125D01*
X74800479Y-116346033D01*
X74861834Y-116333829D01*
X74928644Y-116306155D01*
X75037649Y-116261005D01*
X75038017Y-116260851D01*
X75038454Y-116260671D01*
X75197408Y-116154462D01*
X75332587Y-116019283D01*
X75438796Y-115860329D01*
X75511954Y-115683709D01*
X75524158Y-115622354D01*
X75549250Y-115496213D01*
X75549250Y-115305036D01*
X75511955Y-115117546D01*
X75511954Y-115117545D01*
X75511954Y-115117541D01*
X75494308Y-115074940D01*
X75438798Y-114940924D01*
X75332585Y-114781964D01*
X75197410Y-114646789D01*
X75038450Y-114540576D01*
X74861838Y-114467422D01*
X74861828Y-114467419D01*
X74674338Y-114430125D01*
X74674336Y-114430125D01*
X74483164Y-114430125D01*
X74483162Y-114430125D01*
X74295671Y-114467419D01*
X74295661Y-114467422D01*
X74119049Y-114540576D01*
X73960089Y-114646789D01*
X73824914Y-114781964D01*
X73718701Y-114940924D01*
X73645547Y-115117536D01*
X73645544Y-115117546D01*
X73608250Y-115305036D01*
X73608250Y-115305039D01*
X73608250Y-115496211D01*
X73608250Y-115496213D01*
X73608249Y-115496213D01*
X66750000Y-115496213D01*
X66750000Y-110500000D01*
X78355750Y-110500000D01*
X78355750Y-110563100D01*
G37*
%TD.AperFunction*%
%TD*%
%TA.AperFunction,Conductor*%
%TO.N,GND*%
G36*
X97972112Y-81019685D02*
G01*
X98017867Y-81072489D01*
X98027811Y-81141647D01*
X98019634Y-81171453D01*
X97980263Y-81266502D01*
X97980261Y-81266510D01*
X97949500Y-81421153D01*
X97949500Y-81578846D01*
X97958941Y-81626309D01*
X97952714Y-81695901D01*
X97909851Y-81751078D01*
X97843961Y-81774322D01*
X97837324Y-81774500D01*
X97104604Y-81774500D01*
X97057155Y-81765062D01*
X97033497Y-81755263D01*
X97033493Y-81755262D01*
X97033488Y-81755260D01*
X96878845Y-81724500D01*
X96878842Y-81724500D01*
X96721158Y-81724500D01*
X96721155Y-81724500D01*
X96566510Y-81755261D01*
X96566498Y-81755264D01*
X96420827Y-81815602D01*
X96420814Y-81815609D01*
X96289711Y-81903210D01*
X96289707Y-81903213D01*
X96178213Y-82014707D01*
X96178210Y-82014711D01*
X96090609Y-82145814D01*
X96090602Y-82145827D01*
X96030264Y-82291498D01*
X96030261Y-82291510D01*
X95999500Y-82446153D01*
X95999500Y-82603846D01*
X96030261Y-82758489D01*
X96030264Y-82758501D01*
X96090602Y-82904172D01*
X96090609Y-82904185D01*
X96178210Y-83035288D01*
X96178213Y-83035292D01*
X96289707Y-83146786D01*
X96289711Y-83146789D01*
X96420814Y-83234390D01*
X96420827Y-83234397D01*
X96520060Y-83275500D01*
X96566503Y-83294737D01*
X96721153Y-83325499D01*
X96721156Y-83325500D01*
X96721158Y-83325500D01*
X96878844Y-83325500D01*
X96878845Y-83325499D01*
X96955152Y-83310320D01*
X97033488Y-83294739D01*
X97033489Y-83294738D01*
X97033497Y-83294737D01*
X97057155Y-83284937D01*
X97104604Y-83275500D01*
X115298920Y-83275500D01*
X115396462Y-83256096D01*
X115443913Y-83246658D01*
X115562738Y-83197438D01*
X115610191Y-83188000D01*
X115628844Y-83188000D01*
X115628845Y-83187999D01*
X115783497Y-83157237D01*
X115929179Y-83096894D01*
X116060289Y-83009289D01*
X116171789Y-82897789D01*
X116259394Y-82766679D01*
X116319737Y-82620997D01*
X116350500Y-82466342D01*
X116350500Y-82374500D01*
X116370185Y-82307461D01*
X116422989Y-82261706D01*
X116474500Y-82250500D01*
X117195396Y-82250500D01*
X117242844Y-82259937D01*
X117266503Y-82269737D01*
X117266508Y-82269738D01*
X117266511Y-82269739D01*
X117421153Y-82300499D01*
X117421156Y-82300500D01*
X117421158Y-82300500D01*
X117578844Y-82300500D01*
X117578845Y-82300499D01*
X117733497Y-82269737D01*
X117879179Y-82209394D01*
X118010289Y-82121789D01*
X118121789Y-82010289D01*
X118209394Y-81879179D01*
X118269737Y-81733497D01*
X118300500Y-81578842D01*
X118300500Y-81421158D01*
X118300500Y-81421155D01*
X118300499Y-81421153D01*
X118269738Y-81266510D01*
X118269737Y-81266503D01*
X118230365Y-81171452D01*
X118222897Y-81101983D01*
X118254172Y-81039504D01*
X118314261Y-81003852D01*
X118344927Y-81000000D01*
X132500000Y-81000000D01*
X132500000Y-110500000D01*
X101198724Y-110500000D01*
X101199250Y-110496680D01*
X101199250Y-110304570D01*
X101169197Y-110114824D01*
X101109832Y-109932116D01*
X101022615Y-109760944D01*
X100909695Y-109605523D01*
X100773852Y-109469680D01*
X100618431Y-109356760D01*
X100447256Y-109269541D01*
X100264552Y-109210178D01*
X100169678Y-109195151D01*
X100074805Y-109180125D01*
X99882695Y-109180125D01*
X99819446Y-109190142D01*
X99692947Y-109210178D01*
X99510243Y-109269541D01*
X99339068Y-109356760D01*
X99250395Y-109421185D01*
X99183648Y-109469680D01*
X99183646Y-109469682D01*
X99183645Y-109469682D01*
X99047807Y-109605520D01*
X99047807Y-109605521D01*
X99047805Y-109605523D01*
X98999310Y-109672270D01*
X98934885Y-109760943D01*
X98847666Y-109932118D01*
X98788303Y-110114822D01*
X98758250Y-110304570D01*
X98758250Y-110496679D01*
X98758776Y-110500000D01*
X80139493Y-110500000D01*
X79547171Y-109907677D01*
X79547164Y-109907671D01*
X79473479Y-109858437D01*
X79473479Y-109858438D01*
X79424241Y-109825538D01*
X79287665Y-109768967D01*
X79287659Y-109768965D01*
X79238375Y-109759162D01*
X79215117Y-109752106D01*
X79184100Y-109739259D01*
X79139748Y-109720888D01*
X79139744Y-109720886D01*
X78985095Y-109690125D01*
X78985092Y-109690125D01*
X78827408Y-109690125D01*
X78827405Y-109690125D01*
X78672760Y-109720886D01*
X78672748Y-109720889D01*
X78527077Y-109781227D01*
X78527064Y-109781234D01*
X78395961Y-109868835D01*
X78395957Y-109868838D01*
X78284463Y-109980332D01*
X78284460Y-109980336D01*
X78196859Y-110111439D01*
X78196852Y-110111452D01*
X78136514Y-110257123D01*
X78136511Y-110257135D01*
X78105750Y-110411778D01*
X78105750Y-110500000D01*
X66750000Y-110500000D01*
X66750000Y-99320153D01*
X96600500Y-99320153D01*
X96600500Y-99477846D01*
X96631261Y-99632489D01*
X96631263Y-99632497D01*
X96641061Y-99656151D01*
X96650500Y-99703604D01*
X96650500Y-100274918D01*
X96650500Y-100274920D01*
X96650499Y-100274920D01*
X96679340Y-100419907D01*
X96679343Y-100419917D01*
X96735914Y-100556492D01*
X96768812Y-100605727D01*
X96768813Y-100605730D01*
X96818046Y-100679414D01*
X96818052Y-100679421D01*
X99453927Y-103315295D01*
X99480807Y-103355523D01*
X99490604Y-103379175D01*
X99490609Y-103379185D01*
X99578210Y-103510288D01*
X99578213Y-103510292D01*
X99689707Y-103621786D01*
X99689711Y-103621789D01*
X99820814Y-103709390D01*
X99820827Y-103709397D01*
X99966498Y-103769735D01*
X99966503Y-103769737D01*
X100121153Y-103800499D01*
X100121156Y-103800500D01*
X100121158Y-103800500D01*
X100278844Y-103800500D01*
X100278845Y-103800499D01*
X100433497Y-103769737D01*
X100579179Y-103709394D01*
X100710289Y-103621789D01*
X100821789Y-103510289D01*
X100909394Y-103379179D01*
X100969737Y-103233497D01*
X101000500Y-103078842D01*
X101000500Y-102921158D01*
X101000500Y-102921155D01*
X101000499Y-102921153D01*
X100969738Y-102766510D01*
X100969737Y-102766503D01*
X100969735Y-102766498D01*
X100909397Y-102620827D01*
X100909390Y-102620814D01*
X100821789Y-102489711D01*
X100821786Y-102489707D01*
X100710292Y-102378213D01*
X100710288Y-102378210D01*
X100579185Y-102290609D01*
X100579175Y-102290604D01*
X100555523Y-102280807D01*
X100515295Y-102253927D01*
X98187819Y-99926451D01*
X98173115Y-99899523D01*
X98156523Y-99873705D01*
X98155631Y-99867504D01*
X98154334Y-99865128D01*
X98151500Y-99838770D01*
X98151500Y-99703604D01*
X98160939Y-99656151D01*
X98170737Y-99632497D01*
X98201500Y-99477842D01*
X98201500Y-99320158D01*
X98201500Y-99320155D01*
X98201499Y-99320153D01*
X98170738Y-99165510D01*
X98170737Y-99165503D01*
X98170735Y-99165498D01*
X98110397Y-99019827D01*
X98110390Y-99019814D01*
X98022789Y-98888711D01*
X98022786Y-98888707D01*
X97911292Y-98777213D01*
X97911288Y-98777210D01*
X97780185Y-98689609D01*
X97780172Y-98689602D01*
X97634501Y-98629264D01*
X97634489Y-98629261D01*
X97479845Y-98598500D01*
X97479842Y-98598500D01*
X97322158Y-98598500D01*
X97322155Y-98598500D01*
X97167510Y-98629261D01*
X97167498Y-98629264D01*
X97021827Y-98689602D01*
X97021814Y-98689609D01*
X96890711Y-98777210D01*
X96890707Y-98777213D01*
X96779213Y-98888707D01*
X96779210Y-98888711D01*
X96691609Y-99019814D01*
X96691602Y-99019827D01*
X96631264Y-99165498D01*
X96631261Y-99165510D01*
X96600500Y-99320153D01*
X66750000Y-99320153D01*
X66750000Y-96250000D01*
X75250000Y-96250000D01*
X75250000Y-95840316D01*
X82249500Y-95840316D01*
X82249500Y-96159683D01*
X82280803Y-96477522D01*
X82343109Y-96790754D01*
X82435820Y-97096382D01*
X82558040Y-97391446D01*
X82558042Y-97391451D01*
X82708584Y-97673094D01*
X82708601Y-97673122D01*
X82886012Y-97938638D01*
X82886029Y-97938661D01*
X83088638Y-98185540D01*
X83314459Y-98411361D01*
X83314464Y-98411365D01*
X83314465Y-98411366D01*
X83561344Y-98613975D01*
X83561351Y-98613980D01*
X83561361Y-98613987D01*
X83826877Y-98791398D01*
X83826882Y-98791401D01*
X83826894Y-98791409D01*
X83826903Y-98791413D01*
X83826905Y-98791415D01*
X84108548Y-98941957D01*
X84108550Y-98941957D01*
X84108556Y-98941961D01*
X84403619Y-99064180D01*
X84709240Y-99156889D01*
X85022477Y-99219196D01*
X85340313Y-99250500D01*
X85340316Y-99250500D01*
X85659684Y-99250500D01*
X85659687Y-99250500D01*
X85977523Y-99219196D01*
X86290760Y-99156889D01*
X86596381Y-99064180D01*
X86891444Y-98941961D01*
X87173106Y-98791409D01*
X87438656Y-98613975D01*
X87685535Y-98411366D01*
X87911366Y-98185535D01*
X88113975Y-97938656D01*
X88291409Y-97673106D01*
X88441961Y-97391444D01*
X88564180Y-97096381D01*
X88656889Y-96790760D01*
X88719196Y-96477523D01*
X88750500Y-96159687D01*
X88750500Y-95840313D01*
X88719196Y-95522477D01*
X88716772Y-95510289D01*
X88702643Y-95439257D01*
X88699042Y-95421153D01*
X89949500Y-95421153D01*
X89949500Y-95578846D01*
X89980261Y-95733489D01*
X89980264Y-95733501D01*
X90040602Y-95879172D01*
X90040609Y-95879185D01*
X90128210Y-96010288D01*
X90128213Y-96010292D01*
X90239707Y-96121786D01*
X90239711Y-96121789D01*
X90370814Y-96209390D01*
X90370827Y-96209397D01*
X90516498Y-96269735D01*
X90516503Y-96269737D01*
X90671153Y-96300499D01*
X90671156Y-96300500D01*
X90671158Y-96300500D01*
X90828844Y-96300500D01*
X90828845Y-96300499D01*
X90983497Y-96269737D01*
X91129179Y-96209394D01*
X91260289Y-96121789D01*
X91371789Y-96010289D01*
X91459394Y-95879179D01*
X91469191Y-95855524D01*
X91473823Y-95848591D01*
X91474921Y-95843548D01*
X91477340Y-95840316D01*
X102249500Y-95840316D01*
X102249500Y-96159683D01*
X102280803Y-96477522D01*
X102343109Y-96790754D01*
X102435820Y-97096382D01*
X102558040Y-97391446D01*
X102558042Y-97391451D01*
X102708584Y-97673094D01*
X102708601Y-97673122D01*
X102886012Y-97938638D01*
X102886029Y-97938661D01*
X103088638Y-98185540D01*
X103314459Y-98411361D01*
X103314464Y-98411365D01*
X103314465Y-98411366D01*
X103561344Y-98613975D01*
X103561351Y-98613980D01*
X103561361Y-98613987D01*
X103826877Y-98791398D01*
X103826882Y-98791401D01*
X103826894Y-98791409D01*
X103826903Y-98791413D01*
X103826905Y-98791415D01*
X104108548Y-98941957D01*
X104108550Y-98941957D01*
X104108556Y-98941961D01*
X104403619Y-99064180D01*
X104709240Y-99156889D01*
X105022477Y-99219196D01*
X105340313Y-99250500D01*
X105340316Y-99250500D01*
X105659684Y-99250500D01*
X105659687Y-99250500D01*
X105977523Y-99219196D01*
X106290760Y-99156889D01*
X106596381Y-99064180D01*
X106891444Y-98941961D01*
X107173106Y-98791409D01*
X107438656Y-98613975D01*
X107685535Y-98411366D01*
X107911366Y-98185535D01*
X108113975Y-97938656D01*
X108291409Y-97673106D01*
X108441961Y-97391444D01*
X108564180Y-97096381D01*
X108656889Y-96790760D01*
X108719196Y-96477523D01*
X108750500Y-96159687D01*
X108750500Y-95840313D01*
X108719196Y-95522477D01*
X108656889Y-95209240D01*
X108564180Y-94903619D01*
X108441961Y-94608556D01*
X108291409Y-94326894D01*
X108249500Y-94264172D01*
X108113987Y-94061361D01*
X108113980Y-94061351D01*
X108113975Y-94061344D01*
X107911366Y-93814465D01*
X107911365Y-93814464D01*
X107911361Y-93814459D01*
X107685540Y-93588638D01*
X107438661Y-93386029D01*
X107438638Y-93386012D01*
X107173122Y-93208601D01*
X107173094Y-93208584D01*
X106891451Y-93058042D01*
X106891446Y-93058040D01*
X106596382Y-92935820D01*
X106290754Y-92843109D01*
X105977521Y-92780803D01*
X105977522Y-92780803D01*
X105738141Y-92757227D01*
X105659687Y-92749500D01*
X105340313Y-92749500D01*
X105267822Y-92756639D01*
X105022477Y-92780803D01*
X104709245Y-92843109D01*
X104403617Y-92935820D01*
X104108553Y-93058040D01*
X104108548Y-93058042D01*
X103826905Y-93208584D01*
X103826877Y-93208601D01*
X103561361Y-93386012D01*
X103561338Y-93386029D01*
X103314459Y-93588638D01*
X103088638Y-93814459D01*
X102886029Y-94061338D01*
X102886012Y-94061361D01*
X102708601Y-94326877D01*
X102708584Y-94326905D01*
X102558042Y-94608548D01*
X102558040Y-94608553D01*
X102435820Y-94903617D01*
X102343109Y-95209245D01*
X102280803Y-95522477D01*
X102249500Y-95840316D01*
X91477340Y-95840316D01*
X91496069Y-95815297D01*
X93274548Y-94036819D01*
X93335871Y-94003334D01*
X93362229Y-94000500D01*
X96695396Y-94000500D01*
X96742844Y-94009937D01*
X96766503Y-94019737D01*
X96766508Y-94019738D01*
X96766511Y-94019739D01*
X96921153Y-94050499D01*
X96921156Y-94050500D01*
X96921158Y-94050500D01*
X97078844Y-94050500D01*
X97078845Y-94050499D01*
X97233497Y-94019737D01*
X97379179Y-93959394D01*
X97510289Y-93871789D01*
X97621789Y-93760289D01*
X97709394Y-93629179D01*
X97769737Y-93483497D01*
X97800500Y-93328842D01*
X97800500Y-93171158D01*
X97800500Y-93171155D01*
X97800499Y-93171153D01*
X97780037Y-93068286D01*
X97769737Y-93016503D01*
X97769735Y-93016498D01*
X97709397Y-92870827D01*
X97709390Y-92870814D01*
X97621789Y-92739711D01*
X97621786Y-92739707D01*
X97510292Y-92628213D01*
X97510288Y-92628210D01*
X97379185Y-92540609D01*
X97379172Y-92540602D01*
X97233501Y-92480264D01*
X97233489Y-92480261D01*
X97078845Y-92449500D01*
X97078842Y-92449500D01*
X96921158Y-92449500D01*
X96921155Y-92449500D01*
X96766511Y-92480260D01*
X96766506Y-92480262D01*
X96766504Y-92480262D01*
X96766503Y-92480263D01*
X96742844Y-92490062D01*
X96695396Y-92499500D01*
X92926076Y-92499500D01*
X92897242Y-92505234D01*
X92897243Y-92505235D01*
X92781093Y-92528339D01*
X92781083Y-92528342D01*
X92701081Y-92561479D01*
X92701082Y-92561480D01*
X92644506Y-92584915D01*
X92644503Y-92584917D01*
X92631039Y-92593913D01*
X92577548Y-92629655D01*
X92577547Y-92629656D01*
X92521586Y-92667046D01*
X92521581Y-92667050D01*
X90434703Y-94753927D01*
X90394480Y-94780805D01*
X90370819Y-94790606D01*
X90370818Y-94790607D01*
X90239715Y-94878207D01*
X90239707Y-94878213D01*
X90128213Y-94989707D01*
X90128210Y-94989711D01*
X90040609Y-95120814D01*
X90040602Y-95120827D01*
X89980264Y-95266498D01*
X89980261Y-95266510D01*
X89949500Y-95421153D01*
X88699042Y-95421153D01*
X88675042Y-95300500D01*
X88656889Y-95209240D01*
X88564180Y-94903619D01*
X88441961Y-94608556D01*
X88291409Y-94326894D01*
X88249500Y-94264172D01*
X88113987Y-94061361D01*
X88113980Y-94061351D01*
X88113975Y-94061344D01*
X87911366Y-93814465D01*
X87911365Y-93814464D01*
X87911361Y-93814459D01*
X87685540Y-93588638D01*
X87438661Y-93386029D01*
X87438638Y-93386012D01*
X87173122Y-93208601D01*
X87173094Y-93208584D01*
X86891451Y-93058042D01*
X86891446Y-93058040D01*
X86596382Y-92935820D01*
X86290754Y-92843109D01*
X85977521Y-92780803D01*
X85977522Y-92780803D01*
X85738141Y-92757227D01*
X85659687Y-92749500D01*
X85340313Y-92749500D01*
X85267822Y-92756639D01*
X85022477Y-92780803D01*
X84709245Y-92843109D01*
X84403617Y-92935820D01*
X84108553Y-93058040D01*
X84108548Y-93058042D01*
X83826905Y-93208584D01*
X83826877Y-93208601D01*
X83561361Y-93386012D01*
X83561338Y-93386029D01*
X83314459Y-93588638D01*
X83088638Y-93814459D01*
X82886029Y-94061338D01*
X82886012Y-94061361D01*
X82708601Y-94326877D01*
X82708584Y-94326905D01*
X82558042Y-94608548D01*
X82558040Y-94608553D01*
X82435820Y-94903617D01*
X82343109Y-95209245D01*
X82280803Y-95522477D01*
X82249500Y-95840316D01*
X75250000Y-95840316D01*
X75250000Y-88951153D01*
X91449500Y-88951153D01*
X91449500Y-89108846D01*
X91480261Y-89263489D01*
X91480264Y-89263501D01*
X91540602Y-89409172D01*
X91540609Y-89409185D01*
X91628210Y-89540288D01*
X91628213Y-89540292D01*
X91739710Y-89651789D01*
X91827315Y-89710324D01*
X91870821Y-89739394D01*
X91870826Y-89739396D01*
X91870828Y-89739397D01*
X91894473Y-89749191D01*
X91934705Y-89776072D01*
X92521580Y-90362948D01*
X92521584Y-90362951D01*
X92644498Y-90445080D01*
X92644511Y-90445087D01*
X92751469Y-90489390D01*
X92781087Y-90501658D01*
X92781091Y-90501658D01*
X92781092Y-90501659D01*
X92926079Y-90530500D01*
X92926082Y-90530500D01*
X93073917Y-90530500D01*
X100176082Y-90530500D01*
X103532896Y-90530500D01*
X103580344Y-90539937D01*
X103604003Y-90549737D01*
X103604008Y-90549738D01*
X103604011Y-90549739D01*
X103758653Y-90580499D01*
X103758656Y-90580500D01*
X103758658Y-90580500D01*
X103916344Y-90580500D01*
X103916345Y-90580499D01*
X104070997Y-90549737D01*
X104216679Y-90489394D01*
X104347789Y-90401789D01*
X104459289Y-90290289D01*
X104546894Y-90159179D01*
X104607237Y-90013497D01*
X104621988Y-89939334D01*
X104639189Y-89852868D01*
X104641312Y-89853290D01*
X104663815Y-89797560D01*
X104720849Y-89757200D01*
X104761058Y-89750500D01*
X108387770Y-89750500D01*
X108454809Y-89770185D01*
X108475451Y-89786819D01*
X108753927Y-90065295D01*
X108780806Y-90105521D01*
X108790606Y-90129179D01*
X108790607Y-90129181D01*
X108878207Y-90260284D01*
X108878213Y-90260292D01*
X108989707Y-90371786D01*
X108989711Y-90371789D01*
X109120814Y-90459390D01*
X109120827Y-90459397D01*
X109235753Y-90507000D01*
X109266503Y-90519737D01*
X109417312Y-90549735D01*
X109421153Y-90550499D01*
X109421156Y-90550500D01*
X109421158Y-90550500D01*
X109578844Y-90550500D01*
X109578845Y-90550499D01*
X109679388Y-90530500D01*
X109733488Y-90519739D01*
X109733489Y-90519738D01*
X109733497Y-90519737D01*
X109757155Y-90509937D01*
X109804604Y-90500500D01*
X111487222Y-90500500D01*
X111534670Y-90509937D01*
X111558329Y-90519737D01*
X111558334Y-90519738D01*
X111558337Y-90519739D01*
X111712979Y-90550499D01*
X111712982Y-90550500D01*
X111712984Y-90550500D01*
X111870670Y-90550500D01*
X111870671Y-90550499D01*
X111971214Y-90530500D01*
X112025314Y-90519739D01*
X112025315Y-90519738D01*
X112025323Y-90519737D01*
X112048981Y-90509937D01*
X112096430Y-90500500D01*
X121125500Y-90500500D01*
X121192539Y-90520185D01*
X121238294Y-90572989D01*
X121249500Y-90624500D01*
X121249500Y-93818059D01*
X121229815Y-93885098D01*
X121177011Y-93930853D01*
X121107853Y-93940797D01*
X121044297Y-93911772D01*
X121037819Y-93905740D01*
X121010292Y-93878213D01*
X121010288Y-93878210D01*
X120879185Y-93790609D01*
X120879175Y-93790604D01*
X120855523Y-93780807D01*
X120815295Y-93753927D01*
X119536819Y-92475451D01*
X119522115Y-92448523D01*
X119505523Y-92422705D01*
X119504631Y-92416504D01*
X119503334Y-92414128D01*
X119500500Y-92387770D01*
X119500500Y-92304604D01*
X119509939Y-92257151D01*
X119519737Y-92233497D01*
X119550500Y-92078842D01*
X119550500Y-91921158D01*
X119550500Y-91921155D01*
X119550499Y-91921153D01*
X119519737Y-91766503D01*
X119519735Y-91766498D01*
X119459397Y-91620827D01*
X119459390Y-91620814D01*
X119371789Y-91489711D01*
X119371786Y-91489707D01*
X119260292Y-91378213D01*
X119260288Y-91378210D01*
X119129185Y-91290609D01*
X119129172Y-91290602D01*
X118983501Y-91230264D01*
X118983489Y-91230261D01*
X118828845Y-91199500D01*
X118828842Y-91199500D01*
X118671158Y-91199500D01*
X118671155Y-91199500D01*
X118516510Y-91230261D01*
X118516498Y-91230264D01*
X118370827Y-91290602D01*
X118370814Y-91290609D01*
X118239711Y-91378210D01*
X118239707Y-91378213D01*
X118128213Y-91489707D01*
X118128210Y-91489711D01*
X118040609Y-91620814D01*
X118040602Y-91620827D01*
X117980264Y-91766498D01*
X117980261Y-91766510D01*
X117949500Y-91921153D01*
X117949500Y-92078846D01*
X117980261Y-92233489D01*
X117980263Y-92233497D01*
X117990061Y-92257151D01*
X117999500Y-92304604D01*
X117999500Y-92823918D01*
X117999500Y-92823920D01*
X117999499Y-92823920D01*
X118028340Y-92968907D01*
X118028343Y-92968917D01*
X118084914Y-93105492D01*
X118117812Y-93154727D01*
X118117813Y-93154730D01*
X118167046Y-93228414D01*
X118167052Y-93228421D01*
X119753927Y-94815295D01*
X119780807Y-94855523D01*
X119790604Y-94879175D01*
X119790609Y-94879185D01*
X119878210Y-95010288D01*
X119878213Y-95010292D01*
X119989707Y-95121786D01*
X119989711Y-95121789D01*
X120120814Y-95209390D01*
X120120827Y-95209397D01*
X120258683Y-95266498D01*
X120266503Y-95269737D01*
X120421153Y-95300499D01*
X120421156Y-95300500D01*
X120421158Y-95300500D01*
X120578844Y-95300500D01*
X120578845Y-95300499D01*
X120733497Y-95269737D01*
X120879179Y-95209394D01*
X121010289Y-95121789D01*
X121011186Y-95120891D01*
X121011773Y-95120571D01*
X121014999Y-95117924D01*
X121015500Y-95118535D01*
X121072504Y-95087402D01*
X121142196Y-95092380D01*
X121198134Y-95134246D01*
X121220491Y-95184374D01*
X121230261Y-95233491D01*
X121230264Y-95233501D01*
X121290602Y-95379172D01*
X121290609Y-95379185D01*
X121378210Y-95510288D01*
X121378213Y-95510292D01*
X121489707Y-95621786D01*
X121489711Y-95621789D01*
X121620814Y-95709390D01*
X121620827Y-95709397D01*
X121766498Y-95769735D01*
X121766503Y-95769737D01*
X121898691Y-95796031D01*
X121921153Y-95800499D01*
X121921156Y-95800500D01*
X121921158Y-95800500D01*
X122078842Y-95800500D01*
X122101308Y-95796031D01*
X122170898Y-95802257D01*
X122226076Y-95845119D01*
X122249322Y-95911008D01*
X122249500Y-95917648D01*
X122249500Y-96159683D01*
X122280803Y-96477522D01*
X122343109Y-96790754D01*
X122435820Y-97096382D01*
X122558040Y-97391446D01*
X122558042Y-97391451D01*
X122708584Y-97673094D01*
X122708601Y-97673122D01*
X122886012Y-97938638D01*
X122886029Y-97938661D01*
X123088638Y-98185540D01*
X123314459Y-98411361D01*
X123314464Y-98411365D01*
X123314465Y-98411366D01*
X123561344Y-98613975D01*
X123561351Y-98613980D01*
X123561361Y-98613987D01*
X123826877Y-98791398D01*
X123826882Y-98791401D01*
X123826894Y-98791409D01*
X123826903Y-98791413D01*
X123826905Y-98791415D01*
X124108548Y-98941957D01*
X124108550Y-98941957D01*
X124108556Y-98941961D01*
X124403619Y-99064180D01*
X124709240Y-99156889D01*
X125022477Y-99219196D01*
X125340313Y-99250500D01*
X125340316Y-99250500D01*
X125659684Y-99250500D01*
X125659687Y-99250500D01*
X125977523Y-99219196D01*
X126290760Y-99156889D01*
X126596381Y-99064180D01*
X126891444Y-98941961D01*
X127173106Y-98791409D01*
X127438656Y-98613975D01*
X127685535Y-98411366D01*
X127911366Y-98185535D01*
X128113975Y-97938656D01*
X128291409Y-97673106D01*
X128441961Y-97391444D01*
X128564180Y-97096381D01*
X128656889Y-96790760D01*
X128719196Y-96477523D01*
X128750500Y-96159687D01*
X128750500Y-95840313D01*
X128719196Y-95522477D01*
X128656889Y-95209240D01*
X128564180Y-94903619D01*
X128441961Y-94608556D01*
X128291409Y-94326894D01*
X128249500Y-94264172D01*
X128113987Y-94061361D01*
X128113980Y-94061351D01*
X128113975Y-94061344D01*
X127911366Y-93814465D01*
X127911365Y-93814464D01*
X127911361Y-93814459D01*
X127685540Y-93588638D01*
X127438661Y-93386029D01*
X127438638Y-93386012D01*
X127173122Y-93208601D01*
X127173094Y-93208584D01*
X126891451Y-93058042D01*
X126891446Y-93058040D01*
X126596382Y-92935820D01*
X126290754Y-92843109D01*
X125977521Y-92780803D01*
X125977522Y-92780803D01*
X125738141Y-92757227D01*
X125659687Y-92749500D01*
X125340313Y-92749500D01*
X125267822Y-92756639D01*
X125022477Y-92780803D01*
X124709245Y-92843109D01*
X124403617Y-92935820D01*
X124108553Y-93058040D01*
X124108548Y-93058042D01*
X123826905Y-93208584D01*
X123826877Y-93208601D01*
X123561361Y-93386012D01*
X123561338Y-93386029D01*
X123314459Y-93588638D01*
X123088638Y-93814459D01*
X122970353Y-93958590D01*
X122912607Y-93997924D01*
X122842763Y-93999795D01*
X122782994Y-93963607D01*
X122752279Y-93900851D01*
X122750500Y-93879925D01*
X122750500Y-90054604D01*
X122759939Y-90007151D01*
X122769737Y-89983497D01*
X122800500Y-89828842D01*
X122800500Y-89671158D01*
X122800500Y-89671155D01*
X122800499Y-89671153D01*
X122769738Y-89516510D01*
X122769737Y-89516503D01*
X122725285Y-89409185D01*
X122709397Y-89370827D01*
X122709390Y-89370814D01*
X122621789Y-89239711D01*
X122621786Y-89239707D01*
X122510292Y-89128213D01*
X122510288Y-89128210D01*
X122379185Y-89040609D01*
X122379172Y-89040602D01*
X122233501Y-88980264D01*
X122233489Y-88980261D01*
X122078845Y-88949500D01*
X122078842Y-88949500D01*
X121921158Y-88949500D01*
X121921155Y-88949500D01*
X121766511Y-88980260D01*
X121766506Y-88980262D01*
X121766504Y-88980262D01*
X121766503Y-88980263D01*
X121742844Y-88990062D01*
X121695396Y-88999500D01*
X112096430Y-88999500D01*
X112048981Y-88990062D01*
X112025323Y-88980263D01*
X112025319Y-88980262D01*
X112025314Y-88980260D01*
X111870671Y-88949500D01*
X111870668Y-88949500D01*
X111712984Y-88949500D01*
X111712981Y-88949500D01*
X111558337Y-88980260D01*
X111558332Y-88980262D01*
X111558330Y-88980262D01*
X111558329Y-88980263D01*
X111534670Y-88990062D01*
X111487222Y-88999500D01*
X109862229Y-88999500D01*
X109795190Y-88979815D01*
X109774548Y-88963181D01*
X109228421Y-88417052D01*
X109228420Y-88417051D01*
X109215188Y-88408210D01*
X109150393Y-88364916D01*
X109150392Y-88364915D01*
X109105500Y-88334919D01*
X109105488Y-88334912D01*
X108968917Y-88278343D01*
X108968907Y-88278340D01*
X108823920Y-88249500D01*
X108823918Y-88249500D01*
X100804604Y-88249500D01*
X100757155Y-88240062D01*
X100733497Y-88230263D01*
X100733493Y-88230262D01*
X100733488Y-88230260D01*
X100578845Y-88199500D01*
X100578842Y-88199500D01*
X100421158Y-88199500D01*
X100421155Y-88199500D01*
X100266510Y-88230261D01*
X100266498Y-88230264D01*
X100120827Y-88290602D01*
X100120814Y-88290609D01*
X99989711Y-88378210D01*
X99989707Y-88378213D01*
X99878213Y-88489707D01*
X99878210Y-88489711D01*
X99790609Y-88620814D01*
X99790602Y-88620827D01*
X99730264Y-88766498D01*
X99730261Y-88766510D01*
X99698311Y-88927132D01*
X99696187Y-88926709D01*
X99673685Y-88982440D01*
X99616651Y-89022800D01*
X99576442Y-89029500D01*
X93362229Y-89029500D01*
X93295190Y-89009815D01*
X93274548Y-88993181D01*
X92996072Y-88714705D01*
X92969191Y-88674473D01*
X92959397Y-88650828D01*
X92959396Y-88650826D01*
X92959394Y-88650821D01*
X92930324Y-88607315D01*
X92871789Y-88519710D01*
X92760292Y-88408213D01*
X92760288Y-88408210D01*
X92629185Y-88320609D01*
X92629172Y-88320602D01*
X92483501Y-88260264D01*
X92483489Y-88260261D01*
X92328845Y-88229500D01*
X92328842Y-88229500D01*
X92171158Y-88229500D01*
X92171155Y-88229500D01*
X92016510Y-88260261D01*
X92016498Y-88260264D01*
X91870827Y-88320602D01*
X91870814Y-88320609D01*
X91739711Y-88408210D01*
X91739707Y-88408213D01*
X91628213Y-88519707D01*
X91628210Y-88519711D01*
X91540609Y-88650814D01*
X91540602Y-88650827D01*
X91480264Y-88796498D01*
X91480261Y-88796510D01*
X91449500Y-88951153D01*
X75250000Y-88951153D01*
X75250000Y-86546153D01*
X75949500Y-86546153D01*
X75949500Y-86703846D01*
X75980261Y-86858489D01*
X75980264Y-86858501D01*
X76040602Y-87004172D01*
X76040609Y-87004185D01*
X76128210Y-87135288D01*
X76128213Y-87135292D01*
X76239707Y-87246786D01*
X76239711Y-87246789D01*
X76370814Y-87334390D01*
X76370827Y-87334397D01*
X76516498Y-87394735D01*
X76516503Y-87394737D01*
X76671153Y-87425499D01*
X76671156Y-87425500D01*
X76671158Y-87425500D01*
X76828844Y-87425500D01*
X76828845Y-87425499D01*
X76983497Y-87394737D01*
X77129179Y-87334394D01*
X77260289Y-87246789D01*
X77371789Y-87135289D01*
X77459394Y-87004179D01*
X77519737Y-86858497D01*
X77550500Y-86703842D01*
X77550500Y-86546158D01*
X77550500Y-86546155D01*
X77550499Y-86546153D01*
X77519738Y-86391510D01*
X77519737Y-86391503D01*
X77519735Y-86391498D01*
X77459397Y-86245827D01*
X77459390Y-86245814D01*
X77371789Y-86114711D01*
X77371786Y-86114707D01*
X77260292Y-86003213D01*
X77260288Y-86003210D01*
X77129185Y-85915609D01*
X77129172Y-85915602D01*
X76983501Y-85855264D01*
X76983489Y-85855261D01*
X76828845Y-85824500D01*
X76828842Y-85824500D01*
X76671158Y-85824500D01*
X76671155Y-85824500D01*
X76516510Y-85855261D01*
X76516498Y-85855264D01*
X76370827Y-85915602D01*
X76370814Y-85915609D01*
X76239711Y-86003210D01*
X76239707Y-86003213D01*
X76128213Y-86114707D01*
X76128210Y-86114711D01*
X76040609Y-86245814D01*
X76040602Y-86245827D01*
X75980264Y-86391498D01*
X75980261Y-86391510D01*
X75949500Y-86546153D01*
X75250000Y-86546153D01*
X75250000Y-83000500D01*
X75323920Y-83000500D01*
X75421462Y-82981096D01*
X75468913Y-82971658D01*
X75605495Y-82915084D01*
X75670291Y-82871789D01*
X75670294Y-82871786D01*
X75670296Y-82871786D01*
X75699547Y-82852240D01*
X75728416Y-82832952D01*
X76774549Y-81786819D01*
X76835872Y-81753334D01*
X76862230Y-81750500D01*
X91695396Y-81750500D01*
X91742844Y-81759937D01*
X91766503Y-81769737D01*
X91766508Y-81769738D01*
X91766511Y-81769739D01*
X91921153Y-81800499D01*
X91921156Y-81800500D01*
X91921158Y-81800500D01*
X92078844Y-81800500D01*
X92078845Y-81800499D01*
X92233497Y-81769737D01*
X92379179Y-81709394D01*
X92510289Y-81621789D01*
X92621789Y-81510289D01*
X92709394Y-81379179D01*
X92769737Y-81233497D01*
X92792150Y-81120821D01*
X92796330Y-81099809D01*
X92828715Y-81037898D01*
X92889431Y-81003323D01*
X92917947Y-81000000D01*
X97905073Y-81000000D01*
X97972112Y-81019685D01*
G37*
%TD.AperFunction*%
%TA.AperFunction,Conductor*%
G36*
X75290662Y-81070587D02*
G01*
X75284170Y-81140154D01*
X75256635Y-81181997D01*
X75250000Y-81188632D01*
X75250000Y-81000000D01*
X75276900Y-81000000D01*
X75290662Y-81070587D01*
G37*
%TD.AperFunction*%
%TD*%
%TA.AperFunction,Conductor*%
%TO.N,GND*%
G36*
X75193039Y-70769685D02*
G01*
X75238794Y-70822489D01*
X75250000Y-70874000D01*
X75250000Y-81542186D01*
X75079005Y-81713181D01*
X75017682Y-81746666D01*
X74991324Y-81749500D01*
X64767289Y-81749500D01*
X64719838Y-81740062D01*
X64712486Y-81737016D01*
X64677482Y-81727637D01*
X64572475Y-81699500D01*
X64427525Y-81699500D01*
X64298993Y-81733940D01*
X64287511Y-81737017D01*
X64161988Y-81809488D01*
X64161982Y-81809493D01*
X64059493Y-81911982D01*
X64059488Y-81911988D01*
X63987017Y-82037511D01*
X63987016Y-82037515D01*
X63949500Y-82177525D01*
X63949500Y-82322475D01*
X63987016Y-82462485D01*
X63987017Y-82462488D01*
X64059488Y-82588011D01*
X64059490Y-82588013D01*
X64059491Y-82588015D01*
X64161985Y-82690509D01*
X64161986Y-82690510D01*
X64161988Y-82690511D01*
X64287511Y-82762982D01*
X64287512Y-82762982D01*
X64287515Y-82762984D01*
X64427525Y-82800500D01*
X64427528Y-82800500D01*
X64572472Y-82800500D01*
X64572475Y-82800500D01*
X64712485Y-82762984D01*
X64712488Y-82762981D01*
X64719838Y-82759938D01*
X64767289Y-82750500D01*
X75250000Y-82750500D01*
X75250000Y-96250000D01*
X66574500Y-96250000D01*
X66507461Y-96230315D01*
X66461706Y-96177511D01*
X66450500Y-96126000D01*
X66450500Y-96062823D01*
X66450499Y-96062821D01*
X66435967Y-95989764D01*
X66435966Y-95989760D01*
X66380601Y-95906899D01*
X66297740Y-95851534D01*
X66297739Y-95851533D01*
X66297735Y-95851532D01*
X66224677Y-95837000D01*
X66224674Y-95837000D01*
X65788721Y-95837000D01*
X65721682Y-95817315D01*
X65675927Y-95764511D01*
X65665983Y-95695353D01*
X65695008Y-95631797D01*
X65732426Y-95602515D01*
X65877747Y-95528469D01*
X66030877Y-95417212D01*
X66030878Y-95417212D01*
X66164712Y-95283378D01*
X66164712Y-95283377D01*
X66275969Y-95130247D01*
X66361898Y-94961602D01*
X66420390Y-94781582D01*
X66425393Y-94750000D01*
X65690748Y-94750000D01*
X65712518Y-94712292D01*
X65750000Y-94572409D01*
X65750000Y-94427591D01*
X65712518Y-94287708D01*
X65690748Y-94250000D01*
X66425393Y-94250000D01*
X66425393Y-94249999D01*
X66420390Y-94218417D01*
X66361898Y-94038397D01*
X66275969Y-93869752D01*
X66164712Y-93716622D01*
X66164712Y-93716621D01*
X66030878Y-93582787D01*
X65877747Y-93471530D01*
X65709104Y-93385601D01*
X65593976Y-93348194D01*
X65536301Y-93308756D01*
X65509103Y-93244397D01*
X65521018Y-93175551D01*
X65568262Y-93124075D01*
X65593977Y-93112332D01*
X65709289Y-93074865D01*
X65709292Y-93074864D01*
X65878009Y-92988898D01*
X66031202Y-92877597D01*
X66165097Y-92743702D01*
X66276398Y-92590509D01*
X66362364Y-92421792D01*
X66420878Y-92241703D01*
X66450500Y-92054678D01*
X66450500Y-91865322D01*
X66420878Y-91678297D01*
X66362364Y-91498208D01*
X66362364Y-91498207D01*
X66276397Y-91329490D01*
X66243401Y-91284075D01*
X66165097Y-91176298D01*
X66031202Y-91042403D01*
X65878009Y-90931102D01*
X65709292Y-90845135D01*
X65709289Y-90845134D01*
X65529204Y-90786622D01*
X65435690Y-90771811D01*
X65342178Y-90757000D01*
X65057822Y-90757000D01*
X64995480Y-90766874D01*
X64870795Y-90786622D01*
X64690710Y-90845134D01*
X64690707Y-90845135D01*
X64521990Y-90931102D01*
X64368795Y-91042405D01*
X64234905Y-91176295D01*
X64123602Y-91329490D01*
X64037635Y-91498207D01*
X64037634Y-91498210D01*
X63979122Y-91678295D01*
X63949500Y-91865322D01*
X63949500Y-92054677D01*
X63979122Y-92241704D01*
X64037634Y-92421789D01*
X64037635Y-92421792D01*
X64101876Y-92547870D01*
X64123602Y-92590509D01*
X64234903Y-92743702D01*
X64368798Y-92877597D01*
X64521991Y-92988898D01*
X64583391Y-93020183D01*
X64690707Y-93074864D01*
X64690710Y-93074865D01*
X64806022Y-93112332D01*
X64863697Y-93151769D01*
X64890896Y-93216128D01*
X64878981Y-93284974D01*
X64831737Y-93336450D01*
X64806023Y-93348194D01*
X64690895Y-93385601D01*
X64522252Y-93471530D01*
X64369122Y-93582787D01*
X64369121Y-93582787D01*
X64235287Y-93716621D01*
X64235287Y-93716622D01*
X64124030Y-93869752D01*
X64038101Y-94038397D01*
X63979609Y-94218417D01*
X63974606Y-94249999D01*
X63974607Y-94250000D01*
X64709252Y-94250000D01*
X64687482Y-94287708D01*
X64650000Y-94427591D01*
X64650000Y-94572409D01*
X64687482Y-94712292D01*
X64709252Y-94750000D01*
X63974606Y-94750000D01*
X63979609Y-94781582D01*
X64038101Y-94961602D01*
X64124030Y-95130247D01*
X64235287Y-95283377D01*
X64235287Y-95283378D01*
X64369121Y-95417212D01*
X64522252Y-95528469D01*
X64574351Y-95555015D01*
X64625147Y-95602989D01*
X64641942Y-95670810D01*
X64619405Y-95736945D01*
X64564690Y-95780397D01*
X64518056Y-95789500D01*
X63227014Y-95789500D01*
X63159975Y-95769815D01*
X63139333Y-95753181D01*
X58654495Y-91268343D01*
X58621010Y-91207020D01*
X58618176Y-91180662D01*
X58618176Y-90952129D01*
X58618175Y-90952123D01*
X58618174Y-90952116D01*
X58611768Y-90892517D01*
X58594095Y-90845134D01*
X58561474Y-90757671D01*
X58561470Y-90757664D01*
X58475224Y-90642455D01*
X58475221Y-90642452D01*
X58360012Y-90556206D01*
X58360005Y-90556202D01*
X58225159Y-90505908D01*
X58225160Y-90505908D01*
X58165560Y-90499501D01*
X58165558Y-90499500D01*
X58165550Y-90499500D01*
X57466096Y-90499500D01*
X57466094Y-90499500D01*
X57269260Y-90499500D01*
X57269256Y-90499500D01*
X56569806Y-90499500D01*
X56569800Y-90499501D01*
X56510193Y-90505908D01*
X56375348Y-90556202D01*
X56375341Y-90556206D01*
X56260132Y-90642452D01*
X56260129Y-90642455D01*
X56173883Y-90757664D01*
X56173879Y-90757671D01*
X56123585Y-90892517D01*
X56117178Y-90952116D01*
X56117178Y-90952123D01*
X56117177Y-90952135D01*
X56117177Y-92547870D01*
X56117178Y-92547876D01*
X56123585Y-92607483D01*
X56173879Y-92742328D01*
X56173883Y-92742335D01*
X56260129Y-92857544D01*
X56260132Y-92857547D01*
X56375341Y-92943793D01*
X56375348Y-92943797D01*
X56420295Y-92960561D01*
X56510194Y-92994091D01*
X56569804Y-93000500D01*
X56798339Y-93000499D01*
X56865379Y-93020183D01*
X56886021Y-93036818D01*
X59887521Y-96038319D01*
X59921006Y-96099642D01*
X59916022Y-96169334D01*
X59874150Y-96225267D01*
X59808686Y-96249684D01*
X59799840Y-96250000D01*
X48624500Y-96250000D01*
X48557461Y-96230315D01*
X48511706Y-96177511D01*
X48500500Y-96126000D01*
X48500500Y-91651617D01*
X51117677Y-91651617D01*
X51117677Y-91848382D01*
X51148455Y-92042705D01*
X51209258Y-92229835D01*
X51298582Y-92405145D01*
X51323996Y-92440125D01*
X51323997Y-92440125D01*
X51884714Y-91879408D01*
X51901752Y-91942993D01*
X51967578Y-92057007D01*
X52060670Y-92150099D01*
X52174684Y-92215925D01*
X52238267Y-92232962D01*
X51677550Y-92793677D01*
X51677550Y-92793678D01*
X51712535Y-92819096D01*
X51887841Y-92908418D01*
X52074971Y-92969221D01*
X52269295Y-93000000D01*
X52466059Y-93000000D01*
X52660382Y-92969221D01*
X52847512Y-92908418D01*
X53022820Y-92819095D01*
X53057802Y-92793678D01*
X53057803Y-92793678D01*
X52497087Y-92232962D01*
X52560670Y-92215925D01*
X52674684Y-92150099D01*
X52767776Y-92057007D01*
X52833602Y-91942993D01*
X52850639Y-91879409D01*
X53411355Y-92440126D01*
X53411355Y-92440125D01*
X53436772Y-92405143D01*
X53526095Y-92229835D01*
X53586898Y-92042705D01*
X53617677Y-91848382D01*
X53617677Y-91651617D01*
X53586898Y-91457294D01*
X53526095Y-91270164D01*
X53436773Y-91094858D01*
X53411355Y-91059873D01*
X53411354Y-91059873D01*
X52850639Y-91620589D01*
X52833602Y-91557007D01*
X52767776Y-91442993D01*
X52674684Y-91349901D01*
X52560670Y-91284075D01*
X52497086Y-91267037D01*
X53057802Y-90706320D01*
X53057802Y-90706319D01*
X53022822Y-90680905D01*
X52847512Y-90591581D01*
X52660382Y-90530778D01*
X52466059Y-90500000D01*
X52269295Y-90500000D01*
X52074971Y-90530778D01*
X51887838Y-90591582D01*
X51712540Y-90680899D01*
X51712536Y-90680902D01*
X51677550Y-90706320D01*
X51677549Y-90706320D01*
X52238267Y-91267037D01*
X52174684Y-91284075D01*
X52060670Y-91349901D01*
X51967578Y-91442993D01*
X51901752Y-91557007D01*
X51884714Y-91620590D01*
X51323997Y-91059872D01*
X51323997Y-91059873D01*
X51298579Y-91094859D01*
X51298576Y-91094863D01*
X51209259Y-91270161D01*
X51148455Y-91457294D01*
X51117677Y-91651617D01*
X48500500Y-91651617D01*
X48500500Y-71652135D01*
X63199500Y-71652135D01*
X63199500Y-72847870D01*
X63199501Y-72847876D01*
X63205908Y-72907483D01*
X63256202Y-73042328D01*
X63256206Y-73042335D01*
X63342452Y-73157544D01*
X63342455Y-73157547D01*
X63457664Y-73243793D01*
X63457669Y-73243796D01*
X63504785Y-73261369D01*
X63560719Y-73303239D01*
X63585137Y-73368703D01*
X63570286Y-73436976D01*
X63549135Y-73465232D01*
X63434023Y-73580344D01*
X63319058Y-73752403D01*
X63239870Y-73943579D01*
X63239868Y-73943587D01*
X63199500Y-74146530D01*
X63199500Y-74353469D01*
X63239868Y-74556412D01*
X63239870Y-74556420D01*
X63319058Y-74747596D01*
X63434024Y-74919657D01*
X63580342Y-75065975D01*
X63580345Y-75065977D01*
X63752402Y-75180941D01*
X63943580Y-75260130D01*
X64146530Y-75300499D01*
X64146534Y-75300500D01*
X64146535Y-75300500D01*
X64353466Y-75300500D01*
X64353467Y-75300499D01*
X64556420Y-75260130D01*
X64747598Y-75180941D01*
X64919655Y-75065977D01*
X65065977Y-74919655D01*
X65180941Y-74747598D01*
X65260130Y-74556420D01*
X65300500Y-74353465D01*
X65300500Y-74146535D01*
X65260130Y-73943580D01*
X65180941Y-73752402D01*
X65065977Y-73580345D01*
X65065976Y-73580344D01*
X65065975Y-73580342D01*
X64950865Y-73465232D01*
X64917380Y-73403909D01*
X64922364Y-73334217D01*
X64964236Y-73278284D01*
X64995208Y-73261371D01*
X65042331Y-73243796D01*
X65157546Y-73157546D01*
X65243796Y-73042331D01*
X65294091Y-72907483D01*
X65300500Y-72847873D01*
X65300499Y-71652128D01*
X65294091Y-71592517D01*
X65243796Y-71457669D01*
X65243795Y-71457668D01*
X65243793Y-71457664D01*
X65157547Y-71342455D01*
X65157544Y-71342452D01*
X65042335Y-71256206D01*
X65042328Y-71256202D01*
X64907482Y-71205908D01*
X64907483Y-71205908D01*
X64847883Y-71199501D01*
X64847881Y-71199500D01*
X64847873Y-71199500D01*
X64847864Y-71199500D01*
X63652129Y-71199500D01*
X63652123Y-71199501D01*
X63592516Y-71205908D01*
X63457671Y-71256202D01*
X63457664Y-71256206D01*
X63342455Y-71342452D01*
X63342452Y-71342455D01*
X63256206Y-71457664D01*
X63256202Y-71457671D01*
X63205908Y-71592517D01*
X63199501Y-71652116D01*
X63199501Y-71652123D01*
X63199500Y-71652135D01*
X48500500Y-71652135D01*
X48500500Y-70874000D01*
X48520185Y-70806961D01*
X48572989Y-70761206D01*
X48624500Y-70750000D01*
X75126000Y-70750000D01*
X75193039Y-70769685D01*
G37*
%TD.AperFunction*%
%TD*%
%TA.AperFunction,Conductor*%
%TO.N,GND*%
G36*
X110250000Y-65000000D02*
G01*
X110250000Y-72876000D01*
X110230315Y-72943039D01*
X110177511Y-72988794D01*
X110126000Y-73000000D01*
X106800000Y-73000000D01*
X106800000Y-78476000D01*
X106780315Y-78543039D01*
X106727511Y-78588794D01*
X106676000Y-78600000D01*
X102874000Y-78600000D01*
X102806961Y-78580315D01*
X102761206Y-78527511D01*
X102750000Y-78476000D01*
X102750000Y-70124158D01*
X102769685Y-70057119D01*
X102822489Y-70011364D01*
X102860798Y-70001711D01*
X102860709Y-70001030D01*
X102876937Y-69998893D01*
X103092238Y-69970548D01*
X103313887Y-69911158D01*
X103525888Y-69823344D01*
X103724612Y-69708611D01*
X103906661Y-69568919D01*
X103906665Y-69568914D01*
X103906670Y-69568911D01*
X104068911Y-69406670D01*
X104068914Y-69406665D01*
X104068919Y-69406661D01*
X104208611Y-69224612D01*
X104323344Y-69025888D01*
X104411158Y-68813887D01*
X104470548Y-68592238D01*
X104500500Y-68364734D01*
X104500500Y-68135266D01*
X104470548Y-67907762D01*
X104411158Y-67686113D01*
X104323344Y-67474112D01*
X104208611Y-67275388D01*
X104208608Y-67275385D01*
X104208607Y-67275382D01*
X104068918Y-67093338D01*
X104068911Y-67093330D01*
X103906670Y-66931089D01*
X103906661Y-66931081D01*
X103724617Y-66791392D01*
X103525890Y-66676657D01*
X103525876Y-66676650D01*
X103313887Y-66588842D01*
X103092238Y-66529452D01*
X102936120Y-66508898D01*
X102860709Y-66498970D01*
X102860870Y-66497740D01*
X102800273Y-66475542D01*
X102758074Y-66419855D01*
X102750000Y-66375841D01*
X102750000Y-49374000D01*
X102769685Y-49306961D01*
X102822489Y-49261206D01*
X102874000Y-49250000D01*
X110250000Y-49250000D01*
X110250000Y-65000000D01*
G37*
%TD.AperFunction*%
%TD*%
%TA.AperFunction,Conductor*%
%TO.N,GND_ISO*%
G36*
X97166743Y-137724685D02*
G01*
X97212498Y-137777489D01*
X97223704Y-137829000D01*
X97223704Y-158831000D01*
X97204019Y-158898039D01*
X97151215Y-158943794D01*
X97099704Y-158955000D01*
X73347704Y-158955000D01*
X73280665Y-158935315D01*
X73234910Y-158882511D01*
X73223704Y-158831000D01*
X73223704Y-155132525D01*
X85673204Y-155132525D01*
X85673204Y-155277475D01*
X85710720Y-155417485D01*
X85710721Y-155417488D01*
X85783192Y-155543011D01*
X85783194Y-155543013D01*
X85783195Y-155543015D01*
X85885689Y-155645509D01*
X86011219Y-155717984D01*
X86011223Y-155717985D01*
X86018564Y-155721026D01*
X86058798Y-155747908D01*
X86863031Y-156552141D01*
X86882737Y-156577822D01*
X86952322Y-156698346D01*
X87054816Y-156800840D01*
X87054817Y-156800841D01*
X87054819Y-156800842D01*
X87180342Y-156873313D01*
X87180343Y-156873313D01*
X87180346Y-156873315D01*
X87320356Y-156910831D01*
X87320359Y-156910831D01*
X87465303Y-156910831D01*
X87465306Y-156910831D01*
X87605316Y-156873315D01*
X87730846Y-156800840D01*
X87833340Y-156698346D01*
X87905815Y-156572816D01*
X87943331Y-156432806D01*
X87943331Y-156287856D01*
X87905815Y-156147846D01*
X87833340Y-156022316D01*
X87730846Y-155919822D01*
X87605316Y-155847347D01*
X87605313Y-155847346D01*
X87597952Y-155844296D01*
X87570484Y-155828539D01*
X87563732Y-155823418D01*
X87544814Y-155804500D01*
X87519570Y-155789925D01*
X87513378Y-155785229D01*
X87511100Y-155782145D01*
X87500628Y-155774110D01*
X86766612Y-155040094D01*
X86739730Y-154999860D01*
X86736689Y-154992519D01*
X86736688Y-154992515D01*
X86664213Y-154866985D01*
X86561719Y-154764491D01*
X86561717Y-154764490D01*
X86561715Y-154764488D01*
X86436192Y-154692017D01*
X86436193Y-154692017D01*
X86424710Y-154688940D01*
X86296179Y-154654500D01*
X86151229Y-154654500D01*
X86022697Y-154688940D01*
X86011215Y-154692017D01*
X85885692Y-154764488D01*
X85885686Y-154764493D01*
X85783197Y-154866982D01*
X85783192Y-154866988D01*
X85710721Y-154992511D01*
X85710720Y-154992515D01*
X85673204Y-155132525D01*
X73223704Y-155132525D01*
X73223704Y-154132525D01*
X81423204Y-154132525D01*
X81423204Y-154277475D01*
X81460720Y-154417485D01*
X81460721Y-154417488D01*
X81533192Y-154543011D01*
X81533194Y-154543013D01*
X81533195Y-154543015D01*
X81635689Y-154645509D01*
X81635690Y-154645510D01*
X81635692Y-154645511D01*
X81761215Y-154717982D01*
X81761216Y-154717982D01*
X81761219Y-154717984D01*
X81901229Y-154755500D01*
X81901232Y-154755500D01*
X82046176Y-154755500D01*
X82046179Y-154755500D01*
X82186189Y-154717984D01*
X82311719Y-154645509D01*
X82414213Y-154543015D01*
X82486688Y-154417485D01*
X82524204Y-154277475D01*
X82524204Y-154132525D01*
X82486688Y-153992515D01*
X82486687Y-153992513D01*
X82483641Y-153985159D01*
X82474204Y-153937710D01*
X82474204Y-152213675D01*
X82493889Y-152146636D01*
X82510519Y-152125998D01*
X82888609Y-151747907D01*
X82928837Y-151721029D01*
X82936182Y-151717985D01*
X82936189Y-151717984D01*
X83061719Y-151645509D01*
X83164213Y-151543015D01*
X83236688Y-151417485D01*
X83274204Y-151277475D01*
X83274204Y-151132525D01*
X83236688Y-150992515D01*
X83164213Y-150866985D01*
X83061719Y-150764491D01*
X83061717Y-150764490D01*
X83061715Y-150764488D01*
X82936192Y-150692017D01*
X82936193Y-150692017D01*
X82924710Y-150688940D01*
X82796179Y-150654500D01*
X82651229Y-150654500D01*
X82522697Y-150688940D01*
X82511215Y-150692017D01*
X82385692Y-150764488D01*
X82385686Y-150764493D01*
X82283197Y-150866982D01*
X82283193Y-150866988D01*
X82210720Y-150992515D01*
X82207672Y-150999873D01*
X82180795Y-151040093D01*
X81666390Y-151554500D01*
X81573206Y-151647683D01*
X81573204Y-151647686D01*
X81507312Y-151761812D01*
X81473204Y-151889108D01*
X81473204Y-153937710D01*
X81472229Y-153942611D01*
X81468982Y-153969790D01*
X81464778Y-153985485D01*
X81460720Y-153992515D01*
X81423204Y-154132525D01*
X73223704Y-154132525D01*
X73223704Y-145150588D01*
X81003203Y-145150588D01*
X81040498Y-145338078D01*
X81040501Y-145338088D01*
X81113655Y-145514700D01*
X81219868Y-145673660D01*
X81355043Y-145808835D01*
X81355046Y-145808837D01*
X81496094Y-145903082D01*
X81514003Y-145915048D01*
X81690615Y-145988202D01*
X81690620Y-145988204D01*
X81690624Y-145988204D01*
X81690625Y-145988205D01*
X81878115Y-146025500D01*
X81878118Y-146025500D01*
X82069292Y-146025500D01*
X82195433Y-146000408D01*
X82256788Y-145988204D01*
X82433408Y-145915046D01*
X82451314Y-145903081D01*
X82517990Y-145882204D01*
X82585370Y-145900688D01*
X82632061Y-145952667D01*
X82644204Y-146006184D01*
X82644204Y-146275323D01*
X82624519Y-146342362D01*
X82607885Y-146363004D01*
X82308797Y-146662091D01*
X82268577Y-146688968D01*
X82261219Y-146692016D01*
X82135692Y-146764489D01*
X82135686Y-146764493D01*
X82033197Y-146866982D01*
X82033192Y-146866988D01*
X81960721Y-146992511D01*
X81960720Y-146992515D01*
X81923204Y-147132525D01*
X81923204Y-147277475D01*
X81947970Y-147369902D01*
X81960721Y-147417488D01*
X82033192Y-147543011D01*
X82033194Y-147543013D01*
X82033195Y-147543015D01*
X82135689Y-147645509D01*
X82135690Y-147645510D01*
X82135692Y-147645511D01*
X82261215Y-147717982D01*
X82261216Y-147717982D01*
X82261219Y-147717984D01*
X82401229Y-147755500D01*
X82401232Y-147755500D01*
X82546176Y-147755500D01*
X82546179Y-147755500D01*
X82686189Y-147717984D01*
X82811719Y-147645509D01*
X82914213Y-147543015D01*
X82986688Y-147417485D01*
X82986689Y-147417478D01*
X82989733Y-147410133D01*
X83016612Y-147369904D01*
X83441808Y-146944707D01*
X83441813Y-146944704D01*
X83452016Y-146934500D01*
X83452018Y-146934500D01*
X83545204Y-146841314D01*
X83611096Y-146727186D01*
X83645204Y-146599892D01*
X83645204Y-145150588D01*
X88503203Y-145150588D01*
X88540498Y-145338078D01*
X88540501Y-145338088D01*
X88613655Y-145514700D01*
X88719868Y-145673660D01*
X88855043Y-145808835D01*
X88855046Y-145808837D01*
X88996094Y-145903082D01*
X89014003Y-145915048D01*
X89190615Y-145988202D01*
X89190620Y-145988204D01*
X89190624Y-145988204D01*
X89190625Y-145988205D01*
X89378115Y-146025500D01*
X89378118Y-146025500D01*
X89569292Y-146025500D01*
X89695433Y-146000408D01*
X89756788Y-145988204D01*
X89845098Y-145951625D01*
X89933404Y-145915048D01*
X89933405Y-145915047D01*
X89933408Y-145915046D01*
X90092362Y-145808837D01*
X90227541Y-145673658D01*
X90333750Y-145514704D01*
X90406908Y-145338084D01*
X90444204Y-145150586D01*
X90444204Y-144959414D01*
X90444204Y-144959411D01*
X90406909Y-144771921D01*
X90406908Y-144771920D01*
X90406908Y-144771916D01*
X90406906Y-144771911D01*
X90333752Y-144595299D01*
X90227539Y-144436339D01*
X90092364Y-144301164D01*
X89933404Y-144194951D01*
X89756792Y-144121797D01*
X89756782Y-144121794D01*
X89569292Y-144084500D01*
X89569290Y-144084500D01*
X89378118Y-144084500D01*
X89378116Y-144084500D01*
X89190625Y-144121794D01*
X89190615Y-144121797D01*
X89014003Y-144194951D01*
X88855043Y-144301164D01*
X88719868Y-144436339D01*
X88613655Y-144595299D01*
X88540501Y-144771911D01*
X88540498Y-144771921D01*
X88503204Y-144959411D01*
X88503204Y-144959414D01*
X88503204Y-145150586D01*
X88503204Y-145150588D01*
X88503203Y-145150588D01*
X83645204Y-145150588D01*
X83645204Y-143318358D01*
X83664889Y-143251319D01*
X83717693Y-143205564D01*
X83786851Y-143195620D01*
X83850407Y-143224645D01*
X83856885Y-143230677D01*
X83895043Y-143268835D01*
X84054003Y-143375048D01*
X84229456Y-143447722D01*
X84230620Y-143448204D01*
X84230624Y-143448204D01*
X84230625Y-143448205D01*
X84418115Y-143485500D01*
X84418118Y-143485500D01*
X84609292Y-143485500D01*
X84735433Y-143460408D01*
X84796788Y-143448204D01*
X84885098Y-143411625D01*
X84973404Y-143375048D01*
X84973405Y-143375047D01*
X84973408Y-143375046D01*
X85132362Y-143268837D01*
X85267541Y-143133658D01*
X85373750Y-142974704D01*
X85373851Y-142974462D01*
X85446906Y-142798088D01*
X85446908Y-142798084D01*
X85472506Y-142669394D01*
X85484204Y-142610588D01*
X85963203Y-142610588D01*
X86000498Y-142798078D01*
X86000501Y-142798088D01*
X86073655Y-142974700D01*
X86179868Y-143133660D01*
X86315043Y-143268835D01*
X86474003Y-143375048D01*
X86649456Y-143447722D01*
X86650620Y-143448204D01*
X86650624Y-143448204D01*
X86650625Y-143448205D01*
X86838115Y-143485500D01*
X86838118Y-143485500D01*
X87029292Y-143485500D01*
X87155433Y-143460408D01*
X87216788Y-143448204D01*
X87305098Y-143411625D01*
X87393404Y-143375048D01*
X87393405Y-143375047D01*
X87393408Y-143375046D01*
X87552362Y-143268837D01*
X87687541Y-143133658D01*
X87793750Y-142974704D01*
X87793851Y-142974462D01*
X87866906Y-142798088D01*
X87866908Y-142798084D01*
X87892506Y-142669394D01*
X87904204Y-142610588D01*
X91043203Y-142610588D01*
X91080498Y-142798078D01*
X91080501Y-142798088D01*
X91153655Y-142974700D01*
X91259868Y-143133660D01*
X91395043Y-143268835D01*
X91554003Y-143375048D01*
X91729456Y-143447722D01*
X91730620Y-143448204D01*
X91730624Y-143448204D01*
X91730625Y-143448205D01*
X91918115Y-143485500D01*
X91918118Y-143485500D01*
X92109292Y-143485500D01*
X92235433Y-143460408D01*
X92296788Y-143448204D01*
X92385098Y-143411625D01*
X92473404Y-143375048D01*
X92473405Y-143375047D01*
X92473408Y-143375046D01*
X92632362Y-143268837D01*
X92767541Y-143133658D01*
X92873750Y-142974704D01*
X92873851Y-142974462D01*
X92946906Y-142798088D01*
X92946908Y-142798084D01*
X92972506Y-142669394D01*
X92984204Y-142610588D01*
X92984204Y-142419411D01*
X92946909Y-142231921D01*
X92946908Y-142231920D01*
X92946908Y-142231916D01*
X92931584Y-142194920D01*
X92873752Y-142055299D01*
X92767539Y-141896339D01*
X92632364Y-141761164D01*
X92473404Y-141654951D01*
X92296792Y-141581797D01*
X92296782Y-141581794D01*
X92109292Y-141544500D01*
X92109290Y-141544500D01*
X91918118Y-141544500D01*
X91918116Y-141544500D01*
X91730625Y-141581794D01*
X91730615Y-141581797D01*
X91554003Y-141654951D01*
X91395043Y-141761164D01*
X91259868Y-141896339D01*
X91153655Y-142055299D01*
X91080501Y-142231911D01*
X91080498Y-142231921D01*
X91043204Y-142419411D01*
X91043204Y-142419414D01*
X91043204Y-142610586D01*
X91043204Y-142610588D01*
X91043203Y-142610588D01*
X87904204Y-142610588D01*
X87904204Y-142419411D01*
X87866909Y-142231921D01*
X87866908Y-142231920D01*
X87866908Y-142231916D01*
X87851584Y-142194920D01*
X87793752Y-142055299D01*
X87687539Y-141896339D01*
X87552364Y-141761164D01*
X87393404Y-141654951D01*
X87216792Y-141581797D01*
X87216782Y-141581794D01*
X87029292Y-141544500D01*
X87029290Y-141544500D01*
X86838118Y-141544500D01*
X86838116Y-141544500D01*
X86650625Y-141581794D01*
X86650615Y-141581797D01*
X86474003Y-141654951D01*
X86315043Y-141761164D01*
X86179868Y-141896339D01*
X86073655Y-142055299D01*
X86000501Y-142231911D01*
X86000498Y-142231921D01*
X85963204Y-142419411D01*
X85963204Y-142419414D01*
X85963204Y-142610586D01*
X85963204Y-142610588D01*
X85963203Y-142610588D01*
X85484204Y-142610588D01*
X85484204Y-142419411D01*
X85446909Y-142231921D01*
X85446908Y-142231920D01*
X85446908Y-142231916D01*
X85431584Y-142194920D01*
X85373752Y-142055299D01*
X85267539Y-141896339D01*
X85132364Y-141761164D01*
X84973404Y-141654951D01*
X84796792Y-141581797D01*
X84796782Y-141581794D01*
X84609292Y-141544500D01*
X84609290Y-141544500D01*
X84418118Y-141544500D01*
X84418116Y-141544500D01*
X84230625Y-141581794D01*
X84230615Y-141581797D01*
X84054003Y-141654951D01*
X83895043Y-141761164D01*
X83759868Y-141896339D01*
X83653655Y-142055299D01*
X83580501Y-142231911D01*
X83580498Y-142231921D01*
X83543204Y-142419411D01*
X83543204Y-142517324D01*
X83523519Y-142584363D01*
X83470715Y-142630118D01*
X83401557Y-142640062D01*
X83338001Y-142611037D01*
X83331523Y-142605005D01*
X83188857Y-142462339D01*
X83016610Y-142290092D01*
X83011977Y-142283157D01*
X83007734Y-142280211D01*
X82989728Y-142249856D01*
X82983639Y-142235152D01*
X82974204Y-142187710D01*
X82974204Y-140472288D01*
X82983645Y-140424831D01*
X82986686Y-140417488D01*
X82986685Y-140417488D01*
X82986688Y-140417485D01*
X83024204Y-140277475D01*
X83024204Y-140132525D01*
X82986688Y-139992515D01*
X82914213Y-139866985D01*
X82811719Y-139764491D01*
X82811717Y-139764490D01*
X82811715Y-139764488D01*
X82686192Y-139692017D01*
X82686193Y-139692017D01*
X82674710Y-139688940D01*
X82546179Y-139654500D01*
X82401229Y-139654500D01*
X82272697Y-139688940D01*
X82261215Y-139692017D01*
X82135692Y-139764488D01*
X82135686Y-139764493D01*
X82033197Y-139866982D01*
X82033192Y-139866988D01*
X81960721Y-139992511D01*
X81960720Y-139992515D01*
X81923204Y-140132525D01*
X81923204Y-140277475D01*
X81960720Y-140417485D01*
X81960721Y-140417488D01*
X81963763Y-140424831D01*
X81973204Y-140472288D01*
X81973204Y-142187710D01*
X81963767Y-142235159D01*
X81960720Y-142242513D01*
X81950619Y-142280211D01*
X81923204Y-142382525D01*
X81923204Y-142527475D01*
X81953372Y-142640062D01*
X81960721Y-142667488D01*
X82033192Y-142793011D01*
X82033194Y-142793013D01*
X82033195Y-142793015D01*
X82135689Y-142895509D01*
X82261219Y-142967984D01*
X82261224Y-142967985D01*
X82268563Y-142971025D01*
X82308796Y-142997906D01*
X82506511Y-143195620D01*
X82607885Y-143296994D01*
X82641370Y-143358317D01*
X82644204Y-143384675D01*
X82644204Y-144103815D01*
X82624519Y-144170854D01*
X82571715Y-144216609D01*
X82502557Y-144226553D01*
X82451316Y-144206919D01*
X82433406Y-144194952D01*
X82256792Y-144121797D01*
X82256782Y-144121794D01*
X82069292Y-144084500D01*
X82069290Y-144084500D01*
X81878118Y-144084500D01*
X81878116Y-144084500D01*
X81690625Y-144121794D01*
X81690615Y-144121797D01*
X81514003Y-144194951D01*
X81355043Y-144301164D01*
X81219868Y-144436339D01*
X81113655Y-144595299D01*
X81040501Y-144771911D01*
X81040498Y-144771921D01*
X81003204Y-144959411D01*
X81003204Y-144959414D01*
X81003204Y-145150586D01*
X81003204Y-145150588D01*
X81003203Y-145150588D01*
X73223704Y-145150588D01*
X73223704Y-142610539D01*
X78463703Y-142610539D01*
X78500979Y-142797932D01*
X78500981Y-142797938D01*
X78574100Y-142974462D01*
X78574107Y-142974475D01*
X78592758Y-143002389D01*
X78592759Y-143002390D01*
X79033704Y-142561445D01*
X79033704Y-142567661D01*
X79060963Y-142669394D01*
X79113624Y-142760606D01*
X79188098Y-142835080D01*
X79279310Y-142887741D01*
X79381043Y-142915000D01*
X79387257Y-142915000D01*
X78946312Y-143355943D01*
X78974238Y-143374602D01*
X79150765Y-143447722D01*
X79150771Y-143447724D01*
X79338164Y-143485000D01*
X79529243Y-143485000D01*
X79716636Y-143447724D01*
X79716642Y-143447722D01*
X79893169Y-143374602D01*
X79893175Y-143374599D01*
X79921094Y-143355944D01*
X79921094Y-143355943D01*
X79480152Y-142915000D01*
X79486365Y-142915000D01*
X79588098Y-142887741D01*
X79679310Y-142835080D01*
X79753784Y-142760606D01*
X79806445Y-142669394D01*
X79833704Y-142567661D01*
X79833704Y-142561447D01*
X80274647Y-143002390D01*
X80274648Y-143002390D01*
X80293303Y-142974471D01*
X80293306Y-142974465D01*
X80366426Y-142797938D01*
X80366428Y-142797932D01*
X80403704Y-142610539D01*
X80403704Y-142419460D01*
X80366428Y-142232067D01*
X80366426Y-142232061D01*
X80293306Y-142055534D01*
X80274647Y-142027609D01*
X80274647Y-142027608D01*
X79833704Y-142468551D01*
X79833704Y-142462339D01*
X79806445Y-142360606D01*
X79753784Y-142269394D01*
X79679310Y-142194920D01*
X79588098Y-142142259D01*
X79486365Y-142115000D01*
X79480151Y-142115000D01*
X79921094Y-141674055D01*
X79921093Y-141674054D01*
X79893179Y-141655403D01*
X79893166Y-141655396D01*
X79716642Y-141582277D01*
X79716636Y-141582275D01*
X79529243Y-141545000D01*
X79338165Y-141545000D01*
X79150771Y-141582275D01*
X79150765Y-141582277D01*
X78974236Y-141655398D01*
X78946313Y-141674054D01*
X78946313Y-141674055D01*
X79387258Y-142115000D01*
X79381043Y-142115000D01*
X79279310Y-142142259D01*
X79188098Y-142194920D01*
X79113624Y-142269394D01*
X79060963Y-142360606D01*
X79033704Y-142462339D01*
X79033704Y-142468554D01*
X78592759Y-142027609D01*
X78592758Y-142027609D01*
X78574102Y-142055532D01*
X78500981Y-142232061D01*
X78500979Y-142232067D01*
X78463704Y-142419460D01*
X78463704Y-142610539D01*
X78463703Y-142610539D01*
X73223704Y-142610539D01*
X73223704Y-137829000D01*
X73243389Y-137761961D01*
X73296193Y-137716206D01*
X73347704Y-137705000D01*
X97099704Y-137705000D01*
X97166743Y-137724685D01*
G37*
%TD.AperFunction*%
%TD*%
%TA.AperFunction,Conductor*%
%TO.N,GND*%
G36*
X142504897Y-102995589D02*
G01*
X139750000Y-105474998D01*
X139750000Y-121995796D01*
X139730315Y-122062835D01*
X139720148Y-122076494D01*
X136748874Y-125542977D01*
X109250000Y-125757813D01*
X109250000Y-110500000D01*
X132500000Y-110500000D01*
X132500000Y-99750000D01*
X142536408Y-99750000D01*
X142504897Y-102995589D01*
G37*
%TD.AperFunction*%
%TD*%
%TA.AperFunction,Conductor*%
%TO.N,GND*%
G36*
X153442539Y-49269685D02*
G01*
X153488294Y-49322489D01*
X153499500Y-49374000D01*
X153499500Y-63750000D01*
X144500000Y-63750000D01*
X144500000Y-71860464D01*
X132500000Y-72000000D01*
X126750000Y-72000000D01*
X126750000Y-78626000D01*
X126730315Y-78693039D01*
X126677511Y-78738794D01*
X126626000Y-78750000D01*
X123124000Y-78750000D01*
X123056961Y-78730315D01*
X123011206Y-78677511D01*
X123000000Y-78626000D01*
X123000000Y-71301362D01*
X123008644Y-71271921D01*
X123015168Y-71241935D01*
X123018922Y-71236919D01*
X123019685Y-71234323D01*
X123036319Y-71213681D01*
X123167691Y-71082309D01*
X123750500Y-70499500D01*
X124750000Y-69500000D01*
X124750000Y-68000000D01*
X121750000Y-65000000D01*
X110250000Y-65000000D01*
X110250000Y-49250000D01*
X153375500Y-49250000D01*
X153442539Y-49269685D01*
G37*
%TD.AperFunction*%
%TD*%
%TA.AperFunction,Conductor*%
%TO.N,GND*%
G36*
X153499500Y-65402028D02*
G01*
X153479815Y-65469067D01*
X153427011Y-65514822D01*
X153357853Y-65524766D01*
X153309528Y-65507022D01*
X153051786Y-65345072D01*
X152768395Y-65208598D01*
X152471501Y-65104711D01*
X152471499Y-65104710D01*
X152164843Y-65034718D01*
X152164827Y-65034716D01*
X151852277Y-64999500D01*
X151852273Y-64999500D01*
X151537727Y-64999500D01*
X151537722Y-64999500D01*
X151225172Y-65034716D01*
X151225156Y-65034718D01*
X150918500Y-65104710D01*
X150918498Y-65104711D01*
X150621603Y-65208598D01*
X150621599Y-65208600D01*
X150478801Y-65277368D01*
X150409860Y-65288720D01*
X150371199Y-65277368D01*
X150228400Y-65208600D01*
X150228396Y-65208598D01*
X149931501Y-65104711D01*
X149931499Y-65104710D01*
X149624843Y-65034718D01*
X149624827Y-65034716D01*
X149312277Y-64999500D01*
X149312273Y-64999500D01*
X148997727Y-64999500D01*
X148997722Y-64999500D01*
X148685172Y-65034716D01*
X148685156Y-65034718D01*
X148378500Y-65104710D01*
X148378498Y-65104711D01*
X148081604Y-65208598D01*
X147798213Y-65345072D01*
X147531878Y-65512422D01*
X147285956Y-65708538D01*
X147063538Y-65930956D01*
X146867422Y-66176878D01*
X146700072Y-66443213D01*
X146563598Y-66726604D01*
X146459711Y-67023498D01*
X146459710Y-67023500D01*
X146389718Y-67330156D01*
X146389716Y-67330172D01*
X146354500Y-67642722D01*
X146354500Y-67957277D01*
X146389716Y-68269827D01*
X146389718Y-68269843D01*
X146459710Y-68576499D01*
X146459711Y-68576501D01*
X146563598Y-68873395D01*
X146700072Y-69156786D01*
X146700074Y-69156789D01*
X146867423Y-69423123D01*
X147013733Y-69606589D01*
X147063538Y-69669043D01*
X147132833Y-69738338D01*
X147166318Y-69799661D01*
X147161334Y-69869353D01*
X147150146Y-69891990D01*
X147058056Y-70038552D01*
X147058055Y-70038553D01*
X146936200Y-70291588D01*
X146843443Y-70556670D01*
X146843439Y-70556682D01*
X146780945Y-70830487D01*
X146780942Y-70830505D01*
X146749500Y-71109568D01*
X146749500Y-71390431D01*
X146780942Y-71669494D01*
X146780945Y-71669512D01*
X146843439Y-71943317D01*
X146843443Y-71943329D01*
X146936200Y-72208411D01*
X147058053Y-72461442D01*
X147058055Y-72461445D01*
X147207477Y-72699248D01*
X147247950Y-72750000D01*
X144500000Y-72750000D01*
X144500000Y-63750000D01*
X153499500Y-63750000D01*
X153499500Y-65402028D01*
G37*
%TD.AperFunction*%
%TA.AperFunction,Conductor*%
G36*
X153443600Y-70094345D02*
G01*
X153488814Y-70147612D01*
X153499500Y-70197971D01*
X153499500Y-72750000D01*
X151252050Y-72750000D01*
X151292523Y-72699248D01*
X151441945Y-72461445D01*
X151563801Y-72208408D01*
X151656560Y-71943318D01*
X151719055Y-71669509D01*
X151750500Y-71390425D01*
X151750500Y-71109575D01*
X151719055Y-70830491D01*
X151701161Y-70752092D01*
X151705434Y-70682354D01*
X151746733Y-70625996D01*
X151811945Y-70600913D01*
X151822052Y-70600500D01*
X151852276Y-70600500D01*
X151852276Y-70600499D01*
X152164840Y-70565282D01*
X152471500Y-70495289D01*
X152768394Y-70391402D01*
X153051789Y-70254926D01*
X153309529Y-70092976D01*
X153376765Y-70073977D01*
X153443600Y-70094345D01*
G37*
%TD.AperFunction*%
%TD*%
M02*
