M48
; DRILL file {KiCad 9.0.3+dfsg-1} date 2026-02-25T02:28:06-0500
; FORMAT={-:-/ absolute / metric / decimal}
; #@! TF.CreationDate,2026-02-25T02:28:06-05:00
; #@! TF.GenerationSoftware,Kicad,Pcbnew,9.0.3+dfsg-1
; #@! TF.FileFunction,Plated,1,2,PTH
FMAT,2
METRIC
; #@! TA.AperFunction,Plated,PTH,ViaDrill
T1C0.300
; #@! TA.AperFunction,Plated,PTH,ComponentDrill
T2C0.500
; #@! TA.AperFunction,Plated,PTH,ComponentDrill
T3C0.600
; #@! TA.AperFunction,Plated,PTH,ComponentDrill
T4C0.700
; #@! TA.AperFunction,Plated,PTH,ComponentDrill
T5C0.800
; #@! TA.AperFunction,Plated,PTH,ComponentDrill
T6C1.000
; #@! TA.AperFunction,Plated,PTH,ComponentDrill
T7C1.010
; #@! TA.AperFunction,Plated,PTH,ComponentDrill
T8C1.020
; #@! TA.AperFunction,Plated,PTH,ComponentDrill
T9C1.100
; #@! TA.AperFunction,Plated,PTH,ComponentDrill
T10C1.190
; #@! TA.AperFunction,Plated,PTH,ComponentDrill
T11C1.200
; #@! TA.AperFunction,Plated,PTH,ComponentDrill
T12C1.397
; #@! TA.AperFunction,Plated,PTH,ComponentDrill
T13C1.500
; #@! TA.AperFunction,Plated,PTH,ComponentDrill
T14C1.600
; #@! TA.AperFunction,Plated,PTH,ComponentDrill
T15C2.000
; #@! TA.AperFunction,Plated,PTH,ComponentDrill
T16C3.200
%
G90
G05
T1
X49.75Y-67.605
X51.0Y-67.605
X52.25Y-67.605
X53.0Y-102.25
X53.484Y-67.605
X60.5Y-74.5
X64.5Y-82.25
X65.45Y-86.5
X66.54Y-163.69
X67.5Y-166.33
X74.6Y-139.8
X74.825Y-157.005
X74.875Y-146.205
X75.019Y-129.441
X76.737Y-153.705
X76.75Y-86.625
X76.75Y-88.537
X78.906Y-110.491
X78.906Y-111.441
X79.749Y-147.8
X80.519Y-107.441
X81.075Y-153.93
X81.974Y-154.205
X82.144Y-112.141
X82.474Y-140.205
X82.474Y-142.455
X82.474Y-147.205
X82.724Y-151.205
X83.775Y-153.93
X85.0Y-126.441
X86.224Y-155.205
X87.269Y-117.191
X87.393Y-156.36
X87.85Y-151.61
X89.019Y-110.246
X89.019Y-114.056
X89.5Y-93.75
X90.5Y-117.0
X90.75Y-95.5
X92.0Y-81.0
X92.25Y-89.03
X92.569Y-126.441
X92.569Y-130.369
X92.775Y-153.955
X92.975Y-84.665
X92.975Y-85.935
X94.469Y-123.941
X94.469Y-126.441
X96.286Y-149.755
X96.665Y-95.415
X96.8Y-82.525
X97.0Y-93.25
X97.401Y-99.399
X97.662Y-91.53
X97.75Y-81.25
X98.269Y-124.191
X98.5Y-88.5
X98.75Y-81.5
X100.2Y-103.0
X100.25Y-90.75
X100.5Y-89.0
X103.837Y-89.78
X109.5Y-89.75
X111.792Y-89.75
X112.975Y-84.665
X112.975Y-85.935
X113.75Y-88.5
X113.75Y-91.0
X115.55Y-82.388
X116.5Y-83.5
X117.5Y-81.5
X118.75Y-92.0
X120.5Y-94.5
X122.0Y-89.75
X122.0Y-95.0
X133.0Y-84.78
X133.0Y-86.05
X149.05Y-89.2
T2
X50.1Y-33.5
X50.1Y-168.5
X50.803Y-31.803
X50.803Y-35.197
X50.803Y-166.803
X50.803Y-170.197
X52.5Y-31.1
X52.5Y-35.9
X52.5Y-166.1
X52.5Y-170.9
X54.197Y-31.803
X54.197Y-35.197
X54.197Y-166.803
X54.197Y-170.197
X54.9Y-33.5
X54.9Y-168.5
X68.85Y-77.0
X68.85Y-169.0
X69.553Y-75.303
X69.553Y-78.697
X69.553Y-167.303
X69.553Y-170.697
X71.25Y-74.6
X71.25Y-79.4
X71.25Y-166.6
X71.25Y-171.4
X72.947Y-75.303
X72.947Y-78.697
X72.947Y-167.303
X72.947Y-170.697
X73.65Y-77.0
X73.65Y-169.0
X137.1Y-77.0
X137.1Y-169.0
X137.803Y-75.303
X137.803Y-78.697
X137.803Y-167.303
X137.803Y-170.697
X139.5Y-74.6
X139.5Y-79.4
X139.5Y-166.6
X139.5Y-171.4
X141.197Y-75.303
X141.197Y-78.697
X141.197Y-167.303
X141.197Y-170.697
X141.9Y-77.0
X141.9Y-169.0
X147.1Y-33.5
X147.1Y-168.5
X147.803Y-31.803
X147.803Y-35.197
X147.803Y-166.803
X147.803Y-170.197
X149.5Y-31.1
X149.5Y-35.9
X149.5Y-166.1
X149.5Y-170.9
X151.197Y-31.803
X151.197Y-35.197
X151.197Y-166.803
X151.197Y-170.197
X151.9Y-33.5
X151.9Y-168.5
T3
X149.25Y-71.25
X149.25Y-74.25
T4
X51.142Y-99.132
X53.682Y-99.132
X56.222Y-99.132
X58.762Y-99.132
T5
X64.25Y-72.25
X64.25Y-74.25
X74.579Y-115.401
X74.579Y-120.481
X77.119Y-117.941
X79.434Y-142.515
X81.974Y-145.055
X82.579Y-115.401
X82.579Y-120.481
X84.514Y-142.515
X85.119Y-117.941
X86.934Y-142.515
X89.474Y-145.055
X92.014Y-142.515
X99.979Y-110.401
X99.979Y-117.901
X100.035Y-138.796
X100.035Y-146.416
X102.519Y-107.861
X102.519Y-112.941
X102.519Y-115.361
X102.519Y-120.441
X102.575Y-138.796
X102.575Y-146.416
X105.115Y-138.796
X105.115Y-146.416
X149.155Y-67.8
X151.695Y-67.8
T6
X52.368Y-91.75
X54.46Y-124.5
X57.0Y-124.5
X57.368Y-91.75
X59.46Y-166.75
X59.46Y-169.29
X59.54Y-124.5
X62.0Y-166.75
X62.0Y-169.29
X64.54Y-166.75
X64.54Y-169.29
T8
X150.0Y-77.86
X150.0Y-80.4
X150.0Y-82.94
X150.0Y-85.48
T9
X65.2Y-91.96
X65.2Y-94.5
X65.2Y-97.04
X112.02Y-162.21
X112.02Y-164.75
X112.02Y-167.29
T10
X57.0Y-111.235
X57.0Y-113.775
T11
X53.25Y-41.0
X53.25Y-63.5
X63.0Y-32.0
X63.0Y-54.5
X148.75Y-40.75
X148.75Y-63.25
T12
X54.46Y-134.5
X59.54Y-134.5
X63.0Y-62.46
X63.0Y-67.54
X114.46Y-68.75
X119.54Y-68.75
X148.96Y-111.71
X148.96Y-116.79
X149.0Y-99.5
X149.0Y-104.58
T13
X80.42Y-76.14
X85.5Y-76.14
X88.04Y-76.14
X90.58Y-76.14
X100.42Y-76.14
X105.5Y-76.14
X108.04Y-76.14
X110.58Y-76.14
X120.42Y-76.14
X125.5Y-76.14
X128.04Y-76.14
X130.58Y-76.14
T14
X72.75Y-33.25
X72.75Y-68.25
X77.75Y-33.25
X77.75Y-68.25
X82.75Y-33.25
X82.75Y-68.25
X92.75Y-68.25
X97.75Y-33.25
X97.75Y-68.25
X102.75Y-33.25
X102.75Y-68.25
T15
X125.75Y-42.75
X125.75Y-52.75
X149.0Y-125.4
X149.0Y-133.0
X149.0Y-152.5
X149.0Y-160.1
T16
X52.5Y-33.5
X52.5Y-168.5
X71.25Y-77.0
X71.25Y-169.0
X139.5Y-77.0
X139.5Y-169.0
X149.5Y-33.5
X149.5Y-168.5
T7
G00X116.4Y-136.875
M15
G01X116.4Y-130.525
M16
G05
G00X121.075Y-150.3
M15
G01X114.725Y-150.3
M16
G05
G00X134.5Y-136.875
M15
G01X134.5Y-130.525
M16
G05
G00X134.5Y-151.175
M15
G01X134.5Y-144.825
M16
G05
M30
