%TF.GenerationSoftware,KiCad,Pcbnew,9.0.3+dfsg-1*%
%TF.CreationDate,2026-02-25T02:28:09-05:00*%
%TF.ProjectId,ClassECoil,436c6173-7345-4436-9f69-6c2e6b696361,rev?*%
%TF.SameCoordinates,Original*%
%TF.FileFunction,Legend,Bot*%
%TF.FilePolarity,Positive*%
%FSLAX46Y46*%
G04 Gerber Fmt 4.6, Leading zero omitted, Abs format (unit mm)*
G04 Created by KiCad (PCBNEW 9.0.3+dfsg-1) date 2026-02-25 02:28:09*
%MOMM*%
%LPD*%
G01*
G04 APERTURE LIST*
%ADD10C,0.100000*%
%ADD11C,0.150000*%
%ADD12C,0.120000*%
G04 APERTURE END LIST*
D10*
X99250000Y-127750000D02*
X99250000Y-121250000D01*
X73250000Y-137750000D02*
X99000000Y-137750000D01*
X99000000Y-159000000D01*
X73250000Y-159000000D01*
X73250000Y-137750000D01*
X95000000Y-122500000D02*
X84000000Y-122500000D01*
X84000000Y-127750000D02*
X99250000Y-127750000D01*
X86125000Y-159000000D02*
X86125000Y-161000000D01*
X86250000Y-129250000D02*
X97250000Y-129250000D01*
X97250000Y-133000000D01*
X86250000Y-133000000D01*
X86250000Y-129250000D01*
X84000000Y-122500000D02*
X84000000Y-127750000D01*
X91625000Y-127750000D02*
X91750000Y-129250000D01*
X95000000Y-121250000D02*
X95000000Y-122500000D01*
X78750000Y-161000000D02*
X93500000Y-161000000D01*
X93500000Y-171750000D01*
X78750000Y-171750000D01*
X78750000Y-161000000D01*
X99250000Y-121250000D02*
X95000000Y-121250000D01*
X107098609Y-109137217D02*
X107098609Y-108803884D01*
X107622419Y-108803884D02*
X106622419Y-108803884D01*
X106622419Y-108803884D02*
X106622419Y-109280074D01*
X107622419Y-109661027D02*
X106622419Y-109661027D01*
X106622419Y-109661027D02*
X107336704Y-109994360D01*
X107336704Y-109994360D02*
X106622419Y-110327693D01*
X106622419Y-110327693D02*
X107622419Y-110327693D01*
X107336704Y-110756265D02*
X107336704Y-111232455D01*
X107622419Y-110661027D02*
X106622419Y-110994360D01*
X106622419Y-110994360D02*
X107622419Y-111327693D01*
X106622419Y-111565789D02*
X107622419Y-112232455D01*
X106622419Y-112232455D02*
X107622419Y-111565789D01*
X75362782Y-122348609D02*
X75219925Y-122396228D01*
X75219925Y-122396228D02*
X75172306Y-122443847D01*
X75172306Y-122443847D02*
X75124687Y-122539085D01*
X75124687Y-122539085D02*
X75124687Y-122681942D01*
X75124687Y-122681942D02*
X75172306Y-122777180D01*
X75172306Y-122777180D02*
X75219925Y-122824800D01*
X75219925Y-122824800D02*
X75315163Y-122872419D01*
X75315163Y-122872419D02*
X75696115Y-122872419D01*
X75696115Y-122872419D02*
X75696115Y-121872419D01*
X75696115Y-121872419D02*
X75362782Y-121872419D01*
X75362782Y-121872419D02*
X75267544Y-121920038D01*
X75267544Y-121920038D02*
X75219925Y-121967657D01*
X75219925Y-121967657D02*
X75172306Y-122062895D01*
X75172306Y-122062895D02*
X75172306Y-122158133D01*
X75172306Y-122158133D02*
X75219925Y-122253371D01*
X75219925Y-122253371D02*
X75267544Y-122300990D01*
X75267544Y-122300990D02*
X75362782Y-122348609D01*
X75362782Y-122348609D02*
X75696115Y-122348609D01*
X74696115Y-121872419D02*
X74696115Y-122681942D01*
X74696115Y-122681942D02*
X74648496Y-122777180D01*
X74648496Y-122777180D02*
X74600877Y-122824800D01*
X74600877Y-122824800D02*
X74505639Y-122872419D01*
X74505639Y-122872419D02*
X74315163Y-122872419D01*
X74315163Y-122872419D02*
X74219925Y-122824800D01*
X74219925Y-122824800D02*
X74172306Y-122777180D01*
X74172306Y-122777180D02*
X74124687Y-122681942D01*
X74124687Y-122681942D02*
X74124687Y-121872419D01*
X73696115Y-122824800D02*
X73553258Y-122872419D01*
X73553258Y-122872419D02*
X73315163Y-122872419D01*
X73315163Y-122872419D02*
X73219925Y-122824800D01*
X73219925Y-122824800D02*
X73172306Y-122777180D01*
X73172306Y-122777180D02*
X73124687Y-122681942D01*
X73124687Y-122681942D02*
X73124687Y-122586704D01*
X73124687Y-122586704D02*
X73172306Y-122491466D01*
X73172306Y-122491466D02*
X73219925Y-122443847D01*
X73219925Y-122443847D02*
X73315163Y-122396228D01*
X73315163Y-122396228D02*
X73505639Y-122348609D01*
X73505639Y-122348609D02*
X73600877Y-122300990D01*
X73600877Y-122300990D02*
X73648496Y-122253371D01*
X73648496Y-122253371D02*
X73696115Y-122158133D01*
X73696115Y-122158133D02*
X73696115Y-122062895D01*
X73696115Y-122062895D02*
X73648496Y-121967657D01*
X73648496Y-121967657D02*
X73600877Y-121920038D01*
X73600877Y-121920038D02*
X73505639Y-121872419D01*
X73505639Y-121872419D02*
X73267544Y-121872419D01*
X73267544Y-121872419D02*
X73124687Y-121920038D01*
X71934210Y-121872419D02*
X71934210Y-122681942D01*
X71934210Y-122681942D02*
X71886591Y-122777180D01*
X71886591Y-122777180D02*
X71838972Y-122824800D01*
X71838972Y-122824800D02*
X71743734Y-122872419D01*
X71743734Y-122872419D02*
X71553258Y-122872419D01*
X71553258Y-122872419D02*
X71458020Y-122824800D01*
X71458020Y-122824800D02*
X71410401Y-122777180D01*
X71410401Y-122777180D02*
X71362782Y-122681942D01*
X71362782Y-122681942D02*
X71362782Y-121872419D01*
X71029448Y-121872419D02*
X70696115Y-122872419D01*
X70696115Y-122872419D02*
X70362782Y-121872419D01*
X94348609Y-141637217D02*
X94396228Y-141780074D01*
X94396228Y-141780074D02*
X94443847Y-141827693D01*
X94443847Y-141827693D02*
X94539085Y-141875312D01*
X94539085Y-141875312D02*
X94681942Y-141875312D01*
X94681942Y-141875312D02*
X94777180Y-141827693D01*
X94777180Y-141827693D02*
X94824800Y-141780074D01*
X94824800Y-141780074D02*
X94872419Y-141684836D01*
X94872419Y-141684836D02*
X94872419Y-141303884D01*
X94872419Y-141303884D02*
X93872419Y-141303884D01*
X93872419Y-141303884D02*
X93872419Y-141637217D01*
X93872419Y-141637217D02*
X93920038Y-141732455D01*
X93920038Y-141732455D02*
X93967657Y-141780074D01*
X93967657Y-141780074D02*
X94062895Y-141827693D01*
X94062895Y-141827693D02*
X94158133Y-141827693D01*
X94158133Y-141827693D02*
X94253371Y-141780074D01*
X94253371Y-141780074D02*
X94300990Y-141732455D01*
X94300990Y-141732455D02*
X94348609Y-141637217D01*
X94348609Y-141637217D02*
X94348609Y-141303884D01*
X94872419Y-142303884D02*
X93872419Y-142303884D01*
X94586704Y-142732455D02*
X94586704Y-143208645D01*
X94872419Y-142637217D02*
X93872419Y-142970550D01*
X93872419Y-142970550D02*
X94872419Y-143303883D01*
X94824800Y-143589598D02*
X94872419Y-143732455D01*
X94872419Y-143732455D02*
X94872419Y-143970550D01*
X94872419Y-143970550D02*
X94824800Y-144065788D01*
X94824800Y-144065788D02*
X94777180Y-144113407D01*
X94777180Y-144113407D02*
X94681942Y-144161026D01*
X94681942Y-144161026D02*
X94586704Y-144161026D01*
X94586704Y-144161026D02*
X94491466Y-144113407D01*
X94491466Y-144113407D02*
X94443847Y-144065788D01*
X94443847Y-144065788D02*
X94396228Y-143970550D01*
X94396228Y-143970550D02*
X94348609Y-143780074D01*
X94348609Y-143780074D02*
X94300990Y-143684836D01*
X94300990Y-143684836D02*
X94253371Y-143637217D01*
X94253371Y-143637217D02*
X94158133Y-143589598D01*
X94158133Y-143589598D02*
X94062895Y-143589598D01*
X94062895Y-143589598D02*
X93967657Y-143637217D01*
X93967657Y-143637217D02*
X93920038Y-143684836D01*
X93920038Y-143684836D02*
X93872419Y-143780074D01*
X93872419Y-143780074D02*
X93872419Y-144018169D01*
X93872419Y-144018169D02*
X93920038Y-144161026D01*
X107098609Y-116637217D02*
X107098609Y-116303884D01*
X107622419Y-116303884D02*
X106622419Y-116303884D01*
X106622419Y-116303884D02*
X106622419Y-116780074D01*
X107622419Y-117161027D02*
X106622419Y-117161027D01*
X106622419Y-117161027D02*
X107336704Y-117494360D01*
X107336704Y-117494360D02*
X106622419Y-117827693D01*
X106622419Y-117827693D02*
X107622419Y-117827693D01*
X107622419Y-118303884D02*
X106622419Y-118303884D01*
X107622419Y-118780074D02*
X106622419Y-118780074D01*
X106622419Y-118780074D02*
X107622419Y-119351502D01*
X107622419Y-119351502D02*
X106622419Y-119351502D01*
X83588972Y-121872419D02*
X83255639Y-122872419D01*
X83255639Y-122872419D02*
X82922306Y-121872419D01*
X82017544Y-122777180D02*
X82065163Y-122824800D01*
X82065163Y-122824800D02*
X82208020Y-122872419D01*
X82208020Y-122872419D02*
X82303258Y-122872419D01*
X82303258Y-122872419D02*
X82446115Y-122824800D01*
X82446115Y-122824800D02*
X82541353Y-122729561D01*
X82541353Y-122729561D02*
X82588972Y-122634323D01*
X82588972Y-122634323D02*
X82636591Y-122443847D01*
X82636591Y-122443847D02*
X82636591Y-122300990D01*
X82636591Y-122300990D02*
X82588972Y-122110514D01*
X82588972Y-122110514D02*
X82541353Y-122015276D01*
X82541353Y-122015276D02*
X82446115Y-121920038D01*
X82446115Y-121920038D02*
X82303258Y-121872419D01*
X82303258Y-121872419D02*
X82208020Y-121872419D01*
X82208020Y-121872419D02*
X82065163Y-121920038D01*
X82065163Y-121920038D02*
X82017544Y-121967657D01*
X81398496Y-121872419D02*
X81208020Y-121872419D01*
X81208020Y-121872419D02*
X81112782Y-121920038D01*
X81112782Y-121920038D02*
X81017544Y-122015276D01*
X81017544Y-122015276D02*
X80969925Y-122205752D01*
X80969925Y-122205752D02*
X80969925Y-122539085D01*
X80969925Y-122539085D02*
X81017544Y-122729561D01*
X81017544Y-122729561D02*
X81112782Y-122824800D01*
X81112782Y-122824800D02*
X81208020Y-122872419D01*
X81208020Y-122872419D02*
X81398496Y-122872419D01*
X81398496Y-122872419D02*
X81493734Y-122824800D01*
X81493734Y-122824800D02*
X81588972Y-122729561D01*
X81588972Y-122729561D02*
X81636591Y-122539085D01*
X81636591Y-122539085D02*
X81636591Y-122205752D01*
X81636591Y-122205752D02*
X81588972Y-122015276D01*
X81588972Y-122015276D02*
X81493734Y-121920038D01*
X81493734Y-121920038D02*
X81398496Y-121872419D01*
X79446115Y-122348609D02*
X79303258Y-122396228D01*
X79303258Y-122396228D02*
X79255639Y-122443847D01*
X79255639Y-122443847D02*
X79208020Y-122539085D01*
X79208020Y-122539085D02*
X79208020Y-122681942D01*
X79208020Y-122681942D02*
X79255639Y-122777180D01*
X79255639Y-122777180D02*
X79303258Y-122824800D01*
X79303258Y-122824800D02*
X79398496Y-122872419D01*
X79398496Y-122872419D02*
X79779448Y-122872419D01*
X79779448Y-122872419D02*
X79779448Y-121872419D01*
X79779448Y-121872419D02*
X79446115Y-121872419D01*
X79446115Y-121872419D02*
X79350877Y-121920038D01*
X79350877Y-121920038D02*
X79303258Y-121967657D01*
X79303258Y-121967657D02*
X79255639Y-122062895D01*
X79255639Y-122062895D02*
X79255639Y-122158133D01*
X79255639Y-122158133D02*
X79303258Y-122253371D01*
X79303258Y-122253371D02*
X79350877Y-122300990D01*
X79350877Y-122300990D02*
X79446115Y-122348609D01*
X79446115Y-122348609D02*
X79779448Y-122348609D01*
X78779448Y-122872419D02*
X78779448Y-121872419D01*
X78350877Y-122586704D02*
X77874687Y-122586704D01*
X78446115Y-122872419D02*
X78112782Y-121872419D01*
X78112782Y-121872419D02*
X77779449Y-122872419D01*
X77493734Y-122824800D02*
X77350877Y-122872419D01*
X77350877Y-122872419D02*
X77112782Y-122872419D01*
X77112782Y-122872419D02*
X77017544Y-122824800D01*
X77017544Y-122824800D02*
X76969925Y-122777180D01*
X76969925Y-122777180D02*
X76922306Y-122681942D01*
X76922306Y-122681942D02*
X76922306Y-122586704D01*
X76922306Y-122586704D02*
X76969925Y-122491466D01*
X76969925Y-122491466D02*
X77017544Y-122443847D01*
X77017544Y-122443847D02*
X77112782Y-122396228D01*
X77112782Y-122396228D02*
X77303258Y-122348609D01*
X77303258Y-122348609D02*
X77398496Y-122300990D01*
X77398496Y-122300990D02*
X77446115Y-122253371D01*
X77446115Y-122253371D02*
X77493734Y-122158133D01*
X77493734Y-122158133D02*
X77493734Y-122062895D01*
X77493734Y-122062895D02*
X77446115Y-121967657D01*
X77446115Y-121967657D02*
X77398496Y-121920038D01*
X77398496Y-121920038D02*
X77303258Y-121872419D01*
X77303258Y-121872419D02*
X77065163Y-121872419D01*
X77065163Y-121872419D02*
X76922306Y-121920038D01*
X95670038Y-141827693D02*
X95622419Y-141732455D01*
X95622419Y-141732455D02*
X95622419Y-141589598D01*
X95622419Y-141589598D02*
X95670038Y-141446741D01*
X95670038Y-141446741D02*
X95765276Y-141351503D01*
X95765276Y-141351503D02*
X95860514Y-141303884D01*
X95860514Y-141303884D02*
X96050990Y-141256265D01*
X96050990Y-141256265D02*
X96193847Y-141256265D01*
X96193847Y-141256265D02*
X96384323Y-141303884D01*
X96384323Y-141303884D02*
X96479561Y-141351503D01*
X96479561Y-141351503D02*
X96574800Y-141446741D01*
X96574800Y-141446741D02*
X96622419Y-141589598D01*
X96622419Y-141589598D02*
X96622419Y-141684836D01*
X96622419Y-141684836D02*
X96574800Y-141827693D01*
X96574800Y-141827693D02*
X96527180Y-141875312D01*
X96527180Y-141875312D02*
X96193847Y-141875312D01*
X96193847Y-141875312D02*
X96193847Y-141684836D01*
X96336704Y-142256265D02*
X96336704Y-142732455D01*
X96622419Y-142161027D02*
X95622419Y-142494360D01*
X95622419Y-142494360D02*
X96622419Y-142827693D01*
X96622419Y-143161027D02*
X95622419Y-143161027D01*
X96622419Y-143637217D02*
X95622419Y-143637217D01*
X95622419Y-143637217D02*
X96622419Y-144208645D01*
X96622419Y-144208645D02*
X95622419Y-144208645D01*
D11*
X107642857Y-80454819D02*
X107976190Y-79978628D01*
X108214285Y-80454819D02*
X108214285Y-79454819D01*
X108214285Y-79454819D02*
X107833333Y-79454819D01*
X107833333Y-79454819D02*
X107738095Y-79502438D01*
X107738095Y-79502438D02*
X107690476Y-79550057D01*
X107690476Y-79550057D02*
X107642857Y-79645295D01*
X107642857Y-79645295D02*
X107642857Y-79788152D01*
X107642857Y-79788152D02*
X107690476Y-79883390D01*
X107690476Y-79883390D02*
X107738095Y-79931009D01*
X107738095Y-79931009D02*
X107833333Y-79978628D01*
X107833333Y-79978628D02*
X108214285Y-79978628D01*
X106690476Y-80454819D02*
X107261904Y-80454819D01*
X106976190Y-80454819D02*
X106976190Y-79454819D01*
X106976190Y-79454819D02*
X107071428Y-79597676D01*
X107071428Y-79597676D02*
X107166666Y-79692914D01*
X107166666Y-79692914D02*
X107261904Y-79740533D01*
X106119047Y-79883390D02*
X106214285Y-79835771D01*
X106214285Y-79835771D02*
X106261904Y-79788152D01*
X106261904Y-79788152D02*
X106309523Y-79692914D01*
X106309523Y-79692914D02*
X106309523Y-79645295D01*
X106309523Y-79645295D02*
X106261904Y-79550057D01*
X106261904Y-79550057D02*
X106214285Y-79502438D01*
X106214285Y-79502438D02*
X106119047Y-79454819D01*
X106119047Y-79454819D02*
X105928571Y-79454819D01*
X105928571Y-79454819D02*
X105833333Y-79502438D01*
X105833333Y-79502438D02*
X105785714Y-79550057D01*
X105785714Y-79550057D02*
X105738095Y-79645295D01*
X105738095Y-79645295D02*
X105738095Y-79692914D01*
X105738095Y-79692914D02*
X105785714Y-79788152D01*
X105785714Y-79788152D02*
X105833333Y-79835771D01*
X105833333Y-79835771D02*
X105928571Y-79883390D01*
X105928571Y-79883390D02*
X106119047Y-79883390D01*
X106119047Y-79883390D02*
X106214285Y-79931009D01*
X106214285Y-79931009D02*
X106261904Y-79978628D01*
X106261904Y-79978628D02*
X106309523Y-80073866D01*
X106309523Y-80073866D02*
X106309523Y-80264342D01*
X106309523Y-80264342D02*
X106261904Y-80359580D01*
X106261904Y-80359580D02*
X106214285Y-80407200D01*
X106214285Y-80407200D02*
X106119047Y-80454819D01*
X106119047Y-80454819D02*
X105928571Y-80454819D01*
X105928571Y-80454819D02*
X105833333Y-80407200D01*
X105833333Y-80407200D02*
X105785714Y-80359580D01*
X105785714Y-80359580D02*
X105738095Y-80264342D01*
X105738095Y-80264342D02*
X105738095Y-80073866D01*
X105738095Y-80073866D02*
X105785714Y-79978628D01*
X105785714Y-79978628D02*
X105833333Y-79931009D01*
X105833333Y-79931009D02*
X105928571Y-79883390D01*
X113554819Y-78511905D02*
X114364342Y-78511905D01*
X114364342Y-78511905D02*
X114459580Y-78559524D01*
X114459580Y-78559524D02*
X114507200Y-78607143D01*
X114507200Y-78607143D02*
X114554819Y-78702381D01*
X114554819Y-78702381D02*
X114554819Y-78892857D01*
X114554819Y-78892857D02*
X114507200Y-78988095D01*
X114507200Y-78988095D02*
X114459580Y-79035714D01*
X114459580Y-79035714D02*
X114364342Y-79083333D01*
X114364342Y-79083333D02*
X113554819Y-79083333D01*
X114554819Y-80083333D02*
X114554819Y-79511905D01*
X114554819Y-79797619D02*
X113554819Y-79797619D01*
X113554819Y-79797619D02*
X113697676Y-79702381D01*
X113697676Y-79702381D02*
X113792914Y-79607143D01*
X113792914Y-79607143D02*
X113840533Y-79511905D01*
X113554819Y-80416667D02*
X113554819Y-81035714D01*
X113554819Y-81035714D02*
X113935771Y-80702381D01*
X113935771Y-80702381D02*
X113935771Y-80845238D01*
X113935771Y-80845238D02*
X113983390Y-80940476D01*
X113983390Y-80940476D02*
X114031009Y-80988095D01*
X114031009Y-80988095D02*
X114126247Y-81035714D01*
X114126247Y-81035714D02*
X114364342Y-81035714D01*
X114364342Y-81035714D02*
X114459580Y-80988095D01*
X114459580Y-80988095D02*
X114507200Y-80940476D01*
X114507200Y-80940476D02*
X114554819Y-80845238D01*
X114554819Y-80845238D02*
X114554819Y-80559524D01*
X114554819Y-80559524D02*
X114507200Y-80464286D01*
X114507200Y-80464286D02*
X114459580Y-80416667D01*
X75554819Y-80208333D02*
X75078628Y-79875000D01*
X75554819Y-79636905D02*
X74554819Y-79636905D01*
X74554819Y-79636905D02*
X74554819Y-80017857D01*
X74554819Y-80017857D02*
X74602438Y-80113095D01*
X74602438Y-80113095D02*
X74650057Y-80160714D01*
X74650057Y-80160714D02*
X74745295Y-80208333D01*
X74745295Y-80208333D02*
X74888152Y-80208333D01*
X74888152Y-80208333D02*
X74983390Y-80160714D01*
X74983390Y-80160714D02*
X75031009Y-80113095D01*
X75031009Y-80113095D02*
X75078628Y-80017857D01*
X75078628Y-80017857D02*
X75078628Y-79636905D01*
X75554819Y-80684524D02*
X75554819Y-80875000D01*
X75554819Y-80875000D02*
X75507200Y-80970238D01*
X75507200Y-80970238D02*
X75459580Y-81017857D01*
X75459580Y-81017857D02*
X75316723Y-81113095D01*
X75316723Y-81113095D02*
X75126247Y-81160714D01*
X75126247Y-81160714D02*
X74745295Y-81160714D01*
X74745295Y-81160714D02*
X74650057Y-81113095D01*
X74650057Y-81113095D02*
X74602438Y-81065476D01*
X74602438Y-81065476D02*
X74554819Y-80970238D01*
X74554819Y-80970238D02*
X74554819Y-80779762D01*
X74554819Y-80779762D02*
X74602438Y-80684524D01*
X74602438Y-80684524D02*
X74650057Y-80636905D01*
X74650057Y-80636905D02*
X74745295Y-80589286D01*
X74745295Y-80589286D02*
X74983390Y-80589286D01*
X74983390Y-80589286D02*
X75078628Y-80636905D01*
X75078628Y-80636905D02*
X75126247Y-80684524D01*
X75126247Y-80684524D02*
X75173866Y-80779762D01*
X75173866Y-80779762D02*
X75173866Y-80970238D01*
X75173866Y-80970238D02*
X75126247Y-81065476D01*
X75126247Y-81065476D02*
X75078628Y-81113095D01*
X75078628Y-81113095D02*
X74983390Y-81160714D01*
X87666666Y-132454819D02*
X87999999Y-131978628D01*
X88238094Y-132454819D02*
X88238094Y-131454819D01*
X88238094Y-131454819D02*
X87857142Y-131454819D01*
X87857142Y-131454819D02*
X87761904Y-131502438D01*
X87761904Y-131502438D02*
X87714285Y-131550057D01*
X87714285Y-131550057D02*
X87666666Y-131645295D01*
X87666666Y-131645295D02*
X87666666Y-131788152D01*
X87666666Y-131788152D02*
X87714285Y-131883390D01*
X87714285Y-131883390D02*
X87761904Y-131931009D01*
X87761904Y-131931009D02*
X87857142Y-131978628D01*
X87857142Y-131978628D02*
X88238094Y-131978628D01*
X87333332Y-131454819D02*
X86714285Y-131454819D01*
X86714285Y-131454819D02*
X87047618Y-131835771D01*
X87047618Y-131835771D02*
X86904761Y-131835771D01*
X86904761Y-131835771D02*
X86809523Y-131883390D01*
X86809523Y-131883390D02*
X86761904Y-131931009D01*
X86761904Y-131931009D02*
X86714285Y-132026247D01*
X86714285Y-132026247D02*
X86714285Y-132264342D01*
X86714285Y-132264342D02*
X86761904Y-132359580D01*
X86761904Y-132359580D02*
X86809523Y-132407200D01*
X86809523Y-132407200D02*
X86904761Y-132454819D01*
X86904761Y-132454819D02*
X87190475Y-132454819D01*
X87190475Y-132454819D02*
X87285713Y-132407200D01*
X87285713Y-132407200D02*
X87333332Y-132359580D01*
X55666666Y-91204819D02*
X56142856Y-91204819D01*
X56142856Y-91204819D02*
X56142856Y-90204819D01*
X54809523Y-91204819D02*
X55380951Y-91204819D01*
X55095237Y-91204819D02*
X55095237Y-90204819D01*
X55095237Y-90204819D02*
X55190475Y-90347676D01*
X55190475Y-90347676D02*
X55285713Y-90442914D01*
X55285713Y-90442914D02*
X55380951Y-90490533D01*
X60642857Y-71704819D02*
X60976190Y-71228628D01*
X61214285Y-71704819D02*
X61214285Y-70704819D01*
X61214285Y-70704819D02*
X60833333Y-70704819D01*
X60833333Y-70704819D02*
X60738095Y-70752438D01*
X60738095Y-70752438D02*
X60690476Y-70800057D01*
X60690476Y-70800057D02*
X60642857Y-70895295D01*
X60642857Y-70895295D02*
X60642857Y-71038152D01*
X60642857Y-71038152D02*
X60690476Y-71133390D01*
X60690476Y-71133390D02*
X60738095Y-71181009D01*
X60738095Y-71181009D02*
X60833333Y-71228628D01*
X60833333Y-71228628D02*
X61214285Y-71228628D01*
X59690476Y-71704819D02*
X60261904Y-71704819D01*
X59976190Y-71704819D02*
X59976190Y-70704819D01*
X59976190Y-70704819D02*
X60071428Y-70847676D01*
X60071428Y-70847676D02*
X60166666Y-70942914D01*
X60166666Y-70942914D02*
X60261904Y-70990533D01*
X59357142Y-70704819D02*
X58738095Y-70704819D01*
X58738095Y-70704819D02*
X59071428Y-71085771D01*
X59071428Y-71085771D02*
X58928571Y-71085771D01*
X58928571Y-71085771D02*
X58833333Y-71133390D01*
X58833333Y-71133390D02*
X58785714Y-71181009D01*
X58785714Y-71181009D02*
X58738095Y-71276247D01*
X58738095Y-71276247D02*
X58738095Y-71514342D01*
X58738095Y-71514342D02*
X58785714Y-71609580D01*
X58785714Y-71609580D02*
X58833333Y-71657200D01*
X58833333Y-71657200D02*
X58928571Y-71704819D01*
X58928571Y-71704819D02*
X59214285Y-71704819D01*
X59214285Y-71704819D02*
X59309523Y-71657200D01*
X59309523Y-71657200D02*
X59357142Y-71609580D01*
X127359580Y-63357142D02*
X127407200Y-63309523D01*
X127407200Y-63309523D02*
X127454819Y-63166666D01*
X127454819Y-63166666D02*
X127454819Y-63071428D01*
X127454819Y-63071428D02*
X127407200Y-62928571D01*
X127407200Y-62928571D02*
X127311961Y-62833333D01*
X127311961Y-62833333D02*
X127216723Y-62785714D01*
X127216723Y-62785714D02*
X127026247Y-62738095D01*
X127026247Y-62738095D02*
X126883390Y-62738095D01*
X126883390Y-62738095D02*
X126692914Y-62785714D01*
X126692914Y-62785714D02*
X126597676Y-62833333D01*
X126597676Y-62833333D02*
X126502438Y-62928571D01*
X126502438Y-62928571D02*
X126454819Y-63071428D01*
X126454819Y-63071428D02*
X126454819Y-63166666D01*
X126454819Y-63166666D02*
X126502438Y-63309523D01*
X126502438Y-63309523D02*
X126550057Y-63357142D01*
X126550057Y-63738095D02*
X126502438Y-63785714D01*
X126502438Y-63785714D02*
X126454819Y-63880952D01*
X126454819Y-63880952D02*
X126454819Y-64119047D01*
X126454819Y-64119047D02*
X126502438Y-64214285D01*
X126502438Y-64214285D02*
X126550057Y-64261904D01*
X126550057Y-64261904D02*
X126645295Y-64309523D01*
X126645295Y-64309523D02*
X126740533Y-64309523D01*
X126740533Y-64309523D02*
X126883390Y-64261904D01*
X126883390Y-64261904D02*
X127454819Y-63690476D01*
X127454819Y-63690476D02*
X127454819Y-64309523D01*
X126550057Y-64690476D02*
X126502438Y-64738095D01*
X126502438Y-64738095D02*
X126454819Y-64833333D01*
X126454819Y-64833333D02*
X126454819Y-65071428D01*
X126454819Y-65071428D02*
X126502438Y-65166666D01*
X126502438Y-65166666D02*
X126550057Y-65214285D01*
X126550057Y-65214285D02*
X126645295Y-65261904D01*
X126645295Y-65261904D02*
X126740533Y-65261904D01*
X126740533Y-65261904D02*
X126883390Y-65214285D01*
X126883390Y-65214285D02*
X127454819Y-64642857D01*
X127454819Y-64642857D02*
X127454819Y-65261904D01*
X86666666Y-109359580D02*
X86714285Y-109407200D01*
X86714285Y-109407200D02*
X86857142Y-109454819D01*
X86857142Y-109454819D02*
X86952380Y-109454819D01*
X86952380Y-109454819D02*
X87095237Y-109407200D01*
X87095237Y-109407200D02*
X87190475Y-109311961D01*
X87190475Y-109311961D02*
X87238094Y-109216723D01*
X87238094Y-109216723D02*
X87285713Y-109026247D01*
X87285713Y-109026247D02*
X87285713Y-108883390D01*
X87285713Y-108883390D02*
X87238094Y-108692914D01*
X87238094Y-108692914D02*
X87190475Y-108597676D01*
X87190475Y-108597676D02*
X87095237Y-108502438D01*
X87095237Y-108502438D02*
X86952380Y-108454819D01*
X86952380Y-108454819D02*
X86857142Y-108454819D01*
X86857142Y-108454819D02*
X86714285Y-108502438D01*
X86714285Y-108502438D02*
X86666666Y-108550057D01*
X85809523Y-108788152D02*
X85809523Y-109454819D01*
X86047618Y-108407200D02*
X86285713Y-109121485D01*
X86285713Y-109121485D02*
X85666666Y-109121485D01*
X81166666Y-166609580D02*
X81214285Y-166657200D01*
X81214285Y-166657200D02*
X81357142Y-166704819D01*
X81357142Y-166704819D02*
X81452380Y-166704819D01*
X81452380Y-166704819D02*
X81595237Y-166657200D01*
X81595237Y-166657200D02*
X81690475Y-166561961D01*
X81690475Y-166561961D02*
X81738094Y-166466723D01*
X81738094Y-166466723D02*
X81785713Y-166276247D01*
X81785713Y-166276247D02*
X81785713Y-166133390D01*
X81785713Y-166133390D02*
X81738094Y-165942914D01*
X81738094Y-165942914D02*
X81690475Y-165847676D01*
X81690475Y-165847676D02*
X81595237Y-165752438D01*
X81595237Y-165752438D02*
X81452380Y-165704819D01*
X81452380Y-165704819D02*
X81357142Y-165704819D01*
X81357142Y-165704819D02*
X81214285Y-165752438D01*
X81214285Y-165752438D02*
X81166666Y-165800057D01*
X80261904Y-165704819D02*
X80738094Y-165704819D01*
X80738094Y-165704819D02*
X80785713Y-166181009D01*
X80785713Y-166181009D02*
X80738094Y-166133390D01*
X80738094Y-166133390D02*
X80642856Y-166085771D01*
X80642856Y-166085771D02*
X80404761Y-166085771D01*
X80404761Y-166085771D02*
X80309523Y-166133390D01*
X80309523Y-166133390D02*
X80261904Y-166181009D01*
X80261904Y-166181009D02*
X80214285Y-166276247D01*
X80214285Y-166276247D02*
X80214285Y-166514342D01*
X80214285Y-166514342D02*
X80261904Y-166609580D01*
X80261904Y-166609580D02*
X80309523Y-166657200D01*
X80309523Y-166657200D02*
X80404761Y-166704819D01*
X80404761Y-166704819D02*
X80642856Y-166704819D01*
X80642856Y-166704819D02*
X80738094Y-166657200D01*
X80738094Y-166657200D02*
X80785713Y-166609580D01*
X63204819Y-73761905D02*
X62204819Y-73761905D01*
X62204819Y-73761905D02*
X62204819Y-74000000D01*
X62204819Y-74000000D02*
X62252438Y-74142857D01*
X62252438Y-74142857D02*
X62347676Y-74238095D01*
X62347676Y-74238095D02*
X62442914Y-74285714D01*
X62442914Y-74285714D02*
X62633390Y-74333333D01*
X62633390Y-74333333D02*
X62776247Y-74333333D01*
X62776247Y-74333333D02*
X62966723Y-74285714D01*
X62966723Y-74285714D02*
X63061961Y-74238095D01*
X63061961Y-74238095D02*
X63157200Y-74142857D01*
X63157200Y-74142857D02*
X63204819Y-74000000D01*
X63204819Y-74000000D02*
X63204819Y-73761905D01*
X62204819Y-75238095D02*
X62204819Y-74761905D01*
X62204819Y-74761905D02*
X62681009Y-74714286D01*
X62681009Y-74714286D02*
X62633390Y-74761905D01*
X62633390Y-74761905D02*
X62585771Y-74857143D01*
X62585771Y-74857143D02*
X62585771Y-75095238D01*
X62585771Y-75095238D02*
X62633390Y-75190476D01*
X62633390Y-75190476D02*
X62681009Y-75238095D01*
X62681009Y-75238095D02*
X62776247Y-75285714D01*
X62776247Y-75285714D02*
X63014342Y-75285714D01*
X63014342Y-75285714D02*
X63109580Y-75238095D01*
X63109580Y-75238095D02*
X63157200Y-75190476D01*
X63157200Y-75190476D02*
X63204819Y-75095238D01*
X63204819Y-75095238D02*
X63204819Y-74857143D01*
X63204819Y-74857143D02*
X63157200Y-74761905D01*
X63157200Y-74761905D02*
X63109580Y-74714286D01*
X93886904Y-96309819D02*
X93886904Y-97119342D01*
X93886904Y-97119342D02*
X93839285Y-97214580D01*
X93839285Y-97214580D02*
X93791666Y-97262200D01*
X93791666Y-97262200D02*
X93696428Y-97309819D01*
X93696428Y-97309819D02*
X93505952Y-97309819D01*
X93505952Y-97309819D02*
X93410714Y-97262200D01*
X93410714Y-97262200D02*
X93363095Y-97214580D01*
X93363095Y-97214580D02*
X93315476Y-97119342D01*
X93315476Y-97119342D02*
X93315476Y-96309819D01*
X92791666Y-97309819D02*
X92601190Y-97309819D01*
X92601190Y-97309819D02*
X92505952Y-97262200D01*
X92505952Y-97262200D02*
X92458333Y-97214580D01*
X92458333Y-97214580D02*
X92363095Y-97071723D01*
X92363095Y-97071723D02*
X92315476Y-96881247D01*
X92315476Y-96881247D02*
X92315476Y-96500295D01*
X92315476Y-96500295D02*
X92363095Y-96405057D01*
X92363095Y-96405057D02*
X92410714Y-96357438D01*
X92410714Y-96357438D02*
X92505952Y-96309819D01*
X92505952Y-96309819D02*
X92696428Y-96309819D01*
X92696428Y-96309819D02*
X92791666Y-96357438D01*
X92791666Y-96357438D02*
X92839285Y-96405057D01*
X92839285Y-96405057D02*
X92886904Y-96500295D01*
X92886904Y-96500295D02*
X92886904Y-96738390D01*
X92886904Y-96738390D02*
X92839285Y-96833628D01*
X92839285Y-96833628D02*
X92791666Y-96881247D01*
X92791666Y-96881247D02*
X92696428Y-96928866D01*
X92696428Y-96928866D02*
X92505952Y-96928866D01*
X92505952Y-96928866D02*
X92410714Y-96881247D01*
X92410714Y-96881247D02*
X92363095Y-96833628D01*
X92363095Y-96833628D02*
X92315476Y-96738390D01*
X99142857Y-89704819D02*
X99476190Y-89228628D01*
X99714285Y-89704819D02*
X99714285Y-88704819D01*
X99714285Y-88704819D02*
X99333333Y-88704819D01*
X99333333Y-88704819D02*
X99238095Y-88752438D01*
X99238095Y-88752438D02*
X99190476Y-88800057D01*
X99190476Y-88800057D02*
X99142857Y-88895295D01*
X99142857Y-88895295D02*
X99142857Y-89038152D01*
X99142857Y-89038152D02*
X99190476Y-89133390D01*
X99190476Y-89133390D02*
X99238095Y-89181009D01*
X99238095Y-89181009D02*
X99333333Y-89228628D01*
X99333333Y-89228628D02*
X99714285Y-89228628D01*
X98190476Y-89704819D02*
X98761904Y-89704819D01*
X98476190Y-89704819D02*
X98476190Y-88704819D01*
X98476190Y-88704819D02*
X98571428Y-88847676D01*
X98571428Y-88847676D02*
X98666666Y-88942914D01*
X98666666Y-88942914D02*
X98761904Y-88990533D01*
X97857142Y-88704819D02*
X97190476Y-88704819D01*
X97190476Y-88704819D02*
X97619047Y-89704819D01*
X83488094Y-114204819D02*
X83488094Y-113204819D01*
X83488094Y-113204819D02*
X83249999Y-113204819D01*
X83249999Y-113204819D02*
X83107142Y-113252438D01*
X83107142Y-113252438D02*
X83011904Y-113347676D01*
X83011904Y-113347676D02*
X82964285Y-113442914D01*
X82964285Y-113442914D02*
X82916666Y-113633390D01*
X82916666Y-113633390D02*
X82916666Y-113776247D01*
X82916666Y-113776247D02*
X82964285Y-113966723D01*
X82964285Y-113966723D02*
X83011904Y-114061961D01*
X83011904Y-114061961D02*
X83107142Y-114157200D01*
X83107142Y-114157200D02*
X83249999Y-114204819D01*
X83249999Y-114204819D02*
X83488094Y-114204819D01*
X82059523Y-113538152D02*
X82059523Y-114204819D01*
X82297618Y-113157200D02*
X82535713Y-113871485D01*
X82535713Y-113871485D02*
X81916666Y-113871485D01*
X91345238Y-168300057D02*
X91440476Y-168252438D01*
X91440476Y-168252438D02*
X91535714Y-168157200D01*
X91535714Y-168157200D02*
X91678571Y-168014342D01*
X91678571Y-168014342D02*
X91773809Y-167966723D01*
X91773809Y-167966723D02*
X91869047Y-167966723D01*
X91821428Y-168204819D02*
X91916666Y-168157200D01*
X91916666Y-168157200D02*
X92011904Y-168061961D01*
X92011904Y-168061961D02*
X92059523Y-167871485D01*
X92059523Y-167871485D02*
X92059523Y-167538152D01*
X92059523Y-167538152D02*
X92011904Y-167347676D01*
X92011904Y-167347676D02*
X91916666Y-167252438D01*
X91916666Y-167252438D02*
X91821428Y-167204819D01*
X91821428Y-167204819D02*
X91630952Y-167204819D01*
X91630952Y-167204819D02*
X91535714Y-167252438D01*
X91535714Y-167252438D02*
X91440476Y-167347676D01*
X91440476Y-167347676D02*
X91392857Y-167538152D01*
X91392857Y-167538152D02*
X91392857Y-167871485D01*
X91392857Y-167871485D02*
X91440476Y-168061961D01*
X91440476Y-168061961D02*
X91535714Y-168157200D01*
X91535714Y-168157200D02*
X91630952Y-168204819D01*
X91630952Y-168204819D02*
X91821428Y-168204819D01*
X90535714Y-167538152D02*
X90535714Y-168204819D01*
X90773809Y-167157200D02*
X91011904Y-167871485D01*
X91011904Y-167871485D02*
X90392857Y-167871485D01*
X85738094Y-167204819D02*
X85738094Y-168014342D01*
X85738094Y-168014342D02*
X85690475Y-168109580D01*
X85690475Y-168109580D02*
X85642856Y-168157200D01*
X85642856Y-168157200D02*
X85547618Y-168204819D01*
X85547618Y-168204819D02*
X85357142Y-168204819D01*
X85357142Y-168204819D02*
X85261904Y-168157200D01*
X85261904Y-168157200D02*
X85214285Y-168109580D01*
X85214285Y-168109580D02*
X85166666Y-168014342D01*
X85166666Y-168014342D02*
X85166666Y-167204819D01*
X84166666Y-168204819D02*
X84738094Y-168204819D01*
X84452380Y-168204819D02*
X84452380Y-167204819D01*
X84452380Y-167204819D02*
X84547618Y-167347676D01*
X84547618Y-167347676D02*
X84642856Y-167442914D01*
X84642856Y-167442914D02*
X84738094Y-167490533D01*
X83309523Y-167204819D02*
X83499999Y-167204819D01*
X83499999Y-167204819D02*
X83595237Y-167252438D01*
X83595237Y-167252438D02*
X83642856Y-167300057D01*
X83642856Y-167300057D02*
X83738094Y-167442914D01*
X83738094Y-167442914D02*
X83785713Y-167633390D01*
X83785713Y-167633390D02*
X83785713Y-168014342D01*
X83785713Y-168014342D02*
X83738094Y-168109580D01*
X83738094Y-168109580D02*
X83690475Y-168157200D01*
X83690475Y-168157200D02*
X83595237Y-168204819D01*
X83595237Y-168204819D02*
X83404761Y-168204819D01*
X83404761Y-168204819D02*
X83309523Y-168157200D01*
X83309523Y-168157200D02*
X83261904Y-168109580D01*
X83261904Y-168109580D02*
X83214285Y-168014342D01*
X83214285Y-168014342D02*
X83214285Y-167776247D01*
X83214285Y-167776247D02*
X83261904Y-167681009D01*
X83261904Y-167681009D02*
X83309523Y-167633390D01*
X83309523Y-167633390D02*
X83404761Y-167585771D01*
X83404761Y-167585771D02*
X83595237Y-167585771D01*
X83595237Y-167585771D02*
X83690475Y-167633390D01*
X83690475Y-167633390D02*
X83738094Y-167681009D01*
X83738094Y-167681009D02*
X83785713Y-167776247D01*
X58142857Y-104359580D02*
X58190476Y-104407200D01*
X58190476Y-104407200D02*
X58333333Y-104454819D01*
X58333333Y-104454819D02*
X58428571Y-104454819D01*
X58428571Y-104454819D02*
X58571428Y-104407200D01*
X58571428Y-104407200D02*
X58666666Y-104311961D01*
X58666666Y-104311961D02*
X58714285Y-104216723D01*
X58714285Y-104216723D02*
X58761904Y-104026247D01*
X58761904Y-104026247D02*
X58761904Y-103883390D01*
X58761904Y-103883390D02*
X58714285Y-103692914D01*
X58714285Y-103692914D02*
X58666666Y-103597676D01*
X58666666Y-103597676D02*
X58571428Y-103502438D01*
X58571428Y-103502438D02*
X58428571Y-103454819D01*
X58428571Y-103454819D02*
X58333333Y-103454819D01*
X58333333Y-103454819D02*
X58190476Y-103502438D01*
X58190476Y-103502438D02*
X58142857Y-103550057D01*
X57190476Y-104454819D02*
X57761904Y-104454819D01*
X57476190Y-104454819D02*
X57476190Y-103454819D01*
X57476190Y-103454819D02*
X57571428Y-103597676D01*
X57571428Y-103597676D02*
X57666666Y-103692914D01*
X57666666Y-103692914D02*
X57761904Y-103740533D01*
X56619047Y-103883390D02*
X56714285Y-103835771D01*
X56714285Y-103835771D02*
X56761904Y-103788152D01*
X56761904Y-103788152D02*
X56809523Y-103692914D01*
X56809523Y-103692914D02*
X56809523Y-103645295D01*
X56809523Y-103645295D02*
X56761904Y-103550057D01*
X56761904Y-103550057D02*
X56714285Y-103502438D01*
X56714285Y-103502438D02*
X56619047Y-103454819D01*
X56619047Y-103454819D02*
X56428571Y-103454819D01*
X56428571Y-103454819D02*
X56333333Y-103502438D01*
X56333333Y-103502438D02*
X56285714Y-103550057D01*
X56285714Y-103550057D02*
X56238095Y-103645295D01*
X56238095Y-103645295D02*
X56238095Y-103692914D01*
X56238095Y-103692914D02*
X56285714Y-103788152D01*
X56285714Y-103788152D02*
X56333333Y-103835771D01*
X56333333Y-103835771D02*
X56428571Y-103883390D01*
X56428571Y-103883390D02*
X56619047Y-103883390D01*
X56619047Y-103883390D02*
X56714285Y-103931009D01*
X56714285Y-103931009D02*
X56761904Y-103978628D01*
X56761904Y-103978628D02*
X56809523Y-104073866D01*
X56809523Y-104073866D02*
X56809523Y-104264342D01*
X56809523Y-104264342D02*
X56761904Y-104359580D01*
X56761904Y-104359580D02*
X56714285Y-104407200D01*
X56714285Y-104407200D02*
X56619047Y-104454819D01*
X56619047Y-104454819D02*
X56428571Y-104454819D01*
X56428571Y-104454819D02*
X56333333Y-104407200D01*
X56333333Y-104407200D02*
X56285714Y-104359580D01*
X56285714Y-104359580D02*
X56238095Y-104264342D01*
X56238095Y-104264342D02*
X56238095Y-104073866D01*
X56238095Y-104073866D02*
X56285714Y-103978628D01*
X56285714Y-103978628D02*
X56333333Y-103931009D01*
X56333333Y-103931009D02*
X56428571Y-103883390D01*
X81166666Y-165109580D02*
X81214285Y-165157200D01*
X81214285Y-165157200D02*
X81357142Y-165204819D01*
X81357142Y-165204819D02*
X81452380Y-165204819D01*
X81452380Y-165204819D02*
X81595237Y-165157200D01*
X81595237Y-165157200D02*
X81690475Y-165061961D01*
X81690475Y-165061961D02*
X81738094Y-164966723D01*
X81738094Y-164966723D02*
X81785713Y-164776247D01*
X81785713Y-164776247D02*
X81785713Y-164633390D01*
X81785713Y-164633390D02*
X81738094Y-164442914D01*
X81738094Y-164442914D02*
X81690475Y-164347676D01*
X81690475Y-164347676D02*
X81595237Y-164252438D01*
X81595237Y-164252438D02*
X81452380Y-164204819D01*
X81452380Y-164204819D02*
X81357142Y-164204819D01*
X81357142Y-164204819D02*
X81214285Y-164252438D01*
X81214285Y-164252438D02*
X81166666Y-164300057D01*
X80833332Y-164204819D02*
X80214285Y-164204819D01*
X80214285Y-164204819D02*
X80547618Y-164585771D01*
X80547618Y-164585771D02*
X80404761Y-164585771D01*
X80404761Y-164585771D02*
X80309523Y-164633390D01*
X80309523Y-164633390D02*
X80261904Y-164681009D01*
X80261904Y-164681009D02*
X80214285Y-164776247D01*
X80214285Y-164776247D02*
X80214285Y-165014342D01*
X80214285Y-165014342D02*
X80261904Y-165109580D01*
X80261904Y-165109580D02*
X80309523Y-165157200D01*
X80309523Y-165157200D02*
X80404761Y-165204819D01*
X80404761Y-165204819D02*
X80690475Y-165204819D01*
X80690475Y-165204819D02*
X80785713Y-165157200D01*
X80785713Y-165157200D02*
X80833332Y-165109580D01*
X89488094Y-167204819D02*
X89488094Y-168014342D01*
X89488094Y-168014342D02*
X89440475Y-168109580D01*
X89440475Y-168109580D02*
X89392856Y-168157200D01*
X89392856Y-168157200D02*
X89297618Y-168204819D01*
X89297618Y-168204819D02*
X89107142Y-168204819D01*
X89107142Y-168204819D02*
X89011904Y-168157200D01*
X89011904Y-168157200D02*
X88964285Y-168109580D01*
X88964285Y-168109580D02*
X88916666Y-168014342D01*
X88916666Y-168014342D02*
X88916666Y-167204819D01*
X87916666Y-168204819D02*
X88488094Y-168204819D01*
X88202380Y-168204819D02*
X88202380Y-167204819D01*
X88202380Y-167204819D02*
X88297618Y-167347676D01*
X88297618Y-167347676D02*
X88392856Y-167442914D01*
X88392856Y-167442914D02*
X88488094Y-167490533D01*
X87583332Y-167204819D02*
X86916666Y-167204819D01*
X86916666Y-167204819D02*
X87345237Y-168204819D01*
X93916666Y-132359580D02*
X93964285Y-132407200D01*
X93964285Y-132407200D02*
X94107142Y-132454819D01*
X94107142Y-132454819D02*
X94202380Y-132454819D01*
X94202380Y-132454819D02*
X94345237Y-132407200D01*
X94345237Y-132407200D02*
X94440475Y-132311961D01*
X94440475Y-132311961D02*
X94488094Y-132216723D01*
X94488094Y-132216723D02*
X94535713Y-132026247D01*
X94535713Y-132026247D02*
X94535713Y-131883390D01*
X94535713Y-131883390D02*
X94488094Y-131692914D01*
X94488094Y-131692914D02*
X94440475Y-131597676D01*
X94440475Y-131597676D02*
X94345237Y-131502438D01*
X94345237Y-131502438D02*
X94202380Y-131454819D01*
X94202380Y-131454819D02*
X94107142Y-131454819D01*
X94107142Y-131454819D02*
X93964285Y-131502438D01*
X93964285Y-131502438D02*
X93916666Y-131550057D01*
X93583332Y-131454819D02*
X92916666Y-131454819D01*
X92916666Y-131454819D02*
X93345237Y-132454819D01*
X90916666Y-130954819D02*
X91249999Y-130478628D01*
X91488094Y-130954819D02*
X91488094Y-129954819D01*
X91488094Y-129954819D02*
X91107142Y-129954819D01*
X91107142Y-129954819D02*
X91011904Y-130002438D01*
X91011904Y-130002438D02*
X90964285Y-130050057D01*
X90964285Y-130050057D02*
X90916666Y-130145295D01*
X90916666Y-130145295D02*
X90916666Y-130288152D01*
X90916666Y-130288152D02*
X90964285Y-130383390D01*
X90964285Y-130383390D02*
X91011904Y-130431009D01*
X91011904Y-130431009D02*
X91107142Y-130478628D01*
X91107142Y-130478628D02*
X91488094Y-130478628D01*
X90011904Y-129954819D02*
X90488094Y-129954819D01*
X90488094Y-129954819D02*
X90535713Y-130431009D01*
X90535713Y-130431009D02*
X90488094Y-130383390D01*
X90488094Y-130383390D02*
X90392856Y-130335771D01*
X90392856Y-130335771D02*
X90154761Y-130335771D01*
X90154761Y-130335771D02*
X90059523Y-130383390D01*
X90059523Y-130383390D02*
X90011904Y-130431009D01*
X90011904Y-130431009D02*
X89964285Y-130526247D01*
X89964285Y-130526247D02*
X89964285Y-130764342D01*
X89964285Y-130764342D02*
X90011904Y-130859580D01*
X90011904Y-130859580D02*
X90059523Y-130907200D01*
X90059523Y-130907200D02*
X90154761Y-130954819D01*
X90154761Y-130954819D02*
X90392856Y-130954819D01*
X90392856Y-130954819D02*
X90488094Y-130907200D01*
X90488094Y-130907200D02*
X90535713Y-130859580D01*
X90988094Y-91984819D02*
X90988094Y-90984819D01*
X90988094Y-90984819D02*
X90749999Y-90984819D01*
X90749999Y-90984819D02*
X90607142Y-91032438D01*
X90607142Y-91032438D02*
X90511904Y-91127676D01*
X90511904Y-91127676D02*
X90464285Y-91222914D01*
X90464285Y-91222914D02*
X90416666Y-91413390D01*
X90416666Y-91413390D02*
X90416666Y-91556247D01*
X90416666Y-91556247D02*
X90464285Y-91746723D01*
X90464285Y-91746723D02*
X90511904Y-91841961D01*
X90511904Y-91841961D02*
X90607142Y-91937200D01*
X90607142Y-91937200D02*
X90749999Y-91984819D01*
X90749999Y-91984819D02*
X90988094Y-91984819D01*
X89845237Y-91413390D02*
X89940475Y-91365771D01*
X89940475Y-91365771D02*
X89988094Y-91318152D01*
X89988094Y-91318152D02*
X90035713Y-91222914D01*
X90035713Y-91222914D02*
X90035713Y-91175295D01*
X90035713Y-91175295D02*
X89988094Y-91080057D01*
X89988094Y-91080057D02*
X89940475Y-91032438D01*
X89940475Y-91032438D02*
X89845237Y-90984819D01*
X89845237Y-90984819D02*
X89654761Y-90984819D01*
X89654761Y-90984819D02*
X89559523Y-91032438D01*
X89559523Y-91032438D02*
X89511904Y-91080057D01*
X89511904Y-91080057D02*
X89464285Y-91175295D01*
X89464285Y-91175295D02*
X89464285Y-91222914D01*
X89464285Y-91222914D02*
X89511904Y-91318152D01*
X89511904Y-91318152D02*
X89559523Y-91365771D01*
X89559523Y-91365771D02*
X89654761Y-91413390D01*
X89654761Y-91413390D02*
X89845237Y-91413390D01*
X89845237Y-91413390D02*
X89940475Y-91461009D01*
X89940475Y-91461009D02*
X89988094Y-91508628D01*
X89988094Y-91508628D02*
X90035713Y-91603866D01*
X90035713Y-91603866D02*
X90035713Y-91794342D01*
X90035713Y-91794342D02*
X89988094Y-91889580D01*
X89988094Y-91889580D02*
X89940475Y-91937200D01*
X89940475Y-91937200D02*
X89845237Y-91984819D01*
X89845237Y-91984819D02*
X89654761Y-91984819D01*
X89654761Y-91984819D02*
X89559523Y-91937200D01*
X89559523Y-91937200D02*
X89511904Y-91889580D01*
X89511904Y-91889580D02*
X89464285Y-91794342D01*
X89464285Y-91794342D02*
X89464285Y-91603866D01*
X89464285Y-91603866D02*
X89511904Y-91508628D01*
X89511904Y-91508628D02*
X89559523Y-91461009D01*
X89559523Y-91461009D02*
X89654761Y-91413390D01*
X75554819Y-83795833D02*
X75078628Y-83462500D01*
X75554819Y-83224405D02*
X74554819Y-83224405D01*
X74554819Y-83224405D02*
X74554819Y-83605357D01*
X74554819Y-83605357D02*
X74602438Y-83700595D01*
X74602438Y-83700595D02*
X74650057Y-83748214D01*
X74650057Y-83748214D02*
X74745295Y-83795833D01*
X74745295Y-83795833D02*
X74888152Y-83795833D01*
X74888152Y-83795833D02*
X74983390Y-83748214D01*
X74983390Y-83748214D02*
X75031009Y-83700595D01*
X75031009Y-83700595D02*
X75078628Y-83605357D01*
X75078628Y-83605357D02*
X75078628Y-83224405D01*
X74554819Y-84652976D02*
X74554819Y-84462500D01*
X74554819Y-84462500D02*
X74602438Y-84367262D01*
X74602438Y-84367262D02*
X74650057Y-84319643D01*
X74650057Y-84319643D02*
X74792914Y-84224405D01*
X74792914Y-84224405D02*
X74983390Y-84176786D01*
X74983390Y-84176786D02*
X75364342Y-84176786D01*
X75364342Y-84176786D02*
X75459580Y-84224405D01*
X75459580Y-84224405D02*
X75507200Y-84272024D01*
X75507200Y-84272024D02*
X75554819Y-84367262D01*
X75554819Y-84367262D02*
X75554819Y-84557738D01*
X75554819Y-84557738D02*
X75507200Y-84652976D01*
X75507200Y-84652976D02*
X75459580Y-84700595D01*
X75459580Y-84700595D02*
X75364342Y-84748214D01*
X75364342Y-84748214D02*
X75126247Y-84748214D01*
X75126247Y-84748214D02*
X75031009Y-84700595D01*
X75031009Y-84700595D02*
X74983390Y-84652976D01*
X74983390Y-84652976D02*
X74935771Y-84557738D01*
X74935771Y-84557738D02*
X74935771Y-84367262D01*
X74935771Y-84367262D02*
X74983390Y-84272024D01*
X74983390Y-84272024D02*
X75031009Y-84224405D01*
X75031009Y-84224405D02*
X75126247Y-84176786D01*
X87666666Y-130704819D02*
X87999999Y-130228628D01*
X88238094Y-130704819D02*
X88238094Y-129704819D01*
X88238094Y-129704819D02*
X87857142Y-129704819D01*
X87857142Y-129704819D02*
X87761904Y-129752438D01*
X87761904Y-129752438D02*
X87714285Y-129800057D01*
X87714285Y-129800057D02*
X87666666Y-129895295D01*
X87666666Y-129895295D02*
X87666666Y-130038152D01*
X87666666Y-130038152D02*
X87714285Y-130133390D01*
X87714285Y-130133390D02*
X87761904Y-130181009D01*
X87761904Y-130181009D02*
X87857142Y-130228628D01*
X87857142Y-130228628D02*
X88238094Y-130228628D01*
X87095237Y-130133390D02*
X87190475Y-130085771D01*
X87190475Y-130085771D02*
X87238094Y-130038152D01*
X87238094Y-130038152D02*
X87285713Y-129942914D01*
X87285713Y-129942914D02*
X87285713Y-129895295D01*
X87285713Y-129895295D02*
X87238094Y-129800057D01*
X87238094Y-129800057D02*
X87190475Y-129752438D01*
X87190475Y-129752438D02*
X87095237Y-129704819D01*
X87095237Y-129704819D02*
X86904761Y-129704819D01*
X86904761Y-129704819D02*
X86809523Y-129752438D01*
X86809523Y-129752438D02*
X86761904Y-129800057D01*
X86761904Y-129800057D02*
X86714285Y-129895295D01*
X86714285Y-129895295D02*
X86714285Y-129942914D01*
X86714285Y-129942914D02*
X86761904Y-130038152D01*
X86761904Y-130038152D02*
X86809523Y-130085771D01*
X86809523Y-130085771D02*
X86904761Y-130133390D01*
X86904761Y-130133390D02*
X87095237Y-130133390D01*
X87095237Y-130133390D02*
X87190475Y-130181009D01*
X87190475Y-130181009D02*
X87238094Y-130228628D01*
X87238094Y-130228628D02*
X87285713Y-130323866D01*
X87285713Y-130323866D02*
X87285713Y-130514342D01*
X87285713Y-130514342D02*
X87238094Y-130609580D01*
X87238094Y-130609580D02*
X87190475Y-130657200D01*
X87190475Y-130657200D02*
X87095237Y-130704819D01*
X87095237Y-130704819D02*
X86904761Y-130704819D01*
X86904761Y-130704819D02*
X86809523Y-130657200D01*
X86809523Y-130657200D02*
X86761904Y-130609580D01*
X86761904Y-130609580D02*
X86714285Y-130514342D01*
X86714285Y-130514342D02*
X86714285Y-130323866D01*
X86714285Y-130323866D02*
X86761904Y-130228628D01*
X86761904Y-130228628D02*
X86809523Y-130181009D01*
X86809523Y-130181009D02*
X86904761Y-130133390D01*
X134359580Y-63357142D02*
X134407200Y-63309523D01*
X134407200Y-63309523D02*
X134454819Y-63166666D01*
X134454819Y-63166666D02*
X134454819Y-63071428D01*
X134454819Y-63071428D02*
X134407200Y-62928571D01*
X134407200Y-62928571D02*
X134311961Y-62833333D01*
X134311961Y-62833333D02*
X134216723Y-62785714D01*
X134216723Y-62785714D02*
X134026247Y-62738095D01*
X134026247Y-62738095D02*
X133883390Y-62738095D01*
X133883390Y-62738095D02*
X133692914Y-62785714D01*
X133692914Y-62785714D02*
X133597676Y-62833333D01*
X133597676Y-62833333D02*
X133502438Y-62928571D01*
X133502438Y-62928571D02*
X133454819Y-63071428D01*
X133454819Y-63071428D02*
X133454819Y-63166666D01*
X133454819Y-63166666D02*
X133502438Y-63309523D01*
X133502438Y-63309523D02*
X133550057Y-63357142D01*
X133550057Y-63738095D02*
X133502438Y-63785714D01*
X133502438Y-63785714D02*
X133454819Y-63880952D01*
X133454819Y-63880952D02*
X133454819Y-64119047D01*
X133454819Y-64119047D02*
X133502438Y-64214285D01*
X133502438Y-64214285D02*
X133550057Y-64261904D01*
X133550057Y-64261904D02*
X133645295Y-64309523D01*
X133645295Y-64309523D02*
X133740533Y-64309523D01*
X133740533Y-64309523D02*
X133883390Y-64261904D01*
X133883390Y-64261904D02*
X134454819Y-63690476D01*
X134454819Y-63690476D02*
X134454819Y-64309523D01*
X133454819Y-64928571D02*
X133454819Y-65023809D01*
X133454819Y-65023809D02*
X133502438Y-65119047D01*
X133502438Y-65119047D02*
X133550057Y-65166666D01*
X133550057Y-65166666D02*
X133645295Y-65214285D01*
X133645295Y-65214285D02*
X133835771Y-65261904D01*
X133835771Y-65261904D02*
X134073866Y-65261904D01*
X134073866Y-65261904D02*
X134264342Y-65214285D01*
X134264342Y-65214285D02*
X134359580Y-65166666D01*
X134359580Y-65166666D02*
X134407200Y-65119047D01*
X134407200Y-65119047D02*
X134454819Y-65023809D01*
X134454819Y-65023809D02*
X134454819Y-64928571D01*
X134454819Y-64928571D02*
X134407200Y-64833333D01*
X134407200Y-64833333D02*
X134359580Y-64785714D01*
X134359580Y-64785714D02*
X134264342Y-64738095D01*
X134264342Y-64738095D02*
X134073866Y-64690476D01*
X134073866Y-64690476D02*
X133835771Y-64690476D01*
X133835771Y-64690476D02*
X133645295Y-64738095D01*
X133645295Y-64738095D02*
X133550057Y-64785714D01*
X133550057Y-64785714D02*
X133502438Y-64833333D01*
X133502438Y-64833333D02*
X133454819Y-64928571D01*
X93892857Y-130859580D02*
X93940476Y-130907200D01*
X93940476Y-130907200D02*
X94083333Y-130954819D01*
X94083333Y-130954819D02*
X94178571Y-130954819D01*
X94178571Y-130954819D02*
X94321428Y-130907200D01*
X94321428Y-130907200D02*
X94416666Y-130811961D01*
X94416666Y-130811961D02*
X94464285Y-130716723D01*
X94464285Y-130716723D02*
X94511904Y-130526247D01*
X94511904Y-130526247D02*
X94511904Y-130383390D01*
X94511904Y-130383390D02*
X94464285Y-130192914D01*
X94464285Y-130192914D02*
X94416666Y-130097676D01*
X94416666Y-130097676D02*
X94321428Y-130002438D01*
X94321428Y-130002438D02*
X94178571Y-129954819D01*
X94178571Y-129954819D02*
X94083333Y-129954819D01*
X94083333Y-129954819D02*
X93940476Y-130002438D01*
X93940476Y-130002438D02*
X93892857Y-130050057D01*
X93511904Y-130050057D02*
X93464285Y-130002438D01*
X93464285Y-130002438D02*
X93369047Y-129954819D01*
X93369047Y-129954819D02*
X93130952Y-129954819D01*
X93130952Y-129954819D02*
X93035714Y-130002438D01*
X93035714Y-130002438D02*
X92988095Y-130050057D01*
X92988095Y-130050057D02*
X92940476Y-130145295D01*
X92940476Y-130145295D02*
X92940476Y-130240533D01*
X92940476Y-130240533D02*
X92988095Y-130383390D01*
X92988095Y-130383390D02*
X93559523Y-130954819D01*
X93559523Y-130954819D02*
X92940476Y-130954819D01*
X92083333Y-129954819D02*
X92273809Y-129954819D01*
X92273809Y-129954819D02*
X92369047Y-130002438D01*
X92369047Y-130002438D02*
X92416666Y-130050057D01*
X92416666Y-130050057D02*
X92511904Y-130192914D01*
X92511904Y-130192914D02*
X92559523Y-130383390D01*
X92559523Y-130383390D02*
X92559523Y-130764342D01*
X92559523Y-130764342D02*
X92511904Y-130859580D01*
X92511904Y-130859580D02*
X92464285Y-130907200D01*
X92464285Y-130907200D02*
X92369047Y-130954819D01*
X92369047Y-130954819D02*
X92178571Y-130954819D01*
X92178571Y-130954819D02*
X92083333Y-130907200D01*
X92083333Y-130907200D02*
X92035714Y-130859580D01*
X92035714Y-130859580D02*
X91988095Y-130764342D01*
X91988095Y-130764342D02*
X91988095Y-130526247D01*
X91988095Y-130526247D02*
X92035714Y-130431009D01*
X92035714Y-130431009D02*
X92083333Y-130383390D01*
X92083333Y-130383390D02*
X92178571Y-130335771D01*
X92178571Y-130335771D02*
X92369047Y-130335771D01*
X92369047Y-130335771D02*
X92464285Y-130383390D01*
X92464285Y-130383390D02*
X92511904Y-130431009D01*
X92511904Y-130431009D02*
X92559523Y-130526247D01*
X98454819Y-110404761D02*
X97978628Y-110071428D01*
X98454819Y-109833333D02*
X97454819Y-109833333D01*
X97454819Y-109833333D02*
X97454819Y-110214285D01*
X97454819Y-110214285D02*
X97502438Y-110309523D01*
X97502438Y-110309523D02*
X97550057Y-110357142D01*
X97550057Y-110357142D02*
X97645295Y-110404761D01*
X97645295Y-110404761D02*
X97788152Y-110404761D01*
X97788152Y-110404761D02*
X97883390Y-110357142D01*
X97883390Y-110357142D02*
X97931009Y-110309523D01*
X97931009Y-110309523D02*
X97978628Y-110214285D01*
X97978628Y-110214285D02*
X97978628Y-109833333D01*
X97454819Y-110690476D02*
X98454819Y-111023809D01*
X98454819Y-111023809D02*
X97454819Y-111357142D01*
X98454819Y-112214285D02*
X98454819Y-111642857D01*
X98454819Y-111928571D02*
X97454819Y-111928571D01*
X97454819Y-111928571D02*
X97597676Y-111833333D01*
X97597676Y-111833333D02*
X97692914Y-111738095D01*
X97692914Y-111738095D02*
X97740533Y-111642857D01*
X107859580Y-162307142D02*
X107907200Y-162259523D01*
X107907200Y-162259523D02*
X107954819Y-162116666D01*
X107954819Y-162116666D02*
X107954819Y-162021428D01*
X107954819Y-162021428D02*
X107907200Y-161878571D01*
X107907200Y-161878571D02*
X107811961Y-161783333D01*
X107811961Y-161783333D02*
X107716723Y-161735714D01*
X107716723Y-161735714D02*
X107526247Y-161688095D01*
X107526247Y-161688095D02*
X107383390Y-161688095D01*
X107383390Y-161688095D02*
X107192914Y-161735714D01*
X107192914Y-161735714D02*
X107097676Y-161783333D01*
X107097676Y-161783333D02*
X107002438Y-161878571D01*
X107002438Y-161878571D02*
X106954819Y-162021428D01*
X106954819Y-162021428D02*
X106954819Y-162116666D01*
X106954819Y-162116666D02*
X107002438Y-162259523D01*
X107002438Y-162259523D02*
X107050057Y-162307142D01*
X107050057Y-162688095D02*
X107002438Y-162735714D01*
X107002438Y-162735714D02*
X106954819Y-162830952D01*
X106954819Y-162830952D02*
X106954819Y-163069047D01*
X106954819Y-163069047D02*
X107002438Y-163164285D01*
X107002438Y-163164285D02*
X107050057Y-163211904D01*
X107050057Y-163211904D02*
X107145295Y-163259523D01*
X107145295Y-163259523D02*
X107240533Y-163259523D01*
X107240533Y-163259523D02*
X107383390Y-163211904D01*
X107383390Y-163211904D02*
X107954819Y-162640476D01*
X107954819Y-162640476D02*
X107954819Y-163259523D01*
X106954819Y-163592857D02*
X106954819Y-164259523D01*
X106954819Y-164259523D02*
X107954819Y-163830952D01*
X68392857Y-87954819D02*
X68726190Y-87478628D01*
X68964285Y-87954819D02*
X68964285Y-86954819D01*
X68964285Y-86954819D02*
X68583333Y-86954819D01*
X68583333Y-86954819D02*
X68488095Y-87002438D01*
X68488095Y-87002438D02*
X68440476Y-87050057D01*
X68440476Y-87050057D02*
X68392857Y-87145295D01*
X68392857Y-87145295D02*
X68392857Y-87288152D01*
X68392857Y-87288152D02*
X68440476Y-87383390D01*
X68440476Y-87383390D02*
X68488095Y-87431009D01*
X68488095Y-87431009D02*
X68583333Y-87478628D01*
X68583333Y-87478628D02*
X68964285Y-87478628D01*
X67440476Y-87954819D02*
X68011904Y-87954819D01*
X67726190Y-87954819D02*
X67726190Y-86954819D01*
X67726190Y-86954819D02*
X67821428Y-87097676D01*
X67821428Y-87097676D02*
X67916666Y-87192914D01*
X67916666Y-87192914D02*
X68011904Y-87240533D01*
X66583333Y-87288152D02*
X66583333Y-87954819D01*
X66821428Y-86907200D02*
X67059523Y-87621485D01*
X67059523Y-87621485D02*
X66440476Y-87621485D01*
X74454819Y-110011905D02*
X75264342Y-110011905D01*
X75264342Y-110011905D02*
X75359580Y-110059524D01*
X75359580Y-110059524D02*
X75407200Y-110107143D01*
X75407200Y-110107143D02*
X75454819Y-110202381D01*
X75454819Y-110202381D02*
X75454819Y-110392857D01*
X75454819Y-110392857D02*
X75407200Y-110488095D01*
X75407200Y-110488095D02*
X75359580Y-110535714D01*
X75359580Y-110535714D02*
X75264342Y-110583333D01*
X75264342Y-110583333D02*
X74454819Y-110583333D01*
X75454819Y-111583333D02*
X75454819Y-111011905D01*
X75454819Y-111297619D02*
X74454819Y-111297619D01*
X74454819Y-111297619D02*
X74597676Y-111202381D01*
X74597676Y-111202381D02*
X74692914Y-111107143D01*
X74692914Y-111107143D02*
X74740533Y-111011905D01*
X75454819Y-112535714D02*
X75454819Y-111964286D01*
X75454819Y-112250000D02*
X74454819Y-112250000D01*
X74454819Y-112250000D02*
X74597676Y-112154762D01*
X74597676Y-112154762D02*
X74692914Y-112059524D01*
X74692914Y-112059524D02*
X74740533Y-111964286D01*
X125677918Y-90109580D02*
X125725537Y-90157200D01*
X125725537Y-90157200D02*
X125868394Y-90204819D01*
X125868394Y-90204819D02*
X125963632Y-90204819D01*
X125963632Y-90204819D02*
X126106489Y-90157200D01*
X126106489Y-90157200D02*
X126201727Y-90061961D01*
X126201727Y-90061961D02*
X126249346Y-89966723D01*
X126249346Y-89966723D02*
X126296965Y-89776247D01*
X126296965Y-89776247D02*
X126296965Y-89633390D01*
X126296965Y-89633390D02*
X126249346Y-89442914D01*
X126249346Y-89442914D02*
X126201727Y-89347676D01*
X126201727Y-89347676D02*
X126106489Y-89252438D01*
X126106489Y-89252438D02*
X125963632Y-89204819D01*
X125963632Y-89204819D02*
X125868394Y-89204819D01*
X125868394Y-89204819D02*
X125725537Y-89252438D01*
X125725537Y-89252438D02*
X125677918Y-89300057D01*
X125106489Y-89633390D02*
X125201727Y-89585771D01*
X125201727Y-89585771D02*
X125249346Y-89538152D01*
X125249346Y-89538152D02*
X125296965Y-89442914D01*
X125296965Y-89442914D02*
X125296965Y-89395295D01*
X125296965Y-89395295D02*
X125249346Y-89300057D01*
X125249346Y-89300057D02*
X125201727Y-89252438D01*
X125201727Y-89252438D02*
X125106489Y-89204819D01*
X125106489Y-89204819D02*
X124916013Y-89204819D01*
X124916013Y-89204819D02*
X124820775Y-89252438D01*
X124820775Y-89252438D02*
X124773156Y-89300057D01*
X124773156Y-89300057D02*
X124725537Y-89395295D01*
X124725537Y-89395295D02*
X124725537Y-89442914D01*
X124725537Y-89442914D02*
X124773156Y-89538152D01*
X124773156Y-89538152D02*
X124820775Y-89585771D01*
X124820775Y-89585771D02*
X124916013Y-89633390D01*
X124916013Y-89633390D02*
X125106489Y-89633390D01*
X125106489Y-89633390D02*
X125201727Y-89681009D01*
X125201727Y-89681009D02*
X125249346Y-89728628D01*
X125249346Y-89728628D02*
X125296965Y-89823866D01*
X125296965Y-89823866D02*
X125296965Y-90014342D01*
X125296965Y-90014342D02*
X125249346Y-90109580D01*
X125249346Y-90109580D02*
X125201727Y-90157200D01*
X125201727Y-90157200D02*
X125106489Y-90204819D01*
X125106489Y-90204819D02*
X124916013Y-90204819D01*
X124916013Y-90204819D02*
X124820775Y-90157200D01*
X124820775Y-90157200D02*
X124773156Y-90109580D01*
X124773156Y-90109580D02*
X124725537Y-90014342D01*
X124725537Y-90014342D02*
X124725537Y-89823866D01*
X124725537Y-89823866D02*
X124773156Y-89728628D01*
X124773156Y-89728628D02*
X124820775Y-89681009D01*
X124820775Y-89681009D02*
X124916013Y-89633390D01*
X123859580Y-63357142D02*
X123907200Y-63309523D01*
X123907200Y-63309523D02*
X123954819Y-63166666D01*
X123954819Y-63166666D02*
X123954819Y-63071428D01*
X123954819Y-63071428D02*
X123907200Y-62928571D01*
X123907200Y-62928571D02*
X123811961Y-62833333D01*
X123811961Y-62833333D02*
X123716723Y-62785714D01*
X123716723Y-62785714D02*
X123526247Y-62738095D01*
X123526247Y-62738095D02*
X123383390Y-62738095D01*
X123383390Y-62738095D02*
X123192914Y-62785714D01*
X123192914Y-62785714D02*
X123097676Y-62833333D01*
X123097676Y-62833333D02*
X123002438Y-62928571D01*
X123002438Y-62928571D02*
X122954819Y-63071428D01*
X122954819Y-63071428D02*
X122954819Y-63166666D01*
X122954819Y-63166666D02*
X123002438Y-63309523D01*
X123002438Y-63309523D02*
X123050057Y-63357142D01*
X122954819Y-64261904D02*
X122954819Y-63785714D01*
X122954819Y-63785714D02*
X123431009Y-63738095D01*
X123431009Y-63738095D02*
X123383390Y-63785714D01*
X123383390Y-63785714D02*
X123335771Y-63880952D01*
X123335771Y-63880952D02*
X123335771Y-64119047D01*
X123335771Y-64119047D02*
X123383390Y-64214285D01*
X123383390Y-64214285D02*
X123431009Y-64261904D01*
X123431009Y-64261904D02*
X123526247Y-64309523D01*
X123526247Y-64309523D02*
X123764342Y-64309523D01*
X123764342Y-64309523D02*
X123859580Y-64261904D01*
X123859580Y-64261904D02*
X123907200Y-64214285D01*
X123907200Y-64214285D02*
X123954819Y-64119047D01*
X123954819Y-64119047D02*
X123954819Y-63880952D01*
X123954819Y-63880952D02*
X123907200Y-63785714D01*
X123907200Y-63785714D02*
X123859580Y-63738095D01*
X123383390Y-64880952D02*
X123335771Y-64785714D01*
X123335771Y-64785714D02*
X123288152Y-64738095D01*
X123288152Y-64738095D02*
X123192914Y-64690476D01*
X123192914Y-64690476D02*
X123145295Y-64690476D01*
X123145295Y-64690476D02*
X123050057Y-64738095D01*
X123050057Y-64738095D02*
X123002438Y-64785714D01*
X123002438Y-64785714D02*
X122954819Y-64880952D01*
X122954819Y-64880952D02*
X122954819Y-65071428D01*
X122954819Y-65071428D02*
X123002438Y-65166666D01*
X123002438Y-65166666D02*
X123050057Y-65214285D01*
X123050057Y-65214285D02*
X123145295Y-65261904D01*
X123145295Y-65261904D02*
X123192914Y-65261904D01*
X123192914Y-65261904D02*
X123288152Y-65214285D01*
X123288152Y-65214285D02*
X123335771Y-65166666D01*
X123335771Y-65166666D02*
X123383390Y-65071428D01*
X123383390Y-65071428D02*
X123383390Y-64880952D01*
X123383390Y-64880952D02*
X123431009Y-64785714D01*
X123431009Y-64785714D02*
X123478628Y-64738095D01*
X123478628Y-64738095D02*
X123573866Y-64690476D01*
X123573866Y-64690476D02*
X123764342Y-64690476D01*
X123764342Y-64690476D02*
X123859580Y-64738095D01*
X123859580Y-64738095D02*
X123907200Y-64785714D01*
X123907200Y-64785714D02*
X123954819Y-64880952D01*
X123954819Y-64880952D02*
X123954819Y-65071428D01*
X123954819Y-65071428D02*
X123907200Y-65166666D01*
X123907200Y-65166666D02*
X123859580Y-65214285D01*
X123859580Y-65214285D02*
X123764342Y-65261904D01*
X123764342Y-65261904D02*
X123573866Y-65261904D01*
X123573866Y-65261904D02*
X123478628Y-65214285D01*
X123478628Y-65214285D02*
X123431009Y-65166666D01*
X123431009Y-65166666D02*
X123383390Y-65071428D01*
X96166666Y-132359580D02*
X96214285Y-132407200D01*
X96214285Y-132407200D02*
X96357142Y-132454819D01*
X96357142Y-132454819D02*
X96452380Y-132454819D01*
X96452380Y-132454819D02*
X96595237Y-132407200D01*
X96595237Y-132407200D02*
X96690475Y-132311961D01*
X96690475Y-132311961D02*
X96738094Y-132216723D01*
X96738094Y-132216723D02*
X96785713Y-132026247D01*
X96785713Y-132026247D02*
X96785713Y-131883390D01*
X96785713Y-131883390D02*
X96738094Y-131692914D01*
X96738094Y-131692914D02*
X96690475Y-131597676D01*
X96690475Y-131597676D02*
X96595237Y-131502438D01*
X96595237Y-131502438D02*
X96452380Y-131454819D01*
X96452380Y-131454819D02*
X96357142Y-131454819D01*
X96357142Y-131454819D02*
X96214285Y-131502438D01*
X96214285Y-131502438D02*
X96166666Y-131550057D01*
X95214285Y-132454819D02*
X95785713Y-132454819D01*
X95499999Y-132454819D02*
X95499999Y-131454819D01*
X95499999Y-131454819D02*
X95595237Y-131597676D01*
X95595237Y-131597676D02*
X95690475Y-131692914D01*
X95690475Y-131692914D02*
X95785713Y-131740533D01*
X64892857Y-103859580D02*
X64940476Y-103907200D01*
X64940476Y-103907200D02*
X65083333Y-103954819D01*
X65083333Y-103954819D02*
X65178571Y-103954819D01*
X65178571Y-103954819D02*
X65321428Y-103907200D01*
X65321428Y-103907200D02*
X65416666Y-103811961D01*
X65416666Y-103811961D02*
X65464285Y-103716723D01*
X65464285Y-103716723D02*
X65511904Y-103526247D01*
X65511904Y-103526247D02*
X65511904Y-103383390D01*
X65511904Y-103383390D02*
X65464285Y-103192914D01*
X65464285Y-103192914D02*
X65416666Y-103097676D01*
X65416666Y-103097676D02*
X65321428Y-103002438D01*
X65321428Y-103002438D02*
X65178571Y-102954819D01*
X65178571Y-102954819D02*
X65083333Y-102954819D01*
X65083333Y-102954819D02*
X64940476Y-103002438D01*
X64940476Y-103002438D02*
X64892857Y-103050057D01*
X63940476Y-103954819D02*
X64511904Y-103954819D01*
X64226190Y-103954819D02*
X64226190Y-102954819D01*
X64226190Y-102954819D02*
X64321428Y-103097676D01*
X64321428Y-103097676D02*
X64416666Y-103192914D01*
X64416666Y-103192914D02*
X64511904Y-103240533D01*
X63035714Y-102954819D02*
X63511904Y-102954819D01*
X63511904Y-102954819D02*
X63559523Y-103431009D01*
X63559523Y-103431009D02*
X63511904Y-103383390D01*
X63511904Y-103383390D02*
X63416666Y-103335771D01*
X63416666Y-103335771D02*
X63178571Y-103335771D01*
X63178571Y-103335771D02*
X63083333Y-103383390D01*
X63083333Y-103383390D02*
X63035714Y-103431009D01*
X63035714Y-103431009D02*
X62988095Y-103526247D01*
X62988095Y-103526247D02*
X62988095Y-103764342D01*
X62988095Y-103764342D02*
X63035714Y-103859580D01*
X63035714Y-103859580D02*
X63083333Y-103907200D01*
X63083333Y-103907200D02*
X63178571Y-103954819D01*
X63178571Y-103954819D02*
X63416666Y-103954819D01*
X63416666Y-103954819D02*
X63511904Y-103907200D01*
X63511904Y-103907200D02*
X63559523Y-103859580D01*
X102333333Y-89181009D02*
X102666666Y-89181009D01*
X102666666Y-89704819D02*
X102666666Y-88704819D01*
X102666666Y-88704819D02*
X102190476Y-88704819D01*
X101476190Y-89181009D02*
X101333333Y-89228628D01*
X101333333Y-89228628D02*
X101285714Y-89276247D01*
X101285714Y-89276247D02*
X101238095Y-89371485D01*
X101238095Y-89371485D02*
X101238095Y-89514342D01*
X101238095Y-89514342D02*
X101285714Y-89609580D01*
X101285714Y-89609580D02*
X101333333Y-89657200D01*
X101333333Y-89657200D02*
X101428571Y-89704819D01*
X101428571Y-89704819D02*
X101809523Y-89704819D01*
X101809523Y-89704819D02*
X101809523Y-88704819D01*
X101809523Y-88704819D02*
X101476190Y-88704819D01*
X101476190Y-88704819D02*
X101380952Y-88752438D01*
X101380952Y-88752438D02*
X101333333Y-88800057D01*
X101333333Y-88800057D02*
X101285714Y-88895295D01*
X101285714Y-88895295D02*
X101285714Y-88990533D01*
X101285714Y-88990533D02*
X101333333Y-89085771D01*
X101333333Y-89085771D02*
X101380952Y-89133390D01*
X101380952Y-89133390D02*
X101476190Y-89181009D01*
X101476190Y-89181009D02*
X101809523Y-89181009D01*
X100904761Y-88704819D02*
X100285714Y-88704819D01*
X100285714Y-88704819D02*
X100619047Y-89085771D01*
X100619047Y-89085771D02*
X100476190Y-89085771D01*
X100476190Y-89085771D02*
X100380952Y-89133390D01*
X100380952Y-89133390D02*
X100333333Y-89181009D01*
X100333333Y-89181009D02*
X100285714Y-89276247D01*
X100285714Y-89276247D02*
X100285714Y-89514342D01*
X100285714Y-89514342D02*
X100333333Y-89609580D01*
X100333333Y-89609580D02*
X100380952Y-89657200D01*
X100380952Y-89657200D02*
X100476190Y-89704819D01*
X100476190Y-89704819D02*
X100761904Y-89704819D01*
X100761904Y-89704819D02*
X100857142Y-89657200D01*
X100857142Y-89657200D02*
X100904761Y-89609580D01*
X117142857Y-86954819D02*
X117476190Y-86478628D01*
X117714285Y-86954819D02*
X117714285Y-85954819D01*
X117714285Y-85954819D02*
X117333333Y-85954819D01*
X117333333Y-85954819D02*
X117238095Y-86002438D01*
X117238095Y-86002438D02*
X117190476Y-86050057D01*
X117190476Y-86050057D02*
X117142857Y-86145295D01*
X117142857Y-86145295D02*
X117142857Y-86288152D01*
X117142857Y-86288152D02*
X117190476Y-86383390D01*
X117190476Y-86383390D02*
X117238095Y-86431009D01*
X117238095Y-86431009D02*
X117333333Y-86478628D01*
X117333333Y-86478628D02*
X117714285Y-86478628D01*
X116761904Y-86050057D02*
X116714285Y-86002438D01*
X116714285Y-86002438D02*
X116619047Y-85954819D01*
X116619047Y-85954819D02*
X116380952Y-85954819D01*
X116380952Y-85954819D02*
X116285714Y-86002438D01*
X116285714Y-86002438D02*
X116238095Y-86050057D01*
X116238095Y-86050057D02*
X116190476Y-86145295D01*
X116190476Y-86145295D02*
X116190476Y-86240533D01*
X116190476Y-86240533D02*
X116238095Y-86383390D01*
X116238095Y-86383390D02*
X116809523Y-86954819D01*
X116809523Y-86954819D02*
X116190476Y-86954819D01*
X115809523Y-86050057D02*
X115761904Y-86002438D01*
X115761904Y-86002438D02*
X115666666Y-85954819D01*
X115666666Y-85954819D02*
X115428571Y-85954819D01*
X115428571Y-85954819D02*
X115333333Y-86002438D01*
X115333333Y-86002438D02*
X115285714Y-86050057D01*
X115285714Y-86050057D02*
X115238095Y-86145295D01*
X115238095Y-86145295D02*
X115238095Y-86240533D01*
X115238095Y-86240533D02*
X115285714Y-86383390D01*
X115285714Y-86383390D02*
X115857142Y-86954819D01*
X115857142Y-86954819D02*
X115238095Y-86954819D01*
X91416666Y-169609580D02*
X91464285Y-169657200D01*
X91464285Y-169657200D02*
X91607142Y-169704819D01*
X91607142Y-169704819D02*
X91702380Y-169704819D01*
X91702380Y-169704819D02*
X91845237Y-169657200D01*
X91845237Y-169657200D02*
X91940475Y-169561961D01*
X91940475Y-169561961D02*
X91988094Y-169466723D01*
X91988094Y-169466723D02*
X92035713Y-169276247D01*
X92035713Y-169276247D02*
X92035713Y-169133390D01*
X92035713Y-169133390D02*
X91988094Y-168942914D01*
X91988094Y-168942914D02*
X91940475Y-168847676D01*
X91940475Y-168847676D02*
X91845237Y-168752438D01*
X91845237Y-168752438D02*
X91702380Y-168704819D01*
X91702380Y-168704819D02*
X91607142Y-168704819D01*
X91607142Y-168704819D02*
X91464285Y-168752438D01*
X91464285Y-168752438D02*
X91416666Y-168800057D01*
X90559523Y-168704819D02*
X90749999Y-168704819D01*
X90749999Y-168704819D02*
X90845237Y-168752438D01*
X90845237Y-168752438D02*
X90892856Y-168800057D01*
X90892856Y-168800057D02*
X90988094Y-168942914D01*
X90988094Y-168942914D02*
X91035713Y-169133390D01*
X91035713Y-169133390D02*
X91035713Y-169514342D01*
X91035713Y-169514342D02*
X90988094Y-169609580D01*
X90988094Y-169609580D02*
X90940475Y-169657200D01*
X90940475Y-169657200D02*
X90845237Y-169704819D01*
X90845237Y-169704819D02*
X90654761Y-169704819D01*
X90654761Y-169704819D02*
X90559523Y-169657200D01*
X90559523Y-169657200D02*
X90511904Y-169609580D01*
X90511904Y-169609580D02*
X90464285Y-169514342D01*
X90464285Y-169514342D02*
X90464285Y-169276247D01*
X90464285Y-169276247D02*
X90511904Y-169181009D01*
X90511904Y-169181009D02*
X90559523Y-169133390D01*
X90559523Y-169133390D02*
X90654761Y-169085771D01*
X90654761Y-169085771D02*
X90845237Y-169085771D01*
X90845237Y-169085771D02*
X90940475Y-169133390D01*
X90940475Y-169133390D02*
X90988094Y-169181009D01*
X90988094Y-169181009D02*
X91035713Y-169276247D01*
X137859580Y-63357142D02*
X137907200Y-63309523D01*
X137907200Y-63309523D02*
X137954819Y-63166666D01*
X137954819Y-63166666D02*
X137954819Y-63071428D01*
X137954819Y-63071428D02*
X137907200Y-62928571D01*
X137907200Y-62928571D02*
X137811961Y-62833333D01*
X137811961Y-62833333D02*
X137716723Y-62785714D01*
X137716723Y-62785714D02*
X137526247Y-62738095D01*
X137526247Y-62738095D02*
X137383390Y-62738095D01*
X137383390Y-62738095D02*
X137192914Y-62785714D01*
X137192914Y-62785714D02*
X137097676Y-62833333D01*
X137097676Y-62833333D02*
X137002438Y-62928571D01*
X137002438Y-62928571D02*
X136954819Y-63071428D01*
X136954819Y-63071428D02*
X136954819Y-63166666D01*
X136954819Y-63166666D02*
X137002438Y-63309523D01*
X137002438Y-63309523D02*
X137050057Y-63357142D01*
X137954819Y-64309523D02*
X137954819Y-63738095D01*
X137954819Y-64023809D02*
X136954819Y-64023809D01*
X136954819Y-64023809D02*
X137097676Y-63928571D01*
X137097676Y-63928571D02*
X137192914Y-63833333D01*
X137192914Y-63833333D02*
X137240533Y-63738095D01*
X136954819Y-64642857D02*
X136954819Y-65309523D01*
X136954819Y-65309523D02*
X137954819Y-64880952D01*
X92392857Y-166704819D02*
X92726190Y-166228628D01*
X92964285Y-166704819D02*
X92964285Y-165704819D01*
X92964285Y-165704819D02*
X92583333Y-165704819D01*
X92583333Y-165704819D02*
X92488095Y-165752438D01*
X92488095Y-165752438D02*
X92440476Y-165800057D01*
X92440476Y-165800057D02*
X92392857Y-165895295D01*
X92392857Y-165895295D02*
X92392857Y-166038152D01*
X92392857Y-166038152D02*
X92440476Y-166133390D01*
X92440476Y-166133390D02*
X92488095Y-166181009D01*
X92488095Y-166181009D02*
X92583333Y-166228628D01*
X92583333Y-166228628D02*
X92964285Y-166228628D01*
X92011904Y-165800057D02*
X91964285Y-165752438D01*
X91964285Y-165752438D02*
X91869047Y-165704819D01*
X91869047Y-165704819D02*
X91630952Y-165704819D01*
X91630952Y-165704819D02*
X91535714Y-165752438D01*
X91535714Y-165752438D02*
X91488095Y-165800057D01*
X91488095Y-165800057D02*
X91440476Y-165895295D01*
X91440476Y-165895295D02*
X91440476Y-165990533D01*
X91440476Y-165990533D02*
X91488095Y-166133390D01*
X91488095Y-166133390D02*
X92059523Y-166704819D01*
X92059523Y-166704819D02*
X91440476Y-166704819D01*
X90821428Y-165704819D02*
X90726190Y-165704819D01*
X90726190Y-165704819D02*
X90630952Y-165752438D01*
X90630952Y-165752438D02*
X90583333Y-165800057D01*
X90583333Y-165800057D02*
X90535714Y-165895295D01*
X90535714Y-165895295D02*
X90488095Y-166085771D01*
X90488095Y-166085771D02*
X90488095Y-166323866D01*
X90488095Y-166323866D02*
X90535714Y-166514342D01*
X90535714Y-166514342D02*
X90583333Y-166609580D01*
X90583333Y-166609580D02*
X90630952Y-166657200D01*
X90630952Y-166657200D02*
X90726190Y-166704819D01*
X90726190Y-166704819D02*
X90821428Y-166704819D01*
X90821428Y-166704819D02*
X90916666Y-166657200D01*
X90916666Y-166657200D02*
X90964285Y-166609580D01*
X90964285Y-166609580D02*
X91011904Y-166514342D01*
X91011904Y-166514342D02*
X91059523Y-166323866D01*
X91059523Y-166323866D02*
X91059523Y-166085771D01*
X91059523Y-166085771D02*
X91011904Y-165895295D01*
X91011904Y-165895295D02*
X90964285Y-165800057D01*
X90964285Y-165800057D02*
X90916666Y-165752438D01*
X90916666Y-165752438D02*
X90821428Y-165704819D01*
X84954819Y-168761905D02*
X85764342Y-168761905D01*
X85764342Y-168761905D02*
X85859580Y-168809524D01*
X85859580Y-168809524D02*
X85907200Y-168857143D01*
X85907200Y-168857143D02*
X85954819Y-168952381D01*
X85954819Y-168952381D02*
X85954819Y-169142857D01*
X85954819Y-169142857D02*
X85907200Y-169238095D01*
X85907200Y-169238095D02*
X85859580Y-169285714D01*
X85859580Y-169285714D02*
X85764342Y-169333333D01*
X85764342Y-169333333D02*
X84954819Y-169333333D01*
X85954819Y-170333333D02*
X85954819Y-169761905D01*
X85954819Y-170047619D02*
X84954819Y-170047619D01*
X84954819Y-170047619D02*
X85097676Y-169952381D01*
X85097676Y-169952381D02*
X85192914Y-169857143D01*
X85192914Y-169857143D02*
X85240533Y-169761905D01*
X85383390Y-170904762D02*
X85335771Y-170809524D01*
X85335771Y-170809524D02*
X85288152Y-170761905D01*
X85288152Y-170761905D02*
X85192914Y-170714286D01*
X85192914Y-170714286D02*
X85145295Y-170714286D01*
X85145295Y-170714286D02*
X85050057Y-170761905D01*
X85050057Y-170761905D02*
X85002438Y-170809524D01*
X85002438Y-170809524D02*
X84954819Y-170904762D01*
X84954819Y-170904762D02*
X84954819Y-171095238D01*
X84954819Y-171095238D02*
X85002438Y-171190476D01*
X85002438Y-171190476D02*
X85050057Y-171238095D01*
X85050057Y-171238095D02*
X85145295Y-171285714D01*
X85145295Y-171285714D02*
X85192914Y-171285714D01*
X85192914Y-171285714D02*
X85288152Y-171238095D01*
X85288152Y-171238095D02*
X85335771Y-171190476D01*
X85335771Y-171190476D02*
X85383390Y-171095238D01*
X85383390Y-171095238D02*
X85383390Y-170904762D01*
X85383390Y-170904762D02*
X85431009Y-170809524D01*
X85431009Y-170809524D02*
X85478628Y-170761905D01*
X85478628Y-170761905D02*
X85573866Y-170714286D01*
X85573866Y-170714286D02*
X85764342Y-170714286D01*
X85764342Y-170714286D02*
X85859580Y-170761905D01*
X85859580Y-170761905D02*
X85907200Y-170809524D01*
X85907200Y-170809524D02*
X85954819Y-170904762D01*
X85954819Y-170904762D02*
X85954819Y-171095238D01*
X85954819Y-171095238D02*
X85907200Y-171190476D01*
X85907200Y-171190476D02*
X85859580Y-171238095D01*
X85859580Y-171238095D02*
X85764342Y-171285714D01*
X85764342Y-171285714D02*
X85573866Y-171285714D01*
X85573866Y-171285714D02*
X85478628Y-171238095D01*
X85478628Y-171238095D02*
X85431009Y-171190476D01*
X85431009Y-171190476D02*
X85383390Y-171095238D01*
X85095238Y-166704819D02*
X85428571Y-166228628D01*
X85666666Y-166704819D02*
X85666666Y-165704819D01*
X85666666Y-165704819D02*
X85285714Y-165704819D01*
X85285714Y-165704819D02*
X85190476Y-165752438D01*
X85190476Y-165752438D02*
X85142857Y-165800057D01*
X85142857Y-165800057D02*
X85095238Y-165895295D01*
X85095238Y-165895295D02*
X85095238Y-166038152D01*
X85095238Y-166038152D02*
X85142857Y-166133390D01*
X85142857Y-166133390D02*
X85190476Y-166181009D01*
X85190476Y-166181009D02*
X85285714Y-166228628D01*
X85285714Y-166228628D02*
X85666666Y-166228628D01*
X84809523Y-165704819D02*
X84476190Y-166704819D01*
X84476190Y-166704819D02*
X84142857Y-165704819D01*
X83333333Y-165704819D02*
X83809523Y-165704819D01*
X83809523Y-165704819D02*
X83857142Y-166181009D01*
X83857142Y-166181009D02*
X83809523Y-166133390D01*
X83809523Y-166133390D02*
X83714285Y-166085771D01*
X83714285Y-166085771D02*
X83476190Y-166085771D01*
X83476190Y-166085771D02*
X83380952Y-166133390D01*
X83380952Y-166133390D02*
X83333333Y-166181009D01*
X83333333Y-166181009D02*
X83285714Y-166276247D01*
X83285714Y-166276247D02*
X83285714Y-166514342D01*
X83285714Y-166514342D02*
X83333333Y-166609580D01*
X83333333Y-166609580D02*
X83380952Y-166657200D01*
X83380952Y-166657200D02*
X83476190Y-166704819D01*
X83476190Y-166704819D02*
X83714285Y-166704819D01*
X83714285Y-166704819D02*
X83809523Y-166657200D01*
X83809523Y-166657200D02*
X83857142Y-166609580D01*
X77595238Y-114204819D02*
X77928571Y-113728628D01*
X78166666Y-114204819D02*
X78166666Y-113204819D01*
X78166666Y-113204819D02*
X77785714Y-113204819D01*
X77785714Y-113204819D02*
X77690476Y-113252438D01*
X77690476Y-113252438D02*
X77642857Y-113300057D01*
X77642857Y-113300057D02*
X77595238Y-113395295D01*
X77595238Y-113395295D02*
X77595238Y-113538152D01*
X77595238Y-113538152D02*
X77642857Y-113633390D01*
X77642857Y-113633390D02*
X77690476Y-113681009D01*
X77690476Y-113681009D02*
X77785714Y-113728628D01*
X77785714Y-113728628D02*
X78166666Y-113728628D01*
X77309523Y-113204819D02*
X76976190Y-114204819D01*
X76976190Y-114204819D02*
X76642857Y-113204819D01*
X75880952Y-113538152D02*
X75880952Y-114204819D01*
X76119047Y-113157200D02*
X76357142Y-113871485D01*
X76357142Y-113871485D02*
X75738095Y-113871485D01*
X94804819Y-80625595D02*
X95614342Y-80625595D01*
X95614342Y-80625595D02*
X95709580Y-80673214D01*
X95709580Y-80673214D02*
X95757200Y-80720833D01*
X95757200Y-80720833D02*
X95804819Y-80816071D01*
X95804819Y-80816071D02*
X95804819Y-81006547D01*
X95804819Y-81006547D02*
X95757200Y-81101785D01*
X95757200Y-81101785D02*
X95709580Y-81149404D01*
X95709580Y-81149404D02*
X95614342Y-81197023D01*
X95614342Y-81197023D02*
X94804819Y-81197023D01*
X94804819Y-82101785D02*
X94804819Y-81911309D01*
X94804819Y-81911309D02*
X94852438Y-81816071D01*
X94852438Y-81816071D02*
X94900057Y-81768452D01*
X94900057Y-81768452D02*
X95042914Y-81673214D01*
X95042914Y-81673214D02*
X95233390Y-81625595D01*
X95233390Y-81625595D02*
X95614342Y-81625595D01*
X95614342Y-81625595D02*
X95709580Y-81673214D01*
X95709580Y-81673214D02*
X95757200Y-81720833D01*
X95757200Y-81720833D02*
X95804819Y-81816071D01*
X95804819Y-81816071D02*
X95804819Y-82006547D01*
X95804819Y-82006547D02*
X95757200Y-82101785D01*
X95757200Y-82101785D02*
X95709580Y-82149404D01*
X95709580Y-82149404D02*
X95614342Y-82197023D01*
X95614342Y-82197023D02*
X95376247Y-82197023D01*
X95376247Y-82197023D02*
X95281009Y-82149404D01*
X95281009Y-82149404D02*
X95233390Y-82101785D01*
X95233390Y-82101785D02*
X95185771Y-82006547D01*
X95185771Y-82006547D02*
X95185771Y-81816071D01*
X95185771Y-81816071D02*
X95233390Y-81720833D01*
X95233390Y-81720833D02*
X95281009Y-81673214D01*
X95281009Y-81673214D02*
X95376247Y-81625595D01*
X68392857Y-85609580D02*
X68440476Y-85657200D01*
X68440476Y-85657200D02*
X68583333Y-85704819D01*
X68583333Y-85704819D02*
X68678571Y-85704819D01*
X68678571Y-85704819D02*
X68821428Y-85657200D01*
X68821428Y-85657200D02*
X68916666Y-85561961D01*
X68916666Y-85561961D02*
X68964285Y-85466723D01*
X68964285Y-85466723D02*
X69011904Y-85276247D01*
X69011904Y-85276247D02*
X69011904Y-85133390D01*
X69011904Y-85133390D02*
X68964285Y-84942914D01*
X68964285Y-84942914D02*
X68916666Y-84847676D01*
X68916666Y-84847676D02*
X68821428Y-84752438D01*
X68821428Y-84752438D02*
X68678571Y-84704819D01*
X68678571Y-84704819D02*
X68583333Y-84704819D01*
X68583333Y-84704819D02*
X68440476Y-84752438D01*
X68440476Y-84752438D02*
X68392857Y-84800057D01*
X68059523Y-84704819D02*
X67440476Y-84704819D01*
X67440476Y-84704819D02*
X67773809Y-85085771D01*
X67773809Y-85085771D02*
X67630952Y-85085771D01*
X67630952Y-85085771D02*
X67535714Y-85133390D01*
X67535714Y-85133390D02*
X67488095Y-85181009D01*
X67488095Y-85181009D02*
X67440476Y-85276247D01*
X67440476Y-85276247D02*
X67440476Y-85514342D01*
X67440476Y-85514342D02*
X67488095Y-85609580D01*
X67488095Y-85609580D02*
X67535714Y-85657200D01*
X67535714Y-85657200D02*
X67630952Y-85704819D01*
X67630952Y-85704819D02*
X67916666Y-85704819D01*
X67916666Y-85704819D02*
X68011904Y-85657200D01*
X68011904Y-85657200D02*
X68059523Y-85609580D01*
X67059523Y-84800057D02*
X67011904Y-84752438D01*
X67011904Y-84752438D02*
X66916666Y-84704819D01*
X66916666Y-84704819D02*
X66678571Y-84704819D01*
X66678571Y-84704819D02*
X66583333Y-84752438D01*
X66583333Y-84752438D02*
X66535714Y-84800057D01*
X66535714Y-84800057D02*
X66488095Y-84895295D01*
X66488095Y-84895295D02*
X66488095Y-84990533D01*
X66488095Y-84990533D02*
X66535714Y-85133390D01*
X66535714Y-85133390D02*
X67107142Y-85704819D01*
X67107142Y-85704819D02*
X66488095Y-85704819D01*
X96738094Y-130954819D02*
X96738094Y-129954819D01*
X96738094Y-129954819D02*
X96499999Y-129954819D01*
X96499999Y-129954819D02*
X96357142Y-130002438D01*
X96357142Y-130002438D02*
X96261904Y-130097676D01*
X96261904Y-130097676D02*
X96214285Y-130192914D01*
X96214285Y-130192914D02*
X96166666Y-130383390D01*
X96166666Y-130383390D02*
X96166666Y-130526247D01*
X96166666Y-130526247D02*
X96214285Y-130716723D01*
X96214285Y-130716723D02*
X96261904Y-130811961D01*
X96261904Y-130811961D02*
X96357142Y-130907200D01*
X96357142Y-130907200D02*
X96499999Y-130954819D01*
X96499999Y-130954819D02*
X96738094Y-130954819D01*
X95214285Y-130954819D02*
X95785713Y-130954819D01*
X95499999Y-130954819D02*
X95499999Y-129954819D01*
X95499999Y-129954819D02*
X95595237Y-130097676D01*
X95595237Y-130097676D02*
X95690475Y-130192914D01*
X95690475Y-130192914D02*
X95785713Y-130240533D01*
X83954819Y-82285714D02*
X82954819Y-82285714D01*
X82954819Y-82285714D02*
X82954819Y-82523809D01*
X82954819Y-82523809D02*
X83002438Y-82666666D01*
X83002438Y-82666666D02*
X83097676Y-82761904D01*
X83097676Y-82761904D02*
X83192914Y-82809523D01*
X83192914Y-82809523D02*
X83383390Y-82857142D01*
X83383390Y-82857142D02*
X83526247Y-82857142D01*
X83526247Y-82857142D02*
X83716723Y-82809523D01*
X83716723Y-82809523D02*
X83811961Y-82761904D01*
X83811961Y-82761904D02*
X83907200Y-82666666D01*
X83907200Y-82666666D02*
X83954819Y-82523809D01*
X83954819Y-82523809D02*
X83954819Y-82285714D01*
X83954819Y-83809523D02*
X83954819Y-83238095D01*
X83954819Y-83523809D02*
X82954819Y-83523809D01*
X82954819Y-83523809D02*
X83097676Y-83428571D01*
X83097676Y-83428571D02*
X83192914Y-83333333D01*
X83192914Y-83333333D02*
X83240533Y-83238095D01*
X82954819Y-84666666D02*
X82954819Y-84476190D01*
X82954819Y-84476190D02*
X83002438Y-84380952D01*
X83002438Y-84380952D02*
X83050057Y-84333333D01*
X83050057Y-84333333D02*
X83192914Y-84238095D01*
X83192914Y-84238095D02*
X83383390Y-84190476D01*
X83383390Y-84190476D02*
X83764342Y-84190476D01*
X83764342Y-84190476D02*
X83859580Y-84238095D01*
X83859580Y-84238095D02*
X83907200Y-84285714D01*
X83907200Y-84285714D02*
X83954819Y-84380952D01*
X83954819Y-84380952D02*
X83954819Y-84571428D01*
X83954819Y-84571428D02*
X83907200Y-84666666D01*
X83907200Y-84666666D02*
X83859580Y-84714285D01*
X83859580Y-84714285D02*
X83764342Y-84761904D01*
X83764342Y-84761904D02*
X83526247Y-84761904D01*
X83526247Y-84761904D02*
X83431009Y-84714285D01*
X83431009Y-84714285D02*
X83383390Y-84666666D01*
X83383390Y-84666666D02*
X83335771Y-84571428D01*
X83335771Y-84571428D02*
X83335771Y-84380952D01*
X83335771Y-84380952D02*
X83383390Y-84285714D01*
X83383390Y-84285714D02*
X83431009Y-84238095D01*
X83431009Y-84238095D02*
X83526247Y-84190476D01*
X150642857Y-87879580D02*
X150690476Y-87927200D01*
X150690476Y-87927200D02*
X150833333Y-87974819D01*
X150833333Y-87974819D02*
X150928571Y-87974819D01*
X150928571Y-87974819D02*
X151071428Y-87927200D01*
X151071428Y-87927200D02*
X151166666Y-87831961D01*
X151166666Y-87831961D02*
X151214285Y-87736723D01*
X151214285Y-87736723D02*
X151261904Y-87546247D01*
X151261904Y-87546247D02*
X151261904Y-87403390D01*
X151261904Y-87403390D02*
X151214285Y-87212914D01*
X151214285Y-87212914D02*
X151166666Y-87117676D01*
X151166666Y-87117676D02*
X151071428Y-87022438D01*
X151071428Y-87022438D02*
X150928571Y-86974819D01*
X150928571Y-86974819D02*
X150833333Y-86974819D01*
X150833333Y-86974819D02*
X150690476Y-87022438D01*
X150690476Y-87022438D02*
X150642857Y-87070057D01*
X150261904Y-87070057D02*
X150214285Y-87022438D01*
X150214285Y-87022438D02*
X150119047Y-86974819D01*
X150119047Y-86974819D02*
X149880952Y-86974819D01*
X149880952Y-86974819D02*
X149785714Y-87022438D01*
X149785714Y-87022438D02*
X149738095Y-87070057D01*
X149738095Y-87070057D02*
X149690476Y-87165295D01*
X149690476Y-87165295D02*
X149690476Y-87260533D01*
X149690476Y-87260533D02*
X149738095Y-87403390D01*
X149738095Y-87403390D02*
X150309523Y-87974819D01*
X150309523Y-87974819D02*
X149690476Y-87974819D01*
X148833333Y-87308152D02*
X148833333Y-87974819D01*
X149071428Y-86927200D02*
X149309523Y-87641485D01*
X149309523Y-87641485D02*
X148690476Y-87641485D01*
X93511904Y-79704819D02*
X93511904Y-80514342D01*
X93511904Y-80514342D02*
X93464285Y-80609580D01*
X93464285Y-80609580D02*
X93416666Y-80657200D01*
X93416666Y-80657200D02*
X93321428Y-80704819D01*
X93321428Y-80704819D02*
X93130952Y-80704819D01*
X93130952Y-80704819D02*
X93035714Y-80657200D01*
X93035714Y-80657200D02*
X92988095Y-80609580D01*
X92988095Y-80609580D02*
X92940476Y-80514342D01*
X92940476Y-80514342D02*
X92940476Y-79704819D01*
X92559523Y-79704819D02*
X91892857Y-79704819D01*
X91892857Y-79704819D02*
X92321428Y-80704819D01*
X81142857Y-163704819D02*
X81476190Y-163228628D01*
X81714285Y-163704819D02*
X81714285Y-162704819D01*
X81714285Y-162704819D02*
X81333333Y-162704819D01*
X81333333Y-162704819D02*
X81238095Y-162752438D01*
X81238095Y-162752438D02*
X81190476Y-162800057D01*
X81190476Y-162800057D02*
X81142857Y-162895295D01*
X81142857Y-162895295D02*
X81142857Y-163038152D01*
X81142857Y-163038152D02*
X81190476Y-163133390D01*
X81190476Y-163133390D02*
X81238095Y-163181009D01*
X81238095Y-163181009D02*
X81333333Y-163228628D01*
X81333333Y-163228628D02*
X81714285Y-163228628D01*
X80190476Y-163704819D02*
X80761904Y-163704819D01*
X80476190Y-163704819D02*
X80476190Y-162704819D01*
X80476190Y-162704819D02*
X80571428Y-162847676D01*
X80571428Y-162847676D02*
X80666666Y-162942914D01*
X80666666Y-162942914D02*
X80761904Y-162990533D01*
X79285714Y-162704819D02*
X79761904Y-162704819D01*
X79761904Y-162704819D02*
X79809523Y-163181009D01*
X79809523Y-163181009D02*
X79761904Y-163133390D01*
X79761904Y-163133390D02*
X79666666Y-163085771D01*
X79666666Y-163085771D02*
X79428571Y-163085771D01*
X79428571Y-163085771D02*
X79333333Y-163133390D01*
X79333333Y-163133390D02*
X79285714Y-163181009D01*
X79285714Y-163181009D02*
X79238095Y-163276247D01*
X79238095Y-163276247D02*
X79238095Y-163514342D01*
X79238095Y-163514342D02*
X79285714Y-163609580D01*
X79285714Y-163609580D02*
X79333333Y-163657200D01*
X79333333Y-163657200D02*
X79428571Y-163704819D01*
X79428571Y-163704819D02*
X79666666Y-163704819D01*
X79666666Y-163704819D02*
X79761904Y-163657200D01*
X79761904Y-163657200D02*
X79809523Y-163609580D01*
X113359580Y-63357142D02*
X113407200Y-63309523D01*
X113407200Y-63309523D02*
X113454819Y-63166666D01*
X113454819Y-63166666D02*
X113454819Y-63071428D01*
X113454819Y-63071428D02*
X113407200Y-62928571D01*
X113407200Y-62928571D02*
X113311961Y-62833333D01*
X113311961Y-62833333D02*
X113216723Y-62785714D01*
X113216723Y-62785714D02*
X113026247Y-62738095D01*
X113026247Y-62738095D02*
X112883390Y-62738095D01*
X112883390Y-62738095D02*
X112692914Y-62785714D01*
X112692914Y-62785714D02*
X112597676Y-62833333D01*
X112597676Y-62833333D02*
X112502438Y-62928571D01*
X112502438Y-62928571D02*
X112454819Y-63071428D01*
X112454819Y-63071428D02*
X112454819Y-63166666D01*
X112454819Y-63166666D02*
X112502438Y-63309523D01*
X112502438Y-63309523D02*
X112550057Y-63357142D01*
X113454819Y-64309523D02*
X113454819Y-63738095D01*
X113454819Y-64023809D02*
X112454819Y-64023809D01*
X112454819Y-64023809D02*
X112597676Y-63928571D01*
X112597676Y-63928571D02*
X112692914Y-63833333D01*
X112692914Y-63833333D02*
X112740533Y-63738095D01*
X112454819Y-65166666D02*
X112454819Y-64976190D01*
X112454819Y-64976190D02*
X112502438Y-64880952D01*
X112502438Y-64880952D02*
X112550057Y-64833333D01*
X112550057Y-64833333D02*
X112692914Y-64738095D01*
X112692914Y-64738095D02*
X112883390Y-64690476D01*
X112883390Y-64690476D02*
X113264342Y-64690476D01*
X113264342Y-64690476D02*
X113359580Y-64738095D01*
X113359580Y-64738095D02*
X113407200Y-64785714D01*
X113407200Y-64785714D02*
X113454819Y-64880952D01*
X113454819Y-64880952D02*
X113454819Y-65071428D01*
X113454819Y-65071428D02*
X113407200Y-65166666D01*
X113407200Y-65166666D02*
X113359580Y-65214285D01*
X113359580Y-65214285D02*
X113264342Y-65261904D01*
X113264342Y-65261904D02*
X113026247Y-65261904D01*
X113026247Y-65261904D02*
X112931009Y-65214285D01*
X112931009Y-65214285D02*
X112883390Y-65166666D01*
X112883390Y-65166666D02*
X112835771Y-65071428D01*
X112835771Y-65071428D02*
X112835771Y-64880952D01*
X112835771Y-64880952D02*
X112883390Y-64785714D01*
X112883390Y-64785714D02*
X112931009Y-64738095D01*
X112931009Y-64738095D02*
X113026247Y-64690476D01*
X99416666Y-91954819D02*
X99749999Y-91478628D01*
X99988094Y-91954819D02*
X99988094Y-90954819D01*
X99988094Y-90954819D02*
X99607142Y-90954819D01*
X99607142Y-90954819D02*
X99511904Y-91002438D01*
X99511904Y-91002438D02*
X99464285Y-91050057D01*
X99464285Y-91050057D02*
X99416666Y-91145295D01*
X99416666Y-91145295D02*
X99416666Y-91288152D01*
X99416666Y-91288152D02*
X99464285Y-91383390D01*
X99464285Y-91383390D02*
X99511904Y-91431009D01*
X99511904Y-91431009D02*
X99607142Y-91478628D01*
X99607142Y-91478628D02*
X99988094Y-91478628D01*
X98464285Y-91954819D02*
X99035713Y-91954819D01*
X98749999Y-91954819D02*
X98749999Y-90954819D01*
X98749999Y-90954819D02*
X98845237Y-91097676D01*
X98845237Y-91097676D02*
X98940475Y-91192914D01*
X98940475Y-91192914D02*
X99035713Y-91240533D01*
X81166666Y-162454819D02*
X81499999Y-161978628D01*
X81738094Y-162454819D02*
X81738094Y-161454819D01*
X81738094Y-161454819D02*
X81357142Y-161454819D01*
X81357142Y-161454819D02*
X81261904Y-161502438D01*
X81261904Y-161502438D02*
X81214285Y-161550057D01*
X81214285Y-161550057D02*
X81166666Y-161645295D01*
X81166666Y-161645295D02*
X81166666Y-161788152D01*
X81166666Y-161788152D02*
X81214285Y-161883390D01*
X81214285Y-161883390D02*
X81261904Y-161931009D01*
X81261904Y-161931009D02*
X81357142Y-161978628D01*
X81357142Y-161978628D02*
X81738094Y-161978628D01*
X80785713Y-161550057D02*
X80738094Y-161502438D01*
X80738094Y-161502438D02*
X80642856Y-161454819D01*
X80642856Y-161454819D02*
X80404761Y-161454819D01*
X80404761Y-161454819D02*
X80309523Y-161502438D01*
X80309523Y-161502438D02*
X80261904Y-161550057D01*
X80261904Y-161550057D02*
X80214285Y-161645295D01*
X80214285Y-161645295D02*
X80214285Y-161740533D01*
X80214285Y-161740533D02*
X80261904Y-161883390D01*
X80261904Y-161883390D02*
X80833332Y-162454819D01*
X80833332Y-162454819D02*
X80214285Y-162454819D01*
X103704819Y-82535714D02*
X102704819Y-82535714D01*
X102704819Y-82535714D02*
X102704819Y-82773809D01*
X102704819Y-82773809D02*
X102752438Y-82916666D01*
X102752438Y-82916666D02*
X102847676Y-83011904D01*
X102847676Y-83011904D02*
X102942914Y-83059523D01*
X102942914Y-83059523D02*
X103133390Y-83107142D01*
X103133390Y-83107142D02*
X103276247Y-83107142D01*
X103276247Y-83107142D02*
X103466723Y-83059523D01*
X103466723Y-83059523D02*
X103561961Y-83011904D01*
X103561961Y-83011904D02*
X103657200Y-82916666D01*
X103657200Y-82916666D02*
X103704819Y-82773809D01*
X103704819Y-82773809D02*
X103704819Y-82535714D01*
X103704819Y-84059523D02*
X103704819Y-83488095D01*
X103704819Y-83773809D02*
X102704819Y-83773809D01*
X102704819Y-83773809D02*
X102847676Y-83678571D01*
X102847676Y-83678571D02*
X102942914Y-83583333D01*
X102942914Y-83583333D02*
X102990533Y-83488095D01*
X102800057Y-84440476D02*
X102752438Y-84488095D01*
X102752438Y-84488095D02*
X102704819Y-84583333D01*
X102704819Y-84583333D02*
X102704819Y-84821428D01*
X102704819Y-84821428D02*
X102752438Y-84916666D01*
X102752438Y-84916666D02*
X102800057Y-84964285D01*
X102800057Y-84964285D02*
X102895295Y-85011904D01*
X102895295Y-85011904D02*
X102990533Y-85011904D01*
X102990533Y-85011904D02*
X103133390Y-84964285D01*
X103133390Y-84964285D02*
X103704819Y-84392857D01*
X103704819Y-84392857D02*
X103704819Y-85011904D01*
X60642857Y-69454819D02*
X60976190Y-68978628D01*
X61214285Y-69454819D02*
X61214285Y-68454819D01*
X61214285Y-68454819D02*
X60833333Y-68454819D01*
X60833333Y-68454819D02*
X60738095Y-68502438D01*
X60738095Y-68502438D02*
X60690476Y-68550057D01*
X60690476Y-68550057D02*
X60642857Y-68645295D01*
X60642857Y-68645295D02*
X60642857Y-68788152D01*
X60642857Y-68788152D02*
X60690476Y-68883390D01*
X60690476Y-68883390D02*
X60738095Y-68931009D01*
X60738095Y-68931009D02*
X60833333Y-68978628D01*
X60833333Y-68978628D02*
X61214285Y-68978628D01*
X59690476Y-69454819D02*
X60261904Y-69454819D01*
X59976190Y-69454819D02*
X59976190Y-68454819D01*
X59976190Y-68454819D02*
X60071428Y-68597676D01*
X60071428Y-68597676D02*
X60166666Y-68692914D01*
X60166666Y-68692914D02*
X60261904Y-68740533D01*
X59309523Y-68550057D02*
X59261904Y-68502438D01*
X59261904Y-68502438D02*
X59166666Y-68454819D01*
X59166666Y-68454819D02*
X58928571Y-68454819D01*
X58928571Y-68454819D02*
X58833333Y-68502438D01*
X58833333Y-68502438D02*
X58785714Y-68550057D01*
X58785714Y-68550057D02*
X58738095Y-68645295D01*
X58738095Y-68645295D02*
X58738095Y-68740533D01*
X58738095Y-68740533D02*
X58785714Y-68883390D01*
X58785714Y-68883390D02*
X59357142Y-69454819D01*
X59357142Y-69454819D02*
X58738095Y-69454819D01*
X107859580Y-166057142D02*
X107907200Y-166009523D01*
X107907200Y-166009523D02*
X107954819Y-165866666D01*
X107954819Y-165866666D02*
X107954819Y-165771428D01*
X107954819Y-165771428D02*
X107907200Y-165628571D01*
X107907200Y-165628571D02*
X107811961Y-165533333D01*
X107811961Y-165533333D02*
X107716723Y-165485714D01*
X107716723Y-165485714D02*
X107526247Y-165438095D01*
X107526247Y-165438095D02*
X107383390Y-165438095D01*
X107383390Y-165438095D02*
X107192914Y-165485714D01*
X107192914Y-165485714D02*
X107097676Y-165533333D01*
X107097676Y-165533333D02*
X107002438Y-165628571D01*
X107002438Y-165628571D02*
X106954819Y-165771428D01*
X106954819Y-165771428D02*
X106954819Y-165866666D01*
X106954819Y-165866666D02*
X107002438Y-166009523D01*
X107002438Y-166009523D02*
X107050057Y-166057142D01*
X107050057Y-166438095D02*
X107002438Y-166485714D01*
X107002438Y-166485714D02*
X106954819Y-166580952D01*
X106954819Y-166580952D02*
X106954819Y-166819047D01*
X106954819Y-166819047D02*
X107002438Y-166914285D01*
X107002438Y-166914285D02*
X107050057Y-166961904D01*
X107050057Y-166961904D02*
X107145295Y-167009523D01*
X107145295Y-167009523D02*
X107240533Y-167009523D01*
X107240533Y-167009523D02*
X107383390Y-166961904D01*
X107383390Y-166961904D02*
X107954819Y-166390476D01*
X107954819Y-166390476D02*
X107954819Y-167009523D01*
X106954819Y-167342857D02*
X106954819Y-167961904D01*
X106954819Y-167961904D02*
X107335771Y-167628571D01*
X107335771Y-167628571D02*
X107335771Y-167771428D01*
X107335771Y-167771428D02*
X107383390Y-167866666D01*
X107383390Y-167866666D02*
X107431009Y-167914285D01*
X107431009Y-167914285D02*
X107526247Y-167961904D01*
X107526247Y-167961904D02*
X107764342Y-167961904D01*
X107764342Y-167961904D02*
X107859580Y-167914285D01*
X107859580Y-167914285D02*
X107907200Y-167866666D01*
X107907200Y-167866666D02*
X107954819Y-167771428D01*
X107954819Y-167771428D02*
X107954819Y-167485714D01*
X107954819Y-167485714D02*
X107907200Y-167390476D01*
X107907200Y-167390476D02*
X107859580Y-167342857D01*
X132916666Y-80454819D02*
X133249999Y-79978628D01*
X133488094Y-80454819D02*
X133488094Y-79454819D01*
X133488094Y-79454819D02*
X133107142Y-79454819D01*
X133107142Y-79454819D02*
X133011904Y-79502438D01*
X133011904Y-79502438D02*
X132964285Y-79550057D01*
X132964285Y-79550057D02*
X132916666Y-79645295D01*
X132916666Y-79645295D02*
X132916666Y-79788152D01*
X132916666Y-79788152D02*
X132964285Y-79883390D01*
X132964285Y-79883390D02*
X133011904Y-79931009D01*
X133011904Y-79931009D02*
X133107142Y-79978628D01*
X133107142Y-79978628D02*
X133488094Y-79978628D01*
X132059523Y-79788152D02*
X132059523Y-80454819D01*
X132297618Y-79407200D02*
X132535713Y-80121485D01*
X132535713Y-80121485D02*
X131916666Y-80121485D01*
X67704819Y-79511905D02*
X66704819Y-79511905D01*
X66704819Y-79511905D02*
X66704819Y-79750000D01*
X66704819Y-79750000D02*
X66752438Y-79892857D01*
X66752438Y-79892857D02*
X66847676Y-79988095D01*
X66847676Y-79988095D02*
X66942914Y-80035714D01*
X66942914Y-80035714D02*
X67133390Y-80083333D01*
X67133390Y-80083333D02*
X67276247Y-80083333D01*
X67276247Y-80083333D02*
X67466723Y-80035714D01*
X67466723Y-80035714D02*
X67561961Y-79988095D01*
X67561961Y-79988095D02*
X67657200Y-79892857D01*
X67657200Y-79892857D02*
X67704819Y-79750000D01*
X67704819Y-79750000D02*
X67704819Y-79511905D01*
X66704819Y-80940476D02*
X66704819Y-80750000D01*
X66704819Y-80750000D02*
X66752438Y-80654762D01*
X66752438Y-80654762D02*
X66800057Y-80607143D01*
X66800057Y-80607143D02*
X66942914Y-80511905D01*
X66942914Y-80511905D02*
X67133390Y-80464286D01*
X67133390Y-80464286D02*
X67514342Y-80464286D01*
X67514342Y-80464286D02*
X67609580Y-80511905D01*
X67609580Y-80511905D02*
X67657200Y-80559524D01*
X67657200Y-80559524D02*
X67704819Y-80654762D01*
X67704819Y-80654762D02*
X67704819Y-80845238D01*
X67704819Y-80845238D02*
X67657200Y-80940476D01*
X67657200Y-80940476D02*
X67609580Y-80988095D01*
X67609580Y-80988095D02*
X67514342Y-81035714D01*
X67514342Y-81035714D02*
X67276247Y-81035714D01*
X67276247Y-81035714D02*
X67181009Y-80988095D01*
X67181009Y-80988095D02*
X67133390Y-80940476D01*
X67133390Y-80940476D02*
X67085771Y-80845238D01*
X67085771Y-80845238D02*
X67085771Y-80654762D01*
X67085771Y-80654762D02*
X67133390Y-80559524D01*
X67133390Y-80559524D02*
X67181009Y-80511905D01*
X67181009Y-80511905D02*
X67276247Y-80464286D01*
X81142857Y-168204819D02*
X81476190Y-167728628D01*
X81714285Y-168204819D02*
X81714285Y-167204819D01*
X81714285Y-167204819D02*
X81333333Y-167204819D01*
X81333333Y-167204819D02*
X81238095Y-167252438D01*
X81238095Y-167252438D02*
X81190476Y-167300057D01*
X81190476Y-167300057D02*
X81142857Y-167395295D01*
X81142857Y-167395295D02*
X81142857Y-167538152D01*
X81142857Y-167538152D02*
X81190476Y-167633390D01*
X81190476Y-167633390D02*
X81238095Y-167681009D01*
X81238095Y-167681009D02*
X81333333Y-167728628D01*
X81333333Y-167728628D02*
X81714285Y-167728628D01*
X80761904Y-167300057D02*
X80714285Y-167252438D01*
X80714285Y-167252438D02*
X80619047Y-167204819D01*
X80619047Y-167204819D02*
X80380952Y-167204819D01*
X80380952Y-167204819D02*
X80285714Y-167252438D01*
X80285714Y-167252438D02*
X80238095Y-167300057D01*
X80238095Y-167300057D02*
X80190476Y-167395295D01*
X80190476Y-167395295D02*
X80190476Y-167490533D01*
X80190476Y-167490533D02*
X80238095Y-167633390D01*
X80238095Y-167633390D02*
X80809523Y-168204819D01*
X80809523Y-168204819D02*
X80190476Y-168204819D01*
X79285714Y-167204819D02*
X79761904Y-167204819D01*
X79761904Y-167204819D02*
X79809523Y-167681009D01*
X79809523Y-167681009D02*
X79761904Y-167633390D01*
X79761904Y-167633390D02*
X79666666Y-167585771D01*
X79666666Y-167585771D02*
X79428571Y-167585771D01*
X79428571Y-167585771D02*
X79333333Y-167633390D01*
X79333333Y-167633390D02*
X79285714Y-167681009D01*
X79285714Y-167681009D02*
X79238095Y-167776247D01*
X79238095Y-167776247D02*
X79238095Y-168014342D01*
X79238095Y-168014342D02*
X79285714Y-168109580D01*
X79285714Y-168109580D02*
X79333333Y-168157200D01*
X79333333Y-168157200D02*
X79428571Y-168204819D01*
X79428571Y-168204819D02*
X79666666Y-168204819D01*
X79666666Y-168204819D02*
X79761904Y-168157200D01*
X79761904Y-168157200D02*
X79809523Y-168109580D01*
X93030654Y-120245444D02*
X93030654Y-121054967D01*
X93030654Y-121054967D02*
X92983035Y-121150205D01*
X92983035Y-121150205D02*
X92935416Y-121197825D01*
X92935416Y-121197825D02*
X92840178Y-121245444D01*
X92840178Y-121245444D02*
X92649702Y-121245444D01*
X92649702Y-121245444D02*
X92554464Y-121197825D01*
X92554464Y-121197825D02*
X92506845Y-121150205D01*
X92506845Y-121150205D02*
X92459226Y-121054967D01*
X92459226Y-121054967D02*
X92459226Y-120245444D01*
X91554464Y-120578777D02*
X91554464Y-121245444D01*
X91792559Y-120197825D02*
X92030654Y-120912110D01*
X92030654Y-120912110D02*
X91411607Y-120912110D01*
X87392857Y-80454819D02*
X87726190Y-79978628D01*
X87964285Y-80454819D02*
X87964285Y-79454819D01*
X87964285Y-79454819D02*
X87583333Y-79454819D01*
X87583333Y-79454819D02*
X87488095Y-79502438D01*
X87488095Y-79502438D02*
X87440476Y-79550057D01*
X87440476Y-79550057D02*
X87392857Y-79645295D01*
X87392857Y-79645295D02*
X87392857Y-79788152D01*
X87392857Y-79788152D02*
X87440476Y-79883390D01*
X87440476Y-79883390D02*
X87488095Y-79931009D01*
X87488095Y-79931009D02*
X87583333Y-79978628D01*
X87583333Y-79978628D02*
X87964285Y-79978628D01*
X86440476Y-80454819D02*
X87011904Y-80454819D01*
X86726190Y-80454819D02*
X86726190Y-79454819D01*
X86726190Y-79454819D02*
X86821428Y-79597676D01*
X86821428Y-79597676D02*
X86916666Y-79692914D01*
X86916666Y-79692914D02*
X87011904Y-79740533D01*
X85583333Y-79454819D02*
X85773809Y-79454819D01*
X85773809Y-79454819D02*
X85869047Y-79502438D01*
X85869047Y-79502438D02*
X85916666Y-79550057D01*
X85916666Y-79550057D02*
X86011904Y-79692914D01*
X86011904Y-79692914D02*
X86059523Y-79883390D01*
X86059523Y-79883390D02*
X86059523Y-80264342D01*
X86059523Y-80264342D02*
X86011904Y-80359580D01*
X86011904Y-80359580D02*
X85964285Y-80407200D01*
X85964285Y-80407200D02*
X85869047Y-80454819D01*
X85869047Y-80454819D02*
X85678571Y-80454819D01*
X85678571Y-80454819D02*
X85583333Y-80407200D01*
X85583333Y-80407200D02*
X85535714Y-80359580D01*
X85535714Y-80359580D02*
X85488095Y-80264342D01*
X85488095Y-80264342D02*
X85488095Y-80026247D01*
X85488095Y-80026247D02*
X85535714Y-79931009D01*
X85535714Y-79931009D02*
X85583333Y-79883390D01*
X85583333Y-79883390D02*
X85678571Y-79835771D01*
X85678571Y-79835771D02*
X85869047Y-79835771D01*
X85869047Y-79835771D02*
X85964285Y-79883390D01*
X85964285Y-79883390D02*
X86011904Y-79931009D01*
X86011904Y-79931009D02*
X86059523Y-80026247D01*
X81142857Y-169704819D02*
X81476190Y-169228628D01*
X81714285Y-169704819D02*
X81714285Y-168704819D01*
X81714285Y-168704819D02*
X81333333Y-168704819D01*
X81333333Y-168704819D02*
X81238095Y-168752438D01*
X81238095Y-168752438D02*
X81190476Y-168800057D01*
X81190476Y-168800057D02*
X81142857Y-168895295D01*
X81142857Y-168895295D02*
X81142857Y-169038152D01*
X81142857Y-169038152D02*
X81190476Y-169133390D01*
X81190476Y-169133390D02*
X81238095Y-169181009D01*
X81238095Y-169181009D02*
X81333333Y-169228628D01*
X81333333Y-169228628D02*
X81714285Y-169228628D01*
X80190476Y-169704819D02*
X80761904Y-169704819D01*
X80476190Y-169704819D02*
X80476190Y-168704819D01*
X80476190Y-168704819D02*
X80571428Y-168847676D01*
X80571428Y-168847676D02*
X80666666Y-168942914D01*
X80666666Y-168942914D02*
X80761904Y-168990533D01*
X79714285Y-169704819D02*
X79523809Y-169704819D01*
X79523809Y-169704819D02*
X79428571Y-169657200D01*
X79428571Y-169657200D02*
X79380952Y-169609580D01*
X79380952Y-169609580D02*
X79285714Y-169466723D01*
X79285714Y-169466723D02*
X79238095Y-169276247D01*
X79238095Y-169276247D02*
X79238095Y-168895295D01*
X79238095Y-168895295D02*
X79285714Y-168800057D01*
X79285714Y-168800057D02*
X79333333Y-168752438D01*
X79333333Y-168752438D02*
X79428571Y-168704819D01*
X79428571Y-168704819D02*
X79619047Y-168704819D01*
X79619047Y-168704819D02*
X79714285Y-168752438D01*
X79714285Y-168752438D02*
X79761904Y-168800057D01*
X79761904Y-168800057D02*
X79809523Y-168895295D01*
X79809523Y-168895295D02*
X79809523Y-169133390D01*
X79809523Y-169133390D02*
X79761904Y-169228628D01*
X79761904Y-169228628D02*
X79714285Y-169276247D01*
X79714285Y-169276247D02*
X79619047Y-169323866D01*
X79619047Y-169323866D02*
X79428571Y-169323866D01*
X79428571Y-169323866D02*
X79333333Y-169276247D01*
X79333333Y-169276247D02*
X79285714Y-169228628D01*
X79285714Y-169228628D02*
X79238095Y-169133390D01*
X79488094Y-105954819D02*
X79488094Y-104954819D01*
X79488094Y-104954819D02*
X79249999Y-104954819D01*
X79249999Y-104954819D02*
X79107142Y-105002438D01*
X79107142Y-105002438D02*
X79011904Y-105097676D01*
X79011904Y-105097676D02*
X78964285Y-105192914D01*
X78964285Y-105192914D02*
X78916666Y-105383390D01*
X78916666Y-105383390D02*
X78916666Y-105526247D01*
X78916666Y-105526247D02*
X78964285Y-105716723D01*
X78964285Y-105716723D02*
X79011904Y-105811961D01*
X79011904Y-105811961D02*
X79107142Y-105907200D01*
X79107142Y-105907200D02*
X79249999Y-105954819D01*
X79249999Y-105954819D02*
X79488094Y-105954819D01*
X78583332Y-104954819D02*
X77964285Y-104954819D01*
X77964285Y-104954819D02*
X78297618Y-105335771D01*
X78297618Y-105335771D02*
X78154761Y-105335771D01*
X78154761Y-105335771D02*
X78059523Y-105383390D01*
X78059523Y-105383390D02*
X78011904Y-105431009D01*
X78011904Y-105431009D02*
X77964285Y-105526247D01*
X77964285Y-105526247D02*
X77964285Y-105764342D01*
X77964285Y-105764342D02*
X78011904Y-105859580D01*
X78011904Y-105859580D02*
X78059523Y-105907200D01*
X78059523Y-105907200D02*
X78154761Y-105954819D01*
X78154761Y-105954819D02*
X78440475Y-105954819D01*
X78440475Y-105954819D02*
X78535713Y-105907200D01*
X78535713Y-105907200D02*
X78583332Y-105859580D01*
X83929580Y-88337142D02*
X83977200Y-88289523D01*
X83977200Y-88289523D02*
X84024819Y-88146666D01*
X84024819Y-88146666D02*
X84024819Y-88051428D01*
X84024819Y-88051428D02*
X83977200Y-87908571D01*
X83977200Y-87908571D02*
X83881961Y-87813333D01*
X83881961Y-87813333D02*
X83786723Y-87765714D01*
X83786723Y-87765714D02*
X83596247Y-87718095D01*
X83596247Y-87718095D02*
X83453390Y-87718095D01*
X83453390Y-87718095D02*
X83262914Y-87765714D01*
X83262914Y-87765714D02*
X83167676Y-87813333D01*
X83167676Y-87813333D02*
X83072438Y-87908571D01*
X83072438Y-87908571D02*
X83024819Y-88051428D01*
X83024819Y-88051428D02*
X83024819Y-88146666D01*
X83024819Y-88146666D02*
X83072438Y-88289523D01*
X83072438Y-88289523D02*
X83120057Y-88337142D01*
X84024819Y-89289523D02*
X84024819Y-88718095D01*
X84024819Y-89003809D02*
X83024819Y-89003809D01*
X83024819Y-89003809D02*
X83167676Y-88908571D01*
X83167676Y-88908571D02*
X83262914Y-88813333D01*
X83262914Y-88813333D02*
X83310533Y-88718095D01*
X83024819Y-89622857D02*
X83024819Y-90241904D01*
X83024819Y-90241904D02*
X83405771Y-89908571D01*
X83405771Y-89908571D02*
X83405771Y-90051428D01*
X83405771Y-90051428D02*
X83453390Y-90146666D01*
X83453390Y-90146666D02*
X83501009Y-90194285D01*
X83501009Y-90194285D02*
X83596247Y-90241904D01*
X83596247Y-90241904D02*
X83834342Y-90241904D01*
X83834342Y-90241904D02*
X83929580Y-90194285D01*
X83929580Y-90194285D02*
X83977200Y-90146666D01*
X83977200Y-90146666D02*
X84024819Y-90051428D01*
X84024819Y-90051428D02*
X84024819Y-89765714D01*
X84024819Y-89765714D02*
X83977200Y-89670476D01*
X83977200Y-89670476D02*
X83929580Y-89622857D01*
X102333333Y-87681009D02*
X102666666Y-87681009D01*
X102666666Y-88204819D02*
X102666666Y-87204819D01*
X102666666Y-87204819D02*
X102190476Y-87204819D01*
X101476190Y-87681009D02*
X101333333Y-87728628D01*
X101333333Y-87728628D02*
X101285714Y-87776247D01*
X101285714Y-87776247D02*
X101238095Y-87871485D01*
X101238095Y-87871485D02*
X101238095Y-88014342D01*
X101238095Y-88014342D02*
X101285714Y-88109580D01*
X101285714Y-88109580D02*
X101333333Y-88157200D01*
X101333333Y-88157200D02*
X101428571Y-88204819D01*
X101428571Y-88204819D02*
X101809523Y-88204819D01*
X101809523Y-88204819D02*
X101809523Y-87204819D01*
X101809523Y-87204819D02*
X101476190Y-87204819D01*
X101476190Y-87204819D02*
X101380952Y-87252438D01*
X101380952Y-87252438D02*
X101333333Y-87300057D01*
X101333333Y-87300057D02*
X101285714Y-87395295D01*
X101285714Y-87395295D02*
X101285714Y-87490533D01*
X101285714Y-87490533D02*
X101333333Y-87585771D01*
X101333333Y-87585771D02*
X101380952Y-87633390D01*
X101380952Y-87633390D02*
X101476190Y-87681009D01*
X101476190Y-87681009D02*
X101809523Y-87681009D01*
X100380952Y-87538152D02*
X100380952Y-88204819D01*
X100619047Y-87157200D02*
X100857142Y-87871485D01*
X100857142Y-87871485D02*
X100238095Y-87871485D01*
X90892857Y-132359580D02*
X90940476Y-132407200D01*
X90940476Y-132407200D02*
X91083333Y-132454819D01*
X91083333Y-132454819D02*
X91178571Y-132454819D01*
X91178571Y-132454819D02*
X91321428Y-132407200D01*
X91321428Y-132407200D02*
X91416666Y-132311961D01*
X91416666Y-132311961D02*
X91464285Y-132216723D01*
X91464285Y-132216723D02*
X91511904Y-132026247D01*
X91511904Y-132026247D02*
X91511904Y-131883390D01*
X91511904Y-131883390D02*
X91464285Y-131692914D01*
X91464285Y-131692914D02*
X91416666Y-131597676D01*
X91416666Y-131597676D02*
X91321428Y-131502438D01*
X91321428Y-131502438D02*
X91178571Y-131454819D01*
X91178571Y-131454819D02*
X91083333Y-131454819D01*
X91083333Y-131454819D02*
X90940476Y-131502438D01*
X90940476Y-131502438D02*
X90892857Y-131550057D01*
X89940476Y-132454819D02*
X90511904Y-132454819D01*
X90226190Y-132454819D02*
X90226190Y-131454819D01*
X90226190Y-131454819D02*
X90321428Y-131597676D01*
X90321428Y-131597676D02*
X90416666Y-131692914D01*
X90416666Y-131692914D02*
X90511904Y-131740533D01*
X89083333Y-131788152D02*
X89083333Y-132454819D01*
X89321428Y-131407200D02*
X89559523Y-132121485D01*
X89559523Y-132121485D02*
X88940476Y-132121485D01*
X88892857Y-169704819D02*
X89226190Y-169228628D01*
X89464285Y-169704819D02*
X89464285Y-168704819D01*
X89464285Y-168704819D02*
X89083333Y-168704819D01*
X89083333Y-168704819D02*
X88988095Y-168752438D01*
X88988095Y-168752438D02*
X88940476Y-168800057D01*
X88940476Y-168800057D02*
X88892857Y-168895295D01*
X88892857Y-168895295D02*
X88892857Y-169038152D01*
X88892857Y-169038152D02*
X88940476Y-169133390D01*
X88940476Y-169133390D02*
X88988095Y-169181009D01*
X88988095Y-169181009D02*
X89083333Y-169228628D01*
X89083333Y-169228628D02*
X89464285Y-169228628D01*
X87940476Y-169704819D02*
X88511904Y-169704819D01*
X88226190Y-169704819D02*
X88226190Y-168704819D01*
X88226190Y-168704819D02*
X88321428Y-168847676D01*
X88321428Y-168847676D02*
X88416666Y-168942914D01*
X88416666Y-168942914D02*
X88511904Y-168990533D01*
X87321428Y-168704819D02*
X87226190Y-168704819D01*
X87226190Y-168704819D02*
X87130952Y-168752438D01*
X87130952Y-168752438D02*
X87083333Y-168800057D01*
X87083333Y-168800057D02*
X87035714Y-168895295D01*
X87035714Y-168895295D02*
X86988095Y-169085771D01*
X86988095Y-169085771D02*
X86988095Y-169323866D01*
X86988095Y-169323866D02*
X87035714Y-169514342D01*
X87035714Y-169514342D02*
X87083333Y-169609580D01*
X87083333Y-169609580D02*
X87130952Y-169657200D01*
X87130952Y-169657200D02*
X87226190Y-169704819D01*
X87226190Y-169704819D02*
X87321428Y-169704819D01*
X87321428Y-169704819D02*
X87416666Y-169657200D01*
X87416666Y-169657200D02*
X87464285Y-169609580D01*
X87464285Y-169609580D02*
X87511904Y-169514342D01*
X87511904Y-169514342D02*
X87559523Y-169323866D01*
X87559523Y-169323866D02*
X87559523Y-169085771D01*
X87559523Y-169085771D02*
X87511904Y-168895295D01*
X87511904Y-168895295D02*
X87464285Y-168800057D01*
X87464285Y-168800057D02*
X87416666Y-168752438D01*
X87416666Y-168752438D02*
X87321428Y-168704819D01*
X75554819Y-87458333D02*
X75078628Y-87125000D01*
X75554819Y-86886905D02*
X74554819Y-86886905D01*
X74554819Y-86886905D02*
X74554819Y-87267857D01*
X74554819Y-87267857D02*
X74602438Y-87363095D01*
X74602438Y-87363095D02*
X74650057Y-87410714D01*
X74650057Y-87410714D02*
X74745295Y-87458333D01*
X74745295Y-87458333D02*
X74888152Y-87458333D01*
X74888152Y-87458333D02*
X74983390Y-87410714D01*
X74983390Y-87410714D02*
X75031009Y-87363095D01*
X75031009Y-87363095D02*
X75078628Y-87267857D01*
X75078628Y-87267857D02*
X75078628Y-86886905D01*
X74554819Y-87791667D02*
X74554819Y-88458333D01*
X74554819Y-88458333D02*
X75554819Y-88029762D01*
X134454819Y-83488095D02*
X135264342Y-83488095D01*
X135264342Y-83488095D02*
X135359580Y-83535714D01*
X135359580Y-83535714D02*
X135407200Y-83583333D01*
X135407200Y-83583333D02*
X135454819Y-83678571D01*
X135454819Y-83678571D02*
X135454819Y-83869047D01*
X135454819Y-83869047D02*
X135407200Y-83964285D01*
X135407200Y-83964285D02*
X135359580Y-84011904D01*
X135359580Y-84011904D02*
X135264342Y-84059523D01*
X135264342Y-84059523D02*
X134454819Y-84059523D01*
X135454819Y-85059523D02*
X135454819Y-84488095D01*
X135454819Y-84773809D02*
X134454819Y-84773809D01*
X134454819Y-84773809D02*
X134597676Y-84678571D01*
X134597676Y-84678571D02*
X134692914Y-84583333D01*
X134692914Y-84583333D02*
X134740533Y-84488095D01*
X50109580Y-74857142D02*
X50157200Y-74809523D01*
X50157200Y-74809523D02*
X50204819Y-74666666D01*
X50204819Y-74666666D02*
X50204819Y-74571428D01*
X50204819Y-74571428D02*
X50157200Y-74428571D01*
X50157200Y-74428571D02*
X50061961Y-74333333D01*
X50061961Y-74333333D02*
X49966723Y-74285714D01*
X49966723Y-74285714D02*
X49776247Y-74238095D01*
X49776247Y-74238095D02*
X49633390Y-74238095D01*
X49633390Y-74238095D02*
X49442914Y-74285714D01*
X49442914Y-74285714D02*
X49347676Y-74333333D01*
X49347676Y-74333333D02*
X49252438Y-74428571D01*
X49252438Y-74428571D02*
X49204819Y-74571428D01*
X49204819Y-74571428D02*
X49204819Y-74666666D01*
X49204819Y-74666666D02*
X49252438Y-74809523D01*
X49252438Y-74809523D02*
X49300057Y-74857142D01*
X49300057Y-75238095D02*
X49252438Y-75285714D01*
X49252438Y-75285714D02*
X49204819Y-75380952D01*
X49204819Y-75380952D02*
X49204819Y-75619047D01*
X49204819Y-75619047D02*
X49252438Y-75714285D01*
X49252438Y-75714285D02*
X49300057Y-75761904D01*
X49300057Y-75761904D02*
X49395295Y-75809523D01*
X49395295Y-75809523D02*
X49490533Y-75809523D01*
X49490533Y-75809523D02*
X49633390Y-75761904D01*
X49633390Y-75761904D02*
X50204819Y-75190476D01*
X50204819Y-75190476D02*
X50204819Y-75809523D01*
X50204819Y-76285714D02*
X50204819Y-76476190D01*
X50204819Y-76476190D02*
X50157200Y-76571428D01*
X50157200Y-76571428D02*
X50109580Y-76619047D01*
X50109580Y-76619047D02*
X49966723Y-76714285D01*
X49966723Y-76714285D02*
X49776247Y-76761904D01*
X49776247Y-76761904D02*
X49395295Y-76761904D01*
X49395295Y-76761904D02*
X49300057Y-76714285D01*
X49300057Y-76714285D02*
X49252438Y-76666666D01*
X49252438Y-76666666D02*
X49204819Y-76571428D01*
X49204819Y-76571428D02*
X49204819Y-76380952D01*
X49204819Y-76380952D02*
X49252438Y-76285714D01*
X49252438Y-76285714D02*
X49300057Y-76238095D01*
X49300057Y-76238095D02*
X49395295Y-76190476D01*
X49395295Y-76190476D02*
X49633390Y-76190476D01*
X49633390Y-76190476D02*
X49728628Y-76238095D01*
X49728628Y-76238095D02*
X49776247Y-76285714D01*
X49776247Y-76285714D02*
X49823866Y-76380952D01*
X49823866Y-76380952D02*
X49823866Y-76571428D01*
X49823866Y-76571428D02*
X49776247Y-76666666D01*
X49776247Y-76666666D02*
X49728628Y-76714285D01*
X49728628Y-76714285D02*
X49633390Y-76761904D01*
X99142857Y-88109580D02*
X99190476Y-88157200D01*
X99190476Y-88157200D02*
X99333333Y-88204819D01*
X99333333Y-88204819D02*
X99428571Y-88204819D01*
X99428571Y-88204819D02*
X99571428Y-88157200D01*
X99571428Y-88157200D02*
X99666666Y-88061961D01*
X99666666Y-88061961D02*
X99714285Y-87966723D01*
X99714285Y-87966723D02*
X99761904Y-87776247D01*
X99761904Y-87776247D02*
X99761904Y-87633390D01*
X99761904Y-87633390D02*
X99714285Y-87442914D01*
X99714285Y-87442914D02*
X99666666Y-87347676D01*
X99666666Y-87347676D02*
X99571428Y-87252438D01*
X99571428Y-87252438D02*
X99428571Y-87204819D01*
X99428571Y-87204819D02*
X99333333Y-87204819D01*
X99333333Y-87204819D02*
X99190476Y-87252438D01*
X99190476Y-87252438D02*
X99142857Y-87300057D01*
X98190476Y-88204819D02*
X98761904Y-88204819D01*
X98476190Y-88204819D02*
X98476190Y-87204819D01*
X98476190Y-87204819D02*
X98571428Y-87347676D01*
X98571428Y-87347676D02*
X98666666Y-87442914D01*
X98666666Y-87442914D02*
X98761904Y-87490533D01*
X97238095Y-88204819D02*
X97809523Y-88204819D01*
X97523809Y-88204819D02*
X97523809Y-87204819D01*
X97523809Y-87204819D02*
X97619047Y-87347676D01*
X97619047Y-87347676D02*
X97714285Y-87442914D01*
X97714285Y-87442914D02*
X97809523Y-87490533D01*
X130859580Y-63357142D02*
X130907200Y-63309523D01*
X130907200Y-63309523D02*
X130954819Y-63166666D01*
X130954819Y-63166666D02*
X130954819Y-63071428D01*
X130954819Y-63071428D02*
X130907200Y-62928571D01*
X130907200Y-62928571D02*
X130811961Y-62833333D01*
X130811961Y-62833333D02*
X130716723Y-62785714D01*
X130716723Y-62785714D02*
X130526247Y-62738095D01*
X130526247Y-62738095D02*
X130383390Y-62738095D01*
X130383390Y-62738095D02*
X130192914Y-62785714D01*
X130192914Y-62785714D02*
X130097676Y-62833333D01*
X130097676Y-62833333D02*
X130002438Y-62928571D01*
X130002438Y-62928571D02*
X129954819Y-63071428D01*
X129954819Y-63071428D02*
X129954819Y-63166666D01*
X129954819Y-63166666D02*
X130002438Y-63309523D01*
X130002438Y-63309523D02*
X130050057Y-63357142D01*
X130050057Y-63738095D02*
X130002438Y-63785714D01*
X130002438Y-63785714D02*
X129954819Y-63880952D01*
X129954819Y-63880952D02*
X129954819Y-64119047D01*
X129954819Y-64119047D02*
X130002438Y-64214285D01*
X130002438Y-64214285D02*
X130050057Y-64261904D01*
X130050057Y-64261904D02*
X130145295Y-64309523D01*
X130145295Y-64309523D02*
X130240533Y-64309523D01*
X130240533Y-64309523D02*
X130383390Y-64261904D01*
X130383390Y-64261904D02*
X130954819Y-63690476D01*
X130954819Y-63690476D02*
X130954819Y-64309523D01*
X130954819Y-65261904D02*
X130954819Y-64690476D01*
X130954819Y-64976190D02*
X129954819Y-64976190D01*
X129954819Y-64976190D02*
X130097676Y-64880952D01*
X130097676Y-64880952D02*
X130192914Y-64785714D01*
X130192914Y-64785714D02*
X130240533Y-64690476D01*
X113011904Y-87204819D02*
X113011904Y-88014342D01*
X113011904Y-88014342D02*
X112964285Y-88109580D01*
X112964285Y-88109580D02*
X112916666Y-88157200D01*
X112916666Y-88157200D02*
X112821428Y-88204819D01*
X112821428Y-88204819D02*
X112630952Y-88204819D01*
X112630952Y-88204819D02*
X112535714Y-88157200D01*
X112535714Y-88157200D02*
X112488095Y-88109580D01*
X112488095Y-88109580D02*
X112440476Y-88014342D01*
X112440476Y-88014342D02*
X112440476Y-87204819D01*
X111488095Y-87204819D02*
X111964285Y-87204819D01*
X111964285Y-87204819D02*
X112011904Y-87681009D01*
X112011904Y-87681009D02*
X111964285Y-87633390D01*
X111964285Y-87633390D02*
X111869047Y-87585771D01*
X111869047Y-87585771D02*
X111630952Y-87585771D01*
X111630952Y-87585771D02*
X111535714Y-87633390D01*
X111535714Y-87633390D02*
X111488095Y-87681009D01*
X111488095Y-87681009D02*
X111440476Y-87776247D01*
X111440476Y-87776247D02*
X111440476Y-88014342D01*
X111440476Y-88014342D02*
X111488095Y-88109580D01*
X111488095Y-88109580D02*
X111535714Y-88157200D01*
X111535714Y-88157200D02*
X111630952Y-88204819D01*
X111630952Y-88204819D02*
X111869047Y-88204819D01*
X111869047Y-88204819D02*
X111964285Y-88157200D01*
X111964285Y-88157200D02*
X112011904Y-88109580D01*
X52642857Y-104359580D02*
X52690476Y-104407200D01*
X52690476Y-104407200D02*
X52833333Y-104454819D01*
X52833333Y-104454819D02*
X52928571Y-104454819D01*
X52928571Y-104454819D02*
X53071428Y-104407200D01*
X53071428Y-104407200D02*
X53166666Y-104311961D01*
X53166666Y-104311961D02*
X53214285Y-104216723D01*
X53214285Y-104216723D02*
X53261904Y-104026247D01*
X53261904Y-104026247D02*
X53261904Y-103883390D01*
X53261904Y-103883390D02*
X53214285Y-103692914D01*
X53214285Y-103692914D02*
X53166666Y-103597676D01*
X53166666Y-103597676D02*
X53071428Y-103502438D01*
X53071428Y-103502438D02*
X52928571Y-103454819D01*
X52928571Y-103454819D02*
X52833333Y-103454819D01*
X52833333Y-103454819D02*
X52690476Y-103502438D01*
X52690476Y-103502438D02*
X52642857Y-103550057D01*
X52309523Y-103454819D02*
X51690476Y-103454819D01*
X51690476Y-103454819D02*
X52023809Y-103835771D01*
X52023809Y-103835771D02*
X51880952Y-103835771D01*
X51880952Y-103835771D02*
X51785714Y-103883390D01*
X51785714Y-103883390D02*
X51738095Y-103931009D01*
X51738095Y-103931009D02*
X51690476Y-104026247D01*
X51690476Y-104026247D02*
X51690476Y-104264342D01*
X51690476Y-104264342D02*
X51738095Y-104359580D01*
X51738095Y-104359580D02*
X51785714Y-104407200D01*
X51785714Y-104407200D02*
X51880952Y-104454819D01*
X51880952Y-104454819D02*
X52166666Y-104454819D01*
X52166666Y-104454819D02*
X52261904Y-104407200D01*
X52261904Y-104407200D02*
X52309523Y-104359580D01*
X50785714Y-103454819D02*
X51261904Y-103454819D01*
X51261904Y-103454819D02*
X51309523Y-103931009D01*
X51309523Y-103931009D02*
X51261904Y-103883390D01*
X51261904Y-103883390D02*
X51166666Y-103835771D01*
X51166666Y-103835771D02*
X50928571Y-103835771D01*
X50928571Y-103835771D02*
X50833333Y-103883390D01*
X50833333Y-103883390D02*
X50785714Y-103931009D01*
X50785714Y-103931009D02*
X50738095Y-104026247D01*
X50738095Y-104026247D02*
X50738095Y-104264342D01*
X50738095Y-104264342D02*
X50785714Y-104359580D01*
X50785714Y-104359580D02*
X50833333Y-104407200D01*
X50833333Y-104407200D02*
X50928571Y-104454819D01*
X50928571Y-104454819D02*
X51166666Y-104454819D01*
X51166666Y-104454819D02*
X51261904Y-104407200D01*
X51261904Y-104407200D02*
X51309523Y-104359580D01*
X119179580Y-81637142D02*
X119227200Y-81589523D01*
X119227200Y-81589523D02*
X119274819Y-81446666D01*
X119274819Y-81446666D02*
X119274819Y-81351428D01*
X119274819Y-81351428D02*
X119227200Y-81208571D01*
X119227200Y-81208571D02*
X119131961Y-81113333D01*
X119131961Y-81113333D02*
X119036723Y-81065714D01*
X119036723Y-81065714D02*
X118846247Y-81018095D01*
X118846247Y-81018095D02*
X118703390Y-81018095D01*
X118703390Y-81018095D02*
X118512914Y-81065714D01*
X118512914Y-81065714D02*
X118417676Y-81113333D01*
X118417676Y-81113333D02*
X118322438Y-81208571D01*
X118322438Y-81208571D02*
X118274819Y-81351428D01*
X118274819Y-81351428D02*
X118274819Y-81446666D01*
X118274819Y-81446666D02*
X118322438Y-81589523D01*
X118322438Y-81589523D02*
X118370057Y-81637142D01*
X119274819Y-82589523D02*
X119274819Y-82018095D01*
X119274819Y-82303809D02*
X118274819Y-82303809D01*
X118274819Y-82303809D02*
X118417676Y-82208571D01*
X118417676Y-82208571D02*
X118512914Y-82113333D01*
X118512914Y-82113333D02*
X118560533Y-82018095D01*
X119274819Y-83065714D02*
X119274819Y-83256190D01*
X119274819Y-83256190D02*
X119227200Y-83351428D01*
X119227200Y-83351428D02*
X119179580Y-83399047D01*
X119179580Y-83399047D02*
X119036723Y-83494285D01*
X119036723Y-83494285D02*
X118846247Y-83541904D01*
X118846247Y-83541904D02*
X118465295Y-83541904D01*
X118465295Y-83541904D02*
X118370057Y-83494285D01*
X118370057Y-83494285D02*
X118322438Y-83446666D01*
X118322438Y-83446666D02*
X118274819Y-83351428D01*
X118274819Y-83351428D02*
X118274819Y-83160952D01*
X118274819Y-83160952D02*
X118322438Y-83065714D01*
X118322438Y-83065714D02*
X118370057Y-83018095D01*
X118370057Y-83018095D02*
X118465295Y-82970476D01*
X118465295Y-82970476D02*
X118703390Y-82970476D01*
X118703390Y-82970476D02*
X118798628Y-83018095D01*
X118798628Y-83018095D02*
X118846247Y-83065714D01*
X118846247Y-83065714D02*
X118893866Y-83160952D01*
X118893866Y-83160952D02*
X118893866Y-83351428D01*
X118893866Y-83351428D02*
X118846247Y-83446666D01*
X118846247Y-83446666D02*
X118798628Y-83494285D01*
X118798628Y-83494285D02*
X118703390Y-83541904D01*
X129246211Y-89681009D02*
X129579544Y-89681009D01*
X129579544Y-90204819D02*
X129579544Y-89204819D01*
X129579544Y-89204819D02*
X129103354Y-89204819D01*
X128389068Y-89681009D02*
X128246211Y-89728628D01*
X128246211Y-89728628D02*
X128198592Y-89776247D01*
X128198592Y-89776247D02*
X128150973Y-89871485D01*
X128150973Y-89871485D02*
X128150973Y-90014342D01*
X128150973Y-90014342D02*
X128198592Y-90109580D01*
X128198592Y-90109580D02*
X128246211Y-90157200D01*
X128246211Y-90157200D02*
X128341449Y-90204819D01*
X128341449Y-90204819D02*
X128722401Y-90204819D01*
X128722401Y-90204819D02*
X128722401Y-89204819D01*
X128722401Y-89204819D02*
X128389068Y-89204819D01*
X128389068Y-89204819D02*
X128293830Y-89252438D01*
X128293830Y-89252438D02*
X128246211Y-89300057D01*
X128246211Y-89300057D02*
X128198592Y-89395295D01*
X128198592Y-89395295D02*
X128198592Y-89490533D01*
X128198592Y-89490533D02*
X128246211Y-89585771D01*
X128246211Y-89585771D02*
X128293830Y-89633390D01*
X128293830Y-89633390D02*
X128389068Y-89681009D01*
X128389068Y-89681009D02*
X128722401Y-89681009D01*
X127246211Y-89204819D02*
X127722401Y-89204819D01*
X127722401Y-89204819D02*
X127770020Y-89681009D01*
X127770020Y-89681009D02*
X127722401Y-89633390D01*
X127722401Y-89633390D02*
X127627163Y-89585771D01*
X127627163Y-89585771D02*
X127389068Y-89585771D01*
X127389068Y-89585771D02*
X127293830Y-89633390D01*
X127293830Y-89633390D02*
X127246211Y-89681009D01*
X127246211Y-89681009D02*
X127198592Y-89776247D01*
X127198592Y-89776247D02*
X127198592Y-90014342D01*
X127198592Y-90014342D02*
X127246211Y-90109580D01*
X127246211Y-90109580D02*
X127293830Y-90157200D01*
X127293830Y-90157200D02*
X127389068Y-90204819D01*
X127389068Y-90204819D02*
X127627163Y-90204819D01*
X127627163Y-90204819D02*
X127722401Y-90157200D01*
X127722401Y-90157200D02*
X127770020Y-90109580D01*
X123954819Y-82785714D02*
X122954819Y-82785714D01*
X122954819Y-82785714D02*
X122954819Y-83023809D01*
X122954819Y-83023809D02*
X123002438Y-83166666D01*
X123002438Y-83166666D02*
X123097676Y-83261904D01*
X123097676Y-83261904D02*
X123192914Y-83309523D01*
X123192914Y-83309523D02*
X123383390Y-83357142D01*
X123383390Y-83357142D02*
X123526247Y-83357142D01*
X123526247Y-83357142D02*
X123716723Y-83309523D01*
X123716723Y-83309523D02*
X123811961Y-83261904D01*
X123811961Y-83261904D02*
X123907200Y-83166666D01*
X123907200Y-83166666D02*
X123954819Y-83023809D01*
X123954819Y-83023809D02*
X123954819Y-82785714D01*
X123954819Y-84309523D02*
X123954819Y-83738095D01*
X123954819Y-84023809D02*
X122954819Y-84023809D01*
X122954819Y-84023809D02*
X123097676Y-83928571D01*
X123097676Y-83928571D02*
X123192914Y-83833333D01*
X123192914Y-83833333D02*
X123240533Y-83738095D01*
X123954819Y-85261904D02*
X123954819Y-84690476D01*
X123954819Y-84976190D02*
X122954819Y-84976190D01*
X122954819Y-84976190D02*
X123097676Y-84880952D01*
X123097676Y-84880952D02*
X123192914Y-84785714D01*
X123192914Y-84785714D02*
X123240533Y-84690476D01*
X88845238Y-166704819D02*
X89178571Y-166228628D01*
X89416666Y-166704819D02*
X89416666Y-165704819D01*
X89416666Y-165704819D02*
X89035714Y-165704819D01*
X89035714Y-165704819D02*
X88940476Y-165752438D01*
X88940476Y-165752438D02*
X88892857Y-165800057D01*
X88892857Y-165800057D02*
X88845238Y-165895295D01*
X88845238Y-165895295D02*
X88845238Y-166038152D01*
X88845238Y-166038152D02*
X88892857Y-166133390D01*
X88892857Y-166133390D02*
X88940476Y-166181009D01*
X88940476Y-166181009D02*
X89035714Y-166228628D01*
X89035714Y-166228628D02*
X89416666Y-166228628D01*
X88559523Y-165704819D02*
X88226190Y-166704819D01*
X88226190Y-166704819D02*
X87892857Y-165704819D01*
X87130952Y-165704819D02*
X87321428Y-165704819D01*
X87321428Y-165704819D02*
X87416666Y-165752438D01*
X87416666Y-165752438D02*
X87464285Y-165800057D01*
X87464285Y-165800057D02*
X87559523Y-165942914D01*
X87559523Y-165942914D02*
X87607142Y-166133390D01*
X87607142Y-166133390D02*
X87607142Y-166514342D01*
X87607142Y-166514342D02*
X87559523Y-166609580D01*
X87559523Y-166609580D02*
X87511904Y-166657200D01*
X87511904Y-166657200D02*
X87416666Y-166704819D01*
X87416666Y-166704819D02*
X87226190Y-166704819D01*
X87226190Y-166704819D02*
X87130952Y-166657200D01*
X87130952Y-166657200D02*
X87083333Y-166609580D01*
X87083333Y-166609580D02*
X87035714Y-166514342D01*
X87035714Y-166514342D02*
X87035714Y-166276247D01*
X87035714Y-166276247D02*
X87083333Y-166181009D01*
X87083333Y-166181009D02*
X87130952Y-166133390D01*
X87130952Y-166133390D02*
X87226190Y-166085771D01*
X87226190Y-166085771D02*
X87416666Y-166085771D01*
X87416666Y-166085771D02*
X87511904Y-166133390D01*
X87511904Y-166133390D02*
X87559523Y-166181009D01*
X87559523Y-166181009D02*
X87607142Y-166276247D01*
X98454819Y-118154761D02*
X97978628Y-117821428D01*
X98454819Y-117583333D02*
X97454819Y-117583333D01*
X97454819Y-117583333D02*
X97454819Y-117964285D01*
X97454819Y-117964285D02*
X97502438Y-118059523D01*
X97502438Y-118059523D02*
X97550057Y-118107142D01*
X97550057Y-118107142D02*
X97645295Y-118154761D01*
X97645295Y-118154761D02*
X97788152Y-118154761D01*
X97788152Y-118154761D02*
X97883390Y-118107142D01*
X97883390Y-118107142D02*
X97931009Y-118059523D01*
X97931009Y-118059523D02*
X97978628Y-117964285D01*
X97978628Y-117964285D02*
X97978628Y-117583333D01*
X97454819Y-118440476D02*
X98454819Y-118773809D01*
X98454819Y-118773809D02*
X97454819Y-119107142D01*
X97454819Y-119345238D02*
X97454819Y-119964285D01*
X97454819Y-119964285D02*
X97835771Y-119630952D01*
X97835771Y-119630952D02*
X97835771Y-119773809D01*
X97835771Y-119773809D02*
X97883390Y-119869047D01*
X97883390Y-119869047D02*
X97931009Y-119916666D01*
X97931009Y-119916666D02*
X98026247Y-119964285D01*
X98026247Y-119964285D02*
X98264342Y-119964285D01*
X98264342Y-119964285D02*
X98359580Y-119916666D01*
X98359580Y-119916666D02*
X98407200Y-119869047D01*
X98407200Y-119869047D02*
X98454819Y-119773809D01*
X98454819Y-119773809D02*
X98454819Y-119488095D01*
X98454819Y-119488095D02*
X98407200Y-119392857D01*
X98407200Y-119392857D02*
X98359580Y-119345238D01*
X120359580Y-63357142D02*
X120407200Y-63309523D01*
X120407200Y-63309523D02*
X120454819Y-63166666D01*
X120454819Y-63166666D02*
X120454819Y-63071428D01*
X120454819Y-63071428D02*
X120407200Y-62928571D01*
X120407200Y-62928571D02*
X120311961Y-62833333D01*
X120311961Y-62833333D02*
X120216723Y-62785714D01*
X120216723Y-62785714D02*
X120026247Y-62738095D01*
X120026247Y-62738095D02*
X119883390Y-62738095D01*
X119883390Y-62738095D02*
X119692914Y-62785714D01*
X119692914Y-62785714D02*
X119597676Y-62833333D01*
X119597676Y-62833333D02*
X119502438Y-62928571D01*
X119502438Y-62928571D02*
X119454819Y-63071428D01*
X119454819Y-63071428D02*
X119454819Y-63166666D01*
X119454819Y-63166666D02*
X119502438Y-63309523D01*
X119502438Y-63309523D02*
X119550057Y-63357142D01*
X120454819Y-64309523D02*
X120454819Y-63738095D01*
X120454819Y-64023809D02*
X119454819Y-64023809D01*
X119454819Y-64023809D02*
X119597676Y-63928571D01*
X119597676Y-63928571D02*
X119692914Y-63833333D01*
X119692914Y-63833333D02*
X119740533Y-63738095D01*
X119454819Y-64928571D02*
X119454819Y-65023809D01*
X119454819Y-65023809D02*
X119502438Y-65119047D01*
X119502438Y-65119047D02*
X119550057Y-65166666D01*
X119550057Y-65166666D02*
X119645295Y-65214285D01*
X119645295Y-65214285D02*
X119835771Y-65261904D01*
X119835771Y-65261904D02*
X120073866Y-65261904D01*
X120073866Y-65261904D02*
X120264342Y-65214285D01*
X120264342Y-65214285D02*
X120359580Y-65166666D01*
X120359580Y-65166666D02*
X120407200Y-65119047D01*
X120407200Y-65119047D02*
X120454819Y-65023809D01*
X120454819Y-65023809D02*
X120454819Y-64928571D01*
X120454819Y-64928571D02*
X120407200Y-64833333D01*
X120407200Y-64833333D02*
X120359580Y-64785714D01*
X120359580Y-64785714D02*
X120264342Y-64738095D01*
X120264342Y-64738095D02*
X120073866Y-64690476D01*
X120073866Y-64690476D02*
X119835771Y-64690476D01*
X119835771Y-64690476D02*
X119645295Y-64738095D01*
X119645295Y-64738095D02*
X119550057Y-64785714D01*
X119550057Y-64785714D02*
X119502438Y-64833333D01*
X119502438Y-64833333D02*
X119454819Y-64928571D01*
X83204819Y-168761905D02*
X84014342Y-168761905D01*
X84014342Y-168761905D02*
X84109580Y-168809524D01*
X84109580Y-168809524D02*
X84157200Y-168857143D01*
X84157200Y-168857143D02*
X84204819Y-168952381D01*
X84204819Y-168952381D02*
X84204819Y-169142857D01*
X84204819Y-169142857D02*
X84157200Y-169238095D01*
X84157200Y-169238095D02*
X84109580Y-169285714D01*
X84109580Y-169285714D02*
X84014342Y-169333333D01*
X84014342Y-169333333D02*
X83204819Y-169333333D01*
X84204819Y-170333333D02*
X84204819Y-169761905D01*
X84204819Y-170047619D02*
X83204819Y-170047619D01*
X83204819Y-170047619D02*
X83347676Y-169952381D01*
X83347676Y-169952381D02*
X83442914Y-169857143D01*
X83442914Y-169857143D02*
X83490533Y-169761905D01*
X83538152Y-171190476D02*
X84204819Y-171190476D01*
X83157200Y-170952381D02*
X83871485Y-170714286D01*
X83871485Y-170714286D02*
X83871485Y-171333333D01*
X119304819Y-85387142D02*
X118828628Y-85053809D01*
X119304819Y-84815714D02*
X118304819Y-84815714D01*
X118304819Y-84815714D02*
X118304819Y-85196666D01*
X118304819Y-85196666D02*
X118352438Y-85291904D01*
X118352438Y-85291904D02*
X118400057Y-85339523D01*
X118400057Y-85339523D02*
X118495295Y-85387142D01*
X118495295Y-85387142D02*
X118638152Y-85387142D01*
X118638152Y-85387142D02*
X118733390Y-85339523D01*
X118733390Y-85339523D02*
X118781009Y-85291904D01*
X118781009Y-85291904D02*
X118828628Y-85196666D01*
X118828628Y-85196666D02*
X118828628Y-84815714D01*
X119304819Y-86339523D02*
X119304819Y-85768095D01*
X119304819Y-86053809D02*
X118304819Y-86053809D01*
X118304819Y-86053809D02*
X118447676Y-85958571D01*
X118447676Y-85958571D02*
X118542914Y-85863333D01*
X118542914Y-85863333D02*
X118590533Y-85768095D01*
X119304819Y-87291904D02*
X119304819Y-86720476D01*
X119304819Y-87006190D02*
X118304819Y-87006190D01*
X118304819Y-87006190D02*
X118447676Y-86910952D01*
X118447676Y-86910952D02*
X118542914Y-86815714D01*
X118542914Y-86815714D02*
X118590533Y-86720476D01*
X81738094Y-170204819D02*
X81738094Y-171014342D01*
X81738094Y-171014342D02*
X81690475Y-171109580D01*
X81690475Y-171109580D02*
X81642856Y-171157200D01*
X81642856Y-171157200D02*
X81547618Y-171204819D01*
X81547618Y-171204819D02*
X81357142Y-171204819D01*
X81357142Y-171204819D02*
X81261904Y-171157200D01*
X81261904Y-171157200D02*
X81214285Y-171109580D01*
X81214285Y-171109580D02*
X81166666Y-171014342D01*
X81166666Y-171014342D02*
X81166666Y-170204819D01*
X80166666Y-171204819D02*
X80738094Y-171204819D01*
X80452380Y-171204819D02*
X80452380Y-170204819D01*
X80452380Y-170204819D02*
X80547618Y-170347676D01*
X80547618Y-170347676D02*
X80642856Y-170442914D01*
X80642856Y-170442914D02*
X80738094Y-170490533D01*
X79785713Y-170300057D02*
X79738094Y-170252438D01*
X79738094Y-170252438D02*
X79642856Y-170204819D01*
X79642856Y-170204819D02*
X79404761Y-170204819D01*
X79404761Y-170204819D02*
X79309523Y-170252438D01*
X79309523Y-170252438D02*
X79261904Y-170300057D01*
X79261904Y-170300057D02*
X79214285Y-170395295D01*
X79214285Y-170395295D02*
X79214285Y-170490533D01*
X79214285Y-170490533D02*
X79261904Y-170633390D01*
X79261904Y-170633390D02*
X79833332Y-171204819D01*
X79833332Y-171204819D02*
X79214285Y-171204819D01*
X80595238Y-114204819D02*
X80928571Y-113728628D01*
X81166666Y-114204819D02*
X81166666Y-113204819D01*
X81166666Y-113204819D02*
X80785714Y-113204819D01*
X80785714Y-113204819D02*
X80690476Y-113252438D01*
X80690476Y-113252438D02*
X80642857Y-113300057D01*
X80642857Y-113300057D02*
X80595238Y-113395295D01*
X80595238Y-113395295D02*
X80595238Y-113538152D01*
X80595238Y-113538152D02*
X80642857Y-113633390D01*
X80642857Y-113633390D02*
X80690476Y-113681009D01*
X80690476Y-113681009D02*
X80785714Y-113728628D01*
X80785714Y-113728628D02*
X81166666Y-113728628D01*
X80309523Y-113204819D02*
X79976190Y-114204819D01*
X79976190Y-114204819D02*
X79642857Y-113204819D01*
X79357142Y-113300057D02*
X79309523Y-113252438D01*
X79309523Y-113252438D02*
X79214285Y-113204819D01*
X79214285Y-113204819D02*
X78976190Y-113204819D01*
X78976190Y-113204819D02*
X78880952Y-113252438D01*
X78880952Y-113252438D02*
X78833333Y-113300057D01*
X78833333Y-113300057D02*
X78785714Y-113395295D01*
X78785714Y-113395295D02*
X78785714Y-113490533D01*
X78785714Y-113490533D02*
X78833333Y-113633390D01*
X78833333Y-113633390D02*
X79404761Y-114204819D01*
X79404761Y-114204819D02*
X78785714Y-114204819D01*
X116859580Y-63357142D02*
X116907200Y-63309523D01*
X116907200Y-63309523D02*
X116954819Y-63166666D01*
X116954819Y-63166666D02*
X116954819Y-63071428D01*
X116954819Y-63071428D02*
X116907200Y-62928571D01*
X116907200Y-62928571D02*
X116811961Y-62833333D01*
X116811961Y-62833333D02*
X116716723Y-62785714D01*
X116716723Y-62785714D02*
X116526247Y-62738095D01*
X116526247Y-62738095D02*
X116383390Y-62738095D01*
X116383390Y-62738095D02*
X116192914Y-62785714D01*
X116192914Y-62785714D02*
X116097676Y-62833333D01*
X116097676Y-62833333D02*
X116002438Y-62928571D01*
X116002438Y-62928571D02*
X115954819Y-63071428D01*
X115954819Y-63071428D02*
X115954819Y-63166666D01*
X115954819Y-63166666D02*
X116002438Y-63309523D01*
X116002438Y-63309523D02*
X116050057Y-63357142D01*
X116954819Y-64309523D02*
X116954819Y-63738095D01*
X116954819Y-64023809D02*
X115954819Y-64023809D01*
X115954819Y-64023809D02*
X116097676Y-63928571D01*
X116097676Y-63928571D02*
X116192914Y-63833333D01*
X116192914Y-63833333D02*
X116240533Y-63738095D01*
X116050057Y-64690476D02*
X116002438Y-64738095D01*
X116002438Y-64738095D02*
X115954819Y-64833333D01*
X115954819Y-64833333D02*
X115954819Y-65071428D01*
X115954819Y-65071428D02*
X116002438Y-65166666D01*
X116002438Y-65166666D02*
X116050057Y-65214285D01*
X116050057Y-65214285D02*
X116145295Y-65261904D01*
X116145295Y-65261904D02*
X116240533Y-65261904D01*
X116240533Y-65261904D02*
X116383390Y-65214285D01*
X116383390Y-65214285D02*
X116954819Y-64642857D01*
X116954819Y-64642857D02*
X116954819Y-65261904D01*
X52261904Y-64954819D02*
X52261904Y-65764342D01*
X52261904Y-65764342D02*
X52214285Y-65859580D01*
X52214285Y-65859580D02*
X52166666Y-65907200D01*
X52166666Y-65907200D02*
X52071428Y-65954819D01*
X52071428Y-65954819D02*
X51880952Y-65954819D01*
X51880952Y-65954819D02*
X51785714Y-65907200D01*
X51785714Y-65907200D02*
X51738095Y-65859580D01*
X51738095Y-65859580D02*
X51690476Y-65764342D01*
X51690476Y-65764342D02*
X51690476Y-64954819D01*
X51309523Y-64954819D02*
X50690476Y-64954819D01*
X50690476Y-64954819D02*
X51023809Y-65335771D01*
X51023809Y-65335771D02*
X50880952Y-65335771D01*
X50880952Y-65335771D02*
X50785714Y-65383390D01*
X50785714Y-65383390D02*
X50738095Y-65431009D01*
X50738095Y-65431009D02*
X50690476Y-65526247D01*
X50690476Y-65526247D02*
X50690476Y-65764342D01*
X50690476Y-65764342D02*
X50738095Y-65859580D01*
X50738095Y-65859580D02*
X50785714Y-65907200D01*
X50785714Y-65907200D02*
X50880952Y-65954819D01*
X50880952Y-65954819D02*
X51166666Y-65954819D01*
X51166666Y-65954819D02*
X51261904Y-65907200D01*
X51261904Y-65907200D02*
X51309523Y-65859580D01*
D12*
%TO.C,R18*%
X110227064Y-79295000D02*
X109772936Y-79295000D01*
X110227064Y-80765000D02*
X109772936Y-80765000D01*
%TO.C,U13*%
X114940000Y-81250000D02*
X114940000Y-80450000D01*
X114940000Y-81250000D02*
X114940000Y-82050000D01*
X118060000Y-81250000D02*
X118060000Y-80450000D01*
X118060000Y-81250000D02*
X118060000Y-82050000D01*
X114990000Y-79950000D02*
X114660000Y-80190000D01*
X114660000Y-79710000D01*
X114990000Y-79950000D01*
G36*
X114990000Y-79950000D02*
G01*
X114660000Y-80190000D01*
X114660000Y-79710000D01*
X114990000Y-79950000D01*
G37*
%TO.C,R9*%
X76015000Y-80147936D02*
X76015000Y-80602064D01*
X77485000Y-80147936D02*
X77485000Y-80602064D01*
%TO.C,R3*%
X86139564Y-125705625D02*
X85685436Y-125705625D01*
X86139564Y-127175625D02*
X85685436Y-127175625D01*
%TO.C,L1*%
X49100000Y-80500000D02*
X49100000Y-77750000D01*
X49100000Y-89250000D02*
X49100000Y-86500000D01*
X49750000Y-89900000D02*
X61250000Y-89900000D01*
X61250000Y-77100000D02*
X49750000Y-77100000D01*
X61900000Y-80500000D02*
X61900000Y-77750000D01*
X61900000Y-89250000D02*
X61900000Y-86500000D01*
X49100000Y-77750000D02*
G75*
G02*
X49750000Y-77100000I650001J-1D01*
G01*
X49750000Y-89900000D02*
G75*
G02*
X49100000Y-89250000I1J650001D01*
G01*
X61250000Y-77100000D02*
G75*
G02*
X61900000Y-77750000I0J-650000D01*
G01*
X61900000Y-89250000D02*
G75*
G02*
X61250000Y-89900000I-650000J0D01*
G01*
%TO.C,R13*%
X56772936Y-70515000D02*
X57227064Y-70515000D01*
X56772936Y-71985000D02*
X57227064Y-71985000D01*
%TO.C,C22*%
X125640000Y-60736252D02*
X125640000Y-59313748D01*
X128360000Y-60736252D02*
X128360000Y-59313748D01*
%TO.C,C4*%
X85783750Y-111651877D02*
X85783750Y-111129373D01*
X87253750Y-111651877D02*
X87253750Y-111129373D01*
%TO.C,C5*%
X75563748Y-147970000D02*
X76086252Y-147970000D01*
X75563748Y-149440000D02*
X76086252Y-149440000D01*
%TO.C,D5*%
X54990000Y-72850000D02*
X60500000Y-72850000D01*
X54990000Y-76150000D02*
X54990000Y-72850000D01*
X54990000Y-76150000D02*
X60500000Y-76150000D01*
%TO.C,U9*%
X93125000Y-92795000D02*
X91625000Y-92795000D01*
X93125000Y-92795000D02*
X94625000Y-92795000D01*
X93125000Y-96015000D02*
X91625000Y-96015000D01*
X93125000Y-96015000D02*
X94625000Y-96015000D01*
X91152500Y-96145000D02*
X90672500Y-96145000D01*
X90912500Y-95815000D01*
X91152500Y-96145000D01*
G36*
X91152500Y-96145000D02*
G01*
X90672500Y-96145000D01*
X90912500Y-95815000D01*
X91152500Y-96145000D01*
G37*
%TO.C,R17*%
X104977064Y-89045000D02*
X104522936Y-89045000D01*
X104977064Y-90515000D02*
X104522936Y-90515000D01*
%TO.C,D4*%
X83081250Y-109630625D02*
X82431250Y-109630625D01*
X83081250Y-109630625D02*
X83731250Y-109630625D01*
X83081250Y-112750625D02*
X82431250Y-112750625D01*
X83081250Y-112750625D02*
X83731250Y-112750625D01*
X82158750Y-113030625D02*
X81678750Y-113030625D01*
X81918750Y-112700625D01*
X82158750Y-113030625D01*
G36*
X82158750Y-113030625D02*
G01*
X81678750Y-113030625D01*
X81918750Y-112700625D01*
X82158750Y-113030625D01*
G37*
%TO.C,Q4*%
X97223704Y-149145000D02*
X96573704Y-149145000D01*
X97223704Y-149145000D02*
X97873704Y-149145000D01*
X97223704Y-152265000D02*
X96573704Y-152265000D01*
X97223704Y-152265000D02*
X97873704Y-152265000D01*
X96301204Y-152545000D02*
X95821204Y-152545000D01*
X96061204Y-152215000D01*
X96301204Y-152545000D01*
G36*
X96301204Y-152545000D02*
G01*
X95821204Y-152545000D01*
X96061204Y-152215000D01*
X96301204Y-152545000D01*
G37*
%TO.C,U16*%
X82223704Y-147145000D02*
X80273704Y-147145000D01*
X82223704Y-147145000D02*
X84173704Y-147145000D01*
X82223704Y-152265000D02*
X80273704Y-152265000D01*
X82223704Y-152265000D02*
X84173704Y-152265000D01*
X79763704Y-152500000D02*
X79283704Y-152500000D01*
X79523704Y-152170000D01*
X79763704Y-152500000D01*
G36*
X79763704Y-152500000D02*
G01*
X79283704Y-152500000D01*
X79523704Y-152170000D01*
X79763704Y-152500000D01*
G37*
%TO.C,C18*%
X57761252Y-101515000D02*
X57238748Y-101515000D01*
X57761252Y-102985000D02*
X57238748Y-102985000D01*
%TO.C,C3*%
X76086252Y-145470000D02*
X75563748Y-145470000D01*
X76086252Y-146940000D02*
X75563748Y-146940000D01*
%TO.C,U17*%
X90325000Y-147145000D02*
X88375000Y-147145000D01*
X90325000Y-147145000D02*
X92275000Y-147145000D01*
X90325000Y-152265000D02*
X88375000Y-152265000D01*
X90325000Y-152265000D02*
X92275000Y-152265000D01*
X87865000Y-152500000D02*
X87385000Y-152500000D01*
X87625000Y-152170000D01*
X87865000Y-152500000D01*
G36*
X87865000Y-152500000D02*
G01*
X87385000Y-152500000D01*
X87625000Y-152170000D01*
X87865000Y-152500000D01*
G37*
%TO.C,C7*%
X93257498Y-125705625D02*
X93780002Y-125705625D01*
X93257498Y-127175625D02*
X93780002Y-127175625D01*
%TO.C,R5*%
X89889564Y-123205625D02*
X89435436Y-123205625D01*
X89889564Y-124675625D02*
X89435436Y-124675625D01*
%TO.C,D8*%
X86740000Y-87380000D02*
X92250000Y-87380000D01*
X86740000Y-90680000D02*
X86740000Y-87380000D01*
X86740000Y-90680000D02*
X92250000Y-90680000D01*
%TO.C,R6*%
X76015000Y-83735436D02*
X76015000Y-84189564D01*
X77485000Y-83735436D02*
X77485000Y-84189564D01*
%TO.C,R8*%
X86139564Y-123205625D02*
X85685436Y-123205625D01*
X86139564Y-124675625D02*
X85685436Y-124675625D01*
%TO.C,C20*%
X132640000Y-60736252D02*
X132640000Y-59313748D01*
X135360000Y-60736252D02*
X135360000Y-59313748D01*
%TO.C,C26*%
X93257498Y-123205625D02*
X93780002Y-123205625D01*
X93257498Y-124675625D02*
X93780002Y-124675625D01*
%TO.C,RV1*%
X98968750Y-106990625D02*
X98968750Y-113810625D01*
X98968750Y-113810625D02*
X102136750Y-113810625D01*
X102136750Y-106990625D02*
X98968750Y-106990625D01*
X102900750Y-113810625D02*
X106188750Y-113810625D01*
X106188750Y-106990625D02*
X102900750Y-106990625D01*
X106188750Y-113810625D02*
X106188750Y-106990625D01*
%TO.C,C27*%
X108265000Y-162688748D02*
X108265000Y-163211252D01*
X109735000Y-162688748D02*
X109735000Y-163211252D01*
%TO.C,R14*%
X64272936Y-86765000D02*
X64727064Y-86765000D01*
X64272936Y-88235000D02*
X64727064Y-88235000D01*
%TO.C,U11*%
X77768750Y-109880625D02*
X76968750Y-109880625D01*
X77768750Y-109880625D02*
X78568750Y-109880625D01*
X77768750Y-113000625D02*
X76968750Y-113000625D01*
X77768750Y-113000625D02*
X78568750Y-113000625D01*
X79068750Y-109930625D02*
X78828750Y-109600625D01*
X79308750Y-109600625D01*
X79068750Y-109930625D01*
G36*
X79068750Y-109930625D02*
G01*
X78828750Y-109600625D01*
X79308750Y-109600625D01*
X79068750Y-109930625D01*
G37*
%TO.C,C8*%
X125511252Y-87295000D02*
X124988748Y-87295000D01*
X125511252Y-88765000D02*
X124988748Y-88765000D01*
%TO.C,C58*%
X122140000Y-60736252D02*
X122140000Y-59313748D01*
X124860000Y-60736252D02*
X124860000Y-59313748D01*
%TO.C,C1*%
X97057498Y-125768125D02*
X97580002Y-125768125D01*
X97057498Y-127238125D02*
X97580002Y-127238125D01*
%TO.C,C15*%
X64311252Y-101015000D02*
X63788748Y-101015000D01*
X64311252Y-102485000D02*
X63788748Y-102485000D01*
%TO.C,FB3*%
X108899622Y-89220000D02*
X108100378Y-89220000D01*
X108899622Y-90340000D02*
X108100378Y-90340000D01*
%TO.C,R22*%
X116727064Y-84015000D02*
X116272936Y-84015000D01*
X116727064Y-85485000D02*
X116272936Y-85485000D01*
%TO.C,C6*%
X91563748Y-153220000D02*
X92086252Y-153220000D01*
X91563748Y-154690000D02*
X92086252Y-154690000D01*
%TO.C,C17*%
X136140000Y-60736252D02*
X136140000Y-59313748D01*
X138860000Y-60736252D02*
X138860000Y-59313748D01*
%TO.C,R20*%
X97200768Y-146970000D02*
X96746640Y-146970000D01*
X97200768Y-148440000D02*
X96746640Y-148440000D01*
%TO.C,U18*%
X82215000Y-155067500D02*
X82215000Y-154267500D01*
X82215000Y-155067500D02*
X82215000Y-155867500D01*
X85335000Y-155067500D02*
X85335000Y-154267500D01*
X85335000Y-155067500D02*
X85335000Y-155867500D01*
X82265000Y-153767500D02*
X81935000Y-154007500D01*
X81935000Y-153527500D01*
X82265000Y-153767500D01*
G36*
X82265000Y-153767500D02*
G01*
X81935000Y-154007500D01*
X81935000Y-153527500D01*
X82265000Y-153767500D01*
G37*
%TO.C,RV5*%
X78563704Y-138845000D02*
X78563704Y-142133000D01*
X78563704Y-142897000D02*
X78563704Y-146065000D01*
X78563704Y-146065000D02*
X85383704Y-146065000D01*
X85383704Y-138845000D02*
X78563704Y-138845000D01*
X85383704Y-142133000D02*
X85383704Y-138845000D01*
X85383704Y-146065000D02*
X85383704Y-142897000D01*
%TO.C,RV4*%
X70908750Y-114530625D02*
X70908750Y-121350625D01*
X70908750Y-121350625D02*
X74196750Y-121350625D01*
X74196750Y-114530625D02*
X70908750Y-114530625D01*
X74960750Y-121350625D02*
X78128750Y-121350625D01*
X78128750Y-114530625D02*
X74960750Y-114530625D01*
X78128750Y-121350625D02*
X78128750Y-114530625D01*
%TO.C,U6*%
X96190000Y-81387500D02*
X96190000Y-80587500D01*
X96190000Y-81387500D02*
X96190000Y-82187500D01*
X99310000Y-81387500D02*
X99310000Y-80587500D01*
X99310000Y-81387500D02*
X99310000Y-82187500D01*
X96240000Y-80087500D02*
X95910000Y-80327500D01*
X95910000Y-79847500D01*
X96240000Y-80087500D01*
G36*
X96240000Y-80087500D02*
G01*
X95910000Y-80327500D01*
X95910000Y-79847500D01*
X96240000Y-80087500D01*
G37*
%TO.C,C32*%
X64238748Y-84515000D02*
X64761252Y-84515000D01*
X64238748Y-85985000D02*
X64761252Y-85985000D01*
%TO.C,D1*%
X95758750Y-123253125D02*
X95758750Y-122603125D01*
X95758750Y-123253125D02*
X95758750Y-123903125D01*
X98878750Y-123253125D02*
X98878750Y-122603125D01*
X98878750Y-123253125D02*
X98878750Y-123903125D01*
X99158750Y-124655625D02*
X98828750Y-124415625D01*
X99158750Y-124175625D01*
X99158750Y-124655625D01*
G36*
X99158750Y-124655625D02*
G01*
X98828750Y-124415625D01*
X99158750Y-124175625D01*
X99158750Y-124655625D01*
G37*
%TO.C,D16*%
X84240000Y-86190000D02*
X84240000Y-82430000D01*
X86260000Y-86190000D02*
X84240000Y-86190000D01*
X86260000Y-86190000D02*
X86260000Y-82430000D01*
%TO.C,C24*%
X150261252Y-88465000D02*
X149738748Y-88465000D01*
X150261252Y-89935000D02*
X149738748Y-89935000D01*
%TO.C,U7*%
X90500000Y-81470000D02*
X88550000Y-81470000D01*
X90500000Y-81470000D02*
X92450000Y-81470000D01*
X90500000Y-86590000D02*
X88550000Y-86590000D01*
X90500000Y-86590000D02*
X92450000Y-86590000D01*
X93200000Y-81565000D02*
X92960000Y-81235000D01*
X93440000Y-81235000D01*
X93200000Y-81565000D01*
G36*
X93200000Y-81565000D02*
G01*
X92960000Y-81235000D01*
X93440000Y-81235000D01*
X93200000Y-81565000D01*
G37*
%TO.C,R15*%
X76052064Y-142970000D02*
X75597936Y-142970000D01*
X76052064Y-144440000D02*
X75597936Y-144440000D01*
%TO.C,C16*%
X111640000Y-60711252D02*
X111640000Y-59288748D01*
X114360000Y-60711252D02*
X114360000Y-59288748D01*
%TO.C,R1*%
X96977064Y-90795000D02*
X96522936Y-90795000D01*
X96977064Y-92265000D02*
X96522936Y-92265000D01*
%TO.C,R2*%
X76052064Y-140470000D02*
X75597936Y-140470000D01*
X76052064Y-141940000D02*
X75597936Y-141940000D01*
%TO.C,D12*%
X104240000Y-86140000D02*
X104240000Y-82380000D01*
X106260000Y-86140000D02*
X104240000Y-86140000D01*
X106260000Y-86140000D02*
X106260000Y-82380000D01*
%TO.C,R12*%
X57227064Y-68265000D02*
X56772936Y-68265000D01*
X57227064Y-69735000D02*
X56772936Y-69735000D01*
%TO.C,C23*%
X108265000Y-166961252D02*
X108265000Y-166438748D01*
X109735000Y-166961252D02*
X109735000Y-166438748D01*
%TO.C,R4*%
X130227064Y-79295000D02*
X129772936Y-79295000D01*
X130227064Y-80765000D02*
X129772936Y-80765000D01*
%TO.C,D6*%
X62850000Y-76740000D02*
X62850000Y-82250000D01*
X62850000Y-76740000D02*
X66150000Y-76740000D01*
X66150000Y-76740000D02*
X66150000Y-82250000D01*
%TO.C,R25*%
X75597936Y-150470000D02*
X76052064Y-150470000D01*
X75597936Y-151940000D02*
X76052064Y-151940000D01*
%TO.C,U4*%
X89883750Y-109430625D02*
X89883750Y-109710625D01*
X89883750Y-119950625D02*
X89883750Y-119670625D01*
X92268750Y-109430625D02*
X89883750Y-109430625D01*
X92268750Y-109430625D02*
X94653750Y-109430625D01*
X92268750Y-119950625D02*
X89883750Y-119950625D01*
X92268750Y-119950625D02*
X94653750Y-119950625D01*
X94653750Y-109430625D02*
X94653750Y-109710625D01*
X94653750Y-119950625D02*
X94653750Y-119670625D01*
X89346250Y-120000625D02*
X88866250Y-120000625D01*
X89106250Y-119670625D01*
X89346250Y-120000625D01*
G36*
X89346250Y-120000625D02*
G01*
X88866250Y-120000625D01*
X89106250Y-119670625D01*
X89346250Y-120000625D01*
G37*
%TO.C,R16*%
X90227064Y-79295000D02*
X89772936Y-79295000D01*
X90227064Y-80765000D02*
X89772936Y-80765000D01*
%TO.C,R19*%
X75597936Y-152970000D02*
X76052064Y-152970000D01*
X75597936Y-154440000D02*
X76052064Y-154440000D01*
%TO.C,D3*%
X76108750Y-106330625D02*
X80518750Y-106330625D01*
X76108750Y-108550625D02*
X76108750Y-106330625D01*
X80518750Y-108550625D02*
X76108750Y-108550625D01*
%TO.C,C13*%
X84515000Y-88718748D02*
X84515000Y-89241252D01*
X85985000Y-88718748D02*
X85985000Y-89241252D01*
%TO.C,FB4*%
X108100378Y-87220000D02*
X108899622Y-87220000D01*
X108100378Y-88340000D02*
X108899622Y-88340000D01*
%TO.C,C14*%
X89923752Y-125705625D02*
X89401248Y-125705625D01*
X89923752Y-127175625D02*
X89401248Y-127175625D01*
%TO.C,R10*%
X88052064Y-153220000D02*
X87597936Y-153220000D01*
X88052064Y-154690000D02*
X87597936Y-154690000D01*
%TO.C,R7*%
X76015000Y-87397936D02*
X76015000Y-87852064D01*
X77485000Y-87397936D02*
X77485000Y-87852064D01*
%TO.C,U1*%
X130525000Y-81585000D02*
X128575000Y-81585000D01*
X130525000Y-81585000D02*
X132475000Y-81585000D01*
X130525000Y-86705000D02*
X128575000Y-86705000D01*
X130525000Y-86705000D02*
X132475000Y-86705000D01*
X133225000Y-81680000D02*
X132985000Y-81350000D01*
X133465000Y-81350000D01*
X133225000Y-81680000D01*
G36*
X133225000Y-81680000D02*
G01*
X132985000Y-81350000D01*
X133465000Y-81350000D01*
X133225000Y-81680000D01*
G37*
%TO.C,C29*%
X52123748Y-74445000D02*
X52646252Y-74445000D01*
X52123748Y-75915000D02*
X52646252Y-75915000D01*
%TO.C,C11*%
X104488748Y-87045000D02*
X105011252Y-87045000D01*
X104488748Y-88515000D02*
X105011252Y-88515000D01*
%TO.C,C21*%
X129140000Y-60736252D02*
X129140000Y-59313748D01*
X131860000Y-60736252D02*
X131860000Y-59313748D01*
%TO.C,U5*%
X110500000Y-81470000D02*
X108550000Y-81470000D01*
X110500000Y-81470000D02*
X112450000Y-81470000D01*
X110500000Y-86590000D02*
X108550000Y-86590000D01*
X110500000Y-86590000D02*
X112450000Y-86590000D01*
X113200000Y-81565000D02*
X112960000Y-81235000D01*
X113440000Y-81235000D01*
X113200000Y-81565000D01*
G36*
X113200000Y-81565000D02*
G01*
X112960000Y-81235000D01*
X113440000Y-81235000D01*
X113200000Y-81565000D01*
G37*
%TO.C,C35*%
X52261252Y-101515000D02*
X51738748Y-101515000D01*
X52261252Y-102985000D02*
X51738748Y-102985000D01*
%TO.C,C19*%
X119765000Y-82018748D02*
X119765000Y-82541252D01*
X121235000Y-82018748D02*
X121235000Y-82541252D01*
%TO.C,FB5*%
X129212122Y-87470000D02*
X128412878Y-87470000D01*
X129212122Y-88590000D02*
X128412878Y-88590000D01*
%TO.C,D11*%
X124240000Y-86390000D02*
X124240000Y-82630000D01*
X126260000Y-86390000D02*
X124240000Y-86390000D01*
X126260000Y-86390000D02*
X126260000Y-82630000D01*
%TO.C,RV6*%
X86063704Y-138845000D02*
X86063704Y-142133000D01*
X86063704Y-142897000D02*
X86063704Y-146065000D01*
X86063704Y-146065000D02*
X92883704Y-146065000D01*
X92883704Y-138845000D02*
X86063704Y-138845000D01*
X92883704Y-142133000D02*
X92883704Y-138845000D01*
X92883704Y-146065000D02*
X92883704Y-142897000D01*
%TO.C,RV3*%
X98968750Y-114490625D02*
X98968750Y-121310625D01*
X98968750Y-121310625D02*
X102136750Y-121310625D01*
X102136750Y-114490625D02*
X98968750Y-114490625D01*
X102900750Y-121310625D02*
X106188750Y-121310625D01*
X106188750Y-114490625D02*
X102900750Y-114490625D01*
X106188750Y-121310625D02*
X106188750Y-114490625D01*
%TO.C,C10*%
X118640000Y-60711252D02*
X118640000Y-59288748D01*
X121360000Y-60711252D02*
X121360000Y-59288748D01*
%TO.C,U14*%
X78565000Y-155067500D02*
X78565000Y-154267500D01*
X78565000Y-155067500D02*
X78565000Y-155867500D01*
X81685000Y-155067500D02*
X81685000Y-154267500D01*
X81685000Y-155067500D02*
X81685000Y-155867500D01*
X78615000Y-153767500D02*
X78285000Y-154007500D01*
X78285000Y-153527500D01*
X78615000Y-153767500D01*
G36*
X78615000Y-153767500D02*
G01*
X78285000Y-154007500D01*
X78285000Y-153527500D01*
X78615000Y-153767500D01*
G37*
%TO.C,R11*%
X119765000Y-85802936D02*
X119765000Y-86257064D01*
X121235000Y-85802936D02*
X121235000Y-86257064D01*
%TO.C,U12*%
X75962500Y-155445000D02*
X75162500Y-155445000D01*
X75962500Y-155445000D02*
X76762500Y-155445000D01*
X75962500Y-158565000D02*
X75162500Y-158565000D01*
X75962500Y-158565000D02*
X76762500Y-158565000D01*
X74902500Y-158845000D02*
X74422500Y-158845000D01*
X74662500Y-158515000D01*
X74902500Y-158845000D01*
G36*
X74902500Y-158845000D02*
G01*
X74422500Y-158845000D01*
X74662500Y-158515000D01*
X74902500Y-158845000D01*
G37*
%TO.C,RV2*%
X78908750Y-114530625D02*
X78908750Y-121350625D01*
X78908750Y-121350625D02*
X82196750Y-121350625D01*
X82196750Y-114530625D02*
X78908750Y-114530625D01*
X82960750Y-121350625D02*
X86128750Y-121350625D01*
X86128750Y-114530625D02*
X82960750Y-114530625D01*
X86128750Y-121350625D02*
X86128750Y-114530625D01*
%TO.C,C12*%
X115116750Y-60711252D02*
X115116750Y-59288748D01*
X117836750Y-60711252D02*
X117836750Y-59288748D01*
%TO.C,U3*%
X49075000Y-70180000D02*
X49075000Y-68230000D01*
X49075000Y-70180000D02*
X49075000Y-72130000D01*
X54195000Y-70180000D02*
X54195000Y-68230000D01*
X54195000Y-70180000D02*
X54195000Y-72130000D01*
X54430000Y-73120000D02*
X54100000Y-72880000D01*
X54430000Y-72640000D01*
X54430000Y-73120000D01*
G36*
X54430000Y-73120000D02*
G01*
X54100000Y-72880000D01*
X54430000Y-72640000D01*
X54430000Y-73120000D01*
G37*
%TD*%
M02*
