%TF.GenerationSoftware,KiCad,Pcbnew,9.0.3+dfsg-1*%
%TF.CreationDate,2026-02-25T02:28:09-05:00*%
%TF.ProjectId,ClassECoil,436c6173-7345-4436-9f69-6c2e6b696361,rev?*%
%TF.SameCoordinates,Original*%
%TF.FileFunction,Soldermask,Bot*%
%TF.FilePolarity,Negative*%
%FSLAX46Y46*%
G04 Gerber Fmt 4.6, Leading zero omitted, Abs format (unit mm)*
G04 Created by KiCad (PCBNEW 9.0.3+dfsg-1) date 2026-02-25 02:28:09*
%MOMM*%
%LPD*%
G01*
G04 APERTURE LIST*
G04 Aperture macros list*
%AMRoundRect*
0 Rectangle with rounded corners*
0 $1 Rounding radius*
0 $2 $3 $4 $5 $6 $7 $8 $9 X,Y pos of 4 corners*
0 Add a 4 corners polygon primitive as box body*
4,1,4,$2,$3,$4,$5,$6,$7,$8,$9,$2,$3,0*
0 Add four circle primitives for the rounded corners*
1,1,$1+$1,$2,$3*
1,1,$1+$1,$4,$5*
1,1,$1+$1,$6,$7*
1,1,$1+$1,$8,$9*
0 Add four rect primitives between the rounded corners*
20,1,$1+$1,$2,$3,$4,$5,0*
20,1,$1+$1,$4,$5,$6,$7,0*
20,1,$1+$1,$6,$7,$8,$9,0*
20,1,$1+$1,$8,$9,$2,$3,0*%
G04 Aperture macros list end*
%ADD10C,0.100000*%
%ADD11C,1.905000*%
%ADD12R,2.000000X1.905000*%
%ADD13O,2.000000X1.905000*%
%ADD14C,1.000000*%
%ADD15RoundRect,0.250000X-1.750000X1.750000X-1.750000X-1.750000X1.750000X-1.750000X1.750000X1.750000X0*%
%ADD16C,4.000000*%
%ADD17C,3.500000*%
%ADD18R,1.700000X1.700000*%
%ADD19C,1.700000*%
%ADD20C,2.400000*%
%ADD21C,0.800000*%
%ADD22C,6.400000*%
%ADD23RoundRect,0.250000X0.750000X0.750000X-0.750000X0.750000X-0.750000X-0.750000X0.750000X-0.750000X0*%
%ADD24C,2.000000*%
%ADD25RoundRect,0.250000X0.845000X-0.620000X0.845000X0.620000X-0.845000X0.620000X-0.845000X-0.620000X0*%
%ADD26O,2.190000X1.740000*%
%ADD27RoundRect,0.750000X-0.750000X0.750000X-0.750000X-0.750000X0.750000X-0.750000X0.750000X0.750000X0*%
%ADD28C,3.000000*%
%ADD29C,6.000000*%
%ADD30R,1.905000X4.500000*%
%ADD31O,1.905000X4.500000*%
%ADD32R,9.360000X3.010000*%
%ADD33RoundRect,0.752500X0.752500X-3.927500X0.752500X3.927500X-0.752500X3.927500X-0.752500X-3.927500X0*%
%ADD34R,1.500000X2.000000*%
%ADD35O,1.500000X2.000000*%
%ADD36C,1.600000*%
%ADD37RoundRect,0.250000X0.550000X-0.550000X0.550000X0.550000X-0.550000X0.550000X-0.550000X-0.550000X0*%
%ADD38C,1.100000*%
%ADD39R,2.030000X1.730000*%
%ADD40O,2.030000X1.730000*%
%ADD41RoundRect,0.250000X-0.550000X0.550000X-0.550000X-0.550000X0.550000X-0.550000X0.550000X0.550000X0*%
%ADD42RoundRect,0.250000X0.262500X0.450000X-0.262500X0.450000X-0.262500X-0.450000X0.262500X-0.450000X0*%
%ADD43RoundRect,0.150000X-0.150000X0.512500X-0.150000X-0.512500X0.150000X-0.512500X0.150000X0.512500X0*%
%ADD44RoundRect,0.250000X-0.450000X0.262500X-0.450000X-0.262500X0.450000X-0.262500X0.450000X0.262500X0*%
%ADD45R,2.900000X5.400000*%
%ADD46RoundRect,0.250000X-0.262500X-0.450000X0.262500X-0.450000X0.262500X0.450000X-0.262500X0.450000X0*%
%ADD47RoundRect,0.250000X1.100000X-0.325000X1.100000X0.325000X-1.100000X0.325000X-1.100000X-0.325000X0*%
%ADD48RoundRect,0.250000X0.475000X-0.250000X0.475000X0.250000X-0.475000X0.250000X-0.475000X-0.250000X0*%
%ADD49RoundRect,0.250000X-0.250000X-0.475000X0.250000X-0.475000X0.250000X0.475000X-0.250000X0.475000X0*%
%ADD50RoundRect,0.250000X-1.000000X-0.650000X1.000000X-0.650000X1.000000X0.650000X-1.000000X0.650000X0*%
%ADD51RoundRect,0.075000X-0.650000X-0.075000X0.650000X-0.075000X0.650000X0.075000X-0.650000X0.075000X0*%
%ADD52RoundRect,0.150000X-0.587500X-0.150000X0.587500X-0.150000X0.587500X0.150000X-0.587500X0.150000X0*%
%ADD53RoundRect,0.150000X-0.825000X-0.150000X0.825000X-0.150000X0.825000X0.150000X-0.825000X0.150000X0*%
%ADD54RoundRect,0.250000X0.250000X0.475000X-0.250000X0.475000X-0.250000X-0.475000X0.250000X-0.475000X0*%
%ADD55C,1.440000*%
%ADD56RoundRect,0.250000X-0.475000X0.250000X-0.475000X-0.250000X0.475000X-0.250000X0.475000X0.250000X0*%
%ADD57RoundRect,0.150000X0.512500X0.150000X-0.512500X0.150000X-0.512500X-0.150000X0.512500X-0.150000X0*%
%ADD58RoundRect,0.218750X0.218750X0.381250X-0.218750X0.381250X-0.218750X-0.381250X0.218750X-0.381250X0*%
%ADD59RoundRect,0.150000X0.150000X-0.587500X0.150000X0.587500X-0.150000X0.587500X-0.150000X-0.587500X0*%
%ADD60RoundRect,0.250000X0.450000X-0.400000X0.450000X0.400000X-0.450000X0.400000X-0.450000X-0.400000X0*%
%ADD61RoundRect,0.150000X0.825000X0.150000X-0.825000X0.150000X-0.825000X-0.150000X0.825000X-0.150000X0*%
%ADD62RoundRect,0.250000X-0.650000X1.000000X-0.650000X-1.000000X0.650000X-1.000000X0.650000X1.000000X0*%
%ADD63RoundRect,0.137500X-0.662500X-0.137500X0.662500X-0.137500X0.662500X0.137500X-0.662500X0.137500X0*%
%ADD64RoundRect,0.250000X-0.400000X-0.600000X0.400000X-0.600000X0.400000X0.600000X-0.400000X0.600000X0*%
%ADD65RoundRect,0.218750X-0.218750X-0.381250X0.218750X-0.381250X0.218750X0.381250X-0.218750X0.381250X0*%
%ADD66RoundRect,0.150000X-0.512500X-0.150000X0.512500X-0.150000X0.512500X0.150000X-0.512500X0.150000X0*%
%ADD67RoundRect,0.150000X0.150000X-0.725000X0.150000X0.725000X-0.150000X0.725000X-0.150000X-0.725000X0*%
G04 APERTURE END LIST*
D10*
X82750000Y-71500000D02*
X86750000Y-71500000D01*
X86750000Y-78750000D01*
X82750000Y-78750000D01*
X82750000Y-71500000D01*
G36*
X82750000Y-71500000D02*
G01*
X86750000Y-71500000D01*
X86750000Y-78750000D01*
X82750000Y-78750000D01*
X82750000Y-71500000D01*
G37*
X86000000Y-70000000D02*
X90500000Y-70000000D01*
X90500000Y-73500000D01*
X86000000Y-73500000D01*
X86000000Y-70000000D01*
G36*
X86000000Y-70000000D02*
G01*
X90500000Y-70000000D01*
X90500000Y-73500000D01*
X86000000Y-73500000D01*
X86000000Y-70000000D01*
G37*
X64500000Y-29500000D02*
X95750000Y-29500000D01*
X95750000Y-31250000D01*
X64500000Y-31250000D01*
X64500000Y-29500000D01*
G36*
X64500000Y-29500000D02*
G01*
X95750000Y-29500000D01*
X95750000Y-31250000D01*
X64500000Y-31250000D01*
X64500000Y-29500000D01*
G37*
D11*
%TO.C,J11*%
X54460000Y-134500000D03*
X59540000Y-134500000D03*
%TD*%
D12*
%TO.C,U8*%
X65200000Y-97040000D03*
D13*
X65200000Y-94500000D03*
X65200000Y-91960000D03*
%TD*%
D14*
%TO.C,NE1*%
X149250000Y-71250000D03*
X149250000Y-74250000D03*
%TD*%
D15*
%TO.C,C9*%
X125750000Y-42750000D03*
D16*
X125750000Y-52750000D03*
%TD*%
D11*
%TO.C,J4*%
X149000000Y-99500000D03*
X149000000Y-104580000D03*
%TD*%
%TO.C,J2*%
X63000000Y-67540000D03*
X63000000Y-62460000D03*
%TD*%
D17*
%TO.C,U19*%
X128680000Y-164750000D03*
D12*
X112020000Y-162210000D03*
D13*
X112020000Y-164750000D03*
X112020000Y-167290000D03*
%TD*%
D18*
%TO.C,J12*%
X59460000Y-166750000D03*
D19*
X59460000Y-169290000D03*
X62000000Y-166750000D03*
X62000000Y-169290000D03*
X64540000Y-166750000D03*
X64540000Y-169290000D03*
%TD*%
D20*
%TO.C,C37*%
X53250000Y-63500000D03*
X53250000Y-41000000D03*
%TD*%
D21*
%TO.C,H4*%
X137100000Y-169000000D03*
X137802944Y-167302944D03*
X137802944Y-170697056D03*
X139500000Y-166600000D03*
D22*
X139500000Y-169000000D03*
D21*
X139500000Y-171400000D03*
X141197056Y-167302944D03*
X141197056Y-170697056D03*
X141900000Y-169000000D03*
%TD*%
D23*
%TO.C,C31*%
X57367677Y-91750000D03*
D24*
X52367677Y-91750000D03*
%TD*%
D25*
%TO.C,J1*%
X57000000Y-113775000D03*
D26*
X57000000Y-111235000D03*
%TD*%
D18*
%TO.C,J6*%
X54460000Y-124500000D03*
D19*
X57000000Y-124500000D03*
X59540000Y-124500000D03*
%TD*%
D27*
%TO.C,F1*%
X149000000Y-125400000D03*
X149000000Y-133000000D03*
D28*
X149000000Y-152500000D03*
X149000000Y-160100000D03*
%TD*%
D29*
%TO.C,Q1*%
X85500000Y-96000000D03*
D30*
X80420000Y-76140000D03*
D31*
X85500000Y-76140000D03*
X88040000Y-76140000D03*
X90580000Y-76140000D03*
%TD*%
D11*
%TO.C,J3*%
X114460000Y-68750000D03*
X119540000Y-68750000D03*
%TD*%
D21*
%TO.C,H7*%
X147100000Y-33500000D03*
X147802944Y-31802944D03*
X147802944Y-35197056D03*
X149500000Y-31100000D03*
D22*
X149500000Y-33500000D03*
D21*
X149500000Y-35900000D03*
X151197056Y-31802944D03*
X151197056Y-35197056D03*
X151900000Y-33500000D03*
%TD*%
D28*
%TO.C,L2*%
X72750000Y-68250000D03*
X77750000Y-68250000D03*
X82750000Y-68250000D03*
X92750000Y-68250000D03*
X97750000Y-68250000D03*
X102750000Y-68250000D03*
X102750000Y-33250000D03*
X97750000Y-33250000D03*
X82750000Y-33250000D03*
X77750000Y-33250000D03*
X72750000Y-33250000D03*
%TD*%
D32*
%TO.C,D2*%
X117900000Y-150300000D03*
D33*
X116400000Y-133700000D03*
X134500000Y-133700000D03*
X134500000Y-148000000D03*
%TD*%
D11*
%TO.C,J5*%
X148960000Y-111710000D03*
X148960000Y-116790000D03*
%TD*%
D21*
%TO.C,H6*%
X50100000Y-168500000D03*
X50802944Y-166802944D03*
X50802944Y-170197056D03*
X52500000Y-166100000D03*
D22*
X52500000Y-168500000D03*
D21*
X52500000Y-170900000D03*
X54197056Y-166802944D03*
X54197056Y-170197056D03*
X54900000Y-168500000D03*
%TD*%
%TO.C,H8*%
X50100000Y-33500000D03*
X50802944Y-31802944D03*
X50802944Y-35197056D03*
X52500000Y-31100000D03*
D22*
X52500000Y-33500000D03*
D21*
X52500000Y-35900000D03*
X54197056Y-31802944D03*
X54197056Y-35197056D03*
X54900000Y-33500000D03*
%TD*%
D34*
%TO.C,U2*%
X58762500Y-99132500D03*
D35*
X56222500Y-99132500D03*
X53682500Y-99132500D03*
X51142500Y-99132500D03*
%TD*%
D20*
%TO.C,C2*%
X63000000Y-54500000D03*
X63000000Y-32000000D03*
%TD*%
D36*
%TO.C,R51*%
X149155000Y-67800000D03*
X151695000Y-67800000D03*
%TD*%
D21*
%TO.C,H3*%
X68850000Y-169000000D03*
X69552944Y-167302944D03*
X69552944Y-170697056D03*
X71250000Y-166600000D03*
D22*
X71250000Y-169000000D03*
D21*
X71250000Y-171400000D03*
X72947056Y-167302944D03*
X72947056Y-170697056D03*
X73650000Y-169000000D03*
%TD*%
%TO.C,H1*%
X137100000Y-77000000D03*
X137802944Y-75302944D03*
X137802944Y-78697056D03*
X139500000Y-74600000D03*
D22*
X139500000Y-77000000D03*
D21*
X139500000Y-79400000D03*
X141197056Y-75302944D03*
X141197056Y-78697056D03*
X141900000Y-77000000D03*
%TD*%
D20*
%TO.C,C25*%
X148750000Y-63250000D03*
X148750000Y-40750000D03*
%TD*%
D29*
%TO.C,Q2*%
X105500000Y-96000000D03*
D30*
X100420000Y-76140000D03*
D31*
X105500000Y-76140000D03*
X108040000Y-76140000D03*
X110580000Y-76140000D03*
%TD*%
D37*
%TO.C,U10*%
X100035000Y-146416000D03*
D36*
X102575000Y-146416000D03*
X105115000Y-146416000D03*
X105115000Y-138796000D03*
X102575000Y-138796000D03*
X100035000Y-138796000D03*
%TD*%
D21*
%TO.C,H5*%
X147100000Y-168500000D03*
X147802944Y-166802944D03*
X147802944Y-170197056D03*
X149500000Y-166100000D03*
D22*
X149500000Y-168500000D03*
D21*
X149500000Y-170900000D03*
X151197056Y-166802944D03*
X151197056Y-170197056D03*
X151900000Y-168500000D03*
%TD*%
D38*
%TO.C,M1*%
X152160000Y-82940000D03*
D39*
X150000000Y-77860000D03*
D40*
X150000000Y-80400000D03*
X150000000Y-82940000D03*
X150000000Y-85480000D03*
%TD*%
D29*
%TO.C,Q6*%
X125500000Y-96000000D03*
D30*
X120420000Y-76140000D03*
D31*
X125500000Y-76140000D03*
X128040000Y-76140000D03*
X130580000Y-76140000D03*
%TD*%
D21*
%TO.C,H2*%
X68850000Y-77000000D03*
X69552944Y-75302944D03*
X69552944Y-78697056D03*
X71250000Y-74600000D03*
D22*
X71250000Y-77000000D03*
D21*
X71250000Y-79400000D03*
X72947056Y-75302944D03*
X72947056Y-78697056D03*
X73650000Y-77000000D03*
%TD*%
D41*
%TO.C,C30*%
X64250000Y-72250000D03*
D36*
X64250000Y-74250000D03*
%TD*%
D42*
%TO.C,R18*%
X110912500Y-80030000D03*
X109087500Y-80030000D03*
%TD*%
D43*
%TO.C,U13*%
X115550000Y-80112500D03*
X116500000Y-80112500D03*
X117450000Y-80112500D03*
X117450000Y-82387500D03*
X115550000Y-82387500D03*
%TD*%
D44*
%TO.C,R9*%
X76750000Y-79462500D03*
X76750000Y-81287500D03*
%TD*%
D42*
%TO.C,R3*%
X86825000Y-126440625D03*
X85000000Y-126440625D03*
%TD*%
D45*
%TO.C,L1*%
X50650000Y-83500000D03*
X60350000Y-83500000D03*
%TD*%
D46*
%TO.C,R13*%
X56087500Y-71250000D03*
X57912500Y-71250000D03*
%TD*%
D47*
%TO.C,C22*%
X127000000Y-61500000D03*
X127000000Y-58550000D03*
%TD*%
D48*
%TO.C,C4*%
X86518750Y-112340625D03*
X86518750Y-110440625D03*
%TD*%
D49*
%TO.C,C5*%
X74875000Y-148705000D03*
X76775000Y-148705000D03*
%TD*%
D50*
%TO.C,D5*%
X56500000Y-74500000D03*
X60500000Y-74500000D03*
%TD*%
D51*
%TO.C,U9*%
X90925000Y-95405000D03*
X90925000Y-94905000D03*
X90925000Y-94405000D03*
X90925000Y-93905000D03*
X90925000Y-93405000D03*
X95325000Y-93405000D03*
X95325000Y-93905000D03*
X95325000Y-94405000D03*
X95325000Y-94905000D03*
X95325000Y-95405000D03*
%TD*%
D42*
%TO.C,R17*%
X105662500Y-89780000D03*
X103837500Y-89780000D03*
%TD*%
D52*
%TO.C,D4*%
X82143750Y-112140625D03*
X82143750Y-110240625D03*
X84018750Y-111190625D03*
%TD*%
%TO.C,Q4*%
X96286204Y-151655000D03*
X96286204Y-149755000D03*
X98161204Y-150705000D03*
%TD*%
D53*
%TO.C,U16*%
X79748704Y-151610000D03*
X79748704Y-150340000D03*
X79748704Y-149070000D03*
X79748704Y-147800000D03*
X84698704Y-147800000D03*
X84698704Y-149070000D03*
X84698704Y-150340000D03*
X84698704Y-151610000D03*
%TD*%
D54*
%TO.C,C18*%
X58450000Y-102250000D03*
X56550000Y-102250000D03*
%TD*%
%TO.C,C3*%
X76775000Y-146205000D03*
X74875000Y-146205000D03*
%TD*%
D53*
%TO.C,U17*%
X87850000Y-151610000D03*
X87850000Y-150340000D03*
X87850000Y-149070000D03*
X87850000Y-147800000D03*
X92800000Y-147800000D03*
X92800000Y-149070000D03*
X92800000Y-150340000D03*
X92800000Y-151610000D03*
%TD*%
D49*
%TO.C,C7*%
X92568750Y-126440625D03*
X94468750Y-126440625D03*
%TD*%
D42*
%TO.C,R5*%
X90575000Y-123940625D03*
X88750000Y-123940625D03*
%TD*%
D50*
%TO.C,D8*%
X88250000Y-89030000D03*
X92250000Y-89030000D03*
%TD*%
D44*
%TO.C,R6*%
X76750000Y-83050000D03*
X76750000Y-84875000D03*
%TD*%
D42*
%TO.C,R8*%
X86825000Y-123940625D03*
X85000000Y-123940625D03*
%TD*%
D47*
%TO.C,C20*%
X134000000Y-61500000D03*
X134000000Y-58550000D03*
%TD*%
D49*
%TO.C,C26*%
X92568750Y-123940625D03*
X94468750Y-123940625D03*
%TD*%
D55*
%TO.C,RV1*%
X102518750Y-112940625D03*
X99978750Y-110400625D03*
X102518750Y-107860625D03*
%TD*%
D56*
%TO.C,C27*%
X109000000Y-162000000D03*
X109000000Y-163900000D03*
%TD*%
D46*
%TO.C,R14*%
X63587500Y-87500000D03*
X65412500Y-87500000D03*
%TD*%
D57*
%TO.C,U11*%
X78906250Y-110490625D03*
X78906250Y-111440625D03*
X78906250Y-112390625D03*
X76631250Y-112390625D03*
X76631250Y-110490625D03*
%TD*%
D54*
%TO.C,C8*%
X126200000Y-88030000D03*
X124300000Y-88030000D03*
%TD*%
D47*
%TO.C,C58*%
X123500000Y-61500000D03*
X123500000Y-58550000D03*
%TD*%
D49*
%TO.C,C1*%
X96368750Y-126503125D03*
X98268750Y-126503125D03*
%TD*%
D54*
%TO.C,C15*%
X65000000Y-101750000D03*
X63100000Y-101750000D03*
%TD*%
D58*
%TO.C,FB3*%
X109562500Y-89780000D03*
X107437500Y-89780000D03*
%TD*%
D42*
%TO.C,R22*%
X117412500Y-84750000D03*
X115587500Y-84750000D03*
%TD*%
D49*
%TO.C,C6*%
X90875000Y-153955000D03*
X92775000Y-153955000D03*
%TD*%
D47*
%TO.C,C17*%
X137500000Y-61500000D03*
X137500000Y-58550000D03*
%TD*%
D42*
%TO.C,R20*%
X97886204Y-147705000D03*
X96061204Y-147705000D03*
%TD*%
D43*
%TO.C,U18*%
X82825000Y-153930000D03*
X83775000Y-153930000D03*
X84725000Y-153930000D03*
X84725000Y-156205000D03*
X82825000Y-156205000D03*
%TD*%
D55*
%TO.C,RV5*%
X84513704Y-142515000D03*
X81973704Y-145055000D03*
X79433704Y-142515000D03*
%TD*%
%TO.C,RV4*%
X74578750Y-115400625D03*
X77118750Y-117940625D03*
X74578750Y-120480625D03*
%TD*%
D43*
%TO.C,U6*%
X96800000Y-80250000D03*
X97750000Y-80250000D03*
X98700000Y-80250000D03*
X98700000Y-82525000D03*
X96800000Y-82525000D03*
%TD*%
D49*
%TO.C,C32*%
X63550000Y-85250000D03*
X65450000Y-85250000D03*
%TD*%
D59*
%TO.C,D1*%
X98268750Y-124190625D03*
X96368750Y-124190625D03*
X97318750Y-122315625D03*
%TD*%
D60*
%TO.C,D16*%
X85250000Y-85280000D03*
X85250000Y-82380000D03*
%TD*%
D54*
%TO.C,C24*%
X150950000Y-89200000D03*
X149050000Y-89200000D03*
%TD*%
D61*
%TO.C,U7*%
X92975000Y-82125000D03*
X92975000Y-83395000D03*
X92975000Y-84665000D03*
X92975000Y-85935000D03*
X88025000Y-85935000D03*
X88025000Y-84665000D03*
X88025000Y-83395000D03*
X88025000Y-82125000D03*
%TD*%
D42*
%TO.C,R15*%
X76737500Y-143705000D03*
X74912500Y-143705000D03*
%TD*%
D47*
%TO.C,C16*%
X113000000Y-61475000D03*
X113000000Y-58525000D03*
%TD*%
D42*
%TO.C,R1*%
X97662500Y-91530000D03*
X95837500Y-91530000D03*
%TD*%
%TO.C,R2*%
X76737500Y-141205000D03*
X74912500Y-141205000D03*
%TD*%
D60*
%TO.C,D12*%
X105250000Y-85230000D03*
X105250000Y-82330000D03*
%TD*%
D42*
%TO.C,R12*%
X57912500Y-69000000D03*
X56087500Y-69000000D03*
%TD*%
D48*
%TO.C,C23*%
X109000000Y-167650000D03*
X109000000Y-165750000D03*
%TD*%
D42*
%TO.C,R4*%
X130912500Y-80030000D03*
X129087500Y-80030000D03*
%TD*%
D62*
%TO.C,D6*%
X64500000Y-78250000D03*
X64500000Y-82250000D03*
%TD*%
D46*
%TO.C,R25*%
X74912500Y-151205000D03*
X76737500Y-151205000D03*
%TD*%
D63*
%TO.C,U4*%
X89018750Y-119135625D03*
X89018750Y-117865625D03*
X89018750Y-116595625D03*
X89018750Y-115325625D03*
X89018750Y-114055625D03*
X89018750Y-112785625D03*
X89018750Y-111515625D03*
X89018750Y-110245625D03*
X95518750Y-110245625D03*
X95518750Y-111515625D03*
X95518750Y-112785625D03*
X95518750Y-114055625D03*
X95518750Y-115325625D03*
X95518750Y-116595625D03*
X95518750Y-117865625D03*
X95518750Y-119135625D03*
%TD*%
D42*
%TO.C,R16*%
X90912500Y-80030000D03*
X89087500Y-80030000D03*
%TD*%
D46*
%TO.C,R19*%
X74912500Y-153705000D03*
X76737500Y-153705000D03*
%TD*%
D64*
%TO.C,D3*%
X77018750Y-107440625D03*
X80518750Y-107440625D03*
%TD*%
D56*
%TO.C,C13*%
X85250000Y-88030000D03*
X85250000Y-89930000D03*
%TD*%
D65*
%TO.C,FB4*%
X107437500Y-87780000D03*
X109562500Y-87780000D03*
%TD*%
D54*
%TO.C,C14*%
X90612500Y-126440625D03*
X88712500Y-126440625D03*
%TD*%
D42*
%TO.C,R10*%
X88737500Y-153955000D03*
X86912500Y-153955000D03*
%TD*%
D44*
%TO.C,R7*%
X76750000Y-86712500D03*
X76750000Y-88537500D03*
%TD*%
D61*
%TO.C,U1*%
X133000000Y-82240000D03*
X133000000Y-83510000D03*
X133000000Y-84780000D03*
X133000000Y-86050000D03*
X128050000Y-86050000D03*
X128050000Y-84780000D03*
X128050000Y-83510000D03*
X128050000Y-82240000D03*
%TD*%
D49*
%TO.C,C29*%
X51435000Y-75180000D03*
X53335000Y-75180000D03*
%TD*%
%TO.C,C11*%
X103800000Y-87780000D03*
X105700000Y-87780000D03*
%TD*%
D47*
%TO.C,C21*%
X130500000Y-61500000D03*
X130500000Y-58550000D03*
%TD*%
D61*
%TO.C,U5*%
X112975000Y-82125000D03*
X112975000Y-83395000D03*
X112975000Y-84665000D03*
X112975000Y-85935000D03*
X108025000Y-85935000D03*
X108025000Y-84665000D03*
X108025000Y-83395000D03*
X108025000Y-82125000D03*
%TD*%
D54*
%TO.C,C35*%
X52950000Y-102250000D03*
X51050000Y-102250000D03*
%TD*%
D56*
%TO.C,C19*%
X120500000Y-81330000D03*
X120500000Y-83230000D03*
%TD*%
D58*
%TO.C,FB5*%
X129875000Y-88030000D03*
X127750000Y-88030000D03*
%TD*%
D60*
%TO.C,D11*%
X125250000Y-85480000D03*
X125250000Y-82580000D03*
%TD*%
D55*
%TO.C,RV6*%
X92013704Y-142515000D03*
X89473704Y-145055000D03*
X86933704Y-142515000D03*
%TD*%
%TO.C,RV3*%
X102518750Y-120440625D03*
X99978750Y-117900625D03*
X102518750Y-115360625D03*
%TD*%
D47*
%TO.C,C10*%
X120000000Y-61475000D03*
X120000000Y-58525000D03*
%TD*%
D43*
%TO.C,U14*%
X79175000Y-153930000D03*
X80125000Y-153930000D03*
X81075000Y-153930000D03*
X81075000Y-156205000D03*
X79175000Y-156205000D03*
%TD*%
D44*
%TO.C,R11*%
X120500000Y-85117500D03*
X120500000Y-86942500D03*
%TD*%
D66*
%TO.C,U12*%
X74825000Y-157955000D03*
X74825000Y-157005000D03*
X74825000Y-156055000D03*
X77100000Y-156055000D03*
X77100000Y-157005000D03*
X77100000Y-157955000D03*
%TD*%
D55*
%TO.C,RV2*%
X82578750Y-115400625D03*
X85118750Y-117940625D03*
X82578750Y-120480625D03*
%TD*%
D47*
%TO.C,C12*%
X116476750Y-61475000D03*
X116476750Y-58525000D03*
%TD*%
D67*
%TO.C,U3*%
X53540000Y-72755000D03*
X52270000Y-72755000D03*
X51000000Y-72755000D03*
X49730000Y-72755000D03*
X49730000Y-67605000D03*
X51000000Y-67605000D03*
X52270000Y-67605000D03*
X53540000Y-67605000D03*
%TD*%
M02*
